<?xml version="1.0" encoding="UTF-8"?>
<svg width="768" height="1024" viewBox="0 0 768 1024" fill="none" xmlns="http://www.w3.org/2000/svg">
  <defs>
    <linearGradient id="bg-abyss-revenant-c36" x1="60" y1="40" x2="728" y2="1004" gradientUnits="userSpaceOnUse">
      <stop offset="0" stop-color="#130f1e"/>
      <stop offset="0.55" stop-color="#462356"/>
      <stop offset="1" stop-color="#130f1e"/>
    </linearGradient>
    <radialGradient id="glow-abyss-revenant-c36" cx="0" cy="0" r="1" gradientUnits="userSpaceOnUse" gradientTransform="translate(223.39 285.37) rotate(90) scale(255.17 255.17)">
      <stop stop-color="#7a2b45" stop-opacity="0.45"/>
      <stop offset="1" stop-color="#7a2b45" stop-opacity="0"/>
    </radialGradient>
    <linearGradient id="edge-abyss-revenant-c36" x1="0" y1="0" x2="768" y2="1024" gradientUnits="userSpaceOnUse">
      <stop stop-color="#7a2b45" stop-opacity="0.85"/>
      <stop offset="1" stop-color="#f06d88" stop-opacity="0.85"/>
    </linearGradient>
  </defs>

  <rect x="0" y="0" width="768" height="1024" rx="32" fill="#060910"/>
  <rect x="16" y="16" width="736" height="992" rx="24" fill="url(#bg-abyss-revenant-c36)"/>
  <rect x="16" y="16" width="736" height="992" rx="24" fill="url(#glow-abyss-revenant-c36)"/>

  <g opacity="0.88">
    <path d="M229.02,314.81 C308.23,248.30 165.06,505.16 245.35,657.71" stroke="#f06d88" stroke-width="7" fill="none" opacity="0.72"/><path d="M289.99,252.65 C361.35,192.26 219.52,470.42 316.42,582.86" stroke="#7a2b45" stroke-width="6.3" fill="none" opacity="0.72"/><path d="M358.13,279.85 C438.19,194.11 296.15,440.73 372.19,652.44" stroke="#f06d88" stroke-width="5.6" fill="none" opacity="0.72"/><path d="M416.71,271.88 C478.85,182.97 362.45,423.69 438.42,581.69" stroke="#7a2b45" stroke-width="4.9" fill="none" opacity="0.72"/><path d="M493.14,256.48 C580.30,167.10 427.96,481.31 517.99,604.12" stroke="#f06d88" stroke-width="4.2" fill="none" opacity="0.72"/><path d="M545.81,243.87 C632.61,173.35 468.65,472.76 568.79,562.41" stroke="#7a2b45" stroke-width="3.5" fill="none" opacity="0.72"/>
  </g>

  <g opacity="0.8">
    <circle cx="112.09" cy="563.77" r="1.85" fill="#f06d88" opacity="0.29"/><circle cx="105.16" cy="196.61" r="1.68" fill="#7a2b45" opacity="0.27"/><circle cx="676.65" cy="1019.83" r="1.91" fill="#f06d88" opacity="0.38"/><circle cx="678.01" cy="423.53" r="4.68" fill="#7a2b45" opacity="0.70"/><circle cx="551.11" cy="153.69" r="2.34" fill="#f06d88" opacity="0.31"/><circle cx="474.04" cy="418.15" r="3.95" fill="#7a2b45" opacity="0.34"/><circle cx="631.73" cy="41.74" r="4.52" fill="#f06d88" opacity="0.72"/><circle cx="430.90" cy="730.26" r="1.33" fill="#7a2b45" opacity="0.25"/><circle cx="651.48" cy="988.31" r="3.82" fill="#f06d88" opacity="0.40"/><circle cx="739.53" cy="823.51" r="4.41" fill="#7a2b45" opacity="0.43"/><circle cx="523.32" cy="1004.76" r="4.54" fill="#f06d88" opacity="0.60"/><circle cx="442.85" cy="37.05" r="4.08" fill="#7a2b45" opacity="0.50"/><circle cx="268.20" cy="872.23" r="1.89" fill="#f06d88" opacity="0.45"/><circle cx="21.67" cy="433.41" r="2.96" fill="#7a2b45" opacity="0.44"/><circle cx="291.69" cy="865.38" r="4.68" fill="#f06d88" opacity="0.39"/><circle cx="518.51" cy="818.10" r="3.23" fill="#7a2b45" opacity="0.47"/><circle cx="739.17" cy="276.12" r="1.82" fill="#f06d88" opacity="0.74"/><circle cx="110.56" cy="127.31" r="3.70" fill="#7a2b45" opacity="0.48"/><circle cx="54.57" cy="712.39" r="2.09" fill="#f06d88" opacity="0.70"/><circle cx="34.87" cy="99.86" r="4.49" fill="#7a2b45" opacity="0.34"/><circle cx="586.34" cy="158.50" r="3.82" fill="#f06d88" opacity="0.52"/><circle cx="699.62" cy="80.80" r="4.78" fill="#7a2b45" opacity="0.59"/><circle cx="84.52" cy="267.30" r="2.86" fill="#f06d88" opacity="0.43"/><circle cx="717.88" cy="529.49" r="4.21" fill="#7a2b45" opacity="0.30"/><circle cx="382.29" cy="128.16" r="2.80" fill="#f06d88" opacity="0.71"/><circle cx="472.91" cy="613.86" r="2.50" fill="#7a2b45" opacity="0.56"/><circle cx="386.94" cy="130.94" r="4.13" fill="#f06d88" opacity="0.67"/><circle cx="153.62" cy="107.22" r="3.89" fill="#7a2b45" opacity="0.70"/>
  </g>

  <rect x="16" y="16" width="736" height="992" rx="24" stroke="url(#edge-abyss-revenant-c36)" stroke-width="2.5" opacity="0.85"/>
  <rect x="22" y="22" width="724" height="980" rx="20" stroke="#78d8ff" stroke-width="2" opacity="0.74"/>

  <rect x="34" y="34" width="700" height="72" rx="14" fill="#070b14" fill-opacity="0.72" stroke="#78d8ff" stroke-opacity="0.55"/>
  <text x="54" y="80" fill="#EAF4FF" font-family="Exo 2, Segoe UI, sans-serif" font-size="32" font-weight="700">Abyss Revenant</text>

  <rect x="34" y="872" width="700" height="92" rx="14" fill="#070b14" fill-opacity="0.74" stroke="#78d8ff" stroke-opacity="0.6"/>
  <text x="54" y="924" fill="#D9E7FF" font-family="Exo 2, Segoe UI, sans-serif" font-size="30" font-weight="600">Resource Surge</text>

  <rect x="598" y="36" width="118" height="42" rx="10" fill="#78d8ff" fill-opacity="0.2" stroke="#78d8ff" stroke-opacity="0.8"/>
  <text x="612" y="65" fill="#78d8ff" font-family="Exo 2, Segoe UI, sans-serif" font-size="20" font-weight="700">RARE</text>

  <circle cx="708" cy="954" r="26" fill="#080d18" stroke="#78d8ff" stroke-opacity="0.8"/>
  <text x="696" y="962" fill="#E7F2FF" font-family="Exo 2, Segoe UI, sans-serif" font-size="24" font-weight="700">36</text>
</svg>