<?xml version="1.0" encoding="UTF-8"?>
<svg width="768" height="1024" viewBox="0 0 768 1024" fill="none" xmlns="http://www.w3.org/2000/svg">
  <defs>
    <linearGradient id="bg-abyss-revenant-c33" x1="60" y1="40" x2="728" y2="1004" gradientUnits="userSpaceOnUse">
      <stop offset="0" stop-color="#130f1e"/>
      <stop offset="0.55" stop-color="#462356"/>
      <stop offset="1" stop-color="#130f1e"/>
    </linearGradient>
    <radialGradient id="glow-abyss-revenant-c33" cx="0" cy="0" r="1" gradientUnits="userSpaceOnUse" gradientTransform="translate(226.39 337.00) rotate(90) scale(186.64 186.64)">
      <stop stop-color="#7a2b45" stop-opacity="0.45"/>
      <stop offset="1" stop-color="#7a2b45" stop-opacity="0"/>
    </radialGradient>
    <linearGradient id="edge-abyss-revenant-c33" x1="0" y1="0" x2="768" y2="1024" gradientUnits="userSpaceOnUse">
      <stop stop-color="#7a2b45" stop-opacity="0.85"/>
      <stop offset="1" stop-color="#f06d88" stop-opacity="0.85"/>
    </linearGradient>
  </defs>

  <rect x="0" y="0" width="768" height="1024" rx="32" fill="#060910"/>
  <rect x="16" y="16" width="736" height="992" rx="24" fill="url(#bg-abyss-revenant-c33)"/>
  <rect x="16" y="16" width="736" height="992" rx="24" fill="url(#glow-abyss-revenant-c33)"/>

  <g opacity="0.88">
    <path d="M231.10,275.30 C294.70,155.68 178.98,480.97 253.51,673.70" stroke="#f06d88" stroke-width="7" fill="none" opacity="0.72"/><path d="M289.81,266.25 C363.79,198.68 215.98,428.41 313.58,623.00" stroke="#7a2b45" stroke-width="6.3" fill="none" opacity="0.72"/><path d="M358.89,281.81 C442.77,195.27 295.33,451.33 385.30,680.02" stroke="#f06d88" stroke-width="5.6" fill="none" opacity="0.72"/><path d="M427.95,258.04 C506.41,185.76 350.54,431.49 445.42,641.26" stroke="#7a2b45" stroke-width="4.9" fill="none" opacity="0.72"/><path d="M482.02,310.57 C546.93,209.20 405.22,521.20 503.71,610.53" stroke="#f06d88" stroke-width="4.2" fill="none" opacity="0.72"/><path d="M550.89,318.45 C631.45,257.76 477.32,527.79 572.05,709.40" stroke="#7a2b45" stroke-width="3.5" fill="none" opacity="0.72"/>
  </g>

  <g opacity="0.8">
    <circle cx="500.29" cy="985.90" r="3.38" fill="#f06d88" opacity="0.68"/><circle cx="220.95" cy="548.89" r="3.15" fill="#7a2b45" opacity="0.68"/><circle cx="238.70" cy="556.00" r="3.05" fill="#f06d88" opacity="0.68"/><circle cx="460.77" cy="637.39" r="2.24" fill="#7a2b45" opacity="0.73"/><circle cx="160.41" cy="559.98" r="4.70" fill="#f06d88" opacity="0.64"/><circle cx="198.20" cy="927.04" r="4.76" fill="#7a2b45" opacity="0.72"/><circle cx="233.75" cy="539.79" r="2.47" fill="#f06d88" opacity="0.46"/><circle cx="304.70" cy="90.75" r="2.12" fill="#7a2b45" opacity="0.26"/><circle cx="617.71" cy="1002.28" r="4.85" fill="#f06d88" opacity="0.28"/><circle cx="150.16" cy="408.83" r="2.85" fill="#7a2b45" opacity="0.43"/><circle cx="368.27" cy="246.21" r="4.51" fill="#f06d88" opacity="0.64"/><circle cx="643.08" cy="382.25" r="2.06" fill="#7a2b45" opacity="0.62"/><circle cx="417.64" cy="752.52" r="3.93" fill="#f06d88" opacity="0.57"/><circle cx="117.94" cy="388.25" r="1.65" fill="#7a2b45" opacity="0.41"/><circle cx="224.99" cy="622.15" r="4.57" fill="#f06d88" opacity="0.55"/><circle cx="751.53" cy="64.48" r="4.11" fill="#7a2b45" opacity="0.54"/><circle cx="160.25" cy="264.49" r="4.65" fill="#f06d88" opacity="0.35"/><circle cx="391.05" cy="954.17" r="4.92" fill="#7a2b45" opacity="0.47"/><circle cx="46.35" cy="960.74" r="2.50" fill="#f06d88" opacity="0.33"/><circle cx="55.37" cy="241.87" r="4.74" fill="#7a2b45" opacity="0.45"/><circle cx="221.91" cy="400.70" r="3.94" fill="#f06d88" opacity="0.62"/><circle cx="408.36" cy="270.46" r="4.82" fill="#7a2b45" opacity="0.39"/><circle cx="142.61" cy="872.08" r="2.88" fill="#f06d88" opacity="0.38"/><circle cx="432.42" cy="133.19" r="2.11" fill="#7a2b45" opacity="0.50"/><circle cx="314.66" cy="554.55" r="4.80" fill="#f06d88" opacity="0.60"/><circle cx="468.50" cy="576.18" r="2.17" fill="#7a2b45" opacity="0.46"/><circle cx="355.82" cy="190.53" r="4.89" fill="#f06d88" opacity="0.56"/><circle cx="703.22" cy="560.75" r="2.46" fill="#7a2b45" opacity="0.40"/>
  </g>

  <rect x="16" y="16" width="736" height="992" rx="24" stroke="url(#edge-abyss-revenant-c33)" stroke-width="2.5" opacity="0.85"/>
  <rect x="22" y="22" width="724" height="980" rx="20" stroke="#78d8ff" stroke-width="2" opacity="0.74"/>

  <rect x="34" y="34" width="700" height="72" rx="14" fill="#070b14" fill-opacity="0.72" stroke="#78d8ff" stroke-opacity="0.55"/>
  <text x="54" y="80" fill="#EAF4FF" font-family="Exo 2, Segoe UI, sans-serif" font-size="32" font-weight="700">Abyss Revenant</text>

  <rect x="34" y="872" width="700" height="92" rx="14" fill="#070b14" fill-opacity="0.74" stroke="#78d8ff" stroke-opacity="0.6"/>
  <text x="54" y="924" fill="#D9E7FF" font-family="Exo 2, Segoe UI, sans-serif" font-size="30" font-weight="600">Simple Buff</text>

  <rect x="598" y="36" width="118" height="42" rx="10" fill="#78d8ff" fill-opacity="0.2" stroke="#78d8ff" stroke-opacity="0.8"/>
  <text x="612" y="65" fill="#78d8ff" font-family="Exo 2, Segoe UI, sans-serif" font-size="20" font-weight="700">RARE</text>

  <circle cx="708" cy="954" r="26" fill="#080d18" stroke="#78d8ff" stroke-opacity="0.8"/>
  <text x="696" y="962" fill="#E7F2FF" font-family="Exo 2, Segoe UI, sans-serif" font-size="24" font-weight="700">33</text>
</svg>