<?xml version="1.0" encoding="UTF-8"?>
<svg width="768" height="1024" viewBox="0 0 768 1024" fill="none" xmlns="http://www.w3.org/2000/svg">
  <defs>
    <linearGradient id="bg-abyss-revenant-c27" x1="60" y1="40" x2="728" y2="1004" gradientUnits="userSpaceOnUse">
      <stop offset="0" stop-color="#130f1e"/>
      <stop offset="0.55" stop-color="#462356"/>
      <stop offset="1" stop-color="#130f1e"/>
    </linearGradient>
    <radialGradient id="glow-abyss-revenant-c27" cx="0" cy="0" r="1" gradientUnits="userSpaceOnUse" gradientTransform="translate(346.91 430.03) rotate(90) scale(211.78 211.78)">
      <stop stop-color="#7a2b45" stop-opacity="0.45"/>
      <stop offset="1" stop-color="#7a2b45" stop-opacity="0"/>
    </radialGradient>
    <linearGradient id="edge-abyss-revenant-c27" x1="0" y1="0" x2="768" y2="1024" gradientUnits="userSpaceOnUse">
      <stop stop-color="#7a2b45" stop-opacity="0.85"/>
      <stop offset="1" stop-color="#f06d88" stop-opacity="0.85"/>
    </linearGradient>
  </defs>

  <rect x="0" y="0" width="768" height="1024" rx="32" fill="#060910"/>
  <rect x="16" y="16" width="736" height="992" rx="24" fill="url(#bg-abyss-revenant-c27)"/>
  <rect x="16" y="16" width="736" height="992" rx="24" fill="url(#glow-abyss-revenant-c27)"/>

  <g opacity="0.88">
    <path d="M222.02,265.66 C309.74,164.54 137.50,434.36 239.08,577.37" stroke="#f06d88" stroke-width="7" fill="none" opacity="0.72"/><path d="M294.18,257.83 C382.58,184.37 241.36,447.15 309.32,635.31" stroke="#7a2b45" stroke-width="6.3" fill="none" opacity="0.72"/><path d="M351.21,257.61 C412.83,196.33 295.11,481.21 367.05,638.57" stroke="#f06d88" stroke-width="5.6" fill="none" opacity="0.72"/><path d="M417.16,317.10 C505.00,199.37 353.43,474.62 427.45,632.22" stroke="#7a2b45" stroke-width="4.9" fill="none" opacity="0.72"/><path d="M485.18,247.89 C549.92,156.72 398.78,462.25 507.63,561.36" stroke="#f06d88" stroke-width="4.2" fill="none" opacity="0.72"/><path d="M548.86,294.10 C629.36,198.97 462.85,458.18 569.10,656.15" stroke="#7a2b45" stroke-width="3.5" fill="none" opacity="0.72"/>
  </g>

  <g opacity="0.8">
    <circle cx="86.00" cy="377.13" r="2.34" fill="#f06d88" opacity="0.45"/><circle cx="126.34" cy="88.63" r="4.28" fill="#7a2b45" opacity="0.38"/><circle cx="406.38" cy="361.62" r="3.27" fill="#f06d88" opacity="0.65"/><circle cx="209.28" cy="1004.37" r="4.53" fill="#7a2b45" opacity="0.24"/><circle cx="228.11" cy="843.92" r="4.95" fill="#f06d88" opacity="0.42"/><circle cx="286.08" cy="149.31" r="2.80" fill="#7a2b45" opacity="0.60"/><circle cx="285.79" cy="928.76" r="3.77" fill="#f06d88" opacity="0.35"/><circle cx="234.07" cy="47.42" r="4.45" fill="#7a2b45" opacity="0.39"/><circle cx="481.51" cy="857.54" r="3.93" fill="#f06d88" opacity="0.52"/><circle cx="662.78" cy="130.29" r="2.70" fill="#7a2b45" opacity="0.25"/><circle cx="155.74" cy="607.28" r="3.59" fill="#f06d88" opacity="0.49"/><circle cx="30.71" cy="785.41" r="4.47" fill="#7a2b45" opacity="0.27"/><circle cx="310.23" cy="673.50" r="3.70" fill="#f06d88" opacity="0.50"/><circle cx="42.36" cy="1006.81" r="3.08" fill="#7a2b45" opacity="0.67"/><circle cx="254.84" cy="765.20" r="3.82" fill="#f06d88" opacity="0.57"/><circle cx="607.80" cy="464.75" r="2.58" fill="#7a2b45" opacity="0.45"/><circle cx="476.37" cy="320.53" r="3.00" fill="#f06d88" opacity="0.60"/><circle cx="285.21" cy="336.40" r="4.70" fill="#7a2b45" opacity="0.38"/><circle cx="587.47" cy="645.72" r="4.18" fill="#f06d88" opacity="0.38"/><circle cx="47.96" cy="332.14" r="4.64" fill="#7a2b45" opacity="0.67"/><circle cx="235.27" cy="219.95" r="1.86" fill="#f06d88" opacity="0.47"/><circle cx="72.52" cy="41.37" r="2.08" fill="#7a2b45" opacity="0.42"/><circle cx="757.78" cy="733.67" r="4.83" fill="#f06d88" opacity="0.64"/><circle cx="313.25" cy="71.81" r="1.70" fill="#7a2b45" opacity="0.60"/><circle cx="127.25" cy="718.57" r="3.85" fill="#f06d88" opacity="0.51"/><circle cx="244.71" cy="504.71" r="2.24" fill="#7a2b45" opacity="0.37"/><circle cx="564.26" cy="184.16" r="3.14" fill="#f06d88" opacity="0.59"/><circle cx="272.06" cy="20.91" r="2.57" fill="#7a2b45" opacity="0.41"/>
  </g>

  <rect x="16" y="16" width="736" height="992" rx="24" stroke="url(#edge-abyss-revenant-c27)" stroke-width="2.5" opacity="0.85"/>
  <rect x="22" y="22" width="724" height="980" rx="20" stroke="#8aa0c4" stroke-width="2" opacity="0.74"/>

  <rect x="34" y="34" width="700" height="72" rx="14" fill="#070b14" fill-opacity="0.72" stroke="#8aa0c4" stroke-opacity="0.55"/>
  <text x="54" y="80" fill="#EAF4FF" font-family="Exo 2, Segoe UI, sans-serif" font-size="32" font-weight="700">Abyss Revenant</text>

  <rect x="34" y="872" width="700" height="92" rx="14" fill="#070b14" fill-opacity="0.74" stroke="#8aa0c4" stroke-opacity="0.6"/>
  <text x="54" y="924" fill="#D9E7FF" font-family="Exo 2, Segoe UI, sans-serif" font-size="30" font-weight="600">Ritual Guard</text>

  <rect x="598" y="36" width="118" height="42" rx="10" fill="#8aa0c4" fill-opacity="0.2" stroke="#8aa0c4" stroke-opacity="0.8"/>
  <text x="612" y="65" fill="#8aa0c4" font-family="Exo 2, Segoe UI, sans-serif" font-size="20" font-weight="700">COMMON</text>

  <circle cx="708" cy="954" r="26" fill="#080d18" stroke="#8aa0c4" stroke-opacity="0.8"/>
  <text x="696" y="962" fill="#E7F2FF" font-family="Exo 2, Segoe UI, sans-serif" font-size="24" font-weight="700">27</text>
</svg>