<?xml version="1.0" encoding="UTF-8"?>
<svg width="768" height="1024" viewBox="0 0 768 1024" fill="none" xmlns="http://www.w3.org/2000/svg">
  <defs>
    <linearGradient id="bg-abyss-revenant-c01" x1="60" y1="40" x2="728" y2="1004" gradientUnits="userSpaceOnUse">
      <stop offset="0" stop-color="#130f1e"/>
      <stop offset="0.55" stop-color="#462356"/>
      <stop offset="1" stop-color="#130f1e"/>
    </linearGradient>
    <radialGradient id="glow-abyss-revenant-c01" cx="0" cy="0" r="1" gradientUnits="userSpaceOnUse" gradientTransform="translate(424.59 413.84) rotate(90) scale(269.54 269.54)">
      <stop stop-color="#7a2b45" stop-opacity="0.45"/>
      <stop offset="1" stop-color="#7a2b45" stop-opacity="0"/>
    </radialGradient>
    <linearGradient id="edge-abyss-revenant-c01" x1="0" y1="0" x2="768" y2="1024" gradientUnits="userSpaceOnUse">
      <stop stop-color="#7a2b45" stop-opacity="0.85"/>
      <stop offset="1" stop-color="#f06d88" stop-opacity="0.85"/>
    </linearGradient>
  </defs>

  <rect x="0" y="0" width="768" height="1024" rx="32" fill="#060910"/>
  <rect x="16" y="16" width="736" height="992" rx="24" fill="url(#bg-abyss-revenant-c01)"/>
  <rect x="16" y="16" width="736" height="992" rx="24" fill="url(#glow-abyss-revenant-c01)"/>

  <g opacity="0.88">
    <path d="M226.95,268.89 C305.71,186.93 172.38,425.53 256.86,668.22" stroke="#f06d88" stroke-width="7" fill="none" opacity="0.72"/><path d="M298.05,260.33 C382.39,150.06 242.56,450.00 308.14,627.09" stroke="#7a2b45" stroke-width="6.3" fill="none" opacity="0.72"/><path d="M356.14,280.78 C443.28,182.94 278.77,459.85 370.80,624.53" stroke="#f06d88" stroke-width="5.6" fill="none" opacity="0.72"/><path d="M423.51,264.86 C508.48,198.37 363.89,499.88 433.77,563.88" stroke="#7a2b45" stroke-width="4.9" fill="none" opacity="0.72"/><path d="M484.22,253.88 C571.72,156.81 430.18,462.98 496.23,637.40" stroke="#f06d88" stroke-width="4.2" fill="none" opacity="0.72"/><path d="M546.38,247.98 C613.29,175.76 464.92,473.69 568.78,546.36" stroke="#7a2b45" stroke-width="3.5" fill="none" opacity="0.72"/>
  </g>

  <g opacity="0.8">
    <circle cx="135.44" cy="88.31" r="3.81" fill="#f06d88" opacity="0.45"/><circle cx="720.63" cy="322.26" r="3.70" fill="#7a2b45" opacity="0.54"/><circle cx="504.23" cy="799.27" r="2.02" fill="#f06d88" opacity="0.56"/><circle cx="132.82" cy="139.53" r="2.36" fill="#7a2b45" opacity="0.27"/><circle cx="616.65" cy="919.98" r="1.58" fill="#f06d88" opacity="0.51"/><circle cx="85.84" cy="838.01" r="2.35" fill="#7a2b45" opacity="0.57"/><circle cx="225.67" cy="113.81" r="3.57" fill="#f06d88" opacity="0.36"/><circle cx="86.42" cy="217.21" r="2.09" fill="#7a2b45" opacity="0.57"/><circle cx="569.82" cy="140.42" r="2.23" fill="#f06d88" opacity="0.35"/><circle cx="639.15" cy="812.65" r="2.34" fill="#7a2b45" opacity="0.68"/><circle cx="243.82" cy="3.21" r="3.64" fill="#f06d88" opacity="0.43"/><circle cx="378.71" cy="489.84" r="2.40" fill="#7a2b45" opacity="0.25"/><circle cx="170.56" cy="393.87" r="3.25" fill="#f06d88" opacity="0.60"/><circle cx="425.64" cy="313.85" r="1.43" fill="#7a2b45" opacity="0.51"/><circle cx="276.72" cy="976.29" r="1.81" fill="#f06d88" opacity="0.70"/><circle cx="316.67" cy="123.12" r="4.69" fill="#7a2b45" opacity="0.53"/><circle cx="597.09" cy="312.57" r="4.20" fill="#f06d88" opacity="0.27"/><circle cx="472.26" cy="10.48" r="2.16" fill="#7a2b45" opacity="0.32"/><circle cx="20.95" cy="965.83" r="3.16" fill="#f06d88" opacity="0.27"/><circle cx="101.27" cy="262.94" r="4.56" fill="#7a2b45" opacity="0.60"/><circle cx="13.89" cy="615.80" r="1.68" fill="#f06d88" opacity="0.56"/><circle cx="194.86" cy="517.08" r="2.87" fill="#7a2b45" opacity="0.50"/><circle cx="673.97" cy="227.75" r="2.41" fill="#f06d88" opacity="0.43"/><circle cx="386.95" cy="227.04" r="1.49" fill="#7a2b45" opacity="0.27"/><circle cx="431.42" cy="267.91" r="1.89" fill="#f06d88" opacity="0.28"/><circle cx="49.69" cy="432.91" r="2.33" fill="#7a2b45" opacity="0.43"/><circle cx="488.04" cy="5.70" r="3.88" fill="#f06d88" opacity="0.62"/><circle cx="653.71" cy="116.31" r="4.94" fill="#7a2b45" opacity="0.60"/>
  </g>

  <rect x="16" y="16" width="736" height="992" rx="24" stroke="url(#edge-abyss-revenant-c01)" stroke-width="2.5" opacity="0.85"/>
  <rect x="22" y="22" width="724" height="980" rx="20" stroke="#8aa0c4" stroke-width="2" opacity="0.74"/>

  <rect x="34" y="34" width="700" height="72" rx="14" fill="#070b14" fill-opacity="0.72" stroke="#8aa0c4" stroke-opacity="0.55"/>
  <text x="54" y="80" fill="#EAF4FF" font-family="Exo 2, Segoe UI, sans-serif" font-size="32" font-weight="700">Abyss Revenant</text>

  <rect x="34" y="872" width="700" height="92" rx="14" fill="#070b14" fill-opacity="0.74" stroke="#8aa0c4" stroke-opacity="0.6"/>
  <text x="54" y="924" fill="#D9E7FF" font-family="Exo 2, Segoe UI, sans-serif" font-size="30" font-weight="600">Vanguard</text>

  <rect x="598" y="36" width="118" height="42" rx="10" fill="#8aa0c4" fill-opacity="0.2" stroke="#8aa0c4" stroke-opacity="0.8"/>
  <text x="612" y="65" fill="#8aa0c4" font-family="Exo 2, Segoe UI, sans-serif" font-size="20" font-weight="700">COMMON</text>

  <circle cx="708" cy="954" r="26" fill="#080d18" stroke="#8aa0c4" stroke-opacity="0.8"/>
  <text x="696" y="962" fill="#E7F2FF" font-family="Exo 2, Segoe UI, sans-serif" font-size="24" font-weight="700">01</text>
</svg>