<?xml version="1.0" encoding="UTF-8"?>
<svg width="768" height="1024" viewBox="0 0 768 1024" fill="none" xmlns="http://www.w3.org/2000/svg">
  <defs>
    <linearGradient id="bg-abyss-revenant-c07" x1="60" y1="40" x2="728" y2="1004" gradientUnits="userSpaceOnUse">
      <stop offset="0" stop-color="#130f1e"/>
      <stop offset="0.55" stop-color="#462356"/>
      <stop offset="1" stop-color="#130f1e"/>
    </linearGradient>
    <radialGradient id="glow-abyss-revenant-c07" cx="0" cy="0" r="1" gradientUnits="userSpaceOnUse" gradientTransform="translate(605.63 373.57) rotate(90) scale(204.77 204.77)">
      <stop stop-color="#7a2b45" stop-opacity="0.45"/>
      <stop offset="1" stop-color="#7a2b45" stop-opacity="0"/>
    </radialGradient>
    <linearGradient id="edge-abyss-revenant-c07" x1="0" y1="0" x2="768" y2="1024" gradientUnits="userSpaceOnUse">
      <stop stop-color="#7a2b45" stop-opacity="0.85"/>
      <stop offset="1" stop-color="#f06d88" stop-opacity="0.85"/>
    </linearGradient>
  </defs>

  <rect x="0" y="0" width="768" height="1024" rx="32" fill="#060910"/>
  <rect x="16" y="16" width="736" height="992" rx="24" fill="url(#bg-abyss-revenant-c07)"/>
  <rect x="16" y="16" width="736" height="992" rx="24" fill="url(#glow-abyss-revenant-c07)"/>

  <g opacity="0.88">
    <path d="M227.04,282.71 C309.50,175.27 151.55,478.01 249.18,663.68" stroke="#f06d88" stroke-width="7" fill="none" opacity="0.72"/><path d="M298.68,303.07 C380.18,215.91 245.08,499.59 327.05,679.54" stroke="#7a2b45" stroke-width="6.3" fill="none" opacity="0.72"/><path d="M355.49,253.71 C420.02,193.57 290.69,461.45 384.41,644.96" stroke="#f06d88" stroke-width="5.6" fill="none" opacity="0.72"/><path d="M420.32,316.51 C489.09,229.84 343.47,479.25 444.56,611.86" stroke="#7a2b45" stroke-width="4.9" fill="none" opacity="0.72"/><path d="M483.02,253.78 C559.14,150.61 412.99,449.28 494.82,646.08" stroke="#f06d88" stroke-width="4.2" fill="none" opacity="0.72"/><path d="M547.46,291.09 C630.38,219.14 465.33,518.91 569.24,674.98" stroke="#7a2b45" stroke-width="3.5" fill="none" opacity="0.72"/>
  </g>

  <g opacity="0.8">
    <circle cx="295.44" cy="106.75" r="4.82" fill="#f06d88" opacity="0.44"/><circle cx="403.67" cy="292.39" r="1.33" fill="#7a2b45" opacity="0.30"/><circle cx="459.73" cy="661.21" r="4.87" fill="#f06d88" opacity="0.27"/><circle cx="648.40" cy="595.58" r="1.65" fill="#7a2b45" opacity="0.53"/><circle cx="382.06" cy="125.26" r="1.77" fill="#f06d88" opacity="0.28"/><circle cx="156.19" cy="10.26" r="3.07" fill="#7a2b45" opacity="0.24"/><circle cx="137.01" cy="257.20" r="4.31" fill="#f06d88" opacity="0.26"/><circle cx="497.37" cy="505.37" r="3.11" fill="#7a2b45" opacity="0.38"/><circle cx="735.24" cy="182.11" r="4.31" fill="#f06d88" opacity="0.32"/><circle cx="594.09" cy="542.36" r="2.71" fill="#7a2b45" opacity="0.34"/><circle cx="731.45" cy="27.15" r="4.16" fill="#f06d88" opacity="0.36"/><circle cx="581.37" cy="238.18" r="3.70" fill="#7a2b45" opacity="0.26"/><circle cx="24.44" cy="999.61" r="2.85" fill="#f06d88" opacity="0.35"/><circle cx="335.27" cy="142.24" r="4.61" fill="#7a2b45" opacity="0.55"/><circle cx="509.67" cy="289.55" r="3.29" fill="#f06d88" opacity="0.35"/><circle cx="235.75" cy="794.86" r="3.71" fill="#7a2b45" opacity="0.39"/><circle cx="73.38" cy="560.31" r="2.52" fill="#f06d88" opacity="0.62"/><circle cx="49.46" cy="849.59" r="4.15" fill="#7a2b45" opacity="0.65"/><circle cx="359.50" cy="624.91" r="2.30" fill="#f06d88" opacity="0.46"/><circle cx="28.01" cy="358.86" r="3.83" fill="#7a2b45" opacity="0.34"/><circle cx="248.52" cy="662.21" r="3.72" fill="#f06d88" opacity="0.48"/><circle cx="477.24" cy="791.15" r="2.88" fill="#7a2b45" opacity="0.34"/><circle cx="510.77" cy="139.01" r="1.95" fill="#f06d88" opacity="0.29"/><circle cx="70.88" cy="799.30" r="3.52" fill="#7a2b45" opacity="0.63"/><circle cx="419.27" cy="355.00" r="1.48" fill="#f06d88" opacity="0.32"/><circle cx="389.79" cy="93.80" r="3.41" fill="#7a2b45" opacity="0.26"/><circle cx="369.06" cy="185.45" r="3.98" fill="#f06d88" opacity="0.26"/><circle cx="536.45" cy="1019.78" r="2.14" fill="#7a2b45" opacity="0.59"/>
  </g>

  <rect x="16" y="16" width="736" height="992" rx="24" stroke="url(#edge-abyss-revenant-c07)" stroke-width="2.5" opacity="0.85"/>
  <rect x="22" y="22" width="724" height="980" rx="20" stroke="#8aa0c4" stroke-width="2" opacity="0.74"/>

  <rect x="34" y="34" width="700" height="72" rx="14" fill="#070b14" fill-opacity="0.72" stroke="#8aa0c4" stroke-opacity="0.55"/>
  <text x="54" y="80" fill="#EAF4FF" font-family="Exo 2, Segoe UI, sans-serif" font-size="32" font-weight="700">Abyss Revenant</text>

  <rect x="34" y="872" width="700" height="92" rx="14" fill="#070b14" fill-opacity="0.74" stroke="#8aa0c4" stroke-opacity="0.6"/>
  <text x="54" y="924" fill="#D9E7FF" font-family="Exo 2, Segoe UI, sans-serif" font-size="30" font-weight="600">Medic</text>

  <rect x="598" y="36" width="118" height="42" rx="10" fill="#8aa0c4" fill-opacity="0.2" stroke="#8aa0c4" stroke-opacity="0.8"/>
  <text x="612" y="65" fill="#8aa0c4" font-family="Exo 2, Segoe UI, sans-serif" font-size="20" font-weight="700">COMMON</text>

  <circle cx="708" cy="954" r="26" fill="#080d18" stroke="#8aa0c4" stroke-opacity="0.8"/>
  <text x="696" y="962" fill="#E7F2FF" font-family="Exo 2, Segoe UI, sans-serif" font-size="24" font-weight="700">07</text>
</svg>