<?xml version="1.0" encoding="UTF-8"?>
<svg width="768" height="1024" viewBox="0 0 768 1024" fill="none" xmlns="http://www.w3.org/2000/svg">
  <defs>
    <linearGradient id="bg-abyss-revenant-c39" x1="60" y1="40" x2="728" y2="1004" gradientUnits="userSpaceOnUse">
      <stop offset="0" stop-color="#130f1e"/>
      <stop offset="0.55" stop-color="#462356"/>
      <stop offset="1" stop-color="#130f1e"/>
    </linearGradient>
    <radialGradient id="glow-abyss-revenant-c39" cx="0" cy="0" r="1" gradientUnits="userSpaceOnUse" gradientTransform="translate(617.79 354.77) rotate(90) scale(237.35 237.35)">
      <stop stop-color="#7a2b45" stop-opacity="0.45"/>
      <stop offset="1" stop-color="#7a2b45" stop-opacity="0"/>
    </radialGradient>
    <linearGradient id="edge-abyss-revenant-c39" x1="0" y1="0" x2="768" y2="1024" gradientUnits="userSpaceOnUse">
      <stop stop-color="#7a2b45" stop-opacity="0.85"/>
      <stop offset="1" stop-color="#f06d88" stop-opacity="0.85"/>
    </linearGradient>
  </defs>

  <rect x="0" y="0" width="768" height="1024" rx="32" fill="#060910"/>
  <rect x="16" y="16" width="736" height="992" rx="24" fill="url(#bg-abyss-revenant-c39)"/>
  <rect x="16" y="16" width="736" height="992" rx="24" fill="url(#glow-abyss-revenant-c39)"/>

  <g opacity="0.88">
    <path d="M232.80,311.99 C298.82,212.38 180.47,496.51 250.06,635.17" stroke="#f06d88" stroke-width="7" fill="none" opacity="0.72"/><path d="M286.19,312.84 C360.38,207.03 216.02,518.09 300.75,635.64" stroke="#7a2b45" stroke-width="6.3" fill="none" opacity="0.72"/><path d="M350.92,286.86 C426.60,208.32 265.38,444.59 370.58,666.38" stroke="#f06d88" stroke-width="5.6" fill="none" opacity="0.72"/><path d="M420.70,256.32 C505.63,145.44 365.15,413.97 439.19,574.43" stroke="#7a2b45" stroke-width="4.9" fill="none" opacity="0.72"/><path d="M487.23,273.13 C569.35,182.31 435.89,468.07 505.10,583.36" stroke="#f06d88" stroke-width="4.2" fill="none" opacity="0.72"/><path d="M555.93,262.89 C644.74,153.79 466.52,485.92 571.28,599.86" stroke="#7a2b45" stroke-width="3.5" fill="none" opacity="0.72"/>
  </g>

  <g opacity="0.8">
    <circle cx="325.24" cy="694.21" r="2.45" fill="#f06d88" opacity="0.67"/><circle cx="258.54" cy="731.84" r="4.00" fill="#7a2b45" opacity="0.36"/><circle cx="363.53" cy="473.61" r="1.85" fill="#f06d88" opacity="0.64"/><circle cx="272.42" cy="774.76" r="2.89" fill="#7a2b45" opacity="0.40"/><circle cx="747.71" cy="389.07" r="2.42" fill="#f06d88" opacity="0.35"/><circle cx="628.67" cy="393.25" r="2.28" fill="#7a2b45" opacity="0.28"/><circle cx="152.04" cy="438.80" r="1.61" fill="#f06d88" opacity="0.49"/><circle cx="349.66" cy="290.55" r="3.14" fill="#7a2b45" opacity="0.47"/><circle cx="242.34" cy="730.96" r="1.49" fill="#f06d88" opacity="0.31"/><circle cx="229.77" cy="335.49" r="3.28" fill="#7a2b45" opacity="0.71"/><circle cx="553.41" cy="914.84" r="1.79" fill="#f06d88" opacity="0.27"/><circle cx="700.53" cy="357.43" r="2.36" fill="#7a2b45" opacity="0.70"/><circle cx="498.27" cy="927.14" r="4.08" fill="#f06d88" opacity="0.71"/><circle cx="221.37" cy="794.49" r="4.32" fill="#7a2b45" opacity="0.64"/><circle cx="591.93" cy="548.19" r="3.85" fill="#f06d88" opacity="0.71"/><circle cx="204.19" cy="673.20" r="2.70" fill="#7a2b45" opacity="0.36"/><circle cx="616.49" cy="329.99" r="3.19" fill="#f06d88" opacity="0.46"/><circle cx="341.57" cy="918.23" r="3.90" fill="#7a2b45" opacity="0.34"/><circle cx="491.38" cy="21.98" r="2.32" fill="#f06d88" opacity="0.49"/><circle cx="705.45" cy="226.90" r="2.47" fill="#7a2b45" opacity="0.47"/><circle cx="512.79" cy="192.19" r="2.70" fill="#f06d88" opacity="0.49"/><circle cx="255.41" cy="503.24" r="2.56" fill="#7a2b45" opacity="0.34"/><circle cx="169.18" cy="717.39" r="2.97" fill="#f06d88" opacity="0.48"/><circle cx="108.51" cy="444.44" r="2.80" fill="#7a2b45" opacity="0.46"/><circle cx="319.49" cy="518.50" r="3.97" fill="#f06d88" opacity="0.61"/><circle cx="636.96" cy="67.31" r="4.24" fill="#7a2b45" opacity="0.47"/><circle cx="72.24" cy="308.79" r="4.03" fill="#f06d88" opacity="0.45"/><circle cx="7.34" cy="862.58" r="1.93" fill="#7a2b45" opacity="0.43"/>
  </g>

  <rect x="16" y="16" width="736" height="992" rx="24" stroke="url(#edge-abyss-revenant-c39)" stroke-width="2.5" opacity="0.85"/>
  <rect x="22" y="22" width="724" height="980" rx="20" stroke="#78d8ff" stroke-width="2" opacity="0.74"/>

  <rect x="34" y="34" width="700" height="72" rx="14" fill="#070b14" fill-opacity="0.72" stroke="#78d8ff" stroke-opacity="0.55"/>
  <text x="54" y="80" fill="#EAF4FF" font-family="Exo 2, Segoe UI, sans-serif" font-size="32" font-weight="700">Abyss Revenant</text>

  <rect x="34" y="872" width="700" height="92" rx="14" fill="#070b14" fill-opacity="0.74" stroke="#78d8ff" stroke-opacity="0.6"/>
  <text x="54" y="924" fill="#D9E7FF" font-family="Exo 2, Segoe UI, sans-serif" font-size="30" font-weight="600">Ward</text>

  <rect x="598" y="36" width="118" height="42" rx="10" fill="#78d8ff" fill-opacity="0.2" stroke="#78d8ff" stroke-opacity="0.8"/>
  <text x="612" y="65" fill="#78d8ff" font-family="Exo 2, Segoe UI, sans-serif" font-size="20" font-weight="700">RARE</text>

  <circle cx="708" cy="954" r="26" fill="#080d18" stroke="#78d8ff" stroke-opacity="0.8"/>
  <text x="696" y="962" fill="#E7F2FF" font-family="Exo 2, Segoe UI, sans-serif" font-size="24" font-weight="700">39</text>
</svg>