<?xml version="1.0" encoding="UTF-8"?>
<svg width="768" height="1024" viewBox="0 0 768 1024" fill="none" xmlns="http://www.w3.org/2000/svg">
  <defs>
    <linearGradient id="bg-abyss-revenant-c05" x1="60" y1="40" x2="728" y2="1004" gradientUnits="userSpaceOnUse">
      <stop offset="0" stop-color="#130f1e"/>
      <stop offset="0.55" stop-color="#462356"/>
      <stop offset="1" stop-color="#130f1e"/>
    </linearGradient>
    <radialGradient id="glow-abyss-revenant-c05" cx="0" cy="0" r="1" gradientUnits="userSpaceOnUse" gradientTransform="translate(243.96 130.14) rotate(90) scale(200.46 200.46)">
      <stop stop-color="#7a2b45" stop-opacity="0.45"/>
      <stop offset="1" stop-color="#7a2b45" stop-opacity="0"/>
    </radialGradient>
    <linearGradient id="edge-abyss-revenant-c05" x1="0" y1="0" x2="768" y2="1024" gradientUnits="userSpaceOnUse">
      <stop stop-color="#7a2b45" stop-opacity="0.85"/>
      <stop offset="1" stop-color="#f06d88" stop-opacity="0.85"/>
    </linearGradient>
  </defs>

  <rect x="0" y="0" width="768" height="1024" rx="32" fill="#060910"/>
  <rect x="16" y="16" width="736" height="992" rx="24" fill="url(#bg-abyss-revenant-c05)"/>
  <rect x="16" y="16" width="736" height="992" rx="24" fill="url(#glow-abyss-revenant-c05)"/>

  <g opacity="0.88">
    <path d="M233.70,254.88 C319.82,168.48 163.93,425.38 246.66,621.31" stroke="#f06d88" stroke-width="7" fill="none" opacity="0.72"/><path d="M286.45,319.10 C368.85,208.61 226.52,495.28 306.48,614.19" stroke="#7a2b45" stroke-width="6.3" fill="none" opacity="0.72"/><path d="M359.31,307.79 C421.68,200.53 308.48,499.82 382.29,600.89" stroke="#f06d88" stroke-width="5.6" fill="none" opacity="0.72"/><path d="M425.79,257.51 C510.37,193.06 351.71,433.96 451.68,634.11" stroke="#7a2b45" stroke-width="4.9" fill="none" opacity="0.72"/><path d="M486.55,302.10 C558.61,242.08 401.92,487.02 509.49,605.76" stroke="#f06d88" stroke-width="4.2" fill="none" opacity="0.72"/><path d="M551.11,240.76 C618.90,157.30 467.66,444.73 580.97,637.65" stroke="#7a2b45" stroke-width="3.5" fill="none" opacity="0.72"/>
  </g>

  <g opacity="0.8">
    <circle cx="272.66" cy="498.92" r="2.61" fill="#f06d88" opacity="0.29"/><circle cx="482.24" cy="585.89" r="4.63" fill="#7a2b45" opacity="0.58"/><circle cx="428.21" cy="670.37" r="2.51" fill="#f06d88" opacity="0.41"/><circle cx="352.57" cy="953.58" r="2.57" fill="#7a2b45" opacity="0.59"/><circle cx="518.58" cy="751.51" r="3.36" fill="#f06d88" opacity="0.44"/><circle cx="668.27" cy="46.65" r="3.03" fill="#7a2b45" opacity="0.44"/><circle cx="454.50" cy="329.59" r="1.56" fill="#f06d88" opacity="0.33"/><circle cx="202.32" cy="311.41" r="3.19" fill="#7a2b45" opacity="0.48"/><circle cx="743.15" cy="1022.37" r="4.98" fill="#f06d88" opacity="0.52"/><circle cx="358.70" cy="243.44" r="4.67" fill="#7a2b45" opacity="0.36"/><circle cx="10.82" cy="544.08" r="3.11" fill="#f06d88" opacity="0.63"/><circle cx="184.29" cy="528.89" r="1.50" fill="#7a2b45" opacity="0.27"/><circle cx="495.32" cy="532.99" r="4.37" fill="#f06d88" opacity="0.72"/><circle cx="424.88" cy="55.69" r="4.44" fill="#7a2b45" opacity="0.31"/><circle cx="386.84" cy="664.85" r="1.96" fill="#f06d88" opacity="0.71"/><circle cx="312.58" cy="757.63" r="4.35" fill="#7a2b45" opacity="0.52"/><circle cx="260.46" cy="876.97" r="3.33" fill="#f06d88" opacity="0.36"/><circle cx="97.21" cy="55.94" r="4.55" fill="#7a2b45" opacity="0.32"/><circle cx="25.07" cy="234.71" r="2.19" fill="#f06d88" opacity="0.69"/><circle cx="236.49" cy="138.58" r="3.72" fill="#7a2b45" opacity="0.53"/><circle cx="533.20" cy="789.31" r="4.86" fill="#f06d88" opacity="0.32"/><circle cx="157.93" cy="415.03" r="2.06" fill="#7a2b45" opacity="0.62"/><circle cx="110.68" cy="957.72" r="4.55" fill="#f06d88" opacity="0.72"/><circle cx="395.30" cy="4.54" r="3.29" fill="#7a2b45" opacity="0.53"/><circle cx="96.69" cy="152.01" r="4.75" fill="#f06d88" opacity="0.42"/><circle cx="763.92" cy="465.38" r="3.81" fill="#7a2b45" opacity="0.56"/><circle cx="660.18" cy="472.78" r="3.68" fill="#f06d88" opacity="0.71"/><circle cx="730.98" cy="367.02" r="3.11" fill="#7a2b45" opacity="0.37"/>
  </g>

  <rect x="16" y="16" width="736" height="992" rx="24" stroke="url(#edge-abyss-revenant-c05)" stroke-width="2.5" opacity="0.85"/>
  <rect x="22" y="22" width="724" height="980" rx="20" stroke="#8aa0c4" stroke-width="2" opacity="0.74"/>

  <rect x="34" y="34" width="700" height="72" rx="14" fill="#070b14" fill-opacity="0.72" stroke="#8aa0c4" stroke-opacity="0.55"/>
  <text x="54" y="80" fill="#EAF4FF" font-family="Exo 2, Segoe UI, sans-serif" font-size="32" font-weight="700">Abyss Revenant</text>

  <rect x="34" y="872" width="700" height="92" rx="14" fill="#070b14" fill-opacity="0.74" stroke="#8aa0c4" stroke-opacity="0.6"/>
  <text x="54" y="924" fill="#D9E7FF" font-family="Exo 2, Segoe UI, sans-serif" font-size="30" font-weight="600">Engineer</text>

  <rect x="598" y="36" width="118" height="42" rx="10" fill="#8aa0c4" fill-opacity="0.2" stroke="#8aa0c4" stroke-opacity="0.8"/>
  <text x="612" y="65" fill="#8aa0c4" font-family="Exo 2, Segoe UI, sans-serif" font-size="20" font-weight="700">COMMON</text>

  <circle cx="708" cy="954" r="26" fill="#080d18" stroke="#8aa0c4" stroke-opacity="0.8"/>
  <text x="696" y="962" fill="#E7F2FF" font-family="Exo 2, Segoe UI, sans-serif" font-size="24" font-weight="700">05</text>
</svg>