<?xml version="1.0" encoding="UTF-8"?>
<svg width="768" height="1024" viewBox="0 0 768 1024" fill="none" xmlns="http://www.w3.org/2000/svg">
  <defs>
    <linearGradient id="bg-abyss-revenant-c09" x1="60" y1="40" x2="728" y2="1004" gradientUnits="userSpaceOnUse">
      <stop offset="0" stop-color="#130f1e"/>
      <stop offset="0.55" stop-color="#462356"/>
      <stop offset="1" stop-color="#130f1e"/>
    </linearGradient>
    <radialGradient id="glow-abyss-revenant-c09" cx="0" cy="0" r="1" gradientUnits="userSpaceOnUse" gradientTransform="translate(372.69 657.53) rotate(90) scale(280.97 280.97)">
      <stop stop-color="#7a2b45" stop-opacity="0.45"/>
      <stop offset="1" stop-color="#7a2b45" stop-opacity="0"/>
    </radialGradient>
    <linearGradient id="edge-abyss-revenant-c09" x1="0" y1="0" x2="768" y2="1024" gradientUnits="userSpaceOnUse">
      <stop stop-color="#7a2b45" stop-opacity="0.85"/>
      <stop offset="1" stop-color="#f06d88" stop-opacity="0.85"/>
    </linearGradient>
  </defs>

  <rect x="0" y="0" width="768" height="1024" rx="32" fill="#060910"/>
  <rect x="16" y="16" width="736" height="992" rx="24" fill="url(#bg-abyss-revenant-c09)"/>
  <rect x="16" y="16" width="736" height="992" rx="24" fill="url(#glow-abyss-revenant-c09)"/>

  <g opacity="0.88">
    <path d="M221.63,254.60 C297.02,166.20 142.15,473.78 242.18,551.78" stroke="#f06d88" stroke-width="7" fill="none" opacity="0.72"/><path d="M292.14,295.79 C360.96,203.41 239.67,473.80 316.13,621.92" stroke="#7a2b45" stroke-width="6.3" fill="none" opacity="0.72"/><path d="M351.64,285.55 C424.73,169.77 291.35,488.57 380.74,637.46" stroke="#f06d88" stroke-width="5.6" fill="none" opacity="0.72"/><path d="M427.51,246.82 C492.59,151.00 358.19,419.68 440.64,645.85" stroke="#7a2b45" stroke-width="4.9" fill="none" opacity="0.72"/><path d="M482.17,297.53 C549.69,198.52 409.89,481.23 509.61,684.28" stroke="#f06d88" stroke-width="4.2" fill="none" opacity="0.72"/><path d="M558.65,258.26 C639.08,156.88 476.94,469.24 580.59,628.30" stroke="#7a2b45" stroke-width="3.5" fill="none" opacity="0.72"/>
  </g>

  <g opacity="0.8">
    <circle cx="380.29" cy="4.45" r="4.07" fill="#f06d88" opacity="0.55"/><circle cx="255.81" cy="305.49" r="4.47" fill="#7a2b45" opacity="0.42"/><circle cx="320.20" cy="927.89" r="3.27" fill="#f06d88" opacity="0.37"/><circle cx="755.19" cy="34.59" r="1.26" fill="#7a2b45" opacity="0.44"/><circle cx="623.03" cy="589.22" r="2.84" fill="#f06d88" opacity="0.69"/><circle cx="83.34" cy="926.52" r="2.74" fill="#7a2b45" opacity="0.57"/><circle cx="500.29" cy="475.55" r="1.70" fill="#f06d88" opacity="0.72"/><circle cx="473.73" cy="811.53" r="4.98" fill="#7a2b45" opacity="0.51"/><circle cx="228.64" cy="691.37" r="2.96" fill="#f06d88" opacity="0.46"/><circle cx="125.85" cy="272.35" r="4.55" fill="#7a2b45" opacity="0.46"/><circle cx="595.54" cy="618.48" r="1.52" fill="#f06d88" opacity="0.53"/><circle cx="289.58" cy="383.57" r="4.73" fill="#7a2b45" opacity="0.48"/><circle cx="469.05" cy="971.93" r="1.67" fill="#f06d88" opacity="0.49"/><circle cx="443.78" cy="34.34" r="2.03" fill="#7a2b45" opacity="0.71"/><circle cx="496.16" cy="420.22" r="2.38" fill="#f06d88" opacity="0.71"/><circle cx="261.34" cy="39.42" r="4.14" fill="#7a2b45" opacity="0.41"/><circle cx="684.28" cy="922.15" r="1.76" fill="#f06d88" opacity="0.66"/><circle cx="189.18" cy="313.78" r="2.93" fill="#7a2b45" opacity="0.29"/><circle cx="170.27" cy="958.26" r="4.38" fill="#f06d88" opacity="0.72"/><circle cx="190.65" cy="173.38" r="2.58" fill="#7a2b45" opacity="0.68"/><circle cx="421.55" cy="925.03" r="1.85" fill="#f06d88" opacity="0.68"/><circle cx="470.85" cy="276.59" r="3.14" fill="#7a2b45" opacity="0.68"/><circle cx="136.08" cy="216.60" r="3.38" fill="#f06d88" opacity="0.67"/><circle cx="743.87" cy="623.66" r="3.36" fill="#7a2b45" opacity="0.55"/><circle cx="300.38" cy="35.88" r="4.56" fill="#f06d88" opacity="0.56"/><circle cx="274.30" cy="690.12" r="3.81" fill="#7a2b45" opacity="0.26"/><circle cx="196.69" cy="231.60" r="4.65" fill="#f06d88" opacity="0.25"/><circle cx="605.21" cy="474.93" r="3.88" fill="#7a2b45" opacity="0.40"/>
  </g>

  <rect x="16" y="16" width="736" height="992" rx="24" stroke="url(#edge-abyss-revenant-c09)" stroke-width="2.5" opacity="0.85"/>
  <rect x="22" y="22" width="724" height="980" rx="20" stroke="#8aa0c4" stroke-width="2" opacity="0.74"/>

  <rect x="34" y="34" width="700" height="72" rx="14" fill="#070b14" fill-opacity="0.72" stroke="#8aa0c4" stroke-opacity="0.55"/>
  <text x="54" y="80" fill="#EAF4FF" font-family="Exo 2, Segoe UI, sans-serif" font-size="32" font-weight="700">Abyss Revenant</text>

  <rect x="34" y="872" width="700" height="92" rx="14" fill="#070b14" fill-opacity="0.74" stroke="#8aa0c4" stroke-opacity="0.6"/>
  <text x="54" y="924" fill="#D9E7FF" font-family="Exo 2, Segoe UI, sans-serif" font-size="30" font-weight="600">Bruiser</text>

  <rect x="598" y="36" width="118" height="42" rx="10" fill="#8aa0c4" fill-opacity="0.2" stroke="#8aa0c4" stroke-opacity="0.8"/>
  <text x="612" y="65" fill="#8aa0c4" font-family="Exo 2, Segoe UI, sans-serif" font-size="20" font-weight="700">COMMON</text>

  <circle cx="708" cy="954" r="26" fill="#080d18" stroke="#8aa0c4" stroke-opacity="0.8"/>
  <text x="696" y="962" fill="#E7F2FF" font-family="Exo 2, Segoe UI, sans-serif" font-size="24" font-weight="700">09</text>
</svg>