<?xml version="1.0" encoding="UTF-8"?>
<svg width="768" height="1024" viewBox="0 0 768 1024" fill="none" xmlns="http://www.w3.org/2000/svg">
  <defs>
    <linearGradient id="bg-abyss-revenant-c12" x1="60" y1="40" x2="728" y2="1004" gradientUnits="userSpaceOnUse">
      <stop offset="0" stop-color="#130f1e"/>
      <stop offset="0.55" stop-color="#462356"/>
      <stop offset="1" stop-color="#130f1e"/>
    </linearGradient>
    <radialGradient id="glow-abyss-revenant-c12" cx="0" cy="0" r="1" gradientUnits="userSpaceOnUse" gradientTransform="translate(477.60 473.45) rotate(90) scale(192.96 192.96)">
      <stop stop-color="#7a2b45" stop-opacity="0.45"/>
      <stop offset="1" stop-color="#7a2b45" stop-opacity="0"/>
    </radialGradient>
    <linearGradient id="edge-abyss-revenant-c12" x1="0" y1="0" x2="768" y2="1024" gradientUnits="userSpaceOnUse">
      <stop stop-color="#7a2b45" stop-opacity="0.85"/>
      <stop offset="1" stop-color="#f06d88" stop-opacity="0.85"/>
    </linearGradient>
  </defs>

  <rect x="0" y="0" width="768" height="1024" rx="32" fill="#060910"/>
  <rect x="16" y="16" width="736" height="992" rx="24" fill="url(#bg-abyss-revenant-c12)"/>
  <rect x="16" y="16" width="736" height="992" rx="24" fill="url(#glow-abyss-revenant-c12)"/>

  <g opacity="0.88">
    <path d="M226.03,273.22 C313.51,169.16 163.02,439.62 238.46,642.88" stroke="#f06d88" stroke-width="7" fill="none" opacity="0.72"/><path d="M286.41,313.83 C347.36,237.62 197.34,489.34 296.94,707.07" stroke="#7a2b45" stroke-width="6.3" fill="none" opacity="0.72"/><path d="M356.20,254.89 C419.26,181.10 285.57,445.43 383.87,572.81" stroke="#f06d88" stroke-width="5.6" fill="none" opacity="0.72"/><path d="M427.25,316.16 C510.69,240.65 367.36,466.62 442.61,627.81" stroke="#7a2b45" stroke-width="4.9" fill="none" opacity="0.72"/><path d="M493.39,289.91 C577.62,195.54 404.97,523.26 517.16,604.17" stroke="#f06d88" stroke-width="4.2" fill="none" opacity="0.72"/><path d="M558.86,308.61 C640.82,218.69 507.13,516.03 586.87,612.62" stroke="#7a2b45" stroke-width="3.5" fill="none" opacity="0.72"/>
  </g>

  <g opacity="0.8">
    <circle cx="34.58" cy="322.72" r="2.90" fill="#f06d88" opacity="0.26"/><circle cx="162.36" cy="207.06" r="4.90" fill="#7a2b45" opacity="0.41"/><circle cx="667.90" cy="738.12" r="4.06" fill="#f06d88" opacity="0.53"/><circle cx="379.11" cy="418.55" r="4.36" fill="#7a2b45" opacity="0.25"/><circle cx="138.69" cy="976.38" r="2.35" fill="#f06d88" opacity="0.31"/><circle cx="625.57" cy="408.83" r="1.86" fill="#7a2b45" opacity="0.25"/><circle cx="734.69" cy="620.27" r="1.69" fill="#f06d88" opacity="0.59"/><circle cx="276.34" cy="426.68" r="4.44" fill="#7a2b45" opacity="0.29"/><circle cx="14.48" cy="850.00" r="2.06" fill="#f06d88" opacity="0.31"/><circle cx="571.34" cy="745.05" r="4.62" fill="#7a2b45" opacity="0.68"/><circle cx="327.53" cy="346.42" r="2.04" fill="#f06d88" opacity="0.71"/><circle cx="529.43" cy="727.23" r="4.22" fill="#7a2b45" opacity="0.36"/><circle cx="22.67" cy="546.81" r="3.92" fill="#f06d88" opacity="0.58"/><circle cx="435.95" cy="124.82" r="1.32" fill="#7a2b45" opacity="0.65"/><circle cx="233.16" cy="675.19" r="3.07" fill="#f06d88" opacity="0.26"/><circle cx="330.41" cy="606.95" r="3.84" fill="#7a2b45" opacity="0.37"/><circle cx="732.01" cy="746.29" r="1.89" fill="#f06d88" opacity="0.42"/><circle cx="722.78" cy="386.76" r="3.04" fill="#7a2b45" opacity="0.52"/><circle cx="101.87" cy="919.68" r="2.26" fill="#f06d88" opacity="0.37"/><circle cx="668.33" cy="112.31" r="2.07" fill="#7a2b45" opacity="0.64"/><circle cx="277.62" cy="778.33" r="4.07" fill="#f06d88" opacity="0.49"/><circle cx="86.35" cy="422.11" r="3.72" fill="#7a2b45" opacity="0.52"/><circle cx="510.19" cy="990.22" r="3.94" fill="#f06d88" opacity="0.50"/><circle cx="419.31" cy="831.59" r="3.88" fill="#7a2b45" opacity="0.61"/><circle cx="44.56" cy="543.30" r="2.11" fill="#f06d88" opacity="0.54"/><circle cx="478.01" cy="526.76" r="2.05" fill="#7a2b45" opacity="0.63"/><circle cx="93.32" cy="431.59" r="4.57" fill="#f06d88" opacity="0.50"/><circle cx="552.72" cy="232.06" r="2.43" fill="#7a2b45" opacity="0.26"/>
  </g>

  <rect x="16" y="16" width="736" height="992" rx="24" stroke="url(#edge-abyss-revenant-c12)" stroke-width="2.5" opacity="0.85"/>
  <rect x="22" y="22" width="724" height="980" rx="20" stroke="#8aa0c4" stroke-width="2" opacity="0.74"/>

  <rect x="34" y="34" width="700" height="72" rx="14" fill="#070b14" fill-opacity="0.72" stroke="#8aa0c4" stroke-opacity="0.55"/>
  <text x="54" y="80" fill="#EAF4FF" font-family="Exo 2, Segoe UI, sans-serif" font-size="32" font-weight="700">Abyss Revenant</text>

  <rect x="34" y="872" width="700" height="92" rx="14" fill="#070b14" fill-opacity="0.74" stroke="#8aa0c4" stroke-opacity="0.6"/>
  <text x="54" y="924" fill="#D9E7FF" font-family="Exo 2, Segoe UI, sans-serif" font-size="30" font-weight="600">Hazard Binder</text>

  <rect x="598" y="36" width="118" height="42" rx="10" fill="#8aa0c4" fill-opacity="0.2" stroke="#8aa0c4" stroke-opacity="0.8"/>
  <text x="612" y="65" fill="#8aa0c4" font-family="Exo 2, Segoe UI, sans-serif" font-size="20" font-weight="700">COMMON</text>

  <circle cx="708" cy="954" r="26" fill="#080d18" stroke="#8aa0c4" stroke-opacity="0.8"/>
  <text x="696" y="962" fill="#E7F2FF" font-family="Exo 2, Segoe UI, sans-serif" font-size="24" font-weight="700">12</text>
</svg>