<?xml version="1.0" encoding="UTF-8"?>
<svg width="768" height="1024" viewBox="0 0 768 1024" fill="none" xmlns="http://www.w3.org/2000/svg">
  <defs>
    <linearGradient id="bg-abyss-revenant-c13" x1="60" y1="40" x2="728" y2="1004" gradientUnits="userSpaceOnUse">
      <stop offset="0" stop-color="#130f1e"/>
      <stop offset="0.55" stop-color="#462356"/>
      <stop offset="1" stop-color="#130f1e"/>
    </linearGradient>
    <radialGradient id="glow-abyss-revenant-c13" cx="0" cy="0" r="1" gradientUnits="userSpaceOnUse" gradientTransform="translate(605.22 529.92) rotate(90) scale(259.91 259.91)">
      <stop stop-color="#7a2b45" stop-opacity="0.45"/>
      <stop offset="1" stop-color="#7a2b45" stop-opacity="0"/>
    </radialGradient>
    <linearGradient id="edge-abyss-revenant-c13" x1="0" y1="0" x2="768" y2="1024" gradientUnits="userSpaceOnUse">
      <stop stop-color="#7a2b45" stop-opacity="0.85"/>
      <stop offset="1" stop-color="#f06d88" stop-opacity="0.85"/>
    </linearGradient>
  </defs>

  <rect x="0" y="0" width="768" height="1024" rx="32" fill="#060910"/>
  <rect x="16" y="16" width="736" height="992" rx="24" fill="url(#bg-abyss-revenant-c13)"/>
  <rect x="16" y="16" width="736" height="992" rx="24" fill="url(#glow-abyss-revenant-c13)"/>

  <g opacity="0.88">
    <path d="M229.98,270.97 C305.28,180.56 174.09,501.82 249.72,635.01" stroke="#f06d88" stroke-width="7" fill="none" opacity="0.72"/><path d="M288.55,306.22 C350.73,244.20 201.46,461.61 300.29,665.90" stroke="#7a2b45" stroke-width="6.3" fill="none" opacity="0.72"/><path d="M357.24,317.76 C442.78,254.81 276.61,483.42 368.25,634.77" stroke="#f06d88" stroke-width="5.6" fill="none" opacity="0.72"/><path d="M416.07,271.08 C478.65,170.93 328.92,456.71 443.31,640.49" stroke="#7a2b45" stroke-width="4.9" fill="none" opacity="0.72"/><path d="M486.29,263.42 C561.71,187.82 411.42,423.45 509.57,555.05" stroke="#f06d88" stroke-width="4.2" fill="none" opacity="0.72"/><path d="M552.70,262.49 C619.66,157.18 486.60,445.30 577.96,562.39" stroke="#7a2b45" stroke-width="3.5" fill="none" opacity="0.72"/>
  </g>

  <g opacity="0.8">
    <circle cx="48.86" cy="483.55" r="3.59" fill="#f06d88" opacity="0.48"/><circle cx="621.65" cy="637.05" r="1.23" fill="#7a2b45" opacity="0.51"/><circle cx="102.41" cy="866.90" r="1.23" fill="#f06d88" opacity="0.60"/><circle cx="108.07" cy="1006.84" r="4.00" fill="#7a2b45" opacity="0.37"/><circle cx="672.36" cy="102.78" r="2.28" fill="#f06d88" opacity="0.52"/><circle cx="454.06" cy="69.99" r="2.33" fill="#7a2b45" opacity="0.49"/><circle cx="409.06" cy="25.44" r="2.03" fill="#f06d88" opacity="0.33"/><circle cx="34.11" cy="123.85" r="3.86" fill="#7a2b45" opacity="0.67"/><circle cx="630.31" cy="1006.19" r="4.80" fill="#f06d88" opacity="0.71"/><circle cx="238.60" cy="450.81" r="1.96" fill="#7a2b45" opacity="0.24"/><circle cx="475.68" cy="250.20" r="2.58" fill="#f06d88" opacity="0.40"/><circle cx="514.95" cy="277.56" r="4.65" fill="#7a2b45" opacity="0.73"/><circle cx="624.86" cy="941.74" r="3.50" fill="#f06d88" opacity="0.53"/><circle cx="270.04" cy="603.83" r="1.59" fill="#7a2b45" opacity="0.61"/><circle cx="678.50" cy="498.88" r="2.67" fill="#f06d88" opacity="0.26"/><circle cx="697.94" cy="349.93" r="4.67" fill="#7a2b45" opacity="0.68"/><circle cx="273.77" cy="50.56" r="1.73" fill="#f06d88" opacity="0.44"/><circle cx="281.82" cy="414.02" r="2.96" fill="#7a2b45" opacity="0.38"/><circle cx="257.47" cy="711.52" r="4.79" fill="#f06d88" opacity="0.66"/><circle cx="624.54" cy="577.38" r="3.55" fill="#7a2b45" opacity="0.35"/><circle cx="558.96" cy="122.48" r="1.99" fill="#f06d88" opacity="0.32"/><circle cx="280.18" cy="66.82" r="4.03" fill="#7a2b45" opacity="0.30"/><circle cx="68.64" cy="42.38" r="2.04" fill="#f06d88" opacity="0.42"/><circle cx="459.51" cy="414.95" r="4.04" fill="#7a2b45" opacity="0.63"/><circle cx="202.04" cy="675.43" r="3.23" fill="#f06d88" opacity="0.26"/><circle cx="305.33" cy="843.99" r="1.31" fill="#7a2b45" opacity="0.72"/><circle cx="209.31" cy="792.26" r="4.78" fill="#f06d88" opacity="0.32"/><circle cx="574.65" cy="706.32" r="2.60" fill="#7a2b45" opacity="0.72"/>
  </g>

  <rect x="16" y="16" width="736" height="992" rx="24" stroke="url(#edge-abyss-revenant-c13)" stroke-width="2.5" opacity="0.85"/>
  <rect x="22" y="22" width="724" height="980" rx="20" stroke="#8aa0c4" stroke-width="2" opacity="0.74"/>

  <rect x="34" y="34" width="700" height="72" rx="14" fill="#070b14" fill-opacity="0.72" stroke="#8aa0c4" stroke-opacity="0.55"/>
  <text x="54" y="80" fill="#EAF4FF" font-family="Exo 2, Segoe UI, sans-serif" font-size="32" font-weight="700">Abyss Revenant</text>

  <rect x="34" y="872" width="700" height="92" rx="14" fill="#070b14" fill-opacity="0.74" stroke="#8aa0c4" stroke-opacity="0.6"/>
  <text x="54" y="924" fill="#D9E7FF" font-family="Exo 2, Segoe UI, sans-serif" font-size="30" font-weight="600">Ambusher</text>

  <rect x="598" y="36" width="118" height="42" rx="10" fill="#8aa0c4" fill-opacity="0.2" stroke="#8aa0c4" stroke-opacity="0.8"/>
  <text x="612" y="65" fill="#8aa0c4" font-family="Exo 2, Segoe UI, sans-serif" font-size="20" font-weight="700">COMMON</text>

  <circle cx="708" cy="954" r="26" fill="#080d18" stroke="#8aa0c4" stroke-opacity="0.8"/>
  <text x="696" y="962" fill="#E7F2FF" font-family="Exo 2, Segoe UI, sans-serif" font-size="24" font-weight="700">13</text>
</svg>