<?xml version="1.0" encoding="UTF-8"?>
<svg width="768" height="1024" viewBox="0 0 768 1024" fill="none" xmlns="http://www.w3.org/2000/svg">
  <defs>
    <linearGradient id="bg-abyss-revenant-c10" x1="60" y1="40" x2="728" y2="1004" gradientUnits="userSpaceOnUse">
      <stop offset="0" stop-color="#130f1e"/>
      <stop offset="0.55" stop-color="#462356"/>
      <stop offset="1" stop-color="#130f1e"/>
    </linearGradient>
    <radialGradient id="glow-abyss-revenant-c10" cx="0" cy="0" r="1" gradientUnits="userSpaceOnUse" gradientTransform="translate(217.29 569.11) rotate(90) scale(210.22 210.22)">
      <stop stop-color="#7a2b45" stop-opacity="0.45"/>
      <stop offset="1" stop-color="#7a2b45" stop-opacity="0"/>
    </radialGradient>
    <linearGradient id="edge-abyss-revenant-c10" x1="0" y1="0" x2="768" y2="1024" gradientUnits="userSpaceOnUse">
      <stop stop-color="#7a2b45" stop-opacity="0.85"/>
      <stop offset="1" stop-color="#f06d88" stop-opacity="0.85"/>
    </linearGradient>
  </defs>

  <rect x="0" y="0" width="768" height="1024" rx="32" fill="#060910"/>
  <rect x="16" y="16" width="736" height="992" rx="24" fill="url(#bg-abyss-revenant-c10)"/>
  <rect x="16" y="16" width="736" height="992" rx="24" fill="url(#glow-abyss-revenant-c10)"/>

  <g opacity="0.88">
    <path d="M230.61,284.71 C315.22,166.98 168.21,493.23 246.28,656.66" stroke="#f06d88" stroke-width="7" fill="none" opacity="0.72"/><path d="M286.16,264.61 C355.68,157.51 197.26,502.73 297.04,626.71" stroke="#7a2b45" stroke-width="6.3" fill="none" opacity="0.72"/><path d="M356.37,318.76 C436.81,254.39 287.11,535.03 382.49,654.64" stroke="#f06d88" stroke-width="5.6" fill="none" opacity="0.72"/><path d="M422.92,265.98 C510.98,189.27 363.16,478.62 448.70,577.88" stroke="#7a2b45" stroke-width="4.9" fill="none" opacity="0.72"/><path d="M492.82,255.09 C554.17,140.78 436.54,410.79 513.19,591.89" stroke="#f06d88" stroke-width="4.2" fill="none" opacity="0.72"/><path d="M553.27,294.39 C642.93,176.79 470.23,462.87 577.29,598.54" stroke="#7a2b45" stroke-width="3.5" fill="none" opacity="0.72"/>
  </g>

  <g opacity="0.8">
    <circle cx="266.53" cy="628.97" r="1.49" fill="#f06d88" opacity="0.42"/><circle cx="200.44" cy="321.83" r="4.06" fill="#7a2b45" opacity="0.27"/><circle cx="232.90" cy="117.59" r="2.18" fill="#f06d88" opacity="0.25"/><circle cx="269.92" cy="217.76" r="2.94" fill="#7a2b45" opacity="0.52"/><circle cx="482.16" cy="367.26" r="2.89" fill="#f06d88" opacity="0.70"/><circle cx="749.27" cy="58.83" r="3.16" fill="#7a2b45" opacity="0.27"/><circle cx="302.90" cy="878.75" r="2.65" fill="#f06d88" opacity="0.37"/><circle cx="730.02" cy="231.29" r="4.90" fill="#7a2b45" opacity="0.28"/><circle cx="198.27" cy="131.88" r="4.38" fill="#f06d88" opacity="0.49"/><circle cx="286.38" cy="474.07" r="4.21" fill="#7a2b45" opacity="0.26"/><circle cx="675.96" cy="575.36" r="3.67" fill="#f06d88" opacity="0.67"/><circle cx="322.77" cy="364.53" r="3.00" fill="#7a2b45" opacity="0.41"/><circle cx="53.01" cy="428.32" r="2.30" fill="#f06d88" opacity="0.57"/><circle cx="617.47" cy="1022.73" r="3.61" fill="#7a2b45" opacity="0.67"/><circle cx="766.86" cy="86.97" r="3.94" fill="#f06d88" opacity="0.65"/><circle cx="512.28" cy="383.44" r="4.10" fill="#7a2b45" opacity="0.30"/><circle cx="451.38" cy="589.38" r="2.10" fill="#f06d88" opacity="0.53"/><circle cx="692.76" cy="454.89" r="3.61" fill="#7a2b45" opacity="0.34"/><circle cx="640.72" cy="537.75" r="1.60" fill="#f06d88" opacity="0.24"/><circle cx="368.31" cy="1003.74" r="3.42" fill="#7a2b45" opacity="0.50"/><circle cx="309.46" cy="243.54" r="2.90" fill="#f06d88" opacity="0.52"/><circle cx="196.92" cy="887.83" r="2.95" fill="#7a2b45" opacity="0.67"/><circle cx="718.45" cy="568.52" r="1.42" fill="#f06d88" opacity="0.43"/><circle cx="637.49" cy="554.47" r="4.12" fill="#7a2b45" opacity="0.65"/><circle cx="57.75" cy="95.00" r="4.24" fill="#f06d88" opacity="0.26"/><circle cx="201.08" cy="816.86" r="1.44" fill="#7a2b45" opacity="0.25"/><circle cx="567.18" cy="915.96" r="3.09" fill="#f06d88" opacity="0.34"/><circle cx="222.50" cy="515.40" r="4.37" fill="#7a2b45" opacity="0.24"/>
  </g>

  <rect x="16" y="16" width="736" height="992" rx="24" stroke="url(#edge-abyss-revenant-c10)" stroke-width="2.5" opacity="0.85"/>
  <rect x="22" y="22" width="724" height="980" rx="20" stroke="#8aa0c4" stroke-width="2" opacity="0.74"/>

  <rect x="34" y="34" width="700" height="72" rx="14" fill="#070b14" fill-opacity="0.72" stroke="#8aa0c4" stroke-opacity="0.55"/>
  <text x="54" y="80" fill="#EAF4FF" font-family="Exo 2, Segoe UI, sans-serif" font-size="32" font-weight="700">Abyss Revenant</text>

  <rect x="34" y="872" width="700" height="92" rx="14" fill="#070b14" fill-opacity="0.74" stroke="#8aa0c4" stroke-opacity="0.6"/>
  <text x="54" y="924" fill="#D9E7FF" font-family="Exo 2, Segoe UI, sans-serif" font-size="30" font-weight="600">Disruptor</text>

  <rect x="598" y="36" width="118" height="42" rx="10" fill="#8aa0c4" fill-opacity="0.2" stroke="#8aa0c4" stroke-opacity="0.8"/>
  <text x="612" y="65" fill="#8aa0c4" font-family="Exo 2, Segoe UI, sans-serif" font-size="20" font-weight="700">COMMON</text>

  <circle cx="708" cy="954" r="26" fill="#080d18" stroke="#8aa0c4" stroke-opacity="0.8"/>
  <text x="696" y="962" fill="#E7F2FF" font-family="Exo 2, Segoe UI, sans-serif" font-size="24" font-weight="700">10</text>
</svg>