<?xml version="1.0" encoding="UTF-8"?>
<svg width="768" height="1024" viewBox="0 0 768 1024" fill="none" xmlns="http://www.w3.org/2000/svg">
  <defs>
    <linearGradient id="bg-abyss-revenant-c43" x1="60" y1="40" x2="728" y2="1004" gradientUnits="userSpaceOnUse">
      <stop offset="0" stop-color="#130f1e"/>
      <stop offset="0.55" stop-color="#462356"/>
      <stop offset="1" stop-color="#130f1e"/>
    </linearGradient>
    <radialGradient id="glow-abyss-revenant-c43" cx="0" cy="0" r="1" gradientUnits="userSpaceOnUse" gradientTransform="translate(443.60 253.08) rotate(90) scale(287.19 287.19)">
      <stop stop-color="#7a2b45" stop-opacity="0.45"/>
      <stop offset="1" stop-color="#7a2b45" stop-opacity="0"/>
    </radialGradient>
    <linearGradient id="edge-abyss-revenant-c43" x1="0" y1="0" x2="768" y2="1024" gradientUnits="userSpaceOnUse">
      <stop stop-color="#7a2b45" stop-opacity="0.85"/>
      <stop offset="1" stop-color="#f06d88" stop-opacity="0.85"/>
    </linearGradient>
  </defs>

  <rect x="0" y="0" width="768" height="1024" rx="32" fill="#060910"/>
  <rect x="16" y="16" width="736" height="992" rx="24" fill="url(#bg-abyss-revenant-c43)"/>
  <rect x="16" y="16" width="736" height="992" rx="24" fill="url(#glow-abyss-revenant-c43)"/>

  <g opacity="0.88">
    <path d="M224.55,279.76 C307.46,164.17 157.29,479.95 239.14,585.83" stroke="#f06d88" stroke-width="7" fill="none" opacity="0.72"/><path d="M293.62,302.41 C376.50,187.22 239.27,462.65 321.32,614.89" stroke="#7a2b45" stroke-width="6.3" fill="none" opacity="0.72"/><path d="M354.79,315.11 C442.24,247.54 271.05,542.69 379.70,635.68" stroke="#f06d88" stroke-width="5.6" fill="none" opacity="0.72"/><path d="M427.81,284.62 C498.88,190.37 366.14,465.52 452.38,611.50" stroke="#7a2b45" stroke-width="4.9" fill="none" opacity="0.72"/><path d="M483.97,299.11 C553.71,211.35 418.96,464.90 506.58,598.55" stroke="#f06d88" stroke-width="4.2" fill="none" opacity="0.72"/><path d="M548.34,268.07 C619.75,151.74 489.88,436.87 568.35,606.27" stroke="#7a2b45" stroke-width="3.5" fill="none" opacity="0.72"/>
  </g>

  <g opacity="0.8">
    <circle cx="365.36" cy="223.56" r="3.13" fill="#f06d88" opacity="0.51"/><circle cx="235.26" cy="582.01" r="2.87" fill="#7a2b45" opacity="0.37"/><circle cx="312.71" cy="646.85" r="2.94" fill="#f06d88" opacity="0.58"/><circle cx="213.07" cy="1021.98" r="4.57" fill="#7a2b45" opacity="0.38"/><circle cx="0.24" cy="505.18" r="3.18" fill="#f06d88" opacity="0.60"/><circle cx="630.47" cy="482.34" r="4.38" fill="#7a2b45" opacity="0.67"/><circle cx="70.74" cy="826.46" r="3.55" fill="#f06d88" opacity="0.29"/><circle cx="305.85" cy="825.05" r="4.02" fill="#7a2b45" opacity="0.53"/><circle cx="534.75" cy="613.93" r="4.82" fill="#f06d88" opacity="0.33"/><circle cx="563.99" cy="632.91" r="4.99" fill="#7a2b45" opacity="0.51"/><circle cx="371.00" cy="881.06" r="1.68" fill="#f06d88" opacity="0.47"/><circle cx="578.51" cy="909.17" r="3.67" fill="#7a2b45" opacity="0.62"/><circle cx="110.18" cy="848.42" r="2.64" fill="#f06d88" opacity="0.30"/><circle cx="424.36" cy="9.44" r="4.79" fill="#7a2b45" opacity="0.65"/><circle cx="544.29" cy="219.78" r="2.91" fill="#f06d88" opacity="0.36"/><circle cx="335.09" cy="997.14" r="2.86" fill="#7a2b45" opacity="0.73"/><circle cx="174.28" cy="209.14" r="4.86" fill="#f06d88" opacity="0.39"/><circle cx="331.56" cy="41.22" r="4.14" fill="#7a2b45" opacity="0.59"/><circle cx="272.57" cy="86.63" r="2.18" fill="#f06d88" opacity="0.38"/><circle cx="653.15" cy="1004.94" r="2.82" fill="#7a2b45" opacity="0.33"/><circle cx="524.71" cy="449.31" r="2.58" fill="#f06d88" opacity="0.73"/><circle cx="734.34" cy="916.94" r="3.37" fill="#7a2b45" opacity="0.46"/><circle cx="288.94" cy="191.57" r="3.32" fill="#f06d88" opacity="0.39"/><circle cx="426.68" cy="444.44" r="4.98" fill="#7a2b45" opacity="0.67"/><circle cx="477.16" cy="443.83" r="2.00" fill="#f06d88" opacity="0.31"/><circle cx="343.32" cy="339.51" r="4.23" fill="#7a2b45" opacity="0.29"/><circle cx="333.97" cy="420.61" r="3.51" fill="#f06d88" opacity="0.35"/><circle cx="305.93" cy="289.86" r="3.75" fill="#7a2b45" opacity="0.52"/>
  </g>

  <rect x="16" y="16" width="736" height="992" rx="24" stroke="url(#edge-abyss-revenant-c43)" stroke-width="2.5" opacity="0.85"/>
  <rect x="22" y="22" width="724" height="980" rx="20" stroke="#78d8ff" stroke-width="2" opacity="0.74"/>

  <rect x="34" y="34" width="700" height="72" rx="14" fill="#070b14" fill-opacity="0.72" stroke="#78d8ff" stroke-opacity="0.55"/>
  <text x="54" y="80" fill="#EAF4FF" font-family="Exo 2, Segoe UI, sans-serif" font-size="32" font-weight="700">Abyss Revenant</text>

  <rect x="34" y="872" width="700" height="92" rx="14" fill="#070b14" fill-opacity="0.74" stroke="#78d8ff" stroke-opacity="0.6"/>
  <text x="54" y="924" fill="#D9E7FF" font-family="Exo 2, Segoe UI, sans-serif" font-size="30" font-weight="600">Faction Amplifier</text>

  <rect x="598" y="36" width="118" height="42" rx="10" fill="#78d8ff" fill-opacity="0.2" stroke="#78d8ff" stroke-opacity="0.8"/>
  <text x="612" y="65" fill="#78d8ff" font-family="Exo 2, Segoe UI, sans-serif" font-size="20" font-weight="700">RARE</text>

  <circle cx="708" cy="954" r="26" fill="#080d18" stroke="#78d8ff" stroke-opacity="0.8"/>
  <text x="696" y="962" fill="#E7F2FF" font-family="Exo 2, Segoe UI, sans-serif" font-size="24" font-weight="700">43</text>
</svg>