<?xml version="1.0" encoding="UTF-8"?>
<svg width="768" height="1024" viewBox="0 0 768 1024" fill="none" xmlns="http://www.w3.org/2000/svg">
  <defs>
    <linearGradient id="bg-abyss-revenant-c21" x1="60" y1="40" x2="728" y2="1004" gradientUnits="userSpaceOnUse">
      <stop offset="0" stop-color="#130f1e"/>
      <stop offset="0.55" stop-color="#462356"/>
      <stop offset="1" stop-color="#130f1e"/>
    </linearGradient>
    <radialGradient id="glow-abyss-revenant-c21" cx="0" cy="0" r="1" gradientUnits="userSpaceOnUse" gradientTransform="translate(351.33 334.13) rotate(90) scale(281.98 281.98)">
      <stop stop-color="#7a2b45" stop-opacity="0.45"/>
      <stop offset="1" stop-color="#7a2b45" stop-opacity="0"/>
    </radialGradient>
    <linearGradient id="edge-abyss-revenant-c21" x1="0" y1="0" x2="768" y2="1024" gradientUnits="userSpaceOnUse">
      <stop stop-color="#7a2b45" stop-opacity="0.85"/>
      <stop offset="1" stop-color="#f06d88" stop-opacity="0.85"/>
    </linearGradient>
  </defs>

  <rect x="0" y="0" width="768" height="1024" rx="32" fill="#060910"/>
  <rect x="16" y="16" width="736" height="992" rx="24" fill="url(#bg-abyss-revenant-c21)"/>
  <rect x="16" y="16" width="736" height="992" rx="24" fill="url(#glow-abyss-revenant-c21)"/>

  <g opacity="0.88">
    <path d="M228.62,270.43 C296.72,207.51 147.19,427.65 258.09,627.06" stroke="#f06d88" stroke-width="7" fill="none" opacity="0.72"/><path d="M298.76,313.35 C373.87,248.18 248.23,490.04 313.18,627.84" stroke="#7a2b45" stroke-width="6.3" fill="none" opacity="0.72"/><path d="M360.97,279.84 C433.93,192.70 275.05,502.77 372.97,669.69" stroke="#f06d88" stroke-width="5.6" fill="none" opacity="0.72"/><path d="M415.22,255.24 C490.74,142.45 337.69,484.98 429.91,595.68" stroke="#7a2b45" stroke-width="4.9" fill="none" opacity="0.72"/><path d="M486.41,279.63 C555.43,191.30 418.25,462.60 511.94,606.40" stroke="#f06d88" stroke-width="4.2" fill="none" opacity="0.72"/><path d="M553.63,313.73 C632.80,247.32 503.01,551.37 566.64,624.92" stroke="#7a2b45" stroke-width="3.5" fill="none" opacity="0.72"/>
  </g>

  <g opacity="0.8">
    <circle cx="146.91" cy="84.21" r="3.92" fill="#f06d88" opacity="0.37"/><circle cx="408.85" cy="101.21" r="4.60" fill="#7a2b45" opacity="0.64"/><circle cx="477.18" cy="904.05" r="2.63" fill="#f06d88" opacity="0.47"/><circle cx="625.57" cy="946.89" r="4.47" fill="#7a2b45" opacity="0.46"/><circle cx="734.66" cy="434.59" r="3.01" fill="#f06d88" opacity="0.40"/><circle cx="534.30" cy="624.80" r="2.00" fill="#7a2b45" opacity="0.56"/><circle cx="275.94" cy="777.17" r="3.11" fill="#f06d88" opacity="0.62"/><circle cx="346.59" cy="983.01" r="3.42" fill="#7a2b45" opacity="0.48"/><circle cx="126.72" cy="685.01" r="4.45" fill="#f06d88" opacity="0.51"/><circle cx="687.32" cy="364.11" r="3.82" fill="#7a2b45" opacity="0.32"/><circle cx="90.85" cy="110.94" r="3.72" fill="#f06d88" opacity="0.71"/><circle cx="407.33" cy="102.58" r="3.31" fill="#7a2b45" opacity="0.28"/><circle cx="285.08" cy="437.57" r="4.25" fill="#f06d88" opacity="0.66"/><circle cx="215.04" cy="852.80" r="4.61" fill="#7a2b45" opacity="0.70"/><circle cx="332.46" cy="486.31" r="4.60" fill="#f06d88" opacity="0.49"/><circle cx="178.14" cy="265.02" r="2.11" fill="#7a2b45" opacity="0.40"/><circle cx="471.27" cy="239.45" r="3.40" fill="#f06d88" opacity="0.56"/><circle cx="650.62" cy="158.88" r="3.50" fill="#7a2b45" opacity="0.62"/><circle cx="118.05" cy="512.92" r="2.65" fill="#f06d88" opacity="0.57"/><circle cx="46.93" cy="252.99" r="4.12" fill="#7a2b45" opacity="0.58"/><circle cx="549.69" cy="160.83" r="4.36" fill="#f06d88" opacity="0.72"/><circle cx="39.03" cy="798.34" r="4.43" fill="#7a2b45" opacity="0.45"/><circle cx="102.79" cy="304.07" r="4.84" fill="#f06d88" opacity="0.52"/><circle cx="47.20" cy="828.24" r="4.91" fill="#7a2b45" opacity="0.68"/><circle cx="409.85" cy="1014.52" r="2.49" fill="#f06d88" opacity="0.65"/><circle cx="306.34" cy="604.35" r="1.89" fill="#7a2b45" opacity="0.66"/><circle cx="270.36" cy="25.84" r="1.37" fill="#f06d88" opacity="0.33"/><circle cx="444.55" cy="997.86" r="3.84" fill="#7a2b45" opacity="0.56"/>
  </g>

  <rect x="16" y="16" width="736" height="992" rx="24" stroke="url(#edge-abyss-revenant-c21)" stroke-width="2.5" opacity="0.85"/>
  <rect x="22" y="22" width="724" height="980" rx="20" stroke="#8aa0c4" stroke-width="2" opacity="0.74"/>

  <rect x="34" y="34" width="700" height="72" rx="14" fill="#070b14" fill-opacity="0.72" stroke="#8aa0c4" stroke-opacity="0.55"/>
  <text x="54" y="80" fill="#EAF4FF" font-family="Exo 2, Segoe UI, sans-serif" font-size="32" font-weight="700">Abyss Revenant</text>

  <rect x="34" y="872" width="700" height="92" rx="14" fill="#070b14" fill-opacity="0.74" stroke="#8aa0c4" stroke-opacity="0.6"/>
  <text x="54" y="924" fill="#D9E7FF" font-family="Exo 2, Segoe UI, sans-serif" font-size="30" font-weight="600">Field Marshal</text>

  <rect x="598" y="36" width="118" height="42" rx="10" fill="#8aa0c4" fill-opacity="0.2" stroke="#8aa0c4" stroke-opacity="0.8"/>
  <text x="612" y="65" fill="#8aa0c4" font-family="Exo 2, Segoe UI, sans-serif" font-size="20" font-weight="700">COMMON</text>

  <circle cx="708" cy="954" r="26" fill="#080d18" stroke="#8aa0c4" stroke-opacity="0.8"/>
  <text x="696" y="962" fill="#E7F2FF" font-family="Exo 2, Segoe UI, sans-serif" font-size="24" font-weight="700">21</text>
</svg>