<?xml version="1.0" encoding="UTF-8"?>
<svg width="768" height="1024" viewBox="0 0 768 1024" fill="none" xmlns="http://www.w3.org/2000/svg">
  <defs>
    <linearGradient id="bg-abyss-revenant-c49" x1="60" y1="40" x2="728" y2="1004" gradientUnits="userSpaceOnUse">
      <stop offset="0" stop-color="#130f1e"/>
      <stop offset="0.55" stop-color="#462356"/>
      <stop offset="1" stop-color="#130f1e"/>
    </linearGradient>
    <radialGradient id="glow-abyss-revenant-c49" cx="0" cy="0" r="1" gradientUnits="userSpaceOnUse" gradientTransform="translate(245.61 462.63) rotate(90) scale(288.13 288.13)">
      <stop stop-color="#7a2b45" stop-opacity="0.45"/>
      <stop offset="1" stop-color="#7a2b45" stop-opacity="0"/>
    </radialGradient>
    <linearGradient id="edge-abyss-revenant-c49" x1="0" y1="0" x2="768" y2="1024" gradientUnits="userSpaceOnUse">
      <stop stop-color="#7a2b45" stop-opacity="0.85"/>
      <stop offset="1" stop-color="#f06d88" stop-opacity="0.85"/>
    </linearGradient>
  </defs>

  <rect x="0" y="0" width="768" height="1024" rx="32" fill="#060910"/>
  <rect x="16" y="16" width="736" height="992" rx="24" fill="url(#bg-abyss-revenant-c49)"/>
  <rect x="16" y="16" width="736" height="992" rx="24" fill="url(#glow-abyss-revenant-c49)"/>

  <g opacity="0.88">
    <path d="M221.10,289.74 C306.14,201.13 137.39,483.77 244.29,601.84" stroke="#f06d88" stroke-width="7" fill="none" opacity="0.72"/><path d="M292.21,251.51 C357.35,143.06 210.57,491.35 302.45,579.09" stroke="#7a2b45" stroke-width="6.3" fill="none" opacity="0.72"/><path d="M352.62,276.56 C437.81,158.69 266.07,445.66 381.02,661.45" stroke="#f06d88" stroke-width="5.6" fill="none" opacity="0.72"/><path d="M426.27,269.65 C502.82,166.78 345.15,490.36 436.38,654.39" stroke="#7a2b45" stroke-width="4.9" fill="none" opacity="0.72"/><path d="M485.13,257.29 C560.16,147.24 425.35,434.96 498.46,623.44" stroke="#f06d88" stroke-width="4.2" fill="none" opacity="0.72"/><path d="M554.28,269.79 C621.82,158.43 478.89,425.81 577.10,618.33" stroke="#7a2b45" stroke-width="3.5" fill="none" opacity="0.72"/>
  </g>

  <g opacity="0.8">
    <circle cx="347.23" cy="599.80" r="4.97" fill="#f06d88" opacity="0.36"/><circle cx="84.25" cy="442.08" r="2.87" fill="#7a2b45" opacity="0.34"/><circle cx="97.32" cy="328.79" r="2.20" fill="#f06d88" opacity="0.35"/><circle cx="186.53" cy="572.84" r="1.31" fill="#7a2b45" opacity="0.35"/><circle cx="126.98" cy="256.83" r="1.46" fill="#f06d88" opacity="0.63"/><circle cx="276.05" cy="389.58" r="3.95" fill="#7a2b45" opacity="0.64"/><circle cx="355.67" cy="579.23" r="4.20" fill="#f06d88" opacity="0.32"/><circle cx="501.45" cy="663.59" r="4.66" fill="#7a2b45" opacity="0.46"/><circle cx="294.19" cy="297.15" r="2.99" fill="#f06d88" opacity="0.65"/><circle cx="496.30" cy="226.03" r="1.62" fill="#7a2b45" opacity="0.32"/><circle cx="285.77" cy="5.39" r="1.81" fill="#f06d88" opacity="0.61"/><circle cx="381.27" cy="435.13" r="2.69" fill="#7a2b45" opacity="0.54"/><circle cx="486.49" cy="183.13" r="3.14" fill="#f06d88" opacity="0.60"/><circle cx="482.07" cy="6.13" r="3.48" fill="#7a2b45" opacity="0.44"/><circle cx="335.26" cy="988.91" r="4.86" fill="#f06d88" opacity="0.30"/><circle cx="701.77" cy="251.81" r="1.88" fill="#7a2b45" opacity="0.24"/><circle cx="381.41" cy="72.93" r="3.08" fill="#f06d88" opacity="0.31"/><circle cx="564.30" cy="335.61" r="1.96" fill="#7a2b45" opacity="0.63"/><circle cx="327.17" cy="737.92" r="4.88" fill="#f06d88" opacity="0.56"/><circle cx="520.81" cy="450.99" r="4.17" fill="#7a2b45" opacity="0.46"/><circle cx="211.32" cy="794.51" r="2.95" fill="#f06d88" opacity="0.33"/><circle cx="485.38" cy="887.23" r="4.51" fill="#7a2b45" opacity="0.48"/><circle cx="659.70" cy="164.66" r="4.01" fill="#f06d88" opacity="0.34"/><circle cx="391.47" cy="538.67" r="4.35" fill="#7a2b45" opacity="0.47"/><circle cx="682.95" cy="934.78" r="1.35" fill="#f06d88" opacity="0.67"/><circle cx="308.14" cy="989.02" r="3.98" fill="#7a2b45" opacity="0.58"/><circle cx="141.91" cy="1007.93" r="2.48" fill="#f06d88" opacity="0.34"/><circle cx="371.80" cy="22.56" r="4.81" fill="#7a2b45" opacity="0.30"/>
  </g>

  <rect x="16" y="16" width="736" height="992" rx="24" stroke="url(#edge-abyss-revenant-c49)" stroke-width="2.5" opacity="0.85"/>
  <rect x="22" y="22" width="724" height="980" rx="20" stroke="#f0a0ff" stroke-width="2" opacity="0.74"/>

  <rect x="34" y="34" width="700" height="72" rx="14" fill="#070b14" fill-opacity="0.72" stroke="#f0a0ff" stroke-opacity="0.55"/>
  <text x="54" y="80" fill="#EAF4FF" font-family="Exo 2, Segoe UI, sans-serif" font-size="32" font-weight="700">Abyss Revenant</text>

  <rect x="34" y="872" width="700" height="92" rx="14" fill="#070b14" fill-opacity="0.74" stroke="#f0a0ff" stroke-opacity="0.6"/>
  <text x="54" y="924" fill="#D9E7FF" font-family="Exo 2, Segoe UI, sans-serif" font-size="30" font-weight="600">Identity Ritual</text>

  <rect x="598" y="36" width="118" height="42" rx="10" fill="#f0a0ff" fill-opacity="0.2" stroke="#f0a0ff" stroke-opacity="0.8"/>
  <text x="612" y="65" fill="#f0a0ff" font-family="Exo 2, Segoe UI, sans-serif" font-size="20" font-weight="700">EPIC</text>

  <circle cx="708" cy="954" r="26" fill="#080d18" stroke="#f0a0ff" stroke-opacity="0.8"/>
  <text x="696" y="962" fill="#E7F2FF" font-family="Exo 2, Segoe UI, sans-serif" font-size="24" font-weight="700">49</text>
</svg>