<?xml version="1.0" encoding="UTF-8"?>
<svg width="768" height="1024" viewBox="0 0 768 1024" fill="none" xmlns="http://www.w3.org/2000/svg">
  <defs>
    <linearGradient id="bg-chronomancer-c41" x1="60" y1="40" x2="728" y2="1004" gradientUnits="userSpaceOnUse">
      <stop offset="0" stop-color="#101425"/>
      <stop offset="0.55" stop-color="#2a4478"/>
      <stop offset="1" stop-color="#101425"/>
    </linearGradient>
    <radialGradient id="glow-chronomancer-c41" cx="0" cy="0" r="1" gradientUnits="userSpaceOnUse" gradientTransform="translate(621.72 138.13) rotate(90) scale(223.47 223.47)">
      <stop stop-color="#c7a64a" stop-opacity="0.45"/>
      <stop offset="1" stop-color="#c7a64a" stop-opacity="0"/>
    </radialGradient>
    <linearGradient id="edge-chronomancer-c41" x1="0" y1="0" x2="768" y2="1024" gradientUnits="userSpaceOnUse">
      <stop stop-color="#c7a64a" stop-opacity="0.85"/>
      <stop offset="1" stop-color="#9bd3ff" stop-opacity="0.85"/>
    </linearGradient>
  </defs>

  <rect x="0" y="0" width="768" height="1024" rx="32" fill="#060910"/>
  <rect x="16" y="16" width="736" height="992" rx="24" fill="url(#bg-chronomancer-c41)"/>
  <rect x="16" y="16" width="736" height="992" rx="24" fill="url(#glow-chronomancer-c41)"/>

  <g opacity="0.88">
    <circle cx="384" cy="512" r="184" fill="none" stroke="#c7a64a" stroke-width="8" opacity="0.72"/>
<circle cx="384" cy="512" r="132" fill="none" stroke="#9bd3ff" stroke-width="4" opacity="0.76"/>
<line x1="524.00" y1="512.00" x2="560.00" y2="512.00" stroke="#9bd3ff" stroke-width="4" opacity="0.7"/><line x1="505.24" y1="582.00" x2="536.42" y2="600.00" stroke="#9bd3ff" stroke-width="4" opacity="0.7"/><line x1="454.00" y1="633.24" x2="472.00" y2="664.42" stroke="#9bd3ff" stroke-width="4" opacity="0.7"/><line x1="384.00" y1="652.00" x2="384.00" y2="688.00" stroke="#9bd3ff" stroke-width="4" opacity="0.7"/><line x1="314.00" y1="633.24" x2="296.00" y2="664.42" stroke="#9bd3ff" stroke-width="4" opacity="0.7"/><line x1="262.76" y1="582.00" x2="231.58" y2="600.00" stroke="#9bd3ff" stroke-width="4" opacity="0.7"/><line x1="244.00" y1="512.00" x2="208.00" y2="512.00" stroke="#9bd3ff" stroke-width="4" opacity="0.7"/><line x1="262.76" y1="442.00" x2="231.58" y2="424.00" stroke="#9bd3ff" stroke-width="4" opacity="0.7"/><line x1="314.00" y1="390.76" x2="296.00" y2="359.58" stroke="#9bd3ff" stroke-width="4" opacity="0.7"/><line x1="384.00" y1="372.00" x2="384.00" y2="336.00" stroke="#9bd3ff" stroke-width="4" opacity="0.7"/><line x1="454.00" y1="390.76" x2="472.00" y2="359.58" stroke="#9bd3ff" stroke-width="4" opacity="0.7"/><line x1="505.24" y1="442.00" x2="536.42" y2="424.00" stroke="#9bd3ff" stroke-width="4" opacity="0.7"/>
<line x1="384" y1="512" x2="466.00" y2="486.00" stroke="#c7a64a" stroke-width="8" opacity="0.9"/>
<line x1="384" y1="512" x2="342.00" y2="604.00" stroke="#9bd3ff" stroke-width="6" opacity="0.9"/>
  </g>

  <g opacity="0.8">
    <circle cx="247.65" cy="752.99" r="2.35" fill="#9bd3ff" opacity="0.63"/><circle cx="681.16" cy="836.49" r="4.08" fill="#c7a64a" opacity="0.73"/><circle cx="582.16" cy="791.64" r="4.90" fill="#9bd3ff" opacity="0.67"/><circle cx="650.93" cy="7.98" r="1.58" fill="#c7a64a" opacity="0.50"/><circle cx="755.58" cy="816.08" r="4.28" fill="#9bd3ff" opacity="0.64"/><circle cx="580.22" cy="146.65" r="3.45" fill="#c7a64a" opacity="0.40"/><circle cx="307.89" cy="705.16" r="3.52" fill="#9bd3ff" opacity="0.35"/><circle cx="712.43" cy="149.37" r="3.40" fill="#c7a64a" opacity="0.35"/><circle cx="16.66" cy="495.16" r="2.16" fill="#9bd3ff" opacity="0.66"/><circle cx="369.05" cy="949.85" r="4.10" fill="#c7a64a" opacity="0.24"/><circle cx="123.87" cy="715.49" r="3.55" fill="#9bd3ff" opacity="0.65"/><circle cx="316.75" cy="1013.50" r="4.43" fill="#c7a64a" opacity="0.29"/><circle cx="633.82" cy="118.74" r="3.80" fill="#9bd3ff" opacity="0.46"/><circle cx="100.83" cy="521.69" r="3.08" fill="#c7a64a" opacity="0.72"/><circle cx="656.40" cy="926.44" r="2.72" fill="#9bd3ff" opacity="0.45"/><circle cx="574.25" cy="767.59" r="2.50" fill="#c7a64a" opacity="0.56"/><circle cx="348.59" cy="65.56" r="1.67" fill="#9bd3ff" opacity="0.36"/><circle cx="487.27" cy="268.01" r="4.52" fill="#c7a64a" opacity="0.65"/><circle cx="390.72" cy="349.56" r="3.71" fill="#9bd3ff" opacity="0.37"/><circle cx="260.19" cy="433.04" r="1.71" fill="#c7a64a" opacity="0.56"/><circle cx="409.82" cy="573.24" r="3.88" fill="#9bd3ff" opacity="0.48"/><circle cx="639.89" cy="93.20" r="3.33" fill="#c7a64a" opacity="0.40"/><circle cx="304.17" cy="970.32" r="3.54" fill="#9bd3ff" opacity="0.66"/><circle cx="41.89" cy="740.19" r="3.74" fill="#c7a64a" opacity="0.69"/><circle cx="550.66" cy="650.83" r="2.17" fill="#9bd3ff" opacity="0.58"/><circle cx="672.75" cy="441.46" r="2.86" fill="#c7a64a" opacity="0.51"/><circle cx="427.33" cy="914.95" r="3.15" fill="#9bd3ff" opacity="0.28"/><circle cx="646.24" cy="87.28" r="2.61" fill="#c7a64a" opacity="0.69"/>
  </g>

  <rect x="16" y="16" width="736" height="992" rx="24" stroke="url(#edge-chronomancer-c41)" stroke-width="2.5" opacity="0.85"/>
  <rect x="22" y="22" width="724" height="980" rx="20" stroke="#78d8ff" stroke-width="2" opacity="0.74"/>

  <rect x="34" y="34" width="700" height="72" rx="14" fill="#070b14" fill-opacity="0.72" stroke="#78d8ff" stroke-opacity="0.55"/>
  <text x="54" y="80" fill="#EAF4FF" font-family="Exo 2, Segoe UI, sans-serif" font-size="32" font-weight="700">Chronomancer</text>

  <rect x="34" y="872" width="700" height="92" rx="14" fill="#070b14" fill-opacity="0.74" stroke="#78d8ff" stroke-opacity="0.6"/>
  <text x="54" y="924" fill="#D9E7FF" font-family="Exo 2, Segoe UI, sans-serif" font-size="30" font-weight="600">Grave Utility</text>

  <rect x="598" y="36" width="118" height="42" rx="10" fill="#78d8ff" fill-opacity="0.2" stroke="#78d8ff" stroke-opacity="0.8"/>
  <text x="612" y="65" fill="#78d8ff" font-family="Exo 2, Segoe UI, sans-serif" font-size="20" font-weight="700">RARE</text>

  <circle cx="708" cy="954" r="26" fill="#080d18" stroke="#78d8ff" stroke-opacity="0.8"/>
  <text x="696" y="962" fill="#E7F2FF" font-family="Exo 2, Segoe UI, sans-serif" font-size="24" font-weight="700">41</text>
</svg>