<?xml version="1.0" encoding="UTF-8"?>
<svg width="768" height="1024" viewBox="0 0 768 1024" fill="none" xmlns="http://www.w3.org/2000/svg">
  <defs>
    <linearGradient id="bg-chronomancer-c46" x1="60" y1="40" x2="728" y2="1004" gradientUnits="userSpaceOnUse">
      <stop offset="0" stop-color="#101425"/>
      <stop offset="0.55" stop-color="#2a4478"/>
      <stop offset="1" stop-color="#101425"/>
    </linearGradient>
    <radialGradient id="glow-chronomancer-c46" cx="0" cy="0" r="1" gradientUnits="userSpaceOnUse" gradientTransform="translate(636.47 458.00) rotate(90) scale(252.13 252.13)">
      <stop stop-color="#c7a64a" stop-opacity="0.45"/>
      <stop offset="1" stop-color="#c7a64a" stop-opacity="0"/>
    </radialGradient>
    <linearGradient id="edge-chronomancer-c46" x1="0" y1="0" x2="768" y2="1024" gradientUnits="userSpaceOnUse">
      <stop stop-color="#c7a64a" stop-opacity="0.85"/>
      <stop offset="1" stop-color="#9bd3ff" stop-opacity="0.85"/>
    </linearGradient>
  </defs>

  <rect x="0" y="0" width="768" height="1024" rx="32" fill="#060910"/>
  <rect x="16" y="16" width="736" height="992" rx="24" fill="url(#bg-chronomancer-c46)"/>
  <rect x="16" y="16" width="736" height="992" rx="24" fill="url(#glow-chronomancer-c46)"/>

  <g opacity="0.88">
    <circle cx="384" cy="512" r="184" fill="none" stroke="#c7a64a" stroke-width="8" opacity="0.72"/>
<circle cx="384" cy="512" r="132" fill="none" stroke="#9bd3ff" stroke-width="4" opacity="0.76"/>
<line x1="524.00" y1="512.00" x2="560.00" y2="512.00" stroke="#9bd3ff" stroke-width="4" opacity="0.7"/><line x1="505.24" y1="582.00" x2="536.42" y2="600.00" stroke="#9bd3ff" stroke-width="4" opacity="0.7"/><line x1="454.00" y1="633.24" x2="472.00" y2="664.42" stroke="#9bd3ff" stroke-width="4" opacity="0.7"/><line x1="384.00" y1="652.00" x2="384.00" y2="688.00" stroke="#9bd3ff" stroke-width="4" opacity="0.7"/><line x1="314.00" y1="633.24" x2="296.00" y2="664.42" stroke="#9bd3ff" stroke-width="4" opacity="0.7"/><line x1="262.76" y1="582.00" x2="231.58" y2="600.00" stroke="#9bd3ff" stroke-width="4" opacity="0.7"/><line x1="244.00" y1="512.00" x2="208.00" y2="512.00" stroke="#9bd3ff" stroke-width="4" opacity="0.7"/><line x1="262.76" y1="442.00" x2="231.58" y2="424.00" stroke="#9bd3ff" stroke-width="4" opacity="0.7"/><line x1="314.00" y1="390.76" x2="296.00" y2="359.58" stroke="#9bd3ff" stroke-width="4" opacity="0.7"/><line x1="384.00" y1="372.00" x2="384.00" y2="336.00" stroke="#9bd3ff" stroke-width="4" opacity="0.7"/><line x1="454.00" y1="390.76" x2="472.00" y2="359.58" stroke="#9bd3ff" stroke-width="4" opacity="0.7"/><line x1="505.24" y1="442.00" x2="536.42" y2="424.00" stroke="#9bd3ff" stroke-width="4" opacity="0.7"/>
<line x1="384" y1="512" x2="466.00" y2="486.00" stroke="#c7a64a" stroke-width="8" opacity="0.9"/>
<line x1="384" y1="512" x2="342.00" y2="604.00" stroke="#9bd3ff" stroke-width="6" opacity="0.9"/>
  </g>

  <g opacity="0.8">
    <circle cx="221.88" cy="891.32" r="4.63" fill="#9bd3ff" opacity="0.71"/><circle cx="694.62" cy="890.48" r="4.22" fill="#c7a64a" opacity="0.28"/><circle cx="529.42" cy="312.34" r="3.70" fill="#9bd3ff" opacity="0.47"/><circle cx="515.25" cy="152.80" r="2.93" fill="#c7a64a" opacity="0.69"/><circle cx="325.85" cy="282.93" r="4.62" fill="#9bd3ff" opacity="0.25"/><circle cx="34.76" cy="794.01" r="2.08" fill="#c7a64a" opacity="0.24"/><circle cx="122.95" cy="854.80" r="3.42" fill="#9bd3ff" opacity="0.50"/><circle cx="213.03" cy="526.58" r="1.21" fill="#c7a64a" opacity="0.38"/><circle cx="422.28" cy="964.39" r="2.34" fill="#9bd3ff" opacity="0.56"/><circle cx="681.01" cy="499.71" r="3.76" fill="#c7a64a" opacity="0.57"/><circle cx="351.54" cy="782.47" r="3.78" fill="#9bd3ff" opacity="0.47"/><circle cx="743.46" cy="728.26" r="2.22" fill="#c7a64a" opacity="0.47"/><circle cx="580.93" cy="675.01" r="2.14" fill="#9bd3ff" opacity="0.66"/><circle cx="369.88" cy="167.16" r="3.49" fill="#c7a64a" opacity="0.69"/><circle cx="197.51" cy="612.14" r="4.19" fill="#9bd3ff" opacity="0.63"/><circle cx="431.79" cy="592.38" r="4.60" fill="#c7a64a" opacity="0.26"/><circle cx="418.45" cy="1014.62" r="3.76" fill="#9bd3ff" opacity="0.36"/><circle cx="162.42" cy="755.21" r="1.20" fill="#c7a64a" opacity="0.36"/><circle cx="473.69" cy="201.83" r="3.19" fill="#9bd3ff" opacity="0.34"/><circle cx="112.37" cy="195.12" r="4.00" fill="#c7a64a" opacity="0.32"/><circle cx="0.39" cy="867.52" r="4.99" fill="#9bd3ff" opacity="0.49"/><circle cx="673.20" cy="741.89" r="3.08" fill="#c7a64a" opacity="0.63"/><circle cx="683.14" cy="614.91" r="3.93" fill="#9bd3ff" opacity="0.40"/><circle cx="641.80" cy="382.50" r="4.99" fill="#c7a64a" opacity="0.40"/><circle cx="571.59" cy="619.92" r="3.83" fill="#9bd3ff" opacity="0.44"/><circle cx="291.48" cy="965.85" r="2.62" fill="#c7a64a" opacity="0.61"/><circle cx="324.20" cy="532.85" r="3.68" fill="#9bd3ff" opacity="0.47"/><circle cx="327.18" cy="863.12" r="3.51" fill="#c7a64a" opacity="0.61"/>
  </g>

  <rect x="16" y="16" width="736" height="992" rx="24" stroke="url(#edge-chronomancer-c46)" stroke-width="2.5" opacity="0.85"/>
  <rect x="22" y="22" width="724" height="980" rx="20" stroke="#f0a0ff" stroke-width="2" opacity="0.74"/>

  <rect x="34" y="34" width="700" height="72" rx="14" fill="#070b14" fill-opacity="0.72" stroke="#f0a0ff" stroke-opacity="0.55"/>
  <text x="54" y="80" fill="#EAF4FF" font-family="Exo 2, Segoe UI, sans-serif" font-size="32" font-weight="700">Chronomancer</text>

  <rect x="34" y="872" width="700" height="92" rx="14" fill="#070b14" fill-opacity="0.74" stroke="#f0a0ff" stroke-opacity="0.6"/>
  <text x="54" y="924" fill="#D9E7FF" font-family="Exo 2, Segoe UI, sans-serif" font-size="30" font-weight="600">Epic Denial</text>

  <rect x="598" y="36" width="118" height="42" rx="10" fill="#f0a0ff" fill-opacity="0.2" stroke="#f0a0ff" stroke-opacity="0.8"/>
  <text x="612" y="65" fill="#f0a0ff" font-family="Exo 2, Segoe UI, sans-serif" font-size="20" font-weight="700">EPIC</text>

  <circle cx="708" cy="954" r="26" fill="#080d18" stroke="#f0a0ff" stroke-opacity="0.8"/>
  <text x="696" y="962" fill="#E7F2FF" font-family="Exo 2, Segoe UI, sans-serif" font-size="24" font-weight="700">46</text>
</svg>