<?xml version="1.0" encoding="UTF-8"?>
<svg width="768" height="1024" viewBox="0 0 768 1024" fill="none" xmlns="http://www.w3.org/2000/svg">
  <defs>
    <linearGradient id="bg-chronomancer-c16" x1="60" y1="40" x2="728" y2="1004" gradientUnits="userSpaceOnUse">
      <stop offset="0" stop-color="#101425"/>
      <stop offset="0.55" stop-color="#2a4478"/>
      <stop offset="1" stop-color="#101425"/>
    </linearGradient>
    <radialGradient id="glow-chronomancer-c16" cx="0" cy="0" r="1" gradientUnits="userSpaceOnUse" gradientTransform="translate(527.41 737.32) rotate(90) scale(234.84 234.84)">
      <stop stop-color="#c7a64a" stop-opacity="0.45"/>
      <stop offset="1" stop-color="#c7a64a" stop-opacity="0"/>
    </radialGradient>
    <linearGradient id="edge-chronomancer-c16" x1="0" y1="0" x2="768" y2="1024" gradientUnits="userSpaceOnUse">
      <stop stop-color="#c7a64a" stop-opacity="0.85"/>
      <stop offset="1" stop-color="#9bd3ff" stop-opacity="0.85"/>
    </linearGradient>
  </defs>

  <rect x="0" y="0" width="768" height="1024" rx="32" fill="#060910"/>
  <rect x="16" y="16" width="736" height="992" rx="24" fill="url(#bg-chronomancer-c16)"/>
  <rect x="16" y="16" width="736" height="992" rx="24" fill="url(#glow-chronomancer-c16)"/>

  <g opacity="0.88">
    <circle cx="384" cy="512" r="184" fill="none" stroke="#c7a64a" stroke-width="8" opacity="0.72"/>
<circle cx="384" cy="512" r="132" fill="none" stroke="#9bd3ff" stroke-width="4" opacity="0.76"/>
<line x1="524.00" y1="512.00" x2="560.00" y2="512.00" stroke="#9bd3ff" stroke-width="4" opacity="0.7"/><line x1="505.24" y1="582.00" x2="536.42" y2="600.00" stroke="#9bd3ff" stroke-width="4" opacity="0.7"/><line x1="454.00" y1="633.24" x2="472.00" y2="664.42" stroke="#9bd3ff" stroke-width="4" opacity="0.7"/><line x1="384.00" y1="652.00" x2="384.00" y2="688.00" stroke="#9bd3ff" stroke-width="4" opacity="0.7"/><line x1="314.00" y1="633.24" x2="296.00" y2="664.42" stroke="#9bd3ff" stroke-width="4" opacity="0.7"/><line x1="262.76" y1="582.00" x2="231.58" y2="600.00" stroke="#9bd3ff" stroke-width="4" opacity="0.7"/><line x1="244.00" y1="512.00" x2="208.00" y2="512.00" stroke="#9bd3ff" stroke-width="4" opacity="0.7"/><line x1="262.76" y1="442.00" x2="231.58" y2="424.00" stroke="#9bd3ff" stroke-width="4" opacity="0.7"/><line x1="314.00" y1="390.76" x2="296.00" y2="359.58" stroke="#9bd3ff" stroke-width="4" opacity="0.7"/><line x1="384.00" y1="372.00" x2="384.00" y2="336.00" stroke="#9bd3ff" stroke-width="4" opacity="0.7"/><line x1="454.00" y1="390.76" x2="472.00" y2="359.58" stroke="#9bd3ff" stroke-width="4" opacity="0.7"/><line x1="505.24" y1="442.00" x2="536.42" y2="424.00" stroke="#9bd3ff" stroke-width="4" opacity="0.7"/>
<line x1="384" y1="512" x2="466.00" y2="486.00" stroke="#c7a64a" stroke-width="8" opacity="0.9"/>
<line x1="384" y1="512" x2="342.00" y2="604.00" stroke="#9bd3ff" stroke-width="6" opacity="0.9"/>
  </g>

  <g opacity="0.8">
    <circle cx="609.31" cy="552.74" r="4.66" fill="#9bd3ff" opacity="0.26"/><circle cx="447.68" cy="704.21" r="2.19" fill="#c7a64a" opacity="0.32"/><circle cx="63.85" cy="711.85" r="2.10" fill="#9bd3ff" opacity="0.33"/><circle cx="311.09" cy="205.59" r="4.33" fill="#c7a64a" opacity="0.45"/><circle cx="57.35" cy="669.93" r="2.44" fill="#9bd3ff" opacity="0.72"/><circle cx="673.88" cy="580.05" r="1.38" fill="#c7a64a" opacity="0.53"/><circle cx="10.98" cy="144.35" r="3.24" fill="#9bd3ff" opacity="0.37"/><circle cx="445.53" cy="858.60" r="4.09" fill="#c7a64a" opacity="0.49"/><circle cx="370.18" cy="565.40" r="1.40" fill="#9bd3ff" opacity="0.52"/><circle cx="51.67" cy="3.40" r="4.67" fill="#c7a64a" opacity="0.65"/><circle cx="351.76" cy="518.38" r="3.12" fill="#9bd3ff" opacity="0.52"/><circle cx="118.76" cy="581.85" r="3.64" fill="#c7a64a" opacity="0.61"/><circle cx="492.23" cy="403.51" r="1.37" fill="#9bd3ff" opacity="0.32"/><circle cx="610.54" cy="667.76" r="4.05" fill="#c7a64a" opacity="0.26"/><circle cx="684.99" cy="514.09" r="1.50" fill="#9bd3ff" opacity="0.64"/><circle cx="370.96" cy="806.66" r="1.88" fill="#c7a64a" opacity="0.41"/><circle cx="87.92" cy="109.80" r="1.27" fill="#9bd3ff" opacity="0.72"/><circle cx="298.32" cy="643.77" r="2.46" fill="#c7a64a" opacity="0.27"/><circle cx="463.82" cy="507.34" r="2.33" fill="#9bd3ff" opacity="0.42"/><circle cx="748.31" cy="548.45" r="2.91" fill="#c7a64a" opacity="0.26"/><circle cx="350.99" cy="32.78" r="1.98" fill="#9bd3ff" opacity="0.28"/><circle cx="599.69" cy="658.56" r="3.75" fill="#c7a64a" opacity="0.68"/><circle cx="155.58" cy="3.59" r="4.66" fill="#9bd3ff" opacity="0.61"/><circle cx="290.72" cy="1017.74" r="2.85" fill="#c7a64a" opacity="0.72"/><circle cx="41.64" cy="231.78" r="4.32" fill="#9bd3ff" opacity="0.63"/><circle cx="60.66" cy="781.67" r="1.44" fill="#c7a64a" opacity="0.25"/><circle cx="426.03" cy="786.70" r="4.15" fill="#9bd3ff" opacity="0.69"/><circle cx="505.37" cy="226.15" r="3.23" fill="#c7a64a" opacity="0.46"/>
  </g>

  <rect x="16" y="16" width="736" height="992" rx="24" stroke="url(#edge-chronomancer-c16)" stroke-width="2.5" opacity="0.85"/>
  <rect x="22" y="22" width="724" height="980" rx="20" stroke="#8aa0c4" stroke-width="2" opacity="0.74"/>

  <rect x="34" y="34" width="700" height="72" rx="14" fill="#070b14" fill-opacity="0.72" stroke="#8aa0c4" stroke-opacity="0.55"/>
  <text x="54" y="80" fill="#EAF4FF" font-family="Exo 2, Segoe UI, sans-serif" font-size="32" font-weight="700">Chronomancer</text>

  <rect x="34" y="872" width="700" height="92" rx="14" fill="#070b14" fill-opacity="0.74" stroke="#8aa0c4" stroke-opacity="0.6"/>
  <text x="54" y="924" fill="#D9E7FF" font-family="Exo 2, Segoe UI, sans-serif" font-size="30" font-weight="600">Companion Keeper</text>

  <rect x="598" y="36" width="118" height="42" rx="10" fill="#8aa0c4" fill-opacity="0.2" stroke="#8aa0c4" stroke-opacity="0.8"/>
  <text x="612" y="65" fill="#8aa0c4" font-family="Exo 2, Segoe UI, sans-serif" font-size="20" font-weight="700">COMMON</text>

  <circle cx="708" cy="954" r="26" fill="#080d18" stroke="#8aa0c4" stroke-opacity="0.8"/>
  <text x="696" y="962" fill="#E7F2FF" font-family="Exo 2, Segoe UI, sans-serif" font-size="24" font-weight="700">16</text>
</svg>