<?xml version="1.0" encoding="UTF-8"?>
<svg width="768" height="1024" viewBox="0 0 768 1024" fill="none" xmlns="http://www.w3.org/2000/svg">
  <defs>
    <linearGradient id="bg-chronomancer-c11" x1="60" y1="40" x2="728" y2="1004" gradientUnits="userSpaceOnUse">
      <stop offset="0" stop-color="#101425"/>
      <stop offset="0.55" stop-color="#2a4478"/>
      <stop offset="1" stop-color="#101425"/>
    </linearGradient>
    <radialGradient id="glow-chronomancer-c11" cx="0" cy="0" r="1" gradientUnits="userSpaceOnUse" gradientTransform="translate(213.27 715.87) rotate(90) scale(230.37 230.37)">
      <stop stop-color="#c7a64a" stop-opacity="0.45"/>
      <stop offset="1" stop-color="#c7a64a" stop-opacity="0"/>
    </radialGradient>
    <linearGradient id="edge-chronomancer-c11" x1="0" y1="0" x2="768" y2="1024" gradientUnits="userSpaceOnUse">
      <stop stop-color="#c7a64a" stop-opacity="0.85"/>
      <stop offset="1" stop-color="#9bd3ff" stop-opacity="0.85"/>
    </linearGradient>
  </defs>

  <rect x="0" y="0" width="768" height="1024" rx="32" fill="#060910"/>
  <rect x="16" y="16" width="736" height="992" rx="24" fill="url(#bg-chronomancer-c11)"/>
  <rect x="16" y="16" width="736" height="992" rx="24" fill="url(#glow-chronomancer-c11)"/>

  <g opacity="0.88">
    <circle cx="384" cy="512" r="184" fill="none" stroke="#c7a64a" stroke-width="8" opacity="0.72"/>
<circle cx="384" cy="512" r="132" fill="none" stroke="#9bd3ff" stroke-width="4" opacity="0.76"/>
<line x1="524.00" y1="512.00" x2="560.00" y2="512.00" stroke="#9bd3ff" stroke-width="4" opacity="0.7"/><line x1="505.24" y1="582.00" x2="536.42" y2="600.00" stroke="#9bd3ff" stroke-width="4" opacity="0.7"/><line x1="454.00" y1="633.24" x2="472.00" y2="664.42" stroke="#9bd3ff" stroke-width="4" opacity="0.7"/><line x1="384.00" y1="652.00" x2="384.00" y2="688.00" stroke="#9bd3ff" stroke-width="4" opacity="0.7"/><line x1="314.00" y1="633.24" x2="296.00" y2="664.42" stroke="#9bd3ff" stroke-width="4" opacity="0.7"/><line x1="262.76" y1="582.00" x2="231.58" y2="600.00" stroke="#9bd3ff" stroke-width="4" opacity="0.7"/><line x1="244.00" y1="512.00" x2="208.00" y2="512.00" stroke="#9bd3ff" stroke-width="4" opacity="0.7"/><line x1="262.76" y1="442.00" x2="231.58" y2="424.00" stroke="#9bd3ff" stroke-width="4" opacity="0.7"/><line x1="314.00" y1="390.76" x2="296.00" y2="359.58" stroke="#9bd3ff" stroke-width="4" opacity="0.7"/><line x1="384.00" y1="372.00" x2="384.00" y2="336.00" stroke="#9bd3ff" stroke-width="4" opacity="0.7"/><line x1="454.00" y1="390.76" x2="472.00" y2="359.58" stroke="#9bd3ff" stroke-width="4" opacity="0.7"/><line x1="505.24" y1="442.00" x2="536.42" y2="424.00" stroke="#9bd3ff" stroke-width="4" opacity="0.7"/>
<line x1="384" y1="512" x2="466.00" y2="486.00" stroke="#c7a64a" stroke-width="8" opacity="0.9"/>
<line x1="384" y1="512" x2="342.00" y2="604.00" stroke="#9bd3ff" stroke-width="6" opacity="0.9"/>
  </g>

  <g opacity="0.8">
    <circle cx="80.57" cy="987.30" r="1.70" fill="#9bd3ff" opacity="0.34"/><circle cx="530.33" cy="492.34" r="1.79" fill="#c7a64a" opacity="0.38"/><circle cx="242.33" cy="1017.08" r="4.24" fill="#9bd3ff" opacity="0.40"/><circle cx="304.65" cy="562.32" r="4.21" fill="#c7a64a" opacity="0.73"/><circle cx="525.61" cy="1018.70" r="2.78" fill="#9bd3ff" opacity="0.29"/><circle cx="157.17" cy="712.21" r="2.06" fill="#c7a64a" opacity="0.45"/><circle cx="94.15" cy="787.04" r="4.75" fill="#9bd3ff" opacity="0.69"/><circle cx="351.70" cy="188.73" r="3.46" fill="#c7a64a" opacity="0.55"/><circle cx="135.70" cy="99.91" r="3.38" fill="#9bd3ff" opacity="0.41"/><circle cx="672.09" cy="103.14" r="4.22" fill="#c7a64a" opacity="0.36"/><circle cx="611.14" cy="66.12" r="3.73" fill="#9bd3ff" opacity="0.47"/><circle cx="717.43" cy="985.04" r="4.55" fill="#c7a64a" opacity="0.58"/><circle cx="239.52" cy="931.52" r="3.87" fill="#9bd3ff" opacity="0.58"/><circle cx="439.29" cy="559.90" r="2.31" fill="#c7a64a" opacity="0.70"/><circle cx="241.15" cy="278.15" r="1.67" fill="#9bd3ff" opacity="0.29"/><circle cx="325.37" cy="244.87" r="4.33" fill="#c7a64a" opacity="0.44"/><circle cx="170.34" cy="515.60" r="2.22" fill="#9bd3ff" opacity="0.45"/><circle cx="592.24" cy="938.18" r="3.13" fill="#c7a64a" opacity="0.54"/><circle cx="426.72" cy="637.65" r="3.86" fill="#9bd3ff" opacity="0.72"/><circle cx="549.50" cy="519.13" r="4.81" fill="#c7a64a" opacity="0.26"/><circle cx="112.56" cy="352.61" r="4.09" fill="#9bd3ff" opacity="0.36"/><circle cx="244.59" cy="203.95" r="3.07" fill="#c7a64a" opacity="0.27"/><circle cx="710.81" cy="467.14" r="4.85" fill="#9bd3ff" opacity="0.24"/><circle cx="459.78" cy="326.67" r="2.18" fill="#c7a64a" opacity="0.54"/><circle cx="537.35" cy="183.28" r="4.29" fill="#9bd3ff" opacity="0.55"/><circle cx="395.72" cy="202.22" r="3.26" fill="#c7a64a" opacity="0.33"/><circle cx="552.09" cy="838.20" r="2.65" fill="#9bd3ff" opacity="0.43"/><circle cx="326.72" cy="398.79" r="4.35" fill="#c7a64a" opacity="0.64"/>
  </g>

  <rect x="16" y="16" width="736" height="992" rx="24" stroke="url(#edge-chronomancer-c11)" stroke-width="2.5" opacity="0.85"/>
  <rect x="22" y="22" width="724" height="980" rx="20" stroke="#8aa0c4" stroke-width="2" opacity="0.74"/>

  <rect x="34" y="34" width="700" height="72" rx="14" fill="#070b14" fill-opacity="0.72" stroke="#8aa0c4" stroke-opacity="0.55"/>
  <text x="54" y="80" fill="#EAF4FF" font-family="Exo 2, Segoe UI, sans-serif" font-size="32" font-weight="700">Chronomancer</text>

  <rect x="34" y="872" width="700" height="92" rx="14" fill="#070b14" fill-opacity="0.74" stroke="#8aa0c4" stroke-opacity="0.6"/>
  <text x="54" y="924" fill="#D9E7FF" font-family="Exo 2, Segoe UI, sans-serif" font-size="30" font-weight="600">Captain</text>

  <rect x="598" y="36" width="118" height="42" rx="10" fill="#8aa0c4" fill-opacity="0.2" stroke="#8aa0c4" stroke-opacity="0.8"/>
  <text x="612" y="65" fill="#8aa0c4" font-family="Exo 2, Segoe UI, sans-serif" font-size="20" font-weight="700">COMMON</text>

  <circle cx="708" cy="954" r="26" fill="#080d18" stroke="#8aa0c4" stroke-opacity="0.8"/>
  <text x="696" y="962" fill="#E7F2FF" font-family="Exo 2, Segoe UI, sans-serif" font-size="24" font-weight="700">11</text>
</svg>