<?xml version="1.0" encoding="UTF-8"?>
<svg width="768" height="1024" viewBox="0 0 768 1024" fill="none" xmlns="http://www.w3.org/2000/svg">
  <defs>
    <linearGradient id="bg-chronomancer-c31" x1="60" y1="40" x2="728" y2="1004" gradientUnits="userSpaceOnUse">
      <stop offset="0" stop-color="#101425"/>
      <stop offset="0.55" stop-color="#2a4478"/>
      <stop offset="1" stop-color="#101425"/>
    </linearGradient>
    <radialGradient id="glow-chronomancer-c31" cx="0" cy="0" r="1" gradientUnits="userSpaceOnUse" gradientTransform="translate(620.77 714.32) rotate(90) scale(201.73 201.73)">
      <stop stop-color="#c7a64a" stop-opacity="0.45"/>
      <stop offset="1" stop-color="#c7a64a" stop-opacity="0"/>
    </radialGradient>
    <linearGradient id="edge-chronomancer-c31" x1="0" y1="0" x2="768" y2="1024" gradientUnits="userSpaceOnUse">
      <stop stop-color="#c7a64a" stop-opacity="0.85"/>
      <stop offset="1" stop-color="#9bd3ff" stop-opacity="0.85"/>
    </linearGradient>
  </defs>

  <rect x="0" y="0" width="768" height="1024" rx="32" fill="#060910"/>
  <rect x="16" y="16" width="736" height="992" rx="24" fill="url(#bg-chronomancer-c31)"/>
  <rect x="16" y="16" width="736" height="992" rx="24" fill="url(#glow-chronomancer-c31)"/>

  <g opacity="0.88">
    <circle cx="384" cy="512" r="184" fill="none" stroke="#c7a64a" stroke-width="8" opacity="0.72"/>
<circle cx="384" cy="512" r="132" fill="none" stroke="#9bd3ff" stroke-width="4" opacity="0.76"/>
<line x1="524.00" y1="512.00" x2="560.00" y2="512.00" stroke="#9bd3ff" stroke-width="4" opacity="0.7"/><line x1="505.24" y1="582.00" x2="536.42" y2="600.00" stroke="#9bd3ff" stroke-width="4" opacity="0.7"/><line x1="454.00" y1="633.24" x2="472.00" y2="664.42" stroke="#9bd3ff" stroke-width="4" opacity="0.7"/><line x1="384.00" y1="652.00" x2="384.00" y2="688.00" stroke="#9bd3ff" stroke-width="4" opacity="0.7"/><line x1="314.00" y1="633.24" x2="296.00" y2="664.42" stroke="#9bd3ff" stroke-width="4" opacity="0.7"/><line x1="262.76" y1="582.00" x2="231.58" y2="600.00" stroke="#9bd3ff" stroke-width="4" opacity="0.7"/><line x1="244.00" y1="512.00" x2="208.00" y2="512.00" stroke="#9bd3ff" stroke-width="4" opacity="0.7"/><line x1="262.76" y1="442.00" x2="231.58" y2="424.00" stroke="#9bd3ff" stroke-width="4" opacity="0.7"/><line x1="314.00" y1="390.76" x2="296.00" y2="359.58" stroke="#9bd3ff" stroke-width="4" opacity="0.7"/><line x1="384.00" y1="372.00" x2="384.00" y2="336.00" stroke="#9bd3ff" stroke-width="4" opacity="0.7"/><line x1="454.00" y1="390.76" x2="472.00" y2="359.58" stroke="#9bd3ff" stroke-width="4" opacity="0.7"/><line x1="505.24" y1="442.00" x2="536.42" y2="424.00" stroke="#9bd3ff" stroke-width="4" opacity="0.7"/>
<line x1="384" y1="512" x2="466.00" y2="486.00" stroke="#c7a64a" stroke-width="8" opacity="0.9"/>
<line x1="384" y1="512" x2="342.00" y2="604.00" stroke="#9bd3ff" stroke-width="6" opacity="0.9"/>
  </g>

  <g opacity="0.8">
    <circle cx="734.11" cy="717.40" r="4.31" fill="#9bd3ff" opacity="0.67"/><circle cx="568.40" cy="706.17" r="1.49" fill="#c7a64a" opacity="0.39"/><circle cx="703.70" cy="814.97" r="1.98" fill="#9bd3ff" opacity="0.26"/><circle cx="563.08" cy="37.38" r="2.12" fill="#c7a64a" opacity="0.55"/><circle cx="590.51" cy="770.20" r="3.68" fill="#9bd3ff" opacity="0.32"/><circle cx="474.85" cy="749.36" r="1.94" fill="#c7a64a" opacity="0.53"/><circle cx="446.17" cy="893.79" r="1.31" fill="#9bd3ff" opacity="0.42"/><circle cx="506.26" cy="518.83" r="3.27" fill="#c7a64a" opacity="0.66"/><circle cx="225.47" cy="930.51" r="1.99" fill="#9bd3ff" opacity="0.46"/><circle cx="636.01" cy="645.24" r="3.46" fill="#c7a64a" opacity="0.46"/><circle cx="240.55" cy="22.86" r="4.51" fill="#9bd3ff" opacity="0.72"/><circle cx="284.63" cy="83.77" r="5.00" fill="#c7a64a" opacity="0.49"/><circle cx="456.44" cy="539.38" r="1.39" fill="#9bd3ff" opacity="0.72"/><circle cx="437.16" cy="783.54" r="4.29" fill="#c7a64a" opacity="0.72"/><circle cx="129.03" cy="947.40" r="4.67" fill="#9bd3ff" opacity="0.50"/><circle cx="407.23" cy="523.07" r="3.07" fill="#c7a64a" opacity="0.35"/><circle cx="17.37" cy="1003.54" r="2.36" fill="#9bd3ff" opacity="0.70"/><circle cx="77.69" cy="187.55" r="3.37" fill="#c7a64a" opacity="0.50"/><circle cx="142.53" cy="659.31" r="3.76" fill="#9bd3ff" opacity="0.50"/><circle cx="402.12" cy="990.34" r="4.37" fill="#c7a64a" opacity="0.39"/><circle cx="311.40" cy="567.68" r="1.39" fill="#9bd3ff" opacity="0.45"/><circle cx="38.73" cy="300.03" r="4.17" fill="#c7a64a" opacity="0.38"/><circle cx="414.18" cy="146.60" r="1.71" fill="#9bd3ff" opacity="0.55"/><circle cx="472.37" cy="851.40" r="3.14" fill="#c7a64a" opacity="0.32"/><circle cx="224.43" cy="740.22" r="1.47" fill="#9bd3ff" opacity="0.45"/><circle cx="511.62" cy="614.72" r="3.90" fill="#c7a64a" opacity="0.70"/><circle cx="534.81" cy="694.07" r="4.90" fill="#9bd3ff" opacity="0.61"/><circle cx="24.21" cy="323.02" r="3.52" fill="#c7a64a" opacity="0.54"/>
  </g>

  <rect x="16" y="16" width="736" height="992" rx="24" stroke="url(#edge-chronomancer-c31)" stroke-width="2.5" opacity="0.85"/>
  <rect x="22" y="22" width="724" height="980" rx="20" stroke="#78d8ff" stroke-width="2" opacity="0.74"/>

  <rect x="34" y="34" width="700" height="72" rx="14" fill="#070b14" fill-opacity="0.72" stroke="#78d8ff" stroke-opacity="0.55"/>
  <text x="54" y="80" fill="#EAF4FF" font-family="Exo 2, Segoe UI, sans-serif" font-size="32" font-weight="700">Chronomancer</text>

  <rect x="34" y="872" width="700" height="92" rx="14" fill="#070b14" fill-opacity="0.74" stroke="#78d8ff" stroke-opacity="0.6"/>
  <text x="54" y="924" fill="#D9E7FF" font-family="Exo 2, Segoe UI, sans-serif" font-size="30" font-weight="600">Twin Vanguard</text>

  <rect x="598" y="36" width="118" height="42" rx="10" fill="#78d8ff" fill-opacity="0.2" stroke="#78d8ff" stroke-opacity="0.8"/>
  <text x="612" y="65" fill="#78d8ff" font-family="Exo 2, Segoe UI, sans-serif" font-size="20" font-weight="700">RARE</text>

  <circle cx="708" cy="954" r="26" fill="#080d18" stroke="#78d8ff" stroke-opacity="0.8"/>
  <text x="696" y="962" fill="#E7F2FF" font-family="Exo 2, Segoe UI, sans-serif" font-size="24" font-weight="700">31</text>
</svg>