<?xml version="1.0" encoding="UTF-8"?>
<svg width="768" height="1024" viewBox="0 0 768 1024" fill="none" xmlns="http://www.w3.org/2000/svg">
  <defs>
    <linearGradient id="bg-chronomancer-c34" x1="60" y1="40" x2="728" y2="1004" gradientUnits="userSpaceOnUse">
      <stop offset="0" stop-color="#101425"/>
      <stop offset="0.55" stop-color="#2a4478"/>
      <stop offset="1" stop-color="#101425"/>
    </linearGradient>
    <radialGradient id="glow-chronomancer-c34" cx="0" cy="0" r="1" gradientUnits="userSpaceOnUse" gradientTransform="translate(527.79 149.71) rotate(90) scale(236.14 236.14)">
      <stop stop-color="#c7a64a" stop-opacity="0.45"/>
      <stop offset="1" stop-color="#c7a64a" stop-opacity="0"/>
    </radialGradient>
    <linearGradient id="edge-chronomancer-c34" x1="0" y1="0" x2="768" y2="1024" gradientUnits="userSpaceOnUse">
      <stop stop-color="#c7a64a" stop-opacity="0.85"/>
      <stop offset="1" stop-color="#9bd3ff" stop-opacity="0.85"/>
    </linearGradient>
  </defs>

  <rect x="0" y="0" width="768" height="1024" rx="32" fill="#060910"/>
  <rect x="16" y="16" width="736" height="992" rx="24" fill="url(#bg-chronomancer-c34)"/>
  <rect x="16" y="16" width="736" height="992" rx="24" fill="url(#glow-chronomancer-c34)"/>

  <g opacity="0.88">
    <circle cx="384" cy="512" r="184" fill="none" stroke="#c7a64a" stroke-width="8" opacity="0.72"/>
<circle cx="384" cy="512" r="132" fill="none" stroke="#9bd3ff" stroke-width="4" opacity="0.76"/>
<line x1="524.00" y1="512.00" x2="560.00" y2="512.00" stroke="#9bd3ff" stroke-width="4" opacity="0.7"/><line x1="505.24" y1="582.00" x2="536.42" y2="600.00" stroke="#9bd3ff" stroke-width="4" opacity="0.7"/><line x1="454.00" y1="633.24" x2="472.00" y2="664.42" stroke="#9bd3ff" stroke-width="4" opacity="0.7"/><line x1="384.00" y1="652.00" x2="384.00" y2="688.00" stroke="#9bd3ff" stroke-width="4" opacity="0.7"/><line x1="314.00" y1="633.24" x2="296.00" y2="664.42" stroke="#9bd3ff" stroke-width="4" opacity="0.7"/><line x1="262.76" y1="582.00" x2="231.58" y2="600.00" stroke="#9bd3ff" stroke-width="4" opacity="0.7"/><line x1="244.00" y1="512.00" x2="208.00" y2="512.00" stroke="#9bd3ff" stroke-width="4" opacity="0.7"/><line x1="262.76" y1="442.00" x2="231.58" y2="424.00" stroke="#9bd3ff" stroke-width="4" opacity="0.7"/><line x1="314.00" y1="390.76" x2="296.00" y2="359.58" stroke="#9bd3ff" stroke-width="4" opacity="0.7"/><line x1="384.00" y1="372.00" x2="384.00" y2="336.00" stroke="#9bd3ff" stroke-width="4" opacity="0.7"/><line x1="454.00" y1="390.76" x2="472.00" y2="359.58" stroke="#9bd3ff" stroke-width="4" opacity="0.7"/><line x1="505.24" y1="442.00" x2="536.42" y2="424.00" stroke="#9bd3ff" stroke-width="4" opacity="0.7"/>
<line x1="384" y1="512" x2="466.00" y2="486.00" stroke="#c7a64a" stroke-width="8" opacity="0.9"/>
<line x1="384" y1="512" x2="342.00" y2="604.00" stroke="#9bd3ff" stroke-width="6" opacity="0.9"/>
  </g>

  <g opacity="0.8">
    <circle cx="556.72" cy="811.11" r="4.69" fill="#9bd3ff" opacity="0.61"/><circle cx="266.87" cy="558.37" r="2.64" fill="#c7a64a" opacity="0.32"/><circle cx="27.84" cy="578.55" r="1.75" fill="#9bd3ff" opacity="0.54"/><circle cx="497.69" cy="350.72" r="2.13" fill="#c7a64a" opacity="0.34"/><circle cx="91.51" cy="1011.91" r="3.56" fill="#9bd3ff" opacity="0.52"/><circle cx="639.94" cy="373.53" r="1.75" fill="#c7a64a" opacity="0.30"/><circle cx="141.35" cy="891.75" r="4.59" fill="#9bd3ff" opacity="0.72"/><circle cx="151.51" cy="70.80" r="4.52" fill="#c7a64a" opacity="0.51"/><circle cx="414.34" cy="53.65" r="2.33" fill="#9bd3ff" opacity="0.73"/><circle cx="652.44" cy="943.30" r="1.59" fill="#c7a64a" opacity="0.50"/><circle cx="298.39" cy="398.70" r="1.66" fill="#9bd3ff" opacity="0.57"/><circle cx="451.40" cy="648.22" r="4.32" fill="#c7a64a" opacity="0.67"/><circle cx="12.48" cy="101.52" r="3.00" fill="#9bd3ff" opacity="0.54"/><circle cx="576.94" cy="588.11" r="2.94" fill="#c7a64a" opacity="0.27"/><circle cx="691.82" cy="706.54" r="1.39" fill="#9bd3ff" opacity="0.37"/><circle cx="268.26" cy="175.75" r="3.37" fill="#c7a64a" opacity="0.41"/><circle cx="122.79" cy="437.58" r="4.77" fill="#9bd3ff" opacity="0.50"/><circle cx="484.67" cy="179.51" r="4.53" fill="#c7a64a" opacity="0.54"/><circle cx="691.26" cy="386.32" r="2.28" fill="#9bd3ff" opacity="0.43"/><circle cx="255.67" cy="421.34" r="1.81" fill="#c7a64a" opacity="0.41"/><circle cx="425.68" cy="725.98" r="4.12" fill="#9bd3ff" opacity="0.46"/><circle cx="743.58" cy="202.13" r="2.97" fill="#c7a64a" opacity="0.27"/><circle cx="355.29" cy="368.59" r="3.43" fill="#9bd3ff" opacity="0.46"/><circle cx="104.83" cy="802.77" r="4.57" fill="#c7a64a" opacity="0.40"/><circle cx="98.92" cy="884.29" r="3.37" fill="#9bd3ff" opacity="0.32"/><circle cx="529.93" cy="998.70" r="5.00" fill="#c7a64a" opacity="0.28"/><circle cx="119.60" cy="428.91" r="2.14" fill="#9bd3ff" opacity="0.42"/><circle cx="315.38" cy="3.10" r="3.09" fill="#c7a64a" opacity="0.34"/>
  </g>

  <rect x="16" y="16" width="736" height="992" rx="24" stroke="url(#edge-chronomancer-c34)" stroke-width="2.5" opacity="0.85"/>
  <rect x="22" y="22" width="724" height="980" rx="20" stroke="#78d8ff" stroke-width="2" opacity="0.74"/>

  <rect x="34" y="34" width="700" height="72" rx="14" fill="#070b14" fill-opacity="0.72" stroke="#78d8ff" stroke-opacity="0.55"/>
  <text x="54" y="80" fill="#EAF4FF" font-family="Exo 2, Segoe UI, sans-serif" font-size="32" font-weight="700">Chronomancer</text>

  <rect x="34" y="872" width="700" height="92" rx="14" fill="#070b14" fill-opacity="0.74" stroke="#78d8ff" stroke-opacity="0.6"/>
  <text x="54" y="924" fill="#D9E7FF" font-family="Exo 2, Segoe UI, sans-serif" font-size="30" font-weight="600">Arc Ping</text>

  <rect x="598" y="36" width="118" height="42" rx="10" fill="#78d8ff" fill-opacity="0.2" stroke="#78d8ff" stroke-opacity="0.8"/>
  <text x="612" y="65" fill="#78d8ff" font-family="Exo 2, Segoe UI, sans-serif" font-size="20" font-weight="700">RARE</text>

  <circle cx="708" cy="954" r="26" fill="#080d18" stroke="#78d8ff" stroke-opacity="0.8"/>
  <text x="696" y="962" fill="#E7F2FF" font-family="Exo 2, Segoe UI, sans-serif" font-size="24" font-weight="700">34</text>
</svg>