<?xml version="1.0" encoding="UTF-8"?>
<svg width="768" height="1024" viewBox="0 0 768 1024" fill="none" xmlns="http://www.w3.org/2000/svg">
  <defs>
    <linearGradient id="bg-chronomancer-c32" x1="60" y1="40" x2="728" y2="1004" gradientUnits="userSpaceOnUse">
      <stop offset="0" stop-color="#101425"/>
      <stop offset="0.55" stop-color="#2a4478"/>
      <stop offset="1" stop-color="#101425"/>
    </linearGradient>
    <radialGradient id="glow-chronomancer-c32" cx="0" cy="0" r="1" gradientUnits="userSpaceOnUse" gradientTransform="translate(240.64 130.91) rotate(90) scale(181.40 181.40)">
      <stop stop-color="#c7a64a" stop-opacity="0.45"/>
      <stop offset="1" stop-color="#c7a64a" stop-opacity="0"/>
    </radialGradient>
    <linearGradient id="edge-chronomancer-c32" x1="0" y1="0" x2="768" y2="1024" gradientUnits="userSpaceOnUse">
      <stop stop-color="#c7a64a" stop-opacity="0.85"/>
      <stop offset="1" stop-color="#9bd3ff" stop-opacity="0.85"/>
    </linearGradient>
  </defs>

  <rect x="0" y="0" width="768" height="1024" rx="32" fill="#060910"/>
  <rect x="16" y="16" width="736" height="992" rx="24" fill="url(#bg-chronomancer-c32)"/>
  <rect x="16" y="16" width="736" height="992" rx="24" fill="url(#glow-chronomancer-c32)"/>

  <g opacity="0.88">
    <circle cx="384" cy="512" r="184" fill="none" stroke="#c7a64a" stroke-width="8" opacity="0.72"/>
<circle cx="384" cy="512" r="132" fill="none" stroke="#9bd3ff" stroke-width="4" opacity="0.76"/>
<line x1="524.00" y1="512.00" x2="560.00" y2="512.00" stroke="#9bd3ff" stroke-width="4" opacity="0.7"/><line x1="505.24" y1="582.00" x2="536.42" y2="600.00" stroke="#9bd3ff" stroke-width="4" opacity="0.7"/><line x1="454.00" y1="633.24" x2="472.00" y2="664.42" stroke="#9bd3ff" stroke-width="4" opacity="0.7"/><line x1="384.00" y1="652.00" x2="384.00" y2="688.00" stroke="#9bd3ff" stroke-width="4" opacity="0.7"/><line x1="314.00" y1="633.24" x2="296.00" y2="664.42" stroke="#9bd3ff" stroke-width="4" opacity="0.7"/><line x1="262.76" y1="582.00" x2="231.58" y2="600.00" stroke="#9bd3ff" stroke-width="4" opacity="0.7"/><line x1="244.00" y1="512.00" x2="208.00" y2="512.00" stroke="#9bd3ff" stroke-width="4" opacity="0.7"/><line x1="262.76" y1="442.00" x2="231.58" y2="424.00" stroke="#9bd3ff" stroke-width="4" opacity="0.7"/><line x1="314.00" y1="390.76" x2="296.00" y2="359.58" stroke="#9bd3ff" stroke-width="4" opacity="0.7"/><line x1="384.00" y1="372.00" x2="384.00" y2="336.00" stroke="#9bd3ff" stroke-width="4" opacity="0.7"/><line x1="454.00" y1="390.76" x2="472.00" y2="359.58" stroke="#9bd3ff" stroke-width="4" opacity="0.7"/><line x1="505.24" y1="442.00" x2="536.42" y2="424.00" stroke="#9bd3ff" stroke-width="4" opacity="0.7"/>
<line x1="384" y1="512" x2="466.00" y2="486.00" stroke="#c7a64a" stroke-width="8" opacity="0.9"/>
<line x1="384" y1="512" x2="342.00" y2="604.00" stroke="#9bd3ff" stroke-width="6" opacity="0.9"/>
  </g>

  <g opacity="0.8">
    <circle cx="448.01" cy="569.31" r="1.33" fill="#9bd3ff" opacity="0.63"/><circle cx="436.07" cy="448.85" r="4.30" fill="#c7a64a" opacity="0.52"/><circle cx="414.64" cy="114.47" r="2.63" fill="#9bd3ff" opacity="0.29"/><circle cx="200.13" cy="698.34" r="4.75" fill="#c7a64a" opacity="0.28"/><circle cx="643.91" cy="587.21" r="3.33" fill="#9bd3ff" opacity="0.51"/><circle cx="366.12" cy="824.77" r="4.46" fill="#c7a64a" opacity="0.58"/><circle cx="567.30" cy="73.17" r="2.35" fill="#9bd3ff" opacity="0.44"/><circle cx="389.48" cy="897.16" r="1.37" fill="#c7a64a" opacity="0.40"/><circle cx="672.17" cy="904.39" r="2.92" fill="#9bd3ff" opacity="0.43"/><circle cx="637.00" cy="730.30" r="1.45" fill="#c7a64a" opacity="0.32"/><circle cx="294.85" cy="210.63" r="2.80" fill="#9bd3ff" opacity="0.25"/><circle cx="115.86" cy="339.40" r="2.79" fill="#c7a64a" opacity="0.33"/><circle cx="330.85" cy="833.45" r="1.85" fill="#9bd3ff" opacity="0.30"/><circle cx="208.61" cy="837.57" r="1.21" fill="#c7a64a" opacity="0.30"/><circle cx="356.41" cy="816.12" r="4.54" fill="#9bd3ff" opacity="0.52"/><circle cx="760.91" cy="764.43" r="4.65" fill="#c7a64a" opacity="0.60"/><circle cx="692.85" cy="801.19" r="4.02" fill="#9bd3ff" opacity="0.45"/><circle cx="674.10" cy="832.20" r="1.54" fill="#c7a64a" opacity="0.72"/><circle cx="691.33" cy="528.91" r="4.04" fill="#9bd3ff" opacity="0.30"/><circle cx="150.60" cy="738.30" r="4.56" fill="#c7a64a" opacity="0.36"/><circle cx="276.00" cy="729.75" r="3.36" fill="#9bd3ff" opacity="0.72"/><circle cx="93.78" cy="946.67" r="2.30" fill="#c7a64a" opacity="0.67"/><circle cx="473.52" cy="746.68" r="4.16" fill="#9bd3ff" opacity="0.45"/><circle cx="746.10" cy="794.55" r="4.20" fill="#c7a64a" opacity="0.71"/><circle cx="42.79" cy="360.11" r="2.17" fill="#9bd3ff" opacity="0.68"/><circle cx="140.04" cy="803.25" r="1.90" fill="#c7a64a" opacity="0.25"/><circle cx="139.47" cy="698.47" r="1.65" fill="#9bd3ff" opacity="0.63"/><circle cx="445.15" cy="411.68" r="2.06" fill="#c7a64a" opacity="0.56"/>
  </g>

  <rect x="16" y="16" width="736" height="992" rx="24" stroke="url(#edge-chronomancer-c32)" stroke-width="2.5" opacity="0.85"/>
  <rect x="22" y="22" width="724" height="980" rx="20" stroke="#78d8ff" stroke-width="2" opacity="0.74"/>

  <rect x="34" y="34" width="700" height="72" rx="14" fill="#070b14" fill-opacity="0.72" stroke="#78d8ff" stroke-opacity="0.55"/>
  <text x="54" y="80" fill="#EAF4FF" font-family="Exo 2, Segoe UI, sans-serif" font-size="32" font-weight="700">Chronomancer</text>

  <rect x="34" y="872" width="700" height="92" rx="14" fill="#070b14" fill-opacity="0.74" stroke="#78d8ff" stroke-opacity="0.6"/>
  <text x="54" y="924" fill="#D9E7FF" font-family="Exo 2, Segoe UI, sans-serif" font-size="30" font-weight="600">Lieutenant Prime</text>

  <rect x="598" y="36" width="118" height="42" rx="10" fill="#78d8ff" fill-opacity="0.2" stroke="#78d8ff" stroke-opacity="0.8"/>
  <text x="612" y="65" fill="#78d8ff" font-family="Exo 2, Segoe UI, sans-serif" font-size="20" font-weight="700">RARE</text>

  <circle cx="708" cy="954" r="26" fill="#080d18" stroke="#78d8ff" stroke-opacity="0.8"/>
  <text x="696" y="962" fill="#E7F2FF" font-family="Exo 2, Segoe UI, sans-serif" font-size="24" font-weight="700">32</text>
</svg>