<?xml version="1.0" encoding="UTF-8"?>
<svg width="768" height="1024" viewBox="0 0 768 1024" fill="none" xmlns="http://www.w3.org/2000/svg">
  <defs>
    <linearGradient id="bg-chronomancer-c39" x1="60" y1="40" x2="728" y2="1004" gradientUnits="userSpaceOnUse">
      <stop offset="0" stop-color="#101425"/>
      <stop offset="0.55" stop-color="#2a4478"/>
      <stop offset="1" stop-color="#101425"/>
    </linearGradient>
    <radialGradient id="glow-chronomancer-c39" cx="0" cy="0" r="1" gradientUnits="userSpaceOnUse" gradientTransform="translate(169.36 642.24) rotate(90) scale(219.23 219.23)">
      <stop stop-color="#c7a64a" stop-opacity="0.45"/>
      <stop offset="1" stop-color="#c7a64a" stop-opacity="0"/>
    </radialGradient>
    <linearGradient id="edge-chronomancer-c39" x1="0" y1="0" x2="768" y2="1024" gradientUnits="userSpaceOnUse">
      <stop stop-color="#c7a64a" stop-opacity="0.85"/>
      <stop offset="1" stop-color="#9bd3ff" stop-opacity="0.85"/>
    </linearGradient>
  </defs>

  <rect x="0" y="0" width="768" height="1024" rx="32" fill="#060910"/>
  <rect x="16" y="16" width="736" height="992" rx="24" fill="url(#bg-chronomancer-c39)"/>
  <rect x="16" y="16" width="736" height="992" rx="24" fill="url(#glow-chronomancer-c39)"/>

  <g opacity="0.88">
    <circle cx="384" cy="512" r="184" fill="none" stroke="#c7a64a" stroke-width="8" opacity="0.72"/>
<circle cx="384" cy="512" r="132" fill="none" stroke="#9bd3ff" stroke-width="4" opacity="0.76"/>
<line x1="524.00" y1="512.00" x2="560.00" y2="512.00" stroke="#9bd3ff" stroke-width="4" opacity="0.7"/><line x1="505.24" y1="582.00" x2="536.42" y2="600.00" stroke="#9bd3ff" stroke-width="4" opacity="0.7"/><line x1="454.00" y1="633.24" x2="472.00" y2="664.42" stroke="#9bd3ff" stroke-width="4" opacity="0.7"/><line x1="384.00" y1="652.00" x2="384.00" y2="688.00" stroke="#9bd3ff" stroke-width="4" opacity="0.7"/><line x1="314.00" y1="633.24" x2="296.00" y2="664.42" stroke="#9bd3ff" stroke-width="4" opacity="0.7"/><line x1="262.76" y1="582.00" x2="231.58" y2="600.00" stroke="#9bd3ff" stroke-width="4" opacity="0.7"/><line x1="244.00" y1="512.00" x2="208.00" y2="512.00" stroke="#9bd3ff" stroke-width="4" opacity="0.7"/><line x1="262.76" y1="442.00" x2="231.58" y2="424.00" stroke="#9bd3ff" stroke-width="4" opacity="0.7"/><line x1="314.00" y1="390.76" x2="296.00" y2="359.58" stroke="#9bd3ff" stroke-width="4" opacity="0.7"/><line x1="384.00" y1="372.00" x2="384.00" y2="336.00" stroke="#9bd3ff" stroke-width="4" opacity="0.7"/><line x1="454.00" y1="390.76" x2="472.00" y2="359.58" stroke="#9bd3ff" stroke-width="4" opacity="0.7"/><line x1="505.24" y1="442.00" x2="536.42" y2="424.00" stroke="#9bd3ff" stroke-width="4" opacity="0.7"/>
<line x1="384" y1="512" x2="466.00" y2="486.00" stroke="#c7a64a" stroke-width="8" opacity="0.9"/>
<line x1="384" y1="512" x2="342.00" y2="604.00" stroke="#9bd3ff" stroke-width="6" opacity="0.9"/>
  </g>

  <g opacity="0.8">
    <circle cx="341.90" cy="218.51" r="2.08" fill="#9bd3ff" opacity="0.28"/><circle cx="15.96" cy="937.81" r="1.78" fill="#c7a64a" opacity="0.43"/><circle cx="291.36" cy="958.52" r="4.29" fill="#9bd3ff" opacity="0.48"/><circle cx="648.61" cy="325.74" r="1.70" fill="#c7a64a" opacity="0.60"/><circle cx="586.95" cy="496.70" r="1.32" fill="#9bd3ff" opacity="0.43"/><circle cx="81.22" cy="219.72" r="1.82" fill="#c7a64a" opacity="0.60"/><circle cx="309.17" cy="395.53" r="4.31" fill="#9bd3ff" opacity="0.43"/><circle cx="496.94" cy="853.36" r="1.55" fill="#c7a64a" opacity="0.51"/><circle cx="259.06" cy="10.52" r="2.46" fill="#9bd3ff" opacity="0.62"/><circle cx="689.92" cy="262.11" r="4.46" fill="#c7a64a" opacity="0.47"/><circle cx="175.68" cy="500.84" r="1.72" fill="#9bd3ff" opacity="0.53"/><circle cx="44.43" cy="579.50" r="2.00" fill="#c7a64a" opacity="0.35"/><circle cx="578.45" cy="230.47" r="2.36" fill="#9bd3ff" opacity="0.48"/><circle cx="353.35" cy="807.59" r="2.94" fill="#c7a64a" opacity="0.74"/><circle cx="761.32" cy="585.90" r="1.62" fill="#9bd3ff" opacity="0.26"/><circle cx="203.80" cy="841.64" r="4.01" fill="#c7a64a" opacity="0.63"/><circle cx="533.21" cy="770.82" r="4.52" fill="#9bd3ff" opacity="0.38"/><circle cx="260.24" cy="403.16" r="3.77" fill="#c7a64a" opacity="0.47"/><circle cx="519.95" cy="641.95" r="3.74" fill="#9bd3ff" opacity="0.25"/><circle cx="189.54" cy="351.52" r="1.24" fill="#c7a64a" opacity="0.61"/><circle cx="30.18" cy="714.60" r="3.33" fill="#9bd3ff" opacity="0.60"/><circle cx="416.11" cy="380.51" r="4.19" fill="#c7a64a" opacity="0.59"/><circle cx="551.61" cy="490.76" r="2.61" fill="#9bd3ff" opacity="0.33"/><circle cx="24.71" cy="186.34" r="2.85" fill="#c7a64a" opacity="0.29"/><circle cx="110.69" cy="407.46" r="4.56" fill="#9bd3ff" opacity="0.72"/><circle cx="341.41" cy="807.39" r="1.74" fill="#c7a64a" opacity="0.30"/><circle cx="85.82" cy="605.64" r="3.28" fill="#9bd3ff" opacity="0.32"/><circle cx="89.03" cy="269.52" r="2.06" fill="#c7a64a" opacity="0.50"/>
  </g>

  <rect x="16" y="16" width="736" height="992" rx="24" stroke="url(#edge-chronomancer-c39)" stroke-width="2.5" opacity="0.85"/>
  <rect x="22" y="22" width="724" height="980" rx="20" stroke="#78d8ff" stroke-width="2" opacity="0.74"/>

  <rect x="34" y="34" width="700" height="72" rx="14" fill="#070b14" fill-opacity="0.72" stroke="#78d8ff" stroke-opacity="0.55"/>
  <text x="54" y="80" fill="#EAF4FF" font-family="Exo 2, Segoe UI, sans-serif" font-size="32" font-weight="700">Chronomancer</text>

  <rect x="34" y="872" width="700" height="92" rx="14" fill="#070b14" fill-opacity="0.74" stroke="#78d8ff" stroke-opacity="0.6"/>
  <text x="54" y="924" fill="#D9E7FF" font-family="Exo 2, Segoe UI, sans-serif" font-size="30" font-weight="600">Ward</text>

  <rect x="598" y="36" width="118" height="42" rx="10" fill="#78d8ff" fill-opacity="0.2" stroke="#78d8ff" stroke-opacity="0.8"/>
  <text x="612" y="65" fill="#78d8ff" font-family="Exo 2, Segoe UI, sans-serif" font-size="20" font-weight="700">RARE</text>

  <circle cx="708" cy="954" r="26" fill="#080d18" stroke="#78d8ff" stroke-opacity="0.8"/>
  <text x="696" y="962" fill="#E7F2FF" font-family="Exo 2, Segoe UI, sans-serif" font-size="24" font-weight="700">39</text>
</svg>