<?xml version="1.0" encoding="UTF-8"?>
<svg width="768" height="1024" viewBox="0 0 768 1024" fill="none" xmlns="http://www.w3.org/2000/svg">
  <defs>
    <linearGradient id="bg-chronomancer-c06" x1="60" y1="40" x2="728" y2="1004" gradientUnits="userSpaceOnUse">
      <stop offset="0" stop-color="#101425"/>
      <stop offset="0.55" stop-color="#2a4478"/>
      <stop offset="1" stop-color="#101425"/>
    </linearGradient>
    <radialGradient id="glow-chronomancer-c06" cx="0" cy="0" r="1" gradientUnits="userSpaceOnUse" gradientTransform="translate(419.39 485.64) rotate(90) scale(233.60 233.60)">
      <stop stop-color="#c7a64a" stop-opacity="0.45"/>
      <stop offset="1" stop-color="#c7a64a" stop-opacity="0"/>
    </radialGradient>
    <linearGradient id="edge-chronomancer-c06" x1="0" y1="0" x2="768" y2="1024" gradientUnits="userSpaceOnUse">
      <stop stop-color="#c7a64a" stop-opacity="0.85"/>
      <stop offset="1" stop-color="#9bd3ff" stop-opacity="0.85"/>
    </linearGradient>
  </defs>

  <rect x="0" y="0" width="768" height="1024" rx="32" fill="#060910"/>
  <rect x="16" y="16" width="736" height="992" rx="24" fill="url(#bg-chronomancer-c06)"/>
  <rect x="16" y="16" width="736" height="992" rx="24" fill="url(#glow-chronomancer-c06)"/>

  <g opacity="0.88">
    <circle cx="384" cy="512" r="184" fill="none" stroke="#c7a64a" stroke-width="8" opacity="0.72"/>
<circle cx="384" cy="512" r="132" fill="none" stroke="#9bd3ff" stroke-width="4" opacity="0.76"/>
<line x1="524.00" y1="512.00" x2="560.00" y2="512.00" stroke="#9bd3ff" stroke-width="4" opacity="0.7"/><line x1="505.24" y1="582.00" x2="536.42" y2="600.00" stroke="#9bd3ff" stroke-width="4" opacity="0.7"/><line x1="454.00" y1="633.24" x2="472.00" y2="664.42" stroke="#9bd3ff" stroke-width="4" opacity="0.7"/><line x1="384.00" y1="652.00" x2="384.00" y2="688.00" stroke="#9bd3ff" stroke-width="4" opacity="0.7"/><line x1="314.00" y1="633.24" x2="296.00" y2="664.42" stroke="#9bd3ff" stroke-width="4" opacity="0.7"/><line x1="262.76" y1="582.00" x2="231.58" y2="600.00" stroke="#9bd3ff" stroke-width="4" opacity="0.7"/><line x1="244.00" y1="512.00" x2="208.00" y2="512.00" stroke="#9bd3ff" stroke-width="4" opacity="0.7"/><line x1="262.76" y1="442.00" x2="231.58" y2="424.00" stroke="#9bd3ff" stroke-width="4" opacity="0.7"/><line x1="314.00" y1="390.76" x2="296.00" y2="359.58" stroke="#9bd3ff" stroke-width="4" opacity="0.7"/><line x1="384.00" y1="372.00" x2="384.00" y2="336.00" stroke="#9bd3ff" stroke-width="4" opacity="0.7"/><line x1="454.00" y1="390.76" x2="472.00" y2="359.58" stroke="#9bd3ff" stroke-width="4" opacity="0.7"/><line x1="505.24" y1="442.00" x2="536.42" y2="424.00" stroke="#9bd3ff" stroke-width="4" opacity="0.7"/>
<line x1="384" y1="512" x2="466.00" y2="486.00" stroke="#c7a64a" stroke-width="8" opacity="0.9"/>
<line x1="384" y1="512" x2="342.00" y2="604.00" stroke="#9bd3ff" stroke-width="6" opacity="0.9"/>
  </g>

  <g opacity="0.8">
    <circle cx="356.06" cy="435.23" r="2.53" fill="#9bd3ff" opacity="0.49"/><circle cx="735.32" cy="174.27" r="4.92" fill="#c7a64a" opacity="0.49"/><circle cx="742.93" cy="1022.47" r="4.66" fill="#9bd3ff" opacity="0.40"/><circle cx="615.52" cy="862.29" r="2.42" fill="#c7a64a" opacity="0.50"/><circle cx="131.89" cy="460.96" r="2.70" fill="#9bd3ff" opacity="0.72"/><circle cx="480.88" cy="455.88" r="1.80" fill="#c7a64a" opacity="0.28"/><circle cx="376.43" cy="794.70" r="1.66" fill="#9bd3ff" opacity="0.64"/><circle cx="201.18" cy="376.49" r="3.97" fill="#c7a64a" opacity="0.24"/><circle cx="81.86" cy="75.47" r="4.80" fill="#9bd3ff" opacity="0.55"/><circle cx="44.29" cy="562.51" r="4.75" fill="#c7a64a" opacity="0.69"/><circle cx="656.19" cy="156.04" r="1.39" fill="#9bd3ff" opacity="0.71"/><circle cx="563.70" cy="138.52" r="3.12" fill="#c7a64a" opacity="0.41"/><circle cx="648.01" cy="962.41" r="1.46" fill="#9bd3ff" opacity="0.31"/><circle cx="601.17" cy="808.29" r="1.59" fill="#c7a64a" opacity="0.61"/><circle cx="208.06" cy="708.79" r="2.93" fill="#9bd3ff" opacity="0.57"/><circle cx="732.55" cy="226.23" r="4.21" fill="#c7a64a" opacity="0.27"/><circle cx="379.91" cy="747.64" r="2.36" fill="#9bd3ff" opacity="0.41"/><circle cx="164.04" cy="875.26" r="3.47" fill="#c7a64a" opacity="0.45"/><circle cx="487.09" cy="470.52" r="2.65" fill="#9bd3ff" opacity="0.63"/><circle cx="423.43" cy="602.24" r="3.82" fill="#c7a64a" opacity="0.73"/><circle cx="187.17" cy="58.44" r="2.98" fill="#9bd3ff" opacity="0.34"/><circle cx="208.25" cy="639.44" r="2.35" fill="#c7a64a" opacity="0.62"/><circle cx="759.74" cy="521.83" r="2.02" fill="#9bd3ff" opacity="0.50"/><circle cx="763.05" cy="531.74" r="2.10" fill="#c7a64a" opacity="0.48"/><circle cx="729.83" cy="339.18" r="3.19" fill="#9bd3ff" opacity="0.37"/><circle cx="206.59" cy="236.61" r="3.45" fill="#c7a64a" opacity="0.37"/><circle cx="371.18" cy="838.00" r="4.39" fill="#9bd3ff" opacity="0.70"/><circle cx="706.03" cy="758.04" r="2.74" fill="#c7a64a" opacity="0.60"/>
  </g>

  <rect x="16" y="16" width="736" height="992" rx="24" stroke="url(#edge-chronomancer-c06)" stroke-width="2.5" opacity="0.85"/>
  <rect x="22" y="22" width="724" height="980" rx="20" stroke="#8aa0c4" stroke-width="2" opacity="0.74"/>

  <rect x="34" y="34" width="700" height="72" rx="14" fill="#070b14" fill-opacity="0.72" stroke="#8aa0c4" stroke-opacity="0.55"/>
  <text x="54" y="80" fill="#EAF4FF" font-family="Exo 2, Segoe UI, sans-serif" font-size="32" font-weight="700">Chronomancer</text>

  <rect x="34" y="872" width="700" height="92" rx="14" fill="#070b14" fill-opacity="0.74" stroke="#8aa0c4" stroke-opacity="0.6"/>
  <text x="54" y="924" fill="#D9E7FF" font-family="Exo 2, Segoe UI, sans-serif" font-size="30" font-weight="600">Skirmisher</text>

  <rect x="598" y="36" width="118" height="42" rx="10" fill="#8aa0c4" fill-opacity="0.2" stroke="#8aa0c4" stroke-opacity="0.8"/>
  <text x="612" y="65" fill="#8aa0c4" font-family="Exo 2, Segoe UI, sans-serif" font-size="20" font-weight="700">COMMON</text>

  <circle cx="708" cy="954" r="26" fill="#080d18" stroke="#8aa0c4" stroke-opacity="0.8"/>
  <text x="696" y="962" fill="#E7F2FF" font-family="Exo 2, Segoe UI, sans-serif" font-size="24" font-weight="700">06</text>
</svg>