<?xml version="1.0" encoding="UTF-8"?>
<svg width="768" height="1024" viewBox="0 0 768 1024" fill="none" xmlns="http://www.w3.org/2000/svg">
  <defs>
    <linearGradient id="bg-chronomancer-c20" x1="60" y1="40" x2="728" y2="1004" gradientUnits="userSpaceOnUse">
      <stop offset="0" stop-color="#101425"/>
      <stop offset="0.55" stop-color="#2a4478"/>
      <stop offset="1" stop-color="#101425"/>
    </linearGradient>
    <radialGradient id="glow-chronomancer-c20" cx="0" cy="0" r="1" gradientUnits="userSpaceOnUse" gradientTransform="translate(541.74 582.85) rotate(90) scale(233.14 233.14)">
      <stop stop-color="#c7a64a" stop-opacity="0.45"/>
      <stop offset="1" stop-color="#c7a64a" stop-opacity="0"/>
    </radialGradient>
    <linearGradient id="edge-chronomancer-c20" x1="0" y1="0" x2="768" y2="1024" gradientUnits="userSpaceOnUse">
      <stop stop-color="#c7a64a" stop-opacity="0.85"/>
      <stop offset="1" stop-color="#9bd3ff" stop-opacity="0.85"/>
    </linearGradient>
  </defs>

  <rect x="0" y="0" width="768" height="1024" rx="32" fill="#060910"/>
  <rect x="16" y="16" width="736" height="992" rx="24" fill="url(#bg-chronomancer-c20)"/>
  <rect x="16" y="16" width="736" height="992" rx="24" fill="url(#glow-chronomancer-c20)"/>

  <g opacity="0.88">
    <circle cx="384" cy="512" r="184" fill="none" stroke="#c7a64a" stroke-width="8" opacity="0.72"/>
<circle cx="384" cy="512" r="132" fill="none" stroke="#9bd3ff" stroke-width="4" opacity="0.76"/>
<line x1="524.00" y1="512.00" x2="560.00" y2="512.00" stroke="#9bd3ff" stroke-width="4" opacity="0.7"/><line x1="505.24" y1="582.00" x2="536.42" y2="600.00" stroke="#9bd3ff" stroke-width="4" opacity="0.7"/><line x1="454.00" y1="633.24" x2="472.00" y2="664.42" stroke="#9bd3ff" stroke-width="4" opacity="0.7"/><line x1="384.00" y1="652.00" x2="384.00" y2="688.00" stroke="#9bd3ff" stroke-width="4" opacity="0.7"/><line x1="314.00" y1="633.24" x2="296.00" y2="664.42" stroke="#9bd3ff" stroke-width="4" opacity="0.7"/><line x1="262.76" y1="582.00" x2="231.58" y2="600.00" stroke="#9bd3ff" stroke-width="4" opacity="0.7"/><line x1="244.00" y1="512.00" x2="208.00" y2="512.00" stroke="#9bd3ff" stroke-width="4" opacity="0.7"/><line x1="262.76" y1="442.00" x2="231.58" y2="424.00" stroke="#9bd3ff" stroke-width="4" opacity="0.7"/><line x1="314.00" y1="390.76" x2="296.00" y2="359.58" stroke="#9bd3ff" stroke-width="4" opacity="0.7"/><line x1="384.00" y1="372.00" x2="384.00" y2="336.00" stroke="#9bd3ff" stroke-width="4" opacity="0.7"/><line x1="454.00" y1="390.76" x2="472.00" y2="359.58" stroke="#9bd3ff" stroke-width="4" opacity="0.7"/><line x1="505.24" y1="442.00" x2="536.42" y2="424.00" stroke="#9bd3ff" stroke-width="4" opacity="0.7"/>
<line x1="384" y1="512" x2="466.00" y2="486.00" stroke="#c7a64a" stroke-width="8" opacity="0.9"/>
<line x1="384" y1="512" x2="342.00" y2="604.00" stroke="#9bd3ff" stroke-width="6" opacity="0.9"/>
  </g>

  <g opacity="0.8">
    <circle cx="34.59" cy="536.89" r="1.49" fill="#9bd3ff" opacity="0.36"/><circle cx="737.89" cy="720.16" r="4.74" fill="#c7a64a" opacity="0.33"/><circle cx="408.72" cy="627.97" r="1.44" fill="#9bd3ff" opacity="0.58"/><circle cx="10.56" cy="850.22" r="3.91" fill="#c7a64a" opacity="0.33"/><circle cx="457.92" cy="671.79" r="2.03" fill="#9bd3ff" opacity="0.73"/><circle cx="215.95" cy="969.64" r="4.99" fill="#c7a64a" opacity="0.66"/><circle cx="722.05" cy="599.44" r="4.15" fill="#9bd3ff" opacity="0.26"/><circle cx="224.13" cy="131.13" r="3.09" fill="#c7a64a" opacity="0.73"/><circle cx="126.05" cy="36.96" r="1.55" fill="#9bd3ff" opacity="0.48"/><circle cx="246.71" cy="546.90" r="4.03" fill="#c7a64a" opacity="0.36"/><circle cx="466.17" cy="197.52" r="4.43" fill="#9bd3ff" opacity="0.50"/><circle cx="754.48" cy="584.35" r="3.42" fill="#c7a64a" opacity="0.64"/><circle cx="305.31" cy="739.12" r="3.91" fill="#9bd3ff" opacity="0.56"/><circle cx="571.59" cy="838.58" r="3.67" fill="#c7a64a" opacity="0.58"/><circle cx="99.15" cy="675.85" r="4.91" fill="#9bd3ff" opacity="0.31"/><circle cx="347.99" cy="58.83" r="1.76" fill="#c7a64a" opacity="0.66"/><circle cx="584.03" cy="101.38" r="1.74" fill="#9bd3ff" opacity="0.61"/><circle cx="617.36" cy="218.75" r="4.92" fill="#c7a64a" opacity="0.28"/><circle cx="714.60" cy="319.40" r="4.12" fill="#9bd3ff" opacity="0.68"/><circle cx="359.63" cy="511.22" r="1.24" fill="#c7a64a" opacity="0.64"/><circle cx="306.18" cy="106.87" r="4.07" fill="#9bd3ff" opacity="0.69"/><circle cx="122.07" cy="685.56" r="2.57" fill="#c7a64a" opacity="0.49"/><circle cx="299.17" cy="425.81" r="4.76" fill="#9bd3ff" opacity="0.61"/><circle cx="301.22" cy="646.58" r="1.44" fill="#c7a64a" opacity="0.50"/><circle cx="618.75" cy="240.78" r="3.73" fill="#9bd3ff" opacity="0.66"/><circle cx="172.46" cy="779.38" r="3.81" fill="#c7a64a" opacity="0.71"/><circle cx="732.83" cy="726.46" r="1.40" fill="#9bd3ff" opacity="0.44"/><circle cx="239.73" cy="104.71" r="2.40" fill="#c7a64a" opacity="0.35"/>
  </g>

  <rect x="16" y="16" width="736" height="992" rx="24" stroke="url(#edge-chronomancer-c20)" stroke-width="2.5" opacity="0.85"/>
  <rect x="22" y="22" width="724" height="980" rx="20" stroke="#8aa0c4" stroke-width="2" opacity="0.74"/>

  <rect x="34" y="34" width="700" height="72" rx="14" fill="#070b14" fill-opacity="0.72" stroke="#8aa0c4" stroke-opacity="0.55"/>
  <text x="54" y="80" fill="#EAF4FF" font-family="Exo 2, Segoe UI, sans-serif" font-size="32" font-weight="700">Chronomancer</text>

  <rect x="34" y="872" width="700" height="92" rx="14" fill="#070b14" fill-opacity="0.74" stroke="#8aa0c4" stroke-opacity="0.6"/>
  <text x="54" y="924" fill="#D9E7FF" font-family="Exo 2, Segoe UI, sans-serif" font-size="30" font-weight="600">Champion</text>

  <rect x="598" y="36" width="118" height="42" rx="10" fill="#8aa0c4" fill-opacity="0.2" stroke="#8aa0c4" stroke-opacity="0.8"/>
  <text x="612" y="65" fill="#8aa0c4" font-family="Exo 2, Segoe UI, sans-serif" font-size="20" font-weight="700">COMMON</text>

  <circle cx="708" cy="954" r="26" fill="#080d18" stroke="#8aa0c4" stroke-opacity="0.8"/>
  <text x="696" y="962" fill="#E7F2FF" font-family="Exo 2, Segoe UI, sans-serif" font-size="24" font-weight="700">20</text>
</svg>