<?xml version="1.0" encoding="UTF-8"?>
<svg width="768" height="1024" viewBox="0 0 768 1024" fill="none" xmlns="http://www.w3.org/2000/svg">
  <defs>
    <linearGradient id="bg-chronomancer-c38" x1="60" y1="40" x2="728" y2="1004" gradientUnits="userSpaceOnUse">
      <stop offset="0" stop-color="#101425"/>
      <stop offset="0.55" stop-color="#2a4478"/>
      <stop offset="1" stop-color="#101425"/>
    </linearGradient>
    <radialGradient id="glow-chronomancer-c38" cx="0" cy="0" r="1" gradientUnits="userSpaceOnUse" gradientTransform="translate(286.94 739.44) rotate(90) scale(194.72 194.72)">
      <stop stop-color="#c7a64a" stop-opacity="0.45"/>
      <stop offset="1" stop-color="#c7a64a" stop-opacity="0"/>
    </radialGradient>
    <linearGradient id="edge-chronomancer-c38" x1="0" y1="0" x2="768" y2="1024" gradientUnits="userSpaceOnUse">
      <stop stop-color="#c7a64a" stop-opacity="0.85"/>
      <stop offset="1" stop-color="#9bd3ff" stop-opacity="0.85"/>
    </linearGradient>
  </defs>

  <rect x="0" y="0" width="768" height="1024" rx="32" fill="#060910"/>
  <rect x="16" y="16" width="736" height="992" rx="24" fill="url(#bg-chronomancer-c38)"/>
  <rect x="16" y="16" width="736" height="992" rx="24" fill="url(#glow-chronomancer-c38)"/>

  <g opacity="0.88">
    <circle cx="384" cy="512" r="184" fill="none" stroke="#c7a64a" stroke-width="8" opacity="0.72"/>
<circle cx="384" cy="512" r="132" fill="none" stroke="#9bd3ff" stroke-width="4" opacity="0.76"/>
<line x1="524.00" y1="512.00" x2="560.00" y2="512.00" stroke="#9bd3ff" stroke-width="4" opacity="0.7"/><line x1="505.24" y1="582.00" x2="536.42" y2="600.00" stroke="#9bd3ff" stroke-width="4" opacity="0.7"/><line x1="454.00" y1="633.24" x2="472.00" y2="664.42" stroke="#9bd3ff" stroke-width="4" opacity="0.7"/><line x1="384.00" y1="652.00" x2="384.00" y2="688.00" stroke="#9bd3ff" stroke-width="4" opacity="0.7"/><line x1="314.00" y1="633.24" x2="296.00" y2="664.42" stroke="#9bd3ff" stroke-width="4" opacity="0.7"/><line x1="262.76" y1="582.00" x2="231.58" y2="600.00" stroke="#9bd3ff" stroke-width="4" opacity="0.7"/><line x1="244.00" y1="512.00" x2="208.00" y2="512.00" stroke="#9bd3ff" stroke-width="4" opacity="0.7"/><line x1="262.76" y1="442.00" x2="231.58" y2="424.00" stroke="#9bd3ff" stroke-width="4" opacity="0.7"/><line x1="314.00" y1="390.76" x2="296.00" y2="359.58" stroke="#9bd3ff" stroke-width="4" opacity="0.7"/><line x1="384.00" y1="372.00" x2="384.00" y2="336.00" stroke="#9bd3ff" stroke-width="4" opacity="0.7"/><line x1="454.00" y1="390.76" x2="472.00" y2="359.58" stroke="#9bd3ff" stroke-width="4" opacity="0.7"/><line x1="505.24" y1="442.00" x2="536.42" y2="424.00" stroke="#9bd3ff" stroke-width="4" opacity="0.7"/>
<line x1="384" y1="512" x2="466.00" y2="486.00" stroke="#c7a64a" stroke-width="8" opacity="0.9"/>
<line x1="384" y1="512" x2="342.00" y2="604.00" stroke="#9bd3ff" stroke-width="6" opacity="0.9"/>
  </g>

  <g opacity="0.8">
    <circle cx="143.87" cy="172.43" r="3.95" fill="#9bd3ff" opacity="0.54"/><circle cx="172.07" cy="48.89" r="2.35" fill="#c7a64a" opacity="0.60"/><circle cx="625.45" cy="321.70" r="1.33" fill="#9bd3ff" opacity="0.66"/><circle cx="93.87" cy="1001.15" r="2.04" fill="#c7a64a" opacity="0.51"/><circle cx="204.39" cy="327.58" r="3.40" fill="#9bd3ff" opacity="0.46"/><circle cx="664.85" cy="50.27" r="2.50" fill="#c7a64a" opacity="0.53"/><circle cx="220.77" cy="956.05" r="4.09" fill="#9bd3ff" opacity="0.39"/><circle cx="630.12" cy="789.14" r="4.30" fill="#c7a64a" opacity="0.40"/><circle cx="346.82" cy="37.50" r="4.11" fill="#9bd3ff" opacity="0.52"/><circle cx="179.26" cy="420.39" r="1.38" fill="#c7a64a" opacity="0.70"/><circle cx="468.36" cy="314.06" r="3.23" fill="#9bd3ff" opacity="0.65"/><circle cx="707.79" cy="535.08" r="1.31" fill="#c7a64a" opacity="0.27"/><circle cx="175.39" cy="944.05" r="2.76" fill="#9bd3ff" opacity="0.26"/><circle cx="758.53" cy="253.69" r="3.43" fill="#c7a64a" opacity="0.36"/><circle cx="484.06" cy="874.18" r="1.47" fill="#9bd3ff" opacity="0.51"/><circle cx="327.14" cy="971.52" r="2.83" fill="#c7a64a" opacity="0.51"/><circle cx="352.64" cy="122.00" r="4.66" fill="#9bd3ff" opacity="0.38"/><circle cx="237.85" cy="524.00" r="3.50" fill="#c7a64a" opacity="0.58"/><circle cx="0.85" cy="411.01" r="3.64" fill="#9bd3ff" opacity="0.59"/><circle cx="716.38" cy="494.00" r="4.07" fill="#c7a64a" opacity="0.31"/><circle cx="600.33" cy="269.81" r="3.89" fill="#9bd3ff" opacity="0.51"/><circle cx="414.26" cy="333.50" r="1.63" fill="#c7a64a" opacity="0.38"/><circle cx="377.89" cy="141.76" r="4.43" fill="#9bd3ff" opacity="0.58"/><circle cx="693.15" cy="453.06" r="3.59" fill="#c7a64a" opacity="0.36"/><circle cx="259.04" cy="886.54" r="3.36" fill="#9bd3ff" opacity="0.30"/><circle cx="675.97" cy="761.75" r="3.77" fill="#c7a64a" opacity="0.41"/><circle cx="314.15" cy="959.96" r="3.61" fill="#9bd3ff" opacity="0.55"/><circle cx="221.82" cy="403.27" r="4.39" fill="#c7a64a" opacity="0.48"/>
  </g>

  <rect x="16" y="16" width="736" height="992" rx="24" stroke="url(#edge-chronomancer-c38)" stroke-width="2.5" opacity="0.85"/>
  <rect x="22" y="22" width="724" height="980" rx="20" stroke="#78d8ff" stroke-width="2" opacity="0.74"/>

  <rect x="34" y="34" width="700" height="72" rx="14" fill="#070b14" fill-opacity="0.72" stroke="#78d8ff" stroke-opacity="0.55"/>
  <text x="54" y="80" fill="#EAF4FF" font-family="Exo 2, Segoe UI, sans-serif" font-size="32" font-weight="700">Chronomancer</text>

  <rect x="34" y="872" width="700" height="92" rx="14" fill="#070b14" fill-opacity="0.74" stroke="#78d8ff" stroke-opacity="0.6"/>
  <text x="54" y="924" fill="#D9E7FF" font-family="Exo 2, Segoe UI, sans-serif" font-size="30" font-weight="600">Reposition</text>

  <rect x="598" y="36" width="118" height="42" rx="10" fill="#78d8ff" fill-opacity="0.2" stroke="#78d8ff" stroke-opacity="0.8"/>
  <text x="612" y="65" fill="#78d8ff" font-family="Exo 2, Segoe UI, sans-serif" font-size="20" font-weight="700">RARE</text>

  <circle cx="708" cy="954" r="26" fill="#080d18" stroke="#78d8ff" stroke-opacity="0.8"/>
  <text x="696" y="962" fill="#E7F2FF" font-family="Exo 2, Segoe UI, sans-serif" font-size="24" font-weight="700">38</text>
</svg>