<?xml version="1.0" encoding="UTF-8"?>
<svg width="768" height="1024" viewBox="0 0 768 1024" fill="none" xmlns="http://www.w3.org/2000/svg">
  <defs>
    <linearGradient id="bg-chronomancer-c47" x1="60" y1="40" x2="728" y2="1004" gradientUnits="userSpaceOnUse">
      <stop offset="0" stop-color="#101425"/>
      <stop offset="0.55" stop-color="#2a4478"/>
      <stop offset="1" stop-color="#101425"/>
    </linearGradient>
    <radialGradient id="glow-chronomancer-c47" cx="0" cy="0" r="1" gradientUnits="userSpaceOnUse" gradientTransform="translate(492.87 375.96) rotate(90) scale(267.40 267.40)">
      <stop stop-color="#c7a64a" stop-opacity="0.45"/>
      <stop offset="1" stop-color="#c7a64a" stop-opacity="0"/>
    </radialGradient>
    <linearGradient id="edge-chronomancer-c47" x1="0" y1="0" x2="768" y2="1024" gradientUnits="userSpaceOnUse">
      <stop stop-color="#c7a64a" stop-opacity="0.85"/>
      <stop offset="1" stop-color="#9bd3ff" stop-opacity="0.85"/>
    </linearGradient>
  </defs>

  <rect x="0" y="0" width="768" height="1024" rx="32" fill="#060910"/>
  <rect x="16" y="16" width="736" height="992" rx="24" fill="url(#bg-chronomancer-c47)"/>
  <rect x="16" y="16" width="736" height="992" rx="24" fill="url(#glow-chronomancer-c47)"/>

  <g opacity="0.88">
    <circle cx="384" cy="512" r="184" fill="none" stroke="#c7a64a" stroke-width="8" opacity="0.72"/>
<circle cx="384" cy="512" r="132" fill="none" stroke="#9bd3ff" stroke-width="4" opacity="0.76"/>
<line x1="524.00" y1="512.00" x2="560.00" y2="512.00" stroke="#9bd3ff" stroke-width="4" opacity="0.7"/><line x1="505.24" y1="582.00" x2="536.42" y2="600.00" stroke="#9bd3ff" stroke-width="4" opacity="0.7"/><line x1="454.00" y1="633.24" x2="472.00" y2="664.42" stroke="#9bd3ff" stroke-width="4" opacity="0.7"/><line x1="384.00" y1="652.00" x2="384.00" y2="688.00" stroke="#9bd3ff" stroke-width="4" opacity="0.7"/><line x1="314.00" y1="633.24" x2="296.00" y2="664.42" stroke="#9bd3ff" stroke-width="4" opacity="0.7"/><line x1="262.76" y1="582.00" x2="231.58" y2="600.00" stroke="#9bd3ff" stroke-width="4" opacity="0.7"/><line x1="244.00" y1="512.00" x2="208.00" y2="512.00" stroke="#9bd3ff" stroke-width="4" opacity="0.7"/><line x1="262.76" y1="442.00" x2="231.58" y2="424.00" stroke="#9bd3ff" stroke-width="4" opacity="0.7"/><line x1="314.00" y1="390.76" x2="296.00" y2="359.58" stroke="#9bd3ff" stroke-width="4" opacity="0.7"/><line x1="384.00" y1="372.00" x2="384.00" y2="336.00" stroke="#9bd3ff" stroke-width="4" opacity="0.7"/><line x1="454.00" y1="390.76" x2="472.00" y2="359.58" stroke="#9bd3ff" stroke-width="4" opacity="0.7"/><line x1="505.24" y1="442.00" x2="536.42" y2="424.00" stroke="#9bd3ff" stroke-width="4" opacity="0.7"/>
<line x1="384" y1="512" x2="466.00" y2="486.00" stroke="#c7a64a" stroke-width="8" opacity="0.9"/>
<line x1="384" y1="512" x2="342.00" y2="604.00" stroke="#9bd3ff" stroke-width="6" opacity="0.9"/>
  </g>

  <g opacity="0.8">
    <circle cx="336.23" cy="100.35" r="4.41" fill="#9bd3ff" opacity="0.63"/><circle cx="480.19" cy="684.64" r="3.87" fill="#c7a64a" opacity="0.52"/><circle cx="299.21" cy="72.16" r="3.27" fill="#9bd3ff" opacity="0.27"/><circle cx="9.36" cy="890.55" r="3.80" fill="#c7a64a" opacity="0.71"/><circle cx="542.10" cy="593.05" r="4.33" fill="#9bd3ff" opacity="0.63"/><circle cx="408.34" cy="625.62" r="2.94" fill="#c7a64a" opacity="0.44"/><circle cx="424.54" cy="391.12" r="3.74" fill="#9bd3ff" opacity="0.72"/><circle cx="473.26" cy="94.31" r="2.93" fill="#c7a64a" opacity="0.61"/><circle cx="412.49" cy="204.54" r="3.26" fill="#9bd3ff" opacity="0.43"/><circle cx="100.26" cy="12.25" r="3.49" fill="#c7a64a" opacity="0.42"/><circle cx="186.07" cy="803.02" r="4.61" fill="#9bd3ff" opacity="0.52"/><circle cx="350.86" cy="821.56" r="3.03" fill="#c7a64a" opacity="0.67"/><circle cx="134.27" cy="994.89" r="1.95" fill="#9bd3ff" opacity="0.48"/><circle cx="610.05" cy="323.49" r="4.10" fill="#c7a64a" opacity="0.63"/><circle cx="589.54" cy="819.01" r="1.61" fill="#9bd3ff" opacity="0.62"/><circle cx="465.73" cy="870.81" r="4.58" fill="#c7a64a" opacity="0.53"/><circle cx="540.82" cy="656.81" r="2.44" fill="#9bd3ff" opacity="0.30"/><circle cx="217.94" cy="637.81" r="1.57" fill="#c7a64a" opacity="0.41"/><circle cx="498.94" cy="688.19" r="2.14" fill="#9bd3ff" opacity="0.41"/><circle cx="356.33" cy="628.59" r="1.65" fill="#c7a64a" opacity="0.35"/><circle cx="414.44" cy="787.82" r="2.93" fill="#9bd3ff" opacity="0.55"/><circle cx="309.03" cy="609.87" r="2.08" fill="#c7a64a" opacity="0.27"/><circle cx="619.63" cy="478.60" r="2.16" fill="#9bd3ff" opacity="0.47"/><circle cx="318.36" cy="664.90" r="1.89" fill="#c7a64a" opacity="0.39"/><circle cx="12.77" cy="768.09" r="3.62" fill="#9bd3ff" opacity="0.42"/><circle cx="325.30" cy="242.56" r="4.81" fill="#c7a64a" opacity="0.26"/><circle cx="611.11" cy="870.10" r="4.93" fill="#9bd3ff" opacity="0.29"/><circle cx="266.66" cy="377.14" r="1.90" fill="#c7a64a" opacity="0.70"/>
  </g>

  <rect x="16" y="16" width="736" height="992" rx="24" stroke="url(#edge-chronomancer-c47)" stroke-width="2.5" opacity="0.85"/>
  <rect x="22" y="22" width="724" height="980" rx="20" stroke="#f0a0ff" stroke-width="2" opacity="0.74"/>

  <rect x="34" y="34" width="700" height="72" rx="14" fill="#070b14" fill-opacity="0.72" stroke="#f0a0ff" stroke-opacity="0.55"/>
  <text x="54" y="80" fill="#EAF4FF" font-family="Exo 2, Segoe UI, sans-serif" font-size="32" font-weight="700">Chronomancer</text>

  <rect x="34" y="872" width="700" height="92" rx="14" fill="#070b14" fill-opacity="0.74" stroke="#f0a0ff" stroke-opacity="0.6"/>
  <text x="54" y="924" fill="#D9E7FF" font-family="Exo 2, Segoe UI, sans-serif" font-size="30" font-weight="600">Epic Volley</text>

  <rect x="598" y="36" width="118" height="42" rx="10" fill="#f0a0ff" fill-opacity="0.2" stroke="#f0a0ff" stroke-opacity="0.8"/>
  <text x="612" y="65" fill="#f0a0ff" font-family="Exo 2, Segoe UI, sans-serif" font-size="20" font-weight="700">EPIC</text>

  <circle cx="708" cy="954" r="26" fill="#080d18" stroke="#f0a0ff" stroke-opacity="0.8"/>
  <text x="696" y="962" fill="#E7F2FF" font-family="Exo 2, Segoe UI, sans-serif" font-size="24" font-weight="700">47</text>
</svg>