<?xml version="1.0" encoding="UTF-8"?>
<svg width="768" height="1024" viewBox="0 0 768 1024" fill="none" xmlns="http://www.w3.org/2000/svg">
  <defs>
    <linearGradient id="bg-chronomancer-c48" x1="60" y1="40" x2="728" y2="1004" gradientUnits="userSpaceOnUse">
      <stop offset="0" stop-color="#101425"/>
      <stop offset="0.55" stop-color="#2a4478"/>
      <stop offset="1" stop-color="#101425"/>
    </linearGradient>
    <radialGradient id="glow-chronomancer-c48" cx="0" cy="0" r="1" gradientUnits="userSpaceOnUse" gradientTransform="translate(232.86 344.95) rotate(90) scale(241.29 241.29)">
      <stop stop-color="#c7a64a" stop-opacity="0.45"/>
      <stop offset="1" stop-color="#c7a64a" stop-opacity="0"/>
    </radialGradient>
    <linearGradient id="edge-chronomancer-c48" x1="0" y1="0" x2="768" y2="1024" gradientUnits="userSpaceOnUse">
      <stop stop-color="#c7a64a" stop-opacity="0.85"/>
      <stop offset="1" stop-color="#9bd3ff" stop-opacity="0.85"/>
    </linearGradient>
  </defs>

  <rect x="0" y="0" width="768" height="1024" rx="32" fill="#060910"/>
  <rect x="16" y="16" width="736" height="992" rx="24" fill="url(#bg-chronomancer-c48)"/>
  <rect x="16" y="16" width="736" height="992" rx="24" fill="url(#glow-chronomancer-c48)"/>

  <g opacity="0.88">
    <circle cx="384" cy="512" r="184" fill="none" stroke="#c7a64a" stroke-width="8" opacity="0.72"/>
<circle cx="384" cy="512" r="132" fill="none" stroke="#9bd3ff" stroke-width="4" opacity="0.76"/>
<line x1="524.00" y1="512.00" x2="560.00" y2="512.00" stroke="#9bd3ff" stroke-width="4" opacity="0.7"/><line x1="505.24" y1="582.00" x2="536.42" y2="600.00" stroke="#9bd3ff" stroke-width="4" opacity="0.7"/><line x1="454.00" y1="633.24" x2="472.00" y2="664.42" stroke="#9bd3ff" stroke-width="4" opacity="0.7"/><line x1="384.00" y1="652.00" x2="384.00" y2="688.00" stroke="#9bd3ff" stroke-width="4" opacity="0.7"/><line x1="314.00" y1="633.24" x2="296.00" y2="664.42" stroke="#9bd3ff" stroke-width="4" opacity="0.7"/><line x1="262.76" y1="582.00" x2="231.58" y2="600.00" stroke="#9bd3ff" stroke-width="4" opacity="0.7"/><line x1="244.00" y1="512.00" x2="208.00" y2="512.00" stroke="#9bd3ff" stroke-width="4" opacity="0.7"/><line x1="262.76" y1="442.00" x2="231.58" y2="424.00" stroke="#9bd3ff" stroke-width="4" opacity="0.7"/><line x1="314.00" y1="390.76" x2="296.00" y2="359.58" stroke="#9bd3ff" stroke-width="4" opacity="0.7"/><line x1="384.00" y1="372.00" x2="384.00" y2="336.00" stroke="#9bd3ff" stroke-width="4" opacity="0.7"/><line x1="454.00" y1="390.76" x2="472.00" y2="359.58" stroke="#9bd3ff" stroke-width="4" opacity="0.7"/><line x1="505.24" y1="442.00" x2="536.42" y2="424.00" stroke="#9bd3ff" stroke-width="4" opacity="0.7"/>
<line x1="384" y1="512" x2="466.00" y2="486.00" stroke="#c7a64a" stroke-width="8" opacity="0.9"/>
<line x1="384" y1="512" x2="342.00" y2="604.00" stroke="#9bd3ff" stroke-width="6" opacity="0.9"/>
  </g>

  <g opacity="0.8">
    <circle cx="455.36" cy="704.65" r="3.26" fill="#9bd3ff" opacity="0.38"/><circle cx="428.38" cy="1004.72" r="4.29" fill="#c7a64a" opacity="0.72"/><circle cx="16.97" cy="653.97" r="1.73" fill="#9bd3ff" opacity="0.68"/><circle cx="12.19" cy="865.72" r="1.86" fill="#c7a64a" opacity="0.64"/><circle cx="407.15" cy="950.24" r="4.16" fill="#9bd3ff" opacity="0.25"/><circle cx="704.91" cy="876.01" r="3.44" fill="#c7a64a" opacity="0.27"/><circle cx="189.61" cy="629.81" r="1.25" fill="#9bd3ff" opacity="0.30"/><circle cx="44.06" cy="777.17" r="1.95" fill="#c7a64a" opacity="0.69"/><circle cx="702.99" cy="670.31" r="3.35" fill="#9bd3ff" opacity="0.46"/><circle cx="259.68" cy="244.42" r="3.73" fill="#c7a64a" opacity="0.25"/><circle cx="753.66" cy="926.49" r="4.43" fill="#9bd3ff" opacity="0.24"/><circle cx="311.61" cy="897.43" r="4.21" fill="#c7a64a" opacity="0.39"/><circle cx="139.47" cy="125.75" r="3.71" fill="#9bd3ff" opacity="0.53"/><circle cx="461.82" cy="901.01" r="2.10" fill="#c7a64a" opacity="0.38"/><circle cx="513.59" cy="776.90" r="2.17" fill="#9bd3ff" opacity="0.40"/><circle cx="292.28" cy="710.21" r="3.29" fill="#c7a64a" opacity="0.47"/><circle cx="30.49" cy="500.78" r="2.14" fill="#9bd3ff" opacity="0.65"/><circle cx="579.67" cy="994.98" r="4.70" fill="#c7a64a" opacity="0.35"/><circle cx="82.32" cy="76.27" r="2.24" fill="#9bd3ff" opacity="0.46"/><circle cx="697.04" cy="621.81" r="1.89" fill="#c7a64a" opacity="0.55"/><circle cx="144.77" cy="286.81" r="4.35" fill="#9bd3ff" opacity="0.41"/><circle cx="394.12" cy="901.92" r="1.61" fill="#c7a64a" opacity="0.66"/><circle cx="396.85" cy="166.06" r="3.97" fill="#9bd3ff" opacity="0.54"/><circle cx="309.64" cy="521.52" r="1.25" fill="#c7a64a" opacity="0.63"/><circle cx="272.06" cy="225.43" r="3.91" fill="#9bd3ff" opacity="0.31"/><circle cx="95.79" cy="446.55" r="1.20" fill="#c7a64a" opacity="0.52"/><circle cx="452.44" cy="840.59" r="2.16" fill="#9bd3ff" opacity="0.52"/><circle cx="441.98" cy="575.84" r="1.89" fill="#c7a64a" opacity="0.45"/>
  </g>

  <rect x="16" y="16" width="736" height="992" rx="24" stroke="url(#edge-chronomancer-c48)" stroke-width="2.5" opacity="0.85"/>
  <rect x="22" y="22" width="724" height="980" rx="20" stroke="#f0a0ff" stroke-width="2" opacity="0.74"/>

  <rect x="34" y="34" width="700" height="72" rx="14" fill="#070b14" fill-opacity="0.72" stroke="#f0a0ff" stroke-opacity="0.55"/>
  <text x="54" y="80" fill="#EAF4FF" font-family="Exo 2, Segoe UI, sans-serif" font-size="32" font-weight="700">Chronomancer</text>

  <rect x="34" y="872" width="700" height="92" rx="14" fill="#070b14" fill-opacity="0.74" stroke="#f0a0ff" stroke-opacity="0.6"/>
  <text x="54" y="924" fill="#D9E7FF" font-family="Exo 2, Segoe UI, sans-serif" font-size="30" font-weight="600">Epic Reset</text>

  <rect x="598" y="36" width="118" height="42" rx="10" fill="#f0a0ff" fill-opacity="0.2" stroke="#f0a0ff" stroke-opacity="0.8"/>
  <text x="612" y="65" fill="#f0a0ff" font-family="Exo 2, Segoe UI, sans-serif" font-size="20" font-weight="700">EPIC</text>

  <circle cx="708" cy="954" r="26" fill="#080d18" stroke="#f0a0ff" stroke-opacity="0.8"/>
  <text x="696" y="962" fill="#E7F2FF" font-family="Exo 2, Segoe UI, sans-serif" font-size="24" font-weight="700">48</text>
</svg>