<?xml version="1.0" encoding="UTF-8"?>
<svg width="768" height="1024" viewBox="0 0 768 1024" fill="none" xmlns="http://www.w3.org/2000/svg">
  <defs>
    <linearGradient id="bg-chronomancer-c23" x1="60" y1="40" x2="728" y2="1004" gradientUnits="userSpaceOnUse">
      <stop offset="0" stop-color="#101425"/>
      <stop offset="0.55" stop-color="#2a4478"/>
      <stop offset="1" stop-color="#101425"/>
    </linearGradient>
    <radialGradient id="glow-chronomancer-c23" cx="0" cy="0" r="1" gradientUnits="userSpaceOnUse" gradientTransform="translate(457.75 255.53) rotate(90) scale(295.41 295.41)">
      <stop stop-color="#c7a64a" stop-opacity="0.45"/>
      <stop offset="1" stop-color="#c7a64a" stop-opacity="0"/>
    </radialGradient>
    <linearGradient id="edge-chronomancer-c23" x1="0" y1="0" x2="768" y2="1024" gradientUnits="userSpaceOnUse">
      <stop stop-color="#c7a64a" stop-opacity="0.85"/>
      <stop offset="1" stop-color="#9bd3ff" stop-opacity="0.85"/>
    </linearGradient>
  </defs>

  <rect x="0" y="0" width="768" height="1024" rx="32" fill="#060910"/>
  <rect x="16" y="16" width="736" height="992" rx="24" fill="url(#bg-chronomancer-c23)"/>
  <rect x="16" y="16" width="736" height="992" rx="24" fill="url(#glow-chronomancer-c23)"/>

  <g opacity="0.88">
    <circle cx="384" cy="512" r="184" fill="none" stroke="#c7a64a" stroke-width="8" opacity="0.72"/>
<circle cx="384" cy="512" r="132" fill="none" stroke="#9bd3ff" stroke-width="4" opacity="0.76"/>
<line x1="524.00" y1="512.00" x2="560.00" y2="512.00" stroke="#9bd3ff" stroke-width="4" opacity="0.7"/><line x1="505.24" y1="582.00" x2="536.42" y2="600.00" stroke="#9bd3ff" stroke-width="4" opacity="0.7"/><line x1="454.00" y1="633.24" x2="472.00" y2="664.42" stroke="#9bd3ff" stroke-width="4" opacity="0.7"/><line x1="384.00" y1="652.00" x2="384.00" y2="688.00" stroke="#9bd3ff" stroke-width="4" opacity="0.7"/><line x1="314.00" y1="633.24" x2="296.00" y2="664.42" stroke="#9bd3ff" stroke-width="4" opacity="0.7"/><line x1="262.76" y1="582.00" x2="231.58" y2="600.00" stroke="#9bd3ff" stroke-width="4" opacity="0.7"/><line x1="244.00" y1="512.00" x2="208.00" y2="512.00" stroke="#9bd3ff" stroke-width="4" opacity="0.7"/><line x1="262.76" y1="442.00" x2="231.58" y2="424.00" stroke="#9bd3ff" stroke-width="4" opacity="0.7"/><line x1="314.00" y1="390.76" x2="296.00" y2="359.58" stroke="#9bd3ff" stroke-width="4" opacity="0.7"/><line x1="384.00" y1="372.00" x2="384.00" y2="336.00" stroke="#9bd3ff" stroke-width="4" opacity="0.7"/><line x1="454.00" y1="390.76" x2="472.00" y2="359.58" stroke="#9bd3ff" stroke-width="4" opacity="0.7"/><line x1="505.24" y1="442.00" x2="536.42" y2="424.00" stroke="#9bd3ff" stroke-width="4" opacity="0.7"/>
<line x1="384" y1="512" x2="466.00" y2="486.00" stroke="#c7a64a" stroke-width="8" opacity="0.9"/>
<line x1="384" y1="512" x2="342.00" y2="604.00" stroke="#9bd3ff" stroke-width="6" opacity="0.9"/>
  </g>

  <g opacity="0.8">
    <circle cx="463.97" cy="355.98" r="2.99" fill="#9bd3ff" opacity="0.41"/><circle cx="633.03" cy="271.18" r="4.82" fill="#c7a64a" opacity="0.49"/><circle cx="224.40" cy="416.83" r="4.92" fill="#9bd3ff" opacity="0.50"/><circle cx="676.18" cy="719.81" r="2.92" fill="#c7a64a" opacity="0.63"/><circle cx="563.46" cy="199.61" r="3.85" fill="#9bd3ff" opacity="0.51"/><circle cx="250.36" cy="852.29" r="2.32" fill="#c7a64a" opacity="0.69"/><circle cx="466.45" cy="778.60" r="4.64" fill="#9bd3ff" opacity="0.59"/><circle cx="374.86" cy="555.90" r="2.50" fill="#c7a64a" opacity="0.56"/><circle cx="558.80" cy="339.66" r="3.27" fill="#9bd3ff" opacity="0.52"/><circle cx="213.18" cy="662.85" r="2.25" fill="#c7a64a" opacity="0.73"/><circle cx="464.82" cy="600.22" r="4.99" fill="#9bd3ff" opacity="0.25"/><circle cx="729.16" cy="78.31" r="3.10" fill="#c7a64a" opacity="0.57"/><circle cx="636.48" cy="545.91" r="2.37" fill="#9bd3ff" opacity="0.25"/><circle cx="313.40" cy="1006.44" r="2.17" fill="#c7a64a" opacity="0.43"/><circle cx="25.09" cy="1014.54" r="3.42" fill="#9bd3ff" opacity="0.38"/><circle cx="360.55" cy="695.61" r="3.84" fill="#c7a64a" opacity="0.55"/><circle cx="679.69" cy="350.62" r="2.16" fill="#9bd3ff" opacity="0.74"/><circle cx="88.12" cy="234.02" r="4.94" fill="#c7a64a" opacity="0.51"/><circle cx="571.47" cy="709.19" r="2.02" fill="#9bd3ff" opacity="0.48"/><circle cx="619.67" cy="351.14" r="4.63" fill="#c7a64a" opacity="0.26"/><circle cx="65.19" cy="554.73" r="3.76" fill="#9bd3ff" opacity="0.25"/><circle cx="438.49" cy="358.24" r="2.62" fill="#c7a64a" opacity="0.53"/><circle cx="604.87" cy="557.79" r="3.77" fill="#9bd3ff" opacity="0.60"/><circle cx="476.53" cy="802.85" r="3.44" fill="#c7a64a" opacity="0.55"/><circle cx="673.47" cy="181.84" r="2.14" fill="#9bd3ff" opacity="0.72"/><circle cx="517.37" cy="18.34" r="4.52" fill="#c7a64a" opacity="0.71"/><circle cx="484.92" cy="32.90" r="1.64" fill="#9bd3ff" opacity="0.46"/><circle cx="244.23" cy="65.07" r="3.86" fill="#c7a64a" opacity="0.51"/>
  </g>

  <rect x="16" y="16" width="736" height="992" rx="24" stroke="url(#edge-chronomancer-c23)" stroke-width="2.5" opacity="0.85"/>
  <rect x="22" y="22" width="724" height="980" rx="20" stroke="#8aa0c4" stroke-width="2" opacity="0.74"/>

  <rect x="34" y="34" width="700" height="72" rx="14" fill="#070b14" fill-opacity="0.72" stroke="#8aa0c4" stroke-opacity="0.55"/>
  <text x="54" y="80" fill="#EAF4FF" font-family="Exo 2, Segoe UI, sans-serif" font-size="32" font-weight="700">Chronomancer</text>

  <rect x="34" y="872" width="700" height="92" rx="14" fill="#070b14" fill-opacity="0.74" stroke="#8aa0c4" stroke-opacity="0.6"/>
  <text x="54" y="924" fill="#D9E7FF" font-family="Exo 2, Segoe UI, sans-serif" font-size="30" font-weight="600">Recon Sniper</text>

  <rect x="598" y="36" width="118" height="42" rx="10" fill="#8aa0c4" fill-opacity="0.2" stroke="#8aa0c4" stroke-opacity="0.8"/>
  <text x="612" y="65" fill="#8aa0c4" font-family="Exo 2, Segoe UI, sans-serif" font-size="20" font-weight="700">COMMON</text>

  <circle cx="708" cy="954" r="26" fill="#080d18" stroke="#8aa0c4" stroke-opacity="0.8"/>
  <text x="696" y="962" fill="#E7F2FF" font-family="Exo 2, Segoe UI, sans-serif" font-size="24" font-weight="700">23</text>
</svg>