<?xml version="1.0" encoding="UTF-8"?>
<svg width="768" height="1024" viewBox="0 0 768 1024" fill="none" xmlns="http://www.w3.org/2000/svg">
  <defs>
    <linearGradient id="bg-chronomancer-c37" x1="60" y1="40" x2="728" y2="1004" gradientUnits="userSpaceOnUse">
      <stop offset="0" stop-color="#101425"/>
      <stop offset="0.55" stop-color="#2a4478"/>
      <stop offset="1" stop-color="#101425"/>
    </linearGradient>
    <radialGradient id="glow-chronomancer-c37" cx="0" cy="0" r="1" gradientUnits="userSpaceOnUse" gradientTransform="translate(560.30 698.42) rotate(90) scale(288.11 288.11)">
      <stop stop-color="#c7a64a" stop-opacity="0.45"/>
      <stop offset="1" stop-color="#c7a64a" stop-opacity="0"/>
    </radialGradient>
    <linearGradient id="edge-chronomancer-c37" x1="0" y1="0" x2="768" y2="1024" gradientUnits="userSpaceOnUse">
      <stop stop-color="#c7a64a" stop-opacity="0.85"/>
      <stop offset="1" stop-color="#9bd3ff" stop-opacity="0.85"/>
    </linearGradient>
  </defs>

  <rect x="0" y="0" width="768" height="1024" rx="32" fill="#060910"/>
  <rect x="16" y="16" width="736" height="992" rx="24" fill="url(#bg-chronomancer-c37)"/>
  <rect x="16" y="16" width="736" height="992" rx="24" fill="url(#glow-chronomancer-c37)"/>

  <g opacity="0.88">
    <circle cx="384" cy="512" r="184" fill="none" stroke="#c7a64a" stroke-width="8" opacity="0.72"/>
<circle cx="384" cy="512" r="132" fill="none" stroke="#9bd3ff" stroke-width="4" opacity="0.76"/>
<line x1="524.00" y1="512.00" x2="560.00" y2="512.00" stroke="#9bd3ff" stroke-width="4" opacity="0.7"/><line x1="505.24" y1="582.00" x2="536.42" y2="600.00" stroke="#9bd3ff" stroke-width="4" opacity="0.7"/><line x1="454.00" y1="633.24" x2="472.00" y2="664.42" stroke="#9bd3ff" stroke-width="4" opacity="0.7"/><line x1="384.00" y1="652.00" x2="384.00" y2="688.00" stroke="#9bd3ff" stroke-width="4" opacity="0.7"/><line x1="314.00" y1="633.24" x2="296.00" y2="664.42" stroke="#9bd3ff" stroke-width="4" opacity="0.7"/><line x1="262.76" y1="582.00" x2="231.58" y2="600.00" stroke="#9bd3ff" stroke-width="4" opacity="0.7"/><line x1="244.00" y1="512.00" x2="208.00" y2="512.00" stroke="#9bd3ff" stroke-width="4" opacity="0.7"/><line x1="262.76" y1="442.00" x2="231.58" y2="424.00" stroke="#9bd3ff" stroke-width="4" opacity="0.7"/><line x1="314.00" y1="390.76" x2="296.00" y2="359.58" stroke="#9bd3ff" stroke-width="4" opacity="0.7"/><line x1="384.00" y1="372.00" x2="384.00" y2="336.00" stroke="#9bd3ff" stroke-width="4" opacity="0.7"/><line x1="454.00" y1="390.76" x2="472.00" y2="359.58" stroke="#9bd3ff" stroke-width="4" opacity="0.7"/><line x1="505.24" y1="442.00" x2="536.42" y2="424.00" stroke="#9bd3ff" stroke-width="4" opacity="0.7"/>
<line x1="384" y1="512" x2="466.00" y2="486.00" stroke="#c7a64a" stroke-width="8" opacity="0.9"/>
<line x1="384" y1="512" x2="342.00" y2="604.00" stroke="#9bd3ff" stroke-width="6" opacity="0.9"/>
  </g>

  <g opacity="0.8">
    <circle cx="323.62" cy="1006.15" r="2.17" fill="#9bd3ff" opacity="0.42"/><circle cx="354.38" cy="304.64" r="1.38" fill="#c7a64a" opacity="0.30"/><circle cx="663.22" cy="821.27" r="2.94" fill="#9bd3ff" opacity="0.43"/><circle cx="407.57" cy="649.28" r="1.66" fill="#c7a64a" opacity="0.64"/><circle cx="212.52" cy="702.64" r="1.95" fill="#9bd3ff" opacity="0.44"/><circle cx="610.39" cy="569.29" r="3.84" fill="#c7a64a" opacity="0.49"/><circle cx="249.46" cy="128.23" r="2.20" fill="#9bd3ff" opacity="0.55"/><circle cx="252.85" cy="450.74" r="3.38" fill="#c7a64a" opacity="0.73"/><circle cx="619.81" cy="639.41" r="2.35" fill="#9bd3ff" opacity="0.29"/><circle cx="611.76" cy="163.21" r="2.56" fill="#c7a64a" opacity="0.47"/><circle cx="683.47" cy="350.16" r="2.64" fill="#9bd3ff" opacity="0.41"/><circle cx="664.70" cy="117.17" r="1.91" fill="#c7a64a" opacity="0.29"/><circle cx="544.20" cy="863.54" r="3.10" fill="#9bd3ff" opacity="0.33"/><circle cx="392.65" cy="780.70" r="1.66" fill="#c7a64a" opacity="0.38"/><circle cx="359.66" cy="304.31" r="3.25" fill="#9bd3ff" opacity="0.66"/><circle cx="696.54" cy="11.57" r="3.29" fill="#c7a64a" opacity="0.38"/><circle cx="99.40" cy="689.42" r="3.78" fill="#9bd3ff" opacity="0.42"/><circle cx="577.04" cy="382.57" r="2.82" fill="#c7a64a" opacity="0.60"/><circle cx="545.52" cy="649.94" r="3.79" fill="#9bd3ff" opacity="0.57"/><circle cx="486.59" cy="448.27" r="2.21" fill="#c7a64a" opacity="0.36"/><circle cx="165.12" cy="845.95" r="3.27" fill="#9bd3ff" opacity="0.49"/><circle cx="546.61" cy="16.11" r="2.49" fill="#c7a64a" opacity="0.60"/><circle cx="115.32" cy="291.28" r="2.42" fill="#9bd3ff" opacity="0.49"/><circle cx="572.10" cy="869.56" r="1.62" fill="#c7a64a" opacity="0.32"/><circle cx="61.52" cy="620.39" r="3.39" fill="#9bd3ff" opacity="0.65"/><circle cx="651.96" cy="301.74" r="2.48" fill="#c7a64a" opacity="0.35"/><circle cx="256.28" cy="165.19" r="4.47" fill="#9bd3ff" opacity="0.44"/><circle cx="673.79" cy="971.21" r="3.72" fill="#c7a64a" opacity="0.52"/>
  </g>

  <rect x="16" y="16" width="736" height="992" rx="24" stroke="url(#edge-chronomancer-c37)" stroke-width="2.5" opacity="0.85"/>
  <rect x="22" y="22" width="724" height="980" rx="20" stroke="#78d8ff" stroke-width="2" opacity="0.74"/>

  <rect x="34" y="34" width="700" height="72" rx="14" fill="#070b14" fill-opacity="0.72" stroke="#78d8ff" stroke-opacity="0.55"/>
  <text x="54" y="80" fill="#EAF4FF" font-family="Exo 2, Segoe UI, sans-serif" font-size="32" font-weight="700">Chronomancer</text>

  <rect x="34" y="872" width="700" height="92" rx="14" fill="#070b14" fill-opacity="0.74" stroke="#78d8ff" stroke-opacity="0.6"/>
  <text x="54" y="924" fill="#D9E7FF" font-family="Exo 2, Segoe UI, sans-serif" font-size="30" font-weight="600">Debilitate</text>

  <rect x="598" y="36" width="118" height="42" rx="10" fill="#78d8ff" fill-opacity="0.2" stroke="#78d8ff" stroke-opacity="0.8"/>
  <text x="612" y="65" fill="#78d8ff" font-family="Exo 2, Segoe UI, sans-serif" font-size="20" font-weight="700">RARE</text>

  <circle cx="708" cy="954" r="26" fill="#080d18" stroke="#78d8ff" stroke-opacity="0.8"/>
  <text x="696" y="962" fill="#E7F2FF" font-family="Exo 2, Segoe UI, sans-serif" font-size="24" font-weight="700">37</text>
</svg>