<?xml version="1.0" encoding="UTF-8"?>
<svg width="768" height="1024" viewBox="0 0 768 1024" fill="none" xmlns="http://www.w3.org/2000/svg">
  <defs>
    <linearGradient id="bg-chronomancer-c24" x1="60" y1="40" x2="728" y2="1004" gradientUnits="userSpaceOnUse">
      <stop offset="0" stop-color="#101425"/>
      <stop offset="0.55" stop-color="#2a4478"/>
      <stop offset="1" stop-color="#101425"/>
    </linearGradient>
    <radialGradient id="glow-chronomancer-c24" cx="0" cy="0" r="1" gradientUnits="userSpaceOnUse" gradientTransform="translate(636.51 389.32) rotate(90) scale(282.40 282.40)">
      <stop stop-color="#c7a64a" stop-opacity="0.45"/>
      <stop offset="1" stop-color="#c7a64a" stop-opacity="0"/>
    </radialGradient>
    <linearGradient id="edge-chronomancer-c24" x1="0" y1="0" x2="768" y2="1024" gradientUnits="userSpaceOnUse">
      <stop stop-color="#c7a64a" stop-opacity="0.85"/>
      <stop offset="1" stop-color="#9bd3ff" stop-opacity="0.85"/>
    </linearGradient>
  </defs>

  <rect x="0" y="0" width="768" height="1024" rx="32" fill="#060910"/>
  <rect x="16" y="16" width="736" height="992" rx="24" fill="url(#bg-chronomancer-c24)"/>
  <rect x="16" y="16" width="736" height="992" rx="24" fill="url(#glow-chronomancer-c24)"/>

  <g opacity="0.88">
    <circle cx="384" cy="512" r="184" fill="none" stroke="#c7a64a" stroke-width="8" opacity="0.72"/>
<circle cx="384" cy="512" r="132" fill="none" stroke="#9bd3ff" stroke-width="4" opacity="0.76"/>
<line x1="524.00" y1="512.00" x2="560.00" y2="512.00" stroke="#9bd3ff" stroke-width="4" opacity="0.7"/><line x1="505.24" y1="582.00" x2="536.42" y2="600.00" stroke="#9bd3ff" stroke-width="4" opacity="0.7"/><line x1="454.00" y1="633.24" x2="472.00" y2="664.42" stroke="#9bd3ff" stroke-width="4" opacity="0.7"/><line x1="384.00" y1="652.00" x2="384.00" y2="688.00" stroke="#9bd3ff" stroke-width="4" opacity="0.7"/><line x1="314.00" y1="633.24" x2="296.00" y2="664.42" stroke="#9bd3ff" stroke-width="4" opacity="0.7"/><line x1="262.76" y1="582.00" x2="231.58" y2="600.00" stroke="#9bd3ff" stroke-width="4" opacity="0.7"/><line x1="244.00" y1="512.00" x2="208.00" y2="512.00" stroke="#9bd3ff" stroke-width="4" opacity="0.7"/><line x1="262.76" y1="442.00" x2="231.58" y2="424.00" stroke="#9bd3ff" stroke-width="4" opacity="0.7"/><line x1="314.00" y1="390.76" x2="296.00" y2="359.58" stroke="#9bd3ff" stroke-width="4" opacity="0.7"/><line x1="384.00" y1="372.00" x2="384.00" y2="336.00" stroke="#9bd3ff" stroke-width="4" opacity="0.7"/><line x1="454.00" y1="390.76" x2="472.00" y2="359.58" stroke="#9bd3ff" stroke-width="4" opacity="0.7"/><line x1="505.24" y1="442.00" x2="536.42" y2="424.00" stroke="#9bd3ff" stroke-width="4" opacity="0.7"/>
<line x1="384" y1="512" x2="466.00" y2="486.00" stroke="#c7a64a" stroke-width="8" opacity="0.9"/>
<line x1="384" y1="512" x2="342.00" y2="604.00" stroke="#9bd3ff" stroke-width="6" opacity="0.9"/>
  </g>

  <g opacity="0.8">
    <circle cx="461.62" cy="461.13" r="1.53" fill="#9bd3ff" opacity="0.72"/><circle cx="657.54" cy="240.92" r="4.33" fill="#c7a64a" opacity="0.55"/><circle cx="155.56" cy="249.82" r="2.31" fill="#9bd3ff" opacity="0.55"/><circle cx="726.62" cy="804.04" r="2.54" fill="#c7a64a" opacity="0.43"/><circle cx="145.16" cy="314.47" r="2.23" fill="#9bd3ff" opacity="0.37"/><circle cx="642.00" cy="567.78" r="4.05" fill="#c7a64a" opacity="0.37"/><circle cx="546.80" cy="730.19" r="4.58" fill="#9bd3ff" opacity="0.38"/><circle cx="704.92" cy="164.80" r="2.96" fill="#c7a64a" opacity="0.44"/><circle cx="258.59" cy="550.86" r="3.31" fill="#9bd3ff" opacity="0.52"/><circle cx="611.43" cy="847.54" r="4.93" fill="#c7a64a" opacity="0.51"/><circle cx="313.14" cy="114.31" r="4.10" fill="#9bd3ff" opacity="0.45"/><circle cx="318.09" cy="21.34" r="4.97" fill="#c7a64a" opacity="0.59"/><circle cx="3.63" cy="654.30" r="3.28" fill="#9bd3ff" opacity="0.25"/><circle cx="549.12" cy="833.43" r="1.92" fill="#c7a64a" opacity="0.43"/><circle cx="578.00" cy="239.02" r="3.01" fill="#9bd3ff" opacity="0.25"/><circle cx="526.90" cy="790.01" r="2.51" fill="#c7a64a" opacity="0.36"/><circle cx="593.75" cy="923.48" r="1.88" fill="#9bd3ff" opacity="0.30"/><circle cx="13.24" cy="848.57" r="4.90" fill="#c7a64a" opacity="0.32"/><circle cx="721.76" cy="400.67" r="3.33" fill="#9bd3ff" opacity="0.24"/><circle cx="152.99" cy="343.20" r="4.66" fill="#c7a64a" opacity="0.65"/><circle cx="593.13" cy="866.34" r="4.75" fill="#9bd3ff" opacity="0.42"/><circle cx="643.14" cy="783.30" r="4.93" fill="#c7a64a" opacity="0.71"/><circle cx="549.18" cy="223.16" r="3.16" fill="#9bd3ff" opacity="0.67"/><circle cx="459.11" cy="841.68" r="2.84" fill="#c7a64a" opacity="0.68"/><circle cx="153.83" cy="420.09" r="2.42" fill="#9bd3ff" opacity="0.33"/><circle cx="115.17" cy="937.61" r="4.43" fill="#c7a64a" opacity="0.57"/><circle cx="127.10" cy="132.18" r="2.39" fill="#9bd3ff" opacity="0.73"/><circle cx="442.84" cy="749.85" r="2.31" fill="#c7a64a" opacity="0.72"/>
  </g>

  <rect x="16" y="16" width="736" height="992" rx="24" stroke="url(#edge-chronomancer-c24)" stroke-width="2.5" opacity="0.85"/>
  <rect x="22" y="22" width="724" height="980" rx="20" stroke="#8aa0c4" stroke-width="2" opacity="0.74"/>

  <rect x="34" y="34" width="700" height="72" rx="14" fill="#070b14" fill-opacity="0.72" stroke="#8aa0c4" stroke-opacity="0.55"/>
  <text x="54" y="80" fill="#EAF4FF" font-family="Exo 2, Segoe UI, sans-serif" font-size="32" font-weight="700">Chronomancer</text>

  <rect x="34" y="872" width="700" height="92" rx="14" fill="#070b14" fill-opacity="0.74" stroke="#8aa0c4" stroke-opacity="0.6"/>
  <text x="54" y="924" fill="#D9E7FF" font-family="Exo 2, Segoe UI, sans-serif" font-size="30" font-weight="600">Construct Warden</text>

  <rect x="598" y="36" width="118" height="42" rx="10" fill="#8aa0c4" fill-opacity="0.2" stroke="#8aa0c4" stroke-opacity="0.8"/>
  <text x="612" y="65" fill="#8aa0c4" font-family="Exo 2, Segoe UI, sans-serif" font-size="20" font-weight="700">COMMON</text>

  <circle cx="708" cy="954" r="26" fill="#080d18" stroke="#8aa0c4" stroke-opacity="0.8"/>
  <text x="696" y="962" fill="#E7F2FF" font-family="Exo 2, Segoe UI, sans-serif" font-size="24" font-weight="700">24</text>
</svg>