<?xml version="1.0" encoding="UTF-8"?>
<svg width="768" height="1024" viewBox="0 0 768 1024" fill="none" xmlns="http://www.w3.org/2000/svg">
  <defs>
    <linearGradient id="bg-chronomancer-c13" x1="60" y1="40" x2="728" y2="1004" gradientUnits="userSpaceOnUse">
      <stop offset="0" stop-color="#101425"/>
      <stop offset="0.55" stop-color="#2a4478"/>
      <stop offset="1" stop-color="#101425"/>
    </linearGradient>
    <radialGradient id="glow-chronomancer-c13" cx="0" cy="0" r="1" gradientUnits="userSpaceOnUse" gradientTransform="translate(413.89 417.26) rotate(90) scale(236.37 236.37)">
      <stop stop-color="#c7a64a" stop-opacity="0.45"/>
      <stop offset="1" stop-color="#c7a64a" stop-opacity="0"/>
    </radialGradient>
    <linearGradient id="edge-chronomancer-c13" x1="0" y1="0" x2="768" y2="1024" gradientUnits="userSpaceOnUse">
      <stop stop-color="#c7a64a" stop-opacity="0.85"/>
      <stop offset="1" stop-color="#9bd3ff" stop-opacity="0.85"/>
    </linearGradient>
  </defs>

  <rect x="0" y="0" width="768" height="1024" rx="32" fill="#060910"/>
  <rect x="16" y="16" width="736" height="992" rx="24" fill="url(#bg-chronomancer-c13)"/>
  <rect x="16" y="16" width="736" height="992" rx="24" fill="url(#glow-chronomancer-c13)"/>

  <g opacity="0.88">
    <circle cx="384" cy="512" r="184" fill="none" stroke="#c7a64a" stroke-width="8" opacity="0.72"/>
<circle cx="384" cy="512" r="132" fill="none" stroke="#9bd3ff" stroke-width="4" opacity="0.76"/>
<line x1="524.00" y1="512.00" x2="560.00" y2="512.00" stroke="#9bd3ff" stroke-width="4" opacity="0.7"/><line x1="505.24" y1="582.00" x2="536.42" y2="600.00" stroke="#9bd3ff" stroke-width="4" opacity="0.7"/><line x1="454.00" y1="633.24" x2="472.00" y2="664.42" stroke="#9bd3ff" stroke-width="4" opacity="0.7"/><line x1="384.00" y1="652.00" x2="384.00" y2="688.00" stroke="#9bd3ff" stroke-width="4" opacity="0.7"/><line x1="314.00" y1="633.24" x2="296.00" y2="664.42" stroke="#9bd3ff" stroke-width="4" opacity="0.7"/><line x1="262.76" y1="582.00" x2="231.58" y2="600.00" stroke="#9bd3ff" stroke-width="4" opacity="0.7"/><line x1="244.00" y1="512.00" x2="208.00" y2="512.00" stroke="#9bd3ff" stroke-width="4" opacity="0.7"/><line x1="262.76" y1="442.00" x2="231.58" y2="424.00" stroke="#9bd3ff" stroke-width="4" opacity="0.7"/><line x1="314.00" y1="390.76" x2="296.00" y2="359.58" stroke="#9bd3ff" stroke-width="4" opacity="0.7"/><line x1="384.00" y1="372.00" x2="384.00" y2="336.00" stroke="#9bd3ff" stroke-width="4" opacity="0.7"/><line x1="454.00" y1="390.76" x2="472.00" y2="359.58" stroke="#9bd3ff" stroke-width="4" opacity="0.7"/><line x1="505.24" y1="442.00" x2="536.42" y2="424.00" stroke="#9bd3ff" stroke-width="4" opacity="0.7"/>
<line x1="384" y1="512" x2="466.00" y2="486.00" stroke="#c7a64a" stroke-width="8" opacity="0.9"/>
<line x1="384" y1="512" x2="342.00" y2="604.00" stroke="#9bd3ff" stroke-width="6" opacity="0.9"/>
  </g>

  <g opacity="0.8">
    <circle cx="383.71" cy="581.60" r="3.78" fill="#9bd3ff" opacity="0.38"/><circle cx="345.43" cy="653.05" r="1.26" fill="#c7a64a" opacity="0.36"/><circle cx="223.23" cy="459.46" r="4.20" fill="#9bd3ff" opacity="0.48"/><circle cx="179.02" cy="845.83" r="2.82" fill="#c7a64a" opacity="0.41"/><circle cx="408.34" cy="445.69" r="1.51" fill="#9bd3ff" opacity="0.55"/><circle cx="464.15" cy="852.11" r="2.88" fill="#c7a64a" opacity="0.28"/><circle cx="113.59" cy="427.21" r="2.48" fill="#9bd3ff" opacity="0.29"/><circle cx="596.91" cy="565.67" r="1.37" fill="#c7a64a" opacity="0.67"/><circle cx="348.17" cy="1010.39" r="3.81" fill="#9bd3ff" opacity="0.67"/><circle cx="156.72" cy="218.43" r="2.97" fill="#c7a64a" opacity="0.42"/><circle cx="421.32" cy="966.37" r="2.33" fill="#9bd3ff" opacity="0.60"/><circle cx="740.45" cy="1023.21" r="4.32" fill="#c7a64a" opacity="0.51"/><circle cx="271.79" cy="229.43" r="4.87" fill="#9bd3ff" opacity="0.48"/><circle cx="472.65" cy="573.41" r="2.72" fill="#c7a64a" opacity="0.31"/><circle cx="735.84" cy="894.62" r="4.73" fill="#9bd3ff" opacity="0.72"/><circle cx="414.43" cy="907.17" r="1.37" fill="#c7a64a" opacity="0.54"/><circle cx="165.29" cy="913.63" r="4.48" fill="#9bd3ff" opacity="0.35"/><circle cx="716.12" cy="953.09" r="1.52" fill="#c7a64a" opacity="0.56"/><circle cx="88.24" cy="362.24" r="2.85" fill="#9bd3ff" opacity="0.37"/><circle cx="67.60" cy="372.59" r="2.31" fill="#c7a64a" opacity="0.59"/><circle cx="550.27" cy="821.58" r="3.79" fill="#9bd3ff" opacity="0.48"/><circle cx="732.95" cy="306.19" r="4.38" fill="#c7a64a" opacity="0.27"/><circle cx="576.23" cy="530.71" r="3.00" fill="#9bd3ff" opacity="0.34"/><circle cx="90.31" cy="1017.07" r="4.75" fill="#c7a64a" opacity="0.41"/><circle cx="580.85" cy="957.84" r="4.76" fill="#9bd3ff" opacity="0.39"/><circle cx="522.63" cy="742.72" r="4.37" fill="#c7a64a" opacity="0.64"/><circle cx="160.78" cy="174.94" r="4.71" fill="#9bd3ff" opacity="0.36"/><circle cx="173.97" cy="24.93" r="2.94" fill="#c7a64a" opacity="0.51"/>
  </g>

  <rect x="16" y="16" width="736" height="992" rx="24" stroke="url(#edge-chronomancer-c13)" stroke-width="2.5" opacity="0.85"/>
  <rect x="22" y="22" width="724" height="980" rx="20" stroke="#8aa0c4" stroke-width="2" opacity="0.74"/>

  <rect x="34" y="34" width="700" height="72" rx="14" fill="#070b14" fill-opacity="0.72" stroke="#8aa0c4" stroke-opacity="0.55"/>
  <text x="54" y="80" fill="#EAF4FF" font-family="Exo 2, Segoe UI, sans-serif" font-size="32" font-weight="700">Chronomancer</text>

  <rect x="34" y="872" width="700" height="92" rx="14" fill="#070b14" fill-opacity="0.74" stroke="#8aa0c4" stroke-opacity="0.6"/>
  <text x="54" y="924" fill="#D9E7FF" font-family="Exo 2, Segoe UI, sans-serif" font-size="30" font-weight="600">Ambusher</text>

  <rect x="598" y="36" width="118" height="42" rx="10" fill="#8aa0c4" fill-opacity="0.2" stroke="#8aa0c4" stroke-opacity="0.8"/>
  <text x="612" y="65" fill="#8aa0c4" font-family="Exo 2, Segoe UI, sans-serif" font-size="20" font-weight="700">COMMON</text>

  <circle cx="708" cy="954" r="26" fill="#080d18" stroke="#8aa0c4" stroke-opacity="0.8"/>
  <text x="696" y="962" fill="#E7F2FF" font-family="Exo 2, Segoe UI, sans-serif" font-size="24" font-weight="700">13</text>
</svg>