<?xml version="1.0" encoding="UTF-8"?>
<svg width="768" height="1024" viewBox="0 0 768 1024" fill="none" xmlns="http://www.w3.org/2000/svg">
  <defs>
    <linearGradient id="bg-chronomancer-c07" x1="60" y1="40" x2="728" y2="1004" gradientUnits="userSpaceOnUse">
      <stop offset="0" stop-color="#101425"/>
      <stop offset="0.55" stop-color="#2a4478"/>
      <stop offset="1" stop-color="#101425"/>
    </linearGradient>
    <radialGradient id="glow-chronomancer-c07" cx="0" cy="0" r="1" gradientUnits="userSpaceOnUse" gradientTransform="translate(392.82 245.84) rotate(90) scale(232.55 232.55)">
      <stop stop-color="#c7a64a" stop-opacity="0.45"/>
      <stop offset="1" stop-color="#c7a64a" stop-opacity="0"/>
    </radialGradient>
    <linearGradient id="edge-chronomancer-c07" x1="0" y1="0" x2="768" y2="1024" gradientUnits="userSpaceOnUse">
      <stop stop-color="#c7a64a" stop-opacity="0.85"/>
      <stop offset="1" stop-color="#9bd3ff" stop-opacity="0.85"/>
    </linearGradient>
  </defs>

  <rect x="0" y="0" width="768" height="1024" rx="32" fill="#060910"/>
  <rect x="16" y="16" width="736" height="992" rx="24" fill="url(#bg-chronomancer-c07)"/>
  <rect x="16" y="16" width="736" height="992" rx="24" fill="url(#glow-chronomancer-c07)"/>

  <g opacity="0.88">
    <circle cx="384" cy="512" r="184" fill="none" stroke="#c7a64a" stroke-width="8" opacity="0.72"/>
<circle cx="384" cy="512" r="132" fill="none" stroke="#9bd3ff" stroke-width="4" opacity="0.76"/>
<line x1="524.00" y1="512.00" x2="560.00" y2="512.00" stroke="#9bd3ff" stroke-width="4" opacity="0.7"/><line x1="505.24" y1="582.00" x2="536.42" y2="600.00" stroke="#9bd3ff" stroke-width="4" opacity="0.7"/><line x1="454.00" y1="633.24" x2="472.00" y2="664.42" stroke="#9bd3ff" stroke-width="4" opacity="0.7"/><line x1="384.00" y1="652.00" x2="384.00" y2="688.00" stroke="#9bd3ff" stroke-width="4" opacity="0.7"/><line x1="314.00" y1="633.24" x2="296.00" y2="664.42" stroke="#9bd3ff" stroke-width="4" opacity="0.7"/><line x1="262.76" y1="582.00" x2="231.58" y2="600.00" stroke="#9bd3ff" stroke-width="4" opacity="0.7"/><line x1="244.00" y1="512.00" x2="208.00" y2="512.00" stroke="#9bd3ff" stroke-width="4" opacity="0.7"/><line x1="262.76" y1="442.00" x2="231.58" y2="424.00" stroke="#9bd3ff" stroke-width="4" opacity="0.7"/><line x1="314.00" y1="390.76" x2="296.00" y2="359.58" stroke="#9bd3ff" stroke-width="4" opacity="0.7"/><line x1="384.00" y1="372.00" x2="384.00" y2="336.00" stroke="#9bd3ff" stroke-width="4" opacity="0.7"/><line x1="454.00" y1="390.76" x2="472.00" y2="359.58" stroke="#9bd3ff" stroke-width="4" opacity="0.7"/><line x1="505.24" y1="442.00" x2="536.42" y2="424.00" stroke="#9bd3ff" stroke-width="4" opacity="0.7"/>
<line x1="384" y1="512" x2="466.00" y2="486.00" stroke="#c7a64a" stroke-width="8" opacity="0.9"/>
<line x1="384" y1="512" x2="342.00" y2="604.00" stroke="#9bd3ff" stroke-width="6" opacity="0.9"/>
  </g>

  <g opacity="0.8">
    <circle cx="445.53" cy="922.37" r="3.57" fill="#9bd3ff" opacity="0.46"/><circle cx="227.69" cy="273.16" r="1.63" fill="#c7a64a" opacity="0.55"/><circle cx="320.91" cy="521.48" r="3.29" fill="#9bd3ff" opacity="0.27"/><circle cx="263.51" cy="746.92" r="2.13" fill="#c7a64a" opacity="0.39"/><circle cx="14.16" cy="581.84" r="3.49" fill="#9bd3ff" opacity="0.35"/><circle cx="252.65" cy="544.82" r="3.82" fill="#c7a64a" opacity="0.31"/><circle cx="37.79" cy="119.39" r="2.83" fill="#9bd3ff" opacity="0.27"/><circle cx="496.62" cy="560.34" r="3.79" fill="#c7a64a" opacity="0.66"/><circle cx="292.63" cy="553.57" r="3.60" fill="#9bd3ff" opacity="0.57"/><circle cx="455.91" cy="349.12" r="3.58" fill="#c7a64a" opacity="0.52"/><circle cx="739.64" cy="964.23" r="3.85" fill="#9bd3ff" opacity="0.26"/><circle cx="289.84" cy="947.56" r="4.11" fill="#c7a64a" opacity="0.34"/><circle cx="289.66" cy="848.02" r="3.41" fill="#9bd3ff" opacity="0.63"/><circle cx="733.66" cy="1019.95" r="4.52" fill="#c7a64a" opacity="0.25"/><circle cx="740.57" cy="124.58" r="4.20" fill="#9bd3ff" opacity="0.43"/><circle cx="574.61" cy="310.02" r="1.37" fill="#c7a64a" opacity="0.42"/><circle cx="659.78" cy="220.62" r="2.05" fill="#9bd3ff" opacity="0.43"/><circle cx="73.59" cy="319.26" r="4.88" fill="#c7a64a" opacity="0.53"/><circle cx="96.85" cy="14.34" r="1.94" fill="#9bd3ff" opacity="0.31"/><circle cx="220.89" cy="854.17" r="4.28" fill="#c7a64a" opacity="0.31"/><circle cx="426.31" cy="917.43" r="2.67" fill="#9bd3ff" opacity="0.56"/><circle cx="609.36" cy="73.92" r="2.05" fill="#c7a64a" opacity="0.27"/><circle cx="16.83" cy="857.13" r="1.55" fill="#9bd3ff" opacity="0.60"/><circle cx="254.46" cy="407.11" r="1.54" fill="#c7a64a" opacity="0.39"/><circle cx="502.42" cy="126.80" r="2.71" fill="#9bd3ff" opacity="0.35"/><circle cx="698.66" cy="502.57" r="2.25" fill="#c7a64a" opacity="0.63"/><circle cx="86.42" cy="980.91" r="3.49" fill="#9bd3ff" opacity="0.55"/><circle cx="513.76" cy="175.62" r="4.07" fill="#c7a64a" opacity="0.38"/>
  </g>

  <rect x="16" y="16" width="736" height="992" rx="24" stroke="url(#edge-chronomancer-c07)" stroke-width="2.5" opacity="0.85"/>
  <rect x="22" y="22" width="724" height="980" rx="20" stroke="#8aa0c4" stroke-width="2" opacity="0.74"/>

  <rect x="34" y="34" width="700" height="72" rx="14" fill="#070b14" fill-opacity="0.72" stroke="#8aa0c4" stroke-opacity="0.55"/>
  <text x="54" y="80" fill="#EAF4FF" font-family="Exo 2, Segoe UI, sans-serif" font-size="32" font-weight="700">Chronomancer</text>

  <rect x="34" y="872" width="700" height="92" rx="14" fill="#070b14" fill-opacity="0.74" stroke="#8aa0c4" stroke-opacity="0.6"/>
  <text x="54" y="924" fill="#D9E7FF" font-family="Exo 2, Segoe UI, sans-serif" font-size="30" font-weight="600">Medic</text>

  <rect x="598" y="36" width="118" height="42" rx="10" fill="#8aa0c4" fill-opacity="0.2" stroke="#8aa0c4" stroke-opacity="0.8"/>
  <text x="612" y="65" fill="#8aa0c4" font-family="Exo 2, Segoe UI, sans-serif" font-size="20" font-weight="700">COMMON</text>

  <circle cx="708" cy="954" r="26" fill="#080d18" stroke="#8aa0c4" stroke-opacity="0.8"/>
  <text x="696" y="962" fill="#E7F2FF" font-family="Exo 2, Segoe UI, sans-serif" font-size="24" font-weight="700">07</text>
</svg>