<?xml version="1.0" encoding="UTF-8"?>
<svg width="768" height="1024" viewBox="0 0 768 1024" fill="none" xmlns="http://www.w3.org/2000/svg">
  <defs>
    <linearGradient id="bg-chronomancer-c33" x1="60" y1="40" x2="728" y2="1004" gradientUnits="userSpaceOnUse">
      <stop offset="0" stop-color="#101425"/>
      <stop offset="0.55" stop-color="#2a4478"/>
      <stop offset="1" stop-color="#101425"/>
    </linearGradient>
    <radialGradient id="glow-chronomancer-c33" cx="0" cy="0" r="1" gradientUnits="userSpaceOnUse" gradientTransform="translate(375.42 330.05) rotate(90) scale(188.90 188.90)">
      <stop stop-color="#c7a64a" stop-opacity="0.45"/>
      <stop offset="1" stop-color="#c7a64a" stop-opacity="0"/>
    </radialGradient>
    <linearGradient id="edge-chronomancer-c33" x1="0" y1="0" x2="768" y2="1024" gradientUnits="userSpaceOnUse">
      <stop stop-color="#c7a64a" stop-opacity="0.85"/>
      <stop offset="1" stop-color="#9bd3ff" stop-opacity="0.85"/>
    </linearGradient>
  </defs>

  <rect x="0" y="0" width="768" height="1024" rx="32" fill="#060910"/>
  <rect x="16" y="16" width="736" height="992" rx="24" fill="url(#bg-chronomancer-c33)"/>
  <rect x="16" y="16" width="736" height="992" rx="24" fill="url(#glow-chronomancer-c33)"/>

  <g opacity="0.88">
    <circle cx="384" cy="512" r="184" fill="none" stroke="#c7a64a" stroke-width="8" opacity="0.72"/>
<circle cx="384" cy="512" r="132" fill="none" stroke="#9bd3ff" stroke-width="4" opacity="0.76"/>
<line x1="524.00" y1="512.00" x2="560.00" y2="512.00" stroke="#9bd3ff" stroke-width="4" opacity="0.7"/><line x1="505.24" y1="582.00" x2="536.42" y2="600.00" stroke="#9bd3ff" stroke-width="4" opacity="0.7"/><line x1="454.00" y1="633.24" x2="472.00" y2="664.42" stroke="#9bd3ff" stroke-width="4" opacity="0.7"/><line x1="384.00" y1="652.00" x2="384.00" y2="688.00" stroke="#9bd3ff" stroke-width="4" opacity="0.7"/><line x1="314.00" y1="633.24" x2="296.00" y2="664.42" stroke="#9bd3ff" stroke-width="4" opacity="0.7"/><line x1="262.76" y1="582.00" x2="231.58" y2="600.00" stroke="#9bd3ff" stroke-width="4" opacity="0.7"/><line x1="244.00" y1="512.00" x2="208.00" y2="512.00" stroke="#9bd3ff" stroke-width="4" opacity="0.7"/><line x1="262.76" y1="442.00" x2="231.58" y2="424.00" stroke="#9bd3ff" stroke-width="4" opacity="0.7"/><line x1="314.00" y1="390.76" x2="296.00" y2="359.58" stroke="#9bd3ff" stroke-width="4" opacity="0.7"/><line x1="384.00" y1="372.00" x2="384.00" y2="336.00" stroke="#9bd3ff" stroke-width="4" opacity="0.7"/><line x1="454.00" y1="390.76" x2="472.00" y2="359.58" stroke="#9bd3ff" stroke-width="4" opacity="0.7"/><line x1="505.24" y1="442.00" x2="536.42" y2="424.00" stroke="#9bd3ff" stroke-width="4" opacity="0.7"/>
<line x1="384" y1="512" x2="466.00" y2="486.00" stroke="#c7a64a" stroke-width="8" opacity="0.9"/>
<line x1="384" y1="512" x2="342.00" y2="604.00" stroke="#9bd3ff" stroke-width="6" opacity="0.9"/>
  </g>

  <g opacity="0.8">
    <circle cx="294.03" cy="198.15" r="2.75" fill="#9bd3ff" opacity="0.53"/><circle cx="384.50" cy="422.91" r="2.99" fill="#c7a64a" opacity="0.27"/><circle cx="723.01" cy="257.51" r="1.88" fill="#9bd3ff" opacity="0.26"/><circle cx="234.61" cy="847.83" r="1.96" fill="#c7a64a" opacity="0.36"/><circle cx="272.09" cy="917.47" r="3.11" fill="#9bd3ff" opacity="0.45"/><circle cx="354.94" cy="774.52" r="3.53" fill="#c7a64a" opacity="0.35"/><circle cx="722.80" cy="868.49" r="4.61" fill="#9bd3ff" opacity="0.29"/><circle cx="702.56" cy="434.36" r="3.62" fill="#c7a64a" opacity="0.60"/><circle cx="153.16" cy="911.33" r="4.45" fill="#9bd3ff" opacity="0.53"/><circle cx="372.71" cy="741.35" r="2.14" fill="#c7a64a" opacity="0.62"/><circle cx="602.03" cy="431.04" r="4.87" fill="#9bd3ff" opacity="0.49"/><circle cx="718.85" cy="54.56" r="2.75" fill="#c7a64a" opacity="0.57"/><circle cx="507.51" cy="61.43" r="1.70" fill="#9bd3ff" opacity="0.63"/><circle cx="277.21" cy="827.97" r="1.82" fill="#c7a64a" opacity="0.57"/><circle cx="428.87" cy="148.13" r="1.73" fill="#9bd3ff" opacity="0.33"/><circle cx="269.15" cy="459.30" r="2.65" fill="#c7a64a" opacity="0.65"/><circle cx="152.32" cy="671.94" r="2.03" fill="#9bd3ff" opacity="0.48"/><circle cx="559.82" cy="732.99" r="4.07" fill="#c7a64a" opacity="0.34"/><circle cx="307.88" cy="607.75" r="4.14" fill="#9bd3ff" opacity="0.42"/><circle cx="249.51" cy="870.44" r="2.98" fill="#c7a64a" opacity="0.51"/><circle cx="675.31" cy="992.72" r="4.85" fill="#9bd3ff" opacity="0.45"/><circle cx="640.06" cy="510.69" r="4.32" fill="#c7a64a" opacity="0.50"/><circle cx="612.35" cy="161.50" r="4.59" fill="#9bd3ff" opacity="0.41"/><circle cx="74.19" cy="742.88" r="2.87" fill="#c7a64a" opacity="0.53"/><circle cx="605.63" cy="639.19" r="4.63" fill="#9bd3ff" opacity="0.26"/><circle cx="184.12" cy="428.84" r="3.41" fill="#c7a64a" opacity="0.57"/><circle cx="333.88" cy="830.79" r="1.21" fill="#9bd3ff" opacity="0.45"/><circle cx="270.40" cy="808.65" r="4.06" fill="#c7a64a" opacity="0.48"/>
  </g>

  <rect x="16" y="16" width="736" height="992" rx="24" stroke="url(#edge-chronomancer-c33)" stroke-width="2.5" opacity="0.85"/>
  <rect x="22" y="22" width="724" height="980" rx="20" stroke="#78d8ff" stroke-width="2" opacity="0.74"/>

  <rect x="34" y="34" width="700" height="72" rx="14" fill="#070b14" fill-opacity="0.72" stroke="#78d8ff" stroke-opacity="0.55"/>
  <text x="54" y="80" fill="#EAF4FF" font-family="Exo 2, Segoe UI, sans-serif" font-size="32" font-weight="700">Chronomancer</text>

  <rect x="34" y="872" width="700" height="92" rx="14" fill="#070b14" fill-opacity="0.74" stroke="#78d8ff" stroke-opacity="0.6"/>
  <text x="54" y="924" fill="#D9E7FF" font-family="Exo 2, Segoe UI, sans-serif" font-size="30" font-weight="600">Simple Buff</text>

  <rect x="598" y="36" width="118" height="42" rx="10" fill="#78d8ff" fill-opacity="0.2" stroke="#78d8ff" stroke-opacity="0.8"/>
  <text x="612" y="65" fill="#78d8ff" font-family="Exo 2, Segoe UI, sans-serif" font-size="20" font-weight="700">RARE</text>

  <circle cx="708" cy="954" r="26" fill="#080d18" stroke="#78d8ff" stroke-opacity="0.8"/>
  <text x="696" y="962" fill="#E7F2FF" font-family="Exo 2, Segoe UI, sans-serif" font-size="24" font-weight="700">33</text>
</svg>