<?xml version="1.0" encoding="UTF-8"?>
<svg width="768" height="1024" viewBox="0 0 768 1024" fill="none" xmlns="http://www.w3.org/2000/svg">
  <defs>
    <linearGradient id="bg-chronomancer-c44" x1="60" y1="40" x2="728" y2="1004" gradientUnits="userSpaceOnUse">
      <stop offset="0" stop-color="#101425"/>
      <stop offset="0.55" stop-color="#2a4478"/>
      <stop offset="1" stop-color="#101425"/>
    </linearGradient>
    <radialGradient id="glow-chronomancer-c44" cx="0" cy="0" r="1" gradientUnits="userSpaceOnUse" gradientTransform="translate(262.09 515.42) rotate(90) scale(203.92 203.92)">
      <stop stop-color="#c7a64a" stop-opacity="0.45"/>
      <stop offset="1" stop-color="#c7a64a" stop-opacity="0"/>
    </radialGradient>
    <linearGradient id="edge-chronomancer-c44" x1="0" y1="0" x2="768" y2="1024" gradientUnits="userSpaceOnUse">
      <stop stop-color="#c7a64a" stop-opacity="0.85"/>
      <stop offset="1" stop-color="#9bd3ff" stop-opacity="0.85"/>
    </linearGradient>
  </defs>

  <rect x="0" y="0" width="768" height="1024" rx="32" fill="#060910"/>
  <rect x="16" y="16" width="736" height="992" rx="24" fill="url(#bg-chronomancer-c44)"/>
  <rect x="16" y="16" width="736" height="992" rx="24" fill="url(#glow-chronomancer-c44)"/>

  <g opacity="0.88">
    <circle cx="384" cy="512" r="184" fill="none" stroke="#c7a64a" stroke-width="8" opacity="0.72"/>
<circle cx="384" cy="512" r="132" fill="none" stroke="#9bd3ff" stroke-width="4" opacity="0.76"/>
<line x1="524.00" y1="512.00" x2="560.00" y2="512.00" stroke="#9bd3ff" stroke-width="4" opacity="0.7"/><line x1="505.24" y1="582.00" x2="536.42" y2="600.00" stroke="#9bd3ff" stroke-width="4" opacity="0.7"/><line x1="454.00" y1="633.24" x2="472.00" y2="664.42" stroke="#9bd3ff" stroke-width="4" opacity="0.7"/><line x1="384.00" y1="652.00" x2="384.00" y2="688.00" stroke="#9bd3ff" stroke-width="4" opacity="0.7"/><line x1="314.00" y1="633.24" x2="296.00" y2="664.42" stroke="#9bd3ff" stroke-width="4" opacity="0.7"/><line x1="262.76" y1="582.00" x2="231.58" y2="600.00" stroke="#9bd3ff" stroke-width="4" opacity="0.7"/><line x1="244.00" y1="512.00" x2="208.00" y2="512.00" stroke="#9bd3ff" stroke-width="4" opacity="0.7"/><line x1="262.76" y1="442.00" x2="231.58" y2="424.00" stroke="#9bd3ff" stroke-width="4" opacity="0.7"/><line x1="314.00" y1="390.76" x2="296.00" y2="359.58" stroke="#9bd3ff" stroke-width="4" opacity="0.7"/><line x1="384.00" y1="372.00" x2="384.00" y2="336.00" stroke="#9bd3ff" stroke-width="4" opacity="0.7"/><line x1="454.00" y1="390.76" x2="472.00" y2="359.58" stroke="#9bd3ff" stroke-width="4" opacity="0.7"/><line x1="505.24" y1="442.00" x2="536.42" y2="424.00" stroke="#9bd3ff" stroke-width="4" opacity="0.7"/>
<line x1="384" y1="512" x2="466.00" y2="486.00" stroke="#c7a64a" stroke-width="8" opacity="0.9"/>
<line x1="384" y1="512" x2="342.00" y2="604.00" stroke="#9bd3ff" stroke-width="6" opacity="0.9"/>
  </g>

  <g opacity="0.8">
    <circle cx="448.83" cy="331.43" r="2.28" fill="#9bd3ff" opacity="0.65"/><circle cx="701.16" cy="1007.38" r="1.64" fill="#c7a64a" opacity="0.33"/><circle cx="266.60" cy="30.53" r="3.73" fill="#9bd3ff" opacity="0.28"/><circle cx="82.09" cy="769.59" r="3.57" fill="#c7a64a" opacity="0.65"/><circle cx="219.57" cy="166.72" r="3.40" fill="#9bd3ff" opacity="0.30"/><circle cx="210.07" cy="483.78" r="4.84" fill="#c7a64a" opacity="0.59"/><circle cx="250.42" cy="759.39" r="2.90" fill="#9bd3ff" opacity="0.31"/><circle cx="709.96" cy="473.78" r="4.69" fill="#c7a64a" opacity="0.58"/><circle cx="615.60" cy="707.46" r="1.40" fill="#9bd3ff" opacity="0.60"/><circle cx="635.95" cy="798.75" r="1.33" fill="#c7a64a" opacity="0.71"/><circle cx="330.08" cy="543.67" r="3.13" fill="#9bd3ff" opacity="0.32"/><circle cx="358.50" cy="640.56" r="1.58" fill="#c7a64a" opacity="0.48"/><circle cx="36.13" cy="111.19" r="4.48" fill="#9bd3ff" opacity="0.49"/><circle cx="374.82" cy="865.85" r="4.30" fill="#c7a64a" opacity="0.36"/><circle cx="753.28" cy="854.47" r="3.67" fill="#9bd3ff" opacity="0.33"/><circle cx="485.54" cy="778.15" r="2.20" fill="#c7a64a" opacity="0.74"/><circle cx="403.80" cy="881.06" r="4.31" fill="#9bd3ff" opacity="0.35"/><circle cx="595.85" cy="943.39" r="4.38" fill="#c7a64a" opacity="0.73"/><circle cx="645.11" cy="626.29" r="1.34" fill="#9bd3ff" opacity="0.46"/><circle cx="657.46" cy="71.57" r="2.75" fill="#c7a64a" opacity="0.69"/><circle cx="532.45" cy="261.28" r="4.06" fill="#9bd3ff" opacity="0.31"/><circle cx="757.65" cy="131.05" r="1.38" fill="#c7a64a" opacity="0.56"/><circle cx="615.98" cy="433.16" r="2.48" fill="#9bd3ff" opacity="0.72"/><circle cx="639.50" cy="901.69" r="2.91" fill="#c7a64a" opacity="0.52"/><circle cx="184.89" cy="373.63" r="2.69" fill="#9bd3ff" opacity="0.30"/><circle cx="192.32" cy="108.27" r="1.68" fill="#c7a64a" opacity="0.61"/><circle cx="295.89" cy="670.95" r="2.62" fill="#9bd3ff" opacity="0.42"/><circle cx="72.39" cy="958.00" r="1.24" fill="#c7a64a" opacity="0.37"/>
  </g>

  <rect x="16" y="16" width="736" height="992" rx="24" stroke="url(#edge-chronomancer-c44)" stroke-width="2.5" opacity="0.85"/>
  <rect x="22" y="22" width="724" height="980" rx="20" stroke="#f0a0ff" stroke-width="2" opacity="0.74"/>

  <rect x="34" y="34" width="700" height="72" rx="14" fill="#070b14" fill-opacity="0.72" stroke="#f0a0ff" stroke-opacity="0.55"/>
  <text x="54" y="80" fill="#EAF4FF" font-family="Exo 2, Segoe UI, sans-serif" font-size="32" font-weight="700">Chronomancer</text>

  <rect x="34" y="872" width="700" height="92" rx="14" fill="#070b14" fill-opacity="0.74" stroke="#f0a0ff" stroke-opacity="0.6"/>
  <text x="54" y="924" fill="#D9E7FF" font-family="Exo 2, Segoe UI, sans-serif" font-size="30" font-weight="600">Battlefield Event</text>

  <rect x="598" y="36" width="118" height="42" rx="10" fill="#f0a0ff" fill-opacity="0.2" stroke="#f0a0ff" stroke-opacity="0.8"/>
  <text x="612" y="65" fill="#f0a0ff" font-family="Exo 2, Segoe UI, sans-serif" font-size="20" font-weight="700">EPIC</text>

  <circle cx="708" cy="954" r="26" fill="#080d18" stroke="#f0a0ff" stroke-opacity="0.8"/>
  <text x="696" y="962" fill="#E7F2FF" font-family="Exo 2, Segoe UI, sans-serif" font-size="24" font-weight="700">44</text>
</svg>