<?xml version="1.0" encoding="UTF-8"?>
<svg width="768" height="1024" viewBox="0 0 768 1024" fill="none" xmlns="http://www.w3.org/2000/svg">
  <defs>
    <linearGradient id="bg-chronomancer-c03" x1="60" y1="40" x2="728" y2="1004" gradientUnits="userSpaceOnUse">
      <stop offset="0" stop-color="#101425"/>
      <stop offset="0.55" stop-color="#2a4478"/>
      <stop offset="1" stop-color="#101425"/>
    </linearGradient>
    <radialGradient id="glow-chronomancer-c03" cx="0" cy="0" r="1" gradientUnits="userSpaceOnUse" gradientTransform="translate(313.78 760.50) rotate(90) scale(228.43 228.43)">
      <stop stop-color="#c7a64a" stop-opacity="0.45"/>
      <stop offset="1" stop-color="#c7a64a" stop-opacity="0"/>
    </radialGradient>
    <linearGradient id="edge-chronomancer-c03" x1="0" y1="0" x2="768" y2="1024" gradientUnits="userSpaceOnUse">
      <stop stop-color="#c7a64a" stop-opacity="0.85"/>
      <stop offset="1" stop-color="#9bd3ff" stop-opacity="0.85"/>
    </linearGradient>
  </defs>

  <rect x="0" y="0" width="768" height="1024" rx="32" fill="#060910"/>
  <rect x="16" y="16" width="736" height="992" rx="24" fill="url(#bg-chronomancer-c03)"/>
  <rect x="16" y="16" width="736" height="992" rx="24" fill="url(#glow-chronomancer-c03)"/>

  <g opacity="0.88">
    <circle cx="384" cy="512" r="184" fill="none" stroke="#c7a64a" stroke-width="8" opacity="0.72"/>
<circle cx="384" cy="512" r="132" fill="none" stroke="#9bd3ff" stroke-width="4" opacity="0.76"/>
<line x1="524.00" y1="512.00" x2="560.00" y2="512.00" stroke="#9bd3ff" stroke-width="4" opacity="0.7"/><line x1="505.24" y1="582.00" x2="536.42" y2="600.00" stroke="#9bd3ff" stroke-width="4" opacity="0.7"/><line x1="454.00" y1="633.24" x2="472.00" y2="664.42" stroke="#9bd3ff" stroke-width="4" opacity="0.7"/><line x1="384.00" y1="652.00" x2="384.00" y2="688.00" stroke="#9bd3ff" stroke-width="4" opacity="0.7"/><line x1="314.00" y1="633.24" x2="296.00" y2="664.42" stroke="#9bd3ff" stroke-width="4" opacity="0.7"/><line x1="262.76" y1="582.00" x2="231.58" y2="600.00" stroke="#9bd3ff" stroke-width="4" opacity="0.7"/><line x1="244.00" y1="512.00" x2="208.00" y2="512.00" stroke="#9bd3ff" stroke-width="4" opacity="0.7"/><line x1="262.76" y1="442.00" x2="231.58" y2="424.00" stroke="#9bd3ff" stroke-width="4" opacity="0.7"/><line x1="314.00" y1="390.76" x2="296.00" y2="359.58" stroke="#9bd3ff" stroke-width="4" opacity="0.7"/><line x1="384.00" y1="372.00" x2="384.00" y2="336.00" stroke="#9bd3ff" stroke-width="4" opacity="0.7"/><line x1="454.00" y1="390.76" x2="472.00" y2="359.58" stroke="#9bd3ff" stroke-width="4" opacity="0.7"/><line x1="505.24" y1="442.00" x2="536.42" y2="424.00" stroke="#9bd3ff" stroke-width="4" opacity="0.7"/>
<line x1="384" y1="512" x2="466.00" y2="486.00" stroke="#c7a64a" stroke-width="8" opacity="0.9"/>
<line x1="384" y1="512" x2="342.00" y2="604.00" stroke="#9bd3ff" stroke-width="6" opacity="0.9"/>
  </g>

  <g opacity="0.8">
    <circle cx="208.99" cy="43.59" r="4.30" fill="#9bd3ff" opacity="0.50"/><circle cx="714.59" cy="680.69" r="3.37" fill="#c7a64a" opacity="0.49"/><circle cx="726.13" cy="884.34" r="3.36" fill="#9bd3ff" opacity="0.50"/><circle cx="80.39" cy="256.28" r="4.54" fill="#c7a64a" opacity="0.73"/><circle cx="279.87" cy="65.49" r="1.25" fill="#9bd3ff" opacity="0.61"/><circle cx="353.42" cy="380.01" r="4.41" fill="#c7a64a" opacity="0.29"/><circle cx="62.90" cy="438.01" r="2.22" fill="#9bd3ff" opacity="0.44"/><circle cx="592.66" cy="381.86" r="4.40" fill="#c7a64a" opacity="0.53"/><circle cx="199.42" cy="904.77" r="3.27" fill="#9bd3ff" opacity="0.59"/><circle cx="254.60" cy="268.96" r="1.24" fill="#c7a64a" opacity="0.60"/><circle cx="127.22" cy="677.64" r="4.58" fill="#9bd3ff" opacity="0.60"/><circle cx="193.79" cy="645.16" r="3.25" fill="#c7a64a" opacity="0.55"/><circle cx="469.75" cy="955.11" r="4.28" fill="#9bd3ff" opacity="0.36"/><circle cx="357.05" cy="174.20" r="4.68" fill="#c7a64a" opacity="0.57"/><circle cx="562.52" cy="55.56" r="2.55" fill="#9bd3ff" opacity="0.54"/><circle cx="119.86" cy="949.35" r="2.39" fill="#c7a64a" opacity="0.33"/><circle cx="236.02" cy="579.06" r="1.56" fill="#9bd3ff" opacity="0.54"/><circle cx="608.19" cy="84.70" r="1.77" fill="#c7a64a" opacity="0.70"/><circle cx="185.00" cy="792.78" r="1.99" fill="#9bd3ff" opacity="0.70"/><circle cx="122.61" cy="450.98" r="4.03" fill="#c7a64a" opacity="0.69"/><circle cx="344.76" cy="897.61" r="1.57" fill="#9bd3ff" opacity="0.25"/><circle cx="210.44" cy="503.07" r="3.47" fill="#c7a64a" opacity="0.27"/><circle cx="165.29" cy="325.16" r="3.05" fill="#9bd3ff" opacity="0.53"/><circle cx="615.15" cy="326.06" r="1.54" fill="#c7a64a" opacity="0.65"/><circle cx="528.19" cy="970.27" r="2.86" fill="#9bd3ff" opacity="0.39"/><circle cx="72.46" cy="146.02" r="2.52" fill="#c7a64a" opacity="0.51"/><circle cx="171.58" cy="676.86" r="3.10" fill="#9bd3ff" opacity="0.41"/><circle cx="610.34" cy="760.18" r="2.59" fill="#c7a64a" opacity="0.68"/>
  </g>

  <rect x="16" y="16" width="736" height="992" rx="24" stroke="url(#edge-chronomancer-c03)" stroke-width="2.5" opacity="0.85"/>
  <rect x="22" y="22" width="724" height="980" rx="20" stroke="#8aa0c4" stroke-width="2" opacity="0.74"/>

  <rect x="34" y="34" width="700" height="72" rx="14" fill="#070b14" fill-opacity="0.72" stroke="#8aa0c4" stroke-opacity="0.55"/>
  <text x="54" y="80" fill="#EAF4FF" font-family="Exo 2, Segoe UI, sans-serif" font-size="32" font-weight="700">Chronomancer</text>

  <rect x="34" y="872" width="700" height="92" rx="14" fill="#070b14" fill-opacity="0.74" stroke="#8aa0c4" stroke-opacity="0.6"/>
  <text x="54" y="924" fill="#D9E7FF" font-family="Exo 2, Segoe UI, sans-serif" font-size="30" font-weight="600">Bulwark</text>

  <rect x="598" y="36" width="118" height="42" rx="10" fill="#8aa0c4" fill-opacity="0.2" stroke="#8aa0c4" stroke-opacity="0.8"/>
  <text x="612" y="65" fill="#8aa0c4" font-family="Exo 2, Segoe UI, sans-serif" font-size="20" font-weight="700">COMMON</text>

  <circle cx="708" cy="954" r="26" fill="#080d18" stroke="#8aa0c4" stroke-opacity="0.8"/>
  <text x="696" y="962" fill="#E7F2FF" font-family="Exo 2, Segoe UI, sans-serif" font-size="24" font-weight="700">03</text>
</svg>