<?xml version="1.0" encoding="UTF-8"?>
<svg width="768" height="1024" viewBox="0 0 768 1024" fill="none" xmlns="http://www.w3.org/2000/svg">
  <defs>
    <linearGradient id="bg-chronomancer-c50" x1="60" y1="40" x2="728" y2="1004" gradientUnits="userSpaceOnUse">
      <stop offset="0" stop-color="#101425"/>
      <stop offset="0.55" stop-color="#2a4478"/>
      <stop offset="1" stop-color="#101425"/>
    </linearGradient>
    <radialGradient id="glow-chronomancer-c50" cx="0" cy="0" r="1" gradientUnits="userSpaceOnUse" gradientTransform="translate(294.39 706.77) rotate(90) scale(278.25 278.25)">
      <stop stop-color="#c7a64a" stop-opacity="0.45"/>
      <stop offset="1" stop-color="#c7a64a" stop-opacity="0"/>
    </radialGradient>
    <linearGradient id="edge-chronomancer-c50" x1="0" y1="0" x2="768" y2="1024" gradientUnits="userSpaceOnUse">
      <stop stop-color="#c7a64a" stop-opacity="0.85"/>
      <stop offset="1" stop-color="#9bd3ff" stop-opacity="0.85"/>
    </linearGradient>
  </defs>

  <rect x="0" y="0" width="768" height="1024" rx="32" fill="#060910"/>
  <rect x="16" y="16" width="736" height="992" rx="24" fill="url(#bg-chronomancer-c50)"/>
  <rect x="16" y="16" width="736" height="992" rx="24" fill="url(#glow-chronomancer-c50)"/>

  <g opacity="0.88">
    <circle cx="384" cy="512" r="184" fill="none" stroke="#c7a64a" stroke-width="8" opacity="0.72"/>
<circle cx="384" cy="512" r="132" fill="none" stroke="#9bd3ff" stroke-width="4" opacity="0.76"/>
<line x1="524.00" y1="512.00" x2="560.00" y2="512.00" stroke="#9bd3ff" stroke-width="4" opacity="0.7"/><line x1="505.24" y1="582.00" x2="536.42" y2="600.00" stroke="#9bd3ff" stroke-width="4" opacity="0.7"/><line x1="454.00" y1="633.24" x2="472.00" y2="664.42" stroke="#9bd3ff" stroke-width="4" opacity="0.7"/><line x1="384.00" y1="652.00" x2="384.00" y2="688.00" stroke="#9bd3ff" stroke-width="4" opacity="0.7"/><line x1="314.00" y1="633.24" x2="296.00" y2="664.42" stroke="#9bd3ff" stroke-width="4" opacity="0.7"/><line x1="262.76" y1="582.00" x2="231.58" y2="600.00" stroke="#9bd3ff" stroke-width="4" opacity="0.7"/><line x1="244.00" y1="512.00" x2="208.00" y2="512.00" stroke="#9bd3ff" stroke-width="4" opacity="0.7"/><line x1="262.76" y1="442.00" x2="231.58" y2="424.00" stroke="#9bd3ff" stroke-width="4" opacity="0.7"/><line x1="314.00" y1="390.76" x2="296.00" y2="359.58" stroke="#9bd3ff" stroke-width="4" opacity="0.7"/><line x1="384.00" y1="372.00" x2="384.00" y2="336.00" stroke="#9bd3ff" stroke-width="4" opacity="0.7"/><line x1="454.00" y1="390.76" x2="472.00" y2="359.58" stroke="#9bd3ff" stroke-width="4" opacity="0.7"/><line x1="505.24" y1="442.00" x2="536.42" y2="424.00" stroke="#9bd3ff" stroke-width="4" opacity="0.7"/>
<line x1="384" y1="512" x2="466.00" y2="486.00" stroke="#c7a64a" stroke-width="8" opacity="0.9"/>
<line x1="384" y1="512" x2="342.00" y2="604.00" stroke="#9bd3ff" stroke-width="6" opacity="0.9"/>
  </g>

  <g opacity="0.8">
    <circle cx="563.19" cy="765.37" r="2.08" fill="#9bd3ff" opacity="0.58"/><circle cx="403.65" cy="199.23" r="4.29" fill="#c7a64a" opacity="0.24"/><circle cx="187.01" cy="362.38" r="1.61" fill="#9bd3ff" opacity="0.73"/><circle cx="287.70" cy="280.08" r="3.37" fill="#c7a64a" opacity="0.62"/><circle cx="6.40" cy="609.70" r="4.11" fill="#9bd3ff" opacity="0.43"/><circle cx="70.36" cy="448.33" r="3.22" fill="#c7a64a" opacity="0.72"/><circle cx="627.48" cy="28.82" r="4.15" fill="#9bd3ff" opacity="0.47"/><circle cx="700.61" cy="577.05" r="3.29" fill="#c7a64a" opacity="0.34"/><circle cx="574.78" cy="239.43" r="1.34" fill="#9bd3ff" opacity="0.40"/><circle cx="103.47" cy="360.28" r="4.26" fill="#c7a64a" opacity="0.52"/><circle cx="415.11" cy="428.04" r="4.32" fill="#9bd3ff" opacity="0.66"/><circle cx="296.93" cy="952.83" r="2.98" fill="#c7a64a" opacity="0.53"/><circle cx="604.27" cy="634.16" r="3.77" fill="#9bd3ff" opacity="0.29"/><circle cx="562.65" cy="850.99" r="3.18" fill="#c7a64a" opacity="0.50"/><circle cx="576.20" cy="848.58" r="3.85" fill="#9bd3ff" opacity="0.58"/><circle cx="666.52" cy="303.65" r="4.02" fill="#c7a64a" opacity="0.39"/><circle cx="741.96" cy="141.68" r="3.71" fill="#9bd3ff" opacity="0.57"/><circle cx="469.55" cy="250.61" r="3.60" fill="#c7a64a" opacity="0.36"/><circle cx="495.91" cy="1006.01" r="4.85" fill="#9bd3ff" opacity="0.47"/><circle cx="3.20" cy="474.77" r="3.37" fill="#c7a64a" opacity="0.49"/><circle cx="750.44" cy="861.51" r="2.35" fill="#9bd3ff" opacity="0.53"/><circle cx="642.50" cy="964.75" r="1.58" fill="#c7a64a" opacity="0.37"/><circle cx="500.48" cy="660.09" r="4.35" fill="#9bd3ff" opacity="0.42"/><circle cx="379.38" cy="158.36" r="2.61" fill="#c7a64a" opacity="0.40"/><circle cx="37.86" cy="466.98" r="3.72" fill="#9bd3ff" opacity="0.52"/><circle cx="621.10" cy="225.73" r="3.84" fill="#c7a64a" opacity="0.59"/><circle cx="404.92" cy="219.09" r="3.64" fill="#9bd3ff" opacity="0.31"/><circle cx="90.18" cy="934.99" r="4.40" fill="#c7a64a" opacity="0.57"/>
  </g>

  <rect x="16" y="16" width="736" height="992" rx="24" stroke="url(#edge-chronomancer-c50)" stroke-width="2.5" opacity="0.85"/>
  <rect x="22" y="22" width="724" height="980" rx="20" stroke="#f0a0ff" stroke-width="2" opacity="0.74"/>

  <rect x="34" y="34" width="700" height="72" rx="14" fill="#070b14" fill-opacity="0.72" stroke="#f0a0ff" stroke-opacity="0.55"/>
  <text x="54" y="80" fill="#EAF4FF" font-family="Exo 2, Segoe UI, sans-serif" font-size="32" font-weight="700">Chronomancer</text>

  <rect x="34" y="872" width="700" height="92" rx="14" fill="#070b14" fill-opacity="0.74" stroke="#f0a0ff" stroke-opacity="0.6"/>
  <text x="54" y="924" fill="#D9E7FF" font-family="Exo 2, Segoe UI, sans-serif" font-size="30" font-weight="600">Finisher Setup</text>

  <rect x="598" y="36" width="118" height="42" rx="10" fill="#f0a0ff" fill-opacity="0.2" stroke="#f0a0ff" stroke-opacity="0.8"/>
  <text x="612" y="65" fill="#f0a0ff" font-family="Exo 2, Segoe UI, sans-serif" font-size="20" font-weight="700">EPIC</text>

  <circle cx="708" cy="954" r="26" fill="#080d18" stroke="#f0a0ff" stroke-opacity="0.8"/>
  <text x="696" y="962" fill="#E7F2FF" font-family="Exo 2, Segoe UI, sans-serif" font-size="24" font-weight="700">50</text>
</svg>