<?xml version="1.0" encoding="UTF-8"?>
<svg width="768" height="1024" viewBox="0 0 768 1024" fill="none" xmlns="http://www.w3.org/2000/svg">
  <defs>
    <linearGradient id="bg-chronomancer-c42" x1="60" y1="40" x2="728" y2="1004" gradientUnits="userSpaceOnUse">
      <stop offset="0" stop-color="#101425"/>
      <stop offset="0.55" stop-color="#2a4478"/>
      <stop offset="1" stop-color="#101425"/>
    </linearGradient>
    <radialGradient id="glow-chronomancer-c42" cx="0" cy="0" r="1" gradientUnits="userSpaceOnUse" gradientTransform="translate(195.48 349.32) rotate(90) scale(199.79 199.79)">
      <stop stop-color="#c7a64a" stop-opacity="0.45"/>
      <stop offset="1" stop-color="#c7a64a" stop-opacity="0"/>
    </radialGradient>
    <linearGradient id="edge-chronomancer-c42" x1="0" y1="0" x2="768" y2="1024" gradientUnits="userSpaceOnUse">
      <stop stop-color="#c7a64a" stop-opacity="0.85"/>
      <stop offset="1" stop-color="#9bd3ff" stop-opacity="0.85"/>
    </linearGradient>
  </defs>

  <rect x="0" y="0" width="768" height="1024" rx="32" fill="#060910"/>
  <rect x="16" y="16" width="736" height="992" rx="24" fill="url(#bg-chronomancer-c42)"/>
  <rect x="16" y="16" width="736" height="992" rx="24" fill="url(#glow-chronomancer-c42)"/>

  <g opacity="0.88">
    <circle cx="384" cy="512" r="184" fill="none" stroke="#c7a64a" stroke-width="8" opacity="0.72"/>
<circle cx="384" cy="512" r="132" fill="none" stroke="#9bd3ff" stroke-width="4" opacity="0.76"/>
<line x1="524.00" y1="512.00" x2="560.00" y2="512.00" stroke="#9bd3ff" stroke-width="4" opacity="0.7"/><line x1="505.24" y1="582.00" x2="536.42" y2="600.00" stroke="#9bd3ff" stroke-width="4" opacity="0.7"/><line x1="454.00" y1="633.24" x2="472.00" y2="664.42" stroke="#9bd3ff" stroke-width="4" opacity="0.7"/><line x1="384.00" y1="652.00" x2="384.00" y2="688.00" stroke="#9bd3ff" stroke-width="4" opacity="0.7"/><line x1="314.00" y1="633.24" x2="296.00" y2="664.42" stroke="#9bd3ff" stroke-width="4" opacity="0.7"/><line x1="262.76" y1="582.00" x2="231.58" y2="600.00" stroke="#9bd3ff" stroke-width="4" opacity="0.7"/><line x1="244.00" y1="512.00" x2="208.00" y2="512.00" stroke="#9bd3ff" stroke-width="4" opacity="0.7"/><line x1="262.76" y1="442.00" x2="231.58" y2="424.00" stroke="#9bd3ff" stroke-width="4" opacity="0.7"/><line x1="314.00" y1="390.76" x2="296.00" y2="359.58" stroke="#9bd3ff" stroke-width="4" opacity="0.7"/><line x1="384.00" y1="372.00" x2="384.00" y2="336.00" stroke="#9bd3ff" stroke-width="4" opacity="0.7"/><line x1="454.00" y1="390.76" x2="472.00" y2="359.58" stroke="#9bd3ff" stroke-width="4" opacity="0.7"/><line x1="505.24" y1="442.00" x2="536.42" y2="424.00" stroke="#9bd3ff" stroke-width="4" opacity="0.7"/>
<line x1="384" y1="512" x2="466.00" y2="486.00" stroke="#c7a64a" stroke-width="8" opacity="0.9"/>
<line x1="384" y1="512" x2="342.00" y2="604.00" stroke="#9bd3ff" stroke-width="6" opacity="0.9"/>
  </g>

  <g opacity="0.8">
    <circle cx="713.78" cy="151.18" r="4.21" fill="#9bd3ff" opacity="0.71"/><circle cx="348.72" cy="721.65" r="2.07" fill="#c7a64a" opacity="0.47"/><circle cx="380.92" cy="662.56" r="4.26" fill="#9bd3ff" opacity="0.72"/><circle cx="93.17" cy="79.41" r="4.72" fill="#c7a64a" opacity="0.53"/><circle cx="762.92" cy="732.66" r="1.93" fill="#9bd3ff" opacity="0.65"/><circle cx="81.53" cy="855.16" r="2.32" fill="#c7a64a" opacity="0.46"/><circle cx="491.27" cy="685.84" r="3.62" fill="#9bd3ff" opacity="0.37"/><circle cx="576.35" cy="769.33" r="2.85" fill="#c7a64a" opacity="0.73"/><circle cx="319.29" cy="867.81" r="2.88" fill="#9bd3ff" opacity="0.42"/><circle cx="300.85" cy="725.33" r="2.04" fill="#c7a64a" opacity="0.42"/><circle cx="13.04" cy="1009.60" r="4.54" fill="#9bd3ff" opacity="0.39"/><circle cx="403.41" cy="101.93" r="1.91" fill="#c7a64a" opacity="0.67"/><circle cx="451.25" cy="868.09" r="4.03" fill="#9bd3ff" opacity="0.42"/><circle cx="380.25" cy="971.78" r="1.75" fill="#c7a64a" opacity="0.66"/><circle cx="321.31" cy="993.40" r="4.01" fill="#9bd3ff" opacity="0.28"/><circle cx="263.12" cy="41.67" r="4.78" fill="#c7a64a" opacity="0.65"/><circle cx="753.60" cy="2.51" r="4.94" fill="#9bd3ff" opacity="0.48"/><circle cx="568.47" cy="6.43" r="1.74" fill="#c7a64a" opacity="0.53"/><circle cx="593.87" cy="46.16" r="2.58" fill="#9bd3ff" opacity="0.46"/><circle cx="211.01" cy="210.47" r="4.73" fill="#c7a64a" opacity="0.30"/><circle cx="728.04" cy="879.97" r="3.80" fill="#9bd3ff" opacity="0.33"/><circle cx="329.10" cy="169.58" r="3.64" fill="#c7a64a" opacity="0.45"/><circle cx="322.88" cy="803.37" r="2.92" fill="#9bd3ff" opacity="0.51"/><circle cx="343.50" cy="735.67" r="1.61" fill="#c7a64a" opacity="0.60"/><circle cx="251.92" cy="194.44" r="2.11" fill="#9bd3ff" opacity="0.27"/><circle cx="749.49" cy="82.53" r="1.76" fill="#c7a64a" opacity="0.50"/><circle cx="269.09" cy="162.80" r="3.37" fill="#9bd3ff" opacity="0.47"/><circle cx="62.66" cy="935.64" r="3.38" fill="#c7a64a" opacity="0.31"/>
  </g>

  <rect x="16" y="16" width="736" height="992" rx="24" stroke="url(#edge-chronomancer-c42)" stroke-width="2.5" opacity="0.85"/>
  <rect x="22" y="22" width="724" height="980" rx="20" stroke="#78d8ff" stroke-width="2" opacity="0.74"/>

  <rect x="34" y="34" width="700" height="72" rx="14" fill="#070b14" fill-opacity="0.72" stroke="#78d8ff" stroke-opacity="0.55"/>
  <text x="54" y="80" fill="#EAF4FF" font-family="Exo 2, Segoe UI, sans-serif" font-size="32" font-weight="700">Chronomancer</text>

  <rect x="34" y="872" width="700" height="92" rx="14" fill="#070b14" fill-opacity="0.74" stroke="#78d8ff" stroke-opacity="0.6"/>
  <text x="54" y="924" fill="#D9E7FF" font-family="Exo 2, Segoe UI, sans-serif" font-size="30" font-weight="600">Tempo Swing</text>

  <rect x="598" y="36" width="118" height="42" rx="10" fill="#78d8ff" fill-opacity="0.2" stroke="#78d8ff" stroke-opacity="0.8"/>
  <text x="612" y="65" fill="#78d8ff" font-family="Exo 2, Segoe UI, sans-serif" font-size="20" font-weight="700">RARE</text>

  <circle cx="708" cy="954" r="26" fill="#080d18" stroke="#78d8ff" stroke-opacity="0.8"/>
  <text x="696" y="962" fill="#E7F2FF" font-family="Exo 2, Segoe UI, sans-serif" font-size="24" font-weight="700">42</text>
</svg>