<?xml version="1.0" encoding="UTF-8"?>
<svg width="768" height="1024" viewBox="0 0 768 1024" fill="none" xmlns="http://www.w3.org/2000/svg">
  <defs>
    <linearGradient id="bg-chronomancer-c25" x1="60" y1="40" x2="728" y2="1004" gradientUnits="userSpaceOnUse">
      <stop offset="0" stop-color="#101425"/>
      <stop offset="0.55" stop-color="#2a4478"/>
      <stop offset="1" stop-color="#101425"/>
    </linearGradient>
    <radialGradient id="glow-chronomancer-c25" cx="0" cy="0" r="1" gradientUnits="userSpaceOnUse" gradientTransform="translate(298.71 316.97) rotate(90) scale(250.28 250.28)">
      <stop stop-color="#c7a64a" stop-opacity="0.45"/>
      <stop offset="1" stop-color="#c7a64a" stop-opacity="0"/>
    </radialGradient>
    <linearGradient id="edge-chronomancer-c25" x1="0" y1="0" x2="768" y2="1024" gradientUnits="userSpaceOnUse">
      <stop stop-color="#c7a64a" stop-opacity="0.85"/>
      <stop offset="1" stop-color="#9bd3ff" stop-opacity="0.85"/>
    </linearGradient>
  </defs>

  <rect x="0" y="0" width="768" height="1024" rx="32" fill="#060910"/>
  <rect x="16" y="16" width="736" height="992" rx="24" fill="url(#bg-chronomancer-c25)"/>
  <rect x="16" y="16" width="736" height="992" rx="24" fill="url(#glow-chronomancer-c25)"/>

  <g opacity="0.88">
    <circle cx="384" cy="512" r="184" fill="none" stroke="#c7a64a" stroke-width="8" opacity="0.72"/>
<circle cx="384" cy="512" r="132" fill="none" stroke="#9bd3ff" stroke-width="4" opacity="0.76"/>
<line x1="524.00" y1="512.00" x2="560.00" y2="512.00" stroke="#9bd3ff" stroke-width="4" opacity="0.7"/><line x1="505.24" y1="582.00" x2="536.42" y2="600.00" stroke="#9bd3ff" stroke-width="4" opacity="0.7"/><line x1="454.00" y1="633.24" x2="472.00" y2="664.42" stroke="#9bd3ff" stroke-width="4" opacity="0.7"/><line x1="384.00" y1="652.00" x2="384.00" y2="688.00" stroke="#9bd3ff" stroke-width="4" opacity="0.7"/><line x1="314.00" y1="633.24" x2="296.00" y2="664.42" stroke="#9bd3ff" stroke-width="4" opacity="0.7"/><line x1="262.76" y1="582.00" x2="231.58" y2="600.00" stroke="#9bd3ff" stroke-width="4" opacity="0.7"/><line x1="244.00" y1="512.00" x2="208.00" y2="512.00" stroke="#9bd3ff" stroke-width="4" opacity="0.7"/><line x1="262.76" y1="442.00" x2="231.58" y2="424.00" stroke="#9bd3ff" stroke-width="4" opacity="0.7"/><line x1="314.00" y1="390.76" x2="296.00" y2="359.58" stroke="#9bd3ff" stroke-width="4" opacity="0.7"/><line x1="384.00" y1="372.00" x2="384.00" y2="336.00" stroke="#9bd3ff" stroke-width="4" opacity="0.7"/><line x1="454.00" y1="390.76" x2="472.00" y2="359.58" stroke="#9bd3ff" stroke-width="4" opacity="0.7"/><line x1="505.24" y1="442.00" x2="536.42" y2="424.00" stroke="#9bd3ff" stroke-width="4" opacity="0.7"/>
<line x1="384" y1="512" x2="466.00" y2="486.00" stroke="#c7a64a" stroke-width="8" opacity="0.9"/>
<line x1="384" y1="512" x2="342.00" y2="604.00" stroke="#9bd3ff" stroke-width="6" opacity="0.9"/>
  </g>

  <g opacity="0.8">
    <circle cx="239.61" cy="82.09" r="1.42" fill="#9bd3ff" opacity="0.26"/><circle cx="337.50" cy="633.26" r="4.45" fill="#c7a64a" opacity="0.54"/><circle cx="257.02" cy="639.89" r="3.79" fill="#9bd3ff" opacity="0.72"/><circle cx="204.76" cy="371.80" r="3.41" fill="#c7a64a" opacity="0.24"/><circle cx="561.58" cy="349.21" r="4.77" fill="#9bd3ff" opacity="0.44"/><circle cx="54.38" cy="689.59" r="4.68" fill="#c7a64a" opacity="0.28"/><circle cx="703.65" cy="816.38" r="4.87" fill="#9bd3ff" opacity="0.66"/><circle cx="657.61" cy="212.06" r="2.45" fill="#c7a64a" opacity="0.43"/><circle cx="327.83" cy="265.84" r="2.60" fill="#9bd3ff" opacity="0.65"/><circle cx="466.54" cy="137.36" r="1.62" fill="#c7a64a" opacity="0.36"/><circle cx="328.03" cy="543.73" r="3.50" fill="#9bd3ff" opacity="0.66"/><circle cx="253.72" cy="319.93" r="1.22" fill="#c7a64a" opacity="0.27"/><circle cx="292.24" cy="310.19" r="2.03" fill="#9bd3ff" opacity="0.39"/><circle cx="10.93" cy="253.74" r="3.43" fill="#c7a64a" opacity="0.53"/><circle cx="200.35" cy="388.97" r="3.61" fill="#9bd3ff" opacity="0.56"/><circle cx="251.55" cy="120.59" r="2.97" fill="#c7a64a" opacity="0.35"/><circle cx="222.49" cy="999.80" r="1.92" fill="#9bd3ff" opacity="0.30"/><circle cx="60.60" cy="194.64" r="3.30" fill="#c7a64a" opacity="0.67"/><circle cx="440.60" cy="251.02" r="2.96" fill="#9bd3ff" opacity="0.35"/><circle cx="299.83" cy="446.25" r="1.83" fill="#c7a64a" opacity="0.59"/><circle cx="176.77" cy="481.51" r="3.12" fill="#9bd3ff" opacity="0.67"/><circle cx="316.24" cy="250.16" r="1.64" fill="#c7a64a" opacity="0.31"/><circle cx="453.08" cy="575.37" r="1.40" fill="#9bd3ff" opacity="0.59"/><circle cx="767.48" cy="121.02" r="4.94" fill="#c7a64a" opacity="0.61"/><circle cx="573.70" cy="194.29" r="4.66" fill="#9bd3ff" opacity="0.28"/><circle cx="69.67" cy="330.58" r="3.49" fill="#c7a64a" opacity="0.54"/><circle cx="16.05" cy="834.28" r="2.17" fill="#9bd3ff" opacity="0.33"/><circle cx="310.20" cy="913.35" r="1.67" fill="#c7a64a" opacity="0.72"/>
  </g>

  <rect x="16" y="16" width="736" height="992" rx="24" stroke="url(#edge-chronomancer-c25)" stroke-width="2.5" opacity="0.85"/>
  <rect x="22" y="22" width="724" height="980" rx="20" stroke="#8aa0c4" stroke-width="2" opacity="0.74"/>

  <rect x="34" y="34" width="700" height="72" rx="14" fill="#070b14" fill-opacity="0.72" stroke="#8aa0c4" stroke-opacity="0.55"/>
  <text x="54" y="80" fill="#EAF4FF" font-family="Exo 2, Segoe UI, sans-serif" font-size="32" font-weight="700">Chronomancer</text>

  <rect x="34" y="872" width="700" height="92" rx="14" fill="#070b14" fill-opacity="0.74" stroke="#8aa0c4" stroke-opacity="0.6"/>
  <text x="54" y="924" fill="#D9E7FF" font-family="Exo 2, Segoe UI, sans-serif" font-size="30" font-weight="600">Executioner</text>

  <rect x="598" y="36" width="118" height="42" rx="10" fill="#8aa0c4" fill-opacity="0.2" stroke="#8aa0c4" stroke-opacity="0.8"/>
  <text x="612" y="65" fill="#8aa0c4" font-family="Exo 2, Segoe UI, sans-serif" font-size="20" font-weight="700">COMMON</text>

  <circle cx="708" cy="954" r="26" fill="#080d18" stroke="#8aa0c4" stroke-opacity="0.8"/>
  <text x="696" y="962" fill="#E7F2FF" font-family="Exo 2, Segoe UI, sans-serif" font-size="24" font-weight="700">25</text>
</svg>