<?xml version="1.0" encoding="UTF-8"?>
<svg width="768" height="1024" viewBox="0 0 768 1024" fill="none" xmlns="http://www.w3.org/2000/svg">
  <defs>
    <linearGradient id="bg-chronomancer-c22" x1="60" y1="40" x2="728" y2="1004" gradientUnits="userSpaceOnUse">
      <stop offset="0" stop-color="#101425"/>
      <stop offset="0.55" stop-color="#2a4478"/>
      <stop offset="1" stop-color="#101425"/>
    </linearGradient>
    <radialGradient id="glow-chronomancer-c22" cx="0" cy="0" r="1" gradientUnits="userSpaceOnUse" gradientTransform="translate(479.68 185.11) rotate(90) scale(182.16 182.16)">
      <stop stop-color="#c7a64a" stop-opacity="0.45"/>
      <stop offset="1" stop-color="#c7a64a" stop-opacity="0"/>
    </radialGradient>
    <linearGradient id="edge-chronomancer-c22" x1="0" y1="0" x2="768" y2="1024" gradientUnits="userSpaceOnUse">
      <stop stop-color="#c7a64a" stop-opacity="0.85"/>
      <stop offset="1" stop-color="#9bd3ff" stop-opacity="0.85"/>
    </linearGradient>
  </defs>

  <rect x="0" y="0" width="768" height="1024" rx="32" fill="#060910"/>
  <rect x="16" y="16" width="736" height="992" rx="24" fill="url(#bg-chronomancer-c22)"/>
  <rect x="16" y="16" width="736" height="992" rx="24" fill="url(#glow-chronomancer-c22)"/>

  <g opacity="0.88">
    <circle cx="384" cy="512" r="184" fill="none" stroke="#c7a64a" stroke-width="8" opacity="0.72"/>
<circle cx="384" cy="512" r="132" fill="none" stroke="#9bd3ff" stroke-width="4" opacity="0.76"/>
<line x1="524.00" y1="512.00" x2="560.00" y2="512.00" stroke="#9bd3ff" stroke-width="4" opacity="0.7"/><line x1="505.24" y1="582.00" x2="536.42" y2="600.00" stroke="#9bd3ff" stroke-width="4" opacity="0.7"/><line x1="454.00" y1="633.24" x2="472.00" y2="664.42" stroke="#9bd3ff" stroke-width="4" opacity="0.7"/><line x1="384.00" y1="652.00" x2="384.00" y2="688.00" stroke="#9bd3ff" stroke-width="4" opacity="0.7"/><line x1="314.00" y1="633.24" x2="296.00" y2="664.42" stroke="#9bd3ff" stroke-width="4" opacity="0.7"/><line x1="262.76" y1="582.00" x2="231.58" y2="600.00" stroke="#9bd3ff" stroke-width="4" opacity="0.7"/><line x1="244.00" y1="512.00" x2="208.00" y2="512.00" stroke="#9bd3ff" stroke-width="4" opacity="0.7"/><line x1="262.76" y1="442.00" x2="231.58" y2="424.00" stroke="#9bd3ff" stroke-width="4" opacity="0.7"/><line x1="314.00" y1="390.76" x2="296.00" y2="359.58" stroke="#9bd3ff" stroke-width="4" opacity="0.7"/><line x1="384.00" y1="372.00" x2="384.00" y2="336.00" stroke="#9bd3ff" stroke-width="4" opacity="0.7"/><line x1="454.00" y1="390.76" x2="472.00" y2="359.58" stroke="#9bd3ff" stroke-width="4" opacity="0.7"/><line x1="505.24" y1="442.00" x2="536.42" y2="424.00" stroke="#9bd3ff" stroke-width="4" opacity="0.7"/>
<line x1="384" y1="512" x2="466.00" y2="486.00" stroke="#c7a64a" stroke-width="8" opacity="0.9"/>
<line x1="384" y1="512" x2="342.00" y2="604.00" stroke="#9bd3ff" stroke-width="6" opacity="0.9"/>
  </g>

  <g opacity="0.8">
    <circle cx="175.96" cy="435.28" r="3.73" fill="#9bd3ff" opacity="0.52"/><circle cx="721.71" cy="21.70" r="3.89" fill="#c7a64a" opacity="0.69"/><circle cx="631.03" cy="392.34" r="2.83" fill="#9bd3ff" opacity="0.46"/><circle cx="635.78" cy="225.90" r="4.51" fill="#c7a64a" opacity="0.40"/><circle cx="612.02" cy="786.97" r="2.45" fill="#9bd3ff" opacity="0.28"/><circle cx="476.16" cy="838.73" r="3.09" fill="#c7a64a" opacity="0.51"/><circle cx="111.71" cy="168.51" r="2.15" fill="#9bd3ff" opacity="0.52"/><circle cx="596.77" cy="979.81" r="1.93" fill="#c7a64a" opacity="0.27"/><circle cx="68.82" cy="491.01" r="3.94" fill="#9bd3ff" opacity="0.39"/><circle cx="485.43" cy="890.31" r="2.25" fill="#c7a64a" opacity="0.66"/><circle cx="464.01" cy="58.93" r="3.84" fill="#9bd3ff" opacity="0.34"/><circle cx="252.72" cy="989.35" r="1.22" fill="#c7a64a" opacity="0.63"/><circle cx="206.36" cy="441.37" r="3.69" fill="#9bd3ff" opacity="0.53"/><circle cx="186.72" cy="407.05" r="2.43" fill="#c7a64a" opacity="0.51"/><circle cx="320.51" cy="280.30" r="2.51" fill="#9bd3ff" opacity="0.52"/><circle cx="25.44" cy="231.23" r="1.48" fill="#c7a64a" opacity="0.63"/><circle cx="599.59" cy="429.53" r="4.25" fill="#9bd3ff" opacity="0.54"/><circle cx="536.06" cy="756.91" r="3.15" fill="#c7a64a" opacity="0.44"/><circle cx="293.72" cy="790.36" r="1.38" fill="#9bd3ff" opacity="0.70"/><circle cx="279.05" cy="213.47" r="4.03" fill="#c7a64a" opacity="0.42"/><circle cx="147.58" cy="733.44" r="1.78" fill="#9bd3ff" opacity="0.31"/><circle cx="501.23" cy="79.65" r="2.25" fill="#c7a64a" opacity="0.58"/><circle cx="711.59" cy="12.25" r="4.90" fill="#9bd3ff" opacity="0.62"/><circle cx="335.80" cy="730.57" r="3.64" fill="#c7a64a" opacity="0.45"/><circle cx="123.15" cy="194.55" r="2.19" fill="#9bd3ff" opacity="0.59"/><circle cx="37.30" cy="55.74" r="4.88" fill="#c7a64a" opacity="0.29"/><circle cx="367.36" cy="635.68" r="2.27" fill="#9bd3ff" opacity="0.37"/><circle cx="511.51" cy="28.05" r="4.24" fill="#c7a64a" opacity="0.39"/>
  </g>

  <rect x="16" y="16" width="736" height="992" rx="24" stroke="url(#edge-chronomancer-c22)" stroke-width="2.5" opacity="0.85"/>
  <rect x="22" y="22" width="724" height="980" rx="20" stroke="#8aa0c4" stroke-width="2" opacity="0.74"/>

  <rect x="34" y="34" width="700" height="72" rx="14" fill="#070b14" fill-opacity="0.72" stroke="#8aa0c4" stroke-opacity="0.55"/>
  <text x="54" y="80" fill="#EAF4FF" font-family="Exo 2, Segoe UI, sans-serif" font-size="32" font-weight="700">Chronomancer</text>

  <rect x="34" y="872" width="700" height="92" rx="14" fill="#070b14" fill-opacity="0.74" stroke="#8aa0c4" stroke-opacity="0.6"/>
  <text x="54" y="924" fill="#D9E7FF" font-family="Exo 2, Segoe UI, sans-serif" font-size="30" font-weight="600">Trapwright</text>

  <rect x="598" y="36" width="118" height="42" rx="10" fill="#8aa0c4" fill-opacity="0.2" stroke="#8aa0c4" stroke-opacity="0.8"/>
  <text x="612" y="65" fill="#8aa0c4" font-family="Exo 2, Segoe UI, sans-serif" font-size="20" font-weight="700">COMMON</text>

  <circle cx="708" cy="954" r="26" fill="#080d18" stroke="#8aa0c4" stroke-opacity="0.8"/>
  <text x="696" y="962" fill="#E7F2FF" font-family="Exo 2, Segoe UI, sans-serif" font-size="24" font-weight="700">22</text>
</svg>