<?xml version="1.0" encoding="UTF-8"?>
<svg width="768" height="1024" viewBox="0 0 768 1024" fill="none" xmlns="http://www.w3.org/2000/svg">
  <defs>
    <linearGradient id="bg-chronomancer-c15" x1="60" y1="40" x2="728" y2="1004" gradientUnits="userSpaceOnUse">
      <stop offset="0" stop-color="#101425"/>
      <stop offset="0.55" stop-color="#2a4478"/>
      <stop offset="1" stop-color="#101425"/>
    </linearGradient>
    <radialGradient id="glow-chronomancer-c15" cx="0" cy="0" r="1" gradientUnits="userSpaceOnUse" gradientTransform="translate(523.57 218.49) rotate(90) scale(240.86 240.86)">
      <stop stop-color="#c7a64a" stop-opacity="0.45"/>
      <stop offset="1" stop-color="#c7a64a" stop-opacity="0"/>
    </radialGradient>
    <linearGradient id="edge-chronomancer-c15" x1="0" y1="0" x2="768" y2="1024" gradientUnits="userSpaceOnUse">
      <stop stop-color="#c7a64a" stop-opacity="0.85"/>
      <stop offset="1" stop-color="#9bd3ff" stop-opacity="0.85"/>
    </linearGradient>
  </defs>

  <rect x="0" y="0" width="768" height="1024" rx="32" fill="#060910"/>
  <rect x="16" y="16" width="736" height="992" rx="24" fill="url(#bg-chronomancer-c15)"/>
  <rect x="16" y="16" width="736" height="992" rx="24" fill="url(#glow-chronomancer-c15)"/>

  <g opacity="0.88">
    <circle cx="384" cy="512" r="184" fill="none" stroke="#c7a64a" stroke-width="8" opacity="0.72"/>
<circle cx="384" cy="512" r="132" fill="none" stroke="#9bd3ff" stroke-width="4" opacity="0.76"/>
<line x1="524.00" y1="512.00" x2="560.00" y2="512.00" stroke="#9bd3ff" stroke-width="4" opacity="0.7"/><line x1="505.24" y1="582.00" x2="536.42" y2="600.00" stroke="#9bd3ff" stroke-width="4" opacity="0.7"/><line x1="454.00" y1="633.24" x2="472.00" y2="664.42" stroke="#9bd3ff" stroke-width="4" opacity="0.7"/><line x1="384.00" y1="652.00" x2="384.00" y2="688.00" stroke="#9bd3ff" stroke-width="4" opacity="0.7"/><line x1="314.00" y1="633.24" x2="296.00" y2="664.42" stroke="#9bd3ff" stroke-width="4" opacity="0.7"/><line x1="262.76" y1="582.00" x2="231.58" y2="600.00" stroke="#9bd3ff" stroke-width="4" opacity="0.7"/><line x1="244.00" y1="512.00" x2="208.00" y2="512.00" stroke="#9bd3ff" stroke-width="4" opacity="0.7"/><line x1="262.76" y1="442.00" x2="231.58" y2="424.00" stroke="#9bd3ff" stroke-width="4" opacity="0.7"/><line x1="314.00" y1="390.76" x2="296.00" y2="359.58" stroke="#9bd3ff" stroke-width="4" opacity="0.7"/><line x1="384.00" y1="372.00" x2="384.00" y2="336.00" stroke="#9bd3ff" stroke-width="4" opacity="0.7"/><line x1="454.00" y1="390.76" x2="472.00" y2="359.58" stroke="#9bd3ff" stroke-width="4" opacity="0.7"/><line x1="505.24" y1="442.00" x2="536.42" y2="424.00" stroke="#9bd3ff" stroke-width="4" opacity="0.7"/>
<line x1="384" y1="512" x2="466.00" y2="486.00" stroke="#c7a64a" stroke-width="8" opacity="0.9"/>
<line x1="384" y1="512" x2="342.00" y2="604.00" stroke="#9bd3ff" stroke-width="6" opacity="0.9"/>
  </g>

  <g opacity="0.8">
    <circle cx="683.84" cy="89.09" r="4.68" fill="#9bd3ff" opacity="0.50"/><circle cx="561.29" cy="501.38" r="2.09" fill="#c7a64a" opacity="0.38"/><circle cx="458.10" cy="680.20" r="4.61" fill="#9bd3ff" opacity="0.66"/><circle cx="583.62" cy="742.88" r="1.99" fill="#c7a64a" opacity="0.66"/><circle cx="390.44" cy="711.63" r="2.91" fill="#9bd3ff" opacity="0.70"/><circle cx="542.88" cy="266.87" r="1.48" fill="#c7a64a" opacity="0.70"/><circle cx="458.51" cy="929.70" r="2.45" fill="#9bd3ff" opacity="0.57"/><circle cx="343.57" cy="326.69" r="1.53" fill="#c7a64a" opacity="0.43"/><circle cx="160.39" cy="598.30" r="2.70" fill="#9bd3ff" opacity="0.52"/><circle cx="426.17" cy="565.27" r="3.33" fill="#c7a64a" opacity="0.36"/><circle cx="15.41" cy="3.09" r="2.74" fill="#9bd3ff" opacity="0.35"/><circle cx="440.17" cy="315.77" r="4.19" fill="#c7a64a" opacity="0.39"/><circle cx="665.63" cy="65.08" r="4.87" fill="#9bd3ff" opacity="0.62"/><circle cx="66.26" cy="782.91" r="4.21" fill="#c7a64a" opacity="0.28"/><circle cx="517.83" cy="535.40" r="1.25" fill="#9bd3ff" opacity="0.27"/><circle cx="598.95" cy="910.75" r="1.69" fill="#c7a64a" opacity="0.34"/><circle cx="42.20" cy="997.86" r="4.21" fill="#9bd3ff" opacity="0.62"/><circle cx="713.21" cy="782.18" r="3.39" fill="#c7a64a" opacity="0.30"/><circle cx="674.16" cy="284.23" r="2.51" fill="#9bd3ff" opacity="0.59"/><circle cx="58.59" cy="989.76" r="2.32" fill="#c7a64a" opacity="0.46"/><circle cx="386.26" cy="149.21" r="2.76" fill="#9bd3ff" opacity="0.44"/><circle cx="209.65" cy="277.73" r="1.70" fill="#c7a64a" opacity="0.71"/><circle cx="651.24" cy="101.72" r="2.68" fill="#9bd3ff" opacity="0.32"/><circle cx="595.82" cy="357.00" r="3.19" fill="#c7a64a" opacity="0.39"/><circle cx="519.34" cy="59.85" r="2.79" fill="#9bd3ff" opacity="0.73"/><circle cx="475.26" cy="771.97" r="2.46" fill="#c7a64a" opacity="0.49"/><circle cx="700.80" cy="611.91" r="3.55" fill="#9bd3ff" opacity="0.60"/><circle cx="315.97" cy="792.46" r="3.67" fill="#c7a64a" opacity="0.72"/>
  </g>

  <rect x="16" y="16" width="736" height="992" rx="24" stroke="url(#edge-chronomancer-c15)" stroke-width="2.5" opacity="0.85"/>
  <rect x="22" y="22" width="724" height="980" rx="20" stroke="#8aa0c4" stroke-width="2" opacity="0.74"/>

  <rect x="34" y="34" width="700" height="72" rx="14" fill="#070b14" fill-opacity="0.72" stroke="#8aa0c4" stroke-opacity="0.55"/>
  <text x="54" y="80" fill="#EAF4FF" font-family="Exo 2, Segoe UI, sans-serif" font-size="32" font-weight="700">Chronomancer</text>

  <rect x="34" y="872" width="700" height="92" rx="14" fill="#070b14" fill-opacity="0.74" stroke="#8aa0c4" stroke-opacity="0.6"/>
  <text x="54" y="924" fill="#D9E7FF" font-family="Exo 2, Segoe UI, sans-serif" font-size="30" font-weight="600">Standard Bearer</text>

  <rect x="598" y="36" width="118" height="42" rx="10" fill="#8aa0c4" fill-opacity="0.2" stroke="#8aa0c4" stroke-opacity="0.8"/>
  <text x="612" y="65" fill="#8aa0c4" font-family="Exo 2, Segoe UI, sans-serif" font-size="20" font-weight="700">COMMON</text>

  <circle cx="708" cy="954" r="26" fill="#080d18" stroke="#8aa0c4" stroke-opacity="0.8"/>
  <text x="696" y="962" fill="#E7F2FF" font-family="Exo 2, Segoe UI, sans-serif" font-size="24" font-weight="700">15</text>
</svg>