<?xml version="1.0" encoding="UTF-8"?>
<svg width="768" height="1024" viewBox="0 0 768 1024" fill="none" xmlns="http://www.w3.org/2000/svg">
  <defs>
    <linearGradient id="bg-chronomancer-c08" x1="60" y1="40" x2="728" y2="1004" gradientUnits="userSpaceOnUse">
      <stop offset="0" stop-color="#101425"/>
      <stop offset="0.55" stop-color="#2a4478"/>
      <stop offset="1" stop-color="#101425"/>
    </linearGradient>
    <radialGradient id="glow-chronomancer-c08" cx="0" cy="0" r="1" gradientUnits="userSpaceOnUse" gradientTransform="translate(129.64 377.55) rotate(90) scale(243.24 243.24)">
      <stop stop-color="#c7a64a" stop-opacity="0.45"/>
      <stop offset="1" stop-color="#c7a64a" stop-opacity="0"/>
    </radialGradient>
    <linearGradient id="edge-chronomancer-c08" x1="0" y1="0" x2="768" y2="1024" gradientUnits="userSpaceOnUse">
      <stop stop-color="#c7a64a" stop-opacity="0.85"/>
      <stop offset="1" stop-color="#9bd3ff" stop-opacity="0.85"/>
    </linearGradient>
  </defs>

  <rect x="0" y="0" width="768" height="1024" rx="32" fill="#060910"/>
  <rect x="16" y="16" width="736" height="992" rx="24" fill="url(#bg-chronomancer-c08)"/>
  <rect x="16" y="16" width="736" height="992" rx="24" fill="url(#glow-chronomancer-c08)"/>

  <g opacity="0.88">
    <circle cx="384" cy="512" r="184" fill="none" stroke="#c7a64a" stroke-width="8" opacity="0.72"/>
<circle cx="384" cy="512" r="132" fill="none" stroke="#9bd3ff" stroke-width="4" opacity="0.76"/>
<line x1="524.00" y1="512.00" x2="560.00" y2="512.00" stroke="#9bd3ff" stroke-width="4" opacity="0.7"/><line x1="505.24" y1="582.00" x2="536.42" y2="600.00" stroke="#9bd3ff" stroke-width="4" opacity="0.7"/><line x1="454.00" y1="633.24" x2="472.00" y2="664.42" stroke="#9bd3ff" stroke-width="4" opacity="0.7"/><line x1="384.00" y1="652.00" x2="384.00" y2="688.00" stroke="#9bd3ff" stroke-width="4" opacity="0.7"/><line x1="314.00" y1="633.24" x2="296.00" y2="664.42" stroke="#9bd3ff" stroke-width="4" opacity="0.7"/><line x1="262.76" y1="582.00" x2="231.58" y2="600.00" stroke="#9bd3ff" stroke-width="4" opacity="0.7"/><line x1="244.00" y1="512.00" x2="208.00" y2="512.00" stroke="#9bd3ff" stroke-width="4" opacity="0.7"/><line x1="262.76" y1="442.00" x2="231.58" y2="424.00" stroke="#9bd3ff" stroke-width="4" opacity="0.7"/><line x1="314.00" y1="390.76" x2="296.00" y2="359.58" stroke="#9bd3ff" stroke-width="4" opacity="0.7"/><line x1="384.00" y1="372.00" x2="384.00" y2="336.00" stroke="#9bd3ff" stroke-width="4" opacity="0.7"/><line x1="454.00" y1="390.76" x2="472.00" y2="359.58" stroke="#9bd3ff" stroke-width="4" opacity="0.7"/><line x1="505.24" y1="442.00" x2="536.42" y2="424.00" stroke="#9bd3ff" stroke-width="4" opacity="0.7"/>
<line x1="384" y1="512" x2="466.00" y2="486.00" stroke="#c7a64a" stroke-width="8" opacity="0.9"/>
<line x1="384" y1="512" x2="342.00" y2="604.00" stroke="#9bd3ff" stroke-width="6" opacity="0.9"/>
  </g>

  <g opacity="0.8">
    <circle cx="250.20" cy="61.82" r="1.27" fill="#9bd3ff" opacity="0.68"/><circle cx="28.05" cy="462.48" r="4.11" fill="#c7a64a" opacity="0.42"/><circle cx="200.09" cy="61.05" r="1.47" fill="#9bd3ff" opacity="0.56"/><circle cx="657.03" cy="372.79" r="2.88" fill="#c7a64a" opacity="0.26"/><circle cx="452.71" cy="107.48" r="2.78" fill="#9bd3ff" opacity="0.53"/><circle cx="536.59" cy="112.34" r="4.94" fill="#c7a64a" opacity="0.42"/><circle cx="373.81" cy="159.50" r="2.98" fill="#9bd3ff" opacity="0.61"/><circle cx="761.70" cy="863.05" r="4.29" fill="#c7a64a" opacity="0.52"/><circle cx="602.32" cy="298.80" r="1.86" fill="#9bd3ff" opacity="0.53"/><circle cx="208.22" cy="739.12" r="1.50" fill="#c7a64a" opacity="0.31"/><circle cx="331.29" cy="469.93" r="1.48" fill="#9bd3ff" opacity="0.37"/><circle cx="159.46" cy="105.44" r="4.78" fill="#c7a64a" opacity="0.66"/><circle cx="494.01" cy="957.29" r="2.17" fill="#9bd3ff" opacity="0.55"/><circle cx="393.47" cy="70.19" r="3.46" fill="#c7a64a" opacity="0.37"/><circle cx="59.97" cy="649.19" r="3.61" fill="#9bd3ff" opacity="0.25"/><circle cx="57.84" cy="252.33" r="4.47" fill="#c7a64a" opacity="0.29"/><circle cx="328.23" cy="296.45" r="3.09" fill="#9bd3ff" opacity="0.62"/><circle cx="617.61" cy="518.56" r="1.65" fill="#c7a64a" opacity="0.47"/><circle cx="334.12" cy="671.96" r="2.39" fill="#9bd3ff" opacity="0.55"/><circle cx="224.94" cy="221.04" r="4.07" fill="#c7a64a" opacity="0.64"/><circle cx="460.97" cy="807.75" r="1.64" fill="#9bd3ff" opacity="0.54"/><circle cx="335.66" cy="790.17" r="4.69" fill="#c7a64a" opacity="0.71"/><circle cx="709.42" cy="782.96" r="3.45" fill="#9bd3ff" opacity="0.27"/><circle cx="349.80" cy="329.09" r="4.92" fill="#c7a64a" opacity="0.56"/><circle cx="437.36" cy="6.40" r="2.53" fill="#9bd3ff" opacity="0.70"/><circle cx="322.52" cy="899.14" r="3.00" fill="#c7a64a" opacity="0.50"/><circle cx="170.87" cy="632.51" r="3.16" fill="#9bd3ff" opacity="0.49"/><circle cx="329.37" cy="952.17" r="4.99" fill="#c7a64a" opacity="0.73"/>
  </g>

  <rect x="16" y="16" width="736" height="992" rx="24" stroke="url(#edge-chronomancer-c08)" stroke-width="2.5" opacity="0.85"/>
  <rect x="22" y="22" width="724" height="980" rx="20" stroke="#8aa0c4" stroke-width="2" opacity="0.74"/>

  <rect x="34" y="34" width="700" height="72" rx="14" fill="#070b14" fill-opacity="0.72" stroke="#8aa0c4" stroke-opacity="0.55"/>
  <text x="54" y="80" fill="#EAF4FF" font-family="Exo 2, Segoe UI, sans-serif" font-size="32" font-weight="700">Chronomancer</text>

  <rect x="34" y="872" width="700" height="92" rx="14" fill="#070b14" fill-opacity="0.74" stroke="#8aa0c4" stroke-opacity="0.6"/>
  <text x="54" y="924" fill="#D9E7FF" font-family="Exo 2, Segoe UI, sans-serif" font-size="30" font-weight="600">Guardian</text>

  <rect x="598" y="36" width="118" height="42" rx="10" fill="#8aa0c4" fill-opacity="0.2" stroke="#8aa0c4" stroke-opacity="0.8"/>
  <text x="612" y="65" fill="#8aa0c4" font-family="Exo 2, Segoe UI, sans-serif" font-size="20" font-weight="700">COMMON</text>

  <circle cx="708" cy="954" r="26" fill="#080d18" stroke="#8aa0c4" stroke-opacity="0.8"/>
  <text x="696" y="962" fill="#E7F2FF" font-family="Exo 2, Segoe UI, sans-serif" font-size="24" font-weight="700">08</text>
</svg>