<?xml version="1.0" encoding="UTF-8"?>
<svg width="768" height="1024" viewBox="0 0 768 1024" fill="none" xmlns="http://www.w3.org/2000/svg">
  <defs>
    <linearGradient id="bg-chronomancer-c12" x1="60" y1="40" x2="728" y2="1004" gradientUnits="userSpaceOnUse">
      <stop offset="0" stop-color="#101425"/>
      <stop offset="0.55" stop-color="#2a4478"/>
      <stop offset="1" stop-color="#101425"/>
    </linearGradient>
    <radialGradient id="glow-chronomancer-c12" cx="0" cy="0" r="1" gradientUnits="userSpaceOnUse" gradientTransform="translate(612.12 694.51) rotate(90) scale(195.79 195.79)">
      <stop stop-color="#c7a64a" stop-opacity="0.45"/>
      <stop offset="1" stop-color="#c7a64a" stop-opacity="0"/>
    </radialGradient>
    <linearGradient id="edge-chronomancer-c12" x1="0" y1="0" x2="768" y2="1024" gradientUnits="userSpaceOnUse">
      <stop stop-color="#c7a64a" stop-opacity="0.85"/>
      <stop offset="1" stop-color="#9bd3ff" stop-opacity="0.85"/>
    </linearGradient>
  </defs>

  <rect x="0" y="0" width="768" height="1024" rx="32" fill="#060910"/>
  <rect x="16" y="16" width="736" height="992" rx="24" fill="url(#bg-chronomancer-c12)"/>
  <rect x="16" y="16" width="736" height="992" rx="24" fill="url(#glow-chronomancer-c12)"/>

  <g opacity="0.88">
    <circle cx="384" cy="512" r="184" fill="none" stroke="#c7a64a" stroke-width="8" opacity="0.72"/>
<circle cx="384" cy="512" r="132" fill="none" stroke="#9bd3ff" stroke-width="4" opacity="0.76"/>
<line x1="524.00" y1="512.00" x2="560.00" y2="512.00" stroke="#9bd3ff" stroke-width="4" opacity="0.7"/><line x1="505.24" y1="582.00" x2="536.42" y2="600.00" stroke="#9bd3ff" stroke-width="4" opacity="0.7"/><line x1="454.00" y1="633.24" x2="472.00" y2="664.42" stroke="#9bd3ff" stroke-width="4" opacity="0.7"/><line x1="384.00" y1="652.00" x2="384.00" y2="688.00" stroke="#9bd3ff" stroke-width="4" opacity="0.7"/><line x1="314.00" y1="633.24" x2="296.00" y2="664.42" stroke="#9bd3ff" stroke-width="4" opacity="0.7"/><line x1="262.76" y1="582.00" x2="231.58" y2="600.00" stroke="#9bd3ff" stroke-width="4" opacity="0.7"/><line x1="244.00" y1="512.00" x2="208.00" y2="512.00" stroke="#9bd3ff" stroke-width="4" opacity="0.7"/><line x1="262.76" y1="442.00" x2="231.58" y2="424.00" stroke="#9bd3ff" stroke-width="4" opacity="0.7"/><line x1="314.00" y1="390.76" x2="296.00" y2="359.58" stroke="#9bd3ff" stroke-width="4" opacity="0.7"/><line x1="384.00" y1="372.00" x2="384.00" y2="336.00" stroke="#9bd3ff" stroke-width="4" opacity="0.7"/><line x1="454.00" y1="390.76" x2="472.00" y2="359.58" stroke="#9bd3ff" stroke-width="4" opacity="0.7"/><line x1="505.24" y1="442.00" x2="536.42" y2="424.00" stroke="#9bd3ff" stroke-width="4" opacity="0.7"/>
<line x1="384" y1="512" x2="466.00" y2="486.00" stroke="#c7a64a" stroke-width="8" opacity="0.9"/>
<line x1="384" y1="512" x2="342.00" y2="604.00" stroke="#9bd3ff" stroke-width="6" opacity="0.9"/>
  </g>

  <g opacity="0.8">
    <circle cx="589.15" cy="198.28" r="4.72" fill="#9bd3ff" opacity="0.56"/><circle cx="665.34" cy="560.87" r="3.32" fill="#c7a64a" opacity="0.72"/><circle cx="388.21" cy="93.40" r="4.05" fill="#9bd3ff" opacity="0.37"/><circle cx="114.50" cy="501.95" r="1.26" fill="#c7a64a" opacity="0.30"/><circle cx="603.82" cy="719.04" r="1.85" fill="#9bd3ff" opacity="0.67"/><circle cx="333.56" cy="37.01" r="3.46" fill="#c7a64a" opacity="0.30"/><circle cx="318.84" cy="485.71" r="3.11" fill="#9bd3ff" opacity="0.31"/><circle cx="74.59" cy="209.89" r="2.30" fill="#c7a64a" opacity="0.62"/><circle cx="627.24" cy="882.85" r="2.46" fill="#9bd3ff" opacity="0.71"/><circle cx="555.66" cy="924.85" r="1.87" fill="#c7a64a" opacity="0.47"/><circle cx="80.71" cy="598.63" r="2.37" fill="#9bd3ff" opacity="0.53"/><circle cx="206.66" cy="929.23" r="1.25" fill="#c7a64a" opacity="0.71"/><circle cx="198.89" cy="590.85" r="4.56" fill="#9bd3ff" opacity="0.30"/><circle cx="559.81" cy="561.75" r="4.81" fill="#c7a64a" opacity="0.26"/><circle cx="453.71" cy="599.19" r="1.94" fill="#9bd3ff" opacity="0.38"/><circle cx="53.96" cy="863.30" r="4.76" fill="#c7a64a" opacity="0.33"/><circle cx="299.93" cy="668.36" r="3.61" fill="#9bd3ff" opacity="0.66"/><circle cx="560.78" cy="266.82" r="3.26" fill="#c7a64a" opacity="0.55"/><circle cx="284.83" cy="434.90" r="3.92" fill="#9bd3ff" opacity="0.68"/><circle cx="216.13" cy="958.00" r="4.31" fill="#c7a64a" opacity="0.71"/><circle cx="584.38" cy="756.17" r="3.86" fill="#9bd3ff" opacity="0.35"/><circle cx="767.47" cy="969.03" r="4.73" fill="#c7a64a" opacity="0.72"/><circle cx="249.69" cy="173.71" r="4.50" fill="#9bd3ff" opacity="0.50"/><circle cx="59.35" cy="867.19" r="2.55" fill="#c7a64a" opacity="0.53"/><circle cx="311.98" cy="686.09" r="4.66" fill="#9bd3ff" opacity="0.72"/><circle cx="601.20" cy="758.42" r="2.37" fill="#c7a64a" opacity="0.31"/><circle cx="224.55" cy="682.70" r="1.48" fill="#9bd3ff" opacity="0.48"/><circle cx="201.86" cy="95.31" r="1.66" fill="#c7a64a" opacity="0.41"/>
  </g>

  <rect x="16" y="16" width="736" height="992" rx="24" stroke="url(#edge-chronomancer-c12)" stroke-width="2.5" opacity="0.85"/>
  <rect x="22" y="22" width="724" height="980" rx="20" stroke="#8aa0c4" stroke-width="2" opacity="0.74"/>

  <rect x="34" y="34" width="700" height="72" rx="14" fill="#070b14" fill-opacity="0.72" stroke="#8aa0c4" stroke-opacity="0.55"/>
  <text x="54" y="80" fill="#EAF4FF" font-family="Exo 2, Segoe UI, sans-serif" font-size="32" font-weight="700">Chronomancer</text>

  <rect x="34" y="872" width="700" height="92" rx="14" fill="#070b14" fill-opacity="0.74" stroke="#8aa0c4" stroke-opacity="0.6"/>
  <text x="54" y="924" fill="#D9E7FF" font-family="Exo 2, Segoe UI, sans-serif" font-size="30" font-weight="600">Hazard Binder</text>

  <rect x="598" y="36" width="118" height="42" rx="10" fill="#8aa0c4" fill-opacity="0.2" stroke="#8aa0c4" stroke-opacity="0.8"/>
  <text x="612" y="65" fill="#8aa0c4" font-family="Exo 2, Segoe UI, sans-serif" font-size="20" font-weight="700">COMMON</text>

  <circle cx="708" cy="954" r="26" fill="#080d18" stroke="#8aa0c4" stroke-opacity="0.8"/>
  <text x="696" y="962" fill="#E7F2FF" font-family="Exo 2, Segoe UI, sans-serif" font-size="24" font-weight="700">12</text>
</svg>