<?xml version="1.0" encoding="UTF-8"?>
<svg width="768" height="1024" viewBox="0 0 768 1024" fill="none" xmlns="http://www.w3.org/2000/svg">
  <defs>
    <linearGradient id="bg-chronomancer-c19" x1="60" y1="40" x2="728" y2="1004" gradientUnits="userSpaceOnUse">
      <stop offset="0" stop-color="#101425"/>
      <stop offset="0.55" stop-color="#2a4478"/>
      <stop offset="1" stop-color="#101425"/>
    </linearGradient>
    <radialGradient id="glow-chronomancer-c19" cx="0" cy="0" r="1" gradientUnits="userSpaceOnUse" gradientTransform="translate(206.00 626.44) rotate(90) scale(255.15 255.15)">
      <stop stop-color="#c7a64a" stop-opacity="0.45"/>
      <stop offset="1" stop-color="#c7a64a" stop-opacity="0"/>
    </radialGradient>
    <linearGradient id="edge-chronomancer-c19" x1="0" y1="0" x2="768" y2="1024" gradientUnits="userSpaceOnUse">
      <stop stop-color="#c7a64a" stop-opacity="0.85"/>
      <stop offset="1" stop-color="#9bd3ff" stop-opacity="0.85"/>
    </linearGradient>
  </defs>

  <rect x="0" y="0" width="768" height="1024" rx="32" fill="#060910"/>
  <rect x="16" y="16" width="736" height="992" rx="24" fill="url(#bg-chronomancer-c19)"/>
  <rect x="16" y="16" width="736" height="992" rx="24" fill="url(#glow-chronomancer-c19)"/>

  <g opacity="0.88">
    <circle cx="384" cy="512" r="184" fill="none" stroke="#c7a64a" stroke-width="8" opacity="0.72"/>
<circle cx="384" cy="512" r="132" fill="none" stroke="#9bd3ff" stroke-width="4" opacity="0.76"/>
<line x1="524.00" y1="512.00" x2="560.00" y2="512.00" stroke="#9bd3ff" stroke-width="4" opacity="0.7"/><line x1="505.24" y1="582.00" x2="536.42" y2="600.00" stroke="#9bd3ff" stroke-width="4" opacity="0.7"/><line x1="454.00" y1="633.24" x2="472.00" y2="664.42" stroke="#9bd3ff" stroke-width="4" opacity="0.7"/><line x1="384.00" y1="652.00" x2="384.00" y2="688.00" stroke="#9bd3ff" stroke-width="4" opacity="0.7"/><line x1="314.00" y1="633.24" x2="296.00" y2="664.42" stroke="#9bd3ff" stroke-width="4" opacity="0.7"/><line x1="262.76" y1="582.00" x2="231.58" y2="600.00" stroke="#9bd3ff" stroke-width="4" opacity="0.7"/><line x1="244.00" y1="512.00" x2="208.00" y2="512.00" stroke="#9bd3ff" stroke-width="4" opacity="0.7"/><line x1="262.76" y1="442.00" x2="231.58" y2="424.00" stroke="#9bd3ff" stroke-width="4" opacity="0.7"/><line x1="314.00" y1="390.76" x2="296.00" y2="359.58" stroke="#9bd3ff" stroke-width="4" opacity="0.7"/><line x1="384.00" y1="372.00" x2="384.00" y2="336.00" stroke="#9bd3ff" stroke-width="4" opacity="0.7"/><line x1="454.00" y1="390.76" x2="472.00" y2="359.58" stroke="#9bd3ff" stroke-width="4" opacity="0.7"/><line x1="505.24" y1="442.00" x2="536.42" y2="424.00" stroke="#9bd3ff" stroke-width="4" opacity="0.7"/>
<line x1="384" y1="512" x2="466.00" y2="486.00" stroke="#c7a64a" stroke-width="8" opacity="0.9"/>
<line x1="384" y1="512" x2="342.00" y2="604.00" stroke="#9bd3ff" stroke-width="6" opacity="0.9"/>
  </g>

  <g opacity="0.8">
    <circle cx="524.63" cy="515.88" r="2.53" fill="#9bd3ff" opacity="0.41"/><circle cx="549.59" cy="342.31" r="4.96" fill="#c7a64a" opacity="0.36"/><circle cx="732.25" cy="1001.94" r="1.97" fill="#9bd3ff" opacity="0.48"/><circle cx="135.70" cy="141.20" r="2.13" fill="#c7a64a" opacity="0.31"/><circle cx="485.62" cy="41.67" r="1.81" fill="#9bd3ff" opacity="0.51"/><circle cx="323.13" cy="878.21" r="4.04" fill="#c7a64a" opacity="0.48"/><circle cx="762.13" cy="554.09" r="1.81" fill="#9bd3ff" opacity="0.53"/><circle cx="199.22" cy="175.87" r="2.25" fill="#c7a64a" opacity="0.38"/><circle cx="81.46" cy="308.05" r="4.72" fill="#9bd3ff" opacity="0.66"/><circle cx="625.39" cy="904.24" r="2.08" fill="#c7a64a" opacity="0.39"/><circle cx="642.97" cy="260.60" r="3.06" fill="#9bd3ff" opacity="0.54"/><circle cx="121.75" cy="339.62" r="1.38" fill="#c7a64a" opacity="0.59"/><circle cx="0.25" cy="499.96" r="3.19" fill="#9bd3ff" opacity="0.28"/><circle cx="241.02" cy="549.35" r="4.93" fill="#c7a64a" opacity="0.36"/><circle cx="167.16" cy="773.81" r="3.06" fill="#9bd3ff" opacity="0.41"/><circle cx="511.51" cy="271.17" r="4.35" fill="#c7a64a" opacity="0.40"/><circle cx="414.97" cy="89.46" r="3.96" fill="#9bd3ff" opacity="0.25"/><circle cx="182.18" cy="927.17" r="3.79" fill="#c7a64a" opacity="0.24"/><circle cx="151.16" cy="95.77" r="1.97" fill="#9bd3ff" opacity="0.73"/><circle cx="733.21" cy="1004.23" r="2.76" fill="#c7a64a" opacity="0.69"/><circle cx="633.88" cy="513.24" r="2.31" fill="#9bd3ff" opacity="0.48"/><circle cx="138.64" cy="727.96" r="2.57" fill="#c7a64a" opacity="0.46"/><circle cx="469.70" cy="903.63" r="2.29" fill="#9bd3ff" opacity="0.28"/><circle cx="123.63" cy="1012.92" r="4.18" fill="#c7a64a" opacity="0.71"/><circle cx="340.85" cy="285.05" r="3.50" fill="#9bd3ff" opacity="0.71"/><circle cx="78.70" cy="196.20" r="1.55" fill="#c7a64a" opacity="0.33"/><circle cx="544.82" cy="570.41" r="3.06" fill="#9bd3ff" opacity="0.45"/><circle cx="266.42" cy="486.39" r="2.77" fill="#c7a64a" opacity="0.34"/>
  </g>

  <rect x="16" y="16" width="736" height="992" rx="24" stroke="url(#edge-chronomancer-c19)" stroke-width="2.5" opacity="0.85"/>
  <rect x="22" y="22" width="724" height="980" rx="20" stroke="#8aa0c4" stroke-width="2" opacity="0.74"/>

  <rect x="34" y="34" width="700" height="72" rx="14" fill="#070b14" fill-opacity="0.72" stroke="#8aa0c4" stroke-opacity="0.55"/>
  <text x="54" y="80" fill="#EAF4FF" font-family="Exo 2, Segoe UI, sans-serif" font-size="32" font-weight="700">Chronomancer</text>

  <rect x="34" y="872" width="700" height="92" rx="14" fill="#070b14" fill-opacity="0.74" stroke="#8aa0c4" stroke-opacity="0.6"/>
  <text x="54" y="924" fill="#D9E7FF" font-family="Exo 2, Segoe UI, sans-serif" font-size="30" font-weight="600">Aegis Warder</text>

  <rect x="598" y="36" width="118" height="42" rx="10" fill="#8aa0c4" fill-opacity="0.2" stroke="#8aa0c4" stroke-opacity="0.8"/>
  <text x="612" y="65" fill="#8aa0c4" font-family="Exo 2, Segoe UI, sans-serif" font-size="20" font-weight="700">COMMON</text>

  <circle cx="708" cy="954" r="26" fill="#080d18" stroke="#8aa0c4" stroke-opacity="0.8"/>
  <text x="696" y="962" fill="#E7F2FF" font-family="Exo 2, Segoe UI, sans-serif" font-size="24" font-weight="700">19</text>
</svg>