<?xml version="1.0" encoding="UTF-8"?>
<svg width="768" height="1024" viewBox="0 0 768 1024" fill="none" xmlns="http://www.w3.org/2000/svg">
  <defs>
    <linearGradient id="bg-chronomancer-c28" x1="60" y1="40" x2="728" y2="1004" gradientUnits="userSpaceOnUse">
      <stop offset="0" stop-color="#101425"/>
      <stop offset="0.55" stop-color="#2a4478"/>
      <stop offset="1" stop-color="#101425"/>
    </linearGradient>
    <radialGradient id="glow-chronomancer-c28" cx="0" cy="0" r="1" gradientUnits="userSpaceOnUse" gradientTransform="translate(175.56 334.87) rotate(90) scale(190.38 190.38)">
      <stop stop-color="#c7a64a" stop-opacity="0.45"/>
      <stop offset="1" stop-color="#c7a64a" stop-opacity="0"/>
    </radialGradient>
    <linearGradient id="edge-chronomancer-c28" x1="0" y1="0" x2="768" y2="1024" gradientUnits="userSpaceOnUse">
      <stop stop-color="#c7a64a" stop-opacity="0.85"/>
      <stop offset="1" stop-color="#9bd3ff" stop-opacity="0.85"/>
    </linearGradient>
  </defs>

  <rect x="0" y="0" width="768" height="1024" rx="32" fill="#060910"/>
  <rect x="16" y="16" width="736" height="992" rx="24" fill="url(#bg-chronomancer-c28)"/>
  <rect x="16" y="16" width="736" height="992" rx="24" fill="url(#glow-chronomancer-c28)"/>

  <g opacity="0.88">
    <circle cx="384" cy="512" r="184" fill="none" stroke="#c7a64a" stroke-width="8" opacity="0.72"/>
<circle cx="384" cy="512" r="132" fill="none" stroke="#9bd3ff" stroke-width="4" opacity="0.76"/>
<line x1="524.00" y1="512.00" x2="560.00" y2="512.00" stroke="#9bd3ff" stroke-width="4" opacity="0.7"/><line x1="505.24" y1="582.00" x2="536.42" y2="600.00" stroke="#9bd3ff" stroke-width="4" opacity="0.7"/><line x1="454.00" y1="633.24" x2="472.00" y2="664.42" stroke="#9bd3ff" stroke-width="4" opacity="0.7"/><line x1="384.00" y1="652.00" x2="384.00" y2="688.00" stroke="#9bd3ff" stroke-width="4" opacity="0.7"/><line x1="314.00" y1="633.24" x2="296.00" y2="664.42" stroke="#9bd3ff" stroke-width="4" opacity="0.7"/><line x1="262.76" y1="582.00" x2="231.58" y2="600.00" stroke="#9bd3ff" stroke-width="4" opacity="0.7"/><line x1="244.00" y1="512.00" x2="208.00" y2="512.00" stroke="#9bd3ff" stroke-width="4" opacity="0.7"/><line x1="262.76" y1="442.00" x2="231.58" y2="424.00" stroke="#9bd3ff" stroke-width="4" opacity="0.7"/><line x1="314.00" y1="390.76" x2="296.00" y2="359.58" stroke="#9bd3ff" stroke-width="4" opacity="0.7"/><line x1="384.00" y1="372.00" x2="384.00" y2="336.00" stroke="#9bd3ff" stroke-width="4" opacity="0.7"/><line x1="454.00" y1="390.76" x2="472.00" y2="359.58" stroke="#9bd3ff" stroke-width="4" opacity="0.7"/><line x1="505.24" y1="442.00" x2="536.42" y2="424.00" stroke="#9bd3ff" stroke-width="4" opacity="0.7"/>
<line x1="384" y1="512" x2="466.00" y2="486.00" stroke="#c7a64a" stroke-width="8" opacity="0.9"/>
<line x1="384" y1="512" x2="342.00" y2="604.00" stroke="#9bd3ff" stroke-width="6" opacity="0.9"/>
  </g>

  <g opacity="0.8">
    <circle cx="558.94" cy="551.67" r="2.17" fill="#9bd3ff" opacity="0.60"/><circle cx="563.18" cy="753.46" r="2.80" fill="#c7a64a" opacity="0.57"/><circle cx="267.14" cy="234.69" r="2.75" fill="#9bd3ff" opacity="0.51"/><circle cx="27.06" cy="366.58" r="4.17" fill="#c7a64a" opacity="0.36"/><circle cx="357.07" cy="603.45" r="1.39" fill="#9bd3ff" opacity="0.34"/><circle cx="119.03" cy="467.73" r="2.02" fill="#c7a64a" opacity="0.65"/><circle cx="365.96" cy="32.74" r="1.97" fill="#9bd3ff" opacity="0.28"/><circle cx="708.00" cy="429.28" r="4.40" fill="#c7a64a" opacity="0.63"/><circle cx="446.55" cy="932.31" r="3.91" fill="#9bd3ff" opacity="0.71"/><circle cx="143.73" cy="762.30" r="4.89" fill="#c7a64a" opacity="0.69"/><circle cx="700.89" cy="878.72" r="4.53" fill="#9bd3ff" opacity="0.65"/><circle cx="134.17" cy="113.31" r="1.50" fill="#c7a64a" opacity="0.32"/><circle cx="701.09" cy="73.30" r="4.04" fill="#9bd3ff" opacity="0.31"/><circle cx="355.89" cy="195.38" r="1.34" fill="#c7a64a" opacity="0.53"/><circle cx="3.93" cy="549.16" r="2.18" fill="#9bd3ff" opacity="0.51"/><circle cx="365.98" cy="841.33" r="2.88" fill="#c7a64a" opacity="0.27"/><circle cx="528.00" cy="130.87" r="4.32" fill="#9bd3ff" opacity="0.46"/><circle cx="447.08" cy="962.01" r="4.24" fill="#c7a64a" opacity="0.54"/><circle cx="566.40" cy="11.19" r="2.77" fill="#9bd3ff" opacity="0.63"/><circle cx="718.57" cy="928.31" r="4.46" fill="#c7a64a" opacity="0.36"/><circle cx="287.45" cy="284.61" r="1.44" fill="#9bd3ff" opacity="0.58"/><circle cx="116.75" cy="790.33" r="1.55" fill="#c7a64a" opacity="0.58"/><circle cx="323.28" cy="233.93" r="1.32" fill="#9bd3ff" opacity="0.33"/><circle cx="99.64" cy="781.42" r="3.83" fill="#c7a64a" opacity="0.56"/><circle cx="637.70" cy="199.76" r="3.84" fill="#9bd3ff" opacity="0.43"/><circle cx="481.81" cy="944.24" r="3.11" fill="#c7a64a" opacity="0.58"/><circle cx="295.69" cy="287.30" r="3.76" fill="#9bd3ff" opacity="0.32"/><circle cx="548.68" cy="752.93" r="3.88" fill="#c7a64a" opacity="0.43"/>
  </g>

  <rect x="16" y="16" width="736" height="992" rx="24" stroke="url(#edge-chronomancer-c28)" stroke-width="2.5" opacity="0.85"/>
  <rect x="22" y="22" width="724" height="980" rx="20" stroke="#8aa0c4" stroke-width="2" opacity="0.74"/>

  <rect x="34" y="34" width="700" height="72" rx="14" fill="#070b14" fill-opacity="0.72" stroke="#8aa0c4" stroke-opacity="0.55"/>
  <text x="54" y="80" fill="#EAF4FF" font-family="Exo 2, Segoe UI, sans-serif" font-size="32" font-weight="700">Chronomancer</text>

  <rect x="34" y="872" width="700" height="92" rx="14" fill="#070b14" fill-opacity="0.74" stroke="#8aa0c4" stroke-opacity="0.6"/>
  <text x="54" y="924" fill="#D9E7FF" font-family="Exo 2, Segoe UI, sans-serif" font-size="30" font-weight="600">Momentum Blade</text>

  <rect x="598" y="36" width="118" height="42" rx="10" fill="#8aa0c4" fill-opacity="0.2" stroke="#8aa0c4" stroke-opacity="0.8"/>
  <text x="612" y="65" fill="#8aa0c4" font-family="Exo 2, Segoe UI, sans-serif" font-size="20" font-weight="700">COMMON</text>

  <circle cx="708" cy="954" r="26" fill="#080d18" stroke="#8aa0c4" stroke-opacity="0.8"/>
  <text x="696" y="962" fill="#E7F2FF" font-family="Exo 2, Segoe UI, sans-serif" font-size="24" font-weight="700">28</text>
</svg>