<?xml version="1.0" encoding="UTF-8"?>
<svg width="768" height="1024" viewBox="0 0 768 1024" fill="none" xmlns="http://www.w3.org/2000/svg">
  <defs>
    <linearGradient id="bg-chronomancer-c45" x1="60" y1="40" x2="728" y2="1004" gradientUnits="userSpaceOnUse">
      <stop offset="0" stop-color="#101425"/>
      <stop offset="0.55" stop-color="#2a4478"/>
      <stop offset="1" stop-color="#101425"/>
    </linearGradient>
    <radialGradient id="glow-chronomancer-c45" cx="0" cy="0" r="1" gradientUnits="userSpaceOnUse" gradientTransform="translate(266.46 369.86) rotate(90) scale(291.27 291.27)">
      <stop stop-color="#c7a64a" stop-opacity="0.45"/>
      <stop offset="1" stop-color="#c7a64a" stop-opacity="0"/>
    </radialGradient>
    <linearGradient id="edge-chronomancer-c45" x1="0" y1="0" x2="768" y2="1024" gradientUnits="userSpaceOnUse">
      <stop stop-color="#c7a64a" stop-opacity="0.85"/>
      <stop offset="1" stop-color="#9bd3ff" stop-opacity="0.85"/>
    </linearGradient>
  </defs>

  <rect x="0" y="0" width="768" height="1024" rx="32" fill="#060910"/>
  <rect x="16" y="16" width="736" height="992" rx="24" fill="url(#bg-chronomancer-c45)"/>
  <rect x="16" y="16" width="736" height="992" rx="24" fill="url(#glow-chronomancer-c45)"/>

  <g opacity="0.88">
    <circle cx="384" cy="512" r="184" fill="none" stroke="#c7a64a" stroke-width="8" opacity="0.72"/>
<circle cx="384" cy="512" r="132" fill="none" stroke="#9bd3ff" stroke-width="4" opacity="0.76"/>
<line x1="524.00" y1="512.00" x2="560.00" y2="512.00" stroke="#9bd3ff" stroke-width="4" opacity="0.7"/><line x1="505.24" y1="582.00" x2="536.42" y2="600.00" stroke="#9bd3ff" stroke-width="4" opacity="0.7"/><line x1="454.00" y1="633.24" x2="472.00" y2="664.42" stroke="#9bd3ff" stroke-width="4" opacity="0.7"/><line x1="384.00" y1="652.00" x2="384.00" y2="688.00" stroke="#9bd3ff" stroke-width="4" opacity="0.7"/><line x1="314.00" y1="633.24" x2="296.00" y2="664.42" stroke="#9bd3ff" stroke-width="4" opacity="0.7"/><line x1="262.76" y1="582.00" x2="231.58" y2="600.00" stroke="#9bd3ff" stroke-width="4" opacity="0.7"/><line x1="244.00" y1="512.00" x2="208.00" y2="512.00" stroke="#9bd3ff" stroke-width="4" opacity="0.7"/><line x1="262.76" y1="442.00" x2="231.58" y2="424.00" stroke="#9bd3ff" stroke-width="4" opacity="0.7"/><line x1="314.00" y1="390.76" x2="296.00" y2="359.58" stroke="#9bd3ff" stroke-width="4" opacity="0.7"/><line x1="384.00" y1="372.00" x2="384.00" y2="336.00" stroke="#9bd3ff" stroke-width="4" opacity="0.7"/><line x1="454.00" y1="390.76" x2="472.00" y2="359.58" stroke="#9bd3ff" stroke-width="4" opacity="0.7"/><line x1="505.24" y1="442.00" x2="536.42" y2="424.00" stroke="#9bd3ff" stroke-width="4" opacity="0.7"/>
<line x1="384" y1="512" x2="466.00" y2="486.00" stroke="#c7a64a" stroke-width="8" opacity="0.9"/>
<line x1="384" y1="512" x2="342.00" y2="604.00" stroke="#9bd3ff" stroke-width="6" opacity="0.9"/>
  </g>

  <g opacity="0.8">
    <circle cx="196.25" cy="621.97" r="1.34" fill="#9bd3ff" opacity="0.68"/><circle cx="122.37" cy="1002.67" r="2.18" fill="#c7a64a" opacity="0.40"/><circle cx="519.46" cy="427.21" r="2.19" fill="#9bd3ff" opacity="0.63"/><circle cx="103.14" cy="217.49" r="2.98" fill="#c7a64a" opacity="0.58"/><circle cx="73.51" cy="893.45" r="1.90" fill="#9bd3ff" opacity="0.70"/><circle cx="225.51" cy="1000.39" r="3.37" fill="#c7a64a" opacity="0.66"/><circle cx="33.67" cy="769.45" r="2.81" fill="#9bd3ff" opacity="0.36"/><circle cx="674.61" cy="126.29" r="4.01" fill="#c7a64a" opacity="0.48"/><circle cx="137.16" cy="309.74" r="2.79" fill="#9bd3ff" opacity="0.43"/><circle cx="418.34" cy="878.90" r="1.71" fill="#c7a64a" opacity="0.60"/><circle cx="689.48" cy="891.55" r="4.38" fill="#9bd3ff" opacity="0.73"/><circle cx="351.04" cy="950.09" r="1.51" fill="#c7a64a" opacity="0.56"/><circle cx="761.99" cy="634.28" r="4.26" fill="#9bd3ff" opacity="0.37"/><circle cx="327.20" cy="657.21" r="4.24" fill="#c7a64a" opacity="0.39"/><circle cx="738.60" cy="608.31" r="4.82" fill="#9bd3ff" opacity="0.56"/><circle cx="412.62" cy="30.17" r="3.41" fill="#c7a64a" opacity="0.30"/><circle cx="420.99" cy="757.04" r="4.86" fill="#9bd3ff" opacity="0.71"/><circle cx="6.95" cy="15.45" r="4.32" fill="#c7a64a" opacity="0.38"/><circle cx="107.35" cy="354.13" r="3.17" fill="#9bd3ff" opacity="0.43"/><circle cx="77.11" cy="818.59" r="4.59" fill="#c7a64a" opacity="0.55"/><circle cx="550.42" cy="783.64" r="1.40" fill="#9bd3ff" opacity="0.34"/><circle cx="363.23" cy="678.55" r="3.58" fill="#c7a64a" opacity="0.35"/><circle cx="134.89" cy="843.11" r="4.45" fill="#9bd3ff" opacity="0.65"/><circle cx="475.09" cy="748.38" r="3.34" fill="#c7a64a" opacity="0.54"/><circle cx="693.11" cy="785.54" r="3.21" fill="#9bd3ff" opacity="0.34"/><circle cx="211.85" cy="956.83" r="3.25" fill="#c7a64a" opacity="0.35"/><circle cx="231.92" cy="638.70" r="3.89" fill="#9bd3ff" opacity="0.54"/><circle cx="499.72" cy="481.25" r="2.33" fill="#c7a64a" opacity="0.45"/>
  </g>

  <rect x="16" y="16" width="736" height="992" rx="24" stroke="url(#edge-chronomancer-c45)" stroke-width="2.5" opacity="0.85"/>
  <rect x="22" y="22" width="724" height="980" rx="20" stroke="#f0a0ff" stroke-width="2" opacity="0.74"/>

  <rect x="34" y="34" width="700" height="72" rx="14" fill="#070b14" fill-opacity="0.72" stroke="#f0a0ff" stroke-opacity="0.55"/>
  <text x="54" y="80" fill="#EAF4FF" font-family="Exo 2, Segoe UI, sans-serif" font-size="32" font-weight="700">Chronomancer</text>

  <rect x="34" y="872" width="700" height="92" rx="14" fill="#070b14" fill-opacity="0.74" stroke="#f0a0ff" stroke-opacity="0.6"/>
  <text x="54" y="924" fill="#D9E7FF" font-family="Exo 2, Segoe UI, sans-serif" font-size="30" font-weight="600">Epic Summon</text>

  <rect x="598" y="36" width="118" height="42" rx="10" fill="#f0a0ff" fill-opacity="0.2" stroke="#f0a0ff" stroke-opacity="0.8"/>
  <text x="612" y="65" fill="#f0a0ff" font-family="Exo 2, Segoe UI, sans-serif" font-size="20" font-weight="700">EPIC</text>

  <circle cx="708" cy="954" r="26" fill="#080d18" stroke="#f0a0ff" stroke-opacity="0.8"/>
  <text x="696" y="962" fill="#E7F2FF" font-family="Exo 2, Segoe UI, sans-serif" font-size="24" font-weight="700">45</text>
</svg>