<?xml version="1.0" encoding="UTF-8"?>
<svg width="768" height="1024" viewBox="0 0 768 1024" fill="none" xmlns="http://www.w3.org/2000/svg">
  <defs>
    <linearGradient id="bg-chronomancer-c43" x1="60" y1="40" x2="728" y2="1004" gradientUnits="userSpaceOnUse">
      <stop offset="0" stop-color="#101425"/>
      <stop offset="0.55" stop-color="#2a4478"/>
      <stop offset="1" stop-color="#101425"/>
    </linearGradient>
    <radialGradient id="glow-chronomancer-c43" cx="0" cy="0" r="1" gradientUnits="userSpaceOnUse" gradientTransform="translate(261.32 406.72) rotate(90) scale(293.66 293.66)">
      <stop stop-color="#c7a64a" stop-opacity="0.45"/>
      <stop offset="1" stop-color="#c7a64a" stop-opacity="0"/>
    </radialGradient>
    <linearGradient id="edge-chronomancer-c43" x1="0" y1="0" x2="768" y2="1024" gradientUnits="userSpaceOnUse">
      <stop stop-color="#c7a64a" stop-opacity="0.85"/>
      <stop offset="1" stop-color="#9bd3ff" stop-opacity="0.85"/>
    </linearGradient>
  </defs>

  <rect x="0" y="0" width="768" height="1024" rx="32" fill="#060910"/>
  <rect x="16" y="16" width="736" height="992" rx="24" fill="url(#bg-chronomancer-c43)"/>
  <rect x="16" y="16" width="736" height="992" rx="24" fill="url(#glow-chronomancer-c43)"/>

  <g opacity="0.88">
    <circle cx="384" cy="512" r="184" fill="none" stroke="#c7a64a" stroke-width="8" opacity="0.72"/>
<circle cx="384" cy="512" r="132" fill="none" stroke="#9bd3ff" stroke-width="4" opacity="0.76"/>
<line x1="524.00" y1="512.00" x2="560.00" y2="512.00" stroke="#9bd3ff" stroke-width="4" opacity="0.7"/><line x1="505.24" y1="582.00" x2="536.42" y2="600.00" stroke="#9bd3ff" stroke-width="4" opacity="0.7"/><line x1="454.00" y1="633.24" x2="472.00" y2="664.42" stroke="#9bd3ff" stroke-width="4" opacity="0.7"/><line x1="384.00" y1="652.00" x2="384.00" y2="688.00" stroke="#9bd3ff" stroke-width="4" opacity="0.7"/><line x1="314.00" y1="633.24" x2="296.00" y2="664.42" stroke="#9bd3ff" stroke-width="4" opacity="0.7"/><line x1="262.76" y1="582.00" x2="231.58" y2="600.00" stroke="#9bd3ff" stroke-width="4" opacity="0.7"/><line x1="244.00" y1="512.00" x2="208.00" y2="512.00" stroke="#9bd3ff" stroke-width="4" opacity="0.7"/><line x1="262.76" y1="442.00" x2="231.58" y2="424.00" stroke="#9bd3ff" stroke-width="4" opacity="0.7"/><line x1="314.00" y1="390.76" x2="296.00" y2="359.58" stroke="#9bd3ff" stroke-width="4" opacity="0.7"/><line x1="384.00" y1="372.00" x2="384.00" y2="336.00" stroke="#9bd3ff" stroke-width="4" opacity="0.7"/><line x1="454.00" y1="390.76" x2="472.00" y2="359.58" stroke="#9bd3ff" stroke-width="4" opacity="0.7"/><line x1="505.24" y1="442.00" x2="536.42" y2="424.00" stroke="#9bd3ff" stroke-width="4" opacity="0.7"/>
<line x1="384" y1="512" x2="466.00" y2="486.00" stroke="#c7a64a" stroke-width="8" opacity="0.9"/>
<line x1="384" y1="512" x2="342.00" y2="604.00" stroke="#9bd3ff" stroke-width="6" opacity="0.9"/>
  </g>

  <g opacity="0.8">
    <circle cx="54.83" cy="820.15" r="4.38" fill="#9bd3ff" opacity="0.40"/><circle cx="392.59" cy="445.66" r="1.52" fill="#c7a64a" opacity="0.26"/><circle cx="681.41" cy="99.42" r="2.92" fill="#9bd3ff" opacity="0.27"/><circle cx="495.91" cy="951.99" r="2.10" fill="#c7a64a" opacity="0.56"/><circle cx="88.38" cy="137.85" r="3.55" fill="#9bd3ff" opacity="0.49"/><circle cx="54.94" cy="1008.71" r="2.54" fill="#c7a64a" opacity="0.61"/><circle cx="332.44" cy="28.70" r="3.52" fill="#9bd3ff" opacity="0.48"/><circle cx="501.52" cy="953.60" r="1.79" fill="#c7a64a" opacity="0.36"/><circle cx="174.21" cy="0.35" r="2.13" fill="#9bd3ff" opacity="0.38"/><circle cx="605.51" cy="758.39" r="2.88" fill="#c7a64a" opacity="0.41"/><circle cx="619.02" cy="582.60" r="4.58" fill="#9bd3ff" opacity="0.55"/><circle cx="756.37" cy="715.83" r="3.56" fill="#c7a64a" opacity="0.55"/><circle cx="561.59" cy="950.90" r="3.43" fill="#9bd3ff" opacity="0.37"/><circle cx="650.50" cy="313.52" r="3.49" fill="#c7a64a" opacity="0.25"/><circle cx="544.68" cy="354.53" r="1.39" fill="#9bd3ff" opacity="0.71"/><circle cx="173.74" cy="113.06" r="4.69" fill="#c7a64a" opacity="0.32"/><circle cx="99.60" cy="162.93" r="1.32" fill="#9bd3ff" opacity="0.63"/><circle cx="607.60" cy="438.34" r="2.38" fill="#c7a64a" opacity="0.59"/><circle cx="426.02" cy="921.22" r="4.74" fill="#9bd3ff" opacity="0.69"/><circle cx="432.03" cy="992.97" r="3.40" fill="#c7a64a" opacity="0.42"/><circle cx="557.06" cy="359.69" r="3.06" fill="#9bd3ff" opacity="0.36"/><circle cx="678.09" cy="687.29" r="3.22" fill="#c7a64a" opacity="0.32"/><circle cx="56.88" cy="387.54" r="4.58" fill="#9bd3ff" opacity="0.53"/><circle cx="592.67" cy="330.37" r="3.26" fill="#c7a64a" opacity="0.38"/><circle cx="345.42" cy="64.61" r="2.45" fill="#9bd3ff" opacity="0.40"/><circle cx="388.41" cy="917.54" r="3.48" fill="#c7a64a" opacity="0.40"/><circle cx="315.56" cy="625.59" r="4.83" fill="#9bd3ff" opacity="0.56"/><circle cx="469.07" cy="920.67" r="4.62" fill="#c7a64a" opacity="0.72"/>
  </g>

  <rect x="16" y="16" width="736" height="992" rx="24" stroke="url(#edge-chronomancer-c43)" stroke-width="2.5" opacity="0.85"/>
  <rect x="22" y="22" width="724" height="980" rx="20" stroke="#78d8ff" stroke-width="2" opacity="0.74"/>

  <rect x="34" y="34" width="700" height="72" rx="14" fill="#070b14" fill-opacity="0.72" stroke="#78d8ff" stroke-opacity="0.55"/>
  <text x="54" y="80" fill="#EAF4FF" font-family="Exo 2, Segoe UI, sans-serif" font-size="32" font-weight="700">Chronomancer</text>

  <rect x="34" y="872" width="700" height="92" rx="14" fill="#070b14" fill-opacity="0.74" stroke="#78d8ff" stroke-opacity="0.6"/>
  <text x="54" y="924" fill="#D9E7FF" font-family="Exo 2, Segoe UI, sans-serif" font-size="30" font-weight="600">Faction Amplifier</text>

  <rect x="598" y="36" width="118" height="42" rx="10" fill="#78d8ff" fill-opacity="0.2" stroke="#78d8ff" stroke-opacity="0.8"/>
  <text x="612" y="65" fill="#78d8ff" font-family="Exo 2, Segoe UI, sans-serif" font-size="20" font-weight="700">RARE</text>

  <circle cx="708" cy="954" r="26" fill="#080d18" stroke="#78d8ff" stroke-opacity="0.8"/>
  <text x="696" y="962" fill="#E7F2FF" font-family="Exo 2, Segoe UI, sans-serif" font-size="24" font-weight="700">43</text>
</svg>