<?xml version="1.0" encoding="UTF-8"?>
<svg width="768" height="1024" viewBox="0 0 768 1024" fill="none" xmlns="http://www.w3.org/2000/svg">
  <defs>
    <linearGradient id="bg-chronomancer-c51" x1="60" y1="40" x2="728" y2="1004" gradientUnits="userSpaceOnUse">
      <stop offset="0" stop-color="#101425"/>
      <stop offset="0.55" stop-color="#2a4478"/>
      <stop offset="1" stop-color="#101425"/>
    </linearGradient>
    <radialGradient id="glow-chronomancer-c51" cx="0" cy="0" r="1" gradientUnits="userSpaceOnUse" gradientTransform="translate(576.33 662.60) rotate(90) scale(294.83 294.83)">
      <stop stop-color="#c7a64a" stop-opacity="0.45"/>
      <stop offset="1" stop-color="#c7a64a" stop-opacity="0"/>
    </radialGradient>
    <linearGradient id="edge-chronomancer-c51" x1="0" y1="0" x2="768" y2="1024" gradientUnits="userSpaceOnUse">
      <stop stop-color="#c7a64a" stop-opacity="0.85"/>
      <stop offset="1" stop-color="#9bd3ff" stop-opacity="0.85"/>
    </linearGradient>
  </defs>

  <rect x="0" y="0" width="768" height="1024" rx="32" fill="#060910"/>
  <rect x="16" y="16" width="736" height="992" rx="24" fill="url(#bg-chronomancer-c51)"/>
  <rect x="16" y="16" width="736" height="992" rx="24" fill="url(#glow-chronomancer-c51)"/>

  <g opacity="0.88">
    <circle cx="384" cy="512" r="184" fill="none" stroke="#c7a64a" stroke-width="8" opacity="0.72"/>
<circle cx="384" cy="512" r="132" fill="none" stroke="#9bd3ff" stroke-width="4" opacity="0.76"/>
<line x1="524.00" y1="512.00" x2="560.00" y2="512.00" stroke="#9bd3ff" stroke-width="4" opacity="0.7"/><line x1="505.24" y1="582.00" x2="536.42" y2="600.00" stroke="#9bd3ff" stroke-width="4" opacity="0.7"/><line x1="454.00" y1="633.24" x2="472.00" y2="664.42" stroke="#9bd3ff" stroke-width="4" opacity="0.7"/><line x1="384.00" y1="652.00" x2="384.00" y2="688.00" stroke="#9bd3ff" stroke-width="4" opacity="0.7"/><line x1="314.00" y1="633.24" x2="296.00" y2="664.42" stroke="#9bd3ff" stroke-width="4" opacity="0.7"/><line x1="262.76" y1="582.00" x2="231.58" y2="600.00" stroke="#9bd3ff" stroke-width="4" opacity="0.7"/><line x1="244.00" y1="512.00" x2="208.00" y2="512.00" stroke="#9bd3ff" stroke-width="4" opacity="0.7"/><line x1="262.76" y1="442.00" x2="231.58" y2="424.00" stroke="#9bd3ff" stroke-width="4" opacity="0.7"/><line x1="314.00" y1="390.76" x2="296.00" y2="359.58" stroke="#9bd3ff" stroke-width="4" opacity="0.7"/><line x1="384.00" y1="372.00" x2="384.00" y2="336.00" stroke="#9bd3ff" stroke-width="4" opacity="0.7"/><line x1="454.00" y1="390.76" x2="472.00" y2="359.58" stroke="#9bd3ff" stroke-width="4" opacity="0.7"/><line x1="505.24" y1="442.00" x2="536.42" y2="424.00" stroke="#9bd3ff" stroke-width="4" opacity="0.7"/>
<line x1="384" y1="512" x2="466.00" y2="486.00" stroke="#c7a64a" stroke-width="8" opacity="0.9"/>
<line x1="384" y1="512" x2="342.00" y2="604.00" stroke="#9bd3ff" stroke-width="6" opacity="0.9"/>
  </g>

  <g opacity="0.8">
    <circle cx="517.80" cy="914.04" r="2.88" fill="#9bd3ff" opacity="0.58"/><circle cx="18.86" cy="382.94" r="2.24" fill="#c7a64a" opacity="0.65"/><circle cx="241.98" cy="65.13" r="4.49" fill="#9bd3ff" opacity="0.69"/><circle cx="326.72" cy="197.74" r="1.93" fill="#c7a64a" opacity="0.60"/><circle cx="170.58" cy="585.03" r="4.98" fill="#9bd3ff" opacity="0.49"/><circle cx="432.83" cy="175.00" r="2.76" fill="#c7a64a" opacity="0.50"/><circle cx="619.59" cy="260.40" r="3.46" fill="#9bd3ff" opacity="0.26"/><circle cx="673.97" cy="577.95" r="3.97" fill="#c7a64a" opacity="0.47"/><circle cx="753.72" cy="208.16" r="4.30" fill="#9bd3ff" opacity="0.51"/><circle cx="664.45" cy="10.85" r="1.86" fill="#c7a64a" opacity="0.39"/><circle cx="494.30" cy="176.81" r="2.30" fill="#9bd3ff" opacity="0.53"/><circle cx="155.61" cy="728.92" r="4.96" fill="#c7a64a" opacity="0.40"/><circle cx="468.80" cy="702.18" r="1.85" fill="#9bd3ff" opacity="0.44"/><circle cx="631.60" cy="145.90" r="4.90" fill="#c7a64a" opacity="0.26"/><circle cx="312.35" cy="923.93" r="4.25" fill="#9bd3ff" opacity="0.70"/><circle cx="632.89" cy="305.81" r="1.50" fill="#c7a64a" opacity="0.50"/><circle cx="639.13" cy="743.62" r="1.46" fill="#9bd3ff" opacity="0.42"/><circle cx="645.65" cy="769.56" r="2.42" fill="#c7a64a" opacity="0.31"/><circle cx="585.66" cy="25.04" r="3.99" fill="#9bd3ff" opacity="0.40"/><circle cx="700.07" cy="871.47" r="1.38" fill="#c7a64a" opacity="0.74"/><circle cx="634.58" cy="671.64" r="2.66" fill="#9bd3ff" opacity="0.70"/><circle cx="621.07" cy="489.33" r="1.26" fill="#c7a64a" opacity="0.64"/><circle cx="361.57" cy="704.81" r="3.41" fill="#9bd3ff" opacity="0.67"/><circle cx="120.83" cy="499.18" r="2.13" fill="#c7a64a" opacity="0.36"/><circle cx="748.94" cy="604.32" r="4.80" fill="#9bd3ff" opacity="0.52"/><circle cx="185.65" cy="531.81" r="3.97" fill="#c7a64a" opacity="0.24"/><circle cx="22.15" cy="443.13" r="3.89" fill="#9bd3ff" opacity="0.62"/><circle cx="687.78" cy="786.34" r="1.93" fill="#c7a64a" opacity="0.54"/>
  </g>

  <rect x="16" y="16" width="736" height="992" rx="24" stroke="url(#edge-chronomancer-c51)" stroke-width="2.5" opacity="0.85"/>
  <rect x="22" y="22" width="724" height="980" rx="20" stroke="#f0a0ff" stroke-width="2" opacity="0.74"/>

  <rect x="34" y="34" width="700" height="72" rx="14" fill="#070b14" fill-opacity="0.72" stroke="#f0a0ff" stroke-opacity="0.55"/>
  <text x="54" y="80" fill="#EAF4FF" font-family="Exo 2, Segoe UI, sans-serif" font-size="32" font-weight="700">Chronomancer</text>

  <rect x="34" y="872" width="700" height="92" rx="14" fill="#070b14" fill-opacity="0.74" stroke="#f0a0ff" stroke-opacity="0.6"/>
  <text x="54" y="924" fill="#D9E7FF" font-family="Exo 2, Segoe UI, sans-serif" font-size="30" font-weight="600">Apex Catalyst</text>

  <rect x="598" y="36" width="118" height="42" rx="10" fill="#f0a0ff" fill-opacity="0.2" stroke="#f0a0ff" stroke-opacity="0.8"/>
  <text x="612" y="65" fill="#f0a0ff" font-family="Exo 2, Segoe UI, sans-serif" font-size="20" font-weight="700">EPIC</text>

  <circle cx="708" cy="954" r="26" fill="#080d18" stroke="#f0a0ff" stroke-opacity="0.8"/>
  <text x="696" y="962" fill="#E7F2FF" font-family="Exo 2, Segoe UI, sans-serif" font-size="24" font-weight="700">51</text>
</svg>