<?xml version="1.0" encoding="UTF-8"?>
<svg width="768" height="1024" viewBox="0 0 768 1024" fill="none" xmlns="http://www.w3.org/2000/svg">
  <defs>
    <linearGradient id="bg-chronomancer-c35" x1="60" y1="40" x2="728" y2="1004" gradientUnits="userSpaceOnUse">
      <stop offset="0" stop-color="#101425"/>
      <stop offset="0.55" stop-color="#2a4478"/>
      <stop offset="1" stop-color="#101425"/>
    </linearGradient>
    <radialGradient id="glow-chronomancer-c35" cx="0" cy="0" r="1" gradientUnits="userSpaceOnUse" gradientTransform="translate(458.42 168.86) rotate(90) scale(219.81 219.81)">
      <stop stop-color="#c7a64a" stop-opacity="0.45"/>
      <stop offset="1" stop-color="#c7a64a" stop-opacity="0"/>
    </radialGradient>
    <linearGradient id="edge-chronomancer-c35" x1="0" y1="0" x2="768" y2="1024" gradientUnits="userSpaceOnUse">
      <stop stop-color="#c7a64a" stop-opacity="0.85"/>
      <stop offset="1" stop-color="#9bd3ff" stop-opacity="0.85"/>
    </linearGradient>
  </defs>

  <rect x="0" y="0" width="768" height="1024" rx="32" fill="#060910"/>
  <rect x="16" y="16" width="736" height="992" rx="24" fill="url(#bg-chronomancer-c35)"/>
  <rect x="16" y="16" width="736" height="992" rx="24" fill="url(#glow-chronomancer-c35)"/>

  <g opacity="0.88">
    <circle cx="384" cy="512" r="184" fill="none" stroke="#c7a64a" stroke-width="8" opacity="0.72"/>
<circle cx="384" cy="512" r="132" fill="none" stroke="#9bd3ff" stroke-width="4" opacity="0.76"/>
<line x1="524.00" y1="512.00" x2="560.00" y2="512.00" stroke="#9bd3ff" stroke-width="4" opacity="0.7"/><line x1="505.24" y1="582.00" x2="536.42" y2="600.00" stroke="#9bd3ff" stroke-width="4" opacity="0.7"/><line x1="454.00" y1="633.24" x2="472.00" y2="664.42" stroke="#9bd3ff" stroke-width="4" opacity="0.7"/><line x1="384.00" y1="652.00" x2="384.00" y2="688.00" stroke="#9bd3ff" stroke-width="4" opacity="0.7"/><line x1="314.00" y1="633.24" x2="296.00" y2="664.42" stroke="#9bd3ff" stroke-width="4" opacity="0.7"/><line x1="262.76" y1="582.00" x2="231.58" y2="600.00" stroke="#9bd3ff" stroke-width="4" opacity="0.7"/><line x1="244.00" y1="512.00" x2="208.00" y2="512.00" stroke="#9bd3ff" stroke-width="4" opacity="0.7"/><line x1="262.76" y1="442.00" x2="231.58" y2="424.00" stroke="#9bd3ff" stroke-width="4" opacity="0.7"/><line x1="314.00" y1="390.76" x2="296.00" y2="359.58" stroke="#9bd3ff" stroke-width="4" opacity="0.7"/><line x1="384.00" y1="372.00" x2="384.00" y2="336.00" stroke="#9bd3ff" stroke-width="4" opacity="0.7"/><line x1="454.00" y1="390.76" x2="472.00" y2="359.58" stroke="#9bd3ff" stroke-width="4" opacity="0.7"/><line x1="505.24" y1="442.00" x2="536.42" y2="424.00" stroke="#9bd3ff" stroke-width="4" opacity="0.7"/>
<line x1="384" y1="512" x2="466.00" y2="486.00" stroke="#c7a64a" stroke-width="8" opacity="0.9"/>
<line x1="384" y1="512" x2="342.00" y2="604.00" stroke="#9bd3ff" stroke-width="6" opacity="0.9"/>
  </g>

  <g opacity="0.8">
    <circle cx="621.52" cy="227.27" r="1.53" fill="#9bd3ff" opacity="0.44"/><circle cx="741.02" cy="910.28" r="3.36" fill="#c7a64a" opacity="0.51"/><circle cx="380.90" cy="118.40" r="2.70" fill="#9bd3ff" opacity="0.72"/><circle cx="345.68" cy="140.87" r="3.07" fill="#c7a64a" opacity="0.38"/><circle cx="493.23" cy="578.05" r="2.52" fill="#9bd3ff" opacity="0.53"/><circle cx="639.98" cy="25.66" r="4.67" fill="#c7a64a" opacity="0.58"/><circle cx="692.98" cy="356.99" r="2.34" fill="#9bd3ff" opacity="0.66"/><circle cx="511.97" cy="538.08" r="4.03" fill="#c7a64a" opacity="0.64"/><circle cx="314.78" cy="581.81" r="2.06" fill="#9bd3ff" opacity="0.68"/><circle cx="93.71" cy="724.60" r="3.92" fill="#c7a64a" opacity="0.53"/><circle cx="421.30" cy="720.63" r="2.45" fill="#9bd3ff" opacity="0.46"/><circle cx="345.31" cy="963.79" r="3.73" fill="#c7a64a" opacity="0.63"/><circle cx="545.70" cy="1023.01" r="1.63" fill="#9bd3ff" opacity="0.63"/><circle cx="561.26" cy="412.31" r="2.42" fill="#c7a64a" opacity="0.72"/><circle cx="416.16" cy="1020.30" r="2.23" fill="#9bd3ff" opacity="0.59"/><circle cx="412.16" cy="272.98" r="2.70" fill="#c7a64a" opacity="0.54"/><circle cx="248.96" cy="961.23" r="1.24" fill="#9bd3ff" opacity="0.73"/><circle cx="543.30" cy="143.90" r="4.38" fill="#c7a64a" opacity="0.67"/><circle cx="290.02" cy="768.77" r="3.60" fill="#9bd3ff" opacity="0.73"/><circle cx="673.48" cy="482.72" r="2.74" fill="#c7a64a" opacity="0.66"/><circle cx="253.22" cy="131.19" r="4.08" fill="#9bd3ff" opacity="0.56"/><circle cx="42.62" cy="967.32" r="1.92" fill="#c7a64a" opacity="0.72"/><circle cx="565.05" cy="1006.16" r="2.87" fill="#9bd3ff" opacity="0.63"/><circle cx="482.69" cy="490.90" r="4.33" fill="#c7a64a" opacity="0.44"/><circle cx="285.17" cy="184.19" r="1.23" fill="#9bd3ff" opacity="0.49"/><circle cx="717.71" cy="570.26" r="3.81" fill="#c7a64a" opacity="0.62"/><circle cx="12.06" cy="1004.04" r="3.21" fill="#9bd3ff" opacity="0.30"/><circle cx="761.21" cy="777.10" r="2.92" fill="#c7a64a" opacity="0.31"/>
  </g>

  <rect x="16" y="16" width="736" height="992" rx="24" stroke="url(#edge-chronomancer-c35)" stroke-width="2.5" opacity="0.85"/>
  <rect x="22" y="22" width="724" height="980" rx="20" stroke="#78d8ff" stroke-width="2" opacity="0.74"/>

  <rect x="34" y="34" width="700" height="72" rx="14" fill="#070b14" fill-opacity="0.72" stroke="#78d8ff" stroke-opacity="0.55"/>
  <text x="54" y="80" fill="#EAF4FF" font-family="Exo 2, Segoe UI, sans-serif" font-size="32" font-weight="700">Chronomancer</text>

  <rect x="34" y="872" width="700" height="92" rx="14" fill="#070b14" fill-opacity="0.74" stroke="#78d8ff" stroke-opacity="0.6"/>
  <text x="54" y="924" fill="#D9E7FF" font-family="Exo 2, Segoe UI, sans-serif" font-size="30" font-weight="600">Draw Filter</text>

  <rect x="598" y="36" width="118" height="42" rx="10" fill="#78d8ff" fill-opacity="0.2" stroke="#78d8ff" stroke-opacity="0.8"/>
  <text x="612" y="65" fill="#78d8ff" font-family="Exo 2, Segoe UI, sans-serif" font-size="20" font-weight="700">RARE</text>

  <circle cx="708" cy="954" r="26" fill="#080d18" stroke="#78d8ff" stroke-opacity="0.8"/>
  <text x="696" y="962" fill="#E7F2FF" font-family="Exo 2, Segoe UI, sans-serif" font-size="24" font-weight="700">35</text>
</svg>