<?xml version="1.0" encoding="UTF-8"?>
<svg width="768" height="1024" viewBox="0 0 768 1024" fill="none" xmlns="http://www.w3.org/2000/svg">
  <defs>
    <linearGradient id="bg-chronomancer-c02" x1="60" y1="40" x2="728" y2="1004" gradientUnits="userSpaceOnUse">
      <stop offset="0" stop-color="#101425"/>
      <stop offset="0.55" stop-color="#2a4478"/>
      <stop offset="1" stop-color="#101425"/>
    </linearGradient>
    <radialGradient id="glow-chronomancer-c02" cx="0" cy="0" r="1" gradientUnits="userSpaceOnUse" gradientTransform="translate(536.61 388.55) rotate(90) scale(212.27 212.27)">
      <stop stop-color="#c7a64a" stop-opacity="0.45"/>
      <stop offset="1" stop-color="#c7a64a" stop-opacity="0"/>
    </radialGradient>
    <linearGradient id="edge-chronomancer-c02" x1="0" y1="0" x2="768" y2="1024" gradientUnits="userSpaceOnUse">
      <stop stop-color="#c7a64a" stop-opacity="0.85"/>
      <stop offset="1" stop-color="#9bd3ff" stop-opacity="0.85"/>
    </linearGradient>
  </defs>

  <rect x="0" y="0" width="768" height="1024" rx="32" fill="#060910"/>
  <rect x="16" y="16" width="736" height="992" rx="24" fill="url(#bg-chronomancer-c02)"/>
  <rect x="16" y="16" width="736" height="992" rx="24" fill="url(#glow-chronomancer-c02)"/>

  <g opacity="0.88">
    <circle cx="384" cy="512" r="184" fill="none" stroke="#c7a64a" stroke-width="8" opacity="0.72"/>
<circle cx="384" cy="512" r="132" fill="none" stroke="#9bd3ff" stroke-width="4" opacity="0.76"/>
<line x1="524.00" y1="512.00" x2="560.00" y2="512.00" stroke="#9bd3ff" stroke-width="4" opacity="0.7"/><line x1="505.24" y1="582.00" x2="536.42" y2="600.00" stroke="#9bd3ff" stroke-width="4" opacity="0.7"/><line x1="454.00" y1="633.24" x2="472.00" y2="664.42" stroke="#9bd3ff" stroke-width="4" opacity="0.7"/><line x1="384.00" y1="652.00" x2="384.00" y2="688.00" stroke="#9bd3ff" stroke-width="4" opacity="0.7"/><line x1="314.00" y1="633.24" x2="296.00" y2="664.42" stroke="#9bd3ff" stroke-width="4" opacity="0.7"/><line x1="262.76" y1="582.00" x2="231.58" y2="600.00" stroke="#9bd3ff" stroke-width="4" opacity="0.7"/><line x1="244.00" y1="512.00" x2="208.00" y2="512.00" stroke="#9bd3ff" stroke-width="4" opacity="0.7"/><line x1="262.76" y1="442.00" x2="231.58" y2="424.00" stroke="#9bd3ff" stroke-width="4" opacity="0.7"/><line x1="314.00" y1="390.76" x2="296.00" y2="359.58" stroke="#9bd3ff" stroke-width="4" opacity="0.7"/><line x1="384.00" y1="372.00" x2="384.00" y2="336.00" stroke="#9bd3ff" stroke-width="4" opacity="0.7"/><line x1="454.00" y1="390.76" x2="472.00" y2="359.58" stroke="#9bd3ff" stroke-width="4" opacity="0.7"/><line x1="505.24" y1="442.00" x2="536.42" y2="424.00" stroke="#9bd3ff" stroke-width="4" opacity="0.7"/>
<line x1="384" y1="512" x2="466.00" y2="486.00" stroke="#c7a64a" stroke-width="8" opacity="0.9"/>
<line x1="384" y1="512" x2="342.00" y2="604.00" stroke="#9bd3ff" stroke-width="6" opacity="0.9"/>
  </g>

  <g opacity="0.8">
    <circle cx="439.39" cy="117.44" r="4.06" fill="#9bd3ff" opacity="0.63"/><circle cx="50.75" cy="520.84" r="2.44" fill="#c7a64a" opacity="0.33"/><circle cx="14.01" cy="449.35" r="1.47" fill="#9bd3ff" opacity="0.32"/><circle cx="562.61" cy="407.07" r="2.31" fill="#c7a64a" opacity="0.51"/><circle cx="48.26" cy="613.28" r="1.65" fill="#9bd3ff" opacity="0.29"/><circle cx="404.79" cy="991.48" r="3.05" fill="#c7a64a" opacity="0.32"/><circle cx="256.50" cy="62.54" r="4.82" fill="#9bd3ff" opacity="0.29"/><circle cx="152.16" cy="358.33" r="2.68" fill="#c7a64a" opacity="0.53"/><circle cx="309.24" cy="539.79" r="2.14" fill="#9bd3ff" opacity="0.58"/><circle cx="348.46" cy="147.36" r="3.60" fill="#c7a64a" opacity="0.41"/><circle cx="51.00" cy="935.09" r="2.86" fill="#9bd3ff" opacity="0.42"/><circle cx="314.72" cy="545.14" r="2.81" fill="#c7a64a" opacity="0.40"/><circle cx="649.78" cy="144.12" r="3.67" fill="#9bd3ff" opacity="0.46"/><circle cx="258.97" cy="397.95" r="2.11" fill="#c7a64a" opacity="0.61"/><circle cx="449.14" cy="510.20" r="1.22" fill="#9bd3ff" opacity="0.28"/><circle cx="668.99" cy="164.62" r="3.06" fill="#c7a64a" opacity="0.43"/><circle cx="70.31" cy="798.96" r="1.57" fill="#9bd3ff" opacity="0.36"/><circle cx="457.07" cy="250.16" r="2.28" fill="#c7a64a" opacity="0.45"/><circle cx="294.51" cy="739.15" r="2.08" fill="#9bd3ff" opacity="0.59"/><circle cx="97.74" cy="882.06" r="4.65" fill="#c7a64a" opacity="0.39"/><circle cx="647.51" cy="876.47" r="2.07" fill="#9bd3ff" opacity="0.57"/><circle cx="350.67" cy="878.42" r="1.49" fill="#c7a64a" opacity="0.47"/><circle cx="658.09" cy="567.10" r="4.42" fill="#9bd3ff" opacity="0.24"/><circle cx="712.19" cy="51.25" r="3.53" fill="#c7a64a" opacity="0.74"/><circle cx="624.98" cy="429.29" r="3.59" fill="#9bd3ff" opacity="0.41"/><circle cx="231.30" cy="326.27" r="1.71" fill="#c7a64a" opacity="0.56"/><circle cx="582.96" cy="324.64" r="2.92" fill="#9bd3ff" opacity="0.25"/><circle cx="165.79" cy="93.10" r="1.73" fill="#c7a64a" opacity="0.60"/>
  </g>

  <rect x="16" y="16" width="736" height="992" rx="24" stroke="url(#edge-chronomancer-c02)" stroke-width="2.5" opacity="0.85"/>
  <rect x="22" y="22" width="724" height="980" rx="20" stroke="#8aa0c4" stroke-width="2" opacity="0.74"/>

  <rect x="34" y="34" width="700" height="72" rx="14" fill="#070b14" fill-opacity="0.72" stroke="#8aa0c4" stroke-opacity="0.55"/>
  <text x="54" y="80" fill="#EAF4FF" font-family="Exo 2, Segoe UI, sans-serif" font-size="32" font-weight="700">Chronomancer</text>

  <rect x="34" y="872" width="700" height="92" rx="14" fill="#070b14" fill-opacity="0.74" stroke="#8aa0c4" stroke-opacity="0.6"/>
  <text x="54" y="924" fill="#D9E7FF" font-family="Exo 2, Segoe UI, sans-serif" font-size="30" font-weight="600">Scout</text>

  <rect x="598" y="36" width="118" height="42" rx="10" fill="#8aa0c4" fill-opacity="0.2" stroke="#8aa0c4" stroke-opacity="0.8"/>
  <text x="612" y="65" fill="#8aa0c4" font-family="Exo 2, Segoe UI, sans-serif" font-size="20" font-weight="700">COMMON</text>

  <circle cx="708" cy="954" r="26" fill="#080d18" stroke="#8aa0c4" stroke-opacity="0.8"/>
  <text x="696" y="962" fill="#E7F2FF" font-family="Exo 2, Segoe UI, sans-serif" font-size="24" font-weight="700">02</text>
</svg>