<?xml version="1.0" encoding="UTF-8"?>
<svg width="768" height="1024" viewBox="0 0 768 1024" fill="none" xmlns="http://www.w3.org/2000/svg">
  <defs>
    <linearGradient id="bg-chronomancer-c26" x1="60" y1="40" x2="728" y2="1004" gradientUnits="userSpaceOnUse">
      <stop offset="0" stop-color="#101425"/>
      <stop offset="0.55" stop-color="#2a4478"/>
      <stop offset="1" stop-color="#101425"/>
    </linearGradient>
    <radialGradient id="glow-chronomancer-c26" cx="0" cy="0" r="1" gradientUnits="userSpaceOnUse" gradientTransform="translate(150.25 433.62) rotate(90) scale(231.19 231.19)">
      <stop stop-color="#c7a64a" stop-opacity="0.45"/>
      <stop offset="1" stop-color="#c7a64a" stop-opacity="0"/>
    </radialGradient>
    <linearGradient id="edge-chronomancer-c26" x1="0" y1="0" x2="768" y2="1024" gradientUnits="userSpaceOnUse">
      <stop stop-color="#c7a64a" stop-opacity="0.85"/>
      <stop offset="1" stop-color="#9bd3ff" stop-opacity="0.85"/>
    </linearGradient>
  </defs>

  <rect x="0" y="0" width="768" height="1024" rx="32" fill="#060910"/>
  <rect x="16" y="16" width="736" height="992" rx="24" fill="url(#bg-chronomancer-c26)"/>
  <rect x="16" y="16" width="736" height="992" rx="24" fill="url(#glow-chronomancer-c26)"/>

  <g opacity="0.88">
    <circle cx="384" cy="512" r="184" fill="none" stroke="#c7a64a" stroke-width="8" opacity="0.72"/>
<circle cx="384" cy="512" r="132" fill="none" stroke="#9bd3ff" stroke-width="4" opacity="0.76"/>
<line x1="524.00" y1="512.00" x2="560.00" y2="512.00" stroke="#9bd3ff" stroke-width="4" opacity="0.7"/><line x1="505.24" y1="582.00" x2="536.42" y2="600.00" stroke="#9bd3ff" stroke-width="4" opacity="0.7"/><line x1="454.00" y1="633.24" x2="472.00" y2="664.42" stroke="#9bd3ff" stroke-width="4" opacity="0.7"/><line x1="384.00" y1="652.00" x2="384.00" y2="688.00" stroke="#9bd3ff" stroke-width="4" opacity="0.7"/><line x1="314.00" y1="633.24" x2="296.00" y2="664.42" stroke="#9bd3ff" stroke-width="4" opacity="0.7"/><line x1="262.76" y1="582.00" x2="231.58" y2="600.00" stroke="#9bd3ff" stroke-width="4" opacity="0.7"/><line x1="244.00" y1="512.00" x2="208.00" y2="512.00" stroke="#9bd3ff" stroke-width="4" opacity="0.7"/><line x1="262.76" y1="442.00" x2="231.58" y2="424.00" stroke="#9bd3ff" stroke-width="4" opacity="0.7"/><line x1="314.00" y1="390.76" x2="296.00" y2="359.58" stroke="#9bd3ff" stroke-width="4" opacity="0.7"/><line x1="384.00" y1="372.00" x2="384.00" y2="336.00" stroke="#9bd3ff" stroke-width="4" opacity="0.7"/><line x1="454.00" y1="390.76" x2="472.00" y2="359.58" stroke="#9bd3ff" stroke-width="4" opacity="0.7"/><line x1="505.24" y1="442.00" x2="536.42" y2="424.00" stroke="#9bd3ff" stroke-width="4" opacity="0.7"/>
<line x1="384" y1="512" x2="466.00" y2="486.00" stroke="#c7a64a" stroke-width="8" opacity="0.9"/>
<line x1="384" y1="512" x2="342.00" y2="604.00" stroke="#9bd3ff" stroke-width="6" opacity="0.9"/>
  </g>

  <g opacity="0.8">
    <circle cx="517.12" cy="506.35" r="4.50" fill="#9bd3ff" opacity="0.51"/><circle cx="409.88" cy="579.95" r="2.85" fill="#c7a64a" opacity="0.59"/><circle cx="584.03" cy="52.82" r="2.38" fill="#9bd3ff" opacity="0.47"/><circle cx="22.02" cy="482.71" r="4.86" fill="#c7a64a" opacity="0.39"/><circle cx="327.33" cy="983.77" r="2.47" fill="#9bd3ff" opacity="0.26"/><circle cx="388.30" cy="729.51" r="4.43" fill="#c7a64a" opacity="0.71"/><circle cx="193.85" cy="817.73" r="4.75" fill="#9bd3ff" opacity="0.57"/><circle cx="632.89" cy="563.40" r="3.31" fill="#c7a64a" opacity="0.74"/><circle cx="732.18" cy="920.78" r="1.75" fill="#9bd3ff" opacity="0.32"/><circle cx="347.55" cy="275.02" r="2.50" fill="#c7a64a" opacity="0.68"/><circle cx="469.17" cy="522.21" r="4.68" fill="#9bd3ff" opacity="0.62"/><circle cx="586.12" cy="207.77" r="4.05" fill="#c7a64a" opacity="0.65"/><circle cx="6.23" cy="790.64" r="1.62" fill="#9bd3ff" opacity="0.62"/><circle cx="199.30" cy="668.81" r="4.72" fill="#c7a64a" opacity="0.26"/><circle cx="695.79" cy="292.22" r="1.38" fill="#9bd3ff" opacity="0.33"/><circle cx="99.15" cy="690.94" r="3.13" fill="#c7a64a" opacity="0.50"/><circle cx="298.76" cy="513.47" r="2.22" fill="#9bd3ff" opacity="0.30"/><circle cx="247.02" cy="59.79" r="3.12" fill="#c7a64a" opacity="0.43"/><circle cx="407.21" cy="642.57" r="2.49" fill="#9bd3ff" opacity="0.37"/><circle cx="37.42" cy="557.08" r="1.96" fill="#c7a64a" opacity="0.52"/><circle cx="167.13" cy="189.21" r="1.37" fill="#9bd3ff" opacity="0.35"/><circle cx="74.79" cy="235.30" r="4.33" fill="#c7a64a" opacity="0.52"/><circle cx="441.51" cy="262.17" r="4.88" fill="#9bd3ff" opacity="0.57"/><circle cx="619.21" cy="131.09" r="3.42" fill="#c7a64a" opacity="0.28"/><circle cx="130.55" cy="1011.57" r="1.45" fill="#9bd3ff" opacity="0.39"/><circle cx="335.37" cy="617.35" r="3.65" fill="#c7a64a" opacity="0.52"/><circle cx="302.40" cy="261.66" r="3.57" fill="#9bd3ff" opacity="0.28"/><circle cx="347.63" cy="432.93" r="1.70" fill="#c7a64a" opacity="0.26"/>
  </g>

  <rect x="16" y="16" width="736" height="992" rx="24" stroke="url(#edge-chronomancer-c26)" stroke-width="2.5" opacity="0.85"/>
  <rect x="22" y="22" width="724" height="980" rx="20" stroke="#8aa0c4" stroke-width="2" opacity="0.74"/>

  <rect x="34" y="34" width="700" height="72" rx="14" fill="#070b14" fill-opacity="0.72" stroke="#8aa0c4" stroke-opacity="0.55"/>
  <text x="54" y="80" fill="#EAF4FF" font-family="Exo 2, Segoe UI, sans-serif" font-size="32" font-weight="700">Chronomancer</text>

  <rect x="34" y="872" width="700" height="92" rx="14" fill="#070b14" fill-opacity="0.74" stroke="#8aa0c4" stroke-opacity="0.6"/>
  <text x="54" y="924" fill="#D9E7FF" font-family="Exo 2, Segoe UI, sans-serif" font-size="30" font-weight="600">Area Denial</text>

  <rect x="598" y="36" width="118" height="42" rx="10" fill="#8aa0c4" fill-opacity="0.2" stroke="#8aa0c4" stroke-opacity="0.8"/>
  <text x="612" y="65" fill="#8aa0c4" font-family="Exo 2, Segoe UI, sans-serif" font-size="20" font-weight="700">COMMON</text>

  <circle cx="708" cy="954" r="26" fill="#080d18" stroke="#8aa0c4" stroke-opacity="0.8"/>
  <text x="696" y="962" fill="#E7F2FF" font-family="Exo 2, Segoe UI, sans-serif" font-size="24" font-weight="700">26</text>
</svg>