<?xml version="1.0" encoding="UTF-8"?>
<svg width="768" height="1024" viewBox="0 0 768 1024" fill="none" xmlns="http://www.w3.org/2000/svg">
  <defs>
    <linearGradient id="bg-chronomancer-c21" x1="60" y1="40" x2="728" y2="1004" gradientUnits="userSpaceOnUse">
      <stop offset="0" stop-color="#101425"/>
      <stop offset="0.55" stop-color="#2a4478"/>
      <stop offset="1" stop-color="#101425"/>
    </linearGradient>
    <radialGradient id="glow-chronomancer-c21" cx="0" cy="0" r="1" gradientUnits="userSpaceOnUse" gradientTransform="translate(573.40 642.54) rotate(90) scale(295.42 295.42)">
      <stop stop-color="#c7a64a" stop-opacity="0.45"/>
      <stop offset="1" stop-color="#c7a64a" stop-opacity="0"/>
    </radialGradient>
    <linearGradient id="edge-chronomancer-c21" x1="0" y1="0" x2="768" y2="1024" gradientUnits="userSpaceOnUse">
      <stop stop-color="#c7a64a" stop-opacity="0.85"/>
      <stop offset="1" stop-color="#9bd3ff" stop-opacity="0.85"/>
    </linearGradient>
  </defs>

  <rect x="0" y="0" width="768" height="1024" rx="32" fill="#060910"/>
  <rect x="16" y="16" width="736" height="992" rx="24" fill="url(#bg-chronomancer-c21)"/>
  <rect x="16" y="16" width="736" height="992" rx="24" fill="url(#glow-chronomancer-c21)"/>

  <g opacity="0.88">
    <circle cx="384" cy="512" r="184" fill="none" stroke="#c7a64a" stroke-width="8" opacity="0.72"/>
<circle cx="384" cy="512" r="132" fill="none" stroke="#9bd3ff" stroke-width="4" opacity="0.76"/>
<line x1="524.00" y1="512.00" x2="560.00" y2="512.00" stroke="#9bd3ff" stroke-width="4" opacity="0.7"/><line x1="505.24" y1="582.00" x2="536.42" y2="600.00" stroke="#9bd3ff" stroke-width="4" opacity="0.7"/><line x1="454.00" y1="633.24" x2="472.00" y2="664.42" stroke="#9bd3ff" stroke-width="4" opacity="0.7"/><line x1="384.00" y1="652.00" x2="384.00" y2="688.00" stroke="#9bd3ff" stroke-width="4" opacity="0.7"/><line x1="314.00" y1="633.24" x2="296.00" y2="664.42" stroke="#9bd3ff" stroke-width="4" opacity="0.7"/><line x1="262.76" y1="582.00" x2="231.58" y2="600.00" stroke="#9bd3ff" stroke-width="4" opacity="0.7"/><line x1="244.00" y1="512.00" x2="208.00" y2="512.00" stroke="#9bd3ff" stroke-width="4" opacity="0.7"/><line x1="262.76" y1="442.00" x2="231.58" y2="424.00" stroke="#9bd3ff" stroke-width="4" opacity="0.7"/><line x1="314.00" y1="390.76" x2="296.00" y2="359.58" stroke="#9bd3ff" stroke-width="4" opacity="0.7"/><line x1="384.00" y1="372.00" x2="384.00" y2="336.00" stroke="#9bd3ff" stroke-width="4" opacity="0.7"/><line x1="454.00" y1="390.76" x2="472.00" y2="359.58" stroke="#9bd3ff" stroke-width="4" opacity="0.7"/><line x1="505.24" y1="442.00" x2="536.42" y2="424.00" stroke="#9bd3ff" stroke-width="4" opacity="0.7"/>
<line x1="384" y1="512" x2="466.00" y2="486.00" stroke="#c7a64a" stroke-width="8" opacity="0.9"/>
<line x1="384" y1="512" x2="342.00" y2="604.00" stroke="#9bd3ff" stroke-width="6" opacity="0.9"/>
  </g>

  <g opacity="0.8">
    <circle cx="755.03" cy="776.83" r="1.98" fill="#9bd3ff" opacity="0.40"/><circle cx="362.24" cy="93.60" r="4.88" fill="#c7a64a" opacity="0.72"/><circle cx="179.73" cy="988.46" r="2.11" fill="#9bd3ff" opacity="0.57"/><circle cx="2.61" cy="999.00" r="1.97" fill="#c7a64a" opacity="0.46"/><circle cx="214.14" cy="235.57" r="4.88" fill="#9bd3ff" opacity="0.37"/><circle cx="181.98" cy="263.69" r="4.24" fill="#c7a64a" opacity="0.66"/><circle cx="636.72" cy="121.04" r="3.57" fill="#9bd3ff" opacity="0.56"/><circle cx="639.58" cy="621.82" r="4.95" fill="#c7a64a" opacity="0.60"/><circle cx="429.37" cy="488.58" r="3.95" fill="#9bd3ff" opacity="0.66"/><circle cx="511.93" cy="831.43" r="2.29" fill="#c7a64a" opacity="0.51"/><circle cx="735.29" cy="82.23" r="4.76" fill="#9bd3ff" opacity="0.72"/><circle cx="106.19" cy="978.99" r="1.40" fill="#c7a64a" opacity="0.46"/><circle cx="308.66" cy="574.94" r="2.09" fill="#9bd3ff" opacity="0.45"/><circle cx="411.75" cy="858.35" r="3.75" fill="#c7a64a" opacity="0.40"/><circle cx="279.27" cy="743.30" r="1.28" fill="#9bd3ff" opacity="0.72"/><circle cx="409.24" cy="697.20" r="2.64" fill="#c7a64a" opacity="0.31"/><circle cx="454.48" cy="200.15" r="2.02" fill="#9bd3ff" opacity="0.36"/><circle cx="303.30" cy="309.81" r="3.67" fill="#c7a64a" opacity="0.69"/><circle cx="564.81" cy="531.08" r="3.12" fill="#9bd3ff" opacity="0.27"/><circle cx="292.16" cy="375.08" r="2.95" fill="#c7a64a" opacity="0.28"/><circle cx="581.63" cy="203.35" r="1.39" fill="#9bd3ff" opacity="0.27"/><circle cx="361.84" cy="749.80" r="3.06" fill="#c7a64a" opacity="0.36"/><circle cx="321.50" cy="999.29" r="3.24" fill="#9bd3ff" opacity="0.28"/><circle cx="216.98" cy="728.05" r="4.97" fill="#c7a64a" opacity="0.51"/><circle cx="188.03" cy="104.37" r="3.58" fill="#9bd3ff" opacity="0.59"/><circle cx="568.18" cy="542.98" r="4.53" fill="#c7a64a" opacity="0.65"/><circle cx="491.36" cy="841.91" r="3.18" fill="#9bd3ff" opacity="0.66"/><circle cx="328.52" cy="371.64" r="2.39" fill="#c7a64a" opacity="0.25"/>
  </g>

  <rect x="16" y="16" width="736" height="992" rx="24" stroke="url(#edge-chronomancer-c21)" stroke-width="2.5" opacity="0.85"/>
  <rect x="22" y="22" width="724" height="980" rx="20" stroke="#8aa0c4" stroke-width="2" opacity="0.74"/>

  <rect x="34" y="34" width="700" height="72" rx="14" fill="#070b14" fill-opacity="0.72" stroke="#8aa0c4" stroke-opacity="0.55"/>
  <text x="54" y="80" fill="#EAF4FF" font-family="Exo 2, Segoe UI, sans-serif" font-size="32" font-weight="700">Chronomancer</text>

  <rect x="34" y="872" width="700" height="92" rx="14" fill="#070b14" fill-opacity="0.74" stroke="#8aa0c4" stroke-opacity="0.6"/>
  <text x="54" y="924" fill="#D9E7FF" font-family="Exo 2, Segoe UI, sans-serif" font-size="30" font-weight="600">Field Marshal</text>

  <rect x="598" y="36" width="118" height="42" rx="10" fill="#8aa0c4" fill-opacity="0.2" stroke="#8aa0c4" stroke-opacity="0.8"/>
  <text x="612" y="65" fill="#8aa0c4" font-family="Exo 2, Segoe UI, sans-serif" font-size="20" font-weight="700">COMMON</text>

  <circle cx="708" cy="954" r="26" fill="#080d18" stroke="#8aa0c4" stroke-opacity="0.8"/>
  <text x="696" y="962" fill="#E7F2FF" font-family="Exo 2, Segoe UI, sans-serif" font-size="24" font-weight="700">21</text>
</svg>