<?xml version="1.0" encoding="UTF-8"?>
<svg width="768" height="1024" viewBox="0 0 768 1024" fill="none" xmlns="http://www.w3.org/2000/svg">
  <defs>
    <linearGradient id="bg-chronomancer-c01" x1="60" y1="40" x2="728" y2="1004" gradientUnits="userSpaceOnUse">
      <stop offset="0" stop-color="#101425"/>
      <stop offset="0.55" stop-color="#2a4478"/>
      <stop offset="1" stop-color="#101425"/>
    </linearGradient>
    <radialGradient id="glow-chronomancer-c01" cx="0" cy="0" r="1" gradientUnits="userSpaceOnUse" gradientTransform="translate(308.11 250.95) rotate(90) scale(262.85 262.85)">
      <stop stop-color="#c7a64a" stop-opacity="0.45"/>
      <stop offset="1" stop-color="#c7a64a" stop-opacity="0"/>
    </radialGradient>
    <linearGradient id="edge-chronomancer-c01" x1="0" y1="0" x2="768" y2="1024" gradientUnits="userSpaceOnUse">
      <stop stop-color="#c7a64a" stop-opacity="0.85"/>
      <stop offset="1" stop-color="#9bd3ff" stop-opacity="0.85"/>
    </linearGradient>
  </defs>

  <rect x="0" y="0" width="768" height="1024" rx="32" fill="#060910"/>
  <rect x="16" y="16" width="736" height="992" rx="24" fill="url(#bg-chronomancer-c01)"/>
  <rect x="16" y="16" width="736" height="992" rx="24" fill="url(#glow-chronomancer-c01)"/>

  <g opacity="0.88">
    <circle cx="384" cy="512" r="184" fill="none" stroke="#c7a64a" stroke-width="8" opacity="0.72"/>
<circle cx="384" cy="512" r="132" fill="none" stroke="#9bd3ff" stroke-width="4" opacity="0.76"/>
<line x1="524.00" y1="512.00" x2="560.00" y2="512.00" stroke="#9bd3ff" stroke-width="4" opacity="0.7"/><line x1="505.24" y1="582.00" x2="536.42" y2="600.00" stroke="#9bd3ff" stroke-width="4" opacity="0.7"/><line x1="454.00" y1="633.24" x2="472.00" y2="664.42" stroke="#9bd3ff" stroke-width="4" opacity="0.7"/><line x1="384.00" y1="652.00" x2="384.00" y2="688.00" stroke="#9bd3ff" stroke-width="4" opacity="0.7"/><line x1="314.00" y1="633.24" x2="296.00" y2="664.42" stroke="#9bd3ff" stroke-width="4" opacity="0.7"/><line x1="262.76" y1="582.00" x2="231.58" y2="600.00" stroke="#9bd3ff" stroke-width="4" opacity="0.7"/><line x1="244.00" y1="512.00" x2="208.00" y2="512.00" stroke="#9bd3ff" stroke-width="4" opacity="0.7"/><line x1="262.76" y1="442.00" x2="231.58" y2="424.00" stroke="#9bd3ff" stroke-width="4" opacity="0.7"/><line x1="314.00" y1="390.76" x2="296.00" y2="359.58" stroke="#9bd3ff" stroke-width="4" opacity="0.7"/><line x1="384.00" y1="372.00" x2="384.00" y2="336.00" stroke="#9bd3ff" stroke-width="4" opacity="0.7"/><line x1="454.00" y1="390.76" x2="472.00" y2="359.58" stroke="#9bd3ff" stroke-width="4" opacity="0.7"/><line x1="505.24" y1="442.00" x2="536.42" y2="424.00" stroke="#9bd3ff" stroke-width="4" opacity="0.7"/>
<line x1="384" y1="512" x2="466.00" y2="486.00" stroke="#c7a64a" stroke-width="8" opacity="0.9"/>
<line x1="384" y1="512" x2="342.00" y2="604.00" stroke="#9bd3ff" stroke-width="6" opacity="0.9"/>
  </g>

  <g opacity="0.8">
    <circle cx="608.34" cy="683.65" r="2.28" fill="#9bd3ff" opacity="0.26"/><circle cx="265.86" cy="995.21" r="3.88" fill="#c7a64a" opacity="0.36"/><circle cx="412.10" cy="384.58" r="2.32" fill="#9bd3ff" opacity="0.52"/><circle cx="400.19" cy="711.99" r="3.18" fill="#c7a64a" opacity="0.64"/><circle cx="707.09" cy="32.45" r="4.63" fill="#9bd3ff" opacity="0.65"/><circle cx="753.93" cy="777.22" r="4.83" fill="#c7a64a" opacity="0.69"/><circle cx="224.98" cy="845.51" r="3.00" fill="#9bd3ff" opacity="0.33"/><circle cx="270.65" cy="375.11" r="2.91" fill="#c7a64a" opacity="0.27"/><circle cx="76.12" cy="710.10" r="2.58" fill="#9bd3ff" opacity="0.53"/><circle cx="442.99" cy="826.06" r="1.60" fill="#c7a64a" opacity="0.48"/><circle cx="306.17" cy="412.33" r="1.27" fill="#9bd3ff" opacity="0.42"/><circle cx="566.84" cy="928.70" r="1.83" fill="#c7a64a" opacity="0.31"/><circle cx="347.71" cy="11.05" r="3.77" fill="#9bd3ff" opacity="0.40"/><circle cx="641.78" cy="688.01" r="2.14" fill="#c7a64a" opacity="0.34"/><circle cx="696.27" cy="302.06" r="3.31" fill="#9bd3ff" opacity="0.68"/><circle cx="710.16" cy="285.91" r="1.45" fill="#c7a64a" opacity="0.42"/><circle cx="29.85" cy="883.99" r="3.57" fill="#9bd3ff" opacity="0.27"/><circle cx="398.03" cy="370.25" r="1.56" fill="#c7a64a" opacity="0.55"/><circle cx="268.89" cy="545.56" r="1.35" fill="#9bd3ff" opacity="0.64"/><circle cx="592.24" cy="63.42" r="2.00" fill="#c7a64a" opacity="0.55"/><circle cx="217.12" cy="541.69" r="4.10" fill="#9bd3ff" opacity="0.64"/><circle cx="401.42" cy="404.26" r="4.00" fill="#c7a64a" opacity="0.41"/><circle cx="425.66" cy="834.54" r="4.39" fill="#9bd3ff" opacity="0.54"/><circle cx="84.10" cy="709.76" r="3.23" fill="#c7a64a" opacity="0.67"/><circle cx="238.12" cy="764.81" r="3.53" fill="#9bd3ff" opacity="0.29"/><circle cx="683.05" cy="163.05" r="4.86" fill="#c7a64a" opacity="0.40"/><circle cx="395.74" cy="307.93" r="3.96" fill="#9bd3ff" opacity="0.24"/><circle cx="42.39" cy="197.06" r="4.69" fill="#c7a64a" opacity="0.32"/>
  </g>

  <rect x="16" y="16" width="736" height="992" rx="24" stroke="url(#edge-chronomancer-c01)" stroke-width="2.5" opacity="0.85"/>
  <rect x="22" y="22" width="724" height="980" rx="20" stroke="#8aa0c4" stroke-width="2" opacity="0.74"/>

  <rect x="34" y="34" width="700" height="72" rx="14" fill="#070b14" fill-opacity="0.72" stroke="#8aa0c4" stroke-opacity="0.55"/>
  <text x="54" y="80" fill="#EAF4FF" font-family="Exo 2, Segoe UI, sans-serif" font-size="32" font-weight="700">Chronomancer</text>

  <rect x="34" y="872" width="700" height="92" rx="14" fill="#070b14" fill-opacity="0.74" stroke="#8aa0c4" stroke-opacity="0.6"/>
  <text x="54" y="924" fill="#D9E7FF" font-family="Exo 2, Segoe UI, sans-serif" font-size="30" font-weight="600">Vanguard</text>

  <rect x="598" y="36" width="118" height="42" rx="10" fill="#8aa0c4" fill-opacity="0.2" stroke="#8aa0c4" stroke-opacity="0.8"/>
  <text x="612" y="65" fill="#8aa0c4" font-family="Exo 2, Segoe UI, sans-serif" font-size="20" font-weight="700">COMMON</text>

  <circle cx="708" cy="954" r="26" fill="#080d18" stroke="#8aa0c4" stroke-opacity="0.8"/>
  <text x="696" y="962" fill="#E7F2FF" font-family="Exo 2, Segoe UI, sans-serif" font-size="24" font-weight="700">01</text>
</svg>