<?xml version="1.0" encoding="UTF-8"?>
<svg width="768" height="1024" viewBox="0 0 768 1024" fill="none" xmlns="http://www.w3.org/2000/svg">
  <defs>
    <linearGradient id="bg-chronomancer-c40" x1="60" y1="40" x2="728" y2="1004" gradientUnits="userSpaceOnUse">
      <stop offset="0" stop-color="#101425"/>
      <stop offset="0.55" stop-color="#2a4478"/>
      <stop offset="1" stop-color="#101425"/>
    </linearGradient>
    <radialGradient id="glow-chronomancer-c40" cx="0" cy="0" r="1" gradientUnits="userSpaceOnUse" gradientTransform="translate(152.93 289.10) rotate(90) scale(204.68 204.68)">
      <stop stop-color="#c7a64a" stop-opacity="0.45"/>
      <stop offset="1" stop-color="#c7a64a" stop-opacity="0"/>
    </radialGradient>
    <linearGradient id="edge-chronomancer-c40" x1="0" y1="0" x2="768" y2="1024" gradientUnits="userSpaceOnUse">
      <stop stop-color="#c7a64a" stop-opacity="0.85"/>
      <stop offset="1" stop-color="#9bd3ff" stop-opacity="0.85"/>
    </linearGradient>
  </defs>

  <rect x="0" y="0" width="768" height="1024" rx="32" fill="#060910"/>
  <rect x="16" y="16" width="736" height="992" rx="24" fill="url(#bg-chronomancer-c40)"/>
  <rect x="16" y="16" width="736" height="992" rx="24" fill="url(#glow-chronomancer-c40)"/>

  <g opacity="0.88">
    <circle cx="384" cy="512" r="184" fill="none" stroke="#c7a64a" stroke-width="8" opacity="0.72"/>
<circle cx="384" cy="512" r="132" fill="none" stroke="#9bd3ff" stroke-width="4" opacity="0.76"/>
<line x1="524.00" y1="512.00" x2="560.00" y2="512.00" stroke="#9bd3ff" stroke-width="4" opacity="0.7"/><line x1="505.24" y1="582.00" x2="536.42" y2="600.00" stroke="#9bd3ff" stroke-width="4" opacity="0.7"/><line x1="454.00" y1="633.24" x2="472.00" y2="664.42" stroke="#9bd3ff" stroke-width="4" opacity="0.7"/><line x1="384.00" y1="652.00" x2="384.00" y2="688.00" stroke="#9bd3ff" stroke-width="4" opacity="0.7"/><line x1="314.00" y1="633.24" x2="296.00" y2="664.42" stroke="#9bd3ff" stroke-width="4" opacity="0.7"/><line x1="262.76" y1="582.00" x2="231.58" y2="600.00" stroke="#9bd3ff" stroke-width="4" opacity="0.7"/><line x1="244.00" y1="512.00" x2="208.00" y2="512.00" stroke="#9bd3ff" stroke-width="4" opacity="0.7"/><line x1="262.76" y1="442.00" x2="231.58" y2="424.00" stroke="#9bd3ff" stroke-width="4" opacity="0.7"/><line x1="314.00" y1="390.76" x2="296.00" y2="359.58" stroke="#9bd3ff" stroke-width="4" opacity="0.7"/><line x1="384.00" y1="372.00" x2="384.00" y2="336.00" stroke="#9bd3ff" stroke-width="4" opacity="0.7"/><line x1="454.00" y1="390.76" x2="472.00" y2="359.58" stroke="#9bd3ff" stroke-width="4" opacity="0.7"/><line x1="505.24" y1="442.00" x2="536.42" y2="424.00" stroke="#9bd3ff" stroke-width="4" opacity="0.7"/>
<line x1="384" y1="512" x2="466.00" y2="486.00" stroke="#c7a64a" stroke-width="8" opacity="0.9"/>
<line x1="384" y1="512" x2="342.00" y2="604.00" stroke="#9bd3ff" stroke-width="6" opacity="0.9"/>
  </g>

  <g opacity="0.8">
    <circle cx="440.73" cy="53.60" r="1.82" fill="#9bd3ff" opacity="0.64"/><circle cx="663.06" cy="908.57" r="4.86" fill="#c7a64a" opacity="0.47"/><circle cx="24.41" cy="968.09" r="1.36" fill="#9bd3ff" opacity="0.28"/><circle cx="187.43" cy="1.70" r="3.36" fill="#c7a64a" opacity="0.32"/><circle cx="22.58" cy="830.20" r="3.21" fill="#9bd3ff" opacity="0.24"/><circle cx="686.40" cy="575.62" r="4.14" fill="#c7a64a" opacity="0.26"/><circle cx="285.97" cy="270.14" r="2.38" fill="#9bd3ff" opacity="0.56"/><circle cx="297.90" cy="881.01" r="2.57" fill="#c7a64a" opacity="0.31"/><circle cx="477.05" cy="634.13" r="3.43" fill="#9bd3ff" opacity="0.59"/><circle cx="17.78" cy="373.85" r="1.98" fill="#c7a64a" opacity="0.29"/><circle cx="593.09" cy="504.55" r="2.07" fill="#9bd3ff" opacity="0.31"/><circle cx="568.73" cy="44.18" r="2.71" fill="#c7a64a" opacity="0.39"/><circle cx="170.66" cy="935.59" r="4.72" fill="#9bd3ff" opacity="0.29"/><circle cx="678.40" cy="798.20" r="3.37" fill="#c7a64a" opacity="0.28"/><circle cx="48.96" cy="735.49" r="1.89" fill="#9bd3ff" opacity="0.65"/><circle cx="379.12" cy="91.83" r="1.31" fill="#c7a64a" opacity="0.49"/><circle cx="686.85" cy="593.51" r="2.85" fill="#9bd3ff" opacity="0.65"/><circle cx="242.82" cy="190.21" r="1.37" fill="#c7a64a" opacity="0.58"/><circle cx="633.22" cy="338.03" r="4.56" fill="#9bd3ff" opacity="0.43"/><circle cx="483.17" cy="875.48" r="4.33" fill="#c7a64a" opacity="0.39"/><circle cx="442.74" cy="955.70" r="3.91" fill="#9bd3ff" opacity="0.54"/><circle cx="261.33" cy="526.36" r="4.37" fill="#c7a64a" opacity="0.58"/><circle cx="551.02" cy="351.03" r="4.89" fill="#9bd3ff" opacity="0.34"/><circle cx="188.10" cy="121.75" r="2.72" fill="#c7a64a" opacity="0.29"/><circle cx="45.87" cy="841.30" r="3.93" fill="#9bd3ff" opacity="0.32"/><circle cx="316.12" cy="827.81" r="4.94" fill="#c7a64a" opacity="0.50"/><circle cx="602.65" cy="29.01" r="4.85" fill="#9bd3ff" opacity="0.38"/><circle cx="653.37" cy="757.33" r="1.74" fill="#c7a64a" opacity="0.62"/>
  </g>

  <rect x="16" y="16" width="736" height="992" rx="24" stroke="url(#edge-chronomancer-c40)" stroke-width="2.5" opacity="0.85"/>
  <rect x="22" y="22" width="724" height="980" rx="20" stroke="#78d8ff" stroke-width="2" opacity="0.74"/>

  <rect x="34" y="34" width="700" height="72" rx="14" fill="#070b14" fill-opacity="0.72" stroke="#78d8ff" stroke-opacity="0.55"/>
  <text x="54" y="80" fill="#EAF4FF" font-family="Exo 2, Segoe UI, sans-serif" font-size="32" font-weight="700">Chronomancer</text>

  <rect x="34" y="872" width="700" height="92" rx="14" fill="#070b14" fill-opacity="0.74" stroke="#78d8ff" stroke-opacity="0.6"/>
  <text x="54" y="924" fill="#D9E7FF" font-family="Exo 2, Segoe UI, sans-serif" font-size="30" font-weight="600">Pulse AOE</text>

  <rect x="598" y="36" width="118" height="42" rx="10" fill="#78d8ff" fill-opacity="0.2" stroke="#78d8ff" stroke-opacity="0.8"/>
  <text x="612" y="65" fill="#78d8ff" font-family="Exo 2, Segoe UI, sans-serif" font-size="20" font-weight="700">RARE</text>

  <circle cx="708" cy="954" r="26" fill="#080d18" stroke="#78d8ff" stroke-opacity="0.8"/>
  <text x="696" y="962" fill="#E7F2FF" font-family="Exo 2, Segoe UI, sans-serif" font-size="24" font-weight="700">40</text>
</svg>