<?xml version="1.0" encoding="UTF-8"?>
<svg width="768" height="1024" viewBox="0 0 768 1024" fill="none" xmlns="http://www.w3.org/2000/svg">
  <defs>
    <linearGradient id="bg-chronomancer-c27" x1="60" y1="40" x2="728" y2="1004" gradientUnits="userSpaceOnUse">
      <stop offset="0" stop-color="#101425"/>
      <stop offset="0.55" stop-color="#2a4478"/>
      <stop offset="1" stop-color="#101425"/>
    </linearGradient>
    <radialGradient id="glow-chronomancer-c27" cx="0" cy="0" r="1" gradientUnits="userSpaceOnUse" gradientTransform="translate(339.89 434.84) rotate(90) scale(190.35 190.35)">
      <stop stop-color="#c7a64a" stop-opacity="0.45"/>
      <stop offset="1" stop-color="#c7a64a" stop-opacity="0"/>
    </radialGradient>
    <linearGradient id="edge-chronomancer-c27" x1="0" y1="0" x2="768" y2="1024" gradientUnits="userSpaceOnUse">
      <stop stop-color="#c7a64a" stop-opacity="0.85"/>
      <stop offset="1" stop-color="#9bd3ff" stop-opacity="0.85"/>
    </linearGradient>
  </defs>

  <rect x="0" y="0" width="768" height="1024" rx="32" fill="#060910"/>
  <rect x="16" y="16" width="736" height="992" rx="24" fill="url(#bg-chronomancer-c27)"/>
  <rect x="16" y="16" width="736" height="992" rx="24" fill="url(#glow-chronomancer-c27)"/>

  <g opacity="0.88">
    <circle cx="384" cy="512" r="184" fill="none" stroke="#c7a64a" stroke-width="8" opacity="0.72"/>
<circle cx="384" cy="512" r="132" fill="none" stroke="#9bd3ff" stroke-width="4" opacity="0.76"/>
<line x1="524.00" y1="512.00" x2="560.00" y2="512.00" stroke="#9bd3ff" stroke-width="4" opacity="0.7"/><line x1="505.24" y1="582.00" x2="536.42" y2="600.00" stroke="#9bd3ff" stroke-width="4" opacity="0.7"/><line x1="454.00" y1="633.24" x2="472.00" y2="664.42" stroke="#9bd3ff" stroke-width="4" opacity="0.7"/><line x1="384.00" y1="652.00" x2="384.00" y2="688.00" stroke="#9bd3ff" stroke-width="4" opacity="0.7"/><line x1="314.00" y1="633.24" x2="296.00" y2="664.42" stroke="#9bd3ff" stroke-width="4" opacity="0.7"/><line x1="262.76" y1="582.00" x2="231.58" y2="600.00" stroke="#9bd3ff" stroke-width="4" opacity="0.7"/><line x1="244.00" y1="512.00" x2="208.00" y2="512.00" stroke="#9bd3ff" stroke-width="4" opacity="0.7"/><line x1="262.76" y1="442.00" x2="231.58" y2="424.00" stroke="#9bd3ff" stroke-width="4" opacity="0.7"/><line x1="314.00" y1="390.76" x2="296.00" y2="359.58" stroke="#9bd3ff" stroke-width="4" opacity="0.7"/><line x1="384.00" y1="372.00" x2="384.00" y2="336.00" stroke="#9bd3ff" stroke-width="4" opacity="0.7"/><line x1="454.00" y1="390.76" x2="472.00" y2="359.58" stroke="#9bd3ff" stroke-width="4" opacity="0.7"/><line x1="505.24" y1="442.00" x2="536.42" y2="424.00" stroke="#9bd3ff" stroke-width="4" opacity="0.7"/>
<line x1="384" y1="512" x2="466.00" y2="486.00" stroke="#c7a64a" stroke-width="8" opacity="0.9"/>
<line x1="384" y1="512" x2="342.00" y2="604.00" stroke="#9bd3ff" stroke-width="6" opacity="0.9"/>
  </g>

  <g opacity="0.8">
    <circle cx="668.14" cy="1002.15" r="4.11" fill="#9bd3ff" opacity="0.43"/><circle cx="440.80" cy="1013.34" r="1.68" fill="#c7a64a" opacity="0.65"/><circle cx="610.94" cy="650.49" r="4.12" fill="#9bd3ff" opacity="0.39"/><circle cx="52.82" cy="968.08" r="4.39" fill="#c7a64a" opacity="0.63"/><circle cx="119.30" cy="32.63" r="2.36" fill="#9bd3ff" opacity="0.25"/><circle cx="431.15" cy="157.27" r="1.87" fill="#c7a64a" opacity="0.61"/><circle cx="123.70" cy="156.53" r="2.76" fill="#9bd3ff" opacity="0.54"/><circle cx="102.91" cy="950.68" r="3.46" fill="#c7a64a" opacity="0.67"/><circle cx="546.27" cy="130.61" r="1.52" fill="#9bd3ff" opacity="0.70"/><circle cx="22.08" cy="309.88" r="2.37" fill="#c7a64a" opacity="0.71"/><circle cx="507.90" cy="842.25" r="4.58" fill="#9bd3ff" opacity="0.51"/><circle cx="544.09" cy="965.58" r="3.86" fill="#c7a64a" opacity="0.36"/><circle cx="426.10" cy="755.80" r="4.53" fill="#9bd3ff" opacity="0.69"/><circle cx="372.65" cy="460.44" r="3.72" fill="#c7a64a" opacity="0.45"/><circle cx="622.74" cy="82.16" r="2.20" fill="#9bd3ff" opacity="0.56"/><circle cx="204.79" cy="961.87" r="3.69" fill="#c7a64a" opacity="0.66"/><circle cx="158.91" cy="648.63" r="2.32" fill="#9bd3ff" opacity="0.50"/><circle cx="434.05" cy="944.97" r="2.59" fill="#c7a64a" opacity="0.49"/><circle cx="337.53" cy="859.58" r="3.39" fill="#9bd3ff" opacity="0.60"/><circle cx="168.05" cy="596.39" r="3.72" fill="#c7a64a" opacity="0.38"/><circle cx="695.32" cy="140.59" r="2.71" fill="#9bd3ff" opacity="0.27"/><circle cx="308.58" cy="541.36" r="4.37" fill="#c7a64a" opacity="0.56"/><circle cx="132.89" cy="352.47" r="2.43" fill="#9bd3ff" opacity="0.52"/><circle cx="183.98" cy="610.92" r="1.44" fill="#c7a64a" opacity="0.31"/><circle cx="5.07" cy="654.92" r="1.77" fill="#9bd3ff" opacity="0.56"/><circle cx="679.64" cy="27.83" r="3.17" fill="#c7a64a" opacity="0.41"/><circle cx="196.10" cy="325.18" r="4.23" fill="#9bd3ff" opacity="0.56"/><circle cx="181.50" cy="45.55" r="4.49" fill="#c7a64a" opacity="0.25"/>
  </g>

  <rect x="16" y="16" width="736" height="992" rx="24" stroke="url(#edge-chronomancer-c27)" stroke-width="2.5" opacity="0.85"/>
  <rect x="22" y="22" width="724" height="980" rx="20" stroke="#8aa0c4" stroke-width="2" opacity="0.74"/>

  <rect x="34" y="34" width="700" height="72" rx="14" fill="#070b14" fill-opacity="0.72" stroke="#8aa0c4" stroke-opacity="0.55"/>
  <text x="54" y="80" fill="#EAF4FF" font-family="Exo 2, Segoe UI, sans-serif" font-size="32" font-weight="700">Chronomancer</text>

  <rect x="34" y="872" width="700" height="92" rx="14" fill="#070b14" fill-opacity="0.74" stroke="#8aa0c4" stroke-opacity="0.6"/>
  <text x="54" y="924" fill="#D9E7FF" font-family="Exo 2, Segoe UI, sans-serif" font-size="30" font-weight="600">Ritual Guard</text>

  <rect x="598" y="36" width="118" height="42" rx="10" fill="#8aa0c4" fill-opacity="0.2" stroke="#8aa0c4" stroke-opacity="0.8"/>
  <text x="612" y="65" fill="#8aa0c4" font-family="Exo 2, Segoe UI, sans-serif" font-size="20" font-weight="700">COMMON</text>

  <circle cx="708" cy="954" r="26" fill="#080d18" stroke="#8aa0c4" stroke-opacity="0.8"/>
  <text x="696" y="962" fill="#E7F2FF" font-family="Exo 2, Segoe UI, sans-serif" font-size="24" font-weight="700">27</text>
</svg>