<?xml version="1.0" encoding="UTF-8"?>
<svg width="768" height="1024" viewBox="0 0 768 1024" fill="none" xmlns="http://www.w3.org/2000/svg">
  <defs>
    <linearGradient id="bg-chronomancer-c30" x1="60" y1="40" x2="728" y2="1004" gradientUnits="userSpaceOnUse">
      <stop offset="0" stop-color="#101425"/>
      <stop offset="0.55" stop-color="#2a4478"/>
      <stop offset="1" stop-color="#101425"/>
    </linearGradient>
    <radialGradient id="glow-chronomancer-c30" cx="0" cy="0" r="1" gradientUnits="userSpaceOnUse" gradientTransform="translate(204.41 283.10) rotate(90) scale(228.79 228.79)">
      <stop stop-color="#c7a64a" stop-opacity="0.45"/>
      <stop offset="1" stop-color="#c7a64a" stop-opacity="0"/>
    </radialGradient>
    <linearGradient id="edge-chronomancer-c30" x1="0" y1="0" x2="768" y2="1024" gradientUnits="userSpaceOnUse">
      <stop stop-color="#c7a64a" stop-opacity="0.85"/>
      <stop offset="1" stop-color="#9bd3ff" stop-opacity="0.85"/>
    </linearGradient>
  </defs>

  <rect x="0" y="0" width="768" height="1024" rx="32" fill="#060910"/>
  <rect x="16" y="16" width="736" height="992" rx="24" fill="url(#bg-chronomancer-c30)"/>
  <rect x="16" y="16" width="736" height="992" rx="24" fill="url(#glow-chronomancer-c30)"/>

  <g opacity="0.88">
    <circle cx="384" cy="512" r="184" fill="none" stroke="#c7a64a" stroke-width="8" opacity="0.72"/>
<circle cx="384" cy="512" r="132" fill="none" stroke="#9bd3ff" stroke-width="4" opacity="0.76"/>
<line x1="524.00" y1="512.00" x2="560.00" y2="512.00" stroke="#9bd3ff" stroke-width="4" opacity="0.7"/><line x1="505.24" y1="582.00" x2="536.42" y2="600.00" stroke="#9bd3ff" stroke-width="4" opacity="0.7"/><line x1="454.00" y1="633.24" x2="472.00" y2="664.42" stroke="#9bd3ff" stroke-width="4" opacity="0.7"/><line x1="384.00" y1="652.00" x2="384.00" y2="688.00" stroke="#9bd3ff" stroke-width="4" opacity="0.7"/><line x1="314.00" y1="633.24" x2="296.00" y2="664.42" stroke="#9bd3ff" stroke-width="4" opacity="0.7"/><line x1="262.76" y1="582.00" x2="231.58" y2="600.00" stroke="#9bd3ff" stroke-width="4" opacity="0.7"/><line x1="244.00" y1="512.00" x2="208.00" y2="512.00" stroke="#9bd3ff" stroke-width="4" opacity="0.7"/><line x1="262.76" y1="442.00" x2="231.58" y2="424.00" stroke="#9bd3ff" stroke-width="4" opacity="0.7"/><line x1="314.00" y1="390.76" x2="296.00" y2="359.58" stroke="#9bd3ff" stroke-width="4" opacity="0.7"/><line x1="384.00" y1="372.00" x2="384.00" y2="336.00" stroke="#9bd3ff" stroke-width="4" opacity="0.7"/><line x1="454.00" y1="390.76" x2="472.00" y2="359.58" stroke="#9bd3ff" stroke-width="4" opacity="0.7"/><line x1="505.24" y1="442.00" x2="536.42" y2="424.00" stroke="#9bd3ff" stroke-width="4" opacity="0.7"/>
<line x1="384" y1="512" x2="466.00" y2="486.00" stroke="#c7a64a" stroke-width="8" opacity="0.9"/>
<line x1="384" y1="512" x2="342.00" y2="604.00" stroke="#9bd3ff" stroke-width="6" opacity="0.9"/>
  </g>

  <g opacity="0.8">
    <circle cx="305.63" cy="897.46" r="3.95" fill="#9bd3ff" opacity="0.28"/><circle cx="146.63" cy="53.86" r="4.14" fill="#c7a64a" opacity="0.73"/><circle cx="260.80" cy="499.20" r="3.43" fill="#9bd3ff" opacity="0.49"/><circle cx="400.66" cy="808.63" r="2.04" fill="#c7a64a" opacity="0.30"/><circle cx="505.74" cy="840.52" r="1.73" fill="#9bd3ff" opacity="0.36"/><circle cx="410.46" cy="624.58" r="4.84" fill="#c7a64a" opacity="0.69"/><circle cx="80.42" cy="493.42" r="3.50" fill="#9bd3ff" opacity="0.33"/><circle cx="679.17" cy="40.60" r="4.86" fill="#c7a64a" opacity="0.35"/><circle cx="354.91" cy="280.39" r="1.90" fill="#9bd3ff" opacity="0.28"/><circle cx="623.42" cy="633.37" r="1.97" fill="#c7a64a" opacity="0.74"/><circle cx="203.79" cy="881.17" r="2.33" fill="#9bd3ff" opacity="0.59"/><circle cx="450.42" cy="95.23" r="2.21" fill="#c7a64a" opacity="0.61"/><circle cx="571.75" cy="694.13" r="2.30" fill="#9bd3ff" opacity="0.36"/><circle cx="396.38" cy="659.88" r="3.67" fill="#c7a64a" opacity="0.25"/><circle cx="47.80" cy="902.63" r="1.95" fill="#9bd3ff" opacity="0.58"/><circle cx="614.79" cy="786.32" r="3.39" fill="#c7a64a" opacity="0.59"/><circle cx="547.85" cy="418.02" r="3.87" fill="#9bd3ff" opacity="0.52"/><circle cx="192.60" cy="206.08" r="4.49" fill="#c7a64a" opacity="0.45"/><circle cx="427.90" cy="882.91" r="1.51" fill="#9bd3ff" opacity="0.62"/><circle cx="279.25" cy="421.85" r="1.70" fill="#c7a64a" opacity="0.41"/><circle cx="663.12" cy="88.02" r="2.12" fill="#9bd3ff" opacity="0.36"/><circle cx="709.61" cy="183.40" r="4.08" fill="#c7a64a" opacity="0.69"/><circle cx="187.10" cy="75.17" r="4.29" fill="#9bd3ff" opacity="0.30"/><circle cx="461.84" cy="484.58" r="4.82" fill="#c7a64a" opacity="0.45"/><circle cx="3.06" cy="339.34" r="2.55" fill="#9bd3ff" opacity="0.36"/><circle cx="621.43" cy="490.57" r="2.63" fill="#c7a64a" opacity="0.71"/><circle cx="377.13" cy="65.24" r="2.44" fill="#9bd3ff" opacity="0.62"/><circle cx="20.38" cy="15.00" r="1.45" fill="#c7a64a" opacity="0.42"/>
  </g>

  <rect x="16" y="16" width="736" height="992" rx="24" stroke="url(#edge-chronomancer-c30)" stroke-width="2.5" opacity="0.85"/>
  <rect x="22" y="22" width="724" height="980" rx="20" stroke="#78d8ff" stroke-width="2" opacity="0.74"/>

  <rect x="34" y="34" width="700" height="72" rx="14" fill="#070b14" fill-opacity="0.72" stroke="#78d8ff" stroke-opacity="0.55"/>
  <text x="54" y="80" fill="#EAF4FF" font-family="Exo 2, Segoe UI, sans-serif" font-size="32" font-weight="700">Chronomancer</text>

  <rect x="34" y="872" width="700" height="92" rx="14" fill="#070b14" fill-opacity="0.74" stroke="#78d8ff" stroke-opacity="0.6"/>
  <text x="54" y="924" fill="#D9E7FF" font-family="Exo 2, Segoe UI, sans-serif" font-size="30" font-weight="600">Signature Adept</text>

  <rect x="598" y="36" width="118" height="42" rx="10" fill="#78d8ff" fill-opacity="0.2" stroke="#78d8ff" stroke-opacity="0.8"/>
  <text x="612" y="65" fill="#78d8ff" font-family="Exo 2, Segoe UI, sans-serif" font-size="20" font-weight="700">RARE</text>

  <circle cx="708" cy="954" r="26" fill="#080d18" stroke="#78d8ff" stroke-opacity="0.8"/>
  <text x="696" y="962" fill="#E7F2FF" font-family="Exo 2, Segoe UI, sans-serif" font-size="24" font-weight="700">30</text>
</svg>