<?xml version="1.0" encoding="UTF-8"?>
<svg width="768" height="1024" viewBox="0 0 768 1024" fill="none" xmlns="http://www.w3.org/2000/svg">
  <defs>
    <linearGradient id="bg-chronomancer-c29" x1="60" y1="40" x2="728" y2="1004" gradientUnits="userSpaceOnUse">
      <stop offset="0" stop-color="#101425"/>
      <stop offset="0.55" stop-color="#2a4478"/>
      <stop offset="1" stop-color="#101425"/>
    </linearGradient>
    <radialGradient id="glow-chronomancer-c29" cx="0" cy="0" r="1" gradientUnits="userSpaceOnUse" gradientTransform="translate(538.00 602.04) rotate(90) scale(299.42 299.42)">
      <stop stop-color="#c7a64a" stop-opacity="0.45"/>
      <stop offset="1" stop-color="#c7a64a" stop-opacity="0"/>
    </radialGradient>
    <linearGradient id="edge-chronomancer-c29" x1="0" y1="0" x2="768" y2="1024" gradientUnits="userSpaceOnUse">
      <stop stop-color="#c7a64a" stop-opacity="0.85"/>
      <stop offset="1" stop-color="#9bd3ff" stop-opacity="0.85"/>
    </linearGradient>
  </defs>

  <rect x="0" y="0" width="768" height="1024" rx="32" fill="#060910"/>
  <rect x="16" y="16" width="736" height="992" rx="24" fill="url(#bg-chronomancer-c29)"/>
  <rect x="16" y="16" width="736" height="992" rx="24" fill="url(#glow-chronomancer-c29)"/>

  <g opacity="0.88">
    <circle cx="384" cy="512" r="184" fill="none" stroke="#c7a64a" stroke-width="8" opacity="0.72"/>
<circle cx="384" cy="512" r="132" fill="none" stroke="#9bd3ff" stroke-width="4" opacity="0.76"/>
<line x1="524.00" y1="512.00" x2="560.00" y2="512.00" stroke="#9bd3ff" stroke-width="4" opacity="0.7"/><line x1="505.24" y1="582.00" x2="536.42" y2="600.00" stroke="#9bd3ff" stroke-width="4" opacity="0.7"/><line x1="454.00" y1="633.24" x2="472.00" y2="664.42" stroke="#9bd3ff" stroke-width="4" opacity="0.7"/><line x1="384.00" y1="652.00" x2="384.00" y2="688.00" stroke="#9bd3ff" stroke-width="4" opacity="0.7"/><line x1="314.00" y1="633.24" x2="296.00" y2="664.42" stroke="#9bd3ff" stroke-width="4" opacity="0.7"/><line x1="262.76" y1="582.00" x2="231.58" y2="600.00" stroke="#9bd3ff" stroke-width="4" opacity="0.7"/><line x1="244.00" y1="512.00" x2="208.00" y2="512.00" stroke="#9bd3ff" stroke-width="4" opacity="0.7"/><line x1="262.76" y1="442.00" x2="231.58" y2="424.00" stroke="#9bd3ff" stroke-width="4" opacity="0.7"/><line x1="314.00" y1="390.76" x2="296.00" y2="359.58" stroke="#9bd3ff" stroke-width="4" opacity="0.7"/><line x1="384.00" y1="372.00" x2="384.00" y2="336.00" stroke="#9bd3ff" stroke-width="4" opacity="0.7"/><line x1="454.00" y1="390.76" x2="472.00" y2="359.58" stroke="#9bd3ff" stroke-width="4" opacity="0.7"/><line x1="505.24" y1="442.00" x2="536.42" y2="424.00" stroke="#9bd3ff" stroke-width="4" opacity="0.7"/>
<line x1="384" y1="512" x2="466.00" y2="486.00" stroke="#c7a64a" stroke-width="8" opacity="0.9"/>
<line x1="384" y1="512" x2="342.00" y2="604.00" stroke="#9bd3ff" stroke-width="6" opacity="0.9"/>
  </g>

  <g opacity="0.8">
    <circle cx="620.29" cy="239.91" r="1.46" fill="#9bd3ff" opacity="0.45"/><circle cx="92.06" cy="1015.80" r="2.79" fill="#c7a64a" opacity="0.29"/><circle cx="656.19" cy="528.20" r="2.64" fill="#9bd3ff" opacity="0.53"/><circle cx="728.33" cy="722.83" r="2.54" fill="#c7a64a" opacity="0.65"/><circle cx="34.42" cy="714.18" r="4.85" fill="#9bd3ff" opacity="0.67"/><circle cx="488.56" cy="489.76" r="4.76" fill="#c7a64a" opacity="0.31"/><circle cx="94.88" cy="91.68" r="3.69" fill="#9bd3ff" opacity="0.28"/><circle cx="305.06" cy="776.53" r="4.72" fill="#c7a64a" opacity="0.28"/><circle cx="613.16" cy="921.01" r="4.49" fill="#9bd3ff" opacity="0.72"/><circle cx="574.14" cy="165.94" r="1.58" fill="#c7a64a" opacity="0.70"/><circle cx="441.08" cy="23.94" r="2.56" fill="#9bd3ff" opacity="0.29"/><circle cx="25.47" cy="773.13" r="3.84" fill="#c7a64a" opacity="0.27"/><circle cx="342.91" cy="694.20" r="2.59" fill="#9bd3ff" opacity="0.65"/><circle cx="438.34" cy="526.33" r="2.30" fill="#c7a64a" opacity="0.59"/><circle cx="589.09" cy="801.40" r="3.75" fill="#9bd3ff" opacity="0.42"/><circle cx="743.86" cy="801.98" r="3.43" fill="#c7a64a" opacity="0.36"/><circle cx="4.53" cy="953.97" r="1.60" fill="#9bd3ff" opacity="0.36"/><circle cx="99.14" cy="834.91" r="4.92" fill="#c7a64a" opacity="0.54"/><circle cx="61.29" cy="635.63" r="1.79" fill="#9bd3ff" opacity="0.29"/><circle cx="467.18" cy="166.99" r="3.34" fill="#c7a64a" opacity="0.58"/><circle cx="43.40" cy="291.44" r="2.33" fill="#9bd3ff" opacity="0.44"/><circle cx="758.36" cy="29.33" r="3.83" fill="#c7a64a" opacity="0.38"/><circle cx="306.83" cy="264.48" r="1.34" fill="#9bd3ff" opacity="0.31"/><circle cx="101.61" cy="537.60" r="3.92" fill="#c7a64a" opacity="0.32"/><circle cx="409.82" cy="375.04" r="3.39" fill="#9bd3ff" opacity="0.41"/><circle cx="517.38" cy="445.97" r="4.40" fill="#c7a64a" opacity="0.29"/><circle cx="197.20" cy="922.30" r="3.10" fill="#9bd3ff" opacity="0.55"/><circle cx="462.16" cy="254.94" r="4.74" fill="#c7a64a" opacity="0.40"/>
  </g>

  <rect x="16" y="16" width="736" height="992" rx="24" stroke="url(#edge-chronomancer-c29)" stroke-width="2.5" opacity="0.85"/>
  <rect x="22" y="22" width="724" height="980" rx="20" stroke="#8aa0c4" stroke-width="2" opacity="0.74"/>

  <rect x="34" y="34" width="700" height="72" rx="14" fill="#070b14" fill-opacity="0.72" stroke="#8aa0c4" stroke-opacity="0.55"/>
  <text x="54" y="80" fill="#EAF4FF" font-family="Exo 2, Segoe UI, sans-serif" font-size="32" font-weight="700">Chronomancer</text>

  <rect x="34" y="872" width="700" height="92" rx="14" fill="#070b14" fill-opacity="0.74" stroke="#8aa0c4" stroke-opacity="0.6"/>
  <text x="54" y="924" fill="#D9E7FF" font-family="Exo 2, Segoe UI, sans-serif" font-size="30" font-weight="600">Frontline Prime</text>

  <rect x="598" y="36" width="118" height="42" rx="10" fill="#8aa0c4" fill-opacity="0.2" stroke="#8aa0c4" stroke-opacity="0.8"/>
  <text x="612" y="65" fill="#8aa0c4" font-family="Exo 2, Segoe UI, sans-serif" font-size="20" font-weight="700">COMMON</text>

  <circle cx="708" cy="954" r="26" fill="#080d18" stroke="#8aa0c4" stroke-opacity="0.8"/>
  <text x="696" y="962" fill="#E7F2FF" font-family="Exo 2, Segoe UI, sans-serif" font-size="24" font-weight="700">29</text>
</svg>