<?xml version="1.0" encoding="UTF-8"?>
<svg width="768" height="1024" viewBox="0 0 768 1024" fill="none" xmlns="http://www.w3.org/2000/svg">
  <defs>
    <linearGradient id="bg-chronomancer-c09" x1="60" y1="40" x2="728" y2="1004" gradientUnits="userSpaceOnUse">
      <stop offset="0" stop-color="#101425"/>
      <stop offset="0.55" stop-color="#2a4478"/>
      <stop offset="1" stop-color="#101425"/>
    </linearGradient>
    <radialGradient id="glow-chronomancer-c09" cx="0" cy="0" r="1" gradientUnits="userSpaceOnUse" gradientTransform="translate(122.80 657.74) rotate(90) scale(184.55 184.55)">
      <stop stop-color="#c7a64a" stop-opacity="0.45"/>
      <stop offset="1" stop-color="#c7a64a" stop-opacity="0"/>
    </radialGradient>
    <linearGradient id="edge-chronomancer-c09" x1="0" y1="0" x2="768" y2="1024" gradientUnits="userSpaceOnUse">
      <stop stop-color="#c7a64a" stop-opacity="0.85"/>
      <stop offset="1" stop-color="#9bd3ff" stop-opacity="0.85"/>
    </linearGradient>
  </defs>

  <rect x="0" y="0" width="768" height="1024" rx="32" fill="#060910"/>
  <rect x="16" y="16" width="736" height="992" rx="24" fill="url(#bg-chronomancer-c09)"/>
  <rect x="16" y="16" width="736" height="992" rx="24" fill="url(#glow-chronomancer-c09)"/>

  <g opacity="0.88">
    <circle cx="384" cy="512" r="184" fill="none" stroke="#c7a64a" stroke-width="8" opacity="0.72"/>
<circle cx="384" cy="512" r="132" fill="none" stroke="#9bd3ff" stroke-width="4" opacity="0.76"/>
<line x1="524.00" y1="512.00" x2="560.00" y2="512.00" stroke="#9bd3ff" stroke-width="4" opacity="0.7"/><line x1="505.24" y1="582.00" x2="536.42" y2="600.00" stroke="#9bd3ff" stroke-width="4" opacity="0.7"/><line x1="454.00" y1="633.24" x2="472.00" y2="664.42" stroke="#9bd3ff" stroke-width="4" opacity="0.7"/><line x1="384.00" y1="652.00" x2="384.00" y2="688.00" stroke="#9bd3ff" stroke-width="4" opacity="0.7"/><line x1="314.00" y1="633.24" x2="296.00" y2="664.42" stroke="#9bd3ff" stroke-width="4" opacity="0.7"/><line x1="262.76" y1="582.00" x2="231.58" y2="600.00" stroke="#9bd3ff" stroke-width="4" opacity="0.7"/><line x1="244.00" y1="512.00" x2="208.00" y2="512.00" stroke="#9bd3ff" stroke-width="4" opacity="0.7"/><line x1="262.76" y1="442.00" x2="231.58" y2="424.00" stroke="#9bd3ff" stroke-width="4" opacity="0.7"/><line x1="314.00" y1="390.76" x2="296.00" y2="359.58" stroke="#9bd3ff" stroke-width="4" opacity="0.7"/><line x1="384.00" y1="372.00" x2="384.00" y2="336.00" stroke="#9bd3ff" stroke-width="4" opacity="0.7"/><line x1="454.00" y1="390.76" x2="472.00" y2="359.58" stroke="#9bd3ff" stroke-width="4" opacity="0.7"/><line x1="505.24" y1="442.00" x2="536.42" y2="424.00" stroke="#9bd3ff" stroke-width="4" opacity="0.7"/>
<line x1="384" y1="512" x2="466.00" y2="486.00" stroke="#c7a64a" stroke-width="8" opacity="0.9"/>
<line x1="384" y1="512" x2="342.00" y2="604.00" stroke="#9bd3ff" stroke-width="6" opacity="0.9"/>
  </g>

  <g opacity="0.8">
    <circle cx="616.25" cy="301.63" r="3.86" fill="#9bd3ff" opacity="0.65"/><circle cx="751.69" cy="201.79" r="2.72" fill="#c7a64a" opacity="0.28"/><circle cx="311.01" cy="697.10" r="4.94" fill="#9bd3ff" opacity="0.38"/><circle cx="292.91" cy="151.83" r="4.87" fill="#c7a64a" opacity="0.47"/><circle cx="228.56" cy="953.39" r="2.03" fill="#9bd3ff" opacity="0.43"/><circle cx="91.32" cy="863.85" r="3.42" fill="#c7a64a" opacity="0.24"/><circle cx="546.62" cy="463.52" r="4.39" fill="#9bd3ff" opacity="0.50"/><circle cx="87.37" cy="302.16" r="1.71" fill="#c7a64a" opacity="0.27"/><circle cx="18.96" cy="760.31" r="2.86" fill="#9bd3ff" opacity="0.56"/><circle cx="104.26" cy="292.25" r="2.99" fill="#c7a64a" opacity="0.68"/><circle cx="36.82" cy="646.55" r="4.32" fill="#9bd3ff" opacity="0.31"/><circle cx="321.20" cy="79.28" r="3.33" fill="#c7a64a" opacity="0.38"/><circle cx="596.14" cy="94.04" r="1.63" fill="#9bd3ff" opacity="0.30"/><circle cx="524.54" cy="182.25" r="1.47" fill="#c7a64a" opacity="0.48"/><circle cx="9.42" cy="596.25" r="3.00" fill="#9bd3ff" opacity="0.54"/><circle cx="231.85" cy="940.11" r="4.82" fill="#c7a64a" opacity="0.53"/><circle cx="508.70" cy="329.30" r="3.96" fill="#9bd3ff" opacity="0.48"/><circle cx="601.43" cy="205.45" r="3.45" fill="#c7a64a" opacity="0.50"/><circle cx="486.38" cy="724.86" r="2.98" fill="#9bd3ff" opacity="0.61"/><circle cx="310.38" cy="726.17" r="4.97" fill="#c7a64a" opacity="0.45"/><circle cx="24.51" cy="42.17" r="2.08" fill="#9bd3ff" opacity="0.59"/><circle cx="551.58" cy="451.76" r="3.61" fill="#c7a64a" opacity="0.36"/><circle cx="220.82" cy="381.78" r="4.40" fill="#9bd3ff" opacity="0.65"/><circle cx="711.41" cy="63.07" r="1.60" fill="#c7a64a" opacity="0.68"/><circle cx="320.10" cy="916.00" r="4.38" fill="#9bd3ff" opacity="0.37"/><circle cx="72.92" cy="548.78" r="3.41" fill="#c7a64a" opacity="0.63"/><circle cx="420.83" cy="67.03" r="4.82" fill="#9bd3ff" opacity="0.55"/><circle cx="667.01" cy="874.20" r="1.57" fill="#c7a64a" opacity="0.54"/>
  </g>

  <rect x="16" y="16" width="736" height="992" rx="24" stroke="url(#edge-chronomancer-c09)" stroke-width="2.5" opacity="0.85"/>
  <rect x="22" y="22" width="724" height="980" rx="20" stroke="#8aa0c4" stroke-width="2" opacity="0.74"/>

  <rect x="34" y="34" width="700" height="72" rx="14" fill="#070b14" fill-opacity="0.72" stroke="#8aa0c4" stroke-opacity="0.55"/>
  <text x="54" y="80" fill="#EAF4FF" font-family="Exo 2, Segoe UI, sans-serif" font-size="32" font-weight="700">Chronomancer</text>

  <rect x="34" y="872" width="700" height="92" rx="14" fill="#070b14" fill-opacity="0.74" stroke="#8aa0c4" stroke-opacity="0.6"/>
  <text x="54" y="924" fill="#D9E7FF" font-family="Exo 2, Segoe UI, sans-serif" font-size="30" font-weight="600">Bruiser</text>

  <rect x="598" y="36" width="118" height="42" rx="10" fill="#8aa0c4" fill-opacity="0.2" stroke="#8aa0c4" stroke-opacity="0.8"/>
  <text x="612" y="65" fill="#8aa0c4" font-family="Exo 2, Segoe UI, sans-serif" font-size="20" font-weight="700">COMMON</text>

  <circle cx="708" cy="954" r="26" fill="#080d18" stroke="#8aa0c4" stroke-opacity="0.8"/>
  <text x="696" y="962" fill="#E7F2FF" font-family="Exo 2, Segoe UI, sans-serif" font-size="24" font-weight="700">09</text>
</svg>