<?xml version="1.0" encoding="UTF-8"?>
<svg width="768" height="1024" viewBox="0 0 768 1024" fill="none" xmlns="http://www.w3.org/2000/svg">
  <defs>
    <linearGradient id="bg-ember-arcanist-c22" x1="60" y1="40" x2="728" y2="1004" gradientUnits="userSpaceOnUse">
      <stop offset="0" stop-color="#25120a"/>
      <stop offset="0.55" stop-color="#8c2b12"/>
      <stop offset="1" stop-color="#25120a"/>
    </linearGradient>
    <radialGradient id="glow-ember-arcanist-c22" cx="0" cy="0" r="1" gradientUnits="userSpaceOnUse" gradientTransform="translate(610.69 196.78) rotate(90) scale(271.69 271.69)">
      <stop stop-color="#ff8e2d" stop-opacity="0.45"/>
      <stop offset="1" stop-color="#ff8e2d" stop-opacity="0"/>
    </radialGradient>
    <linearGradient id="edge-ember-arcanist-c22" x1="0" y1="0" x2="768" y2="1024" gradientUnits="userSpaceOnUse">
      <stop stop-color="#ff8e2d" stop-opacity="0.85"/>
      <stop offset="1" stop-color="#ff5f7a" stop-opacity="0.85"/>
    </linearGradient>
  </defs>

  <rect x="0" y="0" width="768" height="1024" rx="32" fill="#060910"/>
  <rect x="16" y="16" width="736" height="992" rx="24" fill="url(#bg-ember-arcanist-c22)"/>
  <rect x="16" y="16" width="736" height="992" rx="24" fill="url(#glow-ember-arcanist-c22)"/>

  <g opacity="0.88">
    <circle cx="384" cy="552.96" r="70" fill="none" stroke="#ff5f7a" stroke-width="7" opacity="0.75"/><circle cx="384" cy="552.96" r="108" fill="none" stroke="#ff8e2d" stroke-width="3" opacity="0.63"/><circle cx="384" cy="552.96" r="146" fill="none" stroke="#ff5f7a" stroke-width="3" opacity="0.51"/><circle cx="384" cy="552.96" r="184" fill="none" stroke="#ff8e2d" stroke-width="3" opacity="0.39"/><path d="M344,552.96 L384,496.96000000000004 L424,552.96 L384,608.96 Z" fill="none" stroke="#ff5f7a" stroke-width="6" opacity="0.9"/>
  </g>

  <g opacity="0.8">
    <circle cx="97.84" cy="264.63" r="1.65" fill="#ff5f7a" opacity="0.41"/><circle cx="44.13" cy="935.65" r="4.95" fill="#ff8e2d" opacity="0.64"/><circle cx="243.76" cy="539.21" r="2.22" fill="#ff5f7a" opacity="0.50"/><circle cx="441.44" cy="434.21" r="2.44" fill="#ff8e2d" opacity="0.58"/><circle cx="293.67" cy="34.42" r="3.85" fill="#ff5f7a" opacity="0.27"/><circle cx="348.53" cy="620.98" r="2.53" fill="#ff8e2d" opacity="0.41"/><circle cx="372.21" cy="10.29" r="4.59" fill="#ff5f7a" opacity="0.68"/><circle cx="532.65" cy="691.64" r="3.96" fill="#ff8e2d" opacity="0.73"/><circle cx="640.24" cy="290.82" r="3.59" fill="#ff5f7a" opacity="0.45"/><circle cx="132.77" cy="74.56" r="4.53" fill="#ff8e2d" opacity="0.30"/><circle cx="655.53" cy="924.27" r="2.71" fill="#ff5f7a" opacity="0.54"/><circle cx="239.13" cy="854.54" r="1.80" fill="#ff8e2d" opacity="0.63"/><circle cx="652.16" cy="133.20" r="2.17" fill="#ff5f7a" opacity="0.73"/><circle cx="643.72" cy="542.83" r="2.69" fill="#ff8e2d" opacity="0.42"/><circle cx="766.31" cy="499.85" r="4.55" fill="#ff5f7a" opacity="0.32"/><circle cx="198.82" cy="188.29" r="3.95" fill="#ff8e2d" opacity="0.31"/><circle cx="120.30" cy="567.22" r="1.68" fill="#ff5f7a" opacity="0.54"/><circle cx="716.05" cy="512.90" r="2.08" fill="#ff8e2d" opacity="0.48"/><circle cx="678.88" cy="570.56" r="1.20" fill="#ff5f7a" opacity="0.42"/><circle cx="659.87" cy="819.64" r="3.01" fill="#ff8e2d" opacity="0.60"/><circle cx="212.87" cy="822.44" r="3.60" fill="#ff5f7a" opacity="0.46"/><circle cx="50.39" cy="970.86" r="1.31" fill="#ff8e2d" opacity="0.51"/><circle cx="568.70" cy="138.01" r="1.92" fill="#ff5f7a" opacity="0.59"/><circle cx="583.75" cy="216.08" r="3.79" fill="#ff8e2d" opacity="0.29"/><circle cx="491.71" cy="532.01" r="1.64" fill="#ff5f7a" opacity="0.42"/><circle cx="192.65" cy="284.53" r="4.10" fill="#ff8e2d" opacity="0.70"/><circle cx="494.66" cy="773.78" r="3.34" fill="#ff5f7a" opacity="0.28"/><circle cx="699.90" cy="640.94" r="3.90" fill="#ff8e2d" opacity="0.72"/>
  </g>

  <rect x="16" y="16" width="736" height="992" rx="24" stroke="url(#edge-ember-arcanist-c22)" stroke-width="2.5" opacity="0.85"/>
  <rect x="22" y="22" width="724" height="980" rx="20" stroke="#8aa0c4" stroke-width="2" opacity="0.74"/>

  <rect x="34" y="34" width="700" height="72" rx="14" fill="#070b14" fill-opacity="0.72" stroke="#8aa0c4" stroke-opacity="0.55"/>
  <text x="54" y="80" fill="#EAF4FF" font-family="Exo 2, Segoe UI, sans-serif" font-size="32" font-weight="700">Ember Arcanist</text>

  <rect x="34" y="872" width="700" height="92" rx="14" fill="#070b14" fill-opacity="0.74" stroke="#8aa0c4" stroke-opacity="0.6"/>
  <text x="54" y="924" fill="#D9E7FF" font-family="Exo 2, Segoe UI, sans-serif" font-size="30" font-weight="600">Trapwright</text>

  <rect x="598" y="36" width="118" height="42" rx="10" fill="#8aa0c4" fill-opacity="0.2" stroke="#8aa0c4" stroke-opacity="0.8"/>
  <text x="612" y="65" fill="#8aa0c4" font-family="Exo 2, Segoe UI, sans-serif" font-size="20" font-weight="700">COMMON</text>

  <circle cx="708" cy="954" r="26" fill="#080d18" stroke="#8aa0c4" stroke-opacity="0.8"/>
  <text x="696" y="962" fill="#E7F2FF" font-family="Exo 2, Segoe UI, sans-serif" font-size="24" font-weight="700">22</text>
</svg>