<?xml version="1.0" encoding="UTF-8"?>
<svg width="768" height="1024" viewBox="0 0 768 1024" fill="none" xmlns="http://www.w3.org/2000/svg">
  <defs>
    <linearGradient id="bg-ember-arcanist-c14" x1="60" y1="40" x2="728" y2="1004" gradientUnits="userSpaceOnUse">
      <stop offset="0" stop-color="#25120a"/>
      <stop offset="0.55" stop-color="#8c2b12"/>
      <stop offset="1" stop-color="#25120a"/>
    </linearGradient>
    <radialGradient id="glow-ember-arcanist-c14" cx="0" cy="0" r="1" gradientUnits="userSpaceOnUse" gradientTransform="translate(119.55 350.02) rotate(90) scale(245.67 245.67)">
      <stop stop-color="#ff8e2d" stop-opacity="0.45"/>
      <stop offset="1" stop-color="#ff8e2d" stop-opacity="0"/>
    </radialGradient>
    <linearGradient id="edge-ember-arcanist-c14" x1="0" y1="0" x2="768" y2="1024" gradientUnits="userSpaceOnUse">
      <stop stop-color="#ff8e2d" stop-opacity="0.85"/>
      <stop offset="1" stop-color="#ff5f7a" stop-opacity="0.85"/>
    </linearGradient>
  </defs>

  <rect x="0" y="0" width="768" height="1024" rx="32" fill="#060910"/>
  <rect x="16" y="16" width="736" height="992" rx="24" fill="url(#bg-ember-arcanist-c14)"/>
  <rect x="16" y="16" width="736" height="992" rx="24" fill="url(#glow-ember-arcanist-c14)"/>

  <g opacity="0.88">
    <circle cx="384" cy="552.96" r="70" fill="none" stroke="#ff5f7a" stroke-width="7" opacity="0.75"/><circle cx="384" cy="552.96" r="108" fill="none" stroke="#ff8e2d" stroke-width="3" opacity="0.63"/><circle cx="384" cy="552.96" r="146" fill="none" stroke="#ff5f7a" stroke-width="3" opacity="0.51"/><circle cx="384" cy="552.96" r="184" fill="none" stroke="#ff8e2d" stroke-width="3" opacity="0.39"/><path d="M344,552.96 L384,496.96000000000004 L424,552.96 L384,608.96 Z" fill="none" stroke="#ff5f7a" stroke-width="6" opacity="0.9"/>
  </g>

  <g opacity="0.8">
    <circle cx="696.08" cy="532.81" r="1.76" fill="#ff5f7a" opacity="0.52"/><circle cx="83.32" cy="1002.41" r="3.88" fill="#ff8e2d" opacity="0.53"/><circle cx="314.58" cy="416.30" r="2.83" fill="#ff5f7a" opacity="0.66"/><circle cx="254.81" cy="402.32" r="3.09" fill="#ff8e2d" opacity="0.28"/><circle cx="683.17" cy="527.86" r="3.94" fill="#ff5f7a" opacity="0.28"/><circle cx="52.35" cy="436.65" r="2.62" fill="#ff8e2d" opacity="0.42"/><circle cx="533.36" cy="129.75" r="4.22" fill="#ff5f7a" opacity="0.35"/><circle cx="527.11" cy="524.53" r="4.89" fill="#ff8e2d" opacity="0.62"/><circle cx="150.87" cy="936.33" r="2.76" fill="#ff5f7a" opacity="0.56"/><circle cx="119.24" cy="656.94" r="4.17" fill="#ff8e2d" opacity="0.30"/><circle cx="756.87" cy="216.43" r="3.93" fill="#ff5f7a" opacity="0.37"/><circle cx="679.51" cy="402.56" r="3.51" fill="#ff8e2d" opacity="0.56"/><circle cx="495.49" cy="153.59" r="4.81" fill="#ff5f7a" opacity="0.54"/><circle cx="169.97" cy="933.73" r="4.77" fill="#ff8e2d" opacity="0.42"/><circle cx="232.65" cy="477.97" r="4.91" fill="#ff5f7a" opacity="0.40"/><circle cx="201.96" cy="238.12" r="2.45" fill="#ff8e2d" opacity="0.28"/><circle cx="91.94" cy="862.51" r="1.68" fill="#ff5f7a" opacity="0.65"/><circle cx="462.80" cy="918.09" r="4.95" fill="#ff8e2d" opacity="0.49"/><circle cx="470.29" cy="76.53" r="1.41" fill="#ff5f7a" opacity="0.39"/><circle cx="376.27" cy="454.88" r="1.91" fill="#ff8e2d" opacity="0.50"/><circle cx="323.73" cy="694.82" r="4.25" fill="#ff5f7a" opacity="0.27"/><circle cx="404.53" cy="646.82" r="2.19" fill="#ff8e2d" opacity="0.27"/><circle cx="607.20" cy="729.61" r="3.07" fill="#ff5f7a" opacity="0.55"/><circle cx="546.39" cy="684.78" r="3.58" fill="#ff8e2d" opacity="0.61"/><circle cx="767.59" cy="287.11" r="2.44" fill="#ff5f7a" opacity="0.28"/><circle cx="6.38" cy="905.77" r="3.55" fill="#ff8e2d" opacity="0.64"/><circle cx="143.85" cy="775.87" r="1.46" fill="#ff5f7a" opacity="0.54"/><circle cx="149.06" cy="637.53" r="2.58" fill="#ff8e2d" opacity="0.33"/>
  </g>

  <rect x="16" y="16" width="736" height="992" rx="24" stroke="url(#edge-ember-arcanist-c14)" stroke-width="2.5" opacity="0.85"/>
  <rect x="22" y="22" width="724" height="980" rx="20" stroke="#8aa0c4" stroke-width="2" opacity="0.74"/>

  <rect x="34" y="34" width="700" height="72" rx="14" fill="#070b14" fill-opacity="0.72" stroke="#8aa0c4" stroke-opacity="0.55"/>
  <text x="54" y="80" fill="#EAF4FF" font-family="Exo 2, Segoe UI, sans-serif" font-size="32" font-weight="700">Ember Arcanist</text>

  <rect x="34" y="872" width="700" height="92" rx="14" fill="#070b14" fill-opacity="0.74" stroke="#8aa0c4" stroke-opacity="0.6"/>
  <text x="54" y="924" fill="#D9E7FF" font-family="Exo 2, Segoe UI, sans-serif" font-size="30" font-weight="600">Siegebreaker</text>

  <rect x="598" y="36" width="118" height="42" rx="10" fill="#8aa0c4" fill-opacity="0.2" stroke="#8aa0c4" stroke-opacity="0.8"/>
  <text x="612" y="65" fill="#8aa0c4" font-family="Exo 2, Segoe UI, sans-serif" font-size="20" font-weight="700">COMMON</text>

  <circle cx="708" cy="954" r="26" fill="#080d18" stroke="#8aa0c4" stroke-opacity="0.8"/>
  <text x="696" y="962" fill="#E7F2FF" font-family="Exo 2, Segoe UI, sans-serif" font-size="24" font-weight="700">14</text>
</svg>