<?xml version="1.0" encoding="UTF-8"?>
<svg width="768" height="1024" viewBox="0 0 768 1024" fill="none" xmlns="http://www.w3.org/2000/svg">
  <defs>
    <linearGradient id="bg-ember-arcanist-c18" x1="60" y1="40" x2="728" y2="1004" gradientUnits="userSpaceOnUse">
      <stop offset="0" stop-color="#25120a"/>
      <stop offset="0.55" stop-color="#8c2b12"/>
      <stop offset="1" stop-color="#25120a"/>
    </linearGradient>
    <radialGradient id="glow-ember-arcanist-c18" cx="0" cy="0" r="1" gradientUnits="userSpaceOnUse" gradientTransform="translate(273.43 348.24) rotate(90) scale(219.69 219.69)">
      <stop stop-color="#ff8e2d" stop-opacity="0.45"/>
      <stop offset="1" stop-color="#ff8e2d" stop-opacity="0"/>
    </radialGradient>
    <linearGradient id="edge-ember-arcanist-c18" x1="0" y1="0" x2="768" y2="1024" gradientUnits="userSpaceOnUse">
      <stop stop-color="#ff8e2d" stop-opacity="0.85"/>
      <stop offset="1" stop-color="#ff5f7a" stop-opacity="0.85"/>
    </linearGradient>
  </defs>

  <rect x="0" y="0" width="768" height="1024" rx="32" fill="#060910"/>
  <rect x="16" y="16" width="736" height="992" rx="24" fill="url(#bg-ember-arcanist-c18)"/>
  <rect x="16" y="16" width="736" height="992" rx="24" fill="url(#glow-ember-arcanist-c18)"/>

  <g opacity="0.88">
    <circle cx="384" cy="552.96" r="70" fill="none" stroke="#ff5f7a" stroke-width="7" opacity="0.75"/><circle cx="384" cy="552.96" r="108" fill="none" stroke="#ff8e2d" stroke-width="3" opacity="0.63"/><circle cx="384" cy="552.96" r="146" fill="none" stroke="#ff5f7a" stroke-width="3" opacity="0.51"/><circle cx="384" cy="552.96" r="184" fill="none" stroke="#ff8e2d" stroke-width="3" opacity="0.39"/><path d="M344,552.96 L384,496.96000000000004 L424,552.96 L384,608.96 Z" fill="none" stroke="#ff5f7a" stroke-width="6" opacity="0.9"/>
  </g>

  <g opacity="0.8">
    <circle cx="270.34" cy="824.00" r="2.99" fill="#ff5f7a" opacity="0.63"/><circle cx="181.82" cy="995.00" r="2.39" fill="#ff8e2d" opacity="0.50"/><circle cx="302.95" cy="756.34" r="2.67" fill="#ff5f7a" opacity="0.62"/><circle cx="739.48" cy="919.75" r="4.36" fill="#ff8e2d" opacity="0.50"/><circle cx="435.03" cy="814.25" r="3.36" fill="#ff5f7a" opacity="0.28"/><circle cx="54.93" cy="893.70" r="3.11" fill="#ff8e2d" opacity="0.24"/><circle cx="515.68" cy="170.38" r="4.73" fill="#ff5f7a" opacity="0.57"/><circle cx="484.89" cy="154.34" r="3.45" fill="#ff8e2d" opacity="0.56"/><circle cx="651.32" cy="201.03" r="4.01" fill="#ff5f7a" opacity="0.45"/><circle cx="82.38" cy="554.17" r="1.87" fill="#ff8e2d" opacity="0.40"/><circle cx="258.01" cy="917.27" r="4.80" fill="#ff5f7a" opacity="0.70"/><circle cx="517.33" cy="241.35" r="4.55" fill="#ff8e2d" opacity="0.55"/><circle cx="74.83" cy="783.81" r="1.83" fill="#ff5f7a" opacity="0.34"/><circle cx="98.04" cy="292.52" r="2.46" fill="#ff8e2d" opacity="0.46"/><circle cx="516.72" cy="951.32" r="4.89" fill="#ff5f7a" opacity="0.47"/><circle cx="42.53" cy="57.26" r="2.45" fill="#ff8e2d" opacity="0.54"/><circle cx="759.14" cy="283.22" r="1.45" fill="#ff5f7a" opacity="0.43"/><circle cx="703.08" cy="632.33" r="3.66" fill="#ff8e2d" opacity="0.40"/><circle cx="273.80" cy="937.46" r="4.94" fill="#ff5f7a" opacity="0.29"/><circle cx="314.84" cy="1010.21" r="4.76" fill="#ff8e2d" opacity="0.56"/><circle cx="265.28" cy="101.43" r="2.56" fill="#ff5f7a" opacity="0.35"/><circle cx="590.96" cy="445.30" r="4.54" fill="#ff8e2d" opacity="0.29"/><circle cx="67.14" cy="306.65" r="3.45" fill="#ff5f7a" opacity="0.49"/><circle cx="126.50" cy="368.44" r="1.67" fill="#ff8e2d" opacity="0.54"/><circle cx="26.58" cy="167.50" r="4.42" fill="#ff5f7a" opacity="0.48"/><circle cx="26.03" cy="124.60" r="1.99" fill="#ff8e2d" opacity="0.70"/><circle cx="387.20" cy="335.72" r="1.99" fill="#ff5f7a" opacity="0.67"/><circle cx="399.11" cy="95.33" r="3.30" fill="#ff8e2d" opacity="0.57"/>
  </g>

  <rect x="16" y="16" width="736" height="992" rx="24" stroke="url(#edge-ember-arcanist-c18)" stroke-width="2.5" opacity="0.85"/>
  <rect x="22" y="22" width="724" height="980" rx="20" stroke="#8aa0c4" stroke-width="2" opacity="0.74"/>

  <rect x="34" y="34" width="700" height="72" rx="14" fill="#070b14" fill-opacity="0.72" stroke="#8aa0c4" stroke-opacity="0.55"/>
  <text x="54" y="80" fill="#EAF4FF" font-family="Exo 2, Segoe UI, sans-serif" font-size="32" font-weight="700">Ember Arcanist</text>

  <rect x="34" y="872" width="700" height="92" rx="14" fill="#070b14" fill-opacity="0.74" stroke="#8aa0c4" stroke-opacity="0.6"/>
  <text x="54" y="924" fill="#D9E7FF" font-family="Exo 2, Segoe UI, sans-serif" font-size="30" font-weight="600">Phase Infantry</text>

  <rect x="598" y="36" width="118" height="42" rx="10" fill="#8aa0c4" fill-opacity="0.2" stroke="#8aa0c4" stroke-opacity="0.8"/>
  <text x="612" y="65" fill="#8aa0c4" font-family="Exo 2, Segoe UI, sans-serif" font-size="20" font-weight="700">COMMON</text>

  <circle cx="708" cy="954" r="26" fill="#080d18" stroke="#8aa0c4" stroke-opacity="0.8"/>
  <text x="696" y="962" fill="#E7F2FF" font-family="Exo 2, Segoe UI, sans-serif" font-size="24" font-weight="700">18</text>
</svg>