<?xml version="1.0" encoding="UTF-8"?>
<svg width="768" height="1024" viewBox="0 0 768 1024" fill="none" xmlns="http://www.w3.org/2000/svg">
  <defs>
    <linearGradient id="bg-ember-arcanist-c09" x1="60" y1="40" x2="728" y2="1004" gradientUnits="userSpaceOnUse">
      <stop offset="0" stop-color="#25120a"/>
      <stop offset="0.55" stop-color="#8c2b12"/>
      <stop offset="1" stop-color="#25120a"/>
    </linearGradient>
    <radialGradient id="glow-ember-arcanist-c09" cx="0" cy="0" r="1" gradientUnits="userSpaceOnUse" gradientTransform="translate(265.36 508.04) rotate(90) scale(190.19 190.19)">
      <stop stop-color="#ff8e2d" stop-opacity="0.45"/>
      <stop offset="1" stop-color="#ff8e2d" stop-opacity="0"/>
    </radialGradient>
    <linearGradient id="edge-ember-arcanist-c09" x1="0" y1="0" x2="768" y2="1024" gradientUnits="userSpaceOnUse">
      <stop stop-color="#ff8e2d" stop-opacity="0.85"/>
      <stop offset="1" stop-color="#ff5f7a" stop-opacity="0.85"/>
    </linearGradient>
  </defs>

  <rect x="0" y="0" width="768" height="1024" rx="32" fill="#060910"/>
  <rect x="16" y="16" width="736" height="992" rx="24" fill="url(#bg-ember-arcanist-c09)"/>
  <rect x="16" y="16" width="736" height="992" rx="24" fill="url(#glow-ember-arcanist-c09)"/>

  <g opacity="0.88">
    <circle cx="384" cy="552.96" r="70" fill="none" stroke="#ff5f7a" stroke-width="7" opacity="0.75"/><circle cx="384" cy="552.96" r="108" fill="none" stroke="#ff8e2d" stroke-width="3" opacity="0.63"/><circle cx="384" cy="552.96" r="146" fill="none" stroke="#ff5f7a" stroke-width="3" opacity="0.51"/><circle cx="384" cy="552.96" r="184" fill="none" stroke="#ff8e2d" stroke-width="3" opacity="0.39"/><path d="M344,552.96 L384,496.96000000000004 L424,552.96 L384,608.96 Z" fill="none" stroke="#ff5f7a" stroke-width="6" opacity="0.9"/>
  </g>

  <g opacity="0.8">
    <circle cx="479.15" cy="751.30" r="3.43" fill="#ff5f7a" opacity="0.67"/><circle cx="183.98" cy="405.17" r="1.78" fill="#ff8e2d" opacity="0.62"/><circle cx="246.62" cy="355.27" r="2.69" fill="#ff5f7a" opacity="0.42"/><circle cx="636.44" cy="147.69" r="1.44" fill="#ff8e2d" opacity="0.36"/><circle cx="758.30" cy="185.58" r="2.91" fill="#ff5f7a" opacity="0.32"/><circle cx="78.65" cy="890.40" r="1.71" fill="#ff8e2d" opacity="0.33"/><circle cx="480.83" cy="604.57" r="4.58" fill="#ff5f7a" opacity="0.53"/><circle cx="703.85" cy="947.81" r="1.51" fill="#ff8e2d" opacity="0.63"/><circle cx="534.07" cy="306.46" r="4.84" fill="#ff5f7a" opacity="0.64"/><circle cx="390.53" cy="27.63" r="2.46" fill="#ff8e2d" opacity="0.65"/><circle cx="388.71" cy="529.21" r="3.91" fill="#ff5f7a" opacity="0.29"/><circle cx="382.08" cy="335.16" r="2.43" fill="#ff8e2d" opacity="0.56"/><circle cx="550.88" cy="188.90" r="4.54" fill="#ff5f7a" opacity="0.60"/><circle cx="198.20" cy="227.49" r="2.74" fill="#ff8e2d" opacity="0.67"/><circle cx="618.38" cy="865.36" r="4.66" fill="#ff5f7a" opacity="0.74"/><circle cx="93.36" cy="341.57" r="2.55" fill="#ff8e2d" opacity="0.35"/><circle cx="194.51" cy="553.98" r="1.32" fill="#ff5f7a" opacity="0.28"/><circle cx="311.21" cy="894.02" r="1.42" fill="#ff8e2d" opacity="0.25"/><circle cx="16.59" cy="793.53" r="2.80" fill="#ff5f7a" opacity="0.28"/><circle cx="249.55" cy="371.02" r="1.48" fill="#ff8e2d" opacity="0.60"/><circle cx="642.26" cy="545.37" r="3.36" fill="#ff5f7a" opacity="0.43"/><circle cx="623.70" cy="355.20" r="4.77" fill="#ff8e2d" opacity="0.51"/><circle cx="417.06" cy="836.82" r="1.80" fill="#ff5f7a" opacity="0.58"/><circle cx="100.83" cy="252.55" r="4.23" fill="#ff8e2d" opacity="0.42"/><circle cx="682.11" cy="594.22" r="4.21" fill="#ff5f7a" opacity="0.68"/><circle cx="337.39" cy="756.36" r="4.58" fill="#ff8e2d" opacity="0.39"/><circle cx="131.94" cy="20.35" r="2.35" fill="#ff5f7a" opacity="0.63"/><circle cx="593.68" cy="295.11" r="1.74" fill="#ff8e2d" opacity="0.54"/>
  </g>

  <rect x="16" y="16" width="736" height="992" rx="24" stroke="url(#edge-ember-arcanist-c09)" stroke-width="2.5" opacity="0.85"/>
  <rect x="22" y="22" width="724" height="980" rx="20" stroke="#8aa0c4" stroke-width="2" opacity="0.74"/>

  <rect x="34" y="34" width="700" height="72" rx="14" fill="#070b14" fill-opacity="0.72" stroke="#8aa0c4" stroke-opacity="0.55"/>
  <text x="54" y="80" fill="#EAF4FF" font-family="Exo 2, Segoe UI, sans-serif" font-size="32" font-weight="700">Ember Arcanist</text>

  <rect x="34" y="872" width="700" height="92" rx="14" fill="#070b14" fill-opacity="0.74" stroke="#8aa0c4" stroke-opacity="0.6"/>
  <text x="54" y="924" fill="#D9E7FF" font-family="Exo 2, Segoe UI, sans-serif" font-size="30" font-weight="600">Bruiser</text>

  <rect x="598" y="36" width="118" height="42" rx="10" fill="#8aa0c4" fill-opacity="0.2" stroke="#8aa0c4" stroke-opacity="0.8"/>
  <text x="612" y="65" fill="#8aa0c4" font-family="Exo 2, Segoe UI, sans-serif" font-size="20" font-weight="700">COMMON</text>

  <circle cx="708" cy="954" r="26" fill="#080d18" stroke="#8aa0c4" stroke-opacity="0.8"/>
  <text x="696" y="962" fill="#E7F2FF" font-family="Exo 2, Segoe UI, sans-serif" font-size="24" font-weight="700">09</text>
</svg>