<?xml version="1.0" encoding="UTF-8"?>
<svg width="768" height="1024" viewBox="0 0 768 1024" fill="none" xmlns="http://www.w3.org/2000/svg">
  <defs>
    <linearGradient id="bg-ember-arcanist-c39" x1="60" y1="40" x2="728" y2="1004" gradientUnits="userSpaceOnUse">
      <stop offset="0" stop-color="#25120a"/>
      <stop offset="0.55" stop-color="#8c2b12"/>
      <stop offset="1" stop-color="#25120a"/>
    </linearGradient>
    <radialGradient id="glow-ember-arcanist-c39" cx="0" cy="0" r="1" gradientUnits="userSpaceOnUse" gradientTransform="translate(553.36 204.55) rotate(90) scale(241.56 241.56)">
      <stop stop-color="#ff8e2d" stop-opacity="0.45"/>
      <stop offset="1" stop-color="#ff8e2d" stop-opacity="0"/>
    </radialGradient>
    <linearGradient id="edge-ember-arcanist-c39" x1="0" y1="0" x2="768" y2="1024" gradientUnits="userSpaceOnUse">
      <stop stop-color="#ff8e2d" stop-opacity="0.85"/>
      <stop offset="1" stop-color="#ff5f7a" stop-opacity="0.85"/>
    </linearGradient>
  </defs>

  <rect x="0" y="0" width="768" height="1024" rx="32" fill="#060910"/>
  <rect x="16" y="16" width="736" height="992" rx="24" fill="url(#bg-ember-arcanist-c39)"/>
  <rect x="16" y="16" width="736" height="992" rx="24" fill="url(#glow-ember-arcanist-c39)"/>

  <g opacity="0.88">
    <circle cx="384" cy="552.96" r="70" fill="none" stroke="#ff5f7a" stroke-width="7" opacity="0.75"/><circle cx="384" cy="552.96" r="108" fill="none" stroke="#ff8e2d" stroke-width="3" opacity="0.63"/><circle cx="384" cy="552.96" r="146" fill="none" stroke="#ff5f7a" stroke-width="3" opacity="0.51"/><circle cx="384" cy="552.96" r="184" fill="none" stroke="#ff8e2d" stroke-width="3" opacity="0.39"/><path d="M344,552.96 L384,496.96000000000004 L424,552.96 L384,608.96 Z" fill="none" stroke="#ff5f7a" stroke-width="6" opacity="0.9"/>
  </g>

  <g opacity="0.8">
    <circle cx="561.25" cy="229.72" r="4.89" fill="#ff5f7a" opacity="0.33"/><circle cx="517.86" cy="90.33" r="2.63" fill="#ff8e2d" opacity="0.37"/><circle cx="686.05" cy="734.89" r="1.37" fill="#ff5f7a" opacity="0.33"/><circle cx="362.01" cy="531.23" r="3.44" fill="#ff8e2d" opacity="0.33"/><circle cx="304.66" cy="800.16" r="4.12" fill="#ff5f7a" opacity="0.42"/><circle cx="372.35" cy="964.14" r="2.79" fill="#ff8e2d" opacity="0.39"/><circle cx="329.76" cy="1009.83" r="3.51" fill="#ff5f7a" opacity="0.49"/><circle cx="387.71" cy="653.26" r="3.76" fill="#ff8e2d" opacity="0.51"/><circle cx="10.60" cy="890.41" r="2.18" fill="#ff5f7a" opacity="0.26"/><circle cx="511.76" cy="369.65" r="4.49" fill="#ff8e2d" opacity="0.44"/><circle cx="664.44" cy="772.06" r="3.75" fill="#ff5f7a" opacity="0.50"/><circle cx="403.10" cy="880.95" r="2.20" fill="#ff8e2d" opacity="0.53"/><circle cx="594.98" cy="451.44" r="3.13" fill="#ff5f7a" opacity="0.74"/><circle cx="272.61" cy="167.01" r="2.94" fill="#ff8e2d" opacity="0.30"/><circle cx="6.82" cy="28.02" r="1.98" fill="#ff5f7a" opacity="0.58"/><circle cx="69.16" cy="252.99" r="3.91" fill="#ff8e2d" opacity="0.58"/><circle cx="185.06" cy="504.92" r="1.93" fill="#ff5f7a" opacity="0.46"/><circle cx="563.75" cy="356.96" r="3.02" fill="#ff8e2d" opacity="0.49"/><circle cx="197.71" cy="69.03" r="1.66" fill="#ff5f7a" opacity="0.70"/><circle cx="45.09" cy="234.69" r="3.07" fill="#ff8e2d" opacity="0.59"/><circle cx="566.57" cy="800.76" r="2.00" fill="#ff5f7a" opacity="0.68"/><circle cx="132.89" cy="462.68" r="2.43" fill="#ff8e2d" opacity="0.73"/><circle cx="603.69" cy="400.90" r="4.47" fill="#ff5f7a" opacity="0.59"/><circle cx="180.29" cy="804.08" r="1.21" fill="#ff8e2d" opacity="0.37"/><circle cx="631.72" cy="865.43" r="3.84" fill="#ff5f7a" opacity="0.62"/><circle cx="62.08" cy="417.00" r="2.85" fill="#ff8e2d" opacity="0.47"/><circle cx="724.71" cy="11.42" r="2.37" fill="#ff5f7a" opacity="0.69"/><circle cx="733.30" cy="426.59" r="1.98" fill="#ff8e2d" opacity="0.54"/>
  </g>

  <rect x="16" y="16" width="736" height="992" rx="24" stroke="url(#edge-ember-arcanist-c39)" stroke-width="2.5" opacity="0.85"/>
  <rect x="22" y="22" width="724" height="980" rx="20" stroke="#78d8ff" stroke-width="2" opacity="0.74"/>

  <rect x="34" y="34" width="700" height="72" rx="14" fill="#070b14" fill-opacity="0.72" stroke="#78d8ff" stroke-opacity="0.55"/>
  <text x="54" y="80" fill="#EAF4FF" font-family="Exo 2, Segoe UI, sans-serif" font-size="32" font-weight="700">Ember Arcanist</text>

  <rect x="34" y="872" width="700" height="92" rx="14" fill="#070b14" fill-opacity="0.74" stroke="#78d8ff" stroke-opacity="0.6"/>
  <text x="54" y="924" fill="#D9E7FF" font-family="Exo 2, Segoe UI, sans-serif" font-size="30" font-weight="600">Ward</text>

  <rect x="598" y="36" width="118" height="42" rx="10" fill="#78d8ff" fill-opacity="0.2" stroke="#78d8ff" stroke-opacity="0.8"/>
  <text x="612" y="65" fill="#78d8ff" font-family="Exo 2, Segoe UI, sans-serif" font-size="20" font-weight="700">RARE</text>

  <circle cx="708" cy="954" r="26" fill="#080d18" stroke="#78d8ff" stroke-opacity="0.8"/>
  <text x="696" y="962" fill="#E7F2FF" font-family="Exo 2, Segoe UI, sans-serif" font-size="24" font-weight="700">39</text>
</svg>