<?xml version="1.0" encoding="UTF-8"?>
<svg width="768" height="1024" viewBox="0 0 768 1024" fill="none" xmlns="http://www.w3.org/2000/svg">
  <defs>
    <linearGradient id="bg-ember-arcanist-c07" x1="60" y1="40" x2="728" y2="1004" gradientUnits="userSpaceOnUse">
      <stop offset="0" stop-color="#25120a"/>
      <stop offset="0.55" stop-color="#8c2b12"/>
      <stop offset="1" stop-color="#25120a"/>
    </linearGradient>
    <radialGradient id="glow-ember-arcanist-c07" cx="0" cy="0" r="1" gradientUnits="userSpaceOnUse" gradientTransform="translate(607.63 497.99) rotate(90) scale(286.54 286.54)">
      <stop stop-color="#ff8e2d" stop-opacity="0.45"/>
      <stop offset="1" stop-color="#ff8e2d" stop-opacity="0"/>
    </radialGradient>
    <linearGradient id="edge-ember-arcanist-c07" x1="0" y1="0" x2="768" y2="1024" gradientUnits="userSpaceOnUse">
      <stop stop-color="#ff8e2d" stop-opacity="0.85"/>
      <stop offset="1" stop-color="#ff5f7a" stop-opacity="0.85"/>
    </linearGradient>
  </defs>

  <rect x="0" y="0" width="768" height="1024" rx="32" fill="#060910"/>
  <rect x="16" y="16" width="736" height="992" rx="24" fill="url(#bg-ember-arcanist-c07)"/>
  <rect x="16" y="16" width="736" height="992" rx="24" fill="url(#glow-ember-arcanist-c07)"/>

  <g opacity="0.88">
    <circle cx="384" cy="552.96" r="70" fill="none" stroke="#ff5f7a" stroke-width="7" opacity="0.75"/><circle cx="384" cy="552.96" r="108" fill="none" stroke="#ff8e2d" stroke-width="3" opacity="0.63"/><circle cx="384" cy="552.96" r="146" fill="none" stroke="#ff5f7a" stroke-width="3" opacity="0.51"/><circle cx="384" cy="552.96" r="184" fill="none" stroke="#ff8e2d" stroke-width="3" opacity="0.39"/><path d="M344,552.96 L384,496.96000000000004 L424,552.96 L384,608.96 Z" fill="none" stroke="#ff5f7a" stroke-width="6" opacity="0.9"/>
  </g>

  <g opacity="0.8">
    <circle cx="530.16" cy="61.37" r="3.25" fill="#ff5f7a" opacity="0.55"/><circle cx="606.79" cy="393.99" r="1.77" fill="#ff8e2d" opacity="0.30"/><circle cx="60.64" cy="680.25" r="1.54" fill="#ff5f7a" opacity="0.44"/><circle cx="316.65" cy="258.18" r="1.45" fill="#ff8e2d" opacity="0.51"/><circle cx="323.88" cy="700.04" r="4.13" fill="#ff5f7a" opacity="0.39"/><circle cx="348.09" cy="825.60" r="4.79" fill="#ff8e2d" opacity="0.69"/><circle cx="664.62" cy="1.13" r="3.76" fill="#ff5f7a" opacity="0.64"/><circle cx="632.95" cy="302.40" r="4.66" fill="#ff8e2d" opacity="0.68"/><circle cx="584.48" cy="301.14" r="1.28" fill="#ff5f7a" opacity="0.45"/><circle cx="721.14" cy="474.16" r="4.92" fill="#ff8e2d" opacity="0.70"/><circle cx="543.21" cy="712.23" r="2.79" fill="#ff5f7a" opacity="0.37"/><circle cx="291.54" cy="896.96" r="2.65" fill="#ff8e2d" opacity="0.26"/><circle cx="620.69" cy="945.94" r="3.00" fill="#ff5f7a" opacity="0.38"/><circle cx="389.70" cy="891.81" r="3.44" fill="#ff8e2d" opacity="0.68"/><circle cx="472.46" cy="880.19" r="3.76" fill="#ff5f7a" opacity="0.49"/><circle cx="636.91" cy="172.41" r="3.79" fill="#ff8e2d" opacity="0.62"/><circle cx="407.02" cy="241.97" r="1.92" fill="#ff5f7a" opacity="0.43"/><circle cx="656.88" cy="880.91" r="2.33" fill="#ff8e2d" opacity="0.27"/><circle cx="741.29" cy="905.36" r="3.84" fill="#ff5f7a" opacity="0.45"/><circle cx="189.05" cy="205.02" r="2.91" fill="#ff8e2d" opacity="0.63"/><circle cx="188.98" cy="909.66" r="2.74" fill="#ff5f7a" opacity="0.40"/><circle cx="149.00" cy="115.65" r="4.40" fill="#ff8e2d" opacity="0.49"/><circle cx="457.48" cy="553.82" r="4.43" fill="#ff5f7a" opacity="0.65"/><circle cx="540.74" cy="648.40" r="2.26" fill="#ff8e2d" opacity="0.73"/><circle cx="663.09" cy="146.17" r="4.87" fill="#ff5f7a" opacity="0.40"/><circle cx="129.19" cy="551.22" r="3.77" fill="#ff8e2d" opacity="0.54"/><circle cx="463.38" cy="225.71" r="4.02" fill="#ff5f7a" opacity="0.43"/><circle cx="217.35" cy="732.02" r="4.43" fill="#ff8e2d" opacity="0.69"/>
  </g>

  <rect x="16" y="16" width="736" height="992" rx="24" stroke="url(#edge-ember-arcanist-c07)" stroke-width="2.5" opacity="0.85"/>
  <rect x="22" y="22" width="724" height="980" rx="20" stroke="#8aa0c4" stroke-width="2" opacity="0.74"/>

  <rect x="34" y="34" width="700" height="72" rx="14" fill="#070b14" fill-opacity="0.72" stroke="#8aa0c4" stroke-opacity="0.55"/>
  <text x="54" y="80" fill="#EAF4FF" font-family="Exo 2, Segoe UI, sans-serif" font-size="32" font-weight="700">Ember Arcanist</text>

  <rect x="34" y="872" width="700" height="92" rx="14" fill="#070b14" fill-opacity="0.74" stroke="#8aa0c4" stroke-opacity="0.6"/>
  <text x="54" y="924" fill="#D9E7FF" font-family="Exo 2, Segoe UI, sans-serif" font-size="30" font-weight="600">Medic</text>

  <rect x="598" y="36" width="118" height="42" rx="10" fill="#8aa0c4" fill-opacity="0.2" stroke="#8aa0c4" stroke-opacity="0.8"/>
  <text x="612" y="65" fill="#8aa0c4" font-family="Exo 2, Segoe UI, sans-serif" font-size="20" font-weight="700">COMMON</text>

  <circle cx="708" cy="954" r="26" fill="#080d18" stroke="#8aa0c4" stroke-opacity="0.8"/>
  <text x="696" y="962" fill="#E7F2FF" font-family="Exo 2, Segoe UI, sans-serif" font-size="24" font-weight="700">07</text>
</svg>