<?xml version="1.0" encoding="UTF-8"?>
<svg width="768" height="1024" viewBox="0 0 768 1024" fill="none" xmlns="http://www.w3.org/2000/svg">
  <defs>
    <linearGradient id="bg-ember-arcanist-c33" x1="60" y1="40" x2="728" y2="1004" gradientUnits="userSpaceOnUse">
      <stop offset="0" stop-color="#25120a"/>
      <stop offset="0.55" stop-color="#8c2b12"/>
      <stop offset="1" stop-color="#25120a"/>
    </linearGradient>
    <radialGradient id="glow-ember-arcanist-c33" cx="0" cy="0" r="1" gradientUnits="userSpaceOnUse" gradientTransform="translate(229.59 389.58) rotate(90) scale(272.24 272.24)">
      <stop stop-color="#ff8e2d" stop-opacity="0.45"/>
      <stop offset="1" stop-color="#ff8e2d" stop-opacity="0"/>
    </radialGradient>
    <linearGradient id="edge-ember-arcanist-c33" x1="0" y1="0" x2="768" y2="1024" gradientUnits="userSpaceOnUse">
      <stop stop-color="#ff8e2d" stop-opacity="0.85"/>
      <stop offset="1" stop-color="#ff5f7a" stop-opacity="0.85"/>
    </linearGradient>
  </defs>

  <rect x="0" y="0" width="768" height="1024" rx="32" fill="#060910"/>
  <rect x="16" y="16" width="736" height="992" rx="24" fill="url(#bg-ember-arcanist-c33)"/>
  <rect x="16" y="16" width="736" height="992" rx="24" fill="url(#glow-ember-arcanist-c33)"/>

  <g opacity="0.88">
    <circle cx="384" cy="552.96" r="70" fill="none" stroke="#ff5f7a" stroke-width="7" opacity="0.75"/><circle cx="384" cy="552.96" r="108" fill="none" stroke="#ff8e2d" stroke-width="3" opacity="0.63"/><circle cx="384" cy="552.96" r="146" fill="none" stroke="#ff5f7a" stroke-width="3" opacity="0.51"/><circle cx="384" cy="552.96" r="184" fill="none" stroke="#ff8e2d" stroke-width="3" opacity="0.39"/><path d="M344,552.96 L384,496.96000000000004 L424,552.96 L384,608.96 Z" fill="none" stroke="#ff5f7a" stroke-width="6" opacity="0.9"/>
  </g>

  <g opacity="0.8">
    <circle cx="622.33" cy="616.03" r="3.58" fill="#ff5f7a" opacity="0.66"/><circle cx="441.70" cy="848.67" r="1.45" fill="#ff8e2d" opacity="0.47"/><circle cx="760.91" cy="457.30" r="3.32" fill="#ff5f7a" opacity="0.63"/><circle cx="131.11" cy="270.16" r="4.98" fill="#ff8e2d" opacity="0.43"/><circle cx="421.37" cy="822.11" r="1.54" fill="#ff5f7a" opacity="0.41"/><circle cx="745.95" cy="567.71" r="2.10" fill="#ff8e2d" opacity="0.42"/><circle cx="490.08" cy="464.81" r="4.48" fill="#ff5f7a" opacity="0.42"/><circle cx="368.10" cy="161.50" r="4.00" fill="#ff8e2d" opacity="0.39"/><circle cx="583.31" cy="558.54" r="1.35" fill="#ff5f7a" opacity="0.47"/><circle cx="580.95" cy="913.36" r="4.85" fill="#ff8e2d" opacity="0.50"/><circle cx="696.49" cy="514.06" r="4.55" fill="#ff5f7a" opacity="0.60"/><circle cx="220.31" cy="218.10" r="2.65" fill="#ff8e2d" opacity="0.25"/><circle cx="691.20" cy="557.11" r="4.33" fill="#ff5f7a" opacity="0.50"/><circle cx="383.99" cy="581.89" r="2.19" fill="#ff8e2d" opacity="0.65"/><circle cx="315.96" cy="303.51" r="2.63" fill="#ff5f7a" opacity="0.71"/><circle cx="567.85" cy="440.41" r="4.19" fill="#ff8e2d" opacity="0.65"/><circle cx="474.22" cy="891.79" r="4.53" fill="#ff5f7a" opacity="0.45"/><circle cx="52.69" cy="654.78" r="1.51" fill="#ff8e2d" opacity="0.32"/><circle cx="345.24" cy="32.03" r="2.30" fill="#ff5f7a" opacity="0.62"/><circle cx="484.67" cy="445.92" r="3.03" fill="#ff8e2d" opacity="0.46"/><circle cx="308.08" cy="816.77" r="2.20" fill="#ff5f7a" opacity="0.64"/><circle cx="604.32" cy="174.22" r="1.38" fill="#ff8e2d" opacity="0.24"/><circle cx="326.25" cy="268.08" r="3.25" fill="#ff5f7a" opacity="0.69"/><circle cx="485.01" cy="427.43" r="1.81" fill="#ff8e2d" opacity="0.32"/><circle cx="349.44" cy="74.25" r="2.40" fill="#ff5f7a" opacity="0.64"/><circle cx="563.04" cy="825.62" r="1.70" fill="#ff8e2d" opacity="0.26"/><circle cx="18.91" cy="349.36" r="4.77" fill="#ff5f7a" opacity="0.71"/><circle cx="747.34" cy="879.25" r="3.18" fill="#ff8e2d" opacity="0.67"/>
  </g>

  <rect x="16" y="16" width="736" height="992" rx="24" stroke="url(#edge-ember-arcanist-c33)" stroke-width="2.5" opacity="0.85"/>
  <rect x="22" y="22" width="724" height="980" rx="20" stroke="#78d8ff" stroke-width="2" opacity="0.74"/>

  <rect x="34" y="34" width="700" height="72" rx="14" fill="#070b14" fill-opacity="0.72" stroke="#78d8ff" stroke-opacity="0.55"/>
  <text x="54" y="80" fill="#EAF4FF" font-family="Exo 2, Segoe UI, sans-serif" font-size="32" font-weight="700">Ember Arcanist</text>

  <rect x="34" y="872" width="700" height="92" rx="14" fill="#070b14" fill-opacity="0.74" stroke="#78d8ff" stroke-opacity="0.6"/>
  <text x="54" y="924" fill="#D9E7FF" font-family="Exo 2, Segoe UI, sans-serif" font-size="30" font-weight="600">Simple Buff</text>

  <rect x="598" y="36" width="118" height="42" rx="10" fill="#78d8ff" fill-opacity="0.2" stroke="#78d8ff" stroke-opacity="0.8"/>
  <text x="612" y="65" fill="#78d8ff" font-family="Exo 2, Segoe UI, sans-serif" font-size="20" font-weight="700">RARE</text>

  <circle cx="708" cy="954" r="26" fill="#080d18" stroke="#78d8ff" stroke-opacity="0.8"/>
  <text x="696" y="962" fill="#E7F2FF" font-family="Exo 2, Segoe UI, sans-serif" font-size="24" font-weight="700">33</text>
</svg>