<?xml version="1.0" encoding="UTF-8"?>
<svg width="768" height="1024" viewBox="0 0 768 1024" fill="none" xmlns="http://www.w3.org/2000/svg">
  <defs>
    <linearGradient id="bg-ember-arcanist-c43" x1="60" y1="40" x2="728" y2="1004" gradientUnits="userSpaceOnUse">
      <stop offset="0" stop-color="#25120a"/>
      <stop offset="0.55" stop-color="#8c2b12"/>
      <stop offset="1" stop-color="#25120a"/>
    </linearGradient>
    <radialGradient id="glow-ember-arcanist-c43" cx="0" cy="0" r="1" gradientUnits="userSpaceOnUse" gradientTransform="translate(576.95 474.68) rotate(90) scale(223.38 223.38)">
      <stop stop-color="#ff8e2d" stop-opacity="0.45"/>
      <stop offset="1" stop-color="#ff8e2d" stop-opacity="0"/>
    </radialGradient>
    <linearGradient id="edge-ember-arcanist-c43" x1="0" y1="0" x2="768" y2="1024" gradientUnits="userSpaceOnUse">
      <stop stop-color="#ff8e2d" stop-opacity="0.85"/>
      <stop offset="1" stop-color="#ff5f7a" stop-opacity="0.85"/>
    </linearGradient>
  </defs>

  <rect x="0" y="0" width="768" height="1024" rx="32" fill="#060910"/>
  <rect x="16" y="16" width="736" height="992" rx="24" fill="url(#bg-ember-arcanist-c43)"/>
  <rect x="16" y="16" width="736" height="992" rx="24" fill="url(#glow-ember-arcanist-c43)"/>

  <g opacity="0.88">
    <circle cx="384" cy="552.96" r="70" fill="none" stroke="#ff5f7a" stroke-width="7" opacity="0.75"/><circle cx="384" cy="552.96" r="108" fill="none" stroke="#ff8e2d" stroke-width="3" opacity="0.63"/><circle cx="384" cy="552.96" r="146" fill="none" stroke="#ff5f7a" stroke-width="3" opacity="0.51"/><circle cx="384" cy="552.96" r="184" fill="none" stroke="#ff8e2d" stroke-width="3" opacity="0.39"/><path d="M344,552.96 L384,496.96000000000004 L424,552.96 L384,608.96 Z" fill="none" stroke="#ff5f7a" stroke-width="6" opacity="0.9"/>
  </g>

  <g opacity="0.8">
    <circle cx="322.02" cy="223.01" r="3.67" fill="#ff5f7a" opacity="0.29"/><circle cx="302.53" cy="69.32" r="2.53" fill="#ff8e2d" opacity="0.55"/><circle cx="64.44" cy="642.99" r="2.91" fill="#ff5f7a" opacity="0.30"/><circle cx="633.04" cy="809.21" r="3.46" fill="#ff8e2d" opacity="0.31"/><circle cx="329.40" cy="959.29" r="1.73" fill="#ff5f7a" opacity="0.46"/><circle cx="415.32" cy="882.62" r="4.74" fill="#ff8e2d" opacity="0.43"/><circle cx="635.65" cy="38.68" r="4.54" fill="#ff5f7a" opacity="0.65"/><circle cx="67.27" cy="40.47" r="1.97" fill="#ff8e2d" opacity="0.38"/><circle cx="606.38" cy="93.14" r="3.73" fill="#ff5f7a" opacity="0.73"/><circle cx="582.10" cy="44.45" r="4.42" fill="#ff8e2d" opacity="0.59"/><circle cx="747.95" cy="904.61" r="2.97" fill="#ff5f7a" opacity="0.71"/><circle cx="96.40" cy="193.35" r="1.87" fill="#ff8e2d" opacity="0.42"/><circle cx="636.57" cy="554.08" r="3.18" fill="#ff5f7a" opacity="0.44"/><circle cx="338.01" cy="902.03" r="3.69" fill="#ff8e2d" opacity="0.28"/><circle cx="682.48" cy="873.86" r="4.76" fill="#ff5f7a" opacity="0.69"/><circle cx="4.05" cy="792.92" r="2.77" fill="#ff8e2d" opacity="0.35"/><circle cx="580.77" cy="39.37" r="2.73" fill="#ff5f7a" opacity="0.67"/><circle cx="188.91" cy="49.55" r="1.69" fill="#ff8e2d" opacity="0.70"/><circle cx="61.70" cy="678.61" r="1.48" fill="#ff5f7a" opacity="0.54"/><circle cx="347.07" cy="1008.08" r="2.58" fill="#ff8e2d" opacity="0.65"/><circle cx="335.10" cy="577.32" r="4.03" fill="#ff5f7a" opacity="0.37"/><circle cx="462.12" cy="197.36" r="3.24" fill="#ff8e2d" opacity="0.60"/><circle cx="470.03" cy="423.98" r="2.00" fill="#ff5f7a" opacity="0.49"/><circle cx="383.27" cy="613.09" r="3.72" fill="#ff8e2d" opacity="0.48"/><circle cx="220.47" cy="344.56" r="3.09" fill="#ff5f7a" opacity="0.47"/><circle cx="579.97" cy="15.72" r="1.96" fill="#ff8e2d" opacity="0.39"/><circle cx="356.63" cy="511.73" r="4.30" fill="#ff5f7a" opacity="0.42"/><circle cx="384.10" cy="1010.57" r="1.67" fill="#ff8e2d" opacity="0.70"/>
  </g>

  <rect x="16" y="16" width="736" height="992" rx="24" stroke="url(#edge-ember-arcanist-c43)" stroke-width="2.5" opacity="0.85"/>
  <rect x="22" y="22" width="724" height="980" rx="20" stroke="#78d8ff" stroke-width="2" opacity="0.74"/>

  <rect x="34" y="34" width="700" height="72" rx="14" fill="#070b14" fill-opacity="0.72" stroke="#78d8ff" stroke-opacity="0.55"/>
  <text x="54" y="80" fill="#EAF4FF" font-family="Exo 2, Segoe UI, sans-serif" font-size="32" font-weight="700">Ember Arcanist</text>

  <rect x="34" y="872" width="700" height="92" rx="14" fill="#070b14" fill-opacity="0.74" stroke="#78d8ff" stroke-opacity="0.6"/>
  <text x="54" y="924" fill="#D9E7FF" font-family="Exo 2, Segoe UI, sans-serif" font-size="30" font-weight="600">Faction Amplifier</text>

  <rect x="598" y="36" width="118" height="42" rx="10" fill="#78d8ff" fill-opacity="0.2" stroke="#78d8ff" stroke-opacity="0.8"/>
  <text x="612" y="65" fill="#78d8ff" font-family="Exo 2, Segoe UI, sans-serif" font-size="20" font-weight="700">RARE</text>

  <circle cx="708" cy="954" r="26" fill="#080d18" stroke="#78d8ff" stroke-opacity="0.8"/>
  <text x="696" y="962" fill="#E7F2FF" font-family="Exo 2, Segoe UI, sans-serif" font-size="24" font-weight="700">43</text>
</svg>