<?xml version="1.0" encoding="UTF-8"?>
<svg width="768" height="1024" viewBox="0 0 768 1024" fill="none" xmlns="http://www.w3.org/2000/svg">
  <defs>
    <linearGradient id="bg-ember-arcanist-c36" x1="60" y1="40" x2="728" y2="1004" gradientUnits="userSpaceOnUse">
      <stop offset="0" stop-color="#25120a"/>
      <stop offset="0.55" stop-color="#8c2b12"/>
      <stop offset="1" stop-color="#25120a"/>
    </linearGradient>
    <radialGradient id="glow-ember-arcanist-c36" cx="0" cy="0" r="1" gradientUnits="userSpaceOnUse" gradientTransform="translate(384.77 395.04) rotate(90) scale(203.10 203.10)">
      <stop stop-color="#ff8e2d" stop-opacity="0.45"/>
      <stop offset="1" stop-color="#ff8e2d" stop-opacity="0"/>
    </radialGradient>
    <linearGradient id="edge-ember-arcanist-c36" x1="0" y1="0" x2="768" y2="1024" gradientUnits="userSpaceOnUse">
      <stop stop-color="#ff8e2d" stop-opacity="0.85"/>
      <stop offset="1" stop-color="#ff5f7a" stop-opacity="0.85"/>
    </linearGradient>
  </defs>

  <rect x="0" y="0" width="768" height="1024" rx="32" fill="#060910"/>
  <rect x="16" y="16" width="736" height="992" rx="24" fill="url(#bg-ember-arcanist-c36)"/>
  <rect x="16" y="16" width="736" height="992" rx="24" fill="url(#glow-ember-arcanist-c36)"/>

  <g opacity="0.88">
    <circle cx="384" cy="552.96" r="70" fill="none" stroke="#ff5f7a" stroke-width="7" opacity="0.75"/><circle cx="384" cy="552.96" r="108" fill="none" stroke="#ff8e2d" stroke-width="3" opacity="0.63"/><circle cx="384" cy="552.96" r="146" fill="none" stroke="#ff5f7a" stroke-width="3" opacity="0.51"/><circle cx="384" cy="552.96" r="184" fill="none" stroke="#ff8e2d" stroke-width="3" opacity="0.39"/><path d="M344,552.96 L384,496.96000000000004 L424,552.96 L384,608.96 Z" fill="none" stroke="#ff5f7a" stroke-width="6" opacity="0.9"/>
  </g>

  <g opacity="0.8">
    <circle cx="154.30" cy="8.06" r="4.97" fill="#ff5f7a" opacity="0.40"/><circle cx="650.76" cy="203.35" r="3.82" fill="#ff8e2d" opacity="0.38"/><circle cx="687.00" cy="290.69" r="4.69" fill="#ff5f7a" opacity="0.29"/><circle cx="223.57" cy="893.95" r="3.75" fill="#ff8e2d" opacity="0.44"/><circle cx="321.70" cy="873.00" r="3.75" fill="#ff5f7a" opacity="0.54"/><circle cx="763.00" cy="801.27" r="2.82" fill="#ff8e2d" opacity="0.34"/><circle cx="393.57" cy="839.17" r="4.13" fill="#ff5f7a" opacity="0.61"/><circle cx="657.28" cy="345.62" r="1.88" fill="#ff8e2d" opacity="0.35"/><circle cx="158.50" cy="380.44" r="2.44" fill="#ff5f7a" opacity="0.54"/><circle cx="408.48" cy="311.26" r="2.05" fill="#ff8e2d" opacity="0.27"/><circle cx="735.81" cy="63.77" r="4.20" fill="#ff5f7a" opacity="0.61"/><circle cx="646.45" cy="649.08" r="3.11" fill="#ff8e2d" opacity="0.50"/><circle cx="546.12" cy="64.48" r="3.23" fill="#ff5f7a" opacity="0.47"/><circle cx="102.98" cy="182.11" r="1.57" fill="#ff8e2d" opacity="0.70"/><circle cx="217.98" cy="225.75" r="1.28" fill="#ff5f7a" opacity="0.54"/><circle cx="247.03" cy="300.49" r="4.15" fill="#ff8e2d" opacity="0.70"/><circle cx="534.66" cy="335.24" r="2.19" fill="#ff5f7a" opacity="0.73"/><circle cx="432.38" cy="920.15" r="4.93" fill="#ff8e2d" opacity="0.52"/><circle cx="413.81" cy="924.15" r="3.96" fill="#ff5f7a" opacity="0.60"/><circle cx="698.60" cy="710.53" r="2.55" fill="#ff8e2d" opacity="0.29"/><circle cx="577.83" cy="96.82" r="1.63" fill="#ff5f7a" opacity="0.39"/><circle cx="765.69" cy="753.20" r="4.25" fill="#ff8e2d" opacity="0.34"/><circle cx="752.94" cy="190.68" r="1.34" fill="#ff5f7a" opacity="0.50"/><circle cx="397.26" cy="102.66" r="2.10" fill="#ff8e2d" opacity="0.37"/><circle cx="702.85" cy="418.43" r="4.52" fill="#ff5f7a" opacity="0.65"/><circle cx="347.61" cy="252.20" r="3.87" fill="#ff8e2d" opacity="0.56"/><circle cx="648.63" cy="738.94" r="4.19" fill="#ff5f7a" opacity="0.55"/><circle cx="151.41" cy="33.84" r="2.70" fill="#ff8e2d" opacity="0.42"/>
  </g>

  <rect x="16" y="16" width="736" height="992" rx="24" stroke="url(#edge-ember-arcanist-c36)" stroke-width="2.5" opacity="0.85"/>
  <rect x="22" y="22" width="724" height="980" rx="20" stroke="#78d8ff" stroke-width="2" opacity="0.74"/>

  <rect x="34" y="34" width="700" height="72" rx="14" fill="#070b14" fill-opacity="0.72" stroke="#78d8ff" stroke-opacity="0.55"/>
  <text x="54" y="80" fill="#EAF4FF" font-family="Exo 2, Segoe UI, sans-serif" font-size="32" font-weight="700">Ember Arcanist</text>

  <rect x="34" y="872" width="700" height="92" rx="14" fill="#070b14" fill-opacity="0.74" stroke="#78d8ff" stroke-opacity="0.6"/>
  <text x="54" y="924" fill="#D9E7FF" font-family="Exo 2, Segoe UI, sans-serif" font-size="30" font-weight="600">Resource Surge</text>

  <rect x="598" y="36" width="118" height="42" rx="10" fill="#78d8ff" fill-opacity="0.2" stroke="#78d8ff" stroke-opacity="0.8"/>
  <text x="612" y="65" fill="#78d8ff" font-family="Exo 2, Segoe UI, sans-serif" font-size="20" font-weight="700">RARE</text>

  <circle cx="708" cy="954" r="26" fill="#080d18" stroke="#78d8ff" stroke-opacity="0.8"/>
  <text x="696" y="962" fill="#E7F2FF" font-family="Exo 2, Segoe UI, sans-serif" font-size="24" font-weight="700">36</text>
</svg>