<?xml version="1.0" encoding="UTF-8"?>
<svg width="768" height="1024" viewBox="0 0 768 1024" fill="none" xmlns="http://www.w3.org/2000/svg">
  <defs>
    <linearGradient id="bg-ember-arcanist-c29" x1="60" y1="40" x2="728" y2="1004" gradientUnits="userSpaceOnUse">
      <stop offset="0" stop-color="#25120a"/>
      <stop offset="0.55" stop-color="#8c2b12"/>
      <stop offset="1" stop-color="#25120a"/>
    </linearGradient>
    <radialGradient id="glow-ember-arcanist-c29" cx="0" cy="0" r="1" gradientUnits="userSpaceOnUse" gradientTransform="translate(316.67 263.40) rotate(90) scale(265.58 265.58)">
      <stop stop-color="#ff8e2d" stop-opacity="0.45"/>
      <stop offset="1" stop-color="#ff8e2d" stop-opacity="0"/>
    </radialGradient>
    <linearGradient id="edge-ember-arcanist-c29" x1="0" y1="0" x2="768" y2="1024" gradientUnits="userSpaceOnUse">
      <stop stop-color="#ff8e2d" stop-opacity="0.85"/>
      <stop offset="1" stop-color="#ff5f7a" stop-opacity="0.85"/>
    </linearGradient>
  </defs>

  <rect x="0" y="0" width="768" height="1024" rx="32" fill="#060910"/>
  <rect x="16" y="16" width="736" height="992" rx="24" fill="url(#bg-ember-arcanist-c29)"/>
  <rect x="16" y="16" width="736" height="992" rx="24" fill="url(#glow-ember-arcanist-c29)"/>

  <g opacity="0.88">
    <circle cx="384" cy="552.96" r="70" fill="none" stroke="#ff5f7a" stroke-width="7" opacity="0.75"/><circle cx="384" cy="552.96" r="108" fill="none" stroke="#ff8e2d" stroke-width="3" opacity="0.63"/><circle cx="384" cy="552.96" r="146" fill="none" stroke="#ff5f7a" stroke-width="3" opacity="0.51"/><circle cx="384" cy="552.96" r="184" fill="none" stroke="#ff8e2d" stroke-width="3" opacity="0.39"/><path d="M344,552.96 L384,496.96000000000004 L424,552.96 L384,608.96 Z" fill="none" stroke="#ff5f7a" stroke-width="6" opacity="0.9"/>
  </g>

  <g opacity="0.8">
    <circle cx="542.99" cy="736.75" r="3.62" fill="#ff5f7a" opacity="0.32"/><circle cx="125.21" cy="357.30" r="4.77" fill="#ff8e2d" opacity="0.43"/><circle cx="487.19" cy="676.21" r="2.30" fill="#ff5f7a" opacity="0.61"/><circle cx="246.75" cy="410.73" r="2.59" fill="#ff8e2d" opacity="0.55"/><circle cx="582.00" cy="524.94" r="3.76" fill="#ff5f7a" opacity="0.50"/><circle cx="113.73" cy="41.73" r="3.41" fill="#ff8e2d" opacity="0.54"/><circle cx="77.18" cy="992.12" r="3.26" fill="#ff5f7a" opacity="0.62"/><circle cx="491.66" cy="277.39" r="3.45" fill="#ff8e2d" opacity="0.58"/><circle cx="663.81" cy="513.55" r="3.57" fill="#ff5f7a" opacity="0.34"/><circle cx="530.46" cy="21.96" r="2.58" fill="#ff8e2d" opacity="0.68"/><circle cx="18.57" cy="165.04" r="3.93" fill="#ff5f7a" opacity="0.54"/><circle cx="532.90" cy="694.27" r="3.60" fill="#ff8e2d" opacity="0.63"/><circle cx="110.38" cy="484.63" r="2.96" fill="#ff5f7a" opacity="0.73"/><circle cx="269.08" cy="238.99" r="2.37" fill="#ff8e2d" opacity="0.36"/><circle cx="537.07" cy="866.75" r="3.36" fill="#ff5f7a" opacity="0.37"/><circle cx="156.45" cy="667.50" r="3.40" fill="#ff8e2d" opacity="0.67"/><circle cx="482.67" cy="455.71" r="1.94" fill="#ff5f7a" opacity="0.56"/><circle cx="149.74" cy="845.83" r="1.36" fill="#ff8e2d" opacity="0.65"/><circle cx="190.72" cy="968.93" r="1.45" fill="#ff5f7a" opacity="0.63"/><circle cx="363.53" cy="153.95" r="4.67" fill="#ff8e2d" opacity="0.53"/><circle cx="154.03" cy="104.93" r="1.33" fill="#ff5f7a" opacity="0.57"/><circle cx="269.27" cy="661.16" r="1.61" fill="#ff8e2d" opacity="0.47"/><circle cx="633.32" cy="162.53" r="2.87" fill="#ff5f7a" opacity="0.37"/><circle cx="648.55" cy="46.72" r="2.83" fill="#ff8e2d" opacity="0.72"/><circle cx="8.46" cy="769.06" r="3.42" fill="#ff5f7a" opacity="0.60"/><circle cx="483.11" cy="763.62" r="4.28" fill="#ff8e2d" opacity="0.46"/><circle cx="52.17" cy="488.95" r="2.80" fill="#ff5f7a" opacity="0.48"/><circle cx="457.70" cy="926.84" r="1.76" fill="#ff8e2d" opacity="0.74"/>
  </g>

  <rect x="16" y="16" width="736" height="992" rx="24" stroke="url(#edge-ember-arcanist-c29)" stroke-width="2.5" opacity="0.85"/>
  <rect x="22" y="22" width="724" height="980" rx="20" stroke="#8aa0c4" stroke-width="2" opacity="0.74"/>

  <rect x="34" y="34" width="700" height="72" rx="14" fill="#070b14" fill-opacity="0.72" stroke="#8aa0c4" stroke-opacity="0.55"/>
  <text x="54" y="80" fill="#EAF4FF" font-family="Exo 2, Segoe UI, sans-serif" font-size="32" font-weight="700">Ember Arcanist</text>

  <rect x="34" y="872" width="700" height="92" rx="14" fill="#070b14" fill-opacity="0.74" stroke="#8aa0c4" stroke-opacity="0.6"/>
  <text x="54" y="924" fill="#D9E7FF" font-family="Exo 2, Segoe UI, sans-serif" font-size="30" font-weight="600">Frontline Prime</text>

  <rect x="598" y="36" width="118" height="42" rx="10" fill="#8aa0c4" fill-opacity="0.2" stroke="#8aa0c4" stroke-opacity="0.8"/>
  <text x="612" y="65" fill="#8aa0c4" font-family="Exo 2, Segoe UI, sans-serif" font-size="20" font-weight="700">COMMON</text>

  <circle cx="708" cy="954" r="26" fill="#080d18" stroke="#8aa0c4" stroke-opacity="0.8"/>
  <text x="696" y="962" fill="#E7F2FF" font-family="Exo 2, Segoe UI, sans-serif" font-size="24" font-weight="700">29</text>
</svg>