<?xml version="1.0" encoding="UTF-8"?>
<svg width="768" height="1024" viewBox="0 0 768 1024" fill="none" xmlns="http://www.w3.org/2000/svg">
  <defs>
    <linearGradient id="bg-ember-arcanist-c25" x1="60" y1="40" x2="728" y2="1004" gradientUnits="userSpaceOnUse">
      <stop offset="0" stop-color="#25120a"/>
      <stop offset="0.55" stop-color="#8c2b12"/>
      <stop offset="1" stop-color="#25120a"/>
    </linearGradient>
    <radialGradient id="glow-ember-arcanist-c25" cx="0" cy="0" r="1" gradientUnits="userSpaceOnUse" gradientTransform="translate(594.97 285.94) rotate(90) scale(255.29 255.29)">
      <stop stop-color="#ff8e2d" stop-opacity="0.45"/>
      <stop offset="1" stop-color="#ff8e2d" stop-opacity="0"/>
    </radialGradient>
    <linearGradient id="edge-ember-arcanist-c25" x1="0" y1="0" x2="768" y2="1024" gradientUnits="userSpaceOnUse">
      <stop stop-color="#ff8e2d" stop-opacity="0.85"/>
      <stop offset="1" stop-color="#ff5f7a" stop-opacity="0.85"/>
    </linearGradient>
  </defs>

  <rect x="0" y="0" width="768" height="1024" rx="32" fill="#060910"/>
  <rect x="16" y="16" width="736" height="992" rx="24" fill="url(#bg-ember-arcanist-c25)"/>
  <rect x="16" y="16" width="736" height="992" rx="24" fill="url(#glow-ember-arcanist-c25)"/>

  <g opacity="0.88">
    <circle cx="384" cy="552.96" r="70" fill="none" stroke="#ff5f7a" stroke-width="7" opacity="0.75"/><circle cx="384" cy="552.96" r="108" fill="none" stroke="#ff8e2d" stroke-width="3" opacity="0.63"/><circle cx="384" cy="552.96" r="146" fill="none" stroke="#ff5f7a" stroke-width="3" opacity="0.51"/><circle cx="384" cy="552.96" r="184" fill="none" stroke="#ff8e2d" stroke-width="3" opacity="0.39"/><path d="M344,552.96 L384,496.96000000000004 L424,552.96 L384,608.96 Z" fill="none" stroke="#ff5f7a" stroke-width="6" opacity="0.9"/>
  </g>

  <g opacity="0.8">
    <circle cx="115.04" cy="724.64" r="2.05" fill="#ff5f7a" opacity="0.26"/><circle cx="265.09" cy="742.58" r="2.91" fill="#ff8e2d" opacity="0.60"/><circle cx="739.58" cy="931.35" r="2.64" fill="#ff5f7a" opacity="0.30"/><circle cx="520.74" cy="500.40" r="3.09" fill="#ff8e2d" opacity="0.30"/><circle cx="489.21" cy="205.77" r="1.50" fill="#ff5f7a" opacity="0.36"/><circle cx="660.15" cy="874.07" r="3.59" fill="#ff8e2d" opacity="0.34"/><circle cx="235.15" cy="665.87" r="3.02" fill="#ff5f7a" opacity="0.38"/><circle cx="129.27" cy="65.49" r="2.28" fill="#ff8e2d" opacity="0.52"/><circle cx="354.25" cy="498.39" r="3.75" fill="#ff5f7a" opacity="0.35"/><circle cx="133.71" cy="863.74" r="2.22" fill="#ff8e2d" opacity="0.47"/><circle cx="369.18" cy="689.18" r="2.42" fill="#ff5f7a" opacity="0.53"/><circle cx="399.27" cy="594.51" r="2.81" fill="#ff8e2d" opacity="0.66"/><circle cx="285.89" cy="948.84" r="3.61" fill="#ff5f7a" opacity="0.26"/><circle cx="247.41" cy="307.11" r="2.55" fill="#ff8e2d" opacity="0.27"/><circle cx="42.74" cy="1020.54" r="3.41" fill="#ff5f7a" opacity="0.51"/><circle cx="563.80" cy="434.89" r="4.70" fill="#ff8e2d" opacity="0.64"/><circle cx="184.20" cy="227.43" r="3.88" fill="#ff5f7a" opacity="0.51"/><circle cx="415.70" cy="433.51" r="1.59" fill="#ff8e2d" opacity="0.61"/><circle cx="524.57" cy="498.65" r="1.79" fill="#ff5f7a" opacity="0.66"/><circle cx="403.31" cy="908.83" r="4.86" fill="#ff8e2d" opacity="0.36"/><circle cx="205.33" cy="393.76" r="4.49" fill="#ff5f7a" opacity="0.32"/><circle cx="638.78" cy="254.19" r="4.25" fill="#ff8e2d" opacity="0.36"/><circle cx="210.63" cy="641.48" r="3.74" fill="#ff5f7a" opacity="0.34"/><circle cx="41.51" cy="588.05" r="3.68" fill="#ff8e2d" opacity="0.47"/><circle cx="0.68" cy="117.12" r="2.35" fill="#ff5f7a" opacity="0.31"/><circle cx="54.37" cy="633.63" r="3.76" fill="#ff8e2d" opacity="0.40"/><circle cx="181.01" cy="832.99" r="4.85" fill="#ff5f7a" opacity="0.62"/><circle cx="240.05" cy="803.03" r="1.27" fill="#ff8e2d" opacity="0.31"/>
  </g>

  <rect x="16" y="16" width="736" height="992" rx="24" stroke="url(#edge-ember-arcanist-c25)" stroke-width="2.5" opacity="0.85"/>
  <rect x="22" y="22" width="724" height="980" rx="20" stroke="#8aa0c4" stroke-width="2" opacity="0.74"/>

  <rect x="34" y="34" width="700" height="72" rx="14" fill="#070b14" fill-opacity="0.72" stroke="#8aa0c4" stroke-opacity="0.55"/>
  <text x="54" y="80" fill="#EAF4FF" font-family="Exo 2, Segoe UI, sans-serif" font-size="32" font-weight="700">Ember Arcanist</text>

  <rect x="34" y="872" width="700" height="92" rx="14" fill="#070b14" fill-opacity="0.74" stroke="#8aa0c4" stroke-opacity="0.6"/>
  <text x="54" y="924" fill="#D9E7FF" font-family="Exo 2, Segoe UI, sans-serif" font-size="30" font-weight="600">Executioner</text>

  <rect x="598" y="36" width="118" height="42" rx="10" fill="#8aa0c4" fill-opacity="0.2" stroke="#8aa0c4" stroke-opacity="0.8"/>
  <text x="612" y="65" fill="#8aa0c4" font-family="Exo 2, Segoe UI, sans-serif" font-size="20" font-weight="700">COMMON</text>

  <circle cx="708" cy="954" r="26" fill="#080d18" stroke="#8aa0c4" stroke-opacity="0.8"/>
  <text x="696" y="962" fill="#E7F2FF" font-family="Exo 2, Segoe UI, sans-serif" font-size="24" font-weight="700">25</text>
</svg>