<?xml version="1.0" encoding="UTF-8"?>
<svg width="768" height="1024" viewBox="0 0 768 1024" fill="none" xmlns="http://www.w3.org/2000/svg">
  <defs>
    <linearGradient id="bg-ember-arcanist-c45" x1="60" y1="40" x2="728" y2="1004" gradientUnits="userSpaceOnUse">
      <stop offset="0" stop-color="#25120a"/>
      <stop offset="0.55" stop-color="#8c2b12"/>
      <stop offset="1" stop-color="#25120a"/>
    </linearGradient>
    <radialGradient id="glow-ember-arcanist-c45" cx="0" cy="0" r="1" gradientUnits="userSpaceOnUse" gradientTransform="translate(485.24 284.33) rotate(90) scale(237.81 237.81)">
      <stop stop-color="#ff8e2d" stop-opacity="0.45"/>
      <stop offset="1" stop-color="#ff8e2d" stop-opacity="0"/>
    </radialGradient>
    <linearGradient id="edge-ember-arcanist-c45" x1="0" y1="0" x2="768" y2="1024" gradientUnits="userSpaceOnUse">
      <stop stop-color="#ff8e2d" stop-opacity="0.85"/>
      <stop offset="1" stop-color="#ff5f7a" stop-opacity="0.85"/>
    </linearGradient>
  </defs>

  <rect x="0" y="0" width="768" height="1024" rx="32" fill="#060910"/>
  <rect x="16" y="16" width="736" height="992" rx="24" fill="url(#bg-ember-arcanist-c45)"/>
  <rect x="16" y="16" width="736" height="992" rx="24" fill="url(#glow-ember-arcanist-c45)"/>

  <g opacity="0.88">
    <circle cx="384" cy="552.96" r="70" fill="none" stroke="#ff5f7a" stroke-width="7" opacity="0.75"/><circle cx="384" cy="552.96" r="108" fill="none" stroke="#ff8e2d" stroke-width="3" opacity="0.63"/><circle cx="384" cy="552.96" r="146" fill="none" stroke="#ff5f7a" stroke-width="3" opacity="0.51"/><circle cx="384" cy="552.96" r="184" fill="none" stroke="#ff8e2d" stroke-width="3" opacity="0.39"/><path d="M344,552.96 L384,496.96000000000004 L424,552.96 L384,608.96 Z" fill="none" stroke="#ff5f7a" stroke-width="6" opacity="0.9"/>
  </g>

  <g opacity="0.8">
    <circle cx="324.03" cy="936.29" r="1.32" fill="#ff5f7a" opacity="0.25"/><circle cx="392.47" cy="392.38" r="2.46" fill="#ff8e2d" opacity="0.68"/><circle cx="598.03" cy="1011.57" r="3.64" fill="#ff5f7a" opacity="0.53"/><circle cx="265.27" cy="927.38" r="3.13" fill="#ff8e2d" opacity="0.74"/><circle cx="136.52" cy="564.16" r="2.48" fill="#ff5f7a" opacity="0.72"/><circle cx="71.42" cy="289.60" r="3.05" fill="#ff8e2d" opacity="0.67"/><circle cx="195.46" cy="414.14" r="2.71" fill="#ff5f7a" opacity="0.47"/><circle cx="540.99" cy="820.38" r="2.65" fill="#ff8e2d" opacity="0.49"/><circle cx="287.04" cy="302.55" r="1.91" fill="#ff5f7a" opacity="0.26"/><circle cx="524.07" cy="800.01" r="1.83" fill="#ff8e2d" opacity="0.70"/><circle cx="358.46" cy="160.85" r="2.11" fill="#ff5f7a" opacity="0.54"/><circle cx="666.54" cy="374.34" r="2.85" fill="#ff8e2d" opacity="0.37"/><circle cx="580.19" cy="226.06" r="4.83" fill="#ff5f7a" opacity="0.62"/><circle cx="431.75" cy="928.40" r="3.62" fill="#ff8e2d" opacity="0.55"/><circle cx="486.30" cy="813.14" r="1.38" fill="#ff5f7a" opacity="0.53"/><circle cx="34.69" cy="56.09" r="4.73" fill="#ff8e2d" opacity="0.61"/><circle cx="50.10" cy="796.34" r="1.44" fill="#ff5f7a" opacity="0.72"/><circle cx="234.64" cy="814.34" r="1.56" fill="#ff8e2d" opacity="0.33"/><circle cx="174.88" cy="773.56" r="3.29" fill="#ff5f7a" opacity="0.53"/><circle cx="329.24" cy="525.36" r="4.57" fill="#ff8e2d" opacity="0.71"/><circle cx="457.44" cy="330.46" r="2.86" fill="#ff5f7a" opacity="0.62"/><circle cx="191.66" cy="287.93" r="1.61" fill="#ff8e2d" opacity="0.26"/><circle cx="606.04" cy="144.51" r="4.04" fill="#ff5f7a" opacity="0.50"/><circle cx="14.51" cy="233.53" r="1.73" fill="#ff8e2d" opacity="0.31"/><circle cx="442.01" cy="181.36" r="4.55" fill="#ff5f7a" opacity="0.57"/><circle cx="450.21" cy="619.18" r="1.54" fill="#ff8e2d" opacity="0.48"/><circle cx="78.71" cy="747.38" r="4.42" fill="#ff5f7a" opacity="0.50"/><circle cx="436.30" cy="625.48" r="3.04" fill="#ff8e2d" opacity="0.59"/>
  </g>

  <rect x="16" y="16" width="736" height="992" rx="24" stroke="url(#edge-ember-arcanist-c45)" stroke-width="2.5" opacity="0.85"/>
  <rect x="22" y="22" width="724" height="980" rx="20" stroke="#f0a0ff" stroke-width="2" opacity="0.74"/>

  <rect x="34" y="34" width="700" height="72" rx="14" fill="#070b14" fill-opacity="0.72" stroke="#f0a0ff" stroke-opacity="0.55"/>
  <text x="54" y="80" fill="#EAF4FF" font-family="Exo 2, Segoe UI, sans-serif" font-size="32" font-weight="700">Ember Arcanist</text>

  <rect x="34" y="872" width="700" height="92" rx="14" fill="#070b14" fill-opacity="0.74" stroke="#f0a0ff" stroke-opacity="0.6"/>
  <text x="54" y="924" fill="#D9E7FF" font-family="Exo 2, Segoe UI, sans-serif" font-size="30" font-weight="600">Epic Summon</text>

  <rect x="598" y="36" width="118" height="42" rx="10" fill="#f0a0ff" fill-opacity="0.2" stroke="#f0a0ff" stroke-opacity="0.8"/>
  <text x="612" y="65" fill="#f0a0ff" font-family="Exo 2, Segoe UI, sans-serif" font-size="20" font-weight="700">EPIC</text>

  <circle cx="708" cy="954" r="26" fill="#080d18" stroke="#f0a0ff" stroke-opacity="0.8"/>
  <text x="696" y="962" fill="#E7F2FF" font-family="Exo 2, Segoe UI, sans-serif" font-size="24" font-weight="700">45</text>
</svg>