<?xml version="1.0" encoding="UTF-8"?>
<svg width="768" height="1024" viewBox="0 0 768 1024" fill="none" xmlns="http://www.w3.org/2000/svg">
  <defs>
    <linearGradient id="bg-ember-arcanist-c13" x1="60" y1="40" x2="728" y2="1004" gradientUnits="userSpaceOnUse">
      <stop offset="0" stop-color="#25120a"/>
      <stop offset="0.55" stop-color="#8c2b12"/>
      <stop offset="1" stop-color="#25120a"/>
    </linearGradient>
    <radialGradient id="glow-ember-arcanist-c13" cx="0" cy="0" r="1" gradientUnits="userSpaceOnUse" gradientTransform="translate(283.53 284.45) rotate(90) scale(286.29 286.29)">
      <stop stop-color="#ff8e2d" stop-opacity="0.45"/>
      <stop offset="1" stop-color="#ff8e2d" stop-opacity="0"/>
    </radialGradient>
    <linearGradient id="edge-ember-arcanist-c13" x1="0" y1="0" x2="768" y2="1024" gradientUnits="userSpaceOnUse">
      <stop stop-color="#ff8e2d" stop-opacity="0.85"/>
      <stop offset="1" stop-color="#ff5f7a" stop-opacity="0.85"/>
    </linearGradient>
  </defs>

  <rect x="0" y="0" width="768" height="1024" rx="32" fill="#060910"/>
  <rect x="16" y="16" width="736" height="992" rx="24" fill="url(#bg-ember-arcanist-c13)"/>
  <rect x="16" y="16" width="736" height="992" rx="24" fill="url(#glow-ember-arcanist-c13)"/>

  <g opacity="0.88">
    <circle cx="384" cy="552.96" r="70" fill="none" stroke="#ff5f7a" stroke-width="7" opacity="0.75"/><circle cx="384" cy="552.96" r="108" fill="none" stroke="#ff8e2d" stroke-width="3" opacity="0.63"/><circle cx="384" cy="552.96" r="146" fill="none" stroke="#ff5f7a" stroke-width="3" opacity="0.51"/><circle cx="384" cy="552.96" r="184" fill="none" stroke="#ff8e2d" stroke-width="3" opacity="0.39"/><path d="M344,552.96 L384,496.96000000000004 L424,552.96 L384,608.96 Z" fill="none" stroke="#ff5f7a" stroke-width="6" opacity="0.9"/>
  </g>

  <g opacity="0.8">
    <circle cx="351.45" cy="873.95" r="4.83" fill="#ff5f7a" opacity="0.66"/><circle cx="301.08" cy="672.32" r="3.96" fill="#ff8e2d" opacity="0.66"/><circle cx="261.01" cy="697.68" r="4.31" fill="#ff5f7a" opacity="0.42"/><circle cx="494.08" cy="133.25" r="3.80" fill="#ff8e2d" opacity="0.68"/><circle cx="381.21" cy="102.80" r="2.93" fill="#ff5f7a" opacity="0.54"/><circle cx="177.36" cy="726.36" r="4.17" fill="#ff8e2d" opacity="0.47"/><circle cx="690.08" cy="204.66" r="4.34" fill="#ff5f7a" opacity="0.37"/><circle cx="421.22" cy="33.79" r="4.47" fill="#ff8e2d" opacity="0.56"/><circle cx="652.33" cy="568.79" r="1.45" fill="#ff5f7a" opacity="0.48"/><circle cx="30.30" cy="370.89" r="2.00" fill="#ff8e2d" opacity="0.67"/><circle cx="202.92" cy="565.97" r="1.47" fill="#ff5f7a" opacity="0.67"/><circle cx="247.32" cy="807.25" r="3.57" fill="#ff8e2d" opacity="0.34"/><circle cx="512.95" cy="465.57" r="4.67" fill="#ff5f7a" opacity="0.64"/><circle cx="519.27" cy="456.46" r="3.70" fill="#ff8e2d" opacity="0.70"/><circle cx="432.38" cy="401.67" r="2.32" fill="#ff5f7a" opacity="0.55"/><circle cx="151.22" cy="768.91" r="2.32" fill="#ff8e2d" opacity="0.57"/><circle cx="45.06" cy="14.72" r="3.61" fill="#ff5f7a" opacity="0.69"/><circle cx="306.22" cy="47.73" r="2.98" fill="#ff8e2d" opacity="0.56"/><circle cx="660.95" cy="663.00" r="3.42" fill="#ff5f7a" opacity="0.32"/><circle cx="535.28" cy="659.15" r="4.18" fill="#ff8e2d" opacity="0.26"/><circle cx="365.59" cy="791.86" r="1.61" fill="#ff5f7a" opacity="0.69"/><circle cx="112.31" cy="391.37" r="3.18" fill="#ff8e2d" opacity="0.55"/><circle cx="569.07" cy="911.96" r="2.32" fill="#ff5f7a" opacity="0.61"/><circle cx="648.16" cy="982.52" r="2.82" fill="#ff8e2d" opacity="0.43"/><circle cx="179.28" cy="242.86" r="1.70" fill="#ff5f7a" opacity="0.63"/><circle cx="120.75" cy="558.06" r="1.49" fill="#ff8e2d" opacity="0.67"/><circle cx="108.45" cy="181.08" r="1.39" fill="#ff5f7a" opacity="0.26"/><circle cx="39.09" cy="287.35" r="1.92" fill="#ff8e2d" opacity="0.65"/>
  </g>

  <rect x="16" y="16" width="736" height="992" rx="24" stroke="url(#edge-ember-arcanist-c13)" stroke-width="2.5" opacity="0.85"/>
  <rect x="22" y="22" width="724" height="980" rx="20" stroke="#8aa0c4" stroke-width="2" opacity="0.74"/>

  <rect x="34" y="34" width="700" height="72" rx="14" fill="#070b14" fill-opacity="0.72" stroke="#8aa0c4" stroke-opacity="0.55"/>
  <text x="54" y="80" fill="#EAF4FF" font-family="Exo 2, Segoe UI, sans-serif" font-size="32" font-weight="700">Ember Arcanist</text>

  <rect x="34" y="872" width="700" height="92" rx="14" fill="#070b14" fill-opacity="0.74" stroke="#8aa0c4" stroke-opacity="0.6"/>
  <text x="54" y="924" fill="#D9E7FF" font-family="Exo 2, Segoe UI, sans-serif" font-size="30" font-weight="600">Ambusher</text>

  <rect x="598" y="36" width="118" height="42" rx="10" fill="#8aa0c4" fill-opacity="0.2" stroke="#8aa0c4" stroke-opacity="0.8"/>
  <text x="612" y="65" fill="#8aa0c4" font-family="Exo 2, Segoe UI, sans-serif" font-size="20" font-weight="700">COMMON</text>

  <circle cx="708" cy="954" r="26" fill="#080d18" stroke="#8aa0c4" stroke-opacity="0.8"/>
  <text x="696" y="962" fill="#E7F2FF" font-family="Exo 2, Segoe UI, sans-serif" font-size="24" font-weight="700">13</text>
</svg>