<?xml version="1.0" encoding="UTF-8"?>
<svg width="768" height="1024" viewBox="0 0 768 1024" fill="none" xmlns="http://www.w3.org/2000/svg">
  <defs>
    <linearGradient id="bg-ember-arcanist-c12" x1="60" y1="40" x2="728" y2="1004" gradientUnits="userSpaceOnUse">
      <stop offset="0" stop-color="#25120a"/>
      <stop offset="0.55" stop-color="#8c2b12"/>
      <stop offset="1" stop-color="#25120a"/>
    </linearGradient>
    <radialGradient id="glow-ember-arcanist-c12" cx="0" cy="0" r="1" gradientUnits="userSpaceOnUse" gradientTransform="translate(426.70 630.65) rotate(90) scale(204.80 204.80)">
      <stop stop-color="#ff8e2d" stop-opacity="0.45"/>
      <stop offset="1" stop-color="#ff8e2d" stop-opacity="0"/>
    </radialGradient>
    <linearGradient id="edge-ember-arcanist-c12" x1="0" y1="0" x2="768" y2="1024" gradientUnits="userSpaceOnUse">
      <stop stop-color="#ff8e2d" stop-opacity="0.85"/>
      <stop offset="1" stop-color="#ff5f7a" stop-opacity="0.85"/>
    </linearGradient>
  </defs>

  <rect x="0" y="0" width="768" height="1024" rx="32" fill="#060910"/>
  <rect x="16" y="16" width="736" height="992" rx="24" fill="url(#bg-ember-arcanist-c12)"/>
  <rect x="16" y="16" width="736" height="992" rx="24" fill="url(#glow-ember-arcanist-c12)"/>

  <g opacity="0.88">
    <circle cx="384" cy="552.96" r="70" fill="none" stroke="#ff5f7a" stroke-width="7" opacity="0.75"/><circle cx="384" cy="552.96" r="108" fill="none" stroke="#ff8e2d" stroke-width="3" opacity="0.63"/><circle cx="384" cy="552.96" r="146" fill="none" stroke="#ff5f7a" stroke-width="3" opacity="0.51"/><circle cx="384" cy="552.96" r="184" fill="none" stroke="#ff8e2d" stroke-width="3" opacity="0.39"/><path d="M344,552.96 L384,496.96000000000004 L424,552.96 L384,608.96 Z" fill="none" stroke="#ff5f7a" stroke-width="6" opacity="0.9"/>
  </g>

  <g opacity="0.8">
    <circle cx="118.34" cy="228.80" r="1.47" fill="#ff5f7a" opacity="0.43"/><circle cx="334.92" cy="692.13" r="2.28" fill="#ff8e2d" opacity="0.60"/><circle cx="623.56" cy="503.29" r="4.38" fill="#ff5f7a" opacity="0.64"/><circle cx="390.52" cy="615.06" r="3.38" fill="#ff8e2d" opacity="0.62"/><circle cx="588.39" cy="29.51" r="1.87" fill="#ff5f7a" opacity="0.45"/><circle cx="716.84" cy="777.84" r="3.41" fill="#ff8e2d" opacity="0.71"/><circle cx="558.61" cy="1005.66" r="2.98" fill="#ff5f7a" opacity="0.52"/><circle cx="197.47" cy="513.03" r="4.70" fill="#ff8e2d" opacity="0.37"/><circle cx="653.65" cy="648.81" r="3.85" fill="#ff5f7a" opacity="0.72"/><circle cx="483.92" cy="228.80" r="4.35" fill="#ff8e2d" opacity="0.36"/><circle cx="67.60" cy="646.05" r="2.36" fill="#ff5f7a" opacity="0.59"/><circle cx="86.17" cy="317.87" r="4.63" fill="#ff8e2d" opacity="0.72"/><circle cx="643.04" cy="718.48" r="4.17" fill="#ff5f7a" opacity="0.62"/><circle cx="416.62" cy="741.15" r="3.61" fill="#ff8e2d" opacity="0.43"/><circle cx="670.58" cy="683.20" r="3.73" fill="#ff5f7a" opacity="0.27"/><circle cx="23.09" cy="373.97" r="4.71" fill="#ff8e2d" opacity="0.66"/><circle cx="593.80" cy="559.23" r="3.52" fill="#ff5f7a" opacity="0.55"/><circle cx="194.24" cy="94.31" r="2.54" fill="#ff8e2d" opacity="0.68"/><circle cx="360.49" cy="993.28" r="4.29" fill="#ff5f7a" opacity="0.29"/><circle cx="362.93" cy="362.42" r="2.06" fill="#ff8e2d" opacity="0.66"/><circle cx="498.98" cy="753.74" r="2.19" fill="#ff5f7a" opacity="0.28"/><circle cx="147.62" cy="46.13" r="3.07" fill="#ff8e2d" opacity="0.47"/><circle cx="687.49" cy="45.32" r="4.30" fill="#ff5f7a" opacity="0.36"/><circle cx="57.86" cy="393.12" r="2.70" fill="#ff8e2d" opacity="0.59"/><circle cx="529.50" cy="455.80" r="2.86" fill="#ff5f7a" opacity="0.50"/><circle cx="494.66" cy="343.23" r="1.47" fill="#ff8e2d" opacity="0.39"/><circle cx="709.54" cy="457.72" r="3.94" fill="#ff5f7a" opacity="0.71"/><circle cx="562.57" cy="998.53" r="1.25" fill="#ff8e2d" opacity="0.66"/>
  </g>

  <rect x="16" y="16" width="736" height="992" rx="24" stroke="url(#edge-ember-arcanist-c12)" stroke-width="2.5" opacity="0.85"/>
  <rect x="22" y="22" width="724" height="980" rx="20" stroke="#8aa0c4" stroke-width="2" opacity="0.74"/>

  <rect x="34" y="34" width="700" height="72" rx="14" fill="#070b14" fill-opacity="0.72" stroke="#8aa0c4" stroke-opacity="0.55"/>
  <text x="54" y="80" fill="#EAF4FF" font-family="Exo 2, Segoe UI, sans-serif" font-size="32" font-weight="700">Ember Arcanist</text>

  <rect x="34" y="872" width="700" height="92" rx="14" fill="#070b14" fill-opacity="0.74" stroke="#8aa0c4" stroke-opacity="0.6"/>
  <text x="54" y="924" fill="#D9E7FF" font-family="Exo 2, Segoe UI, sans-serif" font-size="30" font-weight="600">Hazard Binder</text>

  <rect x="598" y="36" width="118" height="42" rx="10" fill="#8aa0c4" fill-opacity="0.2" stroke="#8aa0c4" stroke-opacity="0.8"/>
  <text x="612" y="65" fill="#8aa0c4" font-family="Exo 2, Segoe UI, sans-serif" font-size="20" font-weight="700">COMMON</text>

  <circle cx="708" cy="954" r="26" fill="#080d18" stroke="#8aa0c4" stroke-opacity="0.8"/>
  <text x="696" y="962" fill="#E7F2FF" font-family="Exo 2, Segoe UI, sans-serif" font-size="24" font-weight="700">12</text>
</svg>