<?xml version="1.0" encoding="UTF-8"?>
<svg width="768" height="1024" viewBox="0 0 768 1024" fill="none" xmlns="http://www.w3.org/2000/svg">
  <defs>
    <linearGradient id="bg-ember-arcanist-c21" x1="60" y1="40" x2="728" y2="1004" gradientUnits="userSpaceOnUse">
      <stop offset="0" stop-color="#25120a"/>
      <stop offset="0.55" stop-color="#8c2b12"/>
      <stop offset="1" stop-color="#25120a"/>
    </linearGradient>
    <radialGradient id="glow-ember-arcanist-c21" cx="0" cy="0" r="1" gradientUnits="userSpaceOnUse" gradientTransform="translate(124.72 404.86) rotate(90) scale(182.55 182.55)">
      <stop stop-color="#ff8e2d" stop-opacity="0.45"/>
      <stop offset="1" stop-color="#ff8e2d" stop-opacity="0"/>
    </radialGradient>
    <linearGradient id="edge-ember-arcanist-c21" x1="0" y1="0" x2="768" y2="1024" gradientUnits="userSpaceOnUse">
      <stop stop-color="#ff8e2d" stop-opacity="0.85"/>
      <stop offset="1" stop-color="#ff5f7a" stop-opacity="0.85"/>
    </linearGradient>
  </defs>

  <rect x="0" y="0" width="768" height="1024" rx="32" fill="#060910"/>
  <rect x="16" y="16" width="736" height="992" rx="24" fill="url(#bg-ember-arcanist-c21)"/>
  <rect x="16" y="16" width="736" height="992" rx="24" fill="url(#glow-ember-arcanist-c21)"/>

  <g opacity="0.88">
    <circle cx="384" cy="552.96" r="70" fill="none" stroke="#ff5f7a" stroke-width="7" opacity="0.75"/><circle cx="384" cy="552.96" r="108" fill="none" stroke="#ff8e2d" stroke-width="3" opacity="0.63"/><circle cx="384" cy="552.96" r="146" fill="none" stroke="#ff5f7a" stroke-width="3" opacity="0.51"/><circle cx="384" cy="552.96" r="184" fill="none" stroke="#ff8e2d" stroke-width="3" opacity="0.39"/><path d="M344,552.96 L384,496.96000000000004 L424,552.96 L384,608.96 Z" fill="none" stroke="#ff5f7a" stroke-width="6" opacity="0.9"/>
  </g>

  <g opacity="0.8">
    <circle cx="703.99" cy="499.77" r="3.61" fill="#ff5f7a" opacity="0.73"/><circle cx="33.99" cy="798.20" r="4.39" fill="#ff8e2d" opacity="0.49"/><circle cx="371.64" cy="530.94" r="2.62" fill="#ff5f7a" opacity="0.39"/><circle cx="717.60" cy="947.99" r="3.97" fill="#ff8e2d" opacity="0.41"/><circle cx="225.40" cy="364.99" r="2.13" fill="#ff5f7a" opacity="0.47"/><circle cx="144.95" cy="432.56" r="4.18" fill="#ff8e2d" opacity="0.58"/><circle cx="702.88" cy="503.91" r="3.48" fill="#ff5f7a" opacity="0.56"/><circle cx="32.21" cy="6.28" r="3.37" fill="#ff8e2d" opacity="0.56"/><circle cx="530.96" cy="800.11" r="2.56" fill="#ff5f7a" opacity="0.61"/><circle cx="308.01" cy="180.33" r="4.45" fill="#ff8e2d" opacity="0.68"/><circle cx="113.57" cy="398.78" r="2.78" fill="#ff5f7a" opacity="0.26"/><circle cx="210.82" cy="1007.25" r="3.22" fill="#ff8e2d" opacity="0.71"/><circle cx="92.61" cy="428.86" r="2.16" fill="#ff5f7a" opacity="0.60"/><circle cx="137.54" cy="464.85" r="3.15" fill="#ff8e2d" opacity="0.53"/><circle cx="195.51" cy="313.15" r="1.29" fill="#ff5f7a" opacity="0.66"/><circle cx="64.70" cy="20.13" r="1.58" fill="#ff8e2d" opacity="0.52"/><circle cx="725.07" cy="30.01" r="3.92" fill="#ff5f7a" opacity="0.65"/><circle cx="527.37" cy="971.15" r="1.94" fill="#ff8e2d" opacity="0.73"/><circle cx="698.06" cy="693.82" r="3.48" fill="#ff5f7a" opacity="0.27"/><circle cx="404.40" cy="500.02" r="1.87" fill="#ff8e2d" opacity="0.42"/><circle cx="347.37" cy="547.59" r="2.17" fill="#ff5f7a" opacity="0.36"/><circle cx="148.24" cy="168.21" r="1.85" fill="#ff8e2d" opacity="0.48"/><circle cx="456.09" cy="617.56" r="4.21" fill="#ff5f7a" opacity="0.68"/><circle cx="246.58" cy="237.85" r="4.17" fill="#ff8e2d" opacity="0.61"/><circle cx="481.88" cy="674.27" r="4.30" fill="#ff5f7a" opacity="0.51"/><circle cx="58.05" cy="638.71" r="2.08" fill="#ff8e2d" opacity="0.58"/><circle cx="309.10" cy="485.75" r="3.70" fill="#ff5f7a" opacity="0.42"/><circle cx="297.51" cy="777.08" r="2.11" fill="#ff8e2d" opacity="0.45"/>
  </g>

  <rect x="16" y="16" width="736" height="992" rx="24" stroke="url(#edge-ember-arcanist-c21)" stroke-width="2.5" opacity="0.85"/>
  <rect x="22" y="22" width="724" height="980" rx="20" stroke="#8aa0c4" stroke-width="2" opacity="0.74"/>

  <rect x="34" y="34" width="700" height="72" rx="14" fill="#070b14" fill-opacity="0.72" stroke="#8aa0c4" stroke-opacity="0.55"/>
  <text x="54" y="80" fill="#EAF4FF" font-family="Exo 2, Segoe UI, sans-serif" font-size="32" font-weight="700">Ember Arcanist</text>

  <rect x="34" y="872" width="700" height="92" rx="14" fill="#070b14" fill-opacity="0.74" stroke="#8aa0c4" stroke-opacity="0.6"/>
  <text x="54" y="924" fill="#D9E7FF" font-family="Exo 2, Segoe UI, sans-serif" font-size="30" font-weight="600">Field Marshal</text>

  <rect x="598" y="36" width="118" height="42" rx="10" fill="#8aa0c4" fill-opacity="0.2" stroke="#8aa0c4" stroke-opacity="0.8"/>
  <text x="612" y="65" fill="#8aa0c4" font-family="Exo 2, Segoe UI, sans-serif" font-size="20" font-weight="700">COMMON</text>

  <circle cx="708" cy="954" r="26" fill="#080d18" stroke="#8aa0c4" stroke-opacity="0.8"/>
  <text x="696" y="962" fill="#E7F2FF" font-family="Exo 2, Segoe UI, sans-serif" font-size="24" font-weight="700">21</text>
</svg>