<?xml version="1.0" encoding="UTF-8"?>
<svg width="768" height="1024" viewBox="0 0 768 1024" fill="none" xmlns="http://www.w3.org/2000/svg">
  <defs>
    <linearGradient id="bg-ember-arcanist-c28" x1="60" y1="40" x2="728" y2="1004" gradientUnits="userSpaceOnUse">
      <stop offset="0" stop-color="#25120a"/>
      <stop offset="0.55" stop-color="#8c2b12"/>
      <stop offset="1" stop-color="#25120a"/>
    </linearGradient>
    <radialGradient id="glow-ember-arcanist-c28" cx="0" cy="0" r="1" gradientUnits="userSpaceOnUse" gradientTransform="translate(624.08 652.71) rotate(90) scale(217.83 217.83)">
      <stop stop-color="#ff8e2d" stop-opacity="0.45"/>
      <stop offset="1" stop-color="#ff8e2d" stop-opacity="0"/>
    </radialGradient>
    <linearGradient id="edge-ember-arcanist-c28" x1="0" y1="0" x2="768" y2="1024" gradientUnits="userSpaceOnUse">
      <stop stop-color="#ff8e2d" stop-opacity="0.85"/>
      <stop offset="1" stop-color="#ff5f7a" stop-opacity="0.85"/>
    </linearGradient>
  </defs>

  <rect x="0" y="0" width="768" height="1024" rx="32" fill="#060910"/>
  <rect x="16" y="16" width="736" height="992" rx="24" fill="url(#bg-ember-arcanist-c28)"/>
  <rect x="16" y="16" width="736" height="992" rx="24" fill="url(#glow-ember-arcanist-c28)"/>

  <g opacity="0.88">
    <circle cx="384" cy="552.96" r="70" fill="none" stroke="#ff5f7a" stroke-width="7" opacity="0.75"/><circle cx="384" cy="552.96" r="108" fill="none" stroke="#ff8e2d" stroke-width="3" opacity="0.63"/><circle cx="384" cy="552.96" r="146" fill="none" stroke="#ff5f7a" stroke-width="3" opacity="0.51"/><circle cx="384" cy="552.96" r="184" fill="none" stroke="#ff8e2d" stroke-width="3" opacity="0.39"/><path d="M344,552.96 L384,496.96000000000004 L424,552.96 L384,608.96 Z" fill="none" stroke="#ff5f7a" stroke-width="6" opacity="0.9"/>
  </g>

  <g opacity="0.8">
    <circle cx="284.11" cy="580.84" r="2.10" fill="#ff5f7a" opacity="0.33"/><circle cx="118.12" cy="266.23" r="3.53" fill="#ff8e2d" opacity="0.56"/><circle cx="645.45" cy="350.81" r="3.81" fill="#ff5f7a" opacity="0.39"/><circle cx="250.98" cy="265.47" r="2.16" fill="#ff8e2d" opacity="0.62"/><circle cx="293.49" cy="861.69" r="2.43" fill="#ff5f7a" opacity="0.53"/><circle cx="517.87" cy="575.46" r="1.81" fill="#ff8e2d" opacity="0.62"/><circle cx="506.57" cy="458.77" r="4.41" fill="#ff5f7a" opacity="0.43"/><circle cx="570.13" cy="191.10" r="2.70" fill="#ff8e2d" opacity="0.70"/><circle cx="394.52" cy="621.22" r="2.82" fill="#ff5f7a" opacity="0.73"/><circle cx="658.00" cy="715.53" r="4.69" fill="#ff8e2d" opacity="0.60"/><circle cx="659.42" cy="858.86" r="2.29" fill="#ff5f7a" opacity="0.55"/><circle cx="368.98" cy="748.61" r="2.43" fill="#ff8e2d" opacity="0.41"/><circle cx="221.77" cy="987.21" r="2.05" fill="#ff5f7a" opacity="0.27"/><circle cx="751.28" cy="975.55" r="3.33" fill="#ff8e2d" opacity="0.66"/><circle cx="124.61" cy="674.03" r="2.26" fill="#ff5f7a" opacity="0.49"/><circle cx="183.71" cy="621.95" r="2.14" fill="#ff8e2d" opacity="0.50"/><circle cx="285.95" cy="908.97" r="4.66" fill="#ff5f7a" opacity="0.27"/><circle cx="451.83" cy="663.49" r="4.79" fill="#ff8e2d" opacity="0.74"/><circle cx="402.97" cy="542.04" r="2.39" fill="#ff5f7a" opacity="0.37"/><circle cx="634.82" cy="336.09" r="3.52" fill="#ff8e2d" opacity="0.53"/><circle cx="441.30" cy="926.17" r="1.49" fill="#ff5f7a" opacity="0.39"/><circle cx="669.72" cy="470.19" r="2.41" fill="#ff8e2d" opacity="0.37"/><circle cx="650.08" cy="349.80" r="4.03" fill="#ff5f7a" opacity="0.46"/><circle cx="372.36" cy="672.88" r="2.71" fill="#ff8e2d" opacity="0.35"/><circle cx="217.10" cy="491.54" r="1.55" fill="#ff5f7a" opacity="0.70"/><circle cx="242.66" cy="762.31" r="4.67" fill="#ff8e2d" opacity="0.25"/><circle cx="419.10" cy="387.11" r="1.59" fill="#ff5f7a" opacity="0.57"/><circle cx="653.13" cy="672.26" r="1.36" fill="#ff8e2d" opacity="0.62"/>
  </g>

  <rect x="16" y="16" width="736" height="992" rx="24" stroke="url(#edge-ember-arcanist-c28)" stroke-width="2.5" opacity="0.85"/>
  <rect x="22" y="22" width="724" height="980" rx="20" stroke="#8aa0c4" stroke-width="2" opacity="0.74"/>

  <rect x="34" y="34" width="700" height="72" rx="14" fill="#070b14" fill-opacity="0.72" stroke="#8aa0c4" stroke-opacity="0.55"/>
  <text x="54" y="80" fill="#EAF4FF" font-family="Exo 2, Segoe UI, sans-serif" font-size="32" font-weight="700">Ember Arcanist</text>

  <rect x="34" y="872" width="700" height="92" rx="14" fill="#070b14" fill-opacity="0.74" stroke="#8aa0c4" stroke-opacity="0.6"/>
  <text x="54" y="924" fill="#D9E7FF" font-family="Exo 2, Segoe UI, sans-serif" font-size="30" font-weight="600">Momentum Blade</text>

  <rect x="598" y="36" width="118" height="42" rx="10" fill="#8aa0c4" fill-opacity="0.2" stroke="#8aa0c4" stroke-opacity="0.8"/>
  <text x="612" y="65" fill="#8aa0c4" font-family="Exo 2, Segoe UI, sans-serif" font-size="20" font-weight="700">COMMON</text>

  <circle cx="708" cy="954" r="26" fill="#080d18" stroke="#8aa0c4" stroke-opacity="0.8"/>
  <text x="696" y="962" fill="#E7F2FF" font-family="Exo 2, Segoe UI, sans-serif" font-size="24" font-weight="700">28</text>
</svg>