<?xml version="1.0" encoding="UTF-8"?>
<svg width="768" height="1024" viewBox="0 0 768 1024" fill="none" xmlns="http://www.w3.org/2000/svg">
  <defs>
    <linearGradient id="bg-ember-arcanist-c17" x1="60" y1="40" x2="728" y2="1004" gradientUnits="userSpaceOnUse">
      <stop offset="0" stop-color="#25120a"/>
      <stop offset="0.55" stop-color="#8c2b12"/>
      <stop offset="1" stop-color="#25120a"/>
    </linearGradient>
    <radialGradient id="glow-ember-arcanist-c17" cx="0" cy="0" r="1" gradientUnits="userSpaceOnUse" gradientTransform="translate(642.34 284.31) rotate(90) scale(284.36 284.36)">
      <stop stop-color="#ff8e2d" stop-opacity="0.45"/>
      <stop offset="1" stop-color="#ff8e2d" stop-opacity="0"/>
    </radialGradient>
    <linearGradient id="edge-ember-arcanist-c17" x1="0" y1="0" x2="768" y2="1024" gradientUnits="userSpaceOnUse">
      <stop stop-color="#ff8e2d" stop-opacity="0.85"/>
      <stop offset="1" stop-color="#ff5f7a" stop-opacity="0.85"/>
    </linearGradient>
  </defs>

  <rect x="0" y="0" width="768" height="1024" rx="32" fill="#060910"/>
  <rect x="16" y="16" width="736" height="992" rx="24" fill="url(#bg-ember-arcanist-c17)"/>
  <rect x="16" y="16" width="736" height="992" rx="24" fill="url(#glow-ember-arcanist-c17)"/>

  <g opacity="0.88">
    <circle cx="384" cy="552.96" r="70" fill="none" stroke="#ff5f7a" stroke-width="7" opacity="0.75"/><circle cx="384" cy="552.96" r="108" fill="none" stroke="#ff8e2d" stroke-width="3" opacity="0.63"/><circle cx="384" cy="552.96" r="146" fill="none" stroke="#ff5f7a" stroke-width="3" opacity="0.51"/><circle cx="384" cy="552.96" r="184" fill="none" stroke="#ff8e2d" stroke-width="3" opacity="0.39"/><path d="M344,552.96 L384,496.96000000000004 L424,552.96 L384,608.96 Z" fill="none" stroke="#ff5f7a" stroke-width="6" opacity="0.9"/>
  </g>

  <g opacity="0.8">
    <circle cx="529.98" cy="164.27" r="2.54" fill="#ff5f7a" opacity="0.52"/><circle cx="477.77" cy="296.61" r="4.45" fill="#ff8e2d" opacity="0.29"/><circle cx="747.98" cy="875.76" r="3.89" fill="#ff5f7a" opacity="0.55"/><circle cx="638.06" cy="407.78" r="3.76" fill="#ff8e2d" opacity="0.70"/><circle cx="680.93" cy="535.25" r="2.20" fill="#ff5f7a" opacity="0.35"/><circle cx="107.79" cy="975.93" r="4.48" fill="#ff8e2d" opacity="0.66"/><circle cx="604.59" cy="374.81" r="1.72" fill="#ff5f7a" opacity="0.55"/><circle cx="143.02" cy="329.87" r="3.96" fill="#ff8e2d" opacity="0.72"/><circle cx="524.85" cy="682.87" r="1.62" fill="#ff5f7a" opacity="0.28"/><circle cx="371.65" cy="661.38" r="3.77" fill="#ff8e2d" opacity="0.29"/><circle cx="658.01" cy="100.94" r="1.32" fill="#ff5f7a" opacity="0.65"/><circle cx="91.04" cy="96.91" r="3.22" fill="#ff8e2d" opacity="0.29"/><circle cx="105.90" cy="505.13" r="3.19" fill="#ff5f7a" opacity="0.70"/><circle cx="282.24" cy="20.78" r="4.46" fill="#ff8e2d" opacity="0.46"/><circle cx="161.84" cy="167.33" r="4.49" fill="#ff5f7a" opacity="0.46"/><circle cx="603.36" cy="369.26" r="2.26" fill="#ff8e2d" opacity="0.41"/><circle cx="378.23" cy="905.63" r="4.89" fill="#ff5f7a" opacity="0.25"/><circle cx="316.80" cy="109.06" r="4.90" fill="#ff8e2d" opacity="0.55"/><circle cx="45.41" cy="715.09" r="2.35" fill="#ff5f7a" opacity="0.34"/><circle cx="538.77" cy="750.94" r="4.76" fill="#ff8e2d" opacity="0.34"/><circle cx="480.39" cy="535.53" r="3.21" fill="#ff5f7a" opacity="0.32"/><circle cx="494.15" cy="36.47" r="1.79" fill="#ff8e2d" opacity="0.36"/><circle cx="557.96" cy="1023.96" r="3.10" fill="#ff5f7a" opacity="0.56"/><circle cx="288.05" cy="287.65" r="3.61" fill="#ff8e2d" opacity="0.68"/><circle cx="41.80" cy="122.01" r="4.52" fill="#ff5f7a" opacity="0.48"/><circle cx="155.78" cy="967.23" r="4.79" fill="#ff8e2d" opacity="0.45"/><circle cx="364.25" cy="980.80" r="1.84" fill="#ff5f7a" opacity="0.66"/><circle cx="0.62" cy="394.35" r="3.58" fill="#ff8e2d" opacity="0.60"/>
  </g>

  <rect x="16" y="16" width="736" height="992" rx="24" stroke="url(#edge-ember-arcanist-c17)" stroke-width="2.5" opacity="0.85"/>
  <rect x="22" y="22" width="724" height="980" rx="20" stroke="#8aa0c4" stroke-width="2" opacity="0.74"/>

  <rect x="34" y="34" width="700" height="72" rx="14" fill="#070b14" fill-opacity="0.72" stroke="#8aa0c4" stroke-opacity="0.55"/>
  <text x="54" y="80" fill="#EAF4FF" font-family="Exo 2, Segoe UI, sans-serif" font-size="32" font-weight="700">Ember Arcanist</text>

  <rect x="34" y="872" width="700" height="92" rx="14" fill="#070b14" fill-opacity="0.74" stroke="#8aa0c4" stroke-opacity="0.6"/>
  <text x="54" y="924" fill="#D9E7FF" font-family="Exo 2, Segoe UI, sans-serif" font-size="30" font-weight="600">Enforcer</text>

  <rect x="598" y="36" width="118" height="42" rx="10" fill="#8aa0c4" fill-opacity="0.2" stroke="#8aa0c4" stroke-opacity="0.8"/>
  <text x="612" y="65" fill="#8aa0c4" font-family="Exo 2, Segoe UI, sans-serif" font-size="20" font-weight="700">COMMON</text>

  <circle cx="708" cy="954" r="26" fill="#080d18" stroke="#8aa0c4" stroke-opacity="0.8"/>
  <text x="696" y="962" fill="#E7F2FF" font-family="Exo 2, Segoe UI, sans-serif" font-size="24" font-weight="700">17</text>
</svg>