<?xml version="1.0" encoding="UTF-8"?>
<svg width="768" height="1024" viewBox="0 0 768 1024" fill="none" xmlns="http://www.w3.org/2000/svg">
  <defs>
    <linearGradient id="bg-ember-arcanist-c47" x1="60" y1="40" x2="728" y2="1004" gradientUnits="userSpaceOnUse">
      <stop offset="0" stop-color="#25120a"/>
      <stop offset="0.55" stop-color="#8c2b12"/>
      <stop offset="1" stop-color="#25120a"/>
    </linearGradient>
    <radialGradient id="glow-ember-arcanist-c47" cx="0" cy="0" r="1" gradientUnits="userSpaceOnUse" gradientTransform="translate(312.43 552.77) rotate(90) scale(280.45 280.45)">
      <stop stop-color="#ff8e2d" stop-opacity="0.45"/>
      <stop offset="1" stop-color="#ff8e2d" stop-opacity="0"/>
    </radialGradient>
    <linearGradient id="edge-ember-arcanist-c47" x1="0" y1="0" x2="768" y2="1024" gradientUnits="userSpaceOnUse">
      <stop stop-color="#ff8e2d" stop-opacity="0.85"/>
      <stop offset="1" stop-color="#ff5f7a" stop-opacity="0.85"/>
    </linearGradient>
  </defs>

  <rect x="0" y="0" width="768" height="1024" rx="32" fill="#060910"/>
  <rect x="16" y="16" width="736" height="992" rx="24" fill="url(#bg-ember-arcanist-c47)"/>
  <rect x="16" y="16" width="736" height="992" rx="24" fill="url(#glow-ember-arcanist-c47)"/>

  <g opacity="0.88">
    <circle cx="384" cy="552.96" r="70" fill="none" stroke="#ff5f7a" stroke-width="7" opacity="0.75"/><circle cx="384" cy="552.96" r="108" fill="none" stroke="#ff8e2d" stroke-width="3" opacity="0.63"/><circle cx="384" cy="552.96" r="146" fill="none" stroke="#ff5f7a" stroke-width="3" opacity="0.51"/><circle cx="384" cy="552.96" r="184" fill="none" stroke="#ff8e2d" stroke-width="3" opacity="0.39"/><path d="M344,552.96 L384,496.96000000000004 L424,552.96 L384,608.96 Z" fill="none" stroke="#ff5f7a" stroke-width="6" opacity="0.9"/>
  </g>

  <g opacity="0.8">
    <circle cx="649.03" cy="808.59" r="1.91" fill="#ff5f7a" opacity="0.38"/><circle cx="747.99" cy="359.45" r="4.16" fill="#ff8e2d" opacity="0.29"/><circle cx="634.39" cy="788.70" r="2.58" fill="#ff5f7a" opacity="0.62"/><circle cx="246.86" cy="486.12" r="3.01" fill="#ff8e2d" opacity="0.64"/><circle cx="313.18" cy="283.93" r="2.20" fill="#ff5f7a" opacity="0.47"/><circle cx="578.37" cy="357.22" r="3.26" fill="#ff8e2d" opacity="0.65"/><circle cx="633.69" cy="568.99" r="4.27" fill="#ff5f7a" opacity="0.39"/><circle cx="67.03" cy="807.15" r="4.64" fill="#ff8e2d" opacity="0.30"/><circle cx="711.36" cy="757.78" r="1.74" fill="#ff5f7a" opacity="0.31"/><circle cx="210.27" cy="55.28" r="2.33" fill="#ff8e2d" opacity="0.37"/><circle cx="701.65" cy="148.12" r="3.01" fill="#ff5f7a" opacity="0.62"/><circle cx="648.33" cy="330.95" r="2.27" fill="#ff8e2d" opacity="0.61"/><circle cx="224.64" cy="923.65" r="2.76" fill="#ff5f7a" opacity="0.72"/><circle cx="698.55" cy="988.51" r="3.64" fill="#ff8e2d" opacity="0.54"/><circle cx="118.83" cy="512.51" r="4.74" fill="#ff5f7a" opacity="0.43"/><circle cx="283.02" cy="59.37" r="1.89" fill="#ff8e2d" opacity="0.70"/><circle cx="413.26" cy="359.32" r="1.57" fill="#ff5f7a" opacity="0.55"/><circle cx="182.05" cy="963.07" r="3.57" fill="#ff8e2d" opacity="0.54"/><circle cx="343.76" cy="760.47" r="3.29" fill="#ff5f7a" opacity="0.38"/><circle cx="204.27" cy="459.51" r="4.16" fill="#ff8e2d" opacity="0.29"/><circle cx="160.38" cy="374.96" r="3.99" fill="#ff5f7a" opacity="0.70"/><circle cx="379.34" cy="423.31" r="3.07" fill="#ff8e2d" opacity="0.68"/><circle cx="235.40" cy="966.25" r="3.28" fill="#ff5f7a" opacity="0.30"/><circle cx="96.17" cy="841.03" r="4.00" fill="#ff8e2d" opacity="0.26"/><circle cx="41.96" cy="515.19" r="1.44" fill="#ff5f7a" opacity="0.60"/><circle cx="162.60" cy="155.84" r="3.23" fill="#ff8e2d" opacity="0.66"/><circle cx="548.32" cy="827.09" r="1.67" fill="#ff5f7a" opacity="0.30"/><circle cx="731.71" cy="786.39" r="2.71" fill="#ff8e2d" opacity="0.74"/>
  </g>

  <rect x="16" y="16" width="736" height="992" rx="24" stroke="url(#edge-ember-arcanist-c47)" stroke-width="2.5" opacity="0.85"/>
  <rect x="22" y="22" width="724" height="980" rx="20" stroke="#f0a0ff" stroke-width="2" opacity="0.74"/>

  <rect x="34" y="34" width="700" height="72" rx="14" fill="#070b14" fill-opacity="0.72" stroke="#f0a0ff" stroke-opacity="0.55"/>
  <text x="54" y="80" fill="#EAF4FF" font-family="Exo 2, Segoe UI, sans-serif" font-size="32" font-weight="700">Ember Arcanist</text>

  <rect x="34" y="872" width="700" height="92" rx="14" fill="#070b14" fill-opacity="0.74" stroke="#f0a0ff" stroke-opacity="0.6"/>
  <text x="54" y="924" fill="#D9E7FF" font-family="Exo 2, Segoe UI, sans-serif" font-size="30" font-weight="600">Epic Volley</text>

  <rect x="598" y="36" width="118" height="42" rx="10" fill="#f0a0ff" fill-opacity="0.2" stroke="#f0a0ff" stroke-opacity="0.8"/>
  <text x="612" y="65" fill="#f0a0ff" font-family="Exo 2, Segoe UI, sans-serif" font-size="20" font-weight="700">EPIC</text>

  <circle cx="708" cy="954" r="26" fill="#080d18" stroke="#f0a0ff" stroke-opacity="0.8"/>
  <text x="696" y="962" fill="#E7F2FF" font-family="Exo 2, Segoe UI, sans-serif" font-size="24" font-weight="700">47</text>
</svg>