<?xml version="1.0" encoding="UTF-8"?>
<svg width="768" height="1024" viewBox="0 0 768 1024" fill="none" xmlns="http://www.w3.org/2000/svg">
  <defs>
    <linearGradient id="bg-ember-arcanist-c42" x1="60" y1="40" x2="728" y2="1004" gradientUnits="userSpaceOnUse">
      <stop offset="0" stop-color="#25120a"/>
      <stop offset="0.55" stop-color="#8c2b12"/>
      <stop offset="1" stop-color="#25120a"/>
    </linearGradient>
    <radialGradient id="glow-ember-arcanist-c42" cx="0" cy="0" r="1" gradientUnits="userSpaceOnUse" gradientTransform="translate(163.15 772.14) rotate(90) scale(220.27 220.27)">
      <stop stop-color="#ff8e2d" stop-opacity="0.45"/>
      <stop offset="1" stop-color="#ff8e2d" stop-opacity="0"/>
    </radialGradient>
    <linearGradient id="edge-ember-arcanist-c42" x1="0" y1="0" x2="768" y2="1024" gradientUnits="userSpaceOnUse">
      <stop stop-color="#ff8e2d" stop-opacity="0.85"/>
      <stop offset="1" stop-color="#ff5f7a" stop-opacity="0.85"/>
    </linearGradient>
  </defs>

  <rect x="0" y="0" width="768" height="1024" rx="32" fill="#060910"/>
  <rect x="16" y="16" width="736" height="992" rx="24" fill="url(#bg-ember-arcanist-c42)"/>
  <rect x="16" y="16" width="736" height="992" rx="24" fill="url(#glow-ember-arcanist-c42)"/>

  <g opacity="0.88">
    <circle cx="384" cy="552.96" r="70" fill="none" stroke="#ff5f7a" stroke-width="7" opacity="0.75"/><circle cx="384" cy="552.96" r="108" fill="none" stroke="#ff8e2d" stroke-width="3" opacity="0.63"/><circle cx="384" cy="552.96" r="146" fill="none" stroke="#ff5f7a" stroke-width="3" opacity="0.51"/><circle cx="384" cy="552.96" r="184" fill="none" stroke="#ff8e2d" stroke-width="3" opacity="0.39"/><path d="M344,552.96 L384,496.96000000000004 L424,552.96 L384,608.96 Z" fill="none" stroke="#ff5f7a" stroke-width="6" opacity="0.9"/>
  </g>

  <g opacity="0.8">
    <circle cx="441.95" cy="590.22" r="3.24" fill="#ff5f7a" opacity="0.72"/><circle cx="505.33" cy="49.81" r="3.82" fill="#ff8e2d" opacity="0.59"/><circle cx="338.71" cy="797.49" r="3.44" fill="#ff5f7a" opacity="0.59"/><circle cx="704.87" cy="748.60" r="2.17" fill="#ff8e2d" opacity="0.70"/><circle cx="395.64" cy="836.89" r="2.50" fill="#ff5f7a" opacity="0.52"/><circle cx="558.64" cy="544.68" r="1.43" fill="#ff8e2d" opacity="0.74"/><circle cx="281.52" cy="498.85" r="1.38" fill="#ff5f7a" opacity="0.41"/><circle cx="35.68" cy="615.19" r="1.43" fill="#ff8e2d" opacity="0.58"/><circle cx="713.36" cy="387.22" r="1.74" fill="#ff5f7a" opacity="0.63"/><circle cx="765.98" cy="714.33" r="2.14" fill="#ff8e2d" opacity="0.42"/><circle cx="252.58" cy="44.17" r="2.43" fill="#ff5f7a" opacity="0.47"/><circle cx="649.74" cy="295.13" r="3.63" fill="#ff8e2d" opacity="0.56"/><circle cx="435.82" cy="758.04" r="4.71" fill="#ff5f7a" opacity="0.38"/><circle cx="292.44" cy="980.13" r="2.65" fill="#ff8e2d" opacity="0.28"/><circle cx="219.62" cy="235.38" r="3.65" fill="#ff5f7a" opacity="0.46"/><circle cx="120.39" cy="512.65" r="2.42" fill="#ff8e2d" opacity="0.42"/><circle cx="520.93" cy="655.68" r="1.97" fill="#ff5f7a" opacity="0.55"/><circle cx="762.77" cy="92.23" r="2.73" fill="#ff8e2d" opacity="0.57"/><circle cx="368.32" cy="166.76" r="4.18" fill="#ff5f7a" opacity="0.70"/><circle cx="517.36" cy="728.81" r="2.70" fill="#ff8e2d" opacity="0.41"/><circle cx="767.98" cy="197.74" r="2.53" fill="#ff5f7a" opacity="0.37"/><circle cx="353.06" cy="81.67" r="4.09" fill="#ff8e2d" opacity="0.51"/><circle cx="355.85" cy="141.47" r="3.35" fill="#ff5f7a" opacity="0.25"/><circle cx="485.08" cy="228.47" r="3.76" fill="#ff8e2d" opacity="0.28"/><circle cx="279.75" cy="3.52" r="2.08" fill="#ff5f7a" opacity="0.55"/><circle cx="44.29" cy="138.73" r="1.64" fill="#ff8e2d" opacity="0.47"/><circle cx="50.97" cy="111.18" r="2.66" fill="#ff5f7a" opacity="0.39"/><circle cx="551.20" cy="171.70" r="3.09" fill="#ff8e2d" opacity="0.45"/>
  </g>

  <rect x="16" y="16" width="736" height="992" rx="24" stroke="url(#edge-ember-arcanist-c42)" stroke-width="2.5" opacity="0.85"/>
  <rect x="22" y="22" width="724" height="980" rx="20" stroke="#78d8ff" stroke-width="2" opacity="0.74"/>

  <rect x="34" y="34" width="700" height="72" rx="14" fill="#070b14" fill-opacity="0.72" stroke="#78d8ff" stroke-opacity="0.55"/>
  <text x="54" y="80" fill="#EAF4FF" font-family="Exo 2, Segoe UI, sans-serif" font-size="32" font-weight="700">Ember Arcanist</text>

  <rect x="34" y="872" width="700" height="92" rx="14" fill="#070b14" fill-opacity="0.74" stroke="#78d8ff" stroke-opacity="0.6"/>
  <text x="54" y="924" fill="#D9E7FF" font-family="Exo 2, Segoe UI, sans-serif" font-size="30" font-weight="600">Tempo Swing</text>

  <rect x="598" y="36" width="118" height="42" rx="10" fill="#78d8ff" fill-opacity="0.2" stroke="#78d8ff" stroke-opacity="0.8"/>
  <text x="612" y="65" fill="#78d8ff" font-family="Exo 2, Segoe UI, sans-serif" font-size="20" font-weight="700">RARE</text>

  <circle cx="708" cy="954" r="26" fill="#080d18" stroke="#78d8ff" stroke-opacity="0.8"/>
  <text x="696" y="962" fill="#E7F2FF" font-family="Exo 2, Segoe UI, sans-serif" font-size="24" font-weight="700">42</text>
</svg>