<?xml version="1.0" encoding="UTF-8"?>
<svg width="768" height="1024" viewBox="0 0 768 1024" fill="none" xmlns="http://www.w3.org/2000/svg">
  <defs>
    <linearGradient id="bg-ember-arcanist-c10" x1="60" y1="40" x2="728" y2="1004" gradientUnits="userSpaceOnUse">
      <stop offset="0" stop-color="#25120a"/>
      <stop offset="0.55" stop-color="#8c2b12"/>
      <stop offset="1" stop-color="#25120a"/>
    </linearGradient>
    <radialGradient id="glow-ember-arcanist-c10" cx="0" cy="0" r="1" gradientUnits="userSpaceOnUse" gradientTransform="translate(149.25 239.95) rotate(90) scale(231.82 231.82)">
      <stop stop-color="#ff8e2d" stop-opacity="0.45"/>
      <stop offset="1" stop-color="#ff8e2d" stop-opacity="0"/>
    </radialGradient>
    <linearGradient id="edge-ember-arcanist-c10" x1="0" y1="0" x2="768" y2="1024" gradientUnits="userSpaceOnUse">
      <stop stop-color="#ff8e2d" stop-opacity="0.85"/>
      <stop offset="1" stop-color="#ff5f7a" stop-opacity="0.85"/>
    </linearGradient>
  </defs>

  <rect x="0" y="0" width="768" height="1024" rx="32" fill="#060910"/>
  <rect x="16" y="16" width="736" height="992" rx="24" fill="url(#bg-ember-arcanist-c10)"/>
  <rect x="16" y="16" width="736" height="992" rx="24" fill="url(#glow-ember-arcanist-c10)"/>

  <g opacity="0.88">
    <circle cx="384" cy="552.96" r="70" fill="none" stroke="#ff5f7a" stroke-width="7" opacity="0.75"/><circle cx="384" cy="552.96" r="108" fill="none" stroke="#ff8e2d" stroke-width="3" opacity="0.63"/><circle cx="384" cy="552.96" r="146" fill="none" stroke="#ff5f7a" stroke-width="3" opacity="0.51"/><circle cx="384" cy="552.96" r="184" fill="none" stroke="#ff8e2d" stroke-width="3" opacity="0.39"/><path d="M344,552.96 L384,496.96000000000004 L424,552.96 L384,608.96 Z" fill="none" stroke="#ff5f7a" stroke-width="6" opacity="0.9"/>
  </g>

  <g opacity="0.8">
    <circle cx="430.96" cy="680.61" r="4.70" fill="#ff5f7a" opacity="0.31"/><circle cx="640.36" cy="25.35" r="1.73" fill="#ff8e2d" opacity="0.49"/><circle cx="354.90" cy="494.61" r="2.58" fill="#ff5f7a" opacity="0.69"/><circle cx="604.87" cy="617.61" r="2.61" fill="#ff8e2d" opacity="0.44"/><circle cx="24.92" cy="307.85" r="4.70" fill="#ff5f7a" opacity="0.57"/><circle cx="357.83" cy="102.63" r="3.24" fill="#ff8e2d" opacity="0.53"/><circle cx="419.63" cy="941.06" r="1.21" fill="#ff5f7a" opacity="0.46"/><circle cx="158.87" cy="108.66" r="3.56" fill="#ff8e2d" opacity="0.65"/><circle cx="629.36" cy="720.88" r="1.42" fill="#ff5f7a" opacity="0.33"/><circle cx="571.42" cy="108.43" r="4.45" fill="#ff8e2d" opacity="0.26"/><circle cx="189.89" cy="435.83" r="2.72" fill="#ff5f7a" opacity="0.55"/><circle cx="170.84" cy="820.67" r="4.91" fill="#ff8e2d" opacity="0.50"/><circle cx="96.94" cy="761.36" r="3.63" fill="#ff5f7a" opacity="0.59"/><circle cx="158.40" cy="670.24" r="1.84" fill="#ff8e2d" opacity="0.50"/><circle cx="688.74" cy="283.96" r="3.90" fill="#ff5f7a" opacity="0.51"/><circle cx="459.05" cy="805.27" r="3.23" fill="#ff8e2d" opacity="0.35"/><circle cx="152.44" cy="282.93" r="2.80" fill="#ff5f7a" opacity="0.31"/><circle cx="590.68" cy="300.39" r="1.54" fill="#ff8e2d" opacity="0.60"/><circle cx="179.63" cy="864.29" r="3.32" fill="#ff5f7a" opacity="0.36"/><circle cx="686.14" cy="589.93" r="2.26" fill="#ff8e2d" opacity="0.50"/><circle cx="756.01" cy="62.64" r="2.02" fill="#ff5f7a" opacity="0.32"/><circle cx="73.70" cy="543.97" r="2.73" fill="#ff8e2d" opacity="0.35"/><circle cx="757.16" cy="956.38" r="2.10" fill="#ff5f7a" opacity="0.58"/><circle cx="63.04" cy="559.66" r="2.76" fill="#ff8e2d" opacity="0.39"/><circle cx="163.89" cy="969.73" r="3.01" fill="#ff5f7a" opacity="0.57"/><circle cx="558.15" cy="614.26" r="4.83" fill="#ff8e2d" opacity="0.35"/><circle cx="29.87" cy="555.33" r="4.12" fill="#ff5f7a" opacity="0.32"/><circle cx="723.69" cy="387.66" r="3.25" fill="#ff8e2d" opacity="0.56"/>
  </g>

  <rect x="16" y="16" width="736" height="992" rx="24" stroke="url(#edge-ember-arcanist-c10)" stroke-width="2.5" opacity="0.85"/>
  <rect x="22" y="22" width="724" height="980" rx="20" stroke="#8aa0c4" stroke-width="2" opacity="0.74"/>

  <rect x="34" y="34" width="700" height="72" rx="14" fill="#070b14" fill-opacity="0.72" stroke="#8aa0c4" stroke-opacity="0.55"/>
  <text x="54" y="80" fill="#EAF4FF" font-family="Exo 2, Segoe UI, sans-serif" font-size="32" font-weight="700">Ember Arcanist</text>

  <rect x="34" y="872" width="700" height="92" rx="14" fill="#070b14" fill-opacity="0.74" stroke="#8aa0c4" stroke-opacity="0.6"/>
  <text x="54" y="924" fill="#D9E7FF" font-family="Exo 2, Segoe UI, sans-serif" font-size="30" font-weight="600">Disruptor</text>

  <rect x="598" y="36" width="118" height="42" rx="10" fill="#8aa0c4" fill-opacity="0.2" stroke="#8aa0c4" stroke-opacity="0.8"/>
  <text x="612" y="65" fill="#8aa0c4" font-family="Exo 2, Segoe UI, sans-serif" font-size="20" font-weight="700">COMMON</text>

  <circle cx="708" cy="954" r="26" fill="#080d18" stroke="#8aa0c4" stroke-opacity="0.8"/>
  <text x="696" y="962" fill="#E7F2FF" font-family="Exo 2, Segoe UI, sans-serif" font-size="24" font-weight="700">10</text>
</svg>