<?xml version="1.0" encoding="UTF-8"?>
<svg width="768" height="1024" viewBox="0 0 768 1024" fill="none" xmlns="http://www.w3.org/2000/svg">
  <defs>
    <linearGradient id="bg-ember-arcanist-c05" x1="60" y1="40" x2="728" y2="1004" gradientUnits="userSpaceOnUse">
      <stop offset="0" stop-color="#25120a"/>
      <stop offset="0.55" stop-color="#8c2b12"/>
      <stop offset="1" stop-color="#25120a"/>
    </linearGradient>
    <radialGradient id="glow-ember-arcanist-c05" cx="0" cy="0" r="1" gradientUnits="userSpaceOnUse" gradientTransform="translate(303.37 281.31) rotate(90) scale(258.06 258.06)">
      <stop stop-color="#ff8e2d" stop-opacity="0.45"/>
      <stop offset="1" stop-color="#ff8e2d" stop-opacity="0"/>
    </radialGradient>
    <linearGradient id="edge-ember-arcanist-c05" x1="0" y1="0" x2="768" y2="1024" gradientUnits="userSpaceOnUse">
      <stop stop-color="#ff8e2d" stop-opacity="0.85"/>
      <stop offset="1" stop-color="#ff5f7a" stop-opacity="0.85"/>
    </linearGradient>
  </defs>

  <rect x="0" y="0" width="768" height="1024" rx="32" fill="#060910"/>
  <rect x="16" y="16" width="736" height="992" rx="24" fill="url(#bg-ember-arcanist-c05)"/>
  <rect x="16" y="16" width="736" height="992" rx="24" fill="url(#glow-ember-arcanist-c05)"/>

  <g opacity="0.88">
    <circle cx="384" cy="552.96" r="70" fill="none" stroke="#ff5f7a" stroke-width="7" opacity="0.75"/><circle cx="384" cy="552.96" r="108" fill="none" stroke="#ff8e2d" stroke-width="3" opacity="0.63"/><circle cx="384" cy="552.96" r="146" fill="none" stroke="#ff5f7a" stroke-width="3" opacity="0.51"/><circle cx="384" cy="552.96" r="184" fill="none" stroke="#ff8e2d" stroke-width="3" opacity="0.39"/><path d="M344,552.96 L384,496.96000000000004 L424,552.96 L384,608.96 Z" fill="none" stroke="#ff5f7a" stroke-width="6" opacity="0.9"/>
  </g>

  <g opacity="0.8">
    <circle cx="486.75" cy="232.73" r="1.36" fill="#ff5f7a" opacity="0.66"/><circle cx="166.11" cy="625.36" r="3.83" fill="#ff8e2d" opacity="0.70"/><circle cx="23.38" cy="392.26" r="4.34" fill="#ff5f7a" opacity="0.31"/><circle cx="350.46" cy="406.30" r="1.64" fill="#ff8e2d" opacity="0.55"/><circle cx="182.25" cy="866.11" r="4.52" fill="#ff5f7a" opacity="0.36"/><circle cx="573.20" cy="90.65" r="2.64" fill="#ff8e2d" opacity="0.50"/><circle cx="261.66" cy="860.12" r="4.81" fill="#ff5f7a" opacity="0.35"/><circle cx="278.86" cy="779.18" r="4.02" fill="#ff8e2d" opacity="0.49"/><circle cx="55.49" cy="245.27" r="3.60" fill="#ff5f7a" opacity="0.26"/><circle cx="172.11" cy="863.80" r="3.14" fill="#ff8e2d" opacity="0.39"/><circle cx="559.98" cy="621.44" r="2.36" fill="#ff5f7a" opacity="0.34"/><circle cx="644.38" cy="158.37" r="2.71" fill="#ff8e2d" opacity="0.51"/><circle cx="300.14" cy="171.71" r="2.83" fill="#ff5f7a" opacity="0.33"/><circle cx="481.94" cy="17.27" r="3.89" fill="#ff8e2d" opacity="0.25"/><circle cx="124.80" cy="963.02" r="4.07" fill="#ff5f7a" opacity="0.55"/><circle cx="487.01" cy="598.81" r="3.96" fill="#ff8e2d" opacity="0.36"/><circle cx="276.73" cy="762.21" r="4.40" fill="#ff5f7a" opacity="0.67"/><circle cx="99.09" cy="714.76" r="2.92" fill="#ff8e2d" opacity="0.64"/><circle cx="75.22" cy="152.37" r="1.63" fill="#ff5f7a" opacity="0.50"/><circle cx="552.00" cy="265.28" r="3.22" fill="#ff8e2d" opacity="0.45"/><circle cx="66.57" cy="905.73" r="2.62" fill="#ff5f7a" opacity="0.53"/><circle cx="149.14" cy="502.68" r="2.93" fill="#ff8e2d" opacity="0.45"/><circle cx="380.59" cy="157.72" r="2.29" fill="#ff5f7a" opacity="0.36"/><circle cx="244.94" cy="860.55" r="4.37" fill="#ff8e2d" opacity="0.64"/><circle cx="674.39" cy="0.66" r="3.05" fill="#ff5f7a" opacity="0.64"/><circle cx="384.84" cy="163.61" r="3.56" fill="#ff8e2d" opacity="0.27"/><circle cx="276.32" cy="170.09" r="1.35" fill="#ff5f7a" opacity="0.67"/><circle cx="61.85" cy="224.24" r="2.68" fill="#ff8e2d" opacity="0.31"/>
  </g>

  <rect x="16" y="16" width="736" height="992" rx="24" stroke="url(#edge-ember-arcanist-c05)" stroke-width="2.5" opacity="0.85"/>
  <rect x="22" y="22" width="724" height="980" rx="20" stroke="#8aa0c4" stroke-width="2" opacity="0.74"/>

  <rect x="34" y="34" width="700" height="72" rx="14" fill="#070b14" fill-opacity="0.72" stroke="#8aa0c4" stroke-opacity="0.55"/>
  <text x="54" y="80" fill="#EAF4FF" font-family="Exo 2, Segoe UI, sans-serif" font-size="32" font-weight="700">Ember Arcanist</text>

  <rect x="34" y="872" width="700" height="92" rx="14" fill="#070b14" fill-opacity="0.74" stroke="#8aa0c4" stroke-opacity="0.6"/>
  <text x="54" y="924" fill="#D9E7FF" font-family="Exo 2, Segoe UI, sans-serif" font-size="30" font-weight="600">Engineer</text>

  <rect x="598" y="36" width="118" height="42" rx="10" fill="#8aa0c4" fill-opacity="0.2" stroke="#8aa0c4" stroke-opacity="0.8"/>
  <text x="612" y="65" fill="#8aa0c4" font-family="Exo 2, Segoe UI, sans-serif" font-size="20" font-weight="700">COMMON</text>

  <circle cx="708" cy="954" r="26" fill="#080d18" stroke="#8aa0c4" stroke-opacity="0.8"/>
  <text x="696" y="962" fill="#E7F2FF" font-family="Exo 2, Segoe UI, sans-serif" font-size="24" font-weight="700">05</text>
</svg>