<?xml version="1.0" encoding="UTF-8"?>
<svg width="768" height="1024" viewBox="0 0 768 1024" fill="none" xmlns="http://www.w3.org/2000/svg">
  <defs>
    <linearGradient id="bg-ember-arcanist-c06" x1="60" y1="40" x2="728" y2="1004" gradientUnits="userSpaceOnUse">
      <stop offset="0" stop-color="#25120a"/>
      <stop offset="0.55" stop-color="#8c2b12"/>
      <stop offset="1" stop-color="#25120a"/>
    </linearGradient>
    <radialGradient id="glow-ember-arcanist-c06" cx="0" cy="0" r="1" gradientUnits="userSpaceOnUse" gradientTransform="translate(485.89 488.98) rotate(90) scale(279.34 279.34)">
      <stop stop-color="#ff8e2d" stop-opacity="0.45"/>
      <stop offset="1" stop-color="#ff8e2d" stop-opacity="0"/>
    </radialGradient>
    <linearGradient id="edge-ember-arcanist-c06" x1="0" y1="0" x2="768" y2="1024" gradientUnits="userSpaceOnUse">
      <stop stop-color="#ff8e2d" stop-opacity="0.85"/>
      <stop offset="1" stop-color="#ff5f7a" stop-opacity="0.85"/>
    </linearGradient>
  </defs>

  <rect x="0" y="0" width="768" height="1024" rx="32" fill="#060910"/>
  <rect x="16" y="16" width="736" height="992" rx="24" fill="url(#bg-ember-arcanist-c06)"/>
  <rect x="16" y="16" width="736" height="992" rx="24" fill="url(#glow-ember-arcanist-c06)"/>

  <g opacity="0.88">
    <circle cx="384" cy="552.96" r="70" fill="none" stroke="#ff5f7a" stroke-width="7" opacity="0.75"/><circle cx="384" cy="552.96" r="108" fill="none" stroke="#ff8e2d" stroke-width="3" opacity="0.63"/><circle cx="384" cy="552.96" r="146" fill="none" stroke="#ff5f7a" stroke-width="3" opacity="0.51"/><circle cx="384" cy="552.96" r="184" fill="none" stroke="#ff8e2d" stroke-width="3" opacity="0.39"/><path d="M344,552.96 L384,496.96000000000004 L424,552.96 L384,608.96 Z" fill="none" stroke="#ff5f7a" stroke-width="6" opacity="0.9"/>
  </g>

  <g opacity="0.8">
    <circle cx="652.06" cy="882.29" r="2.72" fill="#ff5f7a" opacity="0.53"/><circle cx="273.86" cy="50.14" r="4.95" fill="#ff8e2d" opacity="0.69"/><circle cx="112.76" cy="919.69" r="4.31" fill="#ff5f7a" opacity="0.38"/><circle cx="379.65" cy="454.47" r="4.84" fill="#ff8e2d" opacity="0.61"/><circle cx="77.59" cy="171.46" r="2.48" fill="#ff5f7a" opacity="0.61"/><circle cx="79.69" cy="857.83" r="3.98" fill="#ff8e2d" opacity="0.54"/><circle cx="135.52" cy="163.88" r="1.70" fill="#ff5f7a" opacity="0.60"/><circle cx="538.53" cy="424.26" r="1.84" fill="#ff8e2d" opacity="0.32"/><circle cx="406.20" cy="904.03" r="2.06" fill="#ff5f7a" opacity="0.37"/><circle cx="440.20" cy="698.47" r="1.60" fill="#ff8e2d" opacity="0.50"/><circle cx="673.90" cy="815.66" r="1.52" fill="#ff5f7a" opacity="0.58"/><circle cx="197.61" cy="135.06" r="3.71" fill="#ff8e2d" opacity="0.67"/><circle cx="371.91" cy="845.39" r="2.12" fill="#ff5f7a" opacity="0.41"/><circle cx="525.22" cy="315.72" r="4.57" fill="#ff8e2d" opacity="0.37"/><circle cx="410.07" cy="169.15" r="2.49" fill="#ff5f7a" opacity="0.35"/><circle cx="548.71" cy="379.14" r="2.84" fill="#ff8e2d" opacity="0.45"/><circle cx="427.08" cy="914.79" r="2.91" fill="#ff5f7a" opacity="0.26"/><circle cx="125.81" cy="605.88" r="3.86" fill="#ff8e2d" opacity="0.42"/><circle cx="522.06" cy="321.06" r="3.42" fill="#ff5f7a" opacity="0.35"/><circle cx="406.96" cy="955.13" r="2.24" fill="#ff8e2d" opacity="0.42"/><circle cx="480.47" cy="984.65" r="3.72" fill="#ff5f7a" opacity="0.29"/><circle cx="594.58" cy="712.12" r="1.80" fill="#ff8e2d" opacity="0.70"/><circle cx="670.77" cy="917.79" r="1.70" fill="#ff5f7a" opacity="0.45"/><circle cx="18.85" cy="245.40" r="3.23" fill="#ff8e2d" opacity="0.37"/><circle cx="549.93" cy="64.70" r="4.10" fill="#ff5f7a" opacity="0.42"/><circle cx="187.52" cy="3.90" r="1.62" fill="#ff8e2d" opacity="0.65"/><circle cx="47.57" cy="679.32" r="3.59" fill="#ff5f7a" opacity="0.67"/><circle cx="628.97" cy="620.10" r="3.29" fill="#ff8e2d" opacity="0.57"/>
  </g>

  <rect x="16" y="16" width="736" height="992" rx="24" stroke="url(#edge-ember-arcanist-c06)" stroke-width="2.5" opacity="0.85"/>
  <rect x="22" y="22" width="724" height="980" rx="20" stroke="#8aa0c4" stroke-width="2" opacity="0.74"/>

  <rect x="34" y="34" width="700" height="72" rx="14" fill="#070b14" fill-opacity="0.72" stroke="#8aa0c4" stroke-opacity="0.55"/>
  <text x="54" y="80" fill="#EAF4FF" font-family="Exo 2, Segoe UI, sans-serif" font-size="32" font-weight="700">Ember Arcanist</text>

  <rect x="34" y="872" width="700" height="92" rx="14" fill="#070b14" fill-opacity="0.74" stroke="#8aa0c4" stroke-opacity="0.6"/>
  <text x="54" y="924" fill="#D9E7FF" font-family="Exo 2, Segoe UI, sans-serif" font-size="30" font-weight="600">Skirmisher</text>

  <rect x="598" y="36" width="118" height="42" rx="10" fill="#8aa0c4" fill-opacity="0.2" stroke="#8aa0c4" stroke-opacity="0.8"/>
  <text x="612" y="65" fill="#8aa0c4" font-family="Exo 2, Segoe UI, sans-serif" font-size="20" font-weight="700">COMMON</text>

  <circle cx="708" cy="954" r="26" fill="#080d18" stroke="#8aa0c4" stroke-opacity="0.8"/>
  <text x="696" y="962" fill="#E7F2FF" font-family="Exo 2, Segoe UI, sans-serif" font-size="24" font-weight="700">06</text>
</svg>