<?xml version="1.0" encoding="UTF-8"?>
<svg width="768" height="1024" viewBox="0 0 768 1024" fill="none" xmlns="http://www.w3.org/2000/svg">
  <defs>
    <linearGradient id="bg-ember-arcanist-c31" x1="60" y1="40" x2="728" y2="1004" gradientUnits="userSpaceOnUse">
      <stop offset="0" stop-color="#25120a"/>
      <stop offset="0.55" stop-color="#8c2b12"/>
      <stop offset="1" stop-color="#25120a"/>
    </linearGradient>
    <radialGradient id="glow-ember-arcanist-c31" cx="0" cy="0" r="1" gradientUnits="userSpaceOnUse" gradientTransform="translate(200.22 238.92) rotate(90) scale(256.55 256.55)">
      <stop stop-color="#ff8e2d" stop-opacity="0.45"/>
      <stop offset="1" stop-color="#ff8e2d" stop-opacity="0"/>
    </radialGradient>
    <linearGradient id="edge-ember-arcanist-c31" x1="0" y1="0" x2="768" y2="1024" gradientUnits="userSpaceOnUse">
      <stop stop-color="#ff8e2d" stop-opacity="0.85"/>
      <stop offset="1" stop-color="#ff5f7a" stop-opacity="0.85"/>
    </linearGradient>
  </defs>

  <rect x="0" y="0" width="768" height="1024" rx="32" fill="#060910"/>
  <rect x="16" y="16" width="736" height="992" rx="24" fill="url(#bg-ember-arcanist-c31)"/>
  <rect x="16" y="16" width="736" height="992" rx="24" fill="url(#glow-ember-arcanist-c31)"/>

  <g opacity="0.88">
    <circle cx="384" cy="552.96" r="70" fill="none" stroke="#ff5f7a" stroke-width="7" opacity="0.75"/><circle cx="384" cy="552.96" r="108" fill="none" stroke="#ff8e2d" stroke-width="3" opacity="0.63"/><circle cx="384" cy="552.96" r="146" fill="none" stroke="#ff5f7a" stroke-width="3" opacity="0.51"/><circle cx="384" cy="552.96" r="184" fill="none" stroke="#ff8e2d" stroke-width="3" opacity="0.39"/><path d="M344,552.96 L384,496.96000000000004 L424,552.96 L384,608.96 Z" fill="none" stroke="#ff5f7a" stroke-width="6" opacity="0.9"/>
  </g>

  <g opacity="0.8">
    <circle cx="347.70" cy="437.82" r="4.90" fill="#ff5f7a" opacity="0.27"/><circle cx="508.56" cy="23.53" r="3.02" fill="#ff8e2d" opacity="0.69"/><circle cx="276.32" cy="749.99" r="1.61" fill="#ff5f7a" opacity="0.25"/><circle cx="330.67" cy="644.50" r="3.00" fill="#ff8e2d" opacity="0.33"/><circle cx="343.39" cy="334.29" r="1.89" fill="#ff5f7a" opacity="0.32"/><circle cx="710.87" cy="542.37" r="2.95" fill="#ff8e2d" opacity="0.36"/><circle cx="589.36" cy="437.05" r="3.88" fill="#ff5f7a" opacity="0.58"/><circle cx="139.58" cy="506.58" r="3.10" fill="#ff8e2d" opacity="0.59"/><circle cx="262.83" cy="695.21" r="2.72" fill="#ff5f7a" opacity="0.70"/><circle cx="723.21" cy="874.85" r="4.07" fill="#ff8e2d" opacity="0.62"/><circle cx="296.92" cy="740.64" r="5.00" fill="#ff5f7a" opacity="0.63"/><circle cx="600.88" cy="795.28" r="2.22" fill="#ff8e2d" opacity="0.46"/><circle cx="698.11" cy="23.03" r="2.57" fill="#ff5f7a" opacity="0.67"/><circle cx="468.70" cy="322.61" r="1.57" fill="#ff8e2d" opacity="0.28"/><circle cx="278.66" cy="554.42" r="4.98" fill="#ff5f7a" opacity="0.54"/><circle cx="265.05" cy="522.53" r="4.65" fill="#ff8e2d" opacity="0.64"/><circle cx="232.54" cy="229.30" r="2.07" fill="#ff5f7a" opacity="0.40"/><circle cx="381.93" cy="617.82" r="3.31" fill="#ff8e2d" opacity="0.45"/><circle cx="182.61" cy="1014.08" r="4.29" fill="#ff5f7a" opacity="0.57"/><circle cx="657.60" cy="19.76" r="1.67" fill="#ff8e2d" opacity="0.40"/><circle cx="119.21" cy="598.50" r="4.01" fill="#ff5f7a" opacity="0.57"/><circle cx="82.23" cy="107.18" r="4.27" fill="#ff8e2d" opacity="0.44"/><circle cx="407.33" cy="588.04" r="1.45" fill="#ff5f7a" opacity="0.32"/><circle cx="61.76" cy="826.51" r="4.61" fill="#ff8e2d" opacity="0.36"/><circle cx="683.83" cy="660.71" r="1.48" fill="#ff5f7a" opacity="0.47"/><circle cx="288.42" cy="517.98" r="4.55" fill="#ff8e2d" opacity="0.64"/><circle cx="439.52" cy="905.97" r="1.48" fill="#ff5f7a" opacity="0.29"/><circle cx="288.60" cy="834.46" r="2.99" fill="#ff8e2d" opacity="0.64"/>
  </g>

  <rect x="16" y="16" width="736" height="992" rx="24" stroke="url(#edge-ember-arcanist-c31)" stroke-width="2.5" opacity="0.85"/>
  <rect x="22" y="22" width="724" height="980" rx="20" stroke="#78d8ff" stroke-width="2" opacity="0.74"/>

  <rect x="34" y="34" width="700" height="72" rx="14" fill="#070b14" fill-opacity="0.72" stroke="#78d8ff" stroke-opacity="0.55"/>
  <text x="54" y="80" fill="#EAF4FF" font-family="Exo 2, Segoe UI, sans-serif" font-size="32" font-weight="700">Ember Arcanist</text>

  <rect x="34" y="872" width="700" height="92" rx="14" fill="#070b14" fill-opacity="0.74" stroke="#78d8ff" stroke-opacity="0.6"/>
  <text x="54" y="924" fill="#D9E7FF" font-family="Exo 2, Segoe UI, sans-serif" font-size="30" font-weight="600">Twin Vanguard</text>

  <rect x="598" y="36" width="118" height="42" rx="10" fill="#78d8ff" fill-opacity="0.2" stroke="#78d8ff" stroke-opacity="0.8"/>
  <text x="612" y="65" fill="#78d8ff" font-family="Exo 2, Segoe UI, sans-serif" font-size="20" font-weight="700">RARE</text>

  <circle cx="708" cy="954" r="26" fill="#080d18" stroke="#78d8ff" stroke-opacity="0.8"/>
  <text x="696" y="962" fill="#E7F2FF" font-family="Exo 2, Segoe UI, sans-serif" font-size="24" font-weight="700">31</text>
</svg>