<?xml version="1.0" encoding="UTF-8"?>
<svg width="768" height="1024" viewBox="0 0 768 1024" fill="none" xmlns="http://www.w3.org/2000/svg">
  <defs>
    <linearGradient id="bg-ember-arcanist-c46" x1="60" y1="40" x2="728" y2="1004" gradientUnits="userSpaceOnUse">
      <stop offset="0" stop-color="#25120a"/>
      <stop offset="0.55" stop-color="#8c2b12"/>
      <stop offset="1" stop-color="#25120a"/>
    </linearGradient>
    <radialGradient id="glow-ember-arcanist-c46" cx="0" cy="0" r="1" gradientUnits="userSpaceOnUse" gradientTransform="translate(392.30 421.05) rotate(90) scale(200.75 200.75)">
      <stop stop-color="#ff8e2d" stop-opacity="0.45"/>
      <stop offset="1" stop-color="#ff8e2d" stop-opacity="0"/>
    </radialGradient>
    <linearGradient id="edge-ember-arcanist-c46" x1="0" y1="0" x2="768" y2="1024" gradientUnits="userSpaceOnUse">
      <stop stop-color="#ff8e2d" stop-opacity="0.85"/>
      <stop offset="1" stop-color="#ff5f7a" stop-opacity="0.85"/>
    </linearGradient>
  </defs>

  <rect x="0" y="0" width="768" height="1024" rx="32" fill="#060910"/>
  <rect x="16" y="16" width="736" height="992" rx="24" fill="url(#bg-ember-arcanist-c46)"/>
  <rect x="16" y="16" width="736" height="992" rx="24" fill="url(#glow-ember-arcanist-c46)"/>

  <g opacity="0.88">
    <circle cx="384" cy="552.96" r="70" fill="none" stroke="#ff5f7a" stroke-width="7" opacity="0.75"/><circle cx="384" cy="552.96" r="108" fill="none" stroke="#ff8e2d" stroke-width="3" opacity="0.63"/><circle cx="384" cy="552.96" r="146" fill="none" stroke="#ff5f7a" stroke-width="3" opacity="0.51"/><circle cx="384" cy="552.96" r="184" fill="none" stroke="#ff8e2d" stroke-width="3" opacity="0.39"/><path d="M344,552.96 L384,496.96000000000004 L424,552.96 L384,608.96 Z" fill="none" stroke="#ff5f7a" stroke-width="6" opacity="0.9"/>
  </g>

  <g opacity="0.8">
    <circle cx="595.79" cy="665.87" r="4.07" fill="#ff5f7a" opacity="0.26"/><circle cx="558.57" cy="402.02" r="3.84" fill="#ff8e2d" opacity="0.47"/><circle cx="589.56" cy="349.06" r="4.31" fill="#ff5f7a" opacity="0.35"/><circle cx="50.52" cy="687.14" r="2.88" fill="#ff8e2d" opacity="0.35"/><circle cx="645.18" cy="607.82" r="4.30" fill="#ff5f7a" opacity="0.30"/><circle cx="159.99" cy="277.07" r="3.01" fill="#ff8e2d" opacity="0.25"/><circle cx="51.54" cy="402.05" r="4.40" fill="#ff5f7a" opacity="0.29"/><circle cx="386.43" cy="332.64" r="1.84" fill="#ff8e2d" opacity="0.27"/><circle cx="298.15" cy="272.48" r="3.39" fill="#ff5f7a" opacity="0.60"/><circle cx="112.97" cy="907.48" r="3.76" fill="#ff8e2d" opacity="0.73"/><circle cx="73.98" cy="917.38" r="2.61" fill="#ff5f7a" opacity="0.28"/><circle cx="622.00" cy="644.97" r="4.57" fill="#ff8e2d" opacity="0.33"/><circle cx="76.56" cy="305.76" r="2.97" fill="#ff5f7a" opacity="0.35"/><circle cx="19.97" cy="727.71" r="3.48" fill="#ff8e2d" opacity="0.30"/><circle cx="60.98" cy="488.93" r="2.32" fill="#ff5f7a" opacity="0.32"/><circle cx="624.40" cy="911.01" r="3.23" fill="#ff8e2d" opacity="0.39"/><circle cx="617.21" cy="678.74" r="1.53" fill="#ff5f7a" opacity="0.46"/><circle cx="112.44" cy="153.71" r="3.53" fill="#ff8e2d" opacity="0.70"/><circle cx="27.67" cy="881.48" r="3.58" fill="#ff5f7a" opacity="0.56"/><circle cx="326.24" cy="767.23" r="2.29" fill="#ff8e2d" opacity="0.27"/><circle cx="150.76" cy="1002.37" r="2.17" fill="#ff5f7a" opacity="0.55"/><circle cx="248.47" cy="41.18" r="3.47" fill="#ff8e2d" opacity="0.46"/><circle cx="445.09" cy="405.77" r="4.92" fill="#ff5f7a" opacity="0.59"/><circle cx="492.17" cy="954.63" r="4.39" fill="#ff8e2d" opacity="0.46"/><circle cx="274.13" cy="229.81" r="4.08" fill="#ff5f7a" opacity="0.61"/><circle cx="190.28" cy="191.57" r="3.56" fill="#ff8e2d" opacity="0.33"/><circle cx="202.65" cy="286.95" r="1.25" fill="#ff5f7a" opacity="0.68"/><circle cx="462.22" cy="973.03" r="2.45" fill="#ff8e2d" opacity="0.56"/>
  </g>

  <rect x="16" y="16" width="736" height="992" rx="24" stroke="url(#edge-ember-arcanist-c46)" stroke-width="2.5" opacity="0.85"/>
  <rect x="22" y="22" width="724" height="980" rx="20" stroke="#f0a0ff" stroke-width="2" opacity="0.74"/>

  <rect x="34" y="34" width="700" height="72" rx="14" fill="#070b14" fill-opacity="0.72" stroke="#f0a0ff" stroke-opacity="0.55"/>
  <text x="54" y="80" fill="#EAF4FF" font-family="Exo 2, Segoe UI, sans-serif" font-size="32" font-weight="700">Ember Arcanist</text>

  <rect x="34" y="872" width="700" height="92" rx="14" fill="#070b14" fill-opacity="0.74" stroke="#f0a0ff" stroke-opacity="0.6"/>
  <text x="54" y="924" fill="#D9E7FF" font-family="Exo 2, Segoe UI, sans-serif" font-size="30" font-weight="600">Epic Denial</text>

  <rect x="598" y="36" width="118" height="42" rx="10" fill="#f0a0ff" fill-opacity="0.2" stroke="#f0a0ff" stroke-opacity="0.8"/>
  <text x="612" y="65" fill="#f0a0ff" font-family="Exo 2, Segoe UI, sans-serif" font-size="20" font-weight="700">EPIC</text>

  <circle cx="708" cy="954" r="26" fill="#080d18" stroke="#f0a0ff" stroke-opacity="0.8"/>
  <text x="696" y="962" fill="#E7F2FF" font-family="Exo 2, Segoe UI, sans-serif" font-size="24" font-weight="700">46</text>
</svg>