<?xml version="1.0" encoding="UTF-8"?>
<svg width="768" height="1024" viewBox="0 0 768 1024" fill="none" xmlns="http://www.w3.org/2000/svg">
  <defs>
    <linearGradient id="bg-ember-arcanist-c34" x1="60" y1="40" x2="728" y2="1004" gradientUnits="userSpaceOnUse">
      <stop offset="0" stop-color="#25120a"/>
      <stop offset="0.55" stop-color="#8c2b12"/>
      <stop offset="1" stop-color="#25120a"/>
    </linearGradient>
    <radialGradient id="glow-ember-arcanist-c34" cx="0" cy="0" r="1" gradientUnits="userSpaceOnUse" gradientTransform="translate(232.95 681.57) rotate(90) scale(293.12 293.12)">
      <stop stop-color="#ff8e2d" stop-opacity="0.45"/>
      <stop offset="1" stop-color="#ff8e2d" stop-opacity="0"/>
    </radialGradient>
    <linearGradient id="edge-ember-arcanist-c34" x1="0" y1="0" x2="768" y2="1024" gradientUnits="userSpaceOnUse">
      <stop stop-color="#ff8e2d" stop-opacity="0.85"/>
      <stop offset="1" stop-color="#ff5f7a" stop-opacity="0.85"/>
    </linearGradient>
  </defs>

  <rect x="0" y="0" width="768" height="1024" rx="32" fill="#060910"/>
  <rect x="16" y="16" width="736" height="992" rx="24" fill="url(#bg-ember-arcanist-c34)"/>
  <rect x="16" y="16" width="736" height="992" rx="24" fill="url(#glow-ember-arcanist-c34)"/>

  <g opacity="0.88">
    <circle cx="384" cy="552.96" r="70" fill="none" stroke="#ff5f7a" stroke-width="7" opacity="0.75"/><circle cx="384" cy="552.96" r="108" fill="none" stroke="#ff8e2d" stroke-width="3" opacity="0.63"/><circle cx="384" cy="552.96" r="146" fill="none" stroke="#ff5f7a" stroke-width="3" opacity="0.51"/><circle cx="384" cy="552.96" r="184" fill="none" stroke="#ff8e2d" stroke-width="3" opacity="0.39"/><path d="M344,552.96 L384,496.96000000000004 L424,552.96 L384,608.96 Z" fill="none" stroke="#ff5f7a" stroke-width="6" opacity="0.9"/>
  </g>

  <g opacity="0.8">
    <circle cx="520.24" cy="189.95" r="2.41" fill="#ff5f7a" opacity="0.43"/><circle cx="523.83" cy="802.25" r="2.20" fill="#ff8e2d" opacity="0.65"/><circle cx="752.30" cy="214.59" r="2.26" fill="#ff5f7a" opacity="0.36"/><circle cx="481.33" cy="274.25" r="3.69" fill="#ff8e2d" opacity="0.56"/><circle cx="648.64" cy="585.03" r="2.38" fill="#ff5f7a" opacity="0.64"/><circle cx="263.79" cy="906.44" r="1.47" fill="#ff8e2d" opacity="0.64"/><circle cx="455.44" cy="461.85" r="3.69" fill="#ff5f7a" opacity="0.46"/><circle cx="251.05" cy="333.49" r="3.70" fill="#ff8e2d" opacity="0.73"/><circle cx="103.82" cy="381.25" r="2.04" fill="#ff5f7a" opacity="0.60"/><circle cx="433.38" cy="564.57" r="2.99" fill="#ff8e2d" opacity="0.47"/><circle cx="578.87" cy="198.50" r="4.84" fill="#ff5f7a" opacity="0.41"/><circle cx="254.76" cy="918.59" r="2.33" fill="#ff8e2d" opacity="0.51"/><circle cx="114.90" cy="684.03" r="2.87" fill="#ff5f7a" opacity="0.24"/><circle cx="35.08" cy="863.04" r="3.00" fill="#ff8e2d" opacity="0.54"/><circle cx="285.93" cy="711.23" r="1.49" fill="#ff5f7a" opacity="0.66"/><circle cx="484.74" cy="192.28" r="4.02" fill="#ff8e2d" opacity="0.63"/><circle cx="460.39" cy="864.55" r="2.62" fill="#ff5f7a" opacity="0.54"/><circle cx="81.14" cy="553.96" r="1.88" fill="#ff8e2d" opacity="0.73"/><circle cx="68.41" cy="594.65" r="2.69" fill="#ff5f7a" opacity="0.25"/><circle cx="47.01" cy="969.54" r="3.57" fill="#ff8e2d" opacity="0.64"/><circle cx="223.79" cy="213.60" r="1.34" fill="#ff5f7a" opacity="0.62"/><circle cx="290.57" cy="99.01" r="4.83" fill="#ff8e2d" opacity="0.53"/><circle cx="250.37" cy="700.31" r="4.77" fill="#ff5f7a" opacity="0.72"/><circle cx="561.48" cy="280.71" r="4.07" fill="#ff8e2d" opacity="0.68"/><circle cx="453.93" cy="283.19" r="2.40" fill="#ff5f7a" opacity="0.66"/><circle cx="46.88" cy="362.38" r="2.08" fill="#ff8e2d" opacity="0.54"/><circle cx="159.32" cy="907.16" r="2.00" fill="#ff5f7a" opacity="0.55"/><circle cx="171.44" cy="840.15" r="3.71" fill="#ff8e2d" opacity="0.65"/>
  </g>

  <rect x="16" y="16" width="736" height="992" rx="24" stroke="url(#edge-ember-arcanist-c34)" stroke-width="2.5" opacity="0.85"/>
  <rect x="22" y="22" width="724" height="980" rx="20" stroke="#78d8ff" stroke-width="2" opacity="0.74"/>

  <rect x="34" y="34" width="700" height="72" rx="14" fill="#070b14" fill-opacity="0.72" stroke="#78d8ff" stroke-opacity="0.55"/>
  <text x="54" y="80" fill="#EAF4FF" font-family="Exo 2, Segoe UI, sans-serif" font-size="32" font-weight="700">Ember Arcanist</text>

  <rect x="34" y="872" width="700" height="92" rx="14" fill="#070b14" fill-opacity="0.74" stroke="#78d8ff" stroke-opacity="0.6"/>
  <text x="54" y="924" fill="#D9E7FF" font-family="Exo 2, Segoe UI, sans-serif" font-size="30" font-weight="600">Arc Ping</text>

  <rect x="598" y="36" width="118" height="42" rx="10" fill="#78d8ff" fill-opacity="0.2" stroke="#78d8ff" stroke-opacity="0.8"/>
  <text x="612" y="65" fill="#78d8ff" font-family="Exo 2, Segoe UI, sans-serif" font-size="20" font-weight="700">RARE</text>

  <circle cx="708" cy="954" r="26" fill="#080d18" stroke="#78d8ff" stroke-opacity="0.8"/>
  <text x="696" y="962" fill="#E7F2FF" font-family="Exo 2, Segoe UI, sans-serif" font-size="24" font-weight="700">34</text>
</svg>