<?xml version="1.0" encoding="UTF-8"?>
<svg width="768" height="1024" viewBox="0 0 768 1024" fill="none" xmlns="http://www.w3.org/2000/svg">
  <defs>
    <linearGradient id="bg-ember-arcanist-c35" x1="60" y1="40" x2="728" y2="1004" gradientUnits="userSpaceOnUse">
      <stop offset="0" stop-color="#25120a"/>
      <stop offset="0.55" stop-color="#8c2b12"/>
      <stop offset="1" stop-color="#25120a"/>
    </linearGradient>
    <radialGradient id="glow-ember-arcanist-c35" cx="0" cy="0" r="1" gradientUnits="userSpaceOnUse" gradientTransform="translate(342.05 632.24) rotate(90) scale(296.77 296.77)">
      <stop stop-color="#ff8e2d" stop-opacity="0.45"/>
      <stop offset="1" stop-color="#ff8e2d" stop-opacity="0"/>
    </radialGradient>
    <linearGradient id="edge-ember-arcanist-c35" x1="0" y1="0" x2="768" y2="1024" gradientUnits="userSpaceOnUse">
      <stop stop-color="#ff8e2d" stop-opacity="0.85"/>
      <stop offset="1" stop-color="#ff5f7a" stop-opacity="0.85"/>
    </linearGradient>
  </defs>

  <rect x="0" y="0" width="768" height="1024" rx="32" fill="#060910"/>
  <rect x="16" y="16" width="736" height="992" rx="24" fill="url(#bg-ember-arcanist-c35)"/>
  <rect x="16" y="16" width="736" height="992" rx="24" fill="url(#glow-ember-arcanist-c35)"/>

  <g opacity="0.88">
    <circle cx="384" cy="552.96" r="70" fill="none" stroke="#ff5f7a" stroke-width="7" opacity="0.75"/><circle cx="384" cy="552.96" r="108" fill="none" stroke="#ff8e2d" stroke-width="3" opacity="0.63"/><circle cx="384" cy="552.96" r="146" fill="none" stroke="#ff5f7a" stroke-width="3" opacity="0.51"/><circle cx="384" cy="552.96" r="184" fill="none" stroke="#ff8e2d" stroke-width="3" opacity="0.39"/><path d="M344,552.96 L384,496.96000000000004 L424,552.96 L384,608.96 Z" fill="none" stroke="#ff5f7a" stroke-width="6" opacity="0.9"/>
  </g>

  <g opacity="0.8">
    <circle cx="729.03" cy="497.96" r="2.37" fill="#ff5f7a" opacity="0.25"/><circle cx="172.26" cy="655.13" r="3.63" fill="#ff8e2d" opacity="0.47"/><circle cx="578.48" cy="776.33" r="2.07" fill="#ff5f7a" opacity="0.39"/><circle cx="679.02" cy="364.09" r="1.49" fill="#ff8e2d" opacity="0.57"/><circle cx="255.34" cy="815.07" r="3.36" fill="#ff5f7a" opacity="0.73"/><circle cx="134.40" cy="505.39" r="3.77" fill="#ff8e2d" opacity="0.71"/><circle cx="535.73" cy="513.78" r="2.14" fill="#ff5f7a" opacity="0.55"/><circle cx="549.33" cy="308.84" r="4.80" fill="#ff8e2d" opacity="0.46"/><circle cx="367.57" cy="837.14" r="1.50" fill="#ff5f7a" opacity="0.30"/><circle cx="564.20" cy="413.11" r="4.37" fill="#ff8e2d" opacity="0.56"/><circle cx="724.33" cy="807.33" r="4.55" fill="#ff5f7a" opacity="0.35"/><circle cx="282.54" cy="639.41" r="4.06" fill="#ff8e2d" opacity="0.61"/><circle cx="284.14" cy="154.35" r="4.27" fill="#ff5f7a" opacity="0.54"/><circle cx="57.04" cy="250.99" r="1.74" fill="#ff8e2d" opacity="0.51"/><circle cx="708.81" cy="299.08" r="1.41" fill="#ff5f7a" opacity="0.48"/><circle cx="319.61" cy="559.41" r="3.78" fill="#ff8e2d" opacity="0.27"/><circle cx="201.20" cy="939.68" r="3.14" fill="#ff5f7a" opacity="0.63"/><circle cx="374.66" cy="947.21" r="3.64" fill="#ff8e2d" opacity="0.42"/><circle cx="46.78" cy="63.31" r="4.45" fill="#ff5f7a" opacity="0.63"/><circle cx="686.26" cy="15.35" r="4.91" fill="#ff8e2d" opacity="0.52"/><circle cx="597.57" cy="545.93" r="2.50" fill="#ff5f7a" opacity="0.40"/><circle cx="14.89" cy="821.62" r="3.92" fill="#ff8e2d" opacity="0.69"/><circle cx="395.12" cy="706.38" r="4.51" fill="#ff5f7a" opacity="0.71"/><circle cx="244.65" cy="262.79" r="2.61" fill="#ff8e2d" opacity="0.25"/><circle cx="626.52" cy="463.57" r="4.61" fill="#ff5f7a" opacity="0.43"/><circle cx="507.35" cy="476.27" r="2.38" fill="#ff8e2d" opacity="0.60"/><circle cx="299.84" cy="772.88" r="4.11" fill="#ff5f7a" opacity="0.51"/><circle cx="29.75" cy="721.16" r="4.44" fill="#ff8e2d" opacity="0.49"/>
  </g>

  <rect x="16" y="16" width="736" height="992" rx="24" stroke="url(#edge-ember-arcanist-c35)" stroke-width="2.5" opacity="0.85"/>
  <rect x="22" y="22" width="724" height="980" rx="20" stroke="#78d8ff" stroke-width="2" opacity="0.74"/>

  <rect x="34" y="34" width="700" height="72" rx="14" fill="#070b14" fill-opacity="0.72" stroke="#78d8ff" stroke-opacity="0.55"/>
  <text x="54" y="80" fill="#EAF4FF" font-family="Exo 2, Segoe UI, sans-serif" font-size="32" font-weight="700">Ember Arcanist</text>

  <rect x="34" y="872" width="700" height="92" rx="14" fill="#070b14" fill-opacity="0.74" stroke="#78d8ff" stroke-opacity="0.6"/>
  <text x="54" y="924" fill="#D9E7FF" font-family="Exo 2, Segoe UI, sans-serif" font-size="30" font-weight="600">Draw Filter</text>

  <rect x="598" y="36" width="118" height="42" rx="10" fill="#78d8ff" fill-opacity="0.2" stroke="#78d8ff" stroke-opacity="0.8"/>
  <text x="612" y="65" fill="#78d8ff" font-family="Exo 2, Segoe UI, sans-serif" font-size="20" font-weight="700">RARE</text>

  <circle cx="708" cy="954" r="26" fill="#080d18" stroke="#78d8ff" stroke-opacity="0.8"/>
  <text x="696" y="962" fill="#E7F2FF" font-family="Exo 2, Segoe UI, sans-serif" font-size="24" font-weight="700">35</text>
</svg>