<?xml version="1.0" encoding="UTF-8"?>
<svg width="768" height="1024" viewBox="0 0 768 1024" fill="none" xmlns="http://www.w3.org/2000/svg">
  <defs>
    <linearGradient id="bg-ember-arcanist-c49" x1="60" y1="40" x2="728" y2="1004" gradientUnits="userSpaceOnUse">
      <stop offset="0" stop-color="#25120a"/>
      <stop offset="0.55" stop-color="#8c2b12"/>
      <stop offset="1" stop-color="#25120a"/>
    </linearGradient>
    <radialGradient id="glow-ember-arcanist-c49" cx="0" cy="0" r="1" gradientUnits="userSpaceOnUse" gradientTransform="translate(410.75 547.95) rotate(90) scale(248.84 248.84)">
      <stop stop-color="#ff8e2d" stop-opacity="0.45"/>
      <stop offset="1" stop-color="#ff8e2d" stop-opacity="0"/>
    </radialGradient>
    <linearGradient id="edge-ember-arcanist-c49" x1="0" y1="0" x2="768" y2="1024" gradientUnits="userSpaceOnUse">
      <stop stop-color="#ff8e2d" stop-opacity="0.85"/>
      <stop offset="1" stop-color="#ff5f7a" stop-opacity="0.85"/>
    </linearGradient>
  </defs>

  <rect x="0" y="0" width="768" height="1024" rx="32" fill="#060910"/>
  <rect x="16" y="16" width="736" height="992" rx="24" fill="url(#bg-ember-arcanist-c49)"/>
  <rect x="16" y="16" width="736" height="992" rx="24" fill="url(#glow-ember-arcanist-c49)"/>

  <g opacity="0.88">
    <circle cx="384" cy="552.96" r="70" fill="none" stroke="#ff5f7a" stroke-width="7" opacity="0.75"/><circle cx="384" cy="552.96" r="108" fill="none" stroke="#ff8e2d" stroke-width="3" opacity="0.63"/><circle cx="384" cy="552.96" r="146" fill="none" stroke="#ff5f7a" stroke-width="3" opacity="0.51"/><circle cx="384" cy="552.96" r="184" fill="none" stroke="#ff8e2d" stroke-width="3" opacity="0.39"/><path d="M344,552.96 L384,496.96000000000004 L424,552.96 L384,608.96 Z" fill="none" stroke="#ff5f7a" stroke-width="6" opacity="0.9"/>
  </g>

  <g opacity="0.8">
    <circle cx="172.11" cy="523.55" r="2.35" fill="#ff5f7a" opacity="0.61"/><circle cx="125.14" cy="268.69" r="3.34" fill="#ff8e2d" opacity="0.44"/><circle cx="615.65" cy="331.22" r="1.53" fill="#ff5f7a" opacity="0.36"/><circle cx="511.08" cy="971.96" r="2.73" fill="#ff8e2d" opacity="0.68"/><circle cx="606.29" cy="221.81" r="1.61" fill="#ff5f7a" opacity="0.66"/><circle cx="178.36" cy="473.66" r="3.84" fill="#ff8e2d" opacity="0.72"/><circle cx="447.63" cy="553.60" r="3.14" fill="#ff5f7a" opacity="0.35"/><circle cx="447.43" cy="469.16" r="1.99" fill="#ff8e2d" opacity="0.68"/><circle cx="78.09" cy="55.84" r="3.99" fill="#ff5f7a" opacity="0.33"/><circle cx="503.40" cy="429.01" r="4.83" fill="#ff8e2d" opacity="0.24"/><circle cx="445.35" cy="113.34" r="3.51" fill="#ff5f7a" opacity="0.68"/><circle cx="703.20" cy="23.70" r="3.96" fill="#ff8e2d" opacity="0.73"/><circle cx="99.91" cy="93.06" r="4.55" fill="#ff5f7a" opacity="0.42"/><circle cx="562.10" cy="353.89" r="4.76" fill="#ff8e2d" opacity="0.36"/><circle cx="637.09" cy="991.25" r="3.55" fill="#ff5f7a" opacity="0.71"/><circle cx="203.72" cy="838.83" r="1.70" fill="#ff8e2d" opacity="0.24"/><circle cx="445.95" cy="151.85" r="4.28" fill="#ff5f7a" opacity="0.41"/><circle cx="502.15" cy="394.15" r="2.13" fill="#ff8e2d" opacity="0.58"/><circle cx="632.91" cy="68.06" r="4.35" fill="#ff5f7a" opacity="0.58"/><circle cx="316.55" cy="853.90" r="3.10" fill="#ff8e2d" opacity="0.45"/><circle cx="403.98" cy="500.19" r="4.72" fill="#ff5f7a" opacity="0.45"/><circle cx="189.45" cy="38.93" r="4.32" fill="#ff8e2d" opacity="0.30"/><circle cx="156.85" cy="453.86" r="2.03" fill="#ff5f7a" opacity="0.73"/><circle cx="376.57" cy="714.21" r="4.79" fill="#ff8e2d" opacity="0.57"/><circle cx="688.91" cy="158.89" r="3.10" fill="#ff5f7a" opacity="0.36"/><circle cx="617.81" cy="558.60" r="2.42" fill="#ff8e2d" opacity="0.48"/><circle cx="560.91" cy="338.81" r="2.75" fill="#ff5f7a" opacity="0.45"/><circle cx="687.62" cy="204.96" r="4.66" fill="#ff8e2d" opacity="0.49"/>
  </g>

  <rect x="16" y="16" width="736" height="992" rx="24" stroke="url(#edge-ember-arcanist-c49)" stroke-width="2.5" opacity="0.85"/>
  <rect x="22" y="22" width="724" height="980" rx="20" stroke="#f0a0ff" stroke-width="2" opacity="0.74"/>

  <rect x="34" y="34" width="700" height="72" rx="14" fill="#070b14" fill-opacity="0.72" stroke="#f0a0ff" stroke-opacity="0.55"/>
  <text x="54" y="80" fill="#EAF4FF" font-family="Exo 2, Segoe UI, sans-serif" font-size="32" font-weight="700">Ember Arcanist</text>

  <rect x="34" y="872" width="700" height="92" rx="14" fill="#070b14" fill-opacity="0.74" stroke="#f0a0ff" stroke-opacity="0.6"/>
  <text x="54" y="924" fill="#D9E7FF" font-family="Exo 2, Segoe UI, sans-serif" font-size="30" font-weight="600">Identity Ritual</text>

  <rect x="598" y="36" width="118" height="42" rx="10" fill="#f0a0ff" fill-opacity="0.2" stroke="#f0a0ff" stroke-opacity="0.8"/>
  <text x="612" y="65" fill="#f0a0ff" font-family="Exo 2, Segoe UI, sans-serif" font-size="20" font-weight="700">EPIC</text>

  <circle cx="708" cy="954" r="26" fill="#080d18" stroke="#f0a0ff" stroke-opacity="0.8"/>
  <text x="696" y="962" fill="#E7F2FF" font-family="Exo 2, Segoe UI, sans-serif" font-size="24" font-weight="700">49</text>
</svg>