<?xml version="1.0" encoding="UTF-8"?>
<svg width="768" height="1024" viewBox="0 0 768 1024" fill="none" xmlns="http://www.w3.org/2000/svg">
  <defs>
    <linearGradient id="bg-ember-arcanist-c08" x1="60" y1="40" x2="728" y2="1004" gradientUnits="userSpaceOnUse">
      <stop offset="0" stop-color="#25120a"/>
      <stop offset="0.55" stop-color="#8c2b12"/>
      <stop offset="1" stop-color="#25120a"/>
    </linearGradient>
    <radialGradient id="glow-ember-arcanist-c08" cx="0" cy="0" r="1" gradientUnits="userSpaceOnUse" gradientTransform="translate(417.96 776.95) rotate(90) scale(180.80 180.80)">
      <stop stop-color="#ff8e2d" stop-opacity="0.45"/>
      <stop offset="1" stop-color="#ff8e2d" stop-opacity="0"/>
    </radialGradient>
    <linearGradient id="edge-ember-arcanist-c08" x1="0" y1="0" x2="768" y2="1024" gradientUnits="userSpaceOnUse">
      <stop stop-color="#ff8e2d" stop-opacity="0.85"/>
      <stop offset="1" stop-color="#ff5f7a" stop-opacity="0.85"/>
    </linearGradient>
  </defs>

  <rect x="0" y="0" width="768" height="1024" rx="32" fill="#060910"/>
  <rect x="16" y="16" width="736" height="992" rx="24" fill="url(#bg-ember-arcanist-c08)"/>
  <rect x="16" y="16" width="736" height="992" rx="24" fill="url(#glow-ember-arcanist-c08)"/>

  <g opacity="0.88">
    <circle cx="384" cy="552.96" r="70" fill="none" stroke="#ff5f7a" stroke-width="7" opacity="0.75"/><circle cx="384" cy="552.96" r="108" fill="none" stroke="#ff8e2d" stroke-width="3" opacity="0.63"/><circle cx="384" cy="552.96" r="146" fill="none" stroke="#ff5f7a" stroke-width="3" opacity="0.51"/><circle cx="384" cy="552.96" r="184" fill="none" stroke="#ff8e2d" stroke-width="3" opacity="0.39"/><path d="M344,552.96 L384,496.96000000000004 L424,552.96 L384,608.96 Z" fill="none" stroke="#ff5f7a" stroke-width="6" opacity="0.9"/>
  </g>

  <g opacity="0.8">
    <circle cx="425.93" cy="17.54" r="1.42" fill="#ff5f7a" opacity="0.32"/><circle cx="301.02" cy="117.58" r="3.30" fill="#ff8e2d" opacity="0.63"/><circle cx="637.21" cy="603.85" r="4.11" fill="#ff5f7a" opacity="0.43"/><circle cx="726.75" cy="547.41" r="3.68" fill="#ff8e2d" opacity="0.30"/><circle cx="611.16" cy="769.63" r="3.51" fill="#ff5f7a" opacity="0.66"/><circle cx="606.07" cy="648.03" r="2.13" fill="#ff8e2d" opacity="0.44"/><circle cx="684.41" cy="136.30" r="2.27" fill="#ff5f7a" opacity="0.44"/><circle cx="182.59" cy="607.37" r="1.26" fill="#ff8e2d" opacity="0.54"/><circle cx="704.79" cy="373.06" r="2.23" fill="#ff5f7a" opacity="0.56"/><circle cx="461.46" cy="647.85" r="4.54" fill="#ff8e2d" opacity="0.70"/><circle cx="634.26" cy="430.11" r="2.14" fill="#ff5f7a" opacity="0.58"/><circle cx="444.86" cy="1006.27" r="4.78" fill="#ff8e2d" opacity="0.48"/><circle cx="244.45" cy="824.86" r="2.93" fill="#ff5f7a" opacity="0.42"/><circle cx="190.22" cy="395.46" r="1.96" fill="#ff8e2d" opacity="0.40"/><circle cx="668.09" cy="252.26" r="4.65" fill="#ff5f7a" opacity="0.56"/><circle cx="726.42" cy="14.37" r="3.04" fill="#ff8e2d" opacity="0.26"/><circle cx="664.09" cy="191.81" r="3.64" fill="#ff5f7a" opacity="0.40"/><circle cx="523.74" cy="695.99" r="2.69" fill="#ff8e2d" opacity="0.33"/><circle cx="96.78" cy="293.58" r="4.79" fill="#ff5f7a" opacity="0.72"/><circle cx="671.69" cy="49.29" r="4.44" fill="#ff8e2d" opacity="0.31"/><circle cx="344.46" cy="951.33" r="3.66" fill="#ff5f7a" opacity="0.24"/><circle cx="302.21" cy="918.80" r="3.27" fill="#ff8e2d" opacity="0.36"/><circle cx="174.44" cy="712.15" r="3.92" fill="#ff5f7a" opacity="0.30"/><circle cx="155.25" cy="453.84" r="4.85" fill="#ff8e2d" opacity="0.71"/><circle cx="256.44" cy="854.33" r="4.67" fill="#ff5f7a" opacity="0.59"/><circle cx="531.59" cy="100.89" r="2.33" fill="#ff8e2d" opacity="0.30"/><circle cx="667.47" cy="574.51" r="2.53" fill="#ff5f7a" opacity="0.52"/><circle cx="303.93" cy="293.01" r="2.59" fill="#ff8e2d" opacity="0.25"/>
  </g>

  <rect x="16" y="16" width="736" height="992" rx="24" stroke="url(#edge-ember-arcanist-c08)" stroke-width="2.5" opacity="0.85"/>
  <rect x="22" y="22" width="724" height="980" rx="20" stroke="#8aa0c4" stroke-width="2" opacity="0.74"/>

  <rect x="34" y="34" width="700" height="72" rx="14" fill="#070b14" fill-opacity="0.72" stroke="#8aa0c4" stroke-opacity="0.55"/>
  <text x="54" y="80" fill="#EAF4FF" font-family="Exo 2, Segoe UI, sans-serif" font-size="32" font-weight="700">Ember Arcanist</text>

  <rect x="34" y="872" width="700" height="92" rx="14" fill="#070b14" fill-opacity="0.74" stroke="#8aa0c4" stroke-opacity="0.6"/>
  <text x="54" y="924" fill="#D9E7FF" font-family="Exo 2, Segoe UI, sans-serif" font-size="30" font-weight="600">Guardian</text>

  <rect x="598" y="36" width="118" height="42" rx="10" fill="#8aa0c4" fill-opacity="0.2" stroke="#8aa0c4" stroke-opacity="0.8"/>
  <text x="612" y="65" fill="#8aa0c4" font-family="Exo 2, Segoe UI, sans-serif" font-size="20" font-weight="700">COMMON</text>

  <circle cx="708" cy="954" r="26" fill="#080d18" stroke="#8aa0c4" stroke-opacity="0.8"/>
  <text x="696" y="962" fill="#E7F2FF" font-family="Exo 2, Segoe UI, sans-serif" font-size="24" font-weight="700">08</text>
</svg>