<?xml version="1.0" encoding="UTF-8"?>
<svg width="768" height="1024" viewBox="0 0 768 1024" fill="none" xmlns="http://www.w3.org/2000/svg">
  <defs>
    <linearGradient id="bg-ember-arcanist-c52" x1="60" y1="40" x2="728" y2="1004" gradientUnits="userSpaceOnUse">
      <stop offset="0" stop-color="#25120a"/>
      <stop offset="0.55" stop-color="#8c2b12"/>
      <stop offset="1" stop-color="#25120a"/>
    </linearGradient>
    <radialGradient id="glow-ember-arcanist-c52" cx="0" cy="0" r="1" gradientUnits="userSpaceOnUse" gradientTransform="translate(306.26 152.86) rotate(90) scale(222.27 222.27)">
      <stop stop-color="#ff8e2d" stop-opacity="0.45"/>
      <stop offset="1" stop-color="#ff8e2d" stop-opacity="0"/>
    </radialGradient>
    <linearGradient id="edge-ember-arcanist-c52" x1="0" y1="0" x2="768" y2="1024" gradientUnits="userSpaceOnUse">
      <stop stop-color="#ff8e2d" stop-opacity="0.85"/>
      <stop offset="1" stop-color="#ff5f7a" stop-opacity="0.85"/>
    </linearGradient>
  </defs>

  <rect x="0" y="0" width="768" height="1024" rx="32" fill="#060910"/>
  <rect x="16" y="16" width="736" height="992" rx="24" fill="url(#bg-ember-arcanist-c52)"/>
  <rect x="16" y="16" width="736" height="992" rx="24" fill="url(#glow-ember-arcanist-c52)"/>

  <g opacity="0.88">
    <circle cx="384" cy="552.96" r="70" fill="none" stroke="#ff5f7a" stroke-width="7" opacity="0.75"/><circle cx="384" cy="552.96" r="108" fill="none" stroke="#ff8e2d" stroke-width="3" opacity="0.63"/><circle cx="384" cy="552.96" r="146" fill="none" stroke="#ff5f7a" stroke-width="3" opacity="0.51"/><circle cx="384" cy="552.96" r="184" fill="none" stroke="#ff8e2d" stroke-width="3" opacity="0.39"/><path d="M344,552.96 L384,496.96000000000004 L424,552.96 L384,608.96 Z" fill="none" stroke="#ff5f7a" stroke-width="6" opacity="0.9"/>
  </g>

  <g opacity="0.8">
    <circle cx="189.22" cy="718.96" r="1.55" fill="#ff5f7a" opacity="0.62"/><circle cx="304.60" cy="335.64" r="2.29" fill="#ff8e2d" opacity="0.47"/><circle cx="740.51" cy="221.19" r="1.97" fill="#ff5f7a" opacity="0.33"/><circle cx="351.14" cy="160.79" r="2.85" fill="#ff8e2d" opacity="0.29"/><circle cx="493.41" cy="276.60" r="2.66" fill="#ff5f7a" opacity="0.31"/><circle cx="742.60" cy="627.63" r="3.00" fill="#ff8e2d" opacity="0.38"/><circle cx="121.99" cy="459.81" r="1.82" fill="#ff5f7a" opacity="0.43"/><circle cx="690.21" cy="913.62" r="2.75" fill="#ff8e2d" opacity="0.39"/><circle cx="630.72" cy="229.56" r="1.79" fill="#ff5f7a" opacity="0.60"/><circle cx="381.30" cy="414.03" r="3.92" fill="#ff8e2d" opacity="0.30"/><circle cx="594.29" cy="970.17" r="1.45" fill="#ff5f7a" opacity="0.28"/><circle cx="1.61" cy="796.67" r="4.26" fill="#ff8e2d" opacity="0.45"/><circle cx="460.66" cy="92.54" r="4.81" fill="#ff5f7a" opacity="0.72"/><circle cx="276.06" cy="649.85" r="1.79" fill="#ff8e2d" opacity="0.63"/><circle cx="17.57" cy="563.45" r="1.42" fill="#ff5f7a" opacity="0.61"/><circle cx="751.57" cy="461.10" r="1.30" fill="#ff8e2d" opacity="0.67"/><circle cx="716.26" cy="688.31" r="2.54" fill="#ff5f7a" opacity="0.31"/><circle cx="626.04" cy="379.33" r="3.77" fill="#ff8e2d" opacity="0.65"/><circle cx="580.66" cy="523.98" r="2.91" fill="#ff5f7a" opacity="0.68"/><circle cx="526.07" cy="206.66" r="1.45" fill="#ff8e2d" opacity="0.72"/><circle cx="616.25" cy="193.83" r="4.38" fill="#ff5f7a" opacity="0.45"/><circle cx="333.90" cy="736.89" r="3.89" fill="#ff8e2d" opacity="0.50"/><circle cx="71.36" cy="254.86" r="3.09" fill="#ff5f7a" opacity="0.45"/><circle cx="527.96" cy="129.31" r="3.64" fill="#ff8e2d" opacity="0.28"/><circle cx="706.76" cy="312.69" r="4.29" fill="#ff5f7a" opacity="0.70"/><circle cx="258.44" cy="288.43" r="2.97" fill="#ff8e2d" opacity="0.70"/><circle cx="536.28" cy="388.46" r="4.68" fill="#ff5f7a" opacity="0.33"/><circle cx="362.38" cy="610.43" r="3.13" fill="#ff8e2d" opacity="0.32"/>
  </g>

  <rect x="16" y="16" width="736" height="992" rx="24" stroke="url(#edge-ember-arcanist-c52)" stroke-width="2.5" opacity="0.85"/>
  <rect x="22" y="22" width="724" height="980" rx="20" stroke="#ffd978" stroke-width="2" opacity="0.74"/>

  <rect x="34" y="34" width="700" height="72" rx="14" fill="#070b14" fill-opacity="0.72" stroke="#ffd978" stroke-opacity="0.55"/>
  <text x="54" y="80" fill="#EAF4FF" font-family="Exo 2, Segoe UI, sans-serif" font-size="32" font-weight="700">Ember Arcanist</text>

  <rect x="34" y="872" width="700" height="92" rx="14" fill="#070b14" fill-opacity="0.74" stroke="#ffd978" stroke-opacity="0.6"/>
  <text x="54" y="924" fill="#D9E7FF" font-family="Exo 2, Segoe UI, sans-serif" font-size="30" font-weight="600">Legendary Ultimate</text>

  <rect x="598" y="36" width="118" height="42" rx="10" fill="#ffd978" fill-opacity="0.2" stroke="#ffd978" stroke-opacity="0.8"/>
  <text x="612" y="65" fill="#ffd978" font-family="Exo 2, Segoe UI, sans-serif" font-size="20" font-weight="700">LEGENDARY</text>

  <circle cx="708" cy="954" r="26" fill="#080d18" stroke="#ffd978" stroke-opacity="0.8"/>
  <text x="696" y="962" fill="#E7F2FF" font-family="Exo 2, Segoe UI, sans-serif" font-size="24" font-weight="700">52</text>
</svg>