<?xml version="1.0" encoding="UTF-8"?>
<svg width="768" height="1024" viewBox="0 0 768 1024" fill="none" xmlns="http://www.w3.org/2000/svg">
  <defs>
    <linearGradient id="bg-ember-arcanist-c51" x1="60" y1="40" x2="728" y2="1004" gradientUnits="userSpaceOnUse">
      <stop offset="0" stop-color="#25120a"/>
      <stop offset="0.55" stop-color="#8c2b12"/>
      <stop offset="1" stop-color="#25120a"/>
    </linearGradient>
    <radialGradient id="glow-ember-arcanist-c51" cx="0" cy="0" r="1" gradientUnits="userSpaceOnUse" gradientTransform="translate(207.47 604.11) rotate(90) scale(254.36 254.36)">
      <stop stop-color="#ff8e2d" stop-opacity="0.45"/>
      <stop offset="1" stop-color="#ff8e2d" stop-opacity="0"/>
    </radialGradient>
    <linearGradient id="edge-ember-arcanist-c51" x1="0" y1="0" x2="768" y2="1024" gradientUnits="userSpaceOnUse">
      <stop stop-color="#ff8e2d" stop-opacity="0.85"/>
      <stop offset="1" stop-color="#ff5f7a" stop-opacity="0.85"/>
    </linearGradient>
  </defs>

  <rect x="0" y="0" width="768" height="1024" rx="32" fill="#060910"/>
  <rect x="16" y="16" width="736" height="992" rx="24" fill="url(#bg-ember-arcanist-c51)"/>
  <rect x="16" y="16" width="736" height="992" rx="24" fill="url(#glow-ember-arcanist-c51)"/>

  <g opacity="0.88">
    <circle cx="384" cy="552.96" r="70" fill="none" stroke="#ff5f7a" stroke-width="7" opacity="0.75"/><circle cx="384" cy="552.96" r="108" fill="none" stroke="#ff8e2d" stroke-width="3" opacity="0.63"/><circle cx="384" cy="552.96" r="146" fill="none" stroke="#ff5f7a" stroke-width="3" opacity="0.51"/><circle cx="384" cy="552.96" r="184" fill="none" stroke="#ff8e2d" stroke-width="3" opacity="0.39"/><path d="M344,552.96 L384,496.96000000000004 L424,552.96 L384,608.96 Z" fill="none" stroke="#ff5f7a" stroke-width="6" opacity="0.9"/>
  </g>

  <g opacity="0.8">
    <circle cx="690.19" cy="570.02" r="4.44" fill="#ff5f7a" opacity="0.35"/><circle cx="414.17" cy="14.26" r="1.30" fill="#ff8e2d" opacity="0.35"/><circle cx="288.25" cy="746.83" r="2.18" fill="#ff5f7a" opacity="0.62"/><circle cx="86.04" cy="580.32" r="2.08" fill="#ff8e2d" opacity="0.40"/><circle cx="56.67" cy="706.62" r="1.76" fill="#ff5f7a" opacity="0.38"/><circle cx="103.85" cy="335.59" r="4.28" fill="#ff8e2d" opacity="0.57"/><circle cx="104.39" cy="856.31" r="2.78" fill="#ff5f7a" opacity="0.66"/><circle cx="449.64" cy="601.59" r="2.87" fill="#ff8e2d" opacity="0.44"/><circle cx="5.59" cy="322.93" r="3.48" fill="#ff5f7a" opacity="0.54"/><circle cx="382.15" cy="902.25" r="3.86" fill="#ff8e2d" opacity="0.62"/><circle cx="667.16" cy="589.44" r="1.66" fill="#ff5f7a" opacity="0.40"/><circle cx="533.85" cy="590.34" r="2.92" fill="#ff8e2d" opacity="0.31"/><circle cx="656.71" cy="26.85" r="2.96" fill="#ff5f7a" opacity="0.30"/><circle cx="67.06" cy="445.93" r="2.56" fill="#ff8e2d" opacity="0.47"/><circle cx="492.63" cy="192.29" r="2.93" fill="#ff5f7a" opacity="0.44"/><circle cx="234.10" cy="579.29" r="4.25" fill="#ff8e2d" opacity="0.37"/><circle cx="182.73" cy="646.11" r="1.53" fill="#ff5f7a" opacity="0.48"/><circle cx="513.85" cy="233.32" r="2.89" fill="#ff8e2d" opacity="0.42"/><circle cx="141.44" cy="157.86" r="2.73" fill="#ff5f7a" opacity="0.31"/><circle cx="118.38" cy="1003.87" r="2.21" fill="#ff8e2d" opacity="0.35"/><circle cx="682.25" cy="89.90" r="3.08" fill="#ff5f7a" opacity="0.67"/><circle cx="766.76" cy="381.47" r="1.41" fill="#ff8e2d" opacity="0.70"/><circle cx="74.66" cy="545.31" r="2.22" fill="#ff5f7a" opacity="0.45"/><circle cx="713.99" cy="634.76" r="2.78" fill="#ff8e2d" opacity="0.41"/><circle cx="590.41" cy="855.78" r="1.63" fill="#ff5f7a" opacity="0.32"/><circle cx="303.33" cy="762.77" r="2.41" fill="#ff8e2d" opacity="0.25"/><circle cx="532.59" cy="908.78" r="2.72" fill="#ff5f7a" opacity="0.32"/><circle cx="169.70" cy="344.91" r="4.01" fill="#ff8e2d" opacity="0.67"/>
  </g>

  <rect x="16" y="16" width="736" height="992" rx="24" stroke="url(#edge-ember-arcanist-c51)" stroke-width="2.5" opacity="0.85"/>
  <rect x="22" y="22" width="724" height="980" rx="20" stroke="#f0a0ff" stroke-width="2" opacity="0.74"/>

  <rect x="34" y="34" width="700" height="72" rx="14" fill="#070b14" fill-opacity="0.72" stroke="#f0a0ff" stroke-opacity="0.55"/>
  <text x="54" y="80" fill="#EAF4FF" font-family="Exo 2, Segoe UI, sans-serif" font-size="32" font-weight="700">Ember Arcanist</text>

  <rect x="34" y="872" width="700" height="92" rx="14" fill="#070b14" fill-opacity="0.74" stroke="#f0a0ff" stroke-opacity="0.6"/>
  <text x="54" y="924" fill="#D9E7FF" font-family="Exo 2, Segoe UI, sans-serif" font-size="30" font-weight="600">Apex Catalyst</text>

  <rect x="598" y="36" width="118" height="42" rx="10" fill="#f0a0ff" fill-opacity="0.2" stroke="#f0a0ff" stroke-opacity="0.8"/>
  <text x="612" y="65" fill="#f0a0ff" font-family="Exo 2, Segoe UI, sans-serif" font-size="20" font-weight="700">EPIC</text>

  <circle cx="708" cy="954" r="26" fill="#080d18" stroke="#f0a0ff" stroke-opacity="0.8"/>
  <text x="696" y="962" fill="#E7F2FF" font-family="Exo 2, Segoe UI, sans-serif" font-size="24" font-weight="700">51</text>
</svg>