<?xml version="1.0" encoding="UTF-8"?>
<svg width="768" height="1024" viewBox="0 0 768 1024" fill="none" xmlns="http://www.w3.org/2000/svg">
  <defs>
    <linearGradient id="bg-ember-arcanist-c50" x1="60" y1="40" x2="728" y2="1004" gradientUnits="userSpaceOnUse">
      <stop offset="0" stop-color="#25120a"/>
      <stop offset="0.55" stop-color="#8c2b12"/>
      <stop offset="1" stop-color="#25120a"/>
    </linearGradient>
    <radialGradient id="glow-ember-arcanist-c50" cx="0" cy="0" r="1" gradientUnits="userSpaceOnUse" gradientTransform="translate(399.58 501.45) rotate(90) scale(196.75 196.75)">
      <stop stop-color="#ff8e2d" stop-opacity="0.45"/>
      <stop offset="1" stop-color="#ff8e2d" stop-opacity="0"/>
    </radialGradient>
    <linearGradient id="edge-ember-arcanist-c50" x1="0" y1="0" x2="768" y2="1024" gradientUnits="userSpaceOnUse">
      <stop stop-color="#ff8e2d" stop-opacity="0.85"/>
      <stop offset="1" stop-color="#ff5f7a" stop-opacity="0.85"/>
    </linearGradient>
  </defs>

  <rect x="0" y="0" width="768" height="1024" rx="32" fill="#060910"/>
  <rect x="16" y="16" width="736" height="992" rx="24" fill="url(#bg-ember-arcanist-c50)"/>
  <rect x="16" y="16" width="736" height="992" rx="24" fill="url(#glow-ember-arcanist-c50)"/>

  <g opacity="0.88">
    <circle cx="384" cy="552.96" r="70" fill="none" stroke="#ff5f7a" stroke-width="7" opacity="0.75"/><circle cx="384" cy="552.96" r="108" fill="none" stroke="#ff8e2d" stroke-width="3" opacity="0.63"/><circle cx="384" cy="552.96" r="146" fill="none" stroke="#ff5f7a" stroke-width="3" opacity="0.51"/><circle cx="384" cy="552.96" r="184" fill="none" stroke="#ff8e2d" stroke-width="3" opacity="0.39"/><path d="M344,552.96 L384,496.96000000000004 L424,552.96 L384,608.96 Z" fill="none" stroke="#ff5f7a" stroke-width="6" opacity="0.9"/>
  </g>

  <g opacity="0.8">
    <circle cx="346.97" cy="352.52" r="3.58" fill="#ff5f7a" opacity="0.62"/><circle cx="176.42" cy="797.29" r="2.94" fill="#ff8e2d" opacity="0.36"/><circle cx="566.70" cy="18.91" r="2.13" fill="#ff5f7a" opacity="0.65"/><circle cx="529.16" cy="1000.53" r="3.88" fill="#ff8e2d" opacity="0.70"/><circle cx="707.00" cy="685.49" r="2.26" fill="#ff5f7a" opacity="0.45"/><circle cx="644.98" cy="69.31" r="2.40" fill="#ff8e2d" opacity="0.64"/><circle cx="376.86" cy="823.62" r="4.48" fill="#ff5f7a" opacity="0.62"/><circle cx="461.16" cy="82.66" r="2.47" fill="#ff8e2d" opacity="0.74"/><circle cx="72.80" cy="303.72" r="4.33" fill="#ff5f7a" opacity="0.37"/><circle cx="367.84" cy="532.99" r="2.42" fill="#ff8e2d" opacity="0.34"/><circle cx="206.92" cy="906.90" r="1.34" fill="#ff5f7a" opacity="0.44"/><circle cx="388.83" cy="499.37" r="4.38" fill="#ff8e2d" opacity="0.26"/><circle cx="519.81" cy="866.88" r="3.79" fill="#ff5f7a" opacity="0.62"/><circle cx="222.22" cy="559.83" r="1.79" fill="#ff8e2d" opacity="0.38"/><circle cx="597.86" cy="269.01" r="3.09" fill="#ff5f7a" opacity="0.52"/><circle cx="547.31" cy="1000.75" r="4.06" fill="#ff8e2d" opacity="0.73"/><circle cx="399.85" cy="922.37" r="2.02" fill="#ff5f7a" opacity="0.64"/><circle cx="400.22" cy="165.46" r="4.39" fill="#ff8e2d" opacity="0.60"/><circle cx="592.29" cy="472.94" r="3.63" fill="#ff5f7a" opacity="0.44"/><circle cx="154.56" cy="931.90" r="2.78" fill="#ff8e2d" opacity="0.73"/><circle cx="107.97" cy="805.81" r="4.27" fill="#ff5f7a" opacity="0.50"/><circle cx="370.22" cy="766.56" r="3.53" fill="#ff8e2d" opacity="0.36"/><circle cx="460.35" cy="73.52" r="2.72" fill="#ff5f7a" opacity="0.62"/><circle cx="751.63" cy="621.97" r="2.14" fill="#ff8e2d" opacity="0.43"/><circle cx="413.98" cy="171.91" r="3.75" fill="#ff5f7a" opacity="0.52"/><circle cx="747.84" cy="929.80" r="3.13" fill="#ff8e2d" opacity="0.39"/><circle cx="541.94" cy="292.85" r="3.03" fill="#ff5f7a" opacity="0.42"/><circle cx="544.71" cy="316.63" r="1.76" fill="#ff8e2d" opacity="0.72"/>
  </g>

  <rect x="16" y="16" width="736" height="992" rx="24" stroke="url(#edge-ember-arcanist-c50)" stroke-width="2.5" opacity="0.85"/>
  <rect x="22" y="22" width="724" height="980" rx="20" stroke="#f0a0ff" stroke-width="2" opacity="0.74"/>

  <rect x="34" y="34" width="700" height="72" rx="14" fill="#070b14" fill-opacity="0.72" stroke="#f0a0ff" stroke-opacity="0.55"/>
  <text x="54" y="80" fill="#EAF4FF" font-family="Exo 2, Segoe UI, sans-serif" font-size="32" font-weight="700">Ember Arcanist</text>

  <rect x="34" y="872" width="700" height="92" rx="14" fill="#070b14" fill-opacity="0.74" stroke="#f0a0ff" stroke-opacity="0.6"/>
  <text x="54" y="924" fill="#D9E7FF" font-family="Exo 2, Segoe UI, sans-serif" font-size="30" font-weight="600">Finisher Setup</text>

  <rect x="598" y="36" width="118" height="42" rx="10" fill="#f0a0ff" fill-opacity="0.2" stroke="#f0a0ff" stroke-opacity="0.8"/>
  <text x="612" y="65" fill="#f0a0ff" font-family="Exo 2, Segoe UI, sans-serif" font-size="20" font-weight="700">EPIC</text>

  <circle cx="708" cy="954" r="26" fill="#080d18" stroke="#f0a0ff" stroke-opacity="0.8"/>
  <text x="696" y="962" fill="#E7F2FF" font-family="Exo 2, Segoe UI, sans-serif" font-size="24" font-weight="700">50</text>
</svg>