<?xml version="1.0" encoding="UTF-8"?>
<svg width="768" height="1024" viewBox="0 0 768 1024" fill="none" xmlns="http://www.w3.org/2000/svg">
  <defs>
    <linearGradient id="bg-ember-arcanist-c48" x1="60" y1="40" x2="728" y2="1004" gradientUnits="userSpaceOnUse">
      <stop offset="0" stop-color="#25120a"/>
      <stop offset="0.55" stop-color="#8c2b12"/>
      <stop offset="1" stop-color="#25120a"/>
    </linearGradient>
    <radialGradient id="glow-ember-arcanist-c48" cx="0" cy="0" r="1" gradientUnits="userSpaceOnUse" gradientTransform="translate(295.51 709.78) rotate(90) scale(199.75 199.75)">
      <stop stop-color="#ff8e2d" stop-opacity="0.45"/>
      <stop offset="1" stop-color="#ff8e2d" stop-opacity="0"/>
    </radialGradient>
    <linearGradient id="edge-ember-arcanist-c48" x1="0" y1="0" x2="768" y2="1024" gradientUnits="userSpaceOnUse">
      <stop stop-color="#ff8e2d" stop-opacity="0.85"/>
      <stop offset="1" stop-color="#ff5f7a" stop-opacity="0.85"/>
    </linearGradient>
  </defs>

  <rect x="0" y="0" width="768" height="1024" rx="32" fill="#060910"/>
  <rect x="16" y="16" width="736" height="992" rx="24" fill="url(#bg-ember-arcanist-c48)"/>
  <rect x="16" y="16" width="736" height="992" rx="24" fill="url(#glow-ember-arcanist-c48)"/>

  <g opacity="0.88">
    <circle cx="384" cy="552.96" r="70" fill="none" stroke="#ff5f7a" stroke-width="7" opacity="0.75"/><circle cx="384" cy="552.96" r="108" fill="none" stroke="#ff8e2d" stroke-width="3" opacity="0.63"/><circle cx="384" cy="552.96" r="146" fill="none" stroke="#ff5f7a" stroke-width="3" opacity="0.51"/><circle cx="384" cy="552.96" r="184" fill="none" stroke="#ff8e2d" stroke-width="3" opacity="0.39"/><path d="M344,552.96 L384,496.96000000000004 L424,552.96 L384,608.96 Z" fill="none" stroke="#ff5f7a" stroke-width="6" opacity="0.9"/>
  </g>

  <g opacity="0.8">
    <circle cx="167.95" cy="764.23" r="4.19" fill="#ff5f7a" opacity="0.47"/><circle cx="563.19" cy="1013.04" r="3.89" fill="#ff8e2d" opacity="0.48"/><circle cx="705.16" cy="11.10" r="1.39" fill="#ff5f7a" opacity="0.42"/><circle cx="388.74" cy="970.89" r="2.80" fill="#ff8e2d" opacity="0.25"/><circle cx="363.41" cy="553.54" r="3.63" fill="#ff5f7a" opacity="0.63"/><circle cx="316.88" cy="471.43" r="4.50" fill="#ff8e2d" opacity="0.53"/><circle cx="565.43" cy="1022.03" r="3.37" fill="#ff5f7a" opacity="0.60"/><circle cx="156.93" cy="627.92" r="4.36" fill="#ff8e2d" opacity="0.49"/><circle cx="692.78" cy="63.38" r="2.93" fill="#ff5f7a" opacity="0.62"/><circle cx="141.95" cy="521.09" r="1.91" fill="#ff8e2d" opacity="0.58"/><circle cx="609.27" cy="276.19" r="1.61" fill="#ff5f7a" opacity="0.66"/><circle cx="65.21" cy="730.82" r="2.41" fill="#ff8e2d" opacity="0.73"/><circle cx="157.51" cy="632.90" r="4.85" fill="#ff5f7a" opacity="0.66"/><circle cx="579.45" cy="413.30" r="3.36" fill="#ff8e2d" opacity="0.30"/><circle cx="620.34" cy="132.10" r="3.33" fill="#ff5f7a" opacity="0.59"/><circle cx="98.11" cy="775.02" r="4.52" fill="#ff8e2d" opacity="0.49"/><circle cx="1.38" cy="798.85" r="1.49" fill="#ff5f7a" opacity="0.32"/><circle cx="120.76" cy="10.09" r="3.73" fill="#ff8e2d" opacity="0.41"/><circle cx="23.73" cy="136.87" r="4.13" fill="#ff5f7a" opacity="0.32"/><circle cx="509.81" cy="986.08" r="2.96" fill="#ff8e2d" opacity="0.61"/><circle cx="200.89" cy="632.27" r="3.02" fill="#ff5f7a" opacity="0.58"/><circle cx="109.13" cy="858.83" r="4.49" fill="#ff8e2d" opacity="0.40"/><circle cx="542.88" cy="1013.61" r="4.69" fill="#ff5f7a" opacity="0.33"/><circle cx="642.20" cy="58.33" r="4.56" fill="#ff8e2d" opacity="0.29"/><circle cx="736.26" cy="1014.59" r="2.75" fill="#ff5f7a" opacity="0.48"/><circle cx="124.63" cy="778.50" r="2.12" fill="#ff8e2d" opacity="0.32"/><circle cx="751.54" cy="803.74" r="2.79" fill="#ff5f7a" opacity="0.37"/><circle cx="628.09" cy="161.60" r="1.33" fill="#ff8e2d" opacity="0.51"/>
  </g>

  <rect x="16" y="16" width="736" height="992" rx="24" stroke="url(#edge-ember-arcanist-c48)" stroke-width="2.5" opacity="0.85"/>
  <rect x="22" y="22" width="724" height="980" rx="20" stroke="#f0a0ff" stroke-width="2" opacity="0.74"/>

  <rect x="34" y="34" width="700" height="72" rx="14" fill="#070b14" fill-opacity="0.72" stroke="#f0a0ff" stroke-opacity="0.55"/>
  <text x="54" y="80" fill="#EAF4FF" font-family="Exo 2, Segoe UI, sans-serif" font-size="32" font-weight="700">Ember Arcanist</text>

  <rect x="34" y="872" width="700" height="92" rx="14" fill="#070b14" fill-opacity="0.74" stroke="#f0a0ff" stroke-opacity="0.6"/>
  <text x="54" y="924" fill="#D9E7FF" font-family="Exo 2, Segoe UI, sans-serif" font-size="30" font-weight="600">Epic Reset</text>

  <rect x="598" y="36" width="118" height="42" rx="10" fill="#f0a0ff" fill-opacity="0.2" stroke="#f0a0ff" stroke-opacity="0.8"/>
  <text x="612" y="65" fill="#f0a0ff" font-family="Exo 2, Segoe UI, sans-serif" font-size="20" font-weight="700">EPIC</text>

  <circle cx="708" cy="954" r="26" fill="#080d18" stroke="#f0a0ff" stroke-opacity="0.8"/>
  <text x="696" y="962" fill="#E7F2FF" font-family="Exo 2, Segoe UI, sans-serif" font-size="24" font-weight="700">48</text>
</svg>