<?xml version="1.0" encoding="UTF-8"?>
<svg width="768" height="1024" viewBox="0 0 768 1024" fill="none" xmlns="http://www.w3.org/2000/svg">
  <defs>
    <linearGradient id="bg-ember-arcanist-c30" x1="60" y1="40" x2="728" y2="1004" gradientUnits="userSpaceOnUse">
      <stop offset="0" stop-color="#25120a"/>
      <stop offset="0.55" stop-color="#8c2b12"/>
      <stop offset="1" stop-color="#25120a"/>
    </linearGradient>
    <radialGradient id="glow-ember-arcanist-c30" cx="0" cy="0" r="1" gradientUnits="userSpaceOnUse" gradientTransform="translate(177.59 334.97) rotate(90) scale(187.21 187.21)">
      <stop stop-color="#ff8e2d" stop-opacity="0.45"/>
      <stop offset="1" stop-color="#ff8e2d" stop-opacity="0"/>
    </radialGradient>
    <linearGradient id="edge-ember-arcanist-c30" x1="0" y1="0" x2="768" y2="1024" gradientUnits="userSpaceOnUse">
      <stop stop-color="#ff8e2d" stop-opacity="0.85"/>
      <stop offset="1" stop-color="#ff5f7a" stop-opacity="0.85"/>
    </linearGradient>
  </defs>

  <rect x="0" y="0" width="768" height="1024" rx="32" fill="#060910"/>
  <rect x="16" y="16" width="736" height="992" rx="24" fill="url(#bg-ember-arcanist-c30)"/>
  <rect x="16" y="16" width="736" height="992" rx="24" fill="url(#glow-ember-arcanist-c30)"/>

  <g opacity="0.88">
    <circle cx="384" cy="552.96" r="70" fill="none" stroke="#ff5f7a" stroke-width="7" opacity="0.75"/><circle cx="384" cy="552.96" r="108" fill="none" stroke="#ff8e2d" stroke-width="3" opacity="0.63"/><circle cx="384" cy="552.96" r="146" fill="none" stroke="#ff5f7a" stroke-width="3" opacity="0.51"/><circle cx="384" cy="552.96" r="184" fill="none" stroke="#ff8e2d" stroke-width="3" opacity="0.39"/><path d="M344,552.96 L384,496.96000000000004 L424,552.96 L384,608.96 Z" fill="none" stroke="#ff5f7a" stroke-width="6" opacity="0.9"/>
  </g>

  <g opacity="0.8">
    <circle cx="589.67" cy="1.22" r="3.58" fill="#ff5f7a" opacity="0.55"/><circle cx="103.73" cy="775.22" r="1.48" fill="#ff8e2d" opacity="0.60"/><circle cx="32.84" cy="712.84" r="2.55" fill="#ff5f7a" opacity="0.48"/><circle cx="272.12" cy="40.10" r="4.50" fill="#ff8e2d" opacity="0.55"/><circle cx="412.83" cy="949.49" r="4.06" fill="#ff5f7a" opacity="0.65"/><circle cx="418.07" cy="610.11" r="1.72" fill="#ff8e2d" opacity="0.32"/><circle cx="675.27" cy="524.28" r="3.61" fill="#ff5f7a" opacity="0.28"/><circle cx="403.80" cy="655.20" r="4.59" fill="#ff8e2d" opacity="0.47"/><circle cx="0.76" cy="1023.68" r="4.90" fill="#ff5f7a" opacity="0.49"/><circle cx="51.30" cy="573.69" r="3.92" fill="#ff8e2d" opacity="0.54"/><circle cx="86.41" cy="939.39" r="2.35" fill="#ff5f7a" opacity="0.38"/><circle cx="607.18" cy="110.61" r="3.74" fill="#ff8e2d" opacity="0.29"/><circle cx="449.43" cy="869.95" r="2.79" fill="#ff5f7a" opacity="0.46"/><circle cx="392.25" cy="816.38" r="3.05" fill="#ff8e2d" opacity="0.38"/><circle cx="238.16" cy="535.20" r="4.34" fill="#ff5f7a" opacity="0.48"/><circle cx="216.93" cy="177.39" r="4.17" fill="#ff8e2d" opacity="0.64"/><circle cx="1.57" cy="605.55" r="2.00" fill="#ff5f7a" opacity="0.43"/><circle cx="496.33" cy="882.95" r="4.16" fill="#ff8e2d" opacity="0.63"/><circle cx="124.79" cy="963.66" r="1.85" fill="#ff5f7a" opacity="0.71"/><circle cx="137.35" cy="496.69" r="4.83" fill="#ff8e2d" opacity="0.26"/><circle cx="496.26" cy="295.44" r="4.22" fill="#ff5f7a" opacity="0.70"/><circle cx="308.88" cy="937.49" r="3.24" fill="#ff8e2d" opacity="0.56"/><circle cx="653.01" cy="690.64" r="4.14" fill="#ff5f7a" opacity="0.36"/><circle cx="365.49" cy="517.39" r="4.14" fill="#ff8e2d" opacity="0.57"/><circle cx="739.43" cy="643.68" r="2.53" fill="#ff5f7a" opacity="0.24"/><circle cx="448.36" cy="566.52" r="3.82" fill="#ff8e2d" opacity="0.48"/><circle cx="33.94" cy="432.15" r="4.45" fill="#ff5f7a" opacity="0.56"/><circle cx="340.66" cy="578.16" r="4.21" fill="#ff8e2d" opacity="0.41"/>
  </g>

  <rect x="16" y="16" width="736" height="992" rx="24" stroke="url(#edge-ember-arcanist-c30)" stroke-width="2.5" opacity="0.85"/>
  <rect x="22" y="22" width="724" height="980" rx="20" stroke="#78d8ff" stroke-width="2" opacity="0.74"/>

  <rect x="34" y="34" width="700" height="72" rx="14" fill="#070b14" fill-opacity="0.72" stroke="#78d8ff" stroke-opacity="0.55"/>
  <text x="54" y="80" fill="#EAF4FF" font-family="Exo 2, Segoe UI, sans-serif" font-size="32" font-weight="700">Ember Arcanist</text>

  <rect x="34" y="872" width="700" height="92" rx="14" fill="#070b14" fill-opacity="0.74" stroke="#78d8ff" stroke-opacity="0.6"/>
  <text x="54" y="924" fill="#D9E7FF" font-family="Exo 2, Segoe UI, sans-serif" font-size="30" font-weight="600">Signature Adept</text>

  <rect x="598" y="36" width="118" height="42" rx="10" fill="#78d8ff" fill-opacity="0.2" stroke="#78d8ff" stroke-opacity="0.8"/>
  <text x="612" y="65" fill="#78d8ff" font-family="Exo 2, Segoe UI, sans-serif" font-size="20" font-weight="700">RARE</text>

  <circle cx="708" cy="954" r="26" fill="#080d18" stroke="#78d8ff" stroke-opacity="0.8"/>
  <text x="696" y="962" fill="#E7F2FF" font-family="Exo 2, Segoe UI, sans-serif" font-size="24" font-weight="700">30</text>
</svg>