<?xml version="1.0" encoding="UTF-8"?>
<svg width="768" height="1024" viewBox="0 0 768 1024" fill="none" xmlns="http://www.w3.org/2000/svg">
  <defs>
    <linearGradient id="bg-ember-arcanist-c15" x1="60" y1="40" x2="728" y2="1004" gradientUnits="userSpaceOnUse">
      <stop offset="0" stop-color="#25120a"/>
      <stop offset="0.55" stop-color="#8c2b12"/>
      <stop offset="1" stop-color="#25120a"/>
    </linearGradient>
    <radialGradient id="glow-ember-arcanist-c15" cx="0" cy="0" r="1" gradientUnits="userSpaceOnUse" gradientTransform="translate(310.20 722.54) rotate(90) scale(216.93 216.93)">
      <stop stop-color="#ff8e2d" stop-opacity="0.45"/>
      <stop offset="1" stop-color="#ff8e2d" stop-opacity="0"/>
    </radialGradient>
    <linearGradient id="edge-ember-arcanist-c15" x1="0" y1="0" x2="768" y2="1024" gradientUnits="userSpaceOnUse">
      <stop stop-color="#ff8e2d" stop-opacity="0.85"/>
      <stop offset="1" stop-color="#ff5f7a" stop-opacity="0.85"/>
    </linearGradient>
  </defs>

  <rect x="0" y="0" width="768" height="1024" rx="32" fill="#060910"/>
  <rect x="16" y="16" width="736" height="992" rx="24" fill="url(#bg-ember-arcanist-c15)"/>
  <rect x="16" y="16" width="736" height="992" rx="24" fill="url(#glow-ember-arcanist-c15)"/>

  <g opacity="0.88">
    <circle cx="384" cy="552.96" r="70" fill="none" stroke="#ff5f7a" stroke-width="7" opacity="0.75"/><circle cx="384" cy="552.96" r="108" fill="none" stroke="#ff8e2d" stroke-width="3" opacity="0.63"/><circle cx="384" cy="552.96" r="146" fill="none" stroke="#ff5f7a" stroke-width="3" opacity="0.51"/><circle cx="384" cy="552.96" r="184" fill="none" stroke="#ff8e2d" stroke-width="3" opacity="0.39"/><path d="M344,552.96 L384,496.96000000000004 L424,552.96 L384,608.96 Z" fill="none" stroke="#ff5f7a" stroke-width="6" opacity="0.9"/>
  </g>

  <g opacity="0.8">
    <circle cx="529.73" cy="116.07" r="3.38" fill="#ff5f7a" opacity="0.53"/><circle cx="736.28" cy="880.52" r="1.25" fill="#ff8e2d" opacity="0.47"/><circle cx="720.62" cy="760.94" r="1.58" fill="#ff5f7a" opacity="0.44"/><circle cx="200.27" cy="625.76" r="2.21" fill="#ff8e2d" opacity="0.71"/><circle cx="193.18" cy="209.92" r="4.46" fill="#ff5f7a" opacity="0.35"/><circle cx="548.49" cy="77.61" r="3.46" fill="#ff8e2d" opacity="0.41"/><circle cx="137.85" cy="903.30" r="1.22" fill="#ff5f7a" opacity="0.63"/><circle cx="222.11" cy="491.33" r="4.10" fill="#ff8e2d" opacity="0.71"/><circle cx="664.90" cy="97.11" r="1.66" fill="#ff5f7a" opacity="0.45"/><circle cx="304.59" cy="646.79" r="2.81" fill="#ff8e2d" opacity="0.33"/><circle cx="32.10" cy="234.36" r="3.01" fill="#ff5f7a" opacity="0.63"/><circle cx="397.41" cy="309.94" r="4.40" fill="#ff8e2d" opacity="0.45"/><circle cx="189.95" cy="802.25" r="1.82" fill="#ff5f7a" opacity="0.73"/><circle cx="312.24" cy="868.21" r="4.58" fill="#ff8e2d" opacity="0.39"/><circle cx="172.89" cy="93.80" r="4.74" fill="#ff5f7a" opacity="0.62"/><circle cx="508.83" cy="506.99" r="2.43" fill="#ff8e2d" opacity="0.56"/><circle cx="229.96" cy="324.82" r="2.80" fill="#ff5f7a" opacity="0.56"/><circle cx="415.63" cy="865.87" r="1.55" fill="#ff8e2d" opacity="0.67"/><circle cx="391.61" cy="995.77" r="1.87" fill="#ff5f7a" opacity="0.64"/><circle cx="376.85" cy="801.05" r="4.56" fill="#ff8e2d" opacity="0.38"/><circle cx="287.61" cy="499.54" r="4.65" fill="#ff5f7a" opacity="0.39"/><circle cx="555.36" cy="26.74" r="4.64" fill="#ff8e2d" opacity="0.59"/><circle cx="79.96" cy="255.21" r="3.57" fill="#ff5f7a" opacity="0.62"/><circle cx="345.59" cy="31.00" r="4.72" fill="#ff8e2d" opacity="0.32"/><circle cx="105.32" cy="381.62" r="1.41" fill="#ff5f7a" opacity="0.53"/><circle cx="348.92" cy="1008.77" r="4.47" fill="#ff8e2d" opacity="0.50"/><circle cx="230.11" cy="1000.13" r="1.85" fill="#ff5f7a" opacity="0.53"/><circle cx="673.33" cy="108.80" r="2.81" fill="#ff8e2d" opacity="0.45"/>
  </g>

  <rect x="16" y="16" width="736" height="992" rx="24" stroke="url(#edge-ember-arcanist-c15)" stroke-width="2.5" opacity="0.85"/>
  <rect x="22" y="22" width="724" height="980" rx="20" stroke="#8aa0c4" stroke-width="2" opacity="0.74"/>

  <rect x="34" y="34" width="700" height="72" rx="14" fill="#070b14" fill-opacity="0.72" stroke="#8aa0c4" stroke-opacity="0.55"/>
  <text x="54" y="80" fill="#EAF4FF" font-family="Exo 2, Segoe UI, sans-serif" font-size="32" font-weight="700">Ember Arcanist</text>

  <rect x="34" y="872" width="700" height="92" rx="14" fill="#070b14" fill-opacity="0.74" stroke="#8aa0c4" stroke-opacity="0.6"/>
  <text x="54" y="924" fill="#D9E7FF" font-family="Exo 2, Segoe UI, sans-serif" font-size="30" font-weight="600">Standard Bearer</text>

  <rect x="598" y="36" width="118" height="42" rx="10" fill="#8aa0c4" fill-opacity="0.2" stroke="#8aa0c4" stroke-opacity="0.8"/>
  <text x="612" y="65" fill="#8aa0c4" font-family="Exo 2, Segoe UI, sans-serif" font-size="20" font-weight="700">COMMON</text>

  <circle cx="708" cy="954" r="26" fill="#080d18" stroke="#8aa0c4" stroke-opacity="0.8"/>
  <text x="696" y="962" fill="#E7F2FF" font-family="Exo 2, Segoe UI, sans-serif" font-size="24" font-weight="700">15</text>
</svg>