<?xml version="1.0" encoding="UTF-8"?>
<svg width="768" height="1024" viewBox="0 0 768 1024" fill="none" xmlns="http://www.w3.org/2000/svg">
  <defs>
    <linearGradient id="bg-ember-arcanist-c19" x1="60" y1="40" x2="728" y2="1004" gradientUnits="userSpaceOnUse">
      <stop offset="0" stop-color="#25120a"/>
      <stop offset="0.55" stop-color="#8c2b12"/>
      <stop offset="1" stop-color="#25120a"/>
    </linearGradient>
    <radialGradient id="glow-ember-arcanist-c19" cx="0" cy="0" r="1" gradientUnits="userSpaceOnUse" gradientTransform="translate(515.41 275.67) rotate(90) scale(284.23 284.23)">
      <stop stop-color="#ff8e2d" stop-opacity="0.45"/>
      <stop offset="1" stop-color="#ff8e2d" stop-opacity="0"/>
    </radialGradient>
    <linearGradient id="edge-ember-arcanist-c19" x1="0" y1="0" x2="768" y2="1024" gradientUnits="userSpaceOnUse">
      <stop stop-color="#ff8e2d" stop-opacity="0.85"/>
      <stop offset="1" stop-color="#ff5f7a" stop-opacity="0.85"/>
    </linearGradient>
  </defs>

  <rect x="0" y="0" width="768" height="1024" rx="32" fill="#060910"/>
  <rect x="16" y="16" width="736" height="992" rx="24" fill="url(#bg-ember-arcanist-c19)"/>
  <rect x="16" y="16" width="736" height="992" rx="24" fill="url(#glow-ember-arcanist-c19)"/>

  <g opacity="0.88">
    <circle cx="384" cy="552.96" r="70" fill="none" stroke="#ff5f7a" stroke-width="7" opacity="0.75"/><circle cx="384" cy="552.96" r="108" fill="none" stroke="#ff8e2d" stroke-width="3" opacity="0.63"/><circle cx="384" cy="552.96" r="146" fill="none" stroke="#ff5f7a" stroke-width="3" opacity="0.51"/><circle cx="384" cy="552.96" r="184" fill="none" stroke="#ff8e2d" stroke-width="3" opacity="0.39"/><path d="M344,552.96 L384,496.96000000000004 L424,552.96 L384,608.96 Z" fill="none" stroke="#ff5f7a" stroke-width="6" opacity="0.9"/>
  </g>

  <g opacity="0.8">
    <circle cx="110.69" cy="126.59" r="3.17" fill="#ff5f7a" opacity="0.63"/><circle cx="53.02" cy="715.28" r="3.25" fill="#ff8e2d" opacity="0.48"/><circle cx="759.76" cy="860.82" r="2.77" fill="#ff5f7a" opacity="0.53"/><circle cx="276.57" cy="996.79" r="2.72" fill="#ff8e2d" opacity="0.70"/><circle cx="498.61" cy="326.86" r="2.56" fill="#ff5f7a" opacity="0.61"/><circle cx="105.35" cy="311.76" r="3.03" fill="#ff8e2d" opacity="0.32"/><circle cx="247.13" cy="236.85" r="4.63" fill="#ff5f7a" opacity="0.58"/><circle cx="435.80" cy="102.40" r="1.94" fill="#ff8e2d" opacity="0.37"/><circle cx="565.79" cy="476.45" r="1.27" fill="#ff5f7a" opacity="0.50"/><circle cx="199.59" cy="846.65" r="1.55" fill="#ff8e2d" opacity="0.58"/><circle cx="728.99" cy="144.60" r="4.92" fill="#ff5f7a" opacity="0.29"/><circle cx="126.19" cy="513.22" r="4.24" fill="#ff8e2d" opacity="0.25"/><circle cx="353.81" cy="895.52" r="4.72" fill="#ff5f7a" opacity="0.40"/><circle cx="590.78" cy="12.27" r="4.75" fill="#ff8e2d" opacity="0.66"/><circle cx="306.22" cy="1015.77" r="1.63" fill="#ff5f7a" opacity="0.38"/><circle cx="338.70" cy="630.79" r="2.61" fill="#ff8e2d" opacity="0.56"/><circle cx="186.86" cy="193.27" r="1.52" fill="#ff5f7a" opacity="0.70"/><circle cx="128.33" cy="750.63" r="4.81" fill="#ff8e2d" opacity="0.70"/><circle cx="716.14" cy="492.16" r="4.20" fill="#ff5f7a" opacity="0.71"/><circle cx="9.92" cy="261.69" r="1.89" fill="#ff8e2d" opacity="0.54"/><circle cx="624.58" cy="427.98" r="1.56" fill="#ff5f7a" opacity="0.66"/><circle cx="476.20" cy="378.68" r="1.52" fill="#ff8e2d" opacity="0.32"/><circle cx="715.45" cy="372.55" r="3.61" fill="#ff5f7a" opacity="0.29"/><circle cx="56.84" cy="967.28" r="3.64" fill="#ff8e2d" opacity="0.31"/><circle cx="707.98" cy="71.88" r="2.16" fill="#ff5f7a" opacity="0.40"/><circle cx="487.10" cy="862.64" r="3.86" fill="#ff8e2d" opacity="0.70"/><circle cx="473.14" cy="55.07" r="3.50" fill="#ff5f7a" opacity="0.27"/><circle cx="106.37" cy="1012.71" r="2.22" fill="#ff8e2d" opacity="0.43"/>
  </g>

  <rect x="16" y="16" width="736" height="992" rx="24" stroke="url(#edge-ember-arcanist-c19)" stroke-width="2.5" opacity="0.85"/>
  <rect x="22" y="22" width="724" height="980" rx="20" stroke="#8aa0c4" stroke-width="2" opacity="0.74"/>

  <rect x="34" y="34" width="700" height="72" rx="14" fill="#070b14" fill-opacity="0.72" stroke="#8aa0c4" stroke-opacity="0.55"/>
  <text x="54" y="80" fill="#EAF4FF" font-family="Exo 2, Segoe UI, sans-serif" font-size="32" font-weight="700">Ember Arcanist</text>

  <rect x="34" y="872" width="700" height="92" rx="14" fill="#070b14" fill-opacity="0.74" stroke="#8aa0c4" stroke-opacity="0.6"/>
  <text x="54" y="924" fill="#D9E7FF" font-family="Exo 2, Segoe UI, sans-serif" font-size="30" font-weight="600">Aegis Warder</text>

  <rect x="598" y="36" width="118" height="42" rx="10" fill="#8aa0c4" fill-opacity="0.2" stroke="#8aa0c4" stroke-opacity="0.8"/>
  <text x="612" y="65" fill="#8aa0c4" font-family="Exo 2, Segoe UI, sans-serif" font-size="20" font-weight="700">COMMON</text>

  <circle cx="708" cy="954" r="26" fill="#080d18" stroke="#8aa0c4" stroke-opacity="0.8"/>
  <text x="696" y="962" fill="#E7F2FF" font-family="Exo 2, Segoe UI, sans-serif" font-size="24" font-weight="700">19</text>
</svg>