<?xml version="1.0" encoding="UTF-8"?>
<svg width="768" height="1024" viewBox="0 0 768 1024" fill="none" xmlns="http://www.w3.org/2000/svg">
  <defs>
    <linearGradient id="bg-ember-arcanist-c27" x1="60" y1="40" x2="728" y2="1004" gradientUnits="userSpaceOnUse">
      <stop offset="0" stop-color="#25120a"/>
      <stop offset="0.55" stop-color="#8c2b12"/>
      <stop offset="1" stop-color="#25120a"/>
    </linearGradient>
    <radialGradient id="glow-ember-arcanist-c27" cx="0" cy="0" r="1" gradientUnits="userSpaceOnUse" gradientTransform="translate(271.20 134.18) rotate(90) scale(266.25 266.25)">
      <stop stop-color="#ff8e2d" stop-opacity="0.45"/>
      <stop offset="1" stop-color="#ff8e2d" stop-opacity="0"/>
    </radialGradient>
    <linearGradient id="edge-ember-arcanist-c27" x1="0" y1="0" x2="768" y2="1024" gradientUnits="userSpaceOnUse">
      <stop stop-color="#ff8e2d" stop-opacity="0.85"/>
      <stop offset="1" stop-color="#ff5f7a" stop-opacity="0.85"/>
    </linearGradient>
  </defs>

  <rect x="0" y="0" width="768" height="1024" rx="32" fill="#060910"/>
  <rect x="16" y="16" width="736" height="992" rx="24" fill="url(#bg-ember-arcanist-c27)"/>
  <rect x="16" y="16" width="736" height="992" rx="24" fill="url(#glow-ember-arcanist-c27)"/>

  <g opacity="0.88">
    <circle cx="384" cy="552.96" r="70" fill="none" stroke="#ff5f7a" stroke-width="7" opacity="0.75"/><circle cx="384" cy="552.96" r="108" fill="none" stroke="#ff8e2d" stroke-width="3" opacity="0.63"/><circle cx="384" cy="552.96" r="146" fill="none" stroke="#ff5f7a" stroke-width="3" opacity="0.51"/><circle cx="384" cy="552.96" r="184" fill="none" stroke="#ff8e2d" stroke-width="3" opacity="0.39"/><path d="M344,552.96 L384,496.96000000000004 L424,552.96 L384,608.96 Z" fill="none" stroke="#ff5f7a" stroke-width="6" opacity="0.9"/>
  </g>

  <g opacity="0.8">
    <circle cx="723.15" cy="548.35" r="2.77" fill="#ff5f7a" opacity="0.59"/><circle cx="318.56" cy="581.37" r="3.65" fill="#ff8e2d" opacity="0.32"/><circle cx="392.22" cy="92.00" r="1.71" fill="#ff5f7a" opacity="0.35"/><circle cx="470.93" cy="513.53" r="2.54" fill="#ff8e2d" opacity="0.30"/><circle cx="648.12" cy="126.45" r="3.65" fill="#ff5f7a" opacity="0.25"/><circle cx="228.72" cy="211.22" r="2.58" fill="#ff8e2d" opacity="0.40"/><circle cx="457.08" cy="862.67" r="1.94" fill="#ff5f7a" opacity="0.35"/><circle cx="485.40" cy="445.79" r="1.33" fill="#ff8e2d" opacity="0.26"/><circle cx="260.78" cy="297.49" r="3.62" fill="#ff5f7a" opacity="0.38"/><circle cx="738.63" cy="218.16" r="2.44" fill="#ff8e2d" opacity="0.42"/><circle cx="339.39" cy="734.27" r="2.07" fill="#ff5f7a" opacity="0.54"/><circle cx="250.59" cy="823.61" r="3.75" fill="#ff8e2d" opacity="0.45"/><circle cx="49.31" cy="147.60" r="2.22" fill="#ff5f7a" opacity="0.60"/><circle cx="180.35" cy="125.45" r="3.43" fill="#ff8e2d" opacity="0.25"/><circle cx="319.29" cy="985.90" r="4.43" fill="#ff5f7a" opacity="0.29"/><circle cx="534.47" cy="392.74" r="2.17" fill="#ff8e2d" opacity="0.45"/><circle cx="332.09" cy="794.57" r="1.74" fill="#ff5f7a" opacity="0.49"/><circle cx="202.77" cy="872.11" r="2.13" fill="#ff8e2d" opacity="0.42"/><circle cx="207.44" cy="670.29" r="2.05" fill="#ff5f7a" opacity="0.54"/><circle cx="395.44" cy="691.72" r="1.83" fill="#ff8e2d" opacity="0.57"/><circle cx="631.17" cy="255.61" r="1.80" fill="#ff5f7a" opacity="0.66"/><circle cx="665.70" cy="384.73" r="4.16" fill="#ff8e2d" opacity="0.31"/><circle cx="267.60" cy="877.47" r="1.30" fill="#ff5f7a" opacity="0.42"/><circle cx="145.82" cy="752.16" r="4.84" fill="#ff8e2d" opacity="0.58"/><circle cx="569.20" cy="849.81" r="2.06" fill="#ff5f7a" opacity="0.73"/><circle cx="317.21" cy="558.73" r="3.96" fill="#ff8e2d" opacity="0.25"/><circle cx="103.58" cy="826.07" r="4.56" fill="#ff5f7a" opacity="0.48"/><circle cx="199.82" cy="119.13" r="1.65" fill="#ff8e2d" opacity="0.41"/>
  </g>

  <rect x="16" y="16" width="736" height="992" rx="24" stroke="url(#edge-ember-arcanist-c27)" stroke-width="2.5" opacity="0.85"/>
  <rect x="22" y="22" width="724" height="980" rx="20" stroke="#8aa0c4" stroke-width="2" opacity="0.74"/>

  <rect x="34" y="34" width="700" height="72" rx="14" fill="#070b14" fill-opacity="0.72" stroke="#8aa0c4" stroke-opacity="0.55"/>
  <text x="54" y="80" fill="#EAF4FF" font-family="Exo 2, Segoe UI, sans-serif" font-size="32" font-weight="700">Ember Arcanist</text>

  <rect x="34" y="872" width="700" height="92" rx="14" fill="#070b14" fill-opacity="0.74" stroke="#8aa0c4" stroke-opacity="0.6"/>
  <text x="54" y="924" fill="#D9E7FF" font-family="Exo 2, Segoe UI, sans-serif" font-size="30" font-weight="600">Ritual Guard</text>

  <rect x="598" y="36" width="118" height="42" rx="10" fill="#8aa0c4" fill-opacity="0.2" stroke="#8aa0c4" stroke-opacity="0.8"/>
  <text x="612" y="65" fill="#8aa0c4" font-family="Exo 2, Segoe UI, sans-serif" font-size="20" font-weight="700">COMMON</text>

  <circle cx="708" cy="954" r="26" fill="#080d18" stroke="#8aa0c4" stroke-opacity="0.8"/>
  <text x="696" y="962" fill="#E7F2FF" font-family="Exo 2, Segoe UI, sans-serif" font-size="24" font-weight="700">27</text>
</svg>