<?xml version="1.0" encoding="UTF-8"?>
<svg width="768" height="1024" viewBox="0 0 768 1024" fill="none" xmlns="http://www.w3.org/2000/svg">
  <defs>
    <linearGradient id="bg-ember-arcanist-c24" x1="60" y1="40" x2="728" y2="1004" gradientUnits="userSpaceOnUse">
      <stop offset="0" stop-color="#25120a"/>
      <stop offset="0.55" stop-color="#8c2b12"/>
      <stop offset="1" stop-color="#25120a"/>
    </linearGradient>
    <radialGradient id="glow-ember-arcanist-c24" cx="0" cy="0" r="1" gradientUnits="userSpaceOnUse" gradientTransform="translate(119.04 328.68) rotate(90) scale(293.22 293.22)">
      <stop stop-color="#ff8e2d" stop-opacity="0.45"/>
      <stop offset="1" stop-color="#ff8e2d" stop-opacity="0"/>
    </radialGradient>
    <linearGradient id="edge-ember-arcanist-c24" x1="0" y1="0" x2="768" y2="1024" gradientUnits="userSpaceOnUse">
      <stop stop-color="#ff8e2d" stop-opacity="0.85"/>
      <stop offset="1" stop-color="#ff5f7a" stop-opacity="0.85"/>
    </linearGradient>
  </defs>

  <rect x="0" y="0" width="768" height="1024" rx="32" fill="#060910"/>
  <rect x="16" y="16" width="736" height="992" rx="24" fill="url(#bg-ember-arcanist-c24)"/>
  <rect x="16" y="16" width="736" height="992" rx="24" fill="url(#glow-ember-arcanist-c24)"/>

  <g opacity="0.88">
    <circle cx="384" cy="552.96" r="70" fill="none" stroke="#ff5f7a" stroke-width="7" opacity="0.75"/><circle cx="384" cy="552.96" r="108" fill="none" stroke="#ff8e2d" stroke-width="3" opacity="0.63"/><circle cx="384" cy="552.96" r="146" fill="none" stroke="#ff5f7a" stroke-width="3" opacity="0.51"/><circle cx="384" cy="552.96" r="184" fill="none" stroke="#ff8e2d" stroke-width="3" opacity="0.39"/><path d="M344,552.96 L384,496.96000000000004 L424,552.96 L384,608.96 Z" fill="none" stroke="#ff5f7a" stroke-width="6" opacity="0.9"/>
  </g>

  <g opacity="0.8">
    <circle cx="53.78" cy="322.75" r="1.48" fill="#ff5f7a" opacity="0.64"/><circle cx="596.42" cy="664.07" r="3.90" fill="#ff8e2d" opacity="0.73"/><circle cx="378.87" cy="484.87" r="3.43" fill="#ff5f7a" opacity="0.71"/><circle cx="384.83" cy="592.19" r="4.85" fill="#ff8e2d" opacity="0.67"/><circle cx="635.89" cy="988.12" r="4.76" fill="#ff5f7a" opacity="0.49"/><circle cx="125.46" cy="709.65" r="3.19" fill="#ff8e2d" opacity="0.33"/><circle cx="140.12" cy="393.92" r="4.46" fill="#ff5f7a" opacity="0.31"/><circle cx="65.79" cy="398.73" r="4.19" fill="#ff8e2d" opacity="0.42"/><circle cx="180.64" cy="537.84" r="2.37" fill="#ff5f7a" opacity="0.44"/><circle cx="345.52" cy="467.45" r="1.21" fill="#ff8e2d" opacity="0.45"/><circle cx="644.41" cy="524.74" r="3.99" fill="#ff5f7a" opacity="0.44"/><circle cx="376.46" cy="86.75" r="1.47" fill="#ff8e2d" opacity="0.39"/><circle cx="95.69" cy="948.27" r="2.83" fill="#ff5f7a" opacity="0.58"/><circle cx="671.29" cy="304.00" r="1.27" fill="#ff8e2d" opacity="0.25"/><circle cx="7.83" cy="41.69" r="1.89" fill="#ff5f7a" opacity="0.73"/><circle cx="336.37" cy="599.57" r="4.47" fill="#ff8e2d" opacity="0.60"/><circle cx="431.57" cy="927.43" r="3.25" fill="#ff5f7a" opacity="0.34"/><circle cx="543.51" cy="69.17" r="1.48" fill="#ff8e2d" opacity="0.26"/><circle cx="317.07" cy="54.31" r="2.50" fill="#ff5f7a" opacity="0.54"/><circle cx="262.19" cy="34.81" r="3.70" fill="#ff8e2d" opacity="0.26"/><circle cx="672.07" cy="687.51" r="2.33" fill="#ff5f7a" opacity="0.64"/><circle cx="548.45" cy="443.12" r="2.24" fill="#ff8e2d" opacity="0.37"/><circle cx="695.30" cy="753.47" r="4.58" fill="#ff5f7a" opacity="0.27"/><circle cx="608.07" cy="483.27" r="2.66" fill="#ff8e2d" opacity="0.72"/><circle cx="31.14" cy="564.19" r="1.77" fill="#ff5f7a" opacity="0.68"/><circle cx="616.63" cy="250.64" r="4.76" fill="#ff8e2d" opacity="0.53"/><circle cx="244.38" cy="97.89" r="4.63" fill="#ff5f7a" opacity="0.28"/><circle cx="276.81" cy="562.31" r="3.21" fill="#ff8e2d" opacity="0.29"/>
  </g>

  <rect x="16" y="16" width="736" height="992" rx="24" stroke="url(#edge-ember-arcanist-c24)" stroke-width="2.5" opacity="0.85"/>
  <rect x="22" y="22" width="724" height="980" rx="20" stroke="#8aa0c4" stroke-width="2" opacity="0.74"/>

  <rect x="34" y="34" width="700" height="72" rx="14" fill="#070b14" fill-opacity="0.72" stroke="#8aa0c4" stroke-opacity="0.55"/>
  <text x="54" y="80" fill="#EAF4FF" font-family="Exo 2, Segoe UI, sans-serif" font-size="32" font-weight="700">Ember Arcanist</text>

  <rect x="34" y="872" width="700" height="92" rx="14" fill="#070b14" fill-opacity="0.74" stroke="#8aa0c4" stroke-opacity="0.6"/>
  <text x="54" y="924" fill="#D9E7FF" font-family="Exo 2, Segoe UI, sans-serif" font-size="30" font-weight="600">Construct Warden</text>

  <rect x="598" y="36" width="118" height="42" rx="10" fill="#8aa0c4" fill-opacity="0.2" stroke="#8aa0c4" stroke-opacity="0.8"/>
  <text x="612" y="65" fill="#8aa0c4" font-family="Exo 2, Segoe UI, sans-serif" font-size="20" font-weight="700">COMMON</text>

  <circle cx="708" cy="954" r="26" fill="#080d18" stroke="#8aa0c4" stroke-opacity="0.8"/>
  <text x="696" y="962" fill="#E7F2FF" font-family="Exo 2, Segoe UI, sans-serif" font-size="24" font-weight="700">24</text>
</svg>