<?xml version="1.0" encoding="UTF-8"?>
<svg width="768" height="1024" viewBox="0 0 768 1024" fill="none" xmlns="http://www.w3.org/2000/svg">
  <defs>
    <linearGradient id="bg-ember-arcanist-c41" x1="60" y1="40" x2="728" y2="1004" gradientUnits="userSpaceOnUse">
      <stop offset="0" stop-color="#25120a"/>
      <stop offset="0.55" stop-color="#8c2b12"/>
      <stop offset="1" stop-color="#25120a"/>
    </linearGradient>
    <radialGradient id="glow-ember-arcanist-c41" cx="0" cy="0" r="1" gradientUnits="userSpaceOnUse" gradientTransform="translate(562.63 210.12) rotate(90) scale(259.21 259.21)">
      <stop stop-color="#ff8e2d" stop-opacity="0.45"/>
      <stop offset="1" stop-color="#ff8e2d" stop-opacity="0"/>
    </radialGradient>
    <linearGradient id="edge-ember-arcanist-c41" x1="0" y1="0" x2="768" y2="1024" gradientUnits="userSpaceOnUse">
      <stop stop-color="#ff8e2d" stop-opacity="0.85"/>
      <stop offset="1" stop-color="#ff5f7a" stop-opacity="0.85"/>
    </linearGradient>
  </defs>

  <rect x="0" y="0" width="768" height="1024" rx="32" fill="#060910"/>
  <rect x="16" y="16" width="736" height="992" rx="24" fill="url(#bg-ember-arcanist-c41)"/>
  <rect x="16" y="16" width="736" height="992" rx="24" fill="url(#glow-ember-arcanist-c41)"/>

  <g opacity="0.88">
    <circle cx="384" cy="552.96" r="70" fill="none" stroke="#ff5f7a" stroke-width="7" opacity="0.75"/><circle cx="384" cy="552.96" r="108" fill="none" stroke="#ff8e2d" stroke-width="3" opacity="0.63"/><circle cx="384" cy="552.96" r="146" fill="none" stroke="#ff5f7a" stroke-width="3" opacity="0.51"/><circle cx="384" cy="552.96" r="184" fill="none" stroke="#ff8e2d" stroke-width="3" opacity="0.39"/><path d="M344,552.96 L384,496.96000000000004 L424,552.96 L384,608.96 Z" fill="none" stroke="#ff5f7a" stroke-width="6" opacity="0.9"/>
  </g>

  <g opacity="0.8">
    <circle cx="556.68" cy="818.00" r="2.21" fill="#ff5f7a" opacity="0.36"/><circle cx="87.85" cy="76.79" r="2.04" fill="#ff8e2d" opacity="0.40"/><circle cx="103.93" cy="945.53" r="4.21" fill="#ff5f7a" opacity="0.56"/><circle cx="705.55" cy="608.77" r="3.83" fill="#ff8e2d" opacity="0.33"/><circle cx="141.98" cy="318.45" r="3.52" fill="#ff5f7a" opacity="0.46"/><circle cx="169.28" cy="544.77" r="4.22" fill="#ff8e2d" opacity="0.54"/><circle cx="483.80" cy="355.80" r="1.64" fill="#ff5f7a" opacity="0.35"/><circle cx="567.25" cy="57.30" r="1.97" fill="#ff8e2d" opacity="0.39"/><circle cx="659.87" cy="662.64" r="3.34" fill="#ff5f7a" opacity="0.45"/><circle cx="622.42" cy="982.31" r="4.94" fill="#ff8e2d" opacity="0.65"/><circle cx="62.46" cy="297.40" r="1.67" fill="#ff5f7a" opacity="0.25"/><circle cx="567.71" cy="10.22" r="4.53" fill="#ff8e2d" opacity="0.27"/><circle cx="711.14" cy="134.66" r="2.57" fill="#ff5f7a" opacity="0.72"/><circle cx="576.68" cy="635.22" r="1.67" fill="#ff8e2d" opacity="0.70"/><circle cx="216.60" cy="73.00" r="1.78" fill="#ff5f7a" opacity="0.68"/><circle cx="346.87" cy="29.85" r="1.44" fill="#ff8e2d" opacity="0.31"/><circle cx="160.85" cy="742.14" r="4.88" fill="#ff5f7a" opacity="0.33"/><circle cx="233.42" cy="498.90" r="3.10" fill="#ff8e2d" opacity="0.32"/><circle cx="677.75" cy="592.71" r="3.87" fill="#ff5f7a" opacity="0.50"/><circle cx="706.93" cy="944.97" r="3.40" fill="#ff8e2d" opacity="0.58"/><circle cx="713.60" cy="998.78" r="1.80" fill="#ff5f7a" opacity="0.69"/><circle cx="132.46" cy="95.21" r="4.56" fill="#ff8e2d" opacity="0.32"/><circle cx="51.81" cy="647.81" r="2.58" fill="#ff5f7a" opacity="0.59"/><circle cx="677.60" cy="413.08" r="3.67" fill="#ff8e2d" opacity="0.29"/><circle cx="491.10" cy="83.39" r="4.77" fill="#ff5f7a" opacity="0.65"/><circle cx="87.26" cy="563.57" r="3.63" fill="#ff8e2d" opacity="0.51"/><circle cx="27.58" cy="899.63" r="4.22" fill="#ff5f7a" opacity="0.68"/><circle cx="179.99" cy="735.85" r="4.01" fill="#ff8e2d" opacity="0.33"/>
  </g>

  <rect x="16" y="16" width="736" height="992" rx="24" stroke="url(#edge-ember-arcanist-c41)" stroke-width="2.5" opacity="0.85"/>
  <rect x="22" y="22" width="724" height="980" rx="20" stroke="#78d8ff" stroke-width="2" opacity="0.74"/>

  <rect x="34" y="34" width="700" height="72" rx="14" fill="#070b14" fill-opacity="0.72" stroke="#78d8ff" stroke-opacity="0.55"/>
  <text x="54" y="80" fill="#EAF4FF" font-family="Exo 2, Segoe UI, sans-serif" font-size="32" font-weight="700">Ember Arcanist</text>

  <rect x="34" y="872" width="700" height="92" rx="14" fill="#070b14" fill-opacity="0.74" stroke="#78d8ff" stroke-opacity="0.6"/>
  <text x="54" y="924" fill="#D9E7FF" font-family="Exo 2, Segoe UI, sans-serif" font-size="30" font-weight="600">Grave Utility</text>

  <rect x="598" y="36" width="118" height="42" rx="10" fill="#78d8ff" fill-opacity="0.2" stroke="#78d8ff" stroke-opacity="0.8"/>
  <text x="612" y="65" fill="#78d8ff" font-family="Exo 2, Segoe UI, sans-serif" font-size="20" font-weight="700">RARE</text>

  <circle cx="708" cy="954" r="26" fill="#080d18" stroke="#78d8ff" stroke-opacity="0.8"/>
  <text x="696" y="962" fill="#E7F2FF" font-family="Exo 2, Segoe UI, sans-serif" font-size="24" font-weight="700">41</text>
</svg>