<?xml version="1.0" encoding="UTF-8"?>
<svg width="768" height="1024" viewBox="0 0 768 1024" fill="none" xmlns="http://www.w3.org/2000/svg">
  <defs>
    <linearGradient id="bg-ember-arcanist-c38" x1="60" y1="40" x2="728" y2="1004" gradientUnits="userSpaceOnUse">
      <stop offset="0" stop-color="#25120a"/>
      <stop offset="0.55" stop-color="#8c2b12"/>
      <stop offset="1" stop-color="#25120a"/>
    </linearGradient>
    <radialGradient id="glow-ember-arcanist-c38" cx="0" cy="0" r="1" gradientUnits="userSpaceOnUse" gradientTransform="translate(276.15 473.71) rotate(90) scale(227.82 227.82)">
      <stop stop-color="#ff8e2d" stop-opacity="0.45"/>
      <stop offset="1" stop-color="#ff8e2d" stop-opacity="0"/>
    </radialGradient>
    <linearGradient id="edge-ember-arcanist-c38" x1="0" y1="0" x2="768" y2="1024" gradientUnits="userSpaceOnUse">
      <stop stop-color="#ff8e2d" stop-opacity="0.85"/>
      <stop offset="1" stop-color="#ff5f7a" stop-opacity="0.85"/>
    </linearGradient>
  </defs>

  <rect x="0" y="0" width="768" height="1024" rx="32" fill="#060910"/>
  <rect x="16" y="16" width="736" height="992" rx="24" fill="url(#bg-ember-arcanist-c38)"/>
  <rect x="16" y="16" width="736" height="992" rx="24" fill="url(#glow-ember-arcanist-c38)"/>

  <g opacity="0.88">
    <circle cx="384" cy="552.96" r="70" fill="none" stroke="#ff5f7a" stroke-width="7" opacity="0.75"/><circle cx="384" cy="552.96" r="108" fill="none" stroke="#ff8e2d" stroke-width="3" opacity="0.63"/><circle cx="384" cy="552.96" r="146" fill="none" stroke="#ff5f7a" stroke-width="3" opacity="0.51"/><circle cx="384" cy="552.96" r="184" fill="none" stroke="#ff8e2d" stroke-width="3" opacity="0.39"/><path d="M344,552.96 L384,496.96000000000004 L424,552.96 L384,608.96 Z" fill="none" stroke="#ff5f7a" stroke-width="6" opacity="0.9"/>
  </g>

  <g opacity="0.8">
    <circle cx="581.23" cy="458.66" r="1.90" fill="#ff5f7a" opacity="0.55"/><circle cx="591.02" cy="523.64" r="1.83" fill="#ff8e2d" opacity="0.49"/><circle cx="585.81" cy="439.02" r="1.91" fill="#ff5f7a" opacity="0.38"/><circle cx="116.71" cy="825.54" r="3.81" fill="#ff8e2d" opacity="0.53"/><circle cx="389.90" cy="989.71" r="2.14" fill="#ff5f7a" opacity="0.29"/><circle cx="576.09" cy="387.11" r="1.54" fill="#ff8e2d" opacity="0.51"/><circle cx="730.36" cy="604.74" r="3.60" fill="#ff5f7a" opacity="0.38"/><circle cx="483.33" cy="789.90" r="1.22" fill="#ff8e2d" opacity="0.54"/><circle cx="425.82" cy="311.54" r="3.90" fill="#ff5f7a" opacity="0.41"/><circle cx="727.00" cy="683.64" r="3.42" fill="#ff8e2d" opacity="0.49"/><circle cx="398.91" cy="179.68" r="3.28" fill="#ff5f7a" opacity="0.27"/><circle cx="334.14" cy="995.67" r="4.34" fill="#ff8e2d" opacity="0.42"/><circle cx="226.50" cy="892.76" r="2.11" fill="#ff5f7a" opacity="0.72"/><circle cx="172.43" cy="828.98" r="1.35" fill="#ff8e2d" opacity="0.63"/><circle cx="103.50" cy="798.18" r="4.28" fill="#ff5f7a" opacity="0.64"/><circle cx="402.47" cy="406.53" r="3.95" fill="#ff8e2d" opacity="0.54"/><circle cx="180.53" cy="778.01" r="1.62" fill="#ff5f7a" opacity="0.28"/><circle cx="573.11" cy="655.72" r="4.56" fill="#ff8e2d" opacity="0.67"/><circle cx="61.33" cy="933.22" r="4.88" fill="#ff5f7a" opacity="0.51"/><circle cx="752.66" cy="29.42" r="2.52" fill="#ff8e2d" opacity="0.54"/><circle cx="22.89" cy="61.96" r="1.91" fill="#ff5f7a" opacity="0.34"/><circle cx="421.58" cy="376.82" r="4.98" fill="#ff8e2d" opacity="0.67"/><circle cx="681.54" cy="298.22" r="3.37" fill="#ff5f7a" opacity="0.28"/><circle cx="573.24" cy="813.13" r="4.43" fill="#ff8e2d" opacity="0.34"/><circle cx="212.13" cy="271.28" r="2.06" fill="#ff5f7a" opacity="0.29"/><circle cx="72.11" cy="506.74" r="4.82" fill="#ff8e2d" opacity="0.47"/><circle cx="183.99" cy="977.66" r="4.58" fill="#ff5f7a" opacity="0.71"/><circle cx="645.86" cy="322.43" r="3.75" fill="#ff8e2d" opacity="0.67"/>
  </g>

  <rect x="16" y="16" width="736" height="992" rx="24" stroke="url(#edge-ember-arcanist-c38)" stroke-width="2.5" opacity="0.85"/>
  <rect x="22" y="22" width="724" height="980" rx="20" stroke="#78d8ff" stroke-width="2" opacity="0.74"/>

  <rect x="34" y="34" width="700" height="72" rx="14" fill="#070b14" fill-opacity="0.72" stroke="#78d8ff" stroke-opacity="0.55"/>
  <text x="54" y="80" fill="#EAF4FF" font-family="Exo 2, Segoe UI, sans-serif" font-size="32" font-weight="700">Ember Arcanist</text>

  <rect x="34" y="872" width="700" height="92" rx="14" fill="#070b14" fill-opacity="0.74" stroke="#78d8ff" stroke-opacity="0.6"/>
  <text x="54" y="924" fill="#D9E7FF" font-family="Exo 2, Segoe UI, sans-serif" font-size="30" font-weight="600">Reposition</text>

  <rect x="598" y="36" width="118" height="42" rx="10" fill="#78d8ff" fill-opacity="0.2" stroke="#78d8ff" stroke-opacity="0.8"/>
  <text x="612" y="65" fill="#78d8ff" font-family="Exo 2, Segoe UI, sans-serif" font-size="20" font-weight="700">RARE</text>

  <circle cx="708" cy="954" r="26" fill="#080d18" stroke="#78d8ff" stroke-opacity="0.8"/>
  <text x="696" y="962" fill="#E7F2FF" font-family="Exo 2, Segoe UI, sans-serif" font-size="24" font-weight="700">38</text>
</svg>