<?xml version="1.0" encoding="UTF-8"?>
<svg width="768" height="1024" viewBox="0 0 768 1024" fill="none" xmlns="http://www.w3.org/2000/svg">
  <defs>
    <linearGradient id="bg-ironbound-beastmaster-c26" x1="60" y1="40" x2="728" y2="1004" gradientUnits="userSpaceOnUse">
      <stop offset="0" stop-color="#15140f"/>
      <stop offset="0.55" stop-color="#5d4522"/>
      <stop offset="1" stop-color="#15140f"/>
    </linearGradient>
    <radialGradient id="glow-ironbound-beastmaster-c26" cx="0" cy="0" r="1" gradientUnits="userSpaceOnUse" gradientTransform="translate(202.88 554.44) rotate(90) scale(245.29 245.29)">
      <stop stop-color="#ab7f3e" stop-opacity="0.45"/>
      <stop offset="1" stop-color="#ab7f3e" stop-opacity="0"/>
    </radialGradient>
    <linearGradient id="edge-ironbound-beastmaster-c26" x1="0" y1="0" x2="768" y2="1024" gradientUnits="userSpaceOnUse">
      <stop stop-color="#ab7f3e" stop-opacity="0.85"/>
      <stop offset="1" stop-color="#8fd15f" stop-opacity="0.85"/>
    </linearGradient>
  </defs>

  <rect x="0" y="0" width="768" height="1024" rx="32" fill="#060910"/>
  <rect x="16" y="16" width="736" height="992" rx="24" fill="url(#bg-ironbound-beastmaster-c26)"/>
  <rect x="16" y="16" width="736" height="992" rx="24" fill="url(#glow-ironbound-beastmaster-c26)"/>

  <g opacity="0.88">
    <path d="M184.80,271.58 C228.14,441.04 207.08,623.48 181.01,686.26" stroke="#8fd15f" stroke-width="10" fill="none" opacity="0.7"/><path d="M275.26,326.11 C324.77,508.12 334.38,615.16 256.45,766.48" stroke="#ab7f3e" stroke-width="9" fill="none" opacity="0.7"/><path d="M360.79,268.69 C406.72,452.86 440.75,645.52 359.11,768.79" stroke="#8fd15f" stroke-width="8" fill="none" opacity="0.7"/><path d="M440.77,304.48 C501.06,531.58 517.37,661.99 436.06,788.12" stroke="#ab7f3e" stroke-width="7" fill="none" opacity="0.7"/>
  </g>

  <g opacity="0.8">
    <circle cx="77.62" cy="17.86" r="1.25" fill="#8fd15f" opacity="0.34"/><circle cx="444.26" cy="591.68" r="3.42" fill="#ab7f3e" opacity="0.67"/><circle cx="574.99" cy="303.21" r="2.35" fill="#8fd15f" opacity="0.58"/><circle cx="198.03" cy="359.96" r="1.33" fill="#ab7f3e" opacity="0.38"/><circle cx="555.22" cy="578.95" r="4.22" fill="#8fd15f" opacity="0.62"/><circle cx="207.24" cy="1019.59" r="4.23" fill="#ab7f3e" opacity="0.62"/><circle cx="524.66" cy="924.09" r="1.90" fill="#8fd15f" opacity="0.35"/><circle cx="713.97" cy="1002.77" r="1.28" fill="#ab7f3e" opacity="0.65"/><circle cx="208.16" cy="859.89" r="3.42" fill="#8fd15f" opacity="0.38"/><circle cx="631.34" cy="781.50" r="2.94" fill="#ab7f3e" opacity="0.66"/><circle cx="434.75" cy="841.76" r="4.79" fill="#8fd15f" opacity="0.43"/><circle cx="562.06" cy="860.50" r="1.47" fill="#ab7f3e" opacity="0.71"/><circle cx="104.67" cy="953.11" r="3.38" fill="#8fd15f" opacity="0.69"/><circle cx="84.47" cy="587.05" r="3.38" fill="#ab7f3e" opacity="0.57"/><circle cx="97.77" cy="98.66" r="2.82" fill="#8fd15f" opacity="0.58"/><circle cx="606.02" cy="126.22" r="3.96" fill="#ab7f3e" opacity="0.53"/><circle cx="257.41" cy="907.90" r="3.19" fill="#8fd15f" opacity="0.40"/><circle cx="204.49" cy="436.53" r="3.26" fill="#ab7f3e" opacity="0.52"/><circle cx="537.19" cy="837.39" r="2.44" fill="#8fd15f" opacity="0.57"/><circle cx="157.91" cy="759.21" r="1.58" fill="#ab7f3e" opacity="0.28"/><circle cx="600.51" cy="134.90" r="3.67" fill="#8fd15f" opacity="0.63"/><circle cx="484.05" cy="842.04" r="1.70" fill="#ab7f3e" opacity="0.51"/><circle cx="31.23" cy="555.90" r="4.86" fill="#8fd15f" opacity="0.40"/><circle cx="416.45" cy="317.23" r="3.93" fill="#ab7f3e" opacity="0.25"/><circle cx="165.36" cy="869.95" r="2.84" fill="#8fd15f" opacity="0.47"/><circle cx="579.67" cy="885.33" r="3.44" fill="#ab7f3e" opacity="0.27"/><circle cx="179.96" cy="505.17" r="3.73" fill="#8fd15f" opacity="0.61"/><circle cx="689.22" cy="1010.77" r="1.80" fill="#ab7f3e" opacity="0.31"/>
  </g>

  <rect x="16" y="16" width="736" height="992" rx="24" stroke="url(#edge-ironbound-beastmaster-c26)" stroke-width="2.5" opacity="0.85"/>
  <rect x="22" y="22" width="724" height="980" rx="20" stroke="#8aa0c4" stroke-width="2" opacity="0.74"/>

  <rect x="34" y="34" width="700" height="72" rx="14" fill="#070b14" fill-opacity="0.72" stroke="#8aa0c4" stroke-opacity="0.55"/>
  <text x="54" y="80" fill="#EAF4FF" font-family="Exo 2, Segoe UI, sans-serif" font-size="32" font-weight="700">Ironbound Beastmaster</text>

  <rect x="34" y="872" width="700" height="92" rx="14" fill="#070b14" fill-opacity="0.74" stroke="#8aa0c4" stroke-opacity="0.6"/>
  <text x="54" y="924" fill="#D9E7FF" font-family="Exo 2, Segoe UI, sans-serif" font-size="30" font-weight="600">Area Denial</text>

  <rect x="598" y="36" width="118" height="42" rx="10" fill="#8aa0c4" fill-opacity="0.2" stroke="#8aa0c4" stroke-opacity="0.8"/>
  <text x="612" y="65" fill="#8aa0c4" font-family="Exo 2, Segoe UI, sans-serif" font-size="20" font-weight="700">COMMON</text>

  <circle cx="708" cy="954" r="26" fill="#080d18" stroke="#8aa0c4" stroke-opacity="0.8"/>
  <text x="696" y="962" fill="#E7F2FF" font-family="Exo 2, Segoe UI, sans-serif" font-size="24" font-weight="700">26</text>
</svg>