<?xml version="1.0" encoding="UTF-8"?>
<svg width="768" height="1024" viewBox="0 0 768 1024" fill="none" xmlns="http://www.w3.org/2000/svg">
  <defs>
    <linearGradient id="bg-ironbound-beastmaster-c17" x1="60" y1="40" x2="728" y2="1004" gradientUnits="userSpaceOnUse">
      <stop offset="0" stop-color="#15140f"/>
      <stop offset="0.55" stop-color="#5d4522"/>
      <stop offset="1" stop-color="#15140f"/>
    </linearGradient>
    <radialGradient id="glow-ironbound-beastmaster-c17" cx="0" cy="0" r="1" gradientUnits="userSpaceOnUse" gradientTransform="translate(311.21 386.64) rotate(90) scale(277.84 277.84)">
      <stop stop-color="#ab7f3e" stop-opacity="0.45"/>
      <stop offset="1" stop-color="#ab7f3e" stop-opacity="0"/>
    </radialGradient>
    <linearGradient id="edge-ironbound-beastmaster-c17" x1="0" y1="0" x2="768" y2="1024" gradientUnits="userSpaceOnUse">
      <stop stop-color="#ab7f3e" stop-opacity="0.85"/>
      <stop offset="1" stop-color="#8fd15f" stop-opacity="0.85"/>
    </linearGradient>
  </defs>

  <rect x="0" y="0" width="768" height="1024" rx="32" fill="#060910"/>
  <rect x="16" y="16" width="736" height="992" rx="24" fill="url(#bg-ironbound-beastmaster-c17)"/>
  <rect x="16" y="16" width="736" height="992" rx="24" fill="url(#glow-ironbound-beastmaster-c17)"/>

  <g opacity="0.88">
    <path d="M191.59,221.48 C264.55,405.70 264.94,540.89 170.91,685.57" stroke="#8fd15f" stroke-width="10" fill="none" opacity="0.7"/><path d="M271.74,280.13 C331.95,426.96 347.98,659.67 261.12,758.97" stroke="#ab7f3e" stroke-width="9" fill="none" opacity="0.7"/><path d="M351.43,224.24 C408.70,388.80 408.23,501.87 333.01,653.84" stroke="#8fd15f" stroke-width="8" fill="none" opacity="0.7"/><path d="M439.95,229.08 C518.68,426.07 511.18,538.52 418.11,684.28" stroke="#ab7f3e" stroke-width="7" fill="none" opacity="0.7"/>
  </g>

  <g opacity="0.8">
    <circle cx="712.16" cy="140.16" r="2.06" fill="#8fd15f" opacity="0.44"/><circle cx="408.81" cy="334.45" r="2.88" fill="#ab7f3e" opacity="0.61"/><circle cx="682.05" cy="122.53" r="4.71" fill="#8fd15f" opacity="0.26"/><circle cx="221.92" cy="780.09" r="2.80" fill="#ab7f3e" opacity="0.32"/><circle cx="232.54" cy="871.49" r="2.12" fill="#8fd15f" opacity="0.68"/><circle cx="70.86" cy="175.48" r="4.51" fill="#ab7f3e" opacity="0.54"/><circle cx="271.86" cy="836.73" r="4.46" fill="#8fd15f" opacity="0.25"/><circle cx="349.60" cy="981.91" r="3.95" fill="#ab7f3e" opacity="0.53"/><circle cx="486.24" cy="1015.12" r="2.15" fill="#8fd15f" opacity="0.49"/><circle cx="697.92" cy="947.40" r="4.83" fill="#ab7f3e" opacity="0.57"/><circle cx="44.53" cy="68.41" r="4.92" fill="#8fd15f" opacity="0.41"/><circle cx="617.73" cy="350.03" r="2.29" fill="#ab7f3e" opacity="0.71"/><circle cx="696.40" cy="662.32" r="2.08" fill="#8fd15f" opacity="0.48"/><circle cx="357.63" cy="504.71" r="3.01" fill="#ab7f3e" opacity="0.27"/><circle cx="324.44" cy="818.35" r="3.83" fill="#8fd15f" opacity="0.58"/><circle cx="554.93" cy="813.37" r="3.29" fill="#ab7f3e" opacity="0.59"/><circle cx="601.15" cy="353.05" r="3.78" fill="#8fd15f" opacity="0.57"/><circle cx="213.55" cy="15.16" r="4.73" fill="#ab7f3e" opacity="0.69"/><circle cx="171.30" cy="3.39" r="2.86" fill="#8fd15f" opacity="0.47"/><circle cx="738.52" cy="982.02" r="1.75" fill="#ab7f3e" opacity="0.47"/><circle cx="87.12" cy="527.99" r="3.61" fill="#8fd15f" opacity="0.40"/><circle cx="761.65" cy="934.93" r="4.93" fill="#ab7f3e" opacity="0.60"/><circle cx="81.11" cy="33.86" r="4.06" fill="#8fd15f" opacity="0.61"/><circle cx="759.63" cy="858.63" r="3.54" fill="#ab7f3e" opacity="0.62"/><circle cx="548.33" cy="618.22" r="1.80" fill="#8fd15f" opacity="0.43"/><circle cx="144.96" cy="944.10" r="4.30" fill="#ab7f3e" opacity="0.34"/><circle cx="602.31" cy="656.45" r="2.66" fill="#8fd15f" opacity="0.33"/><circle cx="146.00" cy="309.27" r="3.25" fill="#ab7f3e" opacity="0.27"/>
  </g>

  <rect x="16" y="16" width="736" height="992" rx="24" stroke="url(#edge-ironbound-beastmaster-c17)" stroke-width="2.5" opacity="0.85"/>
  <rect x="22" y="22" width="724" height="980" rx="20" stroke="#8aa0c4" stroke-width="2" opacity="0.74"/>

  <rect x="34" y="34" width="700" height="72" rx="14" fill="#070b14" fill-opacity="0.72" stroke="#8aa0c4" stroke-opacity="0.55"/>
  <text x="54" y="80" fill="#EAF4FF" font-family="Exo 2, Segoe UI, sans-serif" font-size="32" font-weight="700">Ironbound Beastmaster</text>

  <rect x="34" y="872" width="700" height="92" rx="14" fill="#070b14" fill-opacity="0.74" stroke="#8aa0c4" stroke-opacity="0.6"/>
  <text x="54" y="924" fill="#D9E7FF" font-family="Exo 2, Segoe UI, sans-serif" font-size="30" font-weight="600">Enforcer</text>

  <rect x="598" y="36" width="118" height="42" rx="10" fill="#8aa0c4" fill-opacity="0.2" stroke="#8aa0c4" stroke-opacity="0.8"/>
  <text x="612" y="65" fill="#8aa0c4" font-family="Exo 2, Segoe UI, sans-serif" font-size="20" font-weight="700">COMMON</text>

  <circle cx="708" cy="954" r="26" fill="#080d18" stroke="#8aa0c4" stroke-opacity="0.8"/>
  <text x="696" y="962" fill="#E7F2FF" font-family="Exo 2, Segoe UI, sans-serif" font-size="24" font-weight="700">17</text>
</svg>