<?xml version="1.0" encoding="UTF-8"?>
<svg width="768" height="1024" viewBox="0 0 768 1024" fill="none" xmlns="http://www.w3.org/2000/svg">
  <defs>
    <linearGradient id="bg-ironbound-beastmaster-c34" x1="60" y1="40" x2="728" y2="1004" gradientUnits="userSpaceOnUse">
      <stop offset="0" stop-color="#15140f"/>
      <stop offset="0.55" stop-color="#5d4522"/>
      <stop offset="1" stop-color="#15140f"/>
    </linearGradient>
    <radialGradient id="glow-ironbound-beastmaster-c34" cx="0" cy="0" r="1" gradientUnits="userSpaceOnUse" gradientTransform="translate(326.62 389.45) rotate(90) scale(278.71 278.71)">
      <stop stop-color="#ab7f3e" stop-opacity="0.45"/>
      <stop offset="1" stop-color="#ab7f3e" stop-opacity="0"/>
    </radialGradient>
    <linearGradient id="edge-ironbound-beastmaster-c34" x1="0" y1="0" x2="768" y2="1024" gradientUnits="userSpaceOnUse">
      <stop stop-color="#ab7f3e" stop-opacity="0.85"/>
      <stop offset="1" stop-color="#8fd15f" stop-opacity="0.85"/>
    </linearGradient>
  </defs>

  <rect x="0" y="0" width="768" height="1024" rx="32" fill="#060910"/>
  <rect x="16" y="16" width="736" height="992" rx="24" fill="url(#bg-ironbound-beastmaster-c34)"/>
  <rect x="16" y="16" width="736" height="992" rx="24" fill="url(#glow-ironbound-beastmaster-c34)"/>

  <g opacity="0.88">
    <path d="M191.49,268.40 C260.20,394.96 262.29,626.99 175.86,662.58" stroke="#8fd15f" stroke-width="10" fill="none" opacity="0.7"/><path d="M267.01,214.31 C339.03,414.97 291.95,460.04 246.84,608.50" stroke="#ab7f3e" stroke-width="9" fill="none" opacity="0.7"/><path d="M358.55,246.77 C417.00,451.63 420.29,518.16 346.63,638.74" stroke="#8fd15f" stroke-width="8" fill="none" opacity="0.7"/><path d="M437.93,312.53 C513.84,430.12 481.56,701.44 421.04,714.92" stroke="#ab7f3e" stroke-width="7" fill="none" opacity="0.7"/>
  </g>

  <g opacity="0.8">
    <circle cx="470.43" cy="819.14" r="1.97" fill="#8fd15f" opacity="0.55"/><circle cx="30.50" cy="129.23" r="2.41" fill="#ab7f3e" opacity="0.56"/><circle cx="186.66" cy="495.31" r="2.53" fill="#8fd15f" opacity="0.50"/><circle cx="20.39" cy="572.49" r="4.69" fill="#ab7f3e" opacity="0.43"/><circle cx="532.52" cy="905.09" r="4.39" fill="#8fd15f" opacity="0.47"/><circle cx="285.51" cy="670.60" r="2.36" fill="#ab7f3e" opacity="0.69"/><circle cx="616.68" cy="964.82" r="2.82" fill="#8fd15f" opacity="0.61"/><circle cx="527.50" cy="959.58" r="4.42" fill="#ab7f3e" opacity="0.42"/><circle cx="601.40" cy="334.65" r="2.43" fill="#8fd15f" opacity="0.54"/><circle cx="603.56" cy="560.58" r="2.85" fill="#ab7f3e" opacity="0.58"/><circle cx="51.74" cy="845.04" r="4.05" fill="#8fd15f" opacity="0.24"/><circle cx="427.50" cy="728.40" r="4.12" fill="#ab7f3e" opacity="0.51"/><circle cx="285.97" cy="530.55" r="4.86" fill="#8fd15f" opacity="0.34"/><circle cx="724.56" cy="578.53" r="2.76" fill="#ab7f3e" opacity="0.66"/><circle cx="563.09" cy="774.30" r="2.48" fill="#8fd15f" opacity="0.67"/><circle cx="453.32" cy="668.99" r="2.99" fill="#ab7f3e" opacity="0.42"/><circle cx="254.67" cy="890.15" r="1.47" fill="#8fd15f" opacity="0.72"/><circle cx="756.71" cy="186.35" r="3.66" fill="#ab7f3e" opacity="0.33"/><circle cx="9.95" cy="749.74" r="2.91" fill="#8fd15f" opacity="0.26"/><circle cx="701.04" cy="1002.36" r="2.34" fill="#ab7f3e" opacity="0.64"/><circle cx="262.35" cy="856.44" r="1.68" fill="#8fd15f" opacity="0.56"/><circle cx="63.28" cy="183.78" r="1.50" fill="#ab7f3e" opacity="0.57"/><circle cx="732.40" cy="934.13" r="2.19" fill="#8fd15f" opacity="0.36"/><circle cx="367.32" cy="702.29" r="1.72" fill="#ab7f3e" opacity="0.36"/><circle cx="171.21" cy="760.09" r="3.14" fill="#8fd15f" opacity="0.33"/><circle cx="551.49" cy="178.87" r="3.03" fill="#ab7f3e" opacity="0.37"/><circle cx="425.03" cy="936.95" r="2.53" fill="#8fd15f" opacity="0.36"/><circle cx="647.34" cy="710.48" r="4.85" fill="#ab7f3e" opacity="0.53"/>
  </g>

  <rect x="16" y="16" width="736" height="992" rx="24" stroke="url(#edge-ironbound-beastmaster-c34)" stroke-width="2.5" opacity="0.85"/>
  <rect x="22" y="22" width="724" height="980" rx="20" stroke="#78d8ff" stroke-width="2" opacity="0.74"/>

  <rect x="34" y="34" width="700" height="72" rx="14" fill="#070b14" fill-opacity="0.72" stroke="#78d8ff" stroke-opacity="0.55"/>
  <text x="54" y="80" fill="#EAF4FF" font-family="Exo 2, Segoe UI, sans-serif" font-size="32" font-weight="700">Ironbound Beastmaster</text>

  <rect x="34" y="872" width="700" height="92" rx="14" fill="#070b14" fill-opacity="0.74" stroke="#78d8ff" stroke-opacity="0.6"/>
  <text x="54" y="924" fill="#D9E7FF" font-family="Exo 2, Segoe UI, sans-serif" font-size="30" font-weight="600">Arc Ping</text>

  <rect x="598" y="36" width="118" height="42" rx="10" fill="#78d8ff" fill-opacity="0.2" stroke="#78d8ff" stroke-opacity="0.8"/>
  <text x="612" y="65" fill="#78d8ff" font-family="Exo 2, Segoe UI, sans-serif" font-size="20" font-weight="700">RARE</text>

  <circle cx="708" cy="954" r="26" fill="#080d18" stroke="#78d8ff" stroke-opacity="0.8"/>
  <text x="696" y="962" fill="#E7F2FF" font-family="Exo 2, Segoe UI, sans-serif" font-size="24" font-weight="700">34</text>
</svg>