<?xml version="1.0" encoding="UTF-8"?>
<svg width="768" height="1024" viewBox="0 0 768 1024" fill="none" xmlns="http://www.w3.org/2000/svg">
  <defs>
    <linearGradient id="bg-ironbound-beastmaster-c01" x1="60" y1="40" x2="728" y2="1004" gradientUnits="userSpaceOnUse">
      <stop offset="0" stop-color="#15140f"/>
      <stop offset="0.55" stop-color="#5d4522"/>
      <stop offset="1" stop-color="#15140f"/>
    </linearGradient>
    <radialGradient id="glow-ironbound-beastmaster-c01" cx="0" cy="0" r="1" gradientUnits="userSpaceOnUse" gradientTransform="translate(373.64 746.77) rotate(90) scale(218.13 218.13)">
      <stop stop-color="#ab7f3e" stop-opacity="0.45"/>
      <stop offset="1" stop-color="#ab7f3e" stop-opacity="0"/>
    </radialGradient>
    <linearGradient id="edge-ironbound-beastmaster-c01" x1="0" y1="0" x2="768" y2="1024" gradientUnits="userSpaceOnUse">
      <stop stop-color="#ab7f3e" stop-opacity="0.85"/>
      <stop offset="1" stop-color="#8fd15f" stop-opacity="0.85"/>
    </linearGradient>
  </defs>

  <rect x="0" y="0" width="768" height="1024" rx="32" fill="#060910"/>
  <rect x="16" y="16" width="736" height="992" rx="24" fill="url(#bg-ironbound-beastmaster-c01)"/>
  <rect x="16" y="16" width="736" height="992" rx="24" fill="url(#glow-ironbound-beastmaster-c01)"/>

  <g opacity="0.88">
    <path d="M186.57,315.43 C257.93,438.07 226.63,640.91 175.50,798.94" stroke="#8fd15f" stroke-width="10" fill="none" opacity="0.7"/><path d="M267.84,226.53 C327.63,425.57 347.84,584.92 248.06,699.90" stroke="#ab7f3e" stroke-width="9" fill="none" opacity="0.7"/><path d="M355.03,321.98 C412.09,537.07 409.13,653.26 336.28,752.44" stroke="#8fd15f" stroke-width="8" fill="none" opacity="0.7"/><path d="M444.15,264.94 C506.37,446.86 495.00,569.88 421.80,731.58" stroke="#ab7f3e" stroke-width="7" fill="none" opacity="0.7"/>
  </g>

  <g opacity="0.8">
    <circle cx="645.52" cy="40.82" r="2.93" fill="#8fd15f" opacity="0.43"/><circle cx="708.09" cy="829.45" r="4.20" fill="#ab7f3e" opacity="0.28"/><circle cx="1.52" cy="566.35" r="2.12" fill="#8fd15f" opacity="0.40"/><circle cx="324.88" cy="226.46" r="4.49" fill="#ab7f3e" opacity="0.24"/><circle cx="172.42" cy="158.03" r="3.80" fill="#8fd15f" opacity="0.25"/><circle cx="202.49" cy="420.85" r="2.81" fill="#ab7f3e" opacity="0.49"/><circle cx="715.85" cy="494.13" r="3.40" fill="#8fd15f" opacity="0.42"/><circle cx="431.88" cy="869.17" r="2.38" fill="#ab7f3e" opacity="0.49"/><circle cx="566.28" cy="560.58" r="2.60" fill="#8fd15f" opacity="0.36"/><circle cx="757.86" cy="187.92" r="2.78" fill="#ab7f3e" opacity="0.36"/><circle cx="152.86" cy="5.17" r="2.68" fill="#8fd15f" opacity="0.28"/><circle cx="591.79" cy="125.83" r="4.43" fill="#ab7f3e" opacity="0.49"/><circle cx="185.79" cy="82.69" r="4.48" fill="#8fd15f" opacity="0.34"/><circle cx="731.55" cy="609.77" r="1.32" fill="#ab7f3e" opacity="0.28"/><circle cx="561.37" cy="404.67" r="4.38" fill="#8fd15f" opacity="0.67"/><circle cx="545.27" cy="860.40" r="1.36" fill="#ab7f3e" opacity="0.59"/><circle cx="488.47" cy="859.31" r="2.50" fill="#8fd15f" opacity="0.44"/><circle cx="582.96" cy="498.61" r="4.40" fill="#ab7f3e" opacity="0.38"/><circle cx="725.30" cy="546.31" r="3.19" fill="#8fd15f" opacity="0.48"/><circle cx="314.12" cy="680.49" r="4.16" fill="#ab7f3e" opacity="0.68"/><circle cx="469.10" cy="704.71" r="4.61" fill="#8fd15f" opacity="0.28"/><circle cx="668.24" cy="816.37" r="2.70" fill="#ab7f3e" opacity="0.26"/><circle cx="572.87" cy="346.47" r="3.44" fill="#8fd15f" opacity="0.71"/><circle cx="766.56" cy="381.61" r="4.92" fill="#ab7f3e" opacity="0.31"/><circle cx="404.06" cy="780.55" r="4.36" fill="#8fd15f" opacity="0.39"/><circle cx="170.96" cy="296.69" r="3.02" fill="#ab7f3e" opacity="0.59"/><circle cx="304.40" cy="1010.38" r="3.09" fill="#8fd15f" opacity="0.64"/><circle cx="39.52" cy="996.27" r="1.41" fill="#ab7f3e" opacity="0.50"/>
  </g>

  <rect x="16" y="16" width="736" height="992" rx="24" stroke="url(#edge-ironbound-beastmaster-c01)" stroke-width="2.5" opacity="0.85"/>
  <rect x="22" y="22" width="724" height="980" rx="20" stroke="#8aa0c4" stroke-width="2" opacity="0.74"/>

  <rect x="34" y="34" width="700" height="72" rx="14" fill="#070b14" fill-opacity="0.72" stroke="#8aa0c4" stroke-opacity="0.55"/>
  <text x="54" y="80" fill="#EAF4FF" font-family="Exo 2, Segoe UI, sans-serif" font-size="32" font-weight="700">Ironbound Beastmaster</text>

  <rect x="34" y="872" width="700" height="92" rx="14" fill="#070b14" fill-opacity="0.74" stroke="#8aa0c4" stroke-opacity="0.6"/>
  <text x="54" y="924" fill="#D9E7FF" font-family="Exo 2, Segoe UI, sans-serif" font-size="30" font-weight="600">Vanguard</text>

  <rect x="598" y="36" width="118" height="42" rx="10" fill="#8aa0c4" fill-opacity="0.2" stroke="#8aa0c4" stroke-opacity="0.8"/>
  <text x="612" y="65" fill="#8aa0c4" font-family="Exo 2, Segoe UI, sans-serif" font-size="20" font-weight="700">COMMON</text>

  <circle cx="708" cy="954" r="26" fill="#080d18" stroke="#8aa0c4" stroke-opacity="0.8"/>
  <text x="696" y="962" fill="#E7F2FF" font-family="Exo 2, Segoe UI, sans-serif" font-size="24" font-weight="700">01</text>
</svg>