<?xml version="1.0" encoding="UTF-8"?>
<svg width="768" height="1024" viewBox="0 0 768 1024" fill="none" xmlns="http://www.w3.org/2000/svg">
  <defs>
    <linearGradient id="bg-ironbound-beastmaster-c32" x1="60" y1="40" x2="728" y2="1004" gradientUnits="userSpaceOnUse">
      <stop offset="0" stop-color="#15140f"/>
      <stop offset="0.55" stop-color="#5d4522"/>
      <stop offset="1" stop-color="#15140f"/>
    </linearGradient>
    <radialGradient id="glow-ironbound-beastmaster-c32" cx="0" cy="0" r="1" gradientUnits="userSpaceOnUse" gradientTransform="translate(318.17 233.77) rotate(90) scale(284.72 284.72)">
      <stop stop-color="#ab7f3e" stop-opacity="0.45"/>
      <stop offset="1" stop-color="#ab7f3e" stop-opacity="0"/>
    </radialGradient>
    <linearGradient id="edge-ironbound-beastmaster-c32" x1="0" y1="0" x2="768" y2="1024" gradientUnits="userSpaceOnUse">
      <stop stop-color="#ab7f3e" stop-opacity="0.85"/>
      <stop offset="1" stop-color="#8fd15f" stop-opacity="0.85"/>
    </linearGradient>
  </defs>

  <rect x="0" y="0" width="768" height="1024" rx="32" fill="#060910"/>
  <rect x="16" y="16" width="736" height="992" rx="24" fill="url(#bg-ironbound-beastmaster-c32)"/>
  <rect x="16" y="16" width="736" height="992" rx="24" fill="url(#glow-ironbound-beastmaster-c32)"/>

  <g opacity="0.88">
    <path d="M185.63,277.93 C227.91,369.96 248.52,609.82 178.10,673.46" stroke="#8fd15f" stroke-width="10" fill="none" opacity="0.7"/><path d="M265.00,303.53 C343.43,397.73 290.76,617.45 244.75,719.27" stroke="#ab7f3e" stroke-width="9" fill="none" opacity="0.7"/><path d="M354.08,268.29 C433.79,430.82 386.41,582.09 342.24,774.01" stroke="#8fd15f" stroke-width="8" fill="none" opacity="0.7"/><path d="M445.26,291.35 C510.04,456.58 502.26,656.27 428.10,710.55" stroke="#ab7f3e" stroke-width="7" fill="none" opacity="0.7"/>
  </g>

  <g opacity="0.8">
    <circle cx="380.70" cy="285.84" r="1.70" fill="#8fd15f" opacity="0.26"/><circle cx="201.37" cy="345.72" r="3.24" fill="#ab7f3e" opacity="0.65"/><circle cx="712.59" cy="764.19" r="4.66" fill="#8fd15f" opacity="0.29"/><circle cx="670.94" cy="414.68" r="1.70" fill="#ab7f3e" opacity="0.32"/><circle cx="211.44" cy="835.38" r="2.07" fill="#8fd15f" opacity="0.55"/><circle cx="342.09" cy="867.25" r="2.11" fill="#ab7f3e" opacity="0.46"/><circle cx="248.39" cy="719.41" r="3.91" fill="#8fd15f" opacity="0.41"/><circle cx="724.82" cy="332.49" r="2.13" fill="#ab7f3e" opacity="0.62"/><circle cx="535.36" cy="762.22" r="1.47" fill="#8fd15f" opacity="0.57"/><circle cx="181.93" cy="730.99" r="4.93" fill="#ab7f3e" opacity="0.44"/><circle cx="624.02" cy="728.10" r="3.82" fill="#8fd15f" opacity="0.57"/><circle cx="716.23" cy="3.36" r="3.57" fill="#ab7f3e" opacity="0.71"/><circle cx="570.08" cy="50.74" r="1.44" fill="#8fd15f" opacity="0.54"/><circle cx="145.12" cy="395.17" r="1.89" fill="#ab7f3e" opacity="0.44"/><circle cx="23.86" cy="736.69" r="4.28" fill="#8fd15f" opacity="0.69"/><circle cx="296.82" cy="434.63" r="1.29" fill="#ab7f3e" opacity="0.58"/><circle cx="348.80" cy="778.48" r="2.29" fill="#8fd15f" opacity="0.44"/><circle cx="444.35" cy="356.81" r="2.82" fill="#ab7f3e" opacity="0.40"/><circle cx="642.81" cy="578.33" r="3.12" fill="#8fd15f" opacity="0.47"/><circle cx="594.49" cy="517.99" r="1.25" fill="#ab7f3e" opacity="0.47"/><circle cx="86.48" cy="76.87" r="2.32" fill="#8fd15f" opacity="0.49"/><circle cx="517.49" cy="526.42" r="3.77" fill="#ab7f3e" opacity="0.30"/><circle cx="512.60" cy="178.25" r="4.77" fill="#8fd15f" opacity="0.39"/><circle cx="611.25" cy="574.37" r="1.31" fill="#ab7f3e" opacity="0.34"/><circle cx="604.56" cy="502.16" r="4.09" fill="#8fd15f" opacity="0.28"/><circle cx="221.24" cy="398.47" r="1.96" fill="#ab7f3e" opacity="0.63"/><circle cx="378.93" cy="273.63" r="2.95" fill="#8fd15f" opacity="0.73"/><circle cx="447.24" cy="281.98" r="4.00" fill="#ab7f3e" opacity="0.66"/>
  </g>

  <rect x="16" y="16" width="736" height="992" rx="24" stroke="url(#edge-ironbound-beastmaster-c32)" stroke-width="2.5" opacity="0.85"/>
  <rect x="22" y="22" width="724" height="980" rx="20" stroke="#78d8ff" stroke-width="2" opacity="0.74"/>

  <rect x="34" y="34" width="700" height="72" rx="14" fill="#070b14" fill-opacity="0.72" stroke="#78d8ff" stroke-opacity="0.55"/>
  <text x="54" y="80" fill="#EAF4FF" font-family="Exo 2, Segoe UI, sans-serif" font-size="32" font-weight="700">Ironbound Beastmaster</text>

  <rect x="34" y="872" width="700" height="92" rx="14" fill="#070b14" fill-opacity="0.74" stroke="#78d8ff" stroke-opacity="0.6"/>
  <text x="54" y="924" fill="#D9E7FF" font-family="Exo 2, Segoe UI, sans-serif" font-size="30" font-weight="600">Lieutenant Prime</text>

  <rect x="598" y="36" width="118" height="42" rx="10" fill="#78d8ff" fill-opacity="0.2" stroke="#78d8ff" stroke-opacity="0.8"/>
  <text x="612" y="65" fill="#78d8ff" font-family="Exo 2, Segoe UI, sans-serif" font-size="20" font-weight="700">RARE</text>

  <circle cx="708" cy="954" r="26" fill="#080d18" stroke="#78d8ff" stroke-opacity="0.8"/>
  <text x="696" y="962" fill="#E7F2FF" font-family="Exo 2, Segoe UI, sans-serif" font-size="24" font-weight="700">32</text>
</svg>