<?xml version="1.0" encoding="UTF-8"?>
<svg width="768" height="1024" viewBox="0 0 768 1024" fill="none" xmlns="http://www.w3.org/2000/svg">
  <defs>
    <linearGradient id="bg-ironbound-beastmaster-c20" x1="60" y1="40" x2="728" y2="1004" gradientUnits="userSpaceOnUse">
      <stop offset="0" stop-color="#15140f"/>
      <stop offset="0.55" stop-color="#5d4522"/>
      <stop offset="1" stop-color="#15140f"/>
    </linearGradient>
    <radialGradient id="glow-ironbound-beastmaster-c20" cx="0" cy="0" r="1" gradientUnits="userSpaceOnUse" gradientTransform="translate(253.67 473.18) rotate(90) scale(280.32 280.32)">
      <stop stop-color="#ab7f3e" stop-opacity="0.45"/>
      <stop offset="1" stop-color="#ab7f3e" stop-opacity="0"/>
    </radialGradient>
    <linearGradient id="edge-ironbound-beastmaster-c20" x1="0" y1="0" x2="768" y2="1024" gradientUnits="userSpaceOnUse">
      <stop stop-color="#ab7f3e" stop-opacity="0.85"/>
      <stop offset="1" stop-color="#8fd15f" stop-opacity="0.85"/>
    </linearGradient>
  </defs>

  <rect x="0" y="0" width="768" height="1024" rx="32" fill="#060910"/>
  <rect x="16" y="16" width="736" height="992" rx="24" fill="url(#bg-ironbound-beastmaster-c20)"/>
  <rect x="16" y="16" width="736" height="992" rx="24" fill="url(#glow-ironbound-beastmaster-c20)"/>

  <g opacity="0.88">
    <path d="M191.88,297.54 C259.28,447.21 246.51,540.78 182.33,792.63" stroke="#8fd15f" stroke-width="10" fill="none" opacity="0.7"/><path d="M275.06,230.43 C329.58,401.13 320.06,463.17 264.46,648.98" stroke="#ab7f3e" stroke-width="9" fill="none" opacity="0.7"/><path d="M354.00,325.70 C400.21,541.26 396.15,593.97 348.80,760.57" stroke="#8fd15f" stroke-width="8" fill="none" opacity="0.7"/><path d="M444.68,264.21 C502.71,448.81 473.48,519.72 435.80,654.15" stroke="#ab7f3e" stroke-width="7" fill="none" opacity="0.7"/>
  </g>

  <g opacity="0.8">
    <circle cx="299.60" cy="938.77" r="4.90" fill="#8fd15f" opacity="0.63"/><circle cx="379.53" cy="115.33" r="3.89" fill="#ab7f3e" opacity="0.68"/><circle cx="502.11" cy="711.38" r="3.89" fill="#8fd15f" opacity="0.34"/><circle cx="126.75" cy="150.41" r="2.48" fill="#ab7f3e" opacity="0.36"/><circle cx="203.11" cy="566.93" r="2.80" fill="#8fd15f" opacity="0.51"/><circle cx="524.37" cy="425.62" r="1.65" fill="#ab7f3e" opacity="0.73"/><circle cx="62.06" cy="983.36" r="4.22" fill="#8fd15f" opacity="0.34"/><circle cx="211.62" cy="617.55" r="4.38" fill="#ab7f3e" opacity="0.42"/><circle cx="410.73" cy="758.27" r="3.65" fill="#8fd15f" opacity="0.47"/><circle cx="306.28" cy="652.95" r="2.65" fill="#ab7f3e" opacity="0.51"/><circle cx="587.38" cy="273.28" r="4.64" fill="#8fd15f" opacity="0.39"/><circle cx="148.10" cy="277.52" r="4.01" fill="#ab7f3e" opacity="0.40"/><circle cx="254.52" cy="754.73" r="3.66" fill="#8fd15f" opacity="0.26"/><circle cx="711.67" cy="827.45" r="4.61" fill="#ab7f3e" opacity="0.28"/><circle cx="62.94" cy="94.55" r="1.69" fill="#8fd15f" opacity="0.64"/><circle cx="91.98" cy="195.98" r="3.38" fill="#ab7f3e" opacity="0.29"/><circle cx="353.32" cy="987.91" r="3.85" fill="#8fd15f" opacity="0.65"/><circle cx="310.50" cy="795.43" r="2.97" fill="#ab7f3e" opacity="0.49"/><circle cx="367.95" cy="227.19" r="3.73" fill="#8fd15f" opacity="0.52"/><circle cx="272.18" cy="115.87" r="2.25" fill="#ab7f3e" opacity="0.45"/><circle cx="519.60" cy="189.32" r="2.21" fill="#8fd15f" opacity="0.37"/><circle cx="384.40" cy="878.66" r="1.45" fill="#ab7f3e" opacity="0.65"/><circle cx="160.66" cy="64.89" r="4.40" fill="#8fd15f" opacity="0.72"/><circle cx="448.29" cy="573.81" r="2.36" fill="#ab7f3e" opacity="0.66"/><circle cx="742.86" cy="627.78" r="1.75" fill="#8fd15f" opacity="0.60"/><circle cx="530.19" cy="846.51" r="2.53" fill="#ab7f3e" opacity="0.35"/><circle cx="541.46" cy="496.50" r="4.93" fill="#8fd15f" opacity="0.26"/><circle cx="300.52" cy="225.26" r="2.85" fill="#ab7f3e" opacity="0.71"/>
  </g>

  <rect x="16" y="16" width="736" height="992" rx="24" stroke="url(#edge-ironbound-beastmaster-c20)" stroke-width="2.5" opacity="0.85"/>
  <rect x="22" y="22" width="724" height="980" rx="20" stroke="#8aa0c4" stroke-width="2" opacity="0.74"/>

  <rect x="34" y="34" width="700" height="72" rx="14" fill="#070b14" fill-opacity="0.72" stroke="#8aa0c4" stroke-opacity="0.55"/>
  <text x="54" y="80" fill="#EAF4FF" font-family="Exo 2, Segoe UI, sans-serif" font-size="32" font-weight="700">Ironbound Beastmaster</text>

  <rect x="34" y="872" width="700" height="92" rx="14" fill="#070b14" fill-opacity="0.74" stroke="#8aa0c4" stroke-opacity="0.6"/>
  <text x="54" y="924" fill="#D9E7FF" font-family="Exo 2, Segoe UI, sans-serif" font-size="30" font-weight="600">Champion</text>

  <rect x="598" y="36" width="118" height="42" rx="10" fill="#8aa0c4" fill-opacity="0.2" stroke="#8aa0c4" stroke-opacity="0.8"/>
  <text x="612" y="65" fill="#8aa0c4" font-family="Exo 2, Segoe UI, sans-serif" font-size="20" font-weight="700">COMMON</text>

  <circle cx="708" cy="954" r="26" fill="#080d18" stroke="#8aa0c4" stroke-opacity="0.8"/>
  <text x="696" y="962" fill="#E7F2FF" font-family="Exo 2, Segoe UI, sans-serif" font-size="24" font-weight="700">20</text>
</svg>