<?xml version="1.0" encoding="UTF-8"?>
<svg width="768" height="1024" viewBox="0 0 768 1024" fill="none" xmlns="http://www.w3.org/2000/svg">
  <defs>
    <linearGradient id="bg-ironbound-beastmaster-c51" x1="60" y1="40" x2="728" y2="1004" gradientUnits="userSpaceOnUse">
      <stop offset="0" stop-color="#15140f"/>
      <stop offset="0.55" stop-color="#5d4522"/>
      <stop offset="1" stop-color="#15140f"/>
    </linearGradient>
    <radialGradient id="glow-ironbound-beastmaster-c51" cx="0" cy="0" r="1" gradientUnits="userSpaceOnUse" gradientTransform="translate(313.08 569.20) rotate(90) scale(276.53 276.53)">
      <stop stop-color="#ab7f3e" stop-opacity="0.45"/>
      <stop offset="1" stop-color="#ab7f3e" stop-opacity="0"/>
    </radialGradient>
    <linearGradient id="edge-ironbound-beastmaster-c51" x1="0" y1="0" x2="768" y2="1024" gradientUnits="userSpaceOnUse">
      <stop stop-color="#ab7f3e" stop-opacity="0.85"/>
      <stop offset="1" stop-color="#8fd15f" stop-opacity="0.85"/>
    </linearGradient>
  </defs>

  <rect x="0" y="0" width="768" height="1024" rx="32" fill="#060910"/>
  <rect x="16" y="16" width="736" height="992" rx="24" fill="url(#bg-ironbound-beastmaster-c51)"/>
  <rect x="16" y="16" width="736" height="992" rx="24" fill="url(#glow-ironbound-beastmaster-c51)"/>

  <g opacity="0.88">
    <path d="M183.87,254.75 C244.00,460.55 236.31,495.22 160.58,719.16" stroke="#8fd15f" stroke-width="10" fill="none" opacity="0.7"/><path d="M268.65,251.43 C346.31,397.79 334.47,574.57 245.07,639.15" stroke="#ab7f3e" stroke-width="9" fill="none" opacity="0.7"/><path d="M355.38,223.04 C412.07,362.30 386.44,483.69 352.13,647.69" stroke="#8fd15f" stroke-width="8" fill="none" opacity="0.7"/><path d="M442.47,221.52 C492.40,418.95 516.44,565.17 437.88,622.64" stroke="#ab7f3e" stroke-width="7" fill="none" opacity="0.7"/>
  </g>

  <g opacity="0.8">
    <circle cx="404.78" cy="302.88" r="1.94" fill="#8fd15f" opacity="0.62"/><circle cx="593.58" cy="469.81" r="3.63" fill="#ab7f3e" opacity="0.48"/><circle cx="62.51" cy="185.91" r="3.27" fill="#8fd15f" opacity="0.33"/><circle cx="650.08" cy="63.39" r="1.80" fill="#ab7f3e" opacity="0.62"/><circle cx="767.04" cy="406.05" r="2.85" fill="#8fd15f" opacity="0.41"/><circle cx="387.64" cy="859.77" r="4.50" fill="#ab7f3e" opacity="0.37"/><circle cx="716.62" cy="169.14" r="2.21" fill="#8fd15f" opacity="0.70"/><circle cx="482.43" cy="545.46" r="3.08" fill="#ab7f3e" opacity="0.25"/><circle cx="179.98" cy="488.88" r="3.84" fill="#8fd15f" opacity="0.50"/><circle cx="357.98" cy="683.57" r="2.78" fill="#ab7f3e" opacity="0.28"/><circle cx="699.69" cy="59.56" r="4.72" fill="#8fd15f" opacity="0.36"/><circle cx="570.24" cy="339.12" r="3.09" fill="#ab7f3e" opacity="0.28"/><circle cx="54.26" cy="449.82" r="2.57" fill="#8fd15f" opacity="0.52"/><circle cx="670.08" cy="564.75" r="1.99" fill="#ab7f3e" opacity="0.37"/><circle cx="659.90" cy="465.72" r="1.61" fill="#8fd15f" opacity="0.50"/><circle cx="389.39" cy="1004.52" r="4.41" fill="#ab7f3e" opacity="0.46"/><circle cx="566.15" cy="258.95" r="4.28" fill="#8fd15f" opacity="0.37"/><circle cx="700.29" cy="352.60" r="4.35" fill="#ab7f3e" opacity="0.29"/><circle cx="310.35" cy="342.56" r="2.12" fill="#8fd15f" opacity="0.42"/><circle cx="347.15" cy="46.24" r="2.10" fill="#ab7f3e" opacity="0.58"/><circle cx="638.95" cy="111.79" r="4.50" fill="#8fd15f" opacity="0.34"/><circle cx="104.07" cy="62.59" r="3.54" fill="#ab7f3e" opacity="0.27"/><circle cx="684.39" cy="359.37" r="1.39" fill="#8fd15f" opacity="0.36"/><circle cx="229.07" cy="152.25" r="2.93" fill="#ab7f3e" opacity="0.29"/><circle cx="238.90" cy="186.06" r="2.65" fill="#8fd15f" opacity="0.49"/><circle cx="76.39" cy="269.43" r="2.69" fill="#ab7f3e" opacity="0.56"/><circle cx="325.41" cy="917.40" r="2.29" fill="#8fd15f" opacity="0.39"/><circle cx="157.30" cy="260.11" r="3.60" fill="#ab7f3e" opacity="0.26"/>
  </g>

  <rect x="16" y="16" width="736" height="992" rx="24" stroke="url(#edge-ironbound-beastmaster-c51)" stroke-width="2.5" opacity="0.85"/>
  <rect x="22" y="22" width="724" height="980" rx="20" stroke="#f0a0ff" stroke-width="2" opacity="0.74"/>

  <rect x="34" y="34" width="700" height="72" rx="14" fill="#070b14" fill-opacity="0.72" stroke="#f0a0ff" stroke-opacity="0.55"/>
  <text x="54" y="80" fill="#EAF4FF" font-family="Exo 2, Segoe UI, sans-serif" font-size="32" font-weight="700">Ironbound Beastmaster</text>

  <rect x="34" y="872" width="700" height="92" rx="14" fill="#070b14" fill-opacity="0.74" stroke="#f0a0ff" stroke-opacity="0.6"/>
  <text x="54" y="924" fill="#D9E7FF" font-family="Exo 2, Segoe UI, sans-serif" font-size="30" font-weight="600">Apex Catalyst</text>

  <rect x="598" y="36" width="118" height="42" rx="10" fill="#f0a0ff" fill-opacity="0.2" stroke="#f0a0ff" stroke-opacity="0.8"/>
  <text x="612" y="65" fill="#f0a0ff" font-family="Exo 2, Segoe UI, sans-serif" font-size="20" font-weight="700">EPIC</text>

  <circle cx="708" cy="954" r="26" fill="#080d18" stroke="#f0a0ff" stroke-opacity="0.8"/>
  <text x="696" y="962" fill="#E7F2FF" font-family="Exo 2, Segoe UI, sans-serif" font-size="24" font-weight="700">51</text>
</svg>