<?xml version="1.0" encoding="UTF-8"?>
<svg width="768" height="1024" viewBox="0 0 768 1024" fill="none" xmlns="http://www.w3.org/2000/svg">
  <defs>
    <linearGradient id="bg-ironbound-beastmaster-c49" x1="60" y1="40" x2="728" y2="1004" gradientUnits="userSpaceOnUse">
      <stop offset="0" stop-color="#15140f"/>
      <stop offset="0.55" stop-color="#5d4522"/>
      <stop offset="1" stop-color="#15140f"/>
    </linearGradient>
    <radialGradient id="glow-ironbound-beastmaster-c49" cx="0" cy="0" r="1" gradientUnits="userSpaceOnUse" gradientTransform="translate(265.20 580.77) rotate(90) scale(197.81 197.81)">
      <stop stop-color="#ab7f3e" stop-opacity="0.45"/>
      <stop offset="1" stop-color="#ab7f3e" stop-opacity="0"/>
    </radialGradient>
    <linearGradient id="edge-ironbound-beastmaster-c49" x1="0" y1="0" x2="768" y2="1024" gradientUnits="userSpaceOnUse">
      <stop stop-color="#ab7f3e" stop-opacity="0.85"/>
      <stop offset="1" stop-color="#8fd15f" stop-opacity="0.85"/>
    </linearGradient>
  </defs>

  <rect x="0" y="0" width="768" height="1024" rx="32" fill="#060910"/>
  <rect x="16" y="16" width="736" height="992" rx="24" fill="url(#bg-ironbound-beastmaster-c49)"/>
  <rect x="16" y="16" width="736" height="992" rx="24" fill="url(#glow-ironbound-beastmaster-c49)"/>

  <g opacity="0.88">
    <path d="M189.55,286.61 C249.37,498.01 213.07,631.14 172.82,770.89" stroke="#8fd15f" stroke-width="10" fill="none" opacity="0.7"/><path d="M266.00,318.17 C318.04,533.49 318.90,584.76 247.68,824.34" stroke="#ab7f3e" stroke-width="9" fill="none" opacity="0.7"/><path d="M358.05,282.57 C414.49,466.15 406.14,591.43 351.57,783.82" stroke="#8fd15f" stroke-width="8" fill="none" opacity="0.7"/><path d="M442.23,210.16 C519.96,382.63 485.93,477.67 439.13,716.27" stroke="#ab7f3e" stroke-width="7" fill="none" opacity="0.7"/>
  </g>

  <g opacity="0.8">
    <circle cx="683.29" cy="280.63" r="3.50" fill="#8fd15f" opacity="0.31"/><circle cx="600.00" cy="887.44" r="4.16" fill="#ab7f3e" opacity="0.48"/><circle cx="211.48" cy="580.91" r="2.91" fill="#8fd15f" opacity="0.58"/><circle cx="188.22" cy="331.81" r="1.93" fill="#ab7f3e" opacity="0.66"/><circle cx="535.62" cy="588.15" r="1.73" fill="#8fd15f" opacity="0.64"/><circle cx="513.74" cy="718.82" r="1.59" fill="#ab7f3e" opacity="0.57"/><circle cx="272.59" cy="18.18" r="2.01" fill="#8fd15f" opacity="0.37"/><circle cx="280.63" cy="145.77" r="2.39" fill="#ab7f3e" opacity="0.45"/><circle cx="489.69" cy="156.99" r="4.82" fill="#8fd15f" opacity="0.54"/><circle cx="245.14" cy="683.65" r="4.18" fill="#ab7f3e" opacity="0.61"/><circle cx="230.89" cy="153.26" r="1.26" fill="#8fd15f" opacity="0.28"/><circle cx="398.41" cy="997.38" r="1.52" fill="#ab7f3e" opacity="0.33"/><circle cx="508.19" cy="242.68" r="4.15" fill="#8fd15f" opacity="0.57"/><circle cx="487.95" cy="740.28" r="1.53" fill="#ab7f3e" opacity="0.69"/><circle cx="270.21" cy="462.31" r="2.16" fill="#8fd15f" opacity="0.43"/><circle cx="377.08" cy="355.36" r="3.92" fill="#ab7f3e" opacity="0.32"/><circle cx="428.18" cy="620.52" r="3.54" fill="#8fd15f" opacity="0.54"/><circle cx="315.05" cy="947.99" r="4.32" fill="#ab7f3e" opacity="0.65"/><circle cx="553.78" cy="588.68" r="2.94" fill="#8fd15f" opacity="0.46"/><circle cx="591.75" cy="378.38" r="3.56" fill="#ab7f3e" opacity="0.49"/><circle cx="748.91" cy="211.12" r="1.43" fill="#8fd15f" opacity="0.56"/><circle cx="165.38" cy="492.79" r="1.76" fill="#ab7f3e" opacity="0.70"/><circle cx="318.35" cy="461.87" r="1.53" fill="#8fd15f" opacity="0.24"/><circle cx="505.80" cy="632.47" r="2.78" fill="#ab7f3e" opacity="0.56"/><circle cx="528.27" cy="718.59" r="2.78" fill="#8fd15f" opacity="0.45"/><circle cx="416.89" cy="787.52" r="4.83" fill="#ab7f3e" opacity="0.69"/><circle cx="121.99" cy="121.46" r="2.48" fill="#8fd15f" opacity="0.71"/><circle cx="270.13" cy="236.14" r="3.64" fill="#ab7f3e" opacity="0.49"/>
  </g>

  <rect x="16" y="16" width="736" height="992" rx="24" stroke="url(#edge-ironbound-beastmaster-c49)" stroke-width="2.5" opacity="0.85"/>
  <rect x="22" y="22" width="724" height="980" rx="20" stroke="#f0a0ff" stroke-width="2" opacity="0.74"/>

  <rect x="34" y="34" width="700" height="72" rx="14" fill="#070b14" fill-opacity="0.72" stroke="#f0a0ff" stroke-opacity="0.55"/>
  <text x="54" y="80" fill="#EAF4FF" font-family="Exo 2, Segoe UI, sans-serif" font-size="32" font-weight="700">Ironbound Beastmaster</text>

  <rect x="34" y="872" width="700" height="92" rx="14" fill="#070b14" fill-opacity="0.74" stroke="#f0a0ff" stroke-opacity="0.6"/>
  <text x="54" y="924" fill="#D9E7FF" font-family="Exo 2, Segoe UI, sans-serif" font-size="30" font-weight="600">Identity Ritual</text>

  <rect x="598" y="36" width="118" height="42" rx="10" fill="#f0a0ff" fill-opacity="0.2" stroke="#f0a0ff" stroke-opacity="0.8"/>
  <text x="612" y="65" fill="#f0a0ff" font-family="Exo 2, Segoe UI, sans-serif" font-size="20" font-weight="700">EPIC</text>

  <circle cx="708" cy="954" r="26" fill="#080d18" stroke="#f0a0ff" stroke-opacity="0.8"/>
  <text x="696" y="962" fill="#E7F2FF" font-family="Exo 2, Segoe UI, sans-serif" font-size="24" font-weight="700">49</text>
</svg>