<?xml version="1.0" encoding="UTF-8"?>
<svg width="768" height="1024" viewBox="0 0 768 1024" fill="none" xmlns="http://www.w3.org/2000/svg">
  <defs>
    <linearGradient id="bg-ironbound-beastmaster-c31" x1="60" y1="40" x2="728" y2="1004" gradientUnits="userSpaceOnUse">
      <stop offset="0" stop-color="#15140f"/>
      <stop offset="0.55" stop-color="#5d4522"/>
      <stop offset="1" stop-color="#15140f"/>
    </linearGradient>
    <radialGradient id="glow-ironbound-beastmaster-c31" cx="0" cy="0" r="1" gradientUnits="userSpaceOnUse" gradientTransform="translate(616.82 602.42) rotate(90) scale(277.95 277.95)">
      <stop stop-color="#ab7f3e" stop-opacity="0.45"/>
      <stop offset="1" stop-color="#ab7f3e" stop-opacity="0"/>
    </radialGradient>
    <linearGradient id="edge-ironbound-beastmaster-c31" x1="0" y1="0" x2="768" y2="1024" gradientUnits="userSpaceOnUse">
      <stop stop-color="#ab7f3e" stop-opacity="0.85"/>
      <stop offset="1" stop-color="#8fd15f" stop-opacity="0.85"/>
    </linearGradient>
  </defs>

  <rect x="0" y="0" width="768" height="1024" rx="32" fill="#060910"/>
  <rect x="16" y="16" width="736" height="992" rx="24" fill="url(#bg-ironbound-beastmaster-c31)"/>
  <rect x="16" y="16" width="736" height="992" rx="24" fill="url(#glow-ironbound-beastmaster-c31)"/>

  <g opacity="0.88">
    <path d="M180.22,273.13 C247.58,490.97 259.10,528.21 155.88,717.20" stroke="#8fd15f" stroke-width="10" fill="none" opacity="0.7"/><path d="M273.27,222.18 C321.60,424.40 313.57,479.98 258.51,713.31" stroke="#ab7f3e" stroke-width="9" fill="none" opacity="0.7"/><path d="M353.35,324.32 C429.07,507.85 430.50,556.99 347.97,786.67" stroke="#8fd15f" stroke-width="8" fill="none" opacity="0.7"/><path d="M443.06,292.99 C516.46,444.81 506.56,613.67 418.26,782.44" stroke="#ab7f3e" stroke-width="7" fill="none" opacity="0.7"/>
  </g>

  <g opacity="0.8">
    <circle cx="340.28" cy="968.33" r="4.03" fill="#8fd15f" opacity="0.36"/><circle cx="399.43" cy="618.07" r="3.06" fill="#ab7f3e" opacity="0.53"/><circle cx="34.63" cy="971.03" r="3.44" fill="#8fd15f" opacity="0.33"/><circle cx="393.82" cy="451.29" r="4.74" fill="#ab7f3e" opacity="0.41"/><circle cx="634.81" cy="413.00" r="3.02" fill="#8fd15f" opacity="0.55"/><circle cx="305.39" cy="853.41" r="3.98" fill="#ab7f3e" opacity="0.60"/><circle cx="158.15" cy="221.98" r="3.47" fill="#8fd15f" opacity="0.65"/><circle cx="322.92" cy="1003.14" r="4.81" fill="#ab7f3e" opacity="0.69"/><circle cx="443.30" cy="239.01" r="2.23" fill="#8fd15f" opacity="0.67"/><circle cx="17.40" cy="218.45" r="4.02" fill="#ab7f3e" opacity="0.63"/><circle cx="469.63" cy="909.46" r="4.64" fill="#8fd15f" opacity="0.68"/><circle cx="436.32" cy="481.73" r="4.44" fill="#ab7f3e" opacity="0.41"/><circle cx="482.46" cy="81.69" r="1.34" fill="#8fd15f" opacity="0.44"/><circle cx="212.31" cy="48.17" r="2.58" fill="#ab7f3e" opacity="0.42"/><circle cx="488.97" cy="377.56" r="2.39" fill="#8fd15f" opacity="0.49"/><circle cx="131.45" cy="965.64" r="1.44" fill="#ab7f3e" opacity="0.56"/><circle cx="692.03" cy="370.28" r="4.81" fill="#8fd15f" opacity="0.50"/><circle cx="617.26" cy="493.61" r="4.93" fill="#ab7f3e" opacity="0.48"/><circle cx="577.60" cy="716.70" r="3.27" fill="#8fd15f" opacity="0.27"/><circle cx="150.26" cy="901.81" r="2.55" fill="#ab7f3e" opacity="0.70"/><circle cx="122.16" cy="829.45" r="3.16" fill="#8fd15f" opacity="0.66"/><circle cx="37.10" cy="653.81" r="2.19" fill="#ab7f3e" opacity="0.71"/><circle cx="720.28" cy="892.75" r="4.76" fill="#8fd15f" opacity="0.68"/><circle cx="351.26" cy="329.35" r="3.86" fill="#ab7f3e" opacity="0.43"/><circle cx="367.79" cy="570.21" r="2.83" fill="#8fd15f" opacity="0.47"/><circle cx="87.19" cy="172.09" r="2.26" fill="#ab7f3e" opacity="0.56"/><circle cx="513.94" cy="628.15" r="4.75" fill="#8fd15f" opacity="0.59"/><circle cx="213.76" cy="385.48" r="2.40" fill="#ab7f3e" opacity="0.34"/>
  </g>

  <rect x="16" y="16" width="736" height="992" rx="24" stroke="url(#edge-ironbound-beastmaster-c31)" stroke-width="2.5" opacity="0.85"/>
  <rect x="22" y="22" width="724" height="980" rx="20" stroke="#78d8ff" stroke-width="2" opacity="0.74"/>

  <rect x="34" y="34" width="700" height="72" rx="14" fill="#070b14" fill-opacity="0.72" stroke="#78d8ff" stroke-opacity="0.55"/>
  <text x="54" y="80" fill="#EAF4FF" font-family="Exo 2, Segoe UI, sans-serif" font-size="32" font-weight="700">Ironbound Beastmaster</text>

  <rect x="34" y="872" width="700" height="92" rx="14" fill="#070b14" fill-opacity="0.74" stroke="#78d8ff" stroke-opacity="0.6"/>
  <text x="54" y="924" fill="#D9E7FF" font-family="Exo 2, Segoe UI, sans-serif" font-size="30" font-weight="600">Twin Vanguard</text>

  <rect x="598" y="36" width="118" height="42" rx="10" fill="#78d8ff" fill-opacity="0.2" stroke="#78d8ff" stroke-opacity="0.8"/>
  <text x="612" y="65" fill="#78d8ff" font-family="Exo 2, Segoe UI, sans-serif" font-size="20" font-weight="700">RARE</text>

  <circle cx="708" cy="954" r="26" fill="#080d18" stroke="#78d8ff" stroke-opacity="0.8"/>
  <text x="696" y="962" fill="#E7F2FF" font-family="Exo 2, Segoe UI, sans-serif" font-size="24" font-weight="700">31</text>
</svg>