<?xml version="1.0" encoding="UTF-8"?>
<svg width="768" height="1024" viewBox="0 0 768 1024" fill="none" xmlns="http://www.w3.org/2000/svg">
  <defs>
    <linearGradient id="bg-ironbound-beastmaster-c11" x1="60" y1="40" x2="728" y2="1004" gradientUnits="userSpaceOnUse">
      <stop offset="0" stop-color="#15140f"/>
      <stop offset="0.55" stop-color="#5d4522"/>
      <stop offset="1" stop-color="#15140f"/>
    </linearGradient>
    <radialGradient id="glow-ironbound-beastmaster-c11" cx="0" cy="0" r="1" gradientUnits="userSpaceOnUse" gradientTransform="translate(601.69 595.69) rotate(90) scale(219.64 219.64)">
      <stop stop-color="#ab7f3e" stop-opacity="0.45"/>
      <stop offset="1" stop-color="#ab7f3e" stop-opacity="0"/>
    </radialGradient>
    <linearGradient id="edge-ironbound-beastmaster-c11" x1="0" y1="0" x2="768" y2="1024" gradientUnits="userSpaceOnUse">
      <stop stop-color="#ab7f3e" stop-opacity="0.85"/>
      <stop offset="1" stop-color="#8fd15f" stop-opacity="0.85"/>
    </linearGradient>
  </defs>

  <rect x="0" y="0" width="768" height="1024" rx="32" fill="#060910"/>
  <rect x="16" y="16" width="736" height="992" rx="24" fill="url(#bg-ironbound-beastmaster-c11)"/>
  <rect x="16" y="16" width="736" height="992" rx="24" fill="url(#glow-ironbound-beastmaster-c11)"/>

  <g opacity="0.88">
    <path d="M187.36,312.73 C230.96,540.93 246.17,554.35 184.01,738.58" stroke="#8fd15f" stroke-width="10" fill="none" opacity="0.7"/><path d="M272.17,302.75 C321.93,453.92 343.58,598.34 252.02,760.88" stroke="#ab7f3e" stroke-width="9" fill="none" opacity="0.7"/><path d="M360.71,219.98 C411.97,436.09 406.56,453.89 337.67,641.54" stroke="#8fd15f" stroke-width="8" fill="none" opacity="0.7"/><path d="M440.94,330.00 C509.68,503.00 508.44,616.23 427.47,784.68" stroke="#ab7f3e" stroke-width="7" fill="none" opacity="0.7"/>
  </g>

  <g opacity="0.8">
    <circle cx="58.00" cy="667.35" r="3.61" fill="#8fd15f" opacity="0.30"/><circle cx="253.73" cy="115.65" r="4.71" fill="#ab7f3e" opacity="0.25"/><circle cx="695.84" cy="544.86" r="3.71" fill="#8fd15f" opacity="0.70"/><circle cx="262.97" cy="494.50" r="4.40" fill="#ab7f3e" opacity="0.24"/><circle cx="211.23" cy="20.83" r="3.22" fill="#8fd15f" opacity="0.56"/><circle cx="693.11" cy="262.39" r="3.16" fill="#ab7f3e" opacity="0.45"/><circle cx="266.24" cy="944.76" r="1.39" fill="#8fd15f" opacity="0.70"/><circle cx="696.21" cy="511.19" r="3.75" fill="#ab7f3e" opacity="0.37"/><circle cx="122.12" cy="12.90" r="3.83" fill="#8fd15f" opacity="0.70"/><circle cx="378.94" cy="872.58" r="4.08" fill="#ab7f3e" opacity="0.34"/><circle cx="42.39" cy="683.52" r="1.92" fill="#8fd15f" opacity="0.73"/><circle cx="289.67" cy="839.22" r="3.30" fill="#ab7f3e" opacity="0.69"/><circle cx="693.79" cy="509.06" r="2.14" fill="#8fd15f" opacity="0.28"/><circle cx="374.91" cy="694.19" r="3.54" fill="#ab7f3e" opacity="0.35"/><circle cx="213.93" cy="868.83" r="3.82" fill="#8fd15f" opacity="0.67"/><circle cx="724.05" cy="645.12" r="1.71" fill="#ab7f3e" opacity="0.70"/><circle cx="383.86" cy="775.51" r="4.35" fill="#8fd15f" opacity="0.34"/><circle cx="293.65" cy="33.66" r="2.77" fill="#ab7f3e" opacity="0.31"/><circle cx="63.70" cy="147.79" r="3.06" fill="#8fd15f" opacity="0.70"/><circle cx="484.06" cy="644.31" r="3.71" fill="#ab7f3e" opacity="0.56"/><circle cx="427.50" cy="842.50" r="2.15" fill="#8fd15f" opacity="0.63"/><circle cx="344.84" cy="962.16" r="1.34" fill="#ab7f3e" opacity="0.36"/><circle cx="380.05" cy="844.58" r="1.51" fill="#8fd15f" opacity="0.45"/><circle cx="424.58" cy="522.27" r="4.65" fill="#ab7f3e" opacity="0.52"/><circle cx="69.94" cy="832.92" r="3.46" fill="#8fd15f" opacity="0.26"/><circle cx="151.31" cy="484.19" r="1.51" fill="#ab7f3e" opacity="0.51"/><circle cx="341.35" cy="585.45" r="4.90" fill="#8fd15f" opacity="0.51"/><circle cx="274.55" cy="189.78" r="2.08" fill="#ab7f3e" opacity="0.74"/>
  </g>

  <rect x="16" y="16" width="736" height="992" rx="24" stroke="url(#edge-ironbound-beastmaster-c11)" stroke-width="2.5" opacity="0.85"/>
  <rect x="22" y="22" width="724" height="980" rx="20" stroke="#8aa0c4" stroke-width="2" opacity="0.74"/>

  <rect x="34" y="34" width="700" height="72" rx="14" fill="#070b14" fill-opacity="0.72" stroke="#8aa0c4" stroke-opacity="0.55"/>
  <text x="54" y="80" fill="#EAF4FF" font-family="Exo 2, Segoe UI, sans-serif" font-size="32" font-weight="700">Ironbound Beastmaster</text>

  <rect x="34" y="872" width="700" height="92" rx="14" fill="#070b14" fill-opacity="0.74" stroke="#8aa0c4" stroke-opacity="0.6"/>
  <text x="54" y="924" fill="#D9E7FF" font-family="Exo 2, Segoe UI, sans-serif" font-size="30" font-weight="600">Captain</text>

  <rect x="598" y="36" width="118" height="42" rx="10" fill="#8aa0c4" fill-opacity="0.2" stroke="#8aa0c4" stroke-opacity="0.8"/>
  <text x="612" y="65" fill="#8aa0c4" font-family="Exo 2, Segoe UI, sans-serif" font-size="20" font-weight="700">COMMON</text>

  <circle cx="708" cy="954" r="26" fill="#080d18" stroke="#8aa0c4" stroke-opacity="0.8"/>
  <text x="696" y="962" fill="#E7F2FF" font-family="Exo 2, Segoe UI, sans-serif" font-size="24" font-weight="700">11</text>
</svg>