<?xml version="1.0" encoding="UTF-8"?>
<svg width="768" height="1024" viewBox="0 0 768 1024" fill="none" xmlns="http://www.w3.org/2000/svg">
  <defs>
    <linearGradient id="bg-ironbound-beastmaster-c52" x1="60" y1="40" x2="728" y2="1004" gradientUnits="userSpaceOnUse">
      <stop offset="0" stop-color="#15140f"/>
      <stop offset="0.55" stop-color="#5d4522"/>
      <stop offset="1" stop-color="#15140f"/>
    </linearGradient>
    <radialGradient id="glow-ironbound-beastmaster-c52" cx="0" cy="0" r="1" gradientUnits="userSpaceOnUse" gradientTransform="translate(652.63 468.51) rotate(90) scale(182.85 182.85)">
      <stop stop-color="#ab7f3e" stop-opacity="0.45"/>
      <stop offset="1" stop-color="#ab7f3e" stop-opacity="0"/>
    </radialGradient>
    <linearGradient id="edge-ironbound-beastmaster-c52" x1="0" y1="0" x2="768" y2="1024" gradientUnits="userSpaceOnUse">
      <stop stop-color="#ab7f3e" stop-opacity="0.85"/>
      <stop offset="1" stop-color="#8fd15f" stop-opacity="0.85"/>
    </linearGradient>
  </defs>

  <rect x="0" y="0" width="768" height="1024" rx="32" fill="#060910"/>
  <rect x="16" y="16" width="736" height="992" rx="24" fill="url(#bg-ironbound-beastmaster-c52)"/>
  <rect x="16" y="16" width="736" height="992" rx="24" fill="url(#glow-ironbound-beastmaster-c52)"/>

  <g opacity="0.88">
    <path d="M182.94,298.99 C253.78,450.20 215.15,533.58 163.37,803.68" stroke="#8fd15f" stroke-width="10" fill="none" opacity="0.7"/><path d="M267.84,211.74 C325.10,356.35 346.55,567.82 262.53,706.95" stroke="#ab7f3e" stroke-width="9" fill="none" opacity="0.7"/><path d="M357.76,314.22 C434.24,515.74 428.65,585.84 346.01,698.79" stroke="#8fd15f" stroke-width="8" fill="none" opacity="0.7"/><path d="M440.81,261.44 C503.73,416.72 492.61,531.21 419.62,691.57" stroke="#ab7f3e" stroke-width="7" fill="none" opacity="0.7"/>
  </g>

  <g opacity="0.8">
    <circle cx="57.69" cy="87.96" r="1.21" fill="#8fd15f" opacity="0.63"/><circle cx="4.31" cy="444.17" r="4.02" fill="#ab7f3e" opacity="0.59"/><circle cx="318.07" cy="303.39" r="2.02" fill="#8fd15f" opacity="0.52"/><circle cx="576.06" cy="474.48" r="2.47" fill="#ab7f3e" opacity="0.34"/><circle cx="248.02" cy="852.17" r="1.51" fill="#8fd15f" opacity="0.57"/><circle cx="244.45" cy="826.16" r="3.93" fill="#ab7f3e" opacity="0.49"/><circle cx="330.27" cy="615.47" r="3.87" fill="#8fd15f" opacity="0.36"/><circle cx="291.19" cy="384.54" r="2.10" fill="#ab7f3e" opacity="0.48"/><circle cx="188.70" cy="910.62" r="2.28" fill="#8fd15f" opacity="0.33"/><circle cx="154.44" cy="974.52" r="2.55" fill="#ab7f3e" opacity="0.54"/><circle cx="281.77" cy="6.68" r="3.25" fill="#8fd15f" opacity="0.70"/><circle cx="139.86" cy="933.16" r="2.14" fill="#ab7f3e" opacity="0.69"/><circle cx="420.63" cy="379.79" r="4.26" fill="#8fd15f" opacity="0.43"/><circle cx="355.21" cy="727.97" r="4.14" fill="#ab7f3e" opacity="0.69"/><circle cx="725.10" cy="642.40" r="1.28" fill="#8fd15f" opacity="0.44"/><circle cx="154.05" cy="908.28" r="1.74" fill="#ab7f3e" opacity="0.69"/><circle cx="176.84" cy="840.34" r="3.44" fill="#8fd15f" opacity="0.52"/><circle cx="238.97" cy="957.92" r="4.34" fill="#ab7f3e" opacity="0.44"/><circle cx="650.88" cy="613.69" r="4.97" fill="#8fd15f" opacity="0.67"/><circle cx="656.71" cy="797.39" r="3.72" fill="#ab7f3e" opacity="0.67"/><circle cx="605.35" cy="658.81" r="4.90" fill="#8fd15f" opacity="0.64"/><circle cx="761.58" cy="154.14" r="3.05" fill="#ab7f3e" opacity="0.55"/><circle cx="170.10" cy="694.02" r="2.39" fill="#8fd15f" opacity="0.47"/><circle cx="493.29" cy="566.65" r="2.09" fill="#ab7f3e" opacity="0.50"/><circle cx="54.75" cy="839.22" r="2.50" fill="#8fd15f" opacity="0.66"/><circle cx="530.31" cy="718.48" r="2.02" fill="#ab7f3e" opacity="0.52"/><circle cx="43.08" cy="37.93" r="2.49" fill="#8fd15f" opacity="0.32"/><circle cx="77.33" cy="242.13" r="4.73" fill="#ab7f3e" opacity="0.41"/>
  </g>

  <rect x="16" y="16" width="736" height="992" rx="24" stroke="url(#edge-ironbound-beastmaster-c52)" stroke-width="2.5" opacity="0.85"/>
  <rect x="22" y="22" width="724" height="980" rx="20" stroke="#ffd978" stroke-width="2" opacity="0.74"/>

  <rect x="34" y="34" width="700" height="72" rx="14" fill="#070b14" fill-opacity="0.72" stroke="#ffd978" stroke-opacity="0.55"/>
  <text x="54" y="80" fill="#EAF4FF" font-family="Exo 2, Segoe UI, sans-serif" font-size="32" font-weight="700">Ironbound Beastmaster</text>

  <rect x="34" y="872" width="700" height="92" rx="14" fill="#070b14" fill-opacity="0.74" stroke="#ffd978" stroke-opacity="0.6"/>
  <text x="54" y="924" fill="#D9E7FF" font-family="Exo 2, Segoe UI, sans-serif" font-size="30" font-weight="600">Legendary Ultimate</text>

  <rect x="598" y="36" width="118" height="42" rx="10" fill="#ffd978" fill-opacity="0.2" stroke="#ffd978" stroke-opacity="0.8"/>
  <text x="612" y="65" fill="#ffd978" font-family="Exo 2, Segoe UI, sans-serif" font-size="20" font-weight="700">LEGENDARY</text>

  <circle cx="708" cy="954" r="26" fill="#080d18" stroke="#ffd978" stroke-opacity="0.8"/>
  <text x="696" y="962" fill="#E7F2FF" font-family="Exo 2, Segoe UI, sans-serif" font-size="24" font-weight="700">52</text>
</svg>