<?xml version="1.0" encoding="UTF-8"?>
<svg width="768" height="1024" viewBox="0 0 768 1024" fill="none" xmlns="http://www.w3.org/2000/svg">
  <defs>
    <linearGradient id="bg-ironbound-beastmaster-c07" x1="60" y1="40" x2="728" y2="1004" gradientUnits="userSpaceOnUse">
      <stop offset="0" stop-color="#15140f"/>
      <stop offset="0.55" stop-color="#5d4522"/>
      <stop offset="1" stop-color="#15140f"/>
    </linearGradient>
    <radialGradient id="glow-ironbound-beastmaster-c07" cx="0" cy="0" r="1" gradientUnits="userSpaceOnUse" gradientTransform="translate(585.63 312.46) rotate(90) scale(203.15 203.15)">
      <stop stop-color="#ab7f3e" stop-opacity="0.45"/>
      <stop offset="1" stop-color="#ab7f3e" stop-opacity="0"/>
    </radialGradient>
    <linearGradient id="edge-ironbound-beastmaster-c07" x1="0" y1="0" x2="768" y2="1024" gradientUnits="userSpaceOnUse">
      <stop stop-color="#ab7f3e" stop-opacity="0.85"/>
      <stop offset="1" stop-color="#8fd15f" stop-opacity="0.85"/>
    </linearGradient>
  </defs>

  <rect x="0" y="0" width="768" height="1024" rx="32" fill="#060910"/>
  <rect x="16" y="16" width="736" height="992" rx="24" fill="url(#bg-ironbound-beastmaster-c07)"/>
  <rect x="16" y="16" width="736" height="992" rx="24" fill="url(#glow-ironbound-beastmaster-c07)"/>

  <g opacity="0.88">
    <path d="M185.41,238.87 C245.93,458.94 251.49,556.42 162.74,639.91" stroke="#8fd15f" stroke-width="10" fill="none" opacity="0.7"/><path d="M275.61,234.53 C346.53,365.83 353.71,526.55 256.59,635.46" stroke="#ab7f3e" stroke-width="9" fill="none" opacity="0.7"/><path d="M355.55,210.58 C414.84,378.07 415.11,471.25 342.79,683.88" stroke="#8fd15f" stroke-width="8" fill="none" opacity="0.7"/><path d="M437.82,245.18 C511.64,423.93 501.52,517.24 417.03,654.86" stroke="#ab7f3e" stroke-width="7" fill="none" opacity="0.7"/>
  </g>

  <g opacity="0.8">
    <circle cx="676.53" cy="436.85" r="2.97" fill="#8fd15f" opacity="0.35"/><circle cx="101.03" cy="520.42" r="4.89" fill="#ab7f3e" opacity="0.31"/><circle cx="275.76" cy="890.08" r="3.70" fill="#8fd15f" opacity="0.63"/><circle cx="476.90" cy="457.91" r="4.20" fill="#ab7f3e" opacity="0.44"/><circle cx="737.51" cy="226.61" r="1.55" fill="#8fd15f" opacity="0.67"/><circle cx="141.16" cy="1009.61" r="3.10" fill="#ab7f3e" opacity="0.42"/><circle cx="698.01" cy="219.18" r="4.36" fill="#8fd15f" opacity="0.29"/><circle cx="156.32" cy="905.97" r="3.34" fill="#ab7f3e" opacity="0.60"/><circle cx="476.11" cy="397.40" r="2.20" fill="#8fd15f" opacity="0.28"/><circle cx="346.85" cy="831.21" r="4.02" fill="#ab7f3e" opacity="0.45"/><circle cx="323.13" cy="396.76" r="4.62" fill="#8fd15f" opacity="0.31"/><circle cx="605.64" cy="367.55" r="4.77" fill="#ab7f3e" opacity="0.62"/><circle cx="191.15" cy="882.50" r="1.60" fill="#8fd15f" opacity="0.30"/><circle cx="414.86" cy="342.14" r="3.05" fill="#ab7f3e" opacity="0.38"/><circle cx="269.80" cy="388.39" r="1.25" fill="#8fd15f" opacity="0.28"/><circle cx="125.05" cy="193.54" r="4.42" fill="#ab7f3e" opacity="0.70"/><circle cx="185.58" cy="576.88" r="1.77" fill="#8fd15f" opacity="0.64"/><circle cx="299.48" cy="616.47" r="1.67" fill="#ab7f3e" opacity="0.36"/><circle cx="151.65" cy="965.80" r="2.66" fill="#8fd15f" opacity="0.36"/><circle cx="731.59" cy="328.42" r="4.83" fill="#ab7f3e" opacity="0.60"/><circle cx="413.31" cy="365.98" r="3.01" fill="#8fd15f" opacity="0.49"/><circle cx="691.58" cy="886.52" r="2.69" fill="#ab7f3e" opacity="0.73"/><circle cx="650.45" cy="141.47" r="1.45" fill="#8fd15f" opacity="0.24"/><circle cx="689.46" cy="631.78" r="1.37" fill="#ab7f3e" opacity="0.34"/><circle cx="410.29" cy="936.00" r="4.40" fill="#8fd15f" opacity="0.40"/><circle cx="184.99" cy="578.23" r="3.52" fill="#ab7f3e" opacity="0.67"/><circle cx="44.94" cy="50.41" r="2.72" fill="#8fd15f" opacity="0.27"/><circle cx="150.98" cy="432.66" r="4.76" fill="#ab7f3e" opacity="0.71"/>
  </g>

  <rect x="16" y="16" width="736" height="992" rx="24" stroke="url(#edge-ironbound-beastmaster-c07)" stroke-width="2.5" opacity="0.85"/>
  <rect x="22" y="22" width="724" height="980" rx="20" stroke="#8aa0c4" stroke-width="2" opacity="0.74"/>

  <rect x="34" y="34" width="700" height="72" rx="14" fill="#070b14" fill-opacity="0.72" stroke="#8aa0c4" stroke-opacity="0.55"/>
  <text x="54" y="80" fill="#EAF4FF" font-family="Exo 2, Segoe UI, sans-serif" font-size="32" font-weight="700">Ironbound Beastmaster</text>

  <rect x="34" y="872" width="700" height="92" rx="14" fill="#070b14" fill-opacity="0.74" stroke="#8aa0c4" stroke-opacity="0.6"/>
  <text x="54" y="924" fill="#D9E7FF" font-family="Exo 2, Segoe UI, sans-serif" font-size="30" font-weight="600">Medic</text>

  <rect x="598" y="36" width="118" height="42" rx="10" fill="#8aa0c4" fill-opacity="0.2" stroke="#8aa0c4" stroke-opacity="0.8"/>
  <text x="612" y="65" fill="#8aa0c4" font-family="Exo 2, Segoe UI, sans-serif" font-size="20" font-weight="700">COMMON</text>

  <circle cx="708" cy="954" r="26" fill="#080d18" stroke="#8aa0c4" stroke-opacity="0.8"/>
  <text x="696" y="962" fill="#E7F2FF" font-family="Exo 2, Segoe UI, sans-serif" font-size="24" font-weight="700">07</text>
</svg>