<?xml version="1.0" encoding="UTF-8"?>
<svg width="768" height="1024" viewBox="0 0 768 1024" fill="none" xmlns="http://www.w3.org/2000/svg">
  <defs>
    <linearGradient id="bg-ironbound-beastmaster-c48" x1="60" y1="40" x2="728" y2="1004" gradientUnits="userSpaceOnUse">
      <stop offset="0" stop-color="#15140f"/>
      <stop offset="0.55" stop-color="#5d4522"/>
      <stop offset="1" stop-color="#15140f"/>
    </linearGradient>
    <radialGradient id="glow-ironbound-beastmaster-c48" cx="0" cy="0" r="1" gradientUnits="userSpaceOnUse" gradientTransform="translate(382.24 369.46) rotate(90) scale(219.57 219.57)">
      <stop stop-color="#ab7f3e" stop-opacity="0.45"/>
      <stop offset="1" stop-color="#ab7f3e" stop-opacity="0"/>
    </radialGradient>
    <linearGradient id="edge-ironbound-beastmaster-c48" x1="0" y1="0" x2="768" y2="1024" gradientUnits="userSpaceOnUse">
      <stop stop-color="#ab7f3e" stop-opacity="0.85"/>
      <stop offset="1" stop-color="#8fd15f" stop-opacity="0.85"/>
    </linearGradient>
  </defs>

  <rect x="0" y="0" width="768" height="1024" rx="32" fill="#060910"/>
  <rect x="16" y="16" width="736" height="992" rx="24" fill="url(#bg-ironbound-beastmaster-c48)"/>
  <rect x="16" y="16" width="736" height="992" rx="24" fill="url(#glow-ironbound-beastmaster-c48)"/>

  <g opacity="0.88">
    <path d="M181.27,279.53 C255.32,483.45 215.73,554.97 176.77,772.43" stroke="#8fd15f" stroke-width="10" fill="none" opacity="0.7"/><path d="M276.83,328.78 C320.63,555.76 320.14,569.94 268.71,774.85" stroke="#ab7f3e" stroke-width="9" fill="none" opacity="0.7"/><path d="M356.85,264.41 C431.79,383.09 402.23,602.39 352.42,648.40" stroke="#8fd15f" stroke-width="8" fill="none" opacity="0.7"/><path d="M440.37,261.00 C484.27,367.75 512.61,504.17 425.51,752.95" stroke="#ab7f3e" stroke-width="7" fill="none" opacity="0.7"/>
  </g>

  <g opacity="0.8">
    <circle cx="543.20" cy="525.14" r="1.35" fill="#8fd15f" opacity="0.59"/><circle cx="461.75" cy="576.39" r="1.46" fill="#ab7f3e" opacity="0.26"/><circle cx="758.43" cy="983.67" r="1.82" fill="#8fd15f" opacity="0.49"/><circle cx="152.39" cy="287.42" r="1.96" fill="#ab7f3e" opacity="0.42"/><circle cx="90.17" cy="329.68" r="3.23" fill="#8fd15f" opacity="0.48"/><circle cx="553.97" cy="298.23" r="1.34" fill="#ab7f3e" opacity="0.47"/><circle cx="81.30" cy="673.80" r="1.64" fill="#8fd15f" opacity="0.56"/><circle cx="257.31" cy="577.96" r="3.72" fill="#ab7f3e" opacity="0.49"/><circle cx="704.13" cy="637.89" r="1.42" fill="#8fd15f" opacity="0.30"/><circle cx="745.33" cy="462.92" r="1.74" fill="#ab7f3e" opacity="0.64"/><circle cx="529.66" cy="754.13" r="1.45" fill="#8fd15f" opacity="0.49"/><circle cx="602.93" cy="676.30" r="1.37" fill="#ab7f3e" opacity="0.64"/><circle cx="460.87" cy="946.31" r="1.87" fill="#8fd15f" opacity="0.70"/><circle cx="430.62" cy="277.12" r="4.44" fill="#ab7f3e" opacity="0.46"/><circle cx="560.39" cy="404.45" r="2.78" fill="#8fd15f" opacity="0.33"/><circle cx="161.91" cy="326.68" r="4.85" fill="#ab7f3e" opacity="0.57"/><circle cx="317.40" cy="81.08" r="3.61" fill="#8fd15f" opacity="0.30"/><circle cx="187.73" cy="931.93" r="3.04" fill="#ab7f3e" opacity="0.37"/><circle cx="702.29" cy="253.26" r="4.44" fill="#8fd15f" opacity="0.43"/><circle cx="463.44" cy="538.25" r="3.29" fill="#ab7f3e" opacity="0.36"/><circle cx="354.97" cy="347.34" r="2.19" fill="#8fd15f" opacity="0.61"/><circle cx="469.29" cy="309.82" r="1.75" fill="#ab7f3e" opacity="0.46"/><circle cx="737.42" cy="17.40" r="3.42" fill="#8fd15f" opacity="0.27"/><circle cx="464.13" cy="648.01" r="2.00" fill="#ab7f3e" opacity="0.40"/><circle cx="352.62" cy="884.03" r="2.39" fill="#8fd15f" opacity="0.66"/><circle cx="559.24" cy="464.98" r="4.90" fill="#ab7f3e" opacity="0.26"/><circle cx="247.49" cy="27.82" r="4.81" fill="#8fd15f" opacity="0.46"/><circle cx="169.45" cy="82.67" r="3.20" fill="#ab7f3e" opacity="0.36"/>
  </g>

  <rect x="16" y="16" width="736" height="992" rx="24" stroke="url(#edge-ironbound-beastmaster-c48)" stroke-width="2.5" opacity="0.85"/>
  <rect x="22" y="22" width="724" height="980" rx="20" stroke="#f0a0ff" stroke-width="2" opacity="0.74"/>

  <rect x="34" y="34" width="700" height="72" rx="14" fill="#070b14" fill-opacity="0.72" stroke="#f0a0ff" stroke-opacity="0.55"/>
  <text x="54" y="80" fill="#EAF4FF" font-family="Exo 2, Segoe UI, sans-serif" font-size="32" font-weight="700">Ironbound Beastmaster</text>

  <rect x="34" y="872" width="700" height="92" rx="14" fill="#070b14" fill-opacity="0.74" stroke="#f0a0ff" stroke-opacity="0.6"/>
  <text x="54" y="924" fill="#D9E7FF" font-family="Exo 2, Segoe UI, sans-serif" font-size="30" font-weight="600">Epic Reset</text>

  <rect x="598" y="36" width="118" height="42" rx="10" fill="#f0a0ff" fill-opacity="0.2" stroke="#f0a0ff" stroke-opacity="0.8"/>
  <text x="612" y="65" fill="#f0a0ff" font-family="Exo 2, Segoe UI, sans-serif" font-size="20" font-weight="700">EPIC</text>

  <circle cx="708" cy="954" r="26" fill="#080d18" stroke="#f0a0ff" stroke-opacity="0.8"/>
  <text x="696" y="962" fill="#E7F2FF" font-family="Exo 2, Segoe UI, sans-serif" font-size="24" font-weight="700">48</text>
</svg>