<?xml version="1.0" encoding="UTF-8"?>
<svg width="768" height="1024" viewBox="0 0 768 1024" fill="none" xmlns="http://www.w3.org/2000/svg">
  <defs>
    <linearGradient id="bg-ironbound-beastmaster-c50" x1="60" y1="40" x2="728" y2="1004" gradientUnits="userSpaceOnUse">
      <stop offset="0" stop-color="#15140f"/>
      <stop offset="0.55" stop-color="#5d4522"/>
      <stop offset="1" stop-color="#15140f"/>
    </linearGradient>
    <radialGradient id="glow-ironbound-beastmaster-c50" cx="0" cy="0" r="1" gradientUnits="userSpaceOnUse" gradientTransform="translate(575.45 279.94) rotate(90) scale(198.20 198.20)">
      <stop stop-color="#ab7f3e" stop-opacity="0.45"/>
      <stop offset="1" stop-color="#ab7f3e" stop-opacity="0"/>
    </radialGradient>
    <linearGradient id="edge-ironbound-beastmaster-c50" x1="0" y1="0" x2="768" y2="1024" gradientUnits="userSpaceOnUse">
      <stop stop-color="#ab7f3e" stop-opacity="0.85"/>
      <stop offset="1" stop-color="#8fd15f" stop-opacity="0.85"/>
    </linearGradient>
  </defs>

  <rect x="0" y="0" width="768" height="1024" rx="32" fill="#060910"/>
  <rect x="16" y="16" width="736" height="992" rx="24" fill="url(#bg-ironbound-beastmaster-c50)"/>
  <rect x="16" y="16" width="736" height="992" rx="24" fill="url(#glow-ironbound-beastmaster-c50)"/>

  <g opacity="0.88">
    <path d="M188.35,235.90 C245.30,421.33 230.59,474.59 179.51,694.46" stroke="#8fd15f" stroke-width="10" fill="none" opacity="0.7"/><path d="M273.51,301.34 C346.87,420.82 347.66,669.10 268.84,726.36" stroke="#ab7f3e" stroke-width="9" fill="none" opacity="0.7"/><path d="M355.85,308.31 C409.87,527.90 384.60,627.81 348.49,802.29" stroke="#8fd15f" stroke-width="8" fill="none" opacity="0.7"/><path d="M443.23,280.15 C495.14,409.90 520.67,523.59 428.22,788.51" stroke="#ab7f3e" stroke-width="7" fill="none" opacity="0.7"/>
  </g>

  <g opacity="0.8">
    <circle cx="253.21" cy="1016.46" r="3.14" fill="#8fd15f" opacity="0.41"/><circle cx="358.53" cy="596.57" r="2.04" fill="#ab7f3e" opacity="0.72"/><circle cx="261.58" cy="932.34" r="3.70" fill="#8fd15f" opacity="0.74"/><circle cx="247.61" cy="485.04" r="3.63" fill="#ab7f3e" opacity="0.36"/><circle cx="346.69" cy="969.70" r="1.61" fill="#8fd15f" opacity="0.32"/><circle cx="514.36" cy="545.29" r="4.15" fill="#ab7f3e" opacity="0.41"/><circle cx="137.77" cy="791.46" r="1.33" fill="#8fd15f" opacity="0.45"/><circle cx="101.63" cy="90.15" r="4.49" fill="#ab7f3e" opacity="0.73"/><circle cx="125.21" cy="419.45" r="3.53" fill="#8fd15f" opacity="0.40"/><circle cx="567.22" cy="678.44" r="2.55" fill="#ab7f3e" opacity="0.41"/><circle cx="219.56" cy="91.27" r="4.01" fill="#8fd15f" opacity="0.68"/><circle cx="543.87" cy="563.68" r="3.16" fill="#ab7f3e" opacity="0.46"/><circle cx="600.10" cy="904.34" r="2.32" fill="#8fd15f" opacity="0.54"/><circle cx="298.17" cy="84.09" r="2.54" fill="#ab7f3e" opacity="0.56"/><circle cx="331.94" cy="458.10" r="3.19" fill="#8fd15f" opacity="0.52"/><circle cx="506.34" cy="193.62" r="1.27" fill="#ab7f3e" opacity="0.58"/><circle cx="484.18" cy="911.80" r="1.72" fill="#8fd15f" opacity="0.57"/><circle cx="283.09" cy="338.34" r="4.85" fill="#ab7f3e" opacity="0.40"/><circle cx="717.46" cy="80.24" r="3.90" fill="#8fd15f" opacity="0.29"/><circle cx="164.20" cy="712.52" r="1.89" fill="#ab7f3e" opacity="0.32"/><circle cx="725.38" cy="930.54" r="2.12" fill="#8fd15f" opacity="0.65"/><circle cx="297.48" cy="575.89" r="3.32" fill="#ab7f3e" opacity="0.45"/><circle cx="53.30" cy="428.18" r="3.66" fill="#8fd15f" opacity="0.49"/><circle cx="102.94" cy="1021.57" r="2.13" fill="#ab7f3e" opacity="0.33"/><circle cx="666.91" cy="765.64" r="1.83" fill="#8fd15f" opacity="0.44"/><circle cx="694.64" cy="500.89" r="4.44" fill="#ab7f3e" opacity="0.36"/><circle cx="423.58" cy="80.34" r="3.78" fill="#8fd15f" opacity="0.48"/><circle cx="713.43" cy="663.33" r="1.76" fill="#ab7f3e" opacity="0.54"/>
  </g>

  <rect x="16" y="16" width="736" height="992" rx="24" stroke="url(#edge-ironbound-beastmaster-c50)" stroke-width="2.5" opacity="0.85"/>
  <rect x="22" y="22" width="724" height="980" rx="20" stroke="#f0a0ff" stroke-width="2" opacity="0.74"/>

  <rect x="34" y="34" width="700" height="72" rx="14" fill="#070b14" fill-opacity="0.72" stroke="#f0a0ff" stroke-opacity="0.55"/>
  <text x="54" y="80" fill="#EAF4FF" font-family="Exo 2, Segoe UI, sans-serif" font-size="32" font-weight="700">Ironbound Beastmaster</text>

  <rect x="34" y="872" width="700" height="92" rx="14" fill="#070b14" fill-opacity="0.74" stroke="#f0a0ff" stroke-opacity="0.6"/>
  <text x="54" y="924" fill="#D9E7FF" font-family="Exo 2, Segoe UI, sans-serif" font-size="30" font-weight="600">Finisher Setup</text>

  <rect x="598" y="36" width="118" height="42" rx="10" fill="#f0a0ff" fill-opacity="0.2" stroke="#f0a0ff" stroke-opacity="0.8"/>
  <text x="612" y="65" fill="#f0a0ff" font-family="Exo 2, Segoe UI, sans-serif" font-size="20" font-weight="700">EPIC</text>

  <circle cx="708" cy="954" r="26" fill="#080d18" stroke="#f0a0ff" stroke-opacity="0.8"/>
  <text x="696" y="962" fill="#E7F2FF" font-family="Exo 2, Segoe UI, sans-serif" font-size="24" font-weight="700">50</text>
</svg>