<?xml version="1.0" encoding="UTF-8"?>
<svg width="768" height="1024" viewBox="0 0 768 1024" fill="none" xmlns="http://www.w3.org/2000/svg">
  <defs>
    <linearGradient id="bg-ironbound-beastmaster-c39" x1="60" y1="40" x2="728" y2="1004" gradientUnits="userSpaceOnUse">
      <stop offset="0" stop-color="#15140f"/>
      <stop offset="0.55" stop-color="#5d4522"/>
      <stop offset="1" stop-color="#15140f"/>
    </linearGradient>
    <radialGradient id="glow-ironbound-beastmaster-c39" cx="0" cy="0" r="1" gradientUnits="userSpaceOnUse" gradientTransform="translate(445.05 165.94) rotate(90) scale(277.26 277.26)">
      <stop stop-color="#ab7f3e" stop-opacity="0.45"/>
      <stop offset="1" stop-color="#ab7f3e" stop-opacity="0"/>
    </radialGradient>
    <linearGradient id="edge-ironbound-beastmaster-c39" x1="0" y1="0" x2="768" y2="1024" gradientUnits="userSpaceOnUse">
      <stop stop-color="#ab7f3e" stop-opacity="0.85"/>
      <stop offset="1" stop-color="#8fd15f" stop-opacity="0.85"/>
    </linearGradient>
  </defs>

  <rect x="0" y="0" width="768" height="1024" rx="32" fill="#060910"/>
  <rect x="16" y="16" width="736" height="992" rx="24" fill="url(#bg-ironbound-beastmaster-c39)"/>
  <rect x="16" y="16" width="736" height="992" rx="24" fill="url(#glow-ironbound-beastmaster-c39)"/>

  <g opacity="0.88">
    <path d="M191.74,268.71 C253.59,490.30 237.51,639.41 181.73,650.26" stroke="#8fd15f" stroke-width="10" fill="none" opacity="0.7"/><path d="M265.23,261.26 C313.39,418.28 322.38,528.02 252.09,757.49" stroke="#ab7f3e" stroke-width="9" fill="none" opacity="0.7"/><path d="M355.58,226.17 C409.74,393.79 413.64,522.90 341.43,628.10" stroke="#8fd15f" stroke-width="8" fill="none" opacity="0.7"/><path d="M440.88,328.49 C482.59,492.88 472.41,564.11 416.04,778.13" stroke="#ab7f3e" stroke-width="7" fill="none" opacity="0.7"/>
  </g>

  <g opacity="0.8">
    <circle cx="29.03" cy="269.76" r="2.13" fill="#8fd15f" opacity="0.49"/><circle cx="87.71" cy="654.65" r="1.96" fill="#ab7f3e" opacity="0.55"/><circle cx="449.45" cy="464.27" r="4.74" fill="#8fd15f" opacity="0.39"/><circle cx="209.27" cy="146.14" r="2.38" fill="#ab7f3e" opacity="0.60"/><circle cx="197.29" cy="79.47" r="1.89" fill="#8fd15f" opacity="0.71"/><circle cx="682.74" cy="540.31" r="2.94" fill="#ab7f3e" opacity="0.68"/><circle cx="92.01" cy="969.53" r="4.99" fill="#8fd15f" opacity="0.72"/><circle cx="544.60" cy="433.22" r="4.51" fill="#ab7f3e" opacity="0.37"/><circle cx="585.34" cy="327.45" r="1.76" fill="#8fd15f" opacity="0.31"/><circle cx="212.79" cy="615.19" r="3.70" fill="#ab7f3e" opacity="0.71"/><circle cx="215.63" cy="964.65" r="2.64" fill="#8fd15f" opacity="0.37"/><circle cx="539.23" cy="549.37" r="3.68" fill="#ab7f3e" opacity="0.71"/><circle cx="398.77" cy="911.54" r="2.63" fill="#8fd15f" opacity="0.34"/><circle cx="304.88" cy="486.43" r="2.52" fill="#ab7f3e" opacity="0.41"/><circle cx="483.47" cy="128.20" r="4.46" fill="#8fd15f" opacity="0.50"/><circle cx="391.74" cy="319.01" r="3.32" fill="#ab7f3e" opacity="0.66"/><circle cx="433.02" cy="526.95" r="1.51" fill="#8fd15f" opacity="0.74"/><circle cx="607.53" cy="339.41" r="4.50" fill="#ab7f3e" opacity="0.30"/><circle cx="47.86" cy="388.44" r="2.72" fill="#8fd15f" opacity="0.67"/><circle cx="650.58" cy="534.73" r="1.68" fill="#ab7f3e" opacity="0.54"/><circle cx="450.21" cy="143.61" r="1.66" fill="#8fd15f" opacity="0.73"/><circle cx="104.80" cy="954.09" r="3.08" fill="#ab7f3e" opacity="0.41"/><circle cx="301.91" cy="519.74" r="4.94" fill="#8fd15f" opacity="0.71"/><circle cx="639.04" cy="713.05" r="3.13" fill="#ab7f3e" opacity="0.39"/><circle cx="113.21" cy="382.26" r="4.62" fill="#8fd15f" opacity="0.55"/><circle cx="31.30" cy="536.72" r="1.70" fill="#ab7f3e" opacity="0.52"/><circle cx="734.81" cy="727.61" r="4.87" fill="#8fd15f" opacity="0.53"/><circle cx="36.48" cy="463.33" r="3.26" fill="#ab7f3e" opacity="0.72"/>
  </g>

  <rect x="16" y="16" width="736" height="992" rx="24" stroke="url(#edge-ironbound-beastmaster-c39)" stroke-width="2.5" opacity="0.85"/>
  <rect x="22" y="22" width="724" height="980" rx="20" stroke="#78d8ff" stroke-width="2" opacity="0.74"/>

  <rect x="34" y="34" width="700" height="72" rx="14" fill="#070b14" fill-opacity="0.72" stroke="#78d8ff" stroke-opacity="0.55"/>
  <text x="54" y="80" fill="#EAF4FF" font-family="Exo 2, Segoe UI, sans-serif" font-size="32" font-weight="700">Ironbound Beastmaster</text>

  <rect x="34" y="872" width="700" height="92" rx="14" fill="#070b14" fill-opacity="0.74" stroke="#78d8ff" stroke-opacity="0.6"/>
  <text x="54" y="924" fill="#D9E7FF" font-family="Exo 2, Segoe UI, sans-serif" font-size="30" font-weight="600">Ward</text>

  <rect x="598" y="36" width="118" height="42" rx="10" fill="#78d8ff" fill-opacity="0.2" stroke="#78d8ff" stroke-opacity="0.8"/>
  <text x="612" y="65" fill="#78d8ff" font-family="Exo 2, Segoe UI, sans-serif" font-size="20" font-weight="700">RARE</text>

  <circle cx="708" cy="954" r="26" fill="#080d18" stroke="#78d8ff" stroke-opacity="0.8"/>
  <text x="696" y="962" fill="#E7F2FF" font-family="Exo 2, Segoe UI, sans-serif" font-size="24" font-weight="700">39</text>
</svg>