<?xml version="1.0" encoding="UTF-8"?>
<svg width="768" height="1024" viewBox="0 0 768 1024" fill="none" xmlns="http://www.w3.org/2000/svg">
  <defs>
    <linearGradient id="bg-ironbound-beastmaster-c36" x1="60" y1="40" x2="728" y2="1004" gradientUnits="userSpaceOnUse">
      <stop offset="0" stop-color="#15140f"/>
      <stop offset="0.55" stop-color="#5d4522"/>
      <stop offset="1" stop-color="#15140f"/>
    </linearGradient>
    <radialGradient id="glow-ironbound-beastmaster-c36" cx="0" cy="0" r="1" gradientUnits="userSpaceOnUse" gradientTransform="translate(254.05 534.33) rotate(90) scale(228.83 228.83)">
      <stop stop-color="#ab7f3e" stop-opacity="0.45"/>
      <stop offset="1" stop-color="#ab7f3e" stop-opacity="0"/>
    </radialGradient>
    <linearGradient id="edge-ironbound-beastmaster-c36" x1="0" y1="0" x2="768" y2="1024" gradientUnits="userSpaceOnUse">
      <stop stop-color="#ab7f3e" stop-opacity="0.85"/>
      <stop offset="1" stop-color="#8fd15f" stop-opacity="0.85"/>
    </linearGradient>
  </defs>

  <rect x="0" y="0" width="768" height="1024" rx="32" fill="#060910"/>
  <rect x="16" y="16" width="736" height="992" rx="24" fill="url(#bg-ironbound-beastmaster-c36)"/>
  <rect x="16" y="16" width="736" height="992" rx="24" fill="url(#glow-ironbound-beastmaster-c36)"/>

  <g opacity="0.88">
    <path d="M186.24,233.85 C243.22,338.65 241.61,605.50 178.66,716.84" stroke="#8fd15f" stroke-width="10" fill="none" opacity="0.7"/><path d="M275.43,304.23 C332.54,425.17 302.28,622.77 269.13,784.37" stroke="#ab7f3e" stroke-width="9" fill="none" opacity="0.7"/><path d="M351.60,249.62 C394.06,461.59 423.69,489.35 336.24,743.89" stroke="#8fd15f" stroke-width="8" fill="none" opacity="0.7"/><path d="M440.87,256.53 C489.12,369.30 519.11,530.58 416.02,724.55" stroke="#ab7f3e" stroke-width="7" fill="none" opacity="0.7"/>
  </g>

  <g opacity="0.8">
    <circle cx="447.90" cy="820.46" r="2.35" fill="#8fd15f" opacity="0.30"/><circle cx="428.71" cy="254.12" r="2.84" fill="#ab7f3e" opacity="0.40"/><circle cx="127.59" cy="271.16" r="2.97" fill="#8fd15f" opacity="0.51"/><circle cx="560.92" cy="687.85" r="3.07" fill="#ab7f3e" opacity="0.41"/><circle cx="630.99" cy="113.83" r="1.90" fill="#8fd15f" opacity="0.42"/><circle cx="336.44" cy="408.74" r="4.23" fill="#ab7f3e" opacity="0.68"/><circle cx="67.56" cy="705.28" r="1.89" fill="#8fd15f" opacity="0.44"/><circle cx="534.46" cy="972.90" r="1.82" fill="#ab7f3e" opacity="0.55"/><circle cx="36.62" cy="472.36" r="4.93" fill="#8fd15f" opacity="0.47"/><circle cx="421.59" cy="12.78" r="3.44" fill="#ab7f3e" opacity="0.48"/><circle cx="488.61" cy="674.66" r="4.06" fill="#8fd15f" opacity="0.33"/><circle cx="662.88" cy="435.30" r="1.58" fill="#ab7f3e" opacity="0.73"/><circle cx="51.78" cy="218.76" r="1.89" fill="#8fd15f" opacity="0.51"/><circle cx="91.19" cy="320.46" r="2.54" fill="#ab7f3e" opacity="0.25"/><circle cx="337.38" cy="729.75" r="4.33" fill="#8fd15f" opacity="0.35"/><circle cx="695.10" cy="342.51" r="3.70" fill="#ab7f3e" opacity="0.36"/><circle cx="78.04" cy="126.10" r="3.93" fill="#8fd15f" opacity="0.64"/><circle cx="265.91" cy="345.94" r="1.99" fill="#ab7f3e" opacity="0.37"/><circle cx="548.49" cy="518.99" r="3.28" fill="#8fd15f" opacity="0.37"/><circle cx="307.01" cy="841.53" r="3.87" fill="#ab7f3e" opacity="0.26"/><circle cx="35.14" cy="963.58" r="4.94" fill="#8fd15f" opacity="0.70"/><circle cx="505.08" cy="965.64" r="3.74" fill="#ab7f3e" opacity="0.61"/><circle cx="719.21" cy="681.66" r="4.65" fill="#8fd15f" opacity="0.43"/><circle cx="257.87" cy="822.40" r="2.71" fill="#ab7f3e" opacity="0.39"/><circle cx="553.13" cy="985.65" r="3.78" fill="#8fd15f" opacity="0.38"/><circle cx="41.94" cy="856.54" r="2.30" fill="#ab7f3e" opacity="0.69"/><circle cx="465.67" cy="66.43" r="2.05" fill="#8fd15f" opacity="0.52"/><circle cx="185.40" cy="582.22" r="4.47" fill="#ab7f3e" opacity="0.68"/>
  </g>

  <rect x="16" y="16" width="736" height="992" rx="24" stroke="url(#edge-ironbound-beastmaster-c36)" stroke-width="2.5" opacity="0.85"/>
  <rect x="22" y="22" width="724" height="980" rx="20" stroke="#78d8ff" stroke-width="2" opacity="0.74"/>

  <rect x="34" y="34" width="700" height="72" rx="14" fill="#070b14" fill-opacity="0.72" stroke="#78d8ff" stroke-opacity="0.55"/>
  <text x="54" y="80" fill="#EAF4FF" font-family="Exo 2, Segoe UI, sans-serif" font-size="32" font-weight="700">Ironbound Beastmaster</text>

  <rect x="34" y="872" width="700" height="92" rx="14" fill="#070b14" fill-opacity="0.74" stroke="#78d8ff" stroke-opacity="0.6"/>
  <text x="54" y="924" fill="#D9E7FF" font-family="Exo 2, Segoe UI, sans-serif" font-size="30" font-weight="600">Resource Surge</text>

  <rect x="598" y="36" width="118" height="42" rx="10" fill="#78d8ff" fill-opacity="0.2" stroke="#78d8ff" stroke-opacity="0.8"/>
  <text x="612" y="65" fill="#78d8ff" font-family="Exo 2, Segoe UI, sans-serif" font-size="20" font-weight="700">RARE</text>

  <circle cx="708" cy="954" r="26" fill="#080d18" stroke="#78d8ff" stroke-opacity="0.8"/>
  <text x="696" y="962" fill="#E7F2FF" font-family="Exo 2, Segoe UI, sans-serif" font-size="24" font-weight="700">36</text>
</svg>