<?xml version="1.0" encoding="UTF-8"?>
<svg width="768" height="1024" viewBox="0 0 768 1024" fill="none" xmlns="http://www.w3.org/2000/svg">
  <defs>
    <linearGradient id="bg-ironbound-beastmaster-c13" x1="60" y1="40" x2="728" y2="1004" gradientUnits="userSpaceOnUse">
      <stop offset="0" stop-color="#15140f"/>
      <stop offset="0.55" stop-color="#5d4522"/>
      <stop offset="1" stop-color="#15140f"/>
    </linearGradient>
    <radialGradient id="glow-ironbound-beastmaster-c13" cx="0" cy="0" r="1" gradientUnits="userSpaceOnUse" gradientTransform="translate(205.79 739.99) rotate(90) scale(233.21 233.21)">
      <stop stop-color="#ab7f3e" stop-opacity="0.45"/>
      <stop offset="1" stop-color="#ab7f3e" stop-opacity="0"/>
    </radialGradient>
    <linearGradient id="edge-ironbound-beastmaster-c13" x1="0" y1="0" x2="768" y2="1024" gradientUnits="userSpaceOnUse">
      <stop stop-color="#ab7f3e" stop-opacity="0.85"/>
      <stop offset="1" stop-color="#8fd15f" stop-opacity="0.85"/>
    </linearGradient>
  </defs>

  <rect x="0" y="0" width="768" height="1024" rx="32" fill="#060910"/>
  <rect x="16" y="16" width="736" height="992" rx="24" fill="url(#bg-ironbound-beastmaster-c13)"/>
  <rect x="16" y="16" width="736" height="992" rx="24" fill="url(#glow-ironbound-beastmaster-c13)"/>

  <g opacity="0.88">
    <path d="M182.52,220.19 C250.98,342.22 248.55,562.23 165.69,724.51" stroke="#8fd15f" stroke-width="10" fill="none" opacity="0.7"/><path d="M272.80,275.26 C340.80,475.09 316.86,581.84 263.86,741.06" stroke="#ab7f3e" stroke-width="9" fill="none" opacity="0.7"/><path d="M352.05,236.16 C405.09,407.76 380.46,596.15 334.71,727.11" stroke="#8fd15f" stroke-width="8" fill="none" opacity="0.7"/><path d="M445.81,239.16 C488.41,425.99 510.51,576.67 432.04,620.88" stroke="#ab7f3e" stroke-width="7" fill="none" opacity="0.7"/>
  </g>

  <g opacity="0.8">
    <circle cx="152.24" cy="797.47" r="3.83" fill="#8fd15f" opacity="0.54"/><circle cx="690.62" cy="829.44" r="2.23" fill="#ab7f3e" opacity="0.34"/><circle cx="274.85" cy="334.05" r="1.34" fill="#8fd15f" opacity="0.69"/><circle cx="25.06" cy="86.78" r="2.12" fill="#ab7f3e" opacity="0.58"/><circle cx="426.74" cy="174.10" r="4.39" fill="#8fd15f" opacity="0.47"/><circle cx="164.23" cy="58.68" r="2.85" fill="#ab7f3e" opacity="0.26"/><circle cx="313.69" cy="362.96" r="2.71" fill="#8fd15f" opacity="0.55"/><circle cx="454.85" cy="1003.46" r="2.52" fill="#ab7f3e" opacity="0.53"/><circle cx="511.35" cy="835.70" r="1.50" fill="#8fd15f" opacity="0.40"/><circle cx="528.40" cy="259.22" r="4.93" fill="#ab7f3e" opacity="0.72"/><circle cx="630.42" cy="634.77" r="4.49" fill="#8fd15f" opacity="0.57"/><circle cx="263.33" cy="805.42" r="1.33" fill="#ab7f3e" opacity="0.37"/><circle cx="218.06" cy="118.58" r="3.17" fill="#8fd15f" opacity="0.72"/><circle cx="63.92" cy="599.21" r="2.98" fill="#ab7f3e" opacity="0.48"/><circle cx="380.03" cy="40.41" r="2.56" fill="#8fd15f" opacity="0.27"/><circle cx="702.53" cy="558.32" r="4.04" fill="#ab7f3e" opacity="0.25"/><circle cx="121.73" cy="705.47" r="3.14" fill="#8fd15f" opacity="0.47"/><circle cx="365.58" cy="722.72" r="1.96" fill="#ab7f3e" opacity="0.70"/><circle cx="350.06" cy="377.52" r="1.95" fill="#8fd15f" opacity="0.57"/><circle cx="306.48" cy="675.29" r="1.78" fill="#ab7f3e" opacity="0.63"/><circle cx="160.24" cy="255.74" r="2.71" fill="#8fd15f" opacity="0.24"/><circle cx="657.10" cy="948.70" r="4.82" fill="#ab7f3e" opacity="0.27"/><circle cx="53.43" cy="724.75" r="2.11" fill="#8fd15f" opacity="0.39"/><circle cx="703.63" cy="733.27" r="2.13" fill="#ab7f3e" opacity="0.25"/><circle cx="148.90" cy="737.24" r="1.97" fill="#8fd15f" opacity="0.53"/><circle cx="187.38" cy="989.58" r="4.03" fill="#ab7f3e" opacity="0.26"/><circle cx="182.99" cy="962.77" r="5.00" fill="#8fd15f" opacity="0.33"/><circle cx="662.50" cy="502.81" r="4.84" fill="#ab7f3e" opacity="0.69"/>
  </g>

  <rect x="16" y="16" width="736" height="992" rx="24" stroke="url(#edge-ironbound-beastmaster-c13)" stroke-width="2.5" opacity="0.85"/>
  <rect x="22" y="22" width="724" height="980" rx="20" stroke="#8aa0c4" stroke-width="2" opacity="0.74"/>

  <rect x="34" y="34" width="700" height="72" rx="14" fill="#070b14" fill-opacity="0.72" stroke="#8aa0c4" stroke-opacity="0.55"/>
  <text x="54" y="80" fill="#EAF4FF" font-family="Exo 2, Segoe UI, sans-serif" font-size="32" font-weight="700">Ironbound Beastmaster</text>

  <rect x="34" y="872" width="700" height="92" rx="14" fill="#070b14" fill-opacity="0.74" stroke="#8aa0c4" stroke-opacity="0.6"/>
  <text x="54" y="924" fill="#D9E7FF" font-family="Exo 2, Segoe UI, sans-serif" font-size="30" font-weight="600">Ambusher</text>

  <rect x="598" y="36" width="118" height="42" rx="10" fill="#8aa0c4" fill-opacity="0.2" stroke="#8aa0c4" stroke-opacity="0.8"/>
  <text x="612" y="65" fill="#8aa0c4" font-family="Exo 2, Segoe UI, sans-serif" font-size="20" font-weight="700">COMMON</text>

  <circle cx="708" cy="954" r="26" fill="#080d18" stroke="#8aa0c4" stroke-opacity="0.8"/>
  <text x="696" y="962" fill="#E7F2FF" font-family="Exo 2, Segoe UI, sans-serif" font-size="24" font-weight="700">13</text>
</svg>