<?xml version="1.0" encoding="UTF-8"?>
<svg width="768" height="1024" viewBox="0 0 768 1024" fill="none" xmlns="http://www.w3.org/2000/svg">
  <defs>
    <linearGradient id="bg-ironbound-beastmaster-c02" x1="60" y1="40" x2="728" y2="1004" gradientUnits="userSpaceOnUse">
      <stop offset="0" stop-color="#15140f"/>
      <stop offset="0.55" stop-color="#5d4522"/>
      <stop offset="1" stop-color="#15140f"/>
    </linearGradient>
    <radialGradient id="glow-ironbound-beastmaster-c02" cx="0" cy="0" r="1" gradientUnits="userSpaceOnUse" gradientTransform="translate(145.84 538.33) rotate(90) scale(231.12 231.12)">
      <stop stop-color="#ab7f3e" stop-opacity="0.45"/>
      <stop offset="1" stop-color="#ab7f3e" stop-opacity="0"/>
    </radialGradient>
    <linearGradient id="edge-ironbound-beastmaster-c02" x1="0" y1="0" x2="768" y2="1024" gradientUnits="userSpaceOnUse">
      <stop stop-color="#ab7f3e" stop-opacity="0.85"/>
      <stop offset="1" stop-color="#8fd15f" stop-opacity="0.85"/>
    </linearGradient>
  </defs>

  <rect x="0" y="0" width="768" height="1024" rx="32" fill="#060910"/>
  <rect x="16" y="16" width="736" height="992" rx="24" fill="url(#bg-ironbound-beastmaster-c02)"/>
  <rect x="16" y="16" width="736" height="992" rx="24" fill="url(#glow-ironbound-beastmaster-c02)"/>

  <g opacity="0.88">
    <path d="M182.51,311.73 C252.82,411.27 204.91,605.57 161.11,790.63" stroke="#8fd15f" stroke-width="10" fill="none" opacity="0.7"/><path d="M276.52,289.36 C336.70,416.15 331.31,599.29 256.29,760.35" stroke="#ab7f3e" stroke-width="9" fill="none" opacity="0.7"/><path d="M360.08,283.79 C416.56,391.69 433.00,631.10 346.02,687.57" stroke="#8fd15f" stroke-width="8" fill="none" opacity="0.7"/><path d="M443.14,226.21 C508.61,354.83 498.27,498.56 432.20,634.44" stroke="#ab7f3e" stroke-width="7" fill="none" opacity="0.7"/>
  </g>

  <g opacity="0.8">
    <circle cx="63.14" cy="305.79" r="2.71" fill="#8fd15f" opacity="0.61"/><circle cx="329.97" cy="632.97" r="4.69" fill="#ab7f3e" opacity="0.42"/><circle cx="594.25" cy="983.63" r="1.45" fill="#8fd15f" opacity="0.61"/><circle cx="594.94" cy="668.61" r="4.56" fill="#ab7f3e" opacity="0.56"/><circle cx="739.63" cy="65.82" r="2.59" fill="#8fd15f" opacity="0.51"/><circle cx="605.20" cy="959.17" r="4.31" fill="#ab7f3e" opacity="0.33"/><circle cx="448.82" cy="682.24" r="3.58" fill="#8fd15f" opacity="0.65"/><circle cx="157.66" cy="413.21" r="2.50" fill="#ab7f3e" opacity="0.30"/><circle cx="554.33" cy="1009.51" r="3.06" fill="#8fd15f" opacity="0.35"/><circle cx="206.32" cy="401.21" r="2.53" fill="#ab7f3e" opacity="0.37"/><circle cx="541.86" cy="452.65" r="2.65" fill="#8fd15f" opacity="0.42"/><circle cx="152.06" cy="632.51" r="1.54" fill="#ab7f3e" opacity="0.71"/><circle cx="470.23" cy="715.36" r="4.81" fill="#8fd15f" opacity="0.59"/><circle cx="72.79" cy="759.44" r="1.62" fill="#ab7f3e" opacity="0.68"/><circle cx="415.12" cy="493.96" r="3.52" fill="#8fd15f" opacity="0.46"/><circle cx="260.45" cy="945.37" r="4.39" fill="#ab7f3e" opacity="0.67"/><circle cx="700.67" cy="717.57" r="4.73" fill="#8fd15f" opacity="0.41"/><circle cx="51.07" cy="325.47" r="1.75" fill="#ab7f3e" opacity="0.47"/><circle cx="449.81" cy="770.96" r="2.88" fill="#8fd15f" opacity="0.56"/><circle cx="693.68" cy="346.88" r="4.17" fill="#ab7f3e" opacity="0.24"/><circle cx="115.99" cy="33.14" r="4.09" fill="#8fd15f" opacity="0.30"/><circle cx="111.10" cy="207.97" r="3.56" fill="#ab7f3e" opacity="0.59"/><circle cx="496.03" cy="923.79" r="2.51" fill="#8fd15f" opacity="0.44"/><circle cx="26.98" cy="11.45" r="2.81" fill="#ab7f3e" opacity="0.68"/><circle cx="482.09" cy="570.72" r="2.86" fill="#8fd15f" opacity="0.53"/><circle cx="18.61" cy="871.80" r="1.72" fill="#ab7f3e" opacity="0.38"/><circle cx="515.87" cy="105.83" r="4.79" fill="#8fd15f" opacity="0.71"/><circle cx="40.81" cy="337.72" r="4.44" fill="#ab7f3e" opacity="0.69"/>
  </g>

  <rect x="16" y="16" width="736" height="992" rx="24" stroke="url(#edge-ironbound-beastmaster-c02)" stroke-width="2.5" opacity="0.85"/>
  <rect x="22" y="22" width="724" height="980" rx="20" stroke="#8aa0c4" stroke-width="2" opacity="0.74"/>

  <rect x="34" y="34" width="700" height="72" rx="14" fill="#070b14" fill-opacity="0.72" stroke="#8aa0c4" stroke-opacity="0.55"/>
  <text x="54" y="80" fill="#EAF4FF" font-family="Exo 2, Segoe UI, sans-serif" font-size="32" font-weight="700">Ironbound Beastmaster</text>

  <rect x="34" y="872" width="700" height="92" rx="14" fill="#070b14" fill-opacity="0.74" stroke="#8aa0c4" stroke-opacity="0.6"/>
  <text x="54" y="924" fill="#D9E7FF" font-family="Exo 2, Segoe UI, sans-serif" font-size="30" font-weight="600">Scout</text>

  <rect x="598" y="36" width="118" height="42" rx="10" fill="#8aa0c4" fill-opacity="0.2" stroke="#8aa0c4" stroke-opacity="0.8"/>
  <text x="612" y="65" fill="#8aa0c4" font-family="Exo 2, Segoe UI, sans-serif" font-size="20" font-weight="700">COMMON</text>

  <circle cx="708" cy="954" r="26" fill="#080d18" stroke="#8aa0c4" stroke-opacity="0.8"/>
  <text x="696" y="962" fill="#E7F2FF" font-family="Exo 2, Segoe UI, sans-serif" font-size="24" font-weight="700">02</text>
</svg>