<?xml version="1.0" encoding="UTF-8"?>
<svg width="768" height="1024" viewBox="0 0 768 1024" fill="none" xmlns="http://www.w3.org/2000/svg">
  <defs>
    <linearGradient id="bg-ironbound-beastmaster-c03" x1="60" y1="40" x2="728" y2="1004" gradientUnits="userSpaceOnUse">
      <stop offset="0" stop-color="#15140f"/>
      <stop offset="0.55" stop-color="#5d4522"/>
      <stop offset="1" stop-color="#15140f"/>
    </linearGradient>
    <radialGradient id="glow-ironbound-beastmaster-c03" cx="0" cy="0" r="1" gradientUnits="userSpaceOnUse" gradientTransform="translate(175.62 142.44) rotate(90) scale(230.43 230.43)">
      <stop stop-color="#ab7f3e" stop-opacity="0.45"/>
      <stop offset="1" stop-color="#ab7f3e" stop-opacity="0"/>
    </radialGradient>
    <linearGradient id="edge-ironbound-beastmaster-c03" x1="0" y1="0" x2="768" y2="1024" gradientUnits="userSpaceOnUse">
      <stop stop-color="#ab7f3e" stop-opacity="0.85"/>
      <stop offset="1" stop-color="#8fd15f" stop-opacity="0.85"/>
    </linearGradient>
  </defs>

  <rect x="0" y="0" width="768" height="1024" rx="32" fill="#060910"/>
  <rect x="16" y="16" width="736" height="992" rx="24" fill="url(#bg-ironbound-beastmaster-c03)"/>
  <rect x="16" y="16" width="736" height="992" rx="24" fill="url(#glow-ironbound-beastmaster-c03)"/>

  <g opacity="0.88">
    <path d="M185.76,329.27 C260.04,499.83 256.96,587.28 183.73,817.74" stroke="#8fd15f" stroke-width="10" fill="none" opacity="0.7"/><path d="M273.48,328.09 C348.88,439.11 308.49,663.30 249.42,713.58" stroke="#ab7f3e" stroke-width="9" fill="none" opacity="0.7"/><path d="M360.28,226.98 C439.89,396.49 437.51,481.10 353.41,670.19" stroke="#8fd15f" stroke-width="8" fill="none" opacity="0.7"/><path d="M446.93,228.04 C491.40,382.42 523.51,556.28 435.94,635.92" stroke="#ab7f3e" stroke-width="7" fill="none" opacity="0.7"/>
  </g>

  <g opacity="0.8">
    <circle cx="185.88" cy="98.18" r="2.05" fill="#8fd15f" opacity="0.61"/><circle cx="303.71" cy="226.49" r="2.08" fill="#ab7f3e" opacity="0.65"/><circle cx="157.13" cy="319.86" r="3.02" fill="#8fd15f" opacity="0.29"/><circle cx="480.07" cy="922.05" r="1.60" fill="#ab7f3e" opacity="0.71"/><circle cx="155.00" cy="692.42" r="1.96" fill="#8fd15f" opacity="0.31"/><circle cx="476.71" cy="162.64" r="4.47" fill="#ab7f3e" opacity="0.26"/><circle cx="652.57" cy="114.06" r="3.33" fill="#8fd15f" opacity="0.68"/><circle cx="694.78" cy="223.32" r="1.35" fill="#ab7f3e" opacity="0.33"/><circle cx="232.06" cy="1020.00" r="3.61" fill="#8fd15f" opacity="0.66"/><circle cx="336.19" cy="162.35" r="2.97" fill="#ab7f3e" opacity="0.60"/><circle cx="383.97" cy="586.24" r="3.35" fill="#8fd15f" opacity="0.32"/><circle cx="67.48" cy="955.58" r="4.53" fill="#ab7f3e" opacity="0.28"/><circle cx="408.46" cy="180.22" r="1.55" fill="#8fd15f" opacity="0.61"/><circle cx="374.36" cy="609.28" r="2.30" fill="#ab7f3e" opacity="0.71"/><circle cx="429.93" cy="929.62" r="1.85" fill="#8fd15f" opacity="0.49"/><circle cx="342.37" cy="525.23" r="4.73" fill="#ab7f3e" opacity="0.48"/><circle cx="417.41" cy="862.82" r="4.08" fill="#8fd15f" opacity="0.26"/><circle cx="462.94" cy="717.47" r="1.27" fill="#ab7f3e" opacity="0.73"/><circle cx="623.91" cy="895.32" r="1.72" fill="#8fd15f" opacity="0.34"/><circle cx="125.53" cy="810.97" r="3.56" fill="#ab7f3e" opacity="0.48"/><circle cx="227.26" cy="354.32" r="2.23" fill="#8fd15f" opacity="0.65"/><circle cx="33.53" cy="134.42" r="1.21" fill="#ab7f3e" opacity="0.25"/><circle cx="553.52" cy="61.64" r="1.49" fill="#8fd15f" opacity="0.59"/><circle cx="624.22" cy="855.11" r="2.74" fill="#ab7f3e" opacity="0.52"/><circle cx="390.14" cy="929.77" r="1.75" fill="#8fd15f" opacity="0.43"/><circle cx="40.94" cy="299.36" r="4.39" fill="#ab7f3e" opacity="0.40"/><circle cx="357.18" cy="121.87" r="4.78" fill="#8fd15f" opacity="0.37"/><circle cx="634.01" cy="694.95" r="4.33" fill="#ab7f3e" opacity="0.32"/>
  </g>

  <rect x="16" y="16" width="736" height="992" rx="24" stroke="url(#edge-ironbound-beastmaster-c03)" stroke-width="2.5" opacity="0.85"/>
  <rect x="22" y="22" width="724" height="980" rx="20" stroke="#8aa0c4" stroke-width="2" opacity="0.74"/>

  <rect x="34" y="34" width="700" height="72" rx="14" fill="#070b14" fill-opacity="0.72" stroke="#8aa0c4" stroke-opacity="0.55"/>
  <text x="54" y="80" fill="#EAF4FF" font-family="Exo 2, Segoe UI, sans-serif" font-size="32" font-weight="700">Ironbound Beastmaster</text>

  <rect x="34" y="872" width="700" height="92" rx="14" fill="#070b14" fill-opacity="0.74" stroke="#8aa0c4" stroke-opacity="0.6"/>
  <text x="54" y="924" fill="#D9E7FF" font-family="Exo 2, Segoe UI, sans-serif" font-size="30" font-weight="600">Bulwark</text>

  <rect x="598" y="36" width="118" height="42" rx="10" fill="#8aa0c4" fill-opacity="0.2" stroke="#8aa0c4" stroke-opacity="0.8"/>
  <text x="612" y="65" fill="#8aa0c4" font-family="Exo 2, Segoe UI, sans-serif" font-size="20" font-weight="700">COMMON</text>

  <circle cx="708" cy="954" r="26" fill="#080d18" stroke="#8aa0c4" stroke-opacity="0.8"/>
  <text x="696" y="962" fill="#E7F2FF" font-family="Exo 2, Segoe UI, sans-serif" font-size="24" font-weight="700">03</text>
</svg>