<?xml version="1.0" encoding="UTF-8"?>
<svg width="768" height="1024" viewBox="0 0 768 1024" fill="none" xmlns="http://www.w3.org/2000/svg">
  <defs>
    <linearGradient id="bg-ironbound-beastmaster-c27" x1="60" y1="40" x2="728" y2="1004" gradientUnits="userSpaceOnUse">
      <stop offset="0" stop-color="#15140f"/>
      <stop offset="0.55" stop-color="#5d4522"/>
      <stop offset="1" stop-color="#15140f"/>
    </linearGradient>
    <radialGradient id="glow-ironbound-beastmaster-c27" cx="0" cy="0" r="1" gradientUnits="userSpaceOnUse" gradientTransform="translate(171.71 237.01) rotate(90) scale(183.34 183.34)">
      <stop stop-color="#ab7f3e" stop-opacity="0.45"/>
      <stop offset="1" stop-color="#ab7f3e" stop-opacity="0"/>
    </radialGradient>
    <linearGradient id="edge-ironbound-beastmaster-c27" x1="0" y1="0" x2="768" y2="1024" gradientUnits="userSpaceOnUse">
      <stop stop-color="#ab7f3e" stop-opacity="0.85"/>
      <stop offset="1" stop-color="#8fd15f" stop-opacity="0.85"/>
    </linearGradient>
  </defs>

  <rect x="0" y="0" width="768" height="1024" rx="32" fill="#060910"/>
  <rect x="16" y="16" width="736" height="992" rx="24" fill="url(#bg-ironbound-beastmaster-c27)"/>
  <rect x="16" y="16" width="736" height="992" rx="24" fill="url(#glow-ironbound-beastmaster-c27)"/>

  <g opacity="0.88">
    <path d="M191.24,243.35 C240.98,360.12 225.49,630.13 172.26,646.29" stroke="#8fd15f" stroke-width="10" fill="none" opacity="0.7"/><path d="M269.82,249.07 C349.21,452.18 315.62,620.97 254.50,706.62" stroke="#ab7f3e" stroke-width="9" fill="none" opacity="0.7"/><path d="M353.59,310.84 C420.85,484.89 412.45,606.43 343.44,708.07" stroke="#8fd15f" stroke-width="8" fill="none" opacity="0.7"/><path d="M442.30,295.23 C485.61,466.28 476.19,586.00 426.96,788.36" stroke="#ab7f3e" stroke-width="7" fill="none" opacity="0.7"/>
  </g>

  <g opacity="0.8">
    <circle cx="602.11" cy="182.11" r="3.94" fill="#8fd15f" opacity="0.54"/><circle cx="295.40" cy="557.64" r="2.90" fill="#ab7f3e" opacity="0.58"/><circle cx="111.48" cy="507.52" r="4.42" fill="#8fd15f" opacity="0.72"/><circle cx="36.55" cy="243.38" r="2.18" fill="#ab7f3e" opacity="0.46"/><circle cx="650.84" cy="84.19" r="3.90" fill="#8fd15f" opacity="0.73"/><circle cx="647.16" cy="758.56" r="4.66" fill="#ab7f3e" opacity="0.36"/><circle cx="719.54" cy="316.98" r="3.80" fill="#8fd15f" opacity="0.31"/><circle cx="300.79" cy="367.22" r="1.54" fill="#ab7f3e" opacity="0.45"/><circle cx="365.47" cy="390.09" r="2.63" fill="#8fd15f" opacity="0.63"/><circle cx="364.12" cy="71.95" r="2.27" fill="#ab7f3e" opacity="0.74"/><circle cx="320.07" cy="733.51" r="3.46" fill="#8fd15f" opacity="0.29"/><circle cx="447.17" cy="1000.25" r="2.26" fill="#ab7f3e" opacity="0.52"/><circle cx="405.82" cy="314.44" r="4.92" fill="#8fd15f" opacity="0.39"/><circle cx="756.37" cy="308.94" r="4.32" fill="#ab7f3e" opacity="0.35"/><circle cx="742.69" cy="675.81" r="3.69" fill="#8fd15f" opacity="0.30"/><circle cx="88.73" cy="392.86" r="4.30" fill="#ab7f3e" opacity="0.60"/><circle cx="232.05" cy="140.05" r="3.33" fill="#8fd15f" opacity="0.46"/><circle cx="478.20" cy="592.41" r="3.80" fill="#ab7f3e" opacity="0.40"/><circle cx="721.40" cy="170.13" r="3.32" fill="#8fd15f" opacity="0.54"/><circle cx="334.15" cy="610.70" r="3.59" fill="#ab7f3e" opacity="0.33"/><circle cx="624.51" cy="369.50" r="4.20" fill="#8fd15f" opacity="0.50"/><circle cx="545.90" cy="34.23" r="3.26" fill="#ab7f3e" opacity="0.59"/><circle cx="209.37" cy="975.54" r="1.82" fill="#8fd15f" opacity="0.34"/><circle cx="555.79" cy="965.81" r="4.13" fill="#ab7f3e" opacity="0.38"/><circle cx="496.02" cy="750.26" r="3.98" fill="#8fd15f" opacity="0.38"/><circle cx="74.73" cy="268.86" r="1.37" fill="#ab7f3e" opacity="0.49"/><circle cx="276.26" cy="695.20" r="4.30" fill="#8fd15f" opacity="0.38"/><circle cx="505.79" cy="897.23" r="2.43" fill="#ab7f3e" opacity="0.30"/>
  </g>

  <rect x="16" y="16" width="736" height="992" rx="24" stroke="url(#edge-ironbound-beastmaster-c27)" stroke-width="2.5" opacity="0.85"/>
  <rect x="22" y="22" width="724" height="980" rx="20" stroke="#8aa0c4" stroke-width="2" opacity="0.74"/>

  <rect x="34" y="34" width="700" height="72" rx="14" fill="#070b14" fill-opacity="0.72" stroke="#8aa0c4" stroke-opacity="0.55"/>
  <text x="54" y="80" fill="#EAF4FF" font-family="Exo 2, Segoe UI, sans-serif" font-size="32" font-weight="700">Ironbound Beastmaster</text>

  <rect x="34" y="872" width="700" height="92" rx="14" fill="#070b14" fill-opacity="0.74" stroke="#8aa0c4" stroke-opacity="0.6"/>
  <text x="54" y="924" fill="#D9E7FF" font-family="Exo 2, Segoe UI, sans-serif" font-size="30" font-weight="600">Ritual Guard</text>

  <rect x="598" y="36" width="118" height="42" rx="10" fill="#8aa0c4" fill-opacity="0.2" stroke="#8aa0c4" stroke-opacity="0.8"/>
  <text x="612" y="65" fill="#8aa0c4" font-family="Exo 2, Segoe UI, sans-serif" font-size="20" font-weight="700">COMMON</text>

  <circle cx="708" cy="954" r="26" fill="#080d18" stroke="#8aa0c4" stroke-opacity="0.8"/>
  <text x="696" y="962" fill="#E7F2FF" font-family="Exo 2, Segoe UI, sans-serif" font-size="24" font-weight="700">27</text>
</svg>