<?xml version="1.0" encoding="UTF-8"?>
<svg width="768" height="1024" viewBox="0 0 768 1024" fill="none" xmlns="http://www.w3.org/2000/svg">
  <defs>
    <linearGradient id="bg-riftforged-sentinel-c51" x1="60" y1="40" x2="728" y2="1004" gradientUnits="userSpaceOnUse">
      <stop offset="0" stop-color="#0a1e3f"/>
      <stop offset="0.55" stop-color="#204f8a"/>
      <stop offset="1" stop-color="#0a1e3f"/>
    </linearGradient>
    <radialGradient id="glow-riftforged-sentinel-c51" cx="0" cy="0" r="1" gradientUnits="userSpaceOnUse" gradientTransform="translate(539.67 386.67) rotate(90) scale(271.80 271.80)">
      <stop stop-color="#2ee6ff" stop-opacity="0.45"/>
      <stop offset="1" stop-color="#2ee6ff" stop-opacity="0"/>
    </radialGradient>
    <linearGradient id="edge-riftforged-sentinel-c51" x1="0" y1="0" x2="768" y2="1024" gradientUnits="userSpaceOnUse">
      <stop stop-color="#2ee6ff" stop-opacity="0.85"/>
      <stop offset="1" stop-color="#d8fbff" stop-opacity="0.85"/>
    </linearGradient>
  </defs>

  <rect x="0" y="0" width="768" height="1024" rx="32" fill="#060910"/>
  <rect x="16" y="16" width="736" height="992" rx="24" fill="url(#bg-riftforged-sentinel-c51)"/>
  <rect x="16" y="16" width="736" height="992" rx="24" fill="url(#glow-riftforged-sentinel-c51)"/>

  <g opacity="0.88">
    <polygon points="384.00,327.68 543.63,419.84 543.63,604.16 384.00,696.32 224.37,604.16 224.37,419.84" fill="none" stroke="#2ee6ff" stroke-width="10" opacity="0.7"/>
<polygon points="384.00,327.68 543.63,419.84 543.63,604.16 384.00,696.32 224.37,604.16 224.37,419.84" fill="none" stroke="#d8fbff" stroke-width="3" opacity="0.95" transform="scale(0.78) translate(107.52000000000001,143.36)"/>
  </g>

  <g opacity="0.8">
    <circle cx="105.21" cy="509.35" r="2.05" fill="#d8fbff" opacity="0.64"/><circle cx="96.78" cy="1012.61" r="1.60" fill="#2ee6ff" opacity="0.74"/><circle cx="637.28" cy="935.49" r="4.18" fill="#d8fbff" opacity="0.55"/><circle cx="73.65" cy="680.85" r="2.49" fill="#2ee6ff" opacity="0.45"/><circle cx="361.53" cy="349.92" r="3.40" fill="#d8fbff" opacity="0.27"/><circle cx="661.84" cy="633.98" r="3.75" fill="#2ee6ff" opacity="0.28"/><circle cx="357.93" cy="779.63" r="2.71" fill="#d8fbff" opacity="0.69"/><circle cx="697.88" cy="280.51" r="1.61" fill="#2ee6ff" opacity="0.31"/><circle cx="748.18" cy="163.50" r="3.81" fill="#d8fbff" opacity="0.27"/><circle cx="643.46" cy="969.36" r="1.65" fill="#2ee6ff" opacity="0.52"/><circle cx="127.74" cy="63.65" r="3.81" fill="#d8fbff" opacity="0.62"/><circle cx="360.32" cy="53.29" r="1.62" fill="#2ee6ff" opacity="0.36"/><circle cx="233.51" cy="897.31" r="3.71" fill="#d8fbff" opacity="0.32"/><circle cx="345.37" cy="938.94" r="2.32" fill="#2ee6ff" opacity="0.51"/><circle cx="371.90" cy="193.94" r="4.95" fill="#d8fbff" opacity="0.45"/><circle cx="487.23" cy="198.65" r="4.26" fill="#2ee6ff" opacity="0.62"/><circle cx="631.76" cy="694.41" r="4.36" fill="#d8fbff" opacity="0.27"/><circle cx="676.12" cy="338.88" r="4.24" fill="#2ee6ff" opacity="0.39"/><circle cx="236.42" cy="960.78" r="1.95" fill="#d8fbff" opacity="0.35"/><circle cx="11.85" cy="763.63" r="2.69" fill="#2ee6ff" opacity="0.70"/><circle cx="554.29" cy="770.88" r="1.46" fill="#d8fbff" opacity="0.39"/><circle cx="49.87" cy="483.70" r="4.34" fill="#2ee6ff" opacity="0.74"/><circle cx="97.65" cy="532.11" r="3.08" fill="#d8fbff" opacity="0.69"/><circle cx="348.56" cy="563.17" r="3.03" fill="#2ee6ff" opacity="0.74"/><circle cx="426.49" cy="48.65" r="2.99" fill="#d8fbff" opacity="0.45"/><circle cx="482.75" cy="514.16" r="3.74" fill="#2ee6ff" opacity="0.43"/><circle cx="346.08" cy="936.30" r="2.75" fill="#d8fbff" opacity="0.35"/><circle cx="94.09" cy="812.59" r="4.55" fill="#2ee6ff" opacity="0.24"/>
  </g>

  <rect x="16" y="16" width="736" height="992" rx="24" stroke="url(#edge-riftforged-sentinel-c51)" stroke-width="2.5" opacity="0.85"/>
  <rect x="22" y="22" width="724" height="980" rx="20" stroke="#f0a0ff" stroke-width="2" opacity="0.74"/>

  <rect x="34" y="34" width="700" height="72" rx="14" fill="#070b14" fill-opacity="0.72" stroke="#f0a0ff" stroke-opacity="0.55"/>
  <text x="54" y="80" fill="#EAF4FF" font-family="Exo 2, Segoe UI, sans-serif" font-size="32" font-weight="700">Riftforged Sentinel</text>

  <rect x="34" y="872" width="700" height="92" rx="14" fill="#070b14" fill-opacity="0.74" stroke="#f0a0ff" stroke-opacity="0.6"/>
  <text x="54" y="924" fill="#D9E7FF" font-family="Exo 2, Segoe UI, sans-serif" font-size="30" font-weight="600">Apex Catalyst</text>

  <rect x="598" y="36" width="118" height="42" rx="10" fill="#f0a0ff" fill-opacity="0.2" stroke="#f0a0ff" stroke-opacity="0.8"/>
  <text x="612" y="65" fill="#f0a0ff" font-family="Exo 2, Segoe UI, sans-serif" font-size="20" font-weight="700">EPIC</text>

  <circle cx="708" cy="954" r="26" fill="#080d18" stroke="#f0a0ff" stroke-opacity="0.8"/>
  <text x="696" y="962" fill="#E7F2FF" font-family="Exo 2, Segoe UI, sans-serif" font-size="24" font-weight="700">51</text>
</svg>