<?xml version="1.0" encoding="UTF-8"?>
<svg width="768" height="1024" viewBox="0 0 768 1024" fill="none" xmlns="http://www.w3.org/2000/svg">
  <defs>
    <linearGradient id="bg-riftforged-sentinel-c46" x1="60" y1="40" x2="728" y2="1004" gradientUnits="userSpaceOnUse">
      <stop offset="0" stop-color="#0a1e3f"/>
      <stop offset="0.55" stop-color="#204f8a"/>
      <stop offset="1" stop-color="#0a1e3f"/>
    </linearGradient>
    <radialGradient id="glow-riftforged-sentinel-c46" cx="0" cy="0" r="1" gradientUnits="userSpaceOnUse" gradientTransform="translate(265.31 671.23) rotate(90) scale(194.34 194.34)">
      <stop stop-color="#2ee6ff" stop-opacity="0.45"/>
      <stop offset="1" stop-color="#2ee6ff" stop-opacity="0"/>
    </radialGradient>
    <linearGradient id="edge-riftforged-sentinel-c46" x1="0" y1="0" x2="768" y2="1024" gradientUnits="userSpaceOnUse">
      <stop stop-color="#2ee6ff" stop-opacity="0.85"/>
      <stop offset="1" stop-color="#d8fbff" stop-opacity="0.85"/>
    </linearGradient>
  </defs>

  <rect x="0" y="0" width="768" height="1024" rx="32" fill="#060910"/>
  <rect x="16" y="16" width="736" height="992" rx="24" fill="url(#bg-riftforged-sentinel-c46)"/>
  <rect x="16" y="16" width="736" height="992" rx="24" fill="url(#glow-riftforged-sentinel-c46)"/>

  <g opacity="0.88">
    <polygon points="384.00,327.68 543.63,419.84 543.63,604.16 384.00,696.32 224.37,604.16 224.37,419.84" fill="none" stroke="#2ee6ff" stroke-width="10" opacity="0.7"/>
<polygon points="384.00,327.68 543.63,419.84 543.63,604.16 384.00,696.32 224.37,604.16 224.37,419.84" fill="none" stroke="#d8fbff" stroke-width="3" opacity="0.95" transform="scale(0.78) translate(107.52000000000001,143.36)"/>
  </g>

  <g opacity="0.8">
    <circle cx="271.52" cy="284.01" r="2.79" fill="#d8fbff" opacity="0.57"/><circle cx="384.18" cy="2.42" r="3.68" fill="#2ee6ff" opacity="0.47"/><circle cx="136.11" cy="513.90" r="2.37" fill="#d8fbff" opacity="0.26"/><circle cx="468.27" cy="569.11" r="1.68" fill="#2ee6ff" opacity="0.38"/><circle cx="690.14" cy="425.32" r="2.58" fill="#d8fbff" opacity="0.52"/><circle cx="266.42" cy="937.95" r="2.86" fill="#2ee6ff" opacity="0.65"/><circle cx="522.55" cy="260.38" r="1.76" fill="#d8fbff" opacity="0.33"/><circle cx="560.87" cy="341.17" r="1.97" fill="#2ee6ff" opacity="0.39"/><circle cx="151.67" cy="10.74" r="3.22" fill="#d8fbff" opacity="0.25"/><circle cx="528.79" cy="604.39" r="1.24" fill="#2ee6ff" opacity="0.56"/><circle cx="105.87" cy="584.08" r="1.52" fill="#d8fbff" opacity="0.29"/><circle cx="265.41" cy="592.95" r="3.71" fill="#2ee6ff" opacity="0.27"/><circle cx="732.42" cy="951.74" r="2.12" fill="#d8fbff" opacity="0.72"/><circle cx="120.83" cy="49.77" r="4.05" fill="#2ee6ff" opacity="0.46"/><circle cx="763.96" cy="223.25" r="3.68" fill="#d8fbff" opacity="0.49"/><circle cx="425.39" cy="634.98" r="4.87" fill="#2ee6ff" opacity="0.38"/><circle cx="72.06" cy="304.74" r="1.80" fill="#d8fbff" opacity="0.54"/><circle cx="446.43" cy="955.16" r="4.08" fill="#2ee6ff" opacity="0.35"/><circle cx="126.79" cy="536.54" r="3.91" fill="#d8fbff" opacity="0.46"/><circle cx="549.33" cy="654.76" r="3.35" fill="#2ee6ff" opacity="0.39"/><circle cx="91.73" cy="195.90" r="4.37" fill="#d8fbff" opacity="0.69"/><circle cx="272.73" cy="296.70" r="1.43" fill="#2ee6ff" opacity="0.41"/><circle cx="266.68" cy="192.72" r="4.32" fill="#d8fbff" opacity="0.33"/><circle cx="586.64" cy="854.65" r="1.45" fill="#2ee6ff" opacity="0.41"/><circle cx="739.79" cy="133.84" r="2.02" fill="#d8fbff" opacity="0.59"/><circle cx="234.76" cy="179.00" r="4.87" fill="#2ee6ff" opacity="0.73"/><circle cx="468.20" cy="635.13" r="2.50" fill="#d8fbff" opacity="0.42"/><circle cx="634.22" cy="158.77" r="1.46" fill="#2ee6ff" opacity="0.52"/>
  </g>

  <rect x="16" y="16" width="736" height="992" rx="24" stroke="url(#edge-riftforged-sentinel-c46)" stroke-width="2.5" opacity="0.85"/>
  <rect x="22" y="22" width="724" height="980" rx="20" stroke="#f0a0ff" stroke-width="2" opacity="0.74"/>

  <rect x="34" y="34" width="700" height="72" rx="14" fill="#070b14" fill-opacity="0.72" stroke="#f0a0ff" stroke-opacity="0.55"/>
  <text x="54" y="80" fill="#EAF4FF" font-family="Exo 2, Segoe UI, sans-serif" font-size="32" font-weight="700">Riftforged Sentinel</text>

  <rect x="34" y="872" width="700" height="92" rx="14" fill="#070b14" fill-opacity="0.74" stroke="#f0a0ff" stroke-opacity="0.6"/>
  <text x="54" y="924" fill="#D9E7FF" font-family="Exo 2, Segoe UI, sans-serif" font-size="30" font-weight="600">Epic Denial</text>

  <rect x="598" y="36" width="118" height="42" rx="10" fill="#f0a0ff" fill-opacity="0.2" stroke="#f0a0ff" stroke-opacity="0.8"/>
  <text x="612" y="65" fill="#f0a0ff" font-family="Exo 2, Segoe UI, sans-serif" font-size="20" font-weight="700">EPIC</text>

  <circle cx="708" cy="954" r="26" fill="#080d18" stroke="#f0a0ff" stroke-opacity="0.8"/>
  <text x="696" y="962" fill="#E7F2FF" font-family="Exo 2, Segoe UI, sans-serif" font-size="24" font-weight="700">46</text>
</svg>