<?xml version="1.0" encoding="UTF-8"?>
<svg width="768" height="1024" viewBox="0 0 768 1024" fill="none" xmlns="http://www.w3.org/2000/svg">
  <defs>
    <linearGradient id="bg-riftforged-sentinel-c15" x1="60" y1="40" x2="728" y2="1004" gradientUnits="userSpaceOnUse">
      <stop offset="0" stop-color="#0a1e3f"/>
      <stop offset="0.55" stop-color="#204f8a"/>
      <stop offset="1" stop-color="#0a1e3f"/>
    </linearGradient>
    <radialGradient id="glow-riftforged-sentinel-c15" cx="0" cy="0" r="1" gradientUnits="userSpaceOnUse" gradientTransform="translate(295.97 709.45) rotate(90) scale(281.07 281.07)">
      <stop stop-color="#2ee6ff" stop-opacity="0.45"/>
      <stop offset="1" stop-color="#2ee6ff" stop-opacity="0"/>
    </radialGradient>
    <linearGradient id="edge-riftforged-sentinel-c15" x1="0" y1="0" x2="768" y2="1024" gradientUnits="userSpaceOnUse">
      <stop stop-color="#2ee6ff" stop-opacity="0.85"/>
      <stop offset="1" stop-color="#d8fbff" stop-opacity="0.85"/>
    </linearGradient>
  </defs>

  <rect x="0" y="0" width="768" height="1024" rx="32" fill="#060910"/>
  <rect x="16" y="16" width="736" height="992" rx="24" fill="url(#bg-riftforged-sentinel-c15)"/>
  <rect x="16" y="16" width="736" height="992" rx="24" fill="url(#glow-riftforged-sentinel-c15)"/>

  <g opacity="0.88">
    <polygon points="384.00,327.68 543.63,419.84 543.63,604.16 384.00,696.32 224.37,604.16 224.37,419.84" fill="none" stroke="#2ee6ff" stroke-width="10" opacity="0.7"/>
<polygon points="384.00,327.68 543.63,419.84 543.63,604.16 384.00,696.32 224.37,604.16 224.37,419.84" fill="none" stroke="#d8fbff" stroke-width="3" opacity="0.95" transform="scale(0.78) translate(107.52000000000001,143.36)"/>
  </g>

  <g opacity="0.8">
    <circle cx="573.73" cy="502.32" r="2.09" fill="#d8fbff" opacity="0.59"/><circle cx="434.65" cy="698.53" r="1.37" fill="#2ee6ff" opacity="0.34"/><circle cx="659.41" cy="252.63" r="3.09" fill="#d8fbff" opacity="0.31"/><circle cx="432.37" cy="18.90" r="4.85" fill="#2ee6ff" opacity="0.73"/><circle cx="645.30" cy="150.74" r="3.35" fill="#d8fbff" opacity="0.47"/><circle cx="275.83" cy="461.42" r="3.42" fill="#2ee6ff" opacity="0.64"/><circle cx="746.77" cy="454.49" r="1.46" fill="#d8fbff" opacity="0.52"/><circle cx="684.74" cy="256.46" r="4.18" fill="#2ee6ff" opacity="0.45"/><circle cx="195.73" cy="500.44" r="2.24" fill="#d8fbff" opacity="0.34"/><circle cx="259.15" cy="144.29" r="1.37" fill="#2ee6ff" opacity="0.74"/><circle cx="642.68" cy="620.80" r="1.21" fill="#d8fbff" opacity="0.33"/><circle cx="591.98" cy="439.48" r="2.48" fill="#2ee6ff" opacity="0.26"/><circle cx="38.65" cy="4.18" r="3.77" fill="#d8fbff" opacity="0.46"/><circle cx="624.46" cy="849.33" r="3.73" fill="#2ee6ff" opacity="0.56"/><circle cx="267.20" cy="561.96" r="1.59" fill="#d8fbff" opacity="0.49"/><circle cx="19.94" cy="175.35" r="2.01" fill="#2ee6ff" opacity="0.28"/><circle cx="27.74" cy="933.07" r="1.83" fill="#d8fbff" opacity="0.34"/><circle cx="135.13" cy="868.76" r="4.31" fill="#2ee6ff" opacity="0.62"/><circle cx="270.56" cy="705.26" r="1.45" fill="#d8fbff" opacity="0.58"/><circle cx="152.11" cy="234.80" r="1.24" fill="#2ee6ff" opacity="0.45"/><circle cx="649.29" cy="76.50" r="4.80" fill="#d8fbff" opacity="0.35"/><circle cx="626.82" cy="75.42" r="3.31" fill="#2ee6ff" opacity="0.64"/><circle cx="520.29" cy="861.18" r="2.23" fill="#d8fbff" opacity="0.34"/><circle cx="141.61" cy="628.51" r="1.62" fill="#2ee6ff" opacity="0.54"/><circle cx="671.26" cy="578.35" r="2.90" fill="#d8fbff" opacity="0.43"/><circle cx="194.82" cy="353.42" r="4.18" fill="#2ee6ff" opacity="0.66"/><circle cx="598.00" cy="677.72" r="2.02" fill="#d8fbff" opacity="0.37"/><circle cx="463.23" cy="923.08" r="2.51" fill="#2ee6ff" opacity="0.58"/>
  </g>

  <rect x="16" y="16" width="736" height="992" rx="24" stroke="url(#edge-riftforged-sentinel-c15)" stroke-width="2.5" opacity="0.85"/>
  <rect x="22" y="22" width="724" height="980" rx="20" stroke="#8aa0c4" stroke-width="2" opacity="0.74"/>

  <rect x="34" y="34" width="700" height="72" rx="14" fill="#070b14" fill-opacity="0.72" stroke="#8aa0c4" stroke-opacity="0.55"/>
  <text x="54" y="80" fill="#EAF4FF" font-family="Exo 2, Segoe UI, sans-serif" font-size="32" font-weight="700">Riftforged Sentinel</text>

  <rect x="34" y="872" width="700" height="92" rx="14" fill="#070b14" fill-opacity="0.74" stroke="#8aa0c4" stroke-opacity="0.6"/>
  <text x="54" y="924" fill="#D9E7FF" font-family="Exo 2, Segoe UI, sans-serif" font-size="30" font-weight="600">Standard Bearer</text>

  <rect x="598" y="36" width="118" height="42" rx="10" fill="#8aa0c4" fill-opacity="0.2" stroke="#8aa0c4" stroke-opacity="0.8"/>
  <text x="612" y="65" fill="#8aa0c4" font-family="Exo 2, Segoe UI, sans-serif" font-size="20" font-weight="700">COMMON</text>

  <circle cx="708" cy="954" r="26" fill="#080d18" stroke="#8aa0c4" stroke-opacity="0.8"/>
  <text x="696" y="962" fill="#E7F2FF" font-family="Exo 2, Segoe UI, sans-serif" font-size="24" font-weight="700">15</text>
</svg>