<?xml version="1.0" encoding="UTF-8"?>
<svg width="768" height="1024" viewBox="0 0 768 1024" fill="none" xmlns="http://www.w3.org/2000/svg">
  <defs>
    <linearGradient id="bg-riftforged-sentinel-c29" x1="60" y1="40" x2="728" y2="1004" gradientUnits="userSpaceOnUse">
      <stop offset="0" stop-color="#0a1e3f"/>
      <stop offset="0.55" stop-color="#204f8a"/>
      <stop offset="1" stop-color="#0a1e3f"/>
    </linearGradient>
    <radialGradient id="glow-riftforged-sentinel-c29" cx="0" cy="0" r="1" gradientUnits="userSpaceOnUse" gradientTransform="translate(271.63 630.55) rotate(90) scale(299.50 299.50)">
      <stop stop-color="#2ee6ff" stop-opacity="0.45"/>
      <stop offset="1" stop-color="#2ee6ff" stop-opacity="0"/>
    </radialGradient>
    <linearGradient id="edge-riftforged-sentinel-c29" x1="0" y1="0" x2="768" y2="1024" gradientUnits="userSpaceOnUse">
      <stop stop-color="#2ee6ff" stop-opacity="0.85"/>
      <stop offset="1" stop-color="#d8fbff" stop-opacity="0.85"/>
    </linearGradient>
  </defs>

  <rect x="0" y="0" width="768" height="1024" rx="32" fill="#060910"/>
  <rect x="16" y="16" width="736" height="992" rx="24" fill="url(#bg-riftforged-sentinel-c29)"/>
  <rect x="16" y="16" width="736" height="992" rx="24" fill="url(#glow-riftforged-sentinel-c29)"/>

  <g opacity="0.88">
    <polygon points="384.00,327.68 543.63,419.84 543.63,604.16 384.00,696.32 224.37,604.16 224.37,419.84" fill="none" stroke="#2ee6ff" stroke-width="10" opacity="0.7"/>
<polygon points="384.00,327.68 543.63,419.84 543.63,604.16 384.00,696.32 224.37,604.16 224.37,419.84" fill="none" stroke="#d8fbff" stroke-width="3" opacity="0.95" transform="scale(0.78) translate(107.52000000000001,143.36)"/>
  </g>

  <g opacity="0.8">
    <circle cx="624.71" cy="135.68" r="3.33" fill="#d8fbff" opacity="0.43"/><circle cx="227.51" cy="691.52" r="3.63" fill="#2ee6ff" opacity="0.45"/><circle cx="313.15" cy="293.20" r="2.11" fill="#d8fbff" opacity="0.67"/><circle cx="734.61" cy="484.13" r="4.61" fill="#2ee6ff" opacity="0.65"/><circle cx="446.52" cy="853.21" r="2.57" fill="#d8fbff" opacity="0.56"/><circle cx="481.69" cy="392.05" r="1.80" fill="#2ee6ff" opacity="0.36"/><circle cx="368.06" cy="689.17" r="3.43" fill="#d8fbff" opacity="0.25"/><circle cx="150.67" cy="206.58" r="2.27" fill="#2ee6ff" opacity="0.61"/><circle cx="285.88" cy="409.18" r="1.70" fill="#d8fbff" opacity="0.70"/><circle cx="132.53" cy="898.93" r="1.83" fill="#2ee6ff" opacity="0.57"/><circle cx="172.29" cy="915.06" r="1.65" fill="#d8fbff" opacity="0.70"/><circle cx="52.37" cy="655.74" r="3.77" fill="#2ee6ff" opacity="0.70"/><circle cx="508.54" cy="558.20" r="4.97" fill="#d8fbff" opacity="0.34"/><circle cx="304.03" cy="355.12" r="1.23" fill="#2ee6ff" opacity="0.28"/><circle cx="669.82" cy="885.28" r="4.40" fill="#d8fbff" opacity="0.35"/><circle cx="169.80" cy="996.05" r="3.32" fill="#2ee6ff" opacity="0.47"/><circle cx="328.49" cy="618.50" r="4.07" fill="#d8fbff" opacity="0.47"/><circle cx="64.27" cy="51.43" r="1.72" fill="#2ee6ff" opacity="0.30"/><circle cx="39.96" cy="958.43" r="1.20" fill="#d8fbff" opacity="0.33"/><circle cx="422.64" cy="356.98" r="2.64" fill="#2ee6ff" opacity="0.43"/><circle cx="479.64" cy="267.71" r="4.95" fill="#d8fbff" opacity="0.62"/><circle cx="462.45" cy="499.82" r="3.01" fill="#2ee6ff" opacity="0.38"/><circle cx="108.20" cy="386.79" r="1.46" fill="#d8fbff" opacity="0.33"/><circle cx="719.53" cy="422.69" r="4.41" fill="#2ee6ff" opacity="0.31"/><circle cx="409.64" cy="241.26" r="3.91" fill="#d8fbff" opacity="0.62"/><circle cx="222.45" cy="812.50" r="2.00" fill="#2ee6ff" opacity="0.43"/><circle cx="699.70" cy="977.59" r="2.58" fill="#d8fbff" opacity="0.30"/><circle cx="743.04" cy="427.73" r="4.87" fill="#2ee6ff" opacity="0.34"/>
  </g>

  <rect x="16" y="16" width="736" height="992" rx="24" stroke="url(#edge-riftforged-sentinel-c29)" stroke-width="2.5" opacity="0.85"/>
  <rect x="22" y="22" width="724" height="980" rx="20" stroke="#8aa0c4" stroke-width="2" opacity="0.74"/>

  <rect x="34" y="34" width="700" height="72" rx="14" fill="#070b14" fill-opacity="0.72" stroke="#8aa0c4" stroke-opacity="0.55"/>
  <text x="54" y="80" fill="#EAF4FF" font-family="Exo 2, Segoe UI, sans-serif" font-size="32" font-weight="700">Riftforged Sentinel</text>

  <rect x="34" y="872" width="700" height="92" rx="14" fill="#070b14" fill-opacity="0.74" stroke="#8aa0c4" stroke-opacity="0.6"/>
  <text x="54" y="924" fill="#D9E7FF" font-family="Exo 2, Segoe UI, sans-serif" font-size="30" font-weight="600">Frontline Prime</text>

  <rect x="598" y="36" width="118" height="42" rx="10" fill="#8aa0c4" fill-opacity="0.2" stroke="#8aa0c4" stroke-opacity="0.8"/>
  <text x="612" y="65" fill="#8aa0c4" font-family="Exo 2, Segoe UI, sans-serif" font-size="20" font-weight="700">COMMON</text>

  <circle cx="708" cy="954" r="26" fill="#080d18" stroke="#8aa0c4" stroke-opacity="0.8"/>
  <text x="696" y="962" fill="#E7F2FF" font-family="Exo 2, Segoe UI, sans-serif" font-size="24" font-weight="700">29</text>
</svg>