<?xml version="1.0" encoding="UTF-8"?>
<svg width="768" height="1024" viewBox="0 0 768 1024" fill="none" xmlns="http://www.w3.org/2000/svg">
  <defs>
    <linearGradient id="bg-riftforged-sentinel-c24" x1="60" y1="40" x2="728" y2="1004" gradientUnits="userSpaceOnUse">
      <stop offset="0" stop-color="#0a1e3f"/>
      <stop offset="0.55" stop-color="#204f8a"/>
      <stop offset="1" stop-color="#0a1e3f"/>
    </linearGradient>
    <radialGradient id="glow-riftforged-sentinel-c24" cx="0" cy="0" r="1" gradientUnits="userSpaceOnUse" gradientTransform="translate(126.76 510.73) rotate(90) scale(193.24 193.24)">
      <stop stop-color="#2ee6ff" stop-opacity="0.45"/>
      <stop offset="1" stop-color="#2ee6ff" stop-opacity="0"/>
    </radialGradient>
    <linearGradient id="edge-riftforged-sentinel-c24" x1="0" y1="0" x2="768" y2="1024" gradientUnits="userSpaceOnUse">
      <stop stop-color="#2ee6ff" stop-opacity="0.85"/>
      <stop offset="1" stop-color="#d8fbff" stop-opacity="0.85"/>
    </linearGradient>
  </defs>

  <rect x="0" y="0" width="768" height="1024" rx="32" fill="#060910"/>
  <rect x="16" y="16" width="736" height="992" rx="24" fill="url(#bg-riftforged-sentinel-c24)"/>
  <rect x="16" y="16" width="736" height="992" rx="24" fill="url(#glow-riftforged-sentinel-c24)"/>

  <g opacity="0.88">
    <polygon points="384.00,327.68 543.63,419.84 543.63,604.16 384.00,696.32 224.37,604.16 224.37,419.84" fill="none" stroke="#2ee6ff" stroke-width="10" opacity="0.7"/>
<polygon points="384.00,327.68 543.63,419.84 543.63,604.16 384.00,696.32 224.37,604.16 224.37,419.84" fill="none" stroke="#d8fbff" stroke-width="3" opacity="0.95" transform="scale(0.78) translate(107.52000000000001,143.36)"/>
  </g>

  <g opacity="0.8">
    <circle cx="168.99" cy="935.56" r="3.04" fill="#d8fbff" opacity="0.34"/><circle cx="84.24" cy="727.16" r="2.26" fill="#2ee6ff" opacity="0.53"/><circle cx="565.98" cy="1021.42" r="2.59" fill="#d8fbff" opacity="0.49"/><circle cx="494.40" cy="58.62" r="3.98" fill="#2ee6ff" opacity="0.41"/><circle cx="213.07" cy="764.74" r="4.06" fill="#d8fbff" opacity="0.43"/><circle cx="161.58" cy="869.87" r="3.20" fill="#2ee6ff" opacity="0.45"/><circle cx="88.23" cy="556.26" r="3.51" fill="#d8fbff" opacity="0.45"/><circle cx="259.48" cy="273.34" r="2.23" fill="#2ee6ff" opacity="0.53"/><circle cx="722.70" cy="446.84" r="3.74" fill="#d8fbff" opacity="0.69"/><circle cx="153.22" cy="112.17" r="1.76" fill="#2ee6ff" opacity="0.46"/><circle cx="227.27" cy="676.12" r="3.89" fill="#d8fbff" opacity="0.63"/><circle cx="14.17" cy="900.50" r="2.48" fill="#2ee6ff" opacity="0.53"/><circle cx="317.56" cy="398.97" r="2.97" fill="#d8fbff" opacity="0.62"/><circle cx="106.95" cy="631.16" r="1.64" fill="#2ee6ff" opacity="0.44"/><circle cx="464.69" cy="308.06" r="1.77" fill="#d8fbff" opacity="0.25"/><circle cx="501.75" cy="858.39" r="4.32" fill="#2ee6ff" opacity="0.36"/><circle cx="525.24" cy="250.37" r="2.72" fill="#d8fbff" opacity="0.36"/><circle cx="664.63" cy="725.42" r="4.29" fill="#2ee6ff" opacity="0.37"/><circle cx="56.02" cy="856.10" r="1.92" fill="#d8fbff" opacity="0.40"/><circle cx="447.20" cy="319.19" r="4.63" fill="#2ee6ff" opacity="0.67"/><circle cx="633.54" cy="365.93" r="2.09" fill="#d8fbff" opacity="0.52"/><circle cx="354.37" cy="919.17" r="3.81" fill="#2ee6ff" opacity="0.43"/><circle cx="260.90" cy="315.32" r="2.16" fill="#d8fbff" opacity="0.59"/><circle cx="360.81" cy="453.61" r="3.45" fill="#2ee6ff" opacity="0.33"/><circle cx="480.75" cy="102.32" r="4.11" fill="#d8fbff" opacity="0.27"/><circle cx="672.20" cy="753.83" r="3.39" fill="#2ee6ff" opacity="0.51"/><circle cx="160.94" cy="349.31" r="1.81" fill="#d8fbff" opacity="0.31"/><circle cx="291.07" cy="713.85" r="1.81" fill="#2ee6ff" opacity="0.71"/>
  </g>

  <rect x="16" y="16" width="736" height="992" rx="24" stroke="url(#edge-riftforged-sentinel-c24)" stroke-width="2.5" opacity="0.85"/>
  <rect x="22" y="22" width="724" height="980" rx="20" stroke="#8aa0c4" stroke-width="2" opacity="0.74"/>

  <rect x="34" y="34" width="700" height="72" rx="14" fill="#070b14" fill-opacity="0.72" stroke="#8aa0c4" stroke-opacity="0.55"/>
  <text x="54" y="80" fill="#EAF4FF" font-family="Exo 2, Segoe UI, sans-serif" font-size="32" font-weight="700">Riftforged Sentinel</text>

  <rect x="34" y="872" width="700" height="92" rx="14" fill="#070b14" fill-opacity="0.74" stroke="#8aa0c4" stroke-opacity="0.6"/>
  <text x="54" y="924" fill="#D9E7FF" font-family="Exo 2, Segoe UI, sans-serif" font-size="30" font-weight="600">Construct Warden</text>

  <rect x="598" y="36" width="118" height="42" rx="10" fill="#8aa0c4" fill-opacity="0.2" stroke="#8aa0c4" stroke-opacity="0.8"/>
  <text x="612" y="65" fill="#8aa0c4" font-family="Exo 2, Segoe UI, sans-serif" font-size="20" font-weight="700">COMMON</text>

  <circle cx="708" cy="954" r="26" fill="#080d18" stroke="#8aa0c4" stroke-opacity="0.8"/>
  <text x="696" y="962" fill="#E7F2FF" font-family="Exo 2, Segoe UI, sans-serif" font-size="24" font-weight="700">24</text>
</svg>