<?xml version="1.0" encoding="UTF-8"?>
<svg width="768" height="1024" viewBox="0 0 768 1024" fill="none" xmlns="http://www.w3.org/2000/svg">
  <defs>
    <linearGradient id="bg-riftforged-sentinel-c14" x1="60" y1="40" x2="728" y2="1004" gradientUnits="userSpaceOnUse">
      <stop offset="0" stop-color="#0a1e3f"/>
      <stop offset="0.55" stop-color="#204f8a"/>
      <stop offset="1" stop-color="#0a1e3f"/>
    </linearGradient>
    <radialGradient id="glow-riftforged-sentinel-c14" cx="0" cy="0" r="1" gradientUnits="userSpaceOnUse" gradientTransform="translate(401.96 624.14) rotate(90) scale(297.58 297.58)">
      <stop stop-color="#2ee6ff" stop-opacity="0.45"/>
      <stop offset="1" stop-color="#2ee6ff" stop-opacity="0"/>
    </radialGradient>
    <linearGradient id="edge-riftforged-sentinel-c14" x1="0" y1="0" x2="768" y2="1024" gradientUnits="userSpaceOnUse">
      <stop stop-color="#2ee6ff" stop-opacity="0.85"/>
      <stop offset="1" stop-color="#d8fbff" stop-opacity="0.85"/>
    </linearGradient>
  </defs>

  <rect x="0" y="0" width="768" height="1024" rx="32" fill="#060910"/>
  <rect x="16" y="16" width="736" height="992" rx="24" fill="url(#bg-riftforged-sentinel-c14)"/>
  <rect x="16" y="16" width="736" height="992" rx="24" fill="url(#glow-riftforged-sentinel-c14)"/>

  <g opacity="0.88">
    <polygon points="384.00,327.68 543.63,419.84 543.63,604.16 384.00,696.32 224.37,604.16 224.37,419.84" fill="none" stroke="#2ee6ff" stroke-width="10" opacity="0.7"/>
<polygon points="384.00,327.68 543.63,419.84 543.63,604.16 384.00,696.32 224.37,604.16 224.37,419.84" fill="none" stroke="#d8fbff" stroke-width="3" opacity="0.95" transform="scale(0.78) translate(107.52000000000001,143.36)"/>
  </g>

  <g opacity="0.8">
    <circle cx="636.13" cy="732.98" r="4.97" fill="#d8fbff" opacity="0.64"/><circle cx="664.45" cy="1012.94" r="3.23" fill="#2ee6ff" opacity="0.67"/><circle cx="308.29" cy="654.77" r="2.26" fill="#d8fbff" opacity="0.35"/><circle cx="181.60" cy="185.11" r="2.76" fill="#2ee6ff" opacity="0.34"/><circle cx="543.04" cy="288.30" r="4.42" fill="#d8fbff" opacity="0.69"/><circle cx="538.49" cy="115.45" r="4.67" fill="#2ee6ff" opacity="0.53"/><circle cx="683.01" cy="837.24" r="4.03" fill="#d8fbff" opacity="0.40"/><circle cx="750.09" cy="767.18" r="1.32" fill="#2ee6ff" opacity="0.44"/><circle cx="92.48" cy="19.02" r="1.82" fill="#d8fbff" opacity="0.36"/><circle cx="653.33" cy="351.46" r="2.94" fill="#2ee6ff" opacity="0.49"/><circle cx="698.66" cy="395.83" r="2.31" fill="#d8fbff" opacity="0.61"/><circle cx="123.90" cy="943.37" r="3.63" fill="#2ee6ff" opacity="0.29"/><circle cx="54.17" cy="481.36" r="3.13" fill="#d8fbff" opacity="0.70"/><circle cx="398.00" cy="116.16" r="4.81" fill="#2ee6ff" opacity="0.70"/><circle cx="263.20" cy="321.99" r="1.26" fill="#d8fbff" opacity="0.47"/><circle cx="8.34" cy="803.41" r="1.81" fill="#2ee6ff" opacity="0.26"/><circle cx="45.79" cy="142.64" r="3.23" fill="#d8fbff" opacity="0.31"/><circle cx="195.07" cy="922.49" r="1.79" fill="#2ee6ff" opacity="0.27"/><circle cx="530.53" cy="852.52" r="2.22" fill="#d8fbff" opacity="0.38"/><circle cx="738.09" cy="150.17" r="1.70" fill="#2ee6ff" opacity="0.58"/><circle cx="543.38" cy="551.32" r="2.01" fill="#d8fbff" opacity="0.47"/><circle cx="378.07" cy="463.27" r="3.37" fill="#2ee6ff" opacity="0.31"/><circle cx="8.46" cy="615.13" r="1.75" fill="#d8fbff" opacity="0.38"/><circle cx="170.66" cy="926.77" r="4.93" fill="#2ee6ff" opacity="0.56"/><circle cx="159.52" cy="74.16" r="2.14" fill="#d8fbff" opacity="0.25"/><circle cx="194.58" cy="830.22" r="1.56" fill="#2ee6ff" opacity="0.61"/><circle cx="600.98" cy="847.44" r="2.43" fill="#d8fbff" opacity="0.40"/><circle cx="29.32" cy="156.77" r="2.05" fill="#2ee6ff" opacity="0.24"/>
  </g>

  <rect x="16" y="16" width="736" height="992" rx="24" stroke="url(#edge-riftforged-sentinel-c14)" stroke-width="2.5" opacity="0.85"/>
  <rect x="22" y="22" width="724" height="980" rx="20" stroke="#8aa0c4" stroke-width="2" opacity="0.74"/>

  <rect x="34" y="34" width="700" height="72" rx="14" fill="#070b14" fill-opacity="0.72" stroke="#8aa0c4" stroke-opacity="0.55"/>
  <text x="54" y="80" fill="#EAF4FF" font-family="Exo 2, Segoe UI, sans-serif" font-size="32" font-weight="700">Riftforged Sentinel</text>

  <rect x="34" y="872" width="700" height="92" rx="14" fill="#070b14" fill-opacity="0.74" stroke="#8aa0c4" stroke-opacity="0.6"/>
  <text x="54" y="924" fill="#D9E7FF" font-family="Exo 2, Segoe UI, sans-serif" font-size="30" font-weight="600">Siegebreaker</text>

  <rect x="598" y="36" width="118" height="42" rx="10" fill="#8aa0c4" fill-opacity="0.2" stroke="#8aa0c4" stroke-opacity="0.8"/>
  <text x="612" y="65" fill="#8aa0c4" font-family="Exo 2, Segoe UI, sans-serif" font-size="20" font-weight="700">COMMON</text>

  <circle cx="708" cy="954" r="26" fill="#080d18" stroke="#8aa0c4" stroke-opacity="0.8"/>
  <text x="696" y="962" fill="#E7F2FF" font-family="Exo 2, Segoe UI, sans-serif" font-size="24" font-weight="700">14</text>
</svg>