<?xml version="1.0" encoding="UTF-8"?>
<svg width="768" height="1024" viewBox="0 0 768 1024" fill="none" xmlns="http://www.w3.org/2000/svg">
  <defs>
    <linearGradient id="bg-riftforged-sentinel-c13" x1="60" y1="40" x2="728" y2="1004" gradientUnits="userSpaceOnUse">
      <stop offset="0" stop-color="#0a1e3f"/>
      <stop offset="0.55" stop-color="#204f8a"/>
      <stop offset="1" stop-color="#0a1e3f"/>
    </linearGradient>
    <radialGradient id="glow-riftforged-sentinel-c13" cx="0" cy="0" r="1" gradientUnits="userSpaceOnUse" gradientTransform="translate(155.20 529.62) rotate(90) scale(200.85 200.85)">
      <stop stop-color="#2ee6ff" stop-opacity="0.45"/>
      <stop offset="1" stop-color="#2ee6ff" stop-opacity="0"/>
    </radialGradient>
    <linearGradient id="edge-riftforged-sentinel-c13" x1="0" y1="0" x2="768" y2="1024" gradientUnits="userSpaceOnUse">
      <stop stop-color="#2ee6ff" stop-opacity="0.85"/>
      <stop offset="1" stop-color="#d8fbff" stop-opacity="0.85"/>
    </linearGradient>
  </defs>

  <rect x="0" y="0" width="768" height="1024" rx="32" fill="#060910"/>
  <rect x="16" y="16" width="736" height="992" rx="24" fill="url(#bg-riftforged-sentinel-c13)"/>
  <rect x="16" y="16" width="736" height="992" rx="24" fill="url(#glow-riftforged-sentinel-c13)"/>

  <g opacity="0.88">
    <polygon points="384.00,327.68 543.63,419.84 543.63,604.16 384.00,696.32 224.37,604.16 224.37,419.84" fill="none" stroke="#2ee6ff" stroke-width="10" opacity="0.7"/>
<polygon points="384.00,327.68 543.63,419.84 543.63,604.16 384.00,696.32 224.37,604.16 224.37,419.84" fill="none" stroke="#d8fbff" stroke-width="3" opacity="0.95" transform="scale(0.78) translate(107.52000000000001,143.36)"/>
  </g>

  <g opacity="0.8">
    <circle cx="146.84" cy="546.86" r="1.47" fill="#d8fbff" opacity="0.73"/><circle cx="50.73" cy="253.74" r="3.47" fill="#2ee6ff" opacity="0.73"/><circle cx="557.21" cy="668.12" r="2.90" fill="#d8fbff" opacity="0.47"/><circle cx="725.96" cy="309.64" r="2.71" fill="#2ee6ff" opacity="0.56"/><circle cx="88.70" cy="605.48" r="4.30" fill="#d8fbff" opacity="0.50"/><circle cx="617.89" cy="144.14" r="1.28" fill="#2ee6ff" opacity="0.68"/><circle cx="739.49" cy="558.71" r="2.12" fill="#d8fbff" opacity="0.58"/><circle cx="684.67" cy="1023.80" r="3.63" fill="#2ee6ff" opacity="0.43"/><circle cx="646.97" cy="198.16" r="4.37" fill="#d8fbff" opacity="0.66"/><circle cx="433.75" cy="823.57" r="4.12" fill="#2ee6ff" opacity="0.41"/><circle cx="617.73" cy="562.10" r="2.02" fill="#d8fbff" opacity="0.72"/><circle cx="219.09" cy="1020.76" r="3.01" fill="#2ee6ff" opacity="0.24"/><circle cx="482.50" cy="627.35" r="4.96" fill="#d8fbff" opacity="0.65"/><circle cx="758.64" cy="319.74" r="3.17" fill="#2ee6ff" opacity="0.40"/><circle cx="449.23" cy="108.78" r="3.67" fill="#d8fbff" opacity="0.36"/><circle cx="509.98" cy="873.59" r="2.02" fill="#2ee6ff" opacity="0.53"/><circle cx="76.16" cy="995.09" r="2.85" fill="#d8fbff" opacity="0.51"/><circle cx="713.93" cy="394.35" r="2.19" fill="#2ee6ff" opacity="0.48"/><circle cx="197.09" cy="333.54" r="3.65" fill="#d8fbff" opacity="0.65"/><circle cx="709.64" cy="673.65" r="3.38" fill="#2ee6ff" opacity="0.49"/><circle cx="264.81" cy="162.74" r="2.28" fill="#d8fbff" opacity="0.32"/><circle cx="325.56" cy="689.67" r="1.86" fill="#2ee6ff" opacity="0.73"/><circle cx="599.05" cy="626.20" r="3.60" fill="#d8fbff" opacity="0.61"/><circle cx="215.42" cy="383.16" r="3.03" fill="#2ee6ff" opacity="0.32"/><circle cx="146.92" cy="361.19" r="2.27" fill="#d8fbff" opacity="0.61"/><circle cx="168.19" cy="653.54" r="2.31" fill="#2ee6ff" opacity="0.55"/><circle cx="297.02" cy="323.59" r="3.66" fill="#d8fbff" opacity="0.71"/><circle cx="653.10" cy="776.29" r="3.07" fill="#2ee6ff" opacity="0.42"/>
  </g>

  <rect x="16" y="16" width="736" height="992" rx="24" stroke="url(#edge-riftforged-sentinel-c13)" stroke-width="2.5" opacity="0.85"/>
  <rect x="22" y="22" width="724" height="980" rx="20" stroke="#8aa0c4" stroke-width="2" opacity="0.74"/>

  <rect x="34" y="34" width="700" height="72" rx="14" fill="#070b14" fill-opacity="0.72" stroke="#8aa0c4" stroke-opacity="0.55"/>
  <text x="54" y="80" fill="#EAF4FF" font-family="Exo 2, Segoe UI, sans-serif" font-size="32" font-weight="700">Riftforged Sentinel</text>

  <rect x="34" y="872" width="700" height="92" rx="14" fill="#070b14" fill-opacity="0.74" stroke="#8aa0c4" stroke-opacity="0.6"/>
  <text x="54" y="924" fill="#D9E7FF" font-family="Exo 2, Segoe UI, sans-serif" font-size="30" font-weight="600">Ambusher</text>

  <rect x="598" y="36" width="118" height="42" rx="10" fill="#8aa0c4" fill-opacity="0.2" stroke="#8aa0c4" stroke-opacity="0.8"/>
  <text x="612" y="65" fill="#8aa0c4" font-family="Exo 2, Segoe UI, sans-serif" font-size="20" font-weight="700">COMMON</text>

  <circle cx="708" cy="954" r="26" fill="#080d18" stroke="#8aa0c4" stroke-opacity="0.8"/>
  <text x="696" y="962" fill="#E7F2FF" font-family="Exo 2, Segoe UI, sans-serif" font-size="24" font-weight="700">13</text>
</svg>