<?xml version="1.0" encoding="UTF-8"?>
<svg width="768" height="1024" viewBox="0 0 768 1024" fill="none" xmlns="http://www.w3.org/2000/svg">
  <defs>
    <linearGradient id="bg-riftforged-sentinel-c07" x1="60" y1="40" x2="728" y2="1004" gradientUnits="userSpaceOnUse">
      <stop offset="0" stop-color="#0a1e3f"/>
      <stop offset="0.55" stop-color="#204f8a"/>
      <stop offset="1" stop-color="#0a1e3f"/>
    </linearGradient>
    <radialGradient id="glow-riftforged-sentinel-c07" cx="0" cy="0" r="1" gradientUnits="userSpaceOnUse" gradientTransform="translate(474.74 544.15) rotate(90) scale(195.90 195.90)">
      <stop stop-color="#2ee6ff" stop-opacity="0.45"/>
      <stop offset="1" stop-color="#2ee6ff" stop-opacity="0"/>
    </radialGradient>
    <linearGradient id="edge-riftforged-sentinel-c07" x1="0" y1="0" x2="768" y2="1024" gradientUnits="userSpaceOnUse">
      <stop stop-color="#2ee6ff" stop-opacity="0.85"/>
      <stop offset="1" stop-color="#d8fbff" stop-opacity="0.85"/>
    </linearGradient>
  </defs>

  <rect x="0" y="0" width="768" height="1024" rx="32" fill="#060910"/>
  <rect x="16" y="16" width="736" height="992" rx="24" fill="url(#bg-riftforged-sentinel-c07)"/>
  <rect x="16" y="16" width="736" height="992" rx="24" fill="url(#glow-riftforged-sentinel-c07)"/>

  <g opacity="0.88">
    <polygon points="384.00,327.68 543.63,419.84 543.63,604.16 384.00,696.32 224.37,604.16 224.37,419.84" fill="none" stroke="#2ee6ff" stroke-width="10" opacity="0.7"/>
<polygon points="384.00,327.68 543.63,419.84 543.63,604.16 384.00,696.32 224.37,604.16 224.37,419.84" fill="none" stroke="#d8fbff" stroke-width="3" opacity="0.95" transform="scale(0.78) translate(107.52000000000001,143.36)"/>
  </g>

  <g opacity="0.8">
    <circle cx="549.98" cy="598.67" r="3.10" fill="#d8fbff" opacity="0.52"/><circle cx="508.16" cy="10.87" r="4.12" fill="#2ee6ff" opacity="0.51"/><circle cx="70.73" cy="941.72" r="2.56" fill="#d8fbff" opacity="0.31"/><circle cx="443.80" cy="385.60" r="1.85" fill="#2ee6ff" opacity="0.35"/><circle cx="766.38" cy="940.92" r="1.28" fill="#d8fbff" opacity="0.69"/><circle cx="129.66" cy="17.44" r="3.24" fill="#2ee6ff" opacity="0.53"/><circle cx="252.79" cy="83.90" r="4.59" fill="#d8fbff" opacity="0.69"/><circle cx="628.78" cy="84.20" r="3.51" fill="#2ee6ff" opacity="0.65"/><circle cx="649.01" cy="819.36" r="2.21" fill="#d8fbff" opacity="0.40"/><circle cx="136.05" cy="735.97" r="4.18" fill="#2ee6ff" opacity="0.25"/><circle cx="285.07" cy="110.53" r="2.23" fill="#d8fbff" opacity="0.51"/><circle cx="591.24" cy="926.61" r="4.80" fill="#2ee6ff" opacity="0.74"/><circle cx="91.30" cy="672.18" r="1.81" fill="#d8fbff" opacity="0.72"/><circle cx="501.92" cy="993.50" r="4.59" fill="#2ee6ff" opacity="0.31"/><circle cx="85.12" cy="888.25" r="3.60" fill="#d8fbff" opacity="0.29"/><circle cx="514.96" cy="69.23" r="3.99" fill="#2ee6ff" opacity="0.52"/><circle cx="449.21" cy="546.52" r="1.79" fill="#d8fbff" opacity="0.39"/><circle cx="633.77" cy="825.30" r="4.57" fill="#2ee6ff" opacity="0.32"/><circle cx="371.58" cy="576.12" r="4.59" fill="#d8fbff" opacity="0.73"/><circle cx="449.42" cy="836.09" r="2.61" fill="#2ee6ff" opacity="0.34"/><circle cx="10.12" cy="774.02" r="3.61" fill="#d8fbff" opacity="0.60"/><circle cx="389.43" cy="711.43" r="1.44" fill="#2ee6ff" opacity="0.32"/><circle cx="667.07" cy="635.30" r="2.25" fill="#d8fbff" opacity="0.33"/><circle cx="655.98" cy="658.88" r="2.69" fill="#2ee6ff" opacity="0.45"/><circle cx="706.09" cy="772.44" r="2.88" fill="#d8fbff" opacity="0.29"/><circle cx="596.27" cy="147.22" r="4.58" fill="#2ee6ff" opacity="0.67"/><circle cx="569.59" cy="90.96" r="4.52" fill="#d8fbff" opacity="0.53"/><circle cx="322.08" cy="769.92" r="3.96" fill="#2ee6ff" opacity="0.62"/>
  </g>

  <rect x="16" y="16" width="736" height="992" rx="24" stroke="url(#edge-riftforged-sentinel-c07)" stroke-width="2.5" opacity="0.85"/>
  <rect x="22" y="22" width="724" height="980" rx="20" stroke="#8aa0c4" stroke-width="2" opacity="0.74"/>

  <rect x="34" y="34" width="700" height="72" rx="14" fill="#070b14" fill-opacity="0.72" stroke="#8aa0c4" stroke-opacity="0.55"/>
  <text x="54" y="80" fill="#EAF4FF" font-family="Exo 2, Segoe UI, sans-serif" font-size="32" font-weight="700">Riftforged Sentinel</text>

  <rect x="34" y="872" width="700" height="92" rx="14" fill="#070b14" fill-opacity="0.74" stroke="#8aa0c4" stroke-opacity="0.6"/>
  <text x="54" y="924" fill="#D9E7FF" font-family="Exo 2, Segoe UI, sans-serif" font-size="30" font-weight="600">Medic</text>

  <rect x="598" y="36" width="118" height="42" rx="10" fill="#8aa0c4" fill-opacity="0.2" stroke="#8aa0c4" stroke-opacity="0.8"/>
  <text x="612" y="65" fill="#8aa0c4" font-family="Exo 2, Segoe UI, sans-serif" font-size="20" font-weight="700">COMMON</text>

  <circle cx="708" cy="954" r="26" fill="#080d18" stroke="#8aa0c4" stroke-opacity="0.8"/>
  <text x="696" y="962" fill="#E7F2FF" font-family="Exo 2, Segoe UI, sans-serif" font-size="24" font-weight="700">07</text>
</svg>