<?xml version="1.0" encoding="UTF-8"?>
<svg width="768" height="1024" viewBox="0 0 768 1024" fill="none" xmlns="http://www.w3.org/2000/svg">
  <defs>
    <linearGradient id="bg-riftforged-sentinel-c22" x1="60" y1="40" x2="728" y2="1004" gradientUnits="userSpaceOnUse">
      <stop offset="0" stop-color="#0a1e3f"/>
      <stop offset="0.55" stop-color="#204f8a"/>
      <stop offset="1" stop-color="#0a1e3f"/>
    </linearGradient>
    <radialGradient id="glow-riftforged-sentinel-c22" cx="0" cy="0" r="1" gradientUnits="userSpaceOnUse" gradientTransform="translate(202.13 361.89) rotate(90) scale(282.35 282.35)">
      <stop stop-color="#2ee6ff" stop-opacity="0.45"/>
      <stop offset="1" stop-color="#2ee6ff" stop-opacity="0"/>
    </radialGradient>
    <linearGradient id="edge-riftforged-sentinel-c22" x1="0" y1="0" x2="768" y2="1024" gradientUnits="userSpaceOnUse">
      <stop stop-color="#2ee6ff" stop-opacity="0.85"/>
      <stop offset="1" stop-color="#d8fbff" stop-opacity="0.85"/>
    </linearGradient>
  </defs>

  <rect x="0" y="0" width="768" height="1024" rx="32" fill="#060910"/>
  <rect x="16" y="16" width="736" height="992" rx="24" fill="url(#bg-riftforged-sentinel-c22)"/>
  <rect x="16" y="16" width="736" height="992" rx="24" fill="url(#glow-riftforged-sentinel-c22)"/>

  <g opacity="0.88">
    <polygon points="384.00,327.68 543.63,419.84 543.63,604.16 384.00,696.32 224.37,604.16 224.37,419.84" fill="none" stroke="#2ee6ff" stroke-width="10" opacity="0.7"/>
<polygon points="384.00,327.68 543.63,419.84 543.63,604.16 384.00,696.32 224.37,604.16 224.37,419.84" fill="none" stroke="#d8fbff" stroke-width="3" opacity="0.95" transform="scale(0.78) translate(107.52000000000001,143.36)"/>
  </g>

  <g opacity="0.8">
    <circle cx="52.79" cy="356.33" r="2.60" fill="#d8fbff" opacity="0.73"/><circle cx="561.97" cy="175.77" r="1.94" fill="#2ee6ff" opacity="0.69"/><circle cx="707.66" cy="88.77" r="2.12" fill="#d8fbff" opacity="0.25"/><circle cx="574.10" cy="48.14" r="3.51" fill="#2ee6ff" opacity="0.30"/><circle cx="580.96" cy="783.86" r="1.25" fill="#d8fbff" opacity="0.72"/><circle cx="468.66" cy="264.86" r="4.99" fill="#2ee6ff" opacity="0.48"/><circle cx="581.60" cy="753.32" r="4.45" fill="#d8fbff" opacity="0.64"/><circle cx="241.02" cy="224.31" r="2.90" fill="#2ee6ff" opacity="0.51"/><circle cx="64.62" cy="933.74" r="4.64" fill="#d8fbff" opacity="0.47"/><circle cx="706.72" cy="578.03" r="4.22" fill="#2ee6ff" opacity="0.44"/><circle cx="226.21" cy="558.70" r="4.22" fill="#d8fbff" opacity="0.44"/><circle cx="148.31" cy="944.01" r="3.43" fill="#2ee6ff" opacity="0.28"/><circle cx="139.90" cy="994.65" r="4.75" fill="#d8fbff" opacity="0.60"/><circle cx="305.15" cy="525.17" r="2.43" fill="#2ee6ff" opacity="0.39"/><circle cx="61.46" cy="567.97" r="4.56" fill="#d8fbff" opacity="0.45"/><circle cx="31.32" cy="801.51" r="2.23" fill="#2ee6ff" opacity="0.63"/><circle cx="130.16" cy="4.13" r="3.97" fill="#d8fbff" opacity="0.46"/><circle cx="451.00" cy="457.67" r="1.35" fill="#2ee6ff" opacity="0.50"/><circle cx="492.24" cy="593.21" r="2.95" fill="#d8fbff" opacity="0.71"/><circle cx="351.22" cy="853.77" r="2.36" fill="#2ee6ff" opacity="0.61"/><circle cx="682.34" cy="287.42" r="4.07" fill="#d8fbff" opacity="0.28"/><circle cx="177.12" cy="168.47" r="1.38" fill="#2ee6ff" opacity="0.54"/><circle cx="598.73" cy="997.31" r="4.36" fill="#d8fbff" opacity="0.33"/><circle cx="488.74" cy="609.09" r="3.59" fill="#2ee6ff" opacity="0.38"/><circle cx="763.27" cy="106.01" r="3.63" fill="#d8fbff" opacity="0.39"/><circle cx="318.07" cy="874.87" r="3.65" fill="#2ee6ff" opacity="0.35"/><circle cx="589.80" cy="460.93" r="3.04" fill="#d8fbff" opacity="0.64"/><circle cx="224.17" cy="245.62" r="4.95" fill="#2ee6ff" opacity="0.34"/>
  </g>

  <rect x="16" y="16" width="736" height="992" rx="24" stroke="url(#edge-riftforged-sentinel-c22)" stroke-width="2.5" opacity="0.85"/>
  <rect x="22" y="22" width="724" height="980" rx="20" stroke="#8aa0c4" stroke-width="2" opacity="0.74"/>

  <rect x="34" y="34" width="700" height="72" rx="14" fill="#070b14" fill-opacity="0.72" stroke="#8aa0c4" stroke-opacity="0.55"/>
  <text x="54" y="80" fill="#EAF4FF" font-family="Exo 2, Segoe UI, sans-serif" font-size="32" font-weight="700">Riftforged Sentinel</text>

  <rect x="34" y="872" width="700" height="92" rx="14" fill="#070b14" fill-opacity="0.74" stroke="#8aa0c4" stroke-opacity="0.6"/>
  <text x="54" y="924" fill="#D9E7FF" font-family="Exo 2, Segoe UI, sans-serif" font-size="30" font-weight="600">Trapwright</text>

  <rect x="598" y="36" width="118" height="42" rx="10" fill="#8aa0c4" fill-opacity="0.2" stroke="#8aa0c4" stroke-opacity="0.8"/>
  <text x="612" y="65" fill="#8aa0c4" font-family="Exo 2, Segoe UI, sans-serif" font-size="20" font-weight="700">COMMON</text>

  <circle cx="708" cy="954" r="26" fill="#080d18" stroke="#8aa0c4" stroke-opacity="0.8"/>
  <text x="696" y="962" fill="#E7F2FF" font-family="Exo 2, Segoe UI, sans-serif" font-size="24" font-weight="700">22</text>
</svg>