<?xml version="1.0" encoding="UTF-8"?>
<svg width="768" height="1024" viewBox="0 0 768 1024" fill="none" xmlns="http://www.w3.org/2000/svg">
  <defs>
    <linearGradient id="bg-riftforged-sentinel-c38" x1="60" y1="40" x2="728" y2="1004" gradientUnits="userSpaceOnUse">
      <stop offset="0" stop-color="#0a1e3f"/>
      <stop offset="0.55" stop-color="#204f8a"/>
      <stop offset="1" stop-color="#0a1e3f"/>
    </linearGradient>
    <radialGradient id="glow-riftforged-sentinel-c38" cx="0" cy="0" r="1" gradientUnits="userSpaceOnUse" gradientTransform="translate(459.47 588.21) rotate(90) scale(206.35 206.35)">
      <stop stop-color="#2ee6ff" stop-opacity="0.45"/>
      <stop offset="1" stop-color="#2ee6ff" stop-opacity="0"/>
    </radialGradient>
    <linearGradient id="edge-riftforged-sentinel-c38" x1="0" y1="0" x2="768" y2="1024" gradientUnits="userSpaceOnUse">
      <stop stop-color="#2ee6ff" stop-opacity="0.85"/>
      <stop offset="1" stop-color="#d8fbff" stop-opacity="0.85"/>
    </linearGradient>
  </defs>

  <rect x="0" y="0" width="768" height="1024" rx="32" fill="#060910"/>
  <rect x="16" y="16" width="736" height="992" rx="24" fill="url(#bg-riftforged-sentinel-c38)"/>
  <rect x="16" y="16" width="736" height="992" rx="24" fill="url(#glow-riftforged-sentinel-c38)"/>

  <g opacity="0.88">
    <polygon points="384.00,327.68 543.63,419.84 543.63,604.16 384.00,696.32 224.37,604.16 224.37,419.84" fill="none" stroke="#2ee6ff" stroke-width="10" opacity="0.7"/>
<polygon points="384.00,327.68 543.63,419.84 543.63,604.16 384.00,696.32 224.37,604.16 224.37,419.84" fill="none" stroke="#d8fbff" stroke-width="3" opacity="0.95" transform="scale(0.78) translate(107.52000000000001,143.36)"/>
  </g>

  <g opacity="0.8">
    <circle cx="612.19" cy="700.04" r="1.94" fill="#d8fbff" opacity="0.27"/><circle cx="201.47" cy="70.25" r="1.65" fill="#2ee6ff" opacity="0.68"/><circle cx="281.89" cy="680.93" r="2.71" fill="#d8fbff" opacity="0.71"/><circle cx="716.83" cy="665.96" r="2.38" fill="#2ee6ff" opacity="0.41"/><circle cx="729.04" cy="514.82" r="3.30" fill="#d8fbff" opacity="0.25"/><circle cx="84.33" cy="752.34" r="4.30" fill="#2ee6ff" opacity="0.39"/><circle cx="539.54" cy="445.45" r="1.86" fill="#d8fbff" opacity="0.49"/><circle cx="612.38" cy="387.16" r="1.54" fill="#2ee6ff" opacity="0.55"/><circle cx="265.76" cy="112.44" r="1.21" fill="#d8fbff" opacity="0.68"/><circle cx="627.63" cy="1004.28" r="2.18" fill="#2ee6ff" opacity="0.25"/><circle cx="669.54" cy="357.17" r="4.34" fill="#d8fbff" opacity="0.28"/><circle cx="85.22" cy="600.19" r="2.50" fill="#2ee6ff" opacity="0.57"/><circle cx="357.61" cy="234.03" r="4.96" fill="#d8fbff" opacity="0.48"/><circle cx="144.29" cy="36.82" r="4.26" fill="#2ee6ff" opacity="0.28"/><circle cx="99.58" cy="733.00" r="4.53" fill="#d8fbff" opacity="0.37"/><circle cx="543.19" cy="763.36" r="1.80" fill="#2ee6ff" opacity="0.66"/><circle cx="620.19" cy="871.48" r="1.78" fill="#d8fbff" opacity="0.66"/><circle cx="177.65" cy="864.73" r="2.13" fill="#2ee6ff" opacity="0.59"/><circle cx="195.19" cy="304.25" r="2.77" fill="#d8fbff" opacity="0.55"/><circle cx="287.65" cy="910.70" r="1.47" fill="#2ee6ff" opacity="0.34"/><circle cx="409.36" cy="584.99" r="3.92" fill="#d8fbff" opacity="0.70"/><circle cx="595.11" cy="888.50" r="4.86" fill="#2ee6ff" opacity="0.46"/><circle cx="241.38" cy="536.62" r="3.18" fill="#d8fbff" opacity="0.56"/><circle cx="224.42" cy="53.14" r="2.32" fill="#2ee6ff" opacity="0.54"/><circle cx="274.61" cy="540.19" r="4.24" fill="#d8fbff" opacity="0.25"/><circle cx="106.63" cy="948.81" r="3.62" fill="#2ee6ff" opacity="0.44"/><circle cx="23.38" cy="953.36" r="1.22" fill="#d8fbff" opacity="0.36"/><circle cx="296.94" cy="540.87" r="2.05" fill="#2ee6ff" opacity="0.55"/>
  </g>

  <rect x="16" y="16" width="736" height="992" rx="24" stroke="url(#edge-riftforged-sentinel-c38)" stroke-width="2.5" opacity="0.85"/>
  <rect x="22" y="22" width="724" height="980" rx="20" stroke="#78d8ff" stroke-width="2" opacity="0.74"/>

  <rect x="34" y="34" width="700" height="72" rx="14" fill="#070b14" fill-opacity="0.72" stroke="#78d8ff" stroke-opacity="0.55"/>
  <text x="54" y="80" fill="#EAF4FF" font-family="Exo 2, Segoe UI, sans-serif" font-size="32" font-weight="700">Riftforged Sentinel</text>

  <rect x="34" y="872" width="700" height="92" rx="14" fill="#070b14" fill-opacity="0.74" stroke="#78d8ff" stroke-opacity="0.6"/>
  <text x="54" y="924" fill="#D9E7FF" font-family="Exo 2, Segoe UI, sans-serif" font-size="30" font-weight="600">Reposition</text>

  <rect x="598" y="36" width="118" height="42" rx="10" fill="#78d8ff" fill-opacity="0.2" stroke="#78d8ff" stroke-opacity="0.8"/>
  <text x="612" y="65" fill="#78d8ff" font-family="Exo 2, Segoe UI, sans-serif" font-size="20" font-weight="700">RARE</text>

  <circle cx="708" cy="954" r="26" fill="#080d18" stroke="#78d8ff" stroke-opacity="0.8"/>
  <text x="696" y="962" fill="#E7F2FF" font-family="Exo 2, Segoe UI, sans-serif" font-size="24" font-weight="700">38</text>
</svg>