<?xml version="1.0" encoding="UTF-8"?>
<svg width="768" height="1024" viewBox="0 0 768 1024" fill="none" xmlns="http://www.w3.org/2000/svg">
  <defs>
    <linearGradient id="bg-riftforged-sentinel-c50" x1="60" y1="40" x2="728" y2="1004" gradientUnits="userSpaceOnUse">
      <stop offset="0" stop-color="#0a1e3f"/>
      <stop offset="0.55" stop-color="#204f8a"/>
      <stop offset="1" stop-color="#0a1e3f"/>
    </linearGradient>
    <radialGradient id="glow-riftforged-sentinel-c50" cx="0" cy="0" r="1" gradientUnits="userSpaceOnUse" gradientTransform="translate(211.72 465.85) rotate(90) scale(183.94 183.94)">
      <stop stop-color="#2ee6ff" stop-opacity="0.45"/>
      <stop offset="1" stop-color="#2ee6ff" stop-opacity="0"/>
    </radialGradient>
    <linearGradient id="edge-riftforged-sentinel-c50" x1="0" y1="0" x2="768" y2="1024" gradientUnits="userSpaceOnUse">
      <stop stop-color="#2ee6ff" stop-opacity="0.85"/>
      <stop offset="1" stop-color="#d8fbff" stop-opacity="0.85"/>
    </linearGradient>
  </defs>

  <rect x="0" y="0" width="768" height="1024" rx="32" fill="#060910"/>
  <rect x="16" y="16" width="736" height="992" rx="24" fill="url(#bg-riftforged-sentinel-c50)"/>
  <rect x="16" y="16" width="736" height="992" rx="24" fill="url(#glow-riftforged-sentinel-c50)"/>

  <g opacity="0.88">
    <polygon points="384.00,327.68 543.63,419.84 543.63,604.16 384.00,696.32 224.37,604.16 224.37,419.84" fill="none" stroke="#2ee6ff" stroke-width="10" opacity="0.7"/>
<polygon points="384.00,327.68 543.63,419.84 543.63,604.16 384.00,696.32 224.37,604.16 224.37,419.84" fill="none" stroke="#d8fbff" stroke-width="3" opacity="0.95" transform="scale(0.78) translate(107.52000000000001,143.36)"/>
  </g>

  <g opacity="0.8">
    <circle cx="490.83" cy="709.55" r="4.69" fill="#d8fbff" opacity="0.40"/><circle cx="435.73" cy="861.15" r="1.41" fill="#2ee6ff" opacity="0.29"/><circle cx="29.32" cy="548.92" r="3.53" fill="#d8fbff" opacity="0.27"/><circle cx="682.99" cy="328.09" r="2.03" fill="#2ee6ff" opacity="0.39"/><circle cx="55.00" cy="644.37" r="2.84" fill="#d8fbff" opacity="0.37"/><circle cx="308.60" cy="1004.95" r="3.60" fill="#2ee6ff" opacity="0.60"/><circle cx="615.22" cy="1016.89" r="2.35" fill="#d8fbff" opacity="0.56"/><circle cx="665.09" cy="46.28" r="3.57" fill="#2ee6ff" opacity="0.32"/><circle cx="319.26" cy="118.41" r="2.10" fill="#d8fbff" opacity="0.50"/><circle cx="359.06" cy="505.16" r="2.60" fill="#2ee6ff" opacity="0.26"/><circle cx="338.64" cy="144.71" r="3.10" fill="#d8fbff" opacity="0.38"/><circle cx="720.73" cy="102.65" r="4.31" fill="#2ee6ff" opacity="0.35"/><circle cx="113.61" cy="76.77" r="4.85" fill="#d8fbff" opacity="0.62"/><circle cx="575.48" cy="401.67" r="2.01" fill="#2ee6ff" opacity="0.36"/><circle cx="469.83" cy="414.19" r="1.38" fill="#d8fbff" opacity="0.36"/><circle cx="1.21" cy="192.88" r="1.49" fill="#2ee6ff" opacity="0.42"/><circle cx="156.62" cy="443.00" r="3.49" fill="#d8fbff" opacity="0.52"/><circle cx="479.36" cy="126.29" r="4.31" fill="#2ee6ff" opacity="0.44"/><circle cx="126.07" cy="271.96" r="4.32" fill="#d8fbff" opacity="0.39"/><circle cx="60.41" cy="504.48" r="2.57" fill="#2ee6ff" opacity="0.39"/><circle cx="609.13" cy="914.03" r="1.67" fill="#d8fbff" opacity="0.52"/><circle cx="101.97" cy="311.44" r="3.04" fill="#2ee6ff" opacity="0.48"/><circle cx="81.98" cy="664.87" r="1.38" fill="#d8fbff" opacity="0.59"/><circle cx="197.04" cy="532.95" r="4.33" fill="#2ee6ff" opacity="0.32"/><circle cx="733.77" cy="999.96" r="1.35" fill="#d8fbff" opacity="0.39"/><circle cx="598.90" cy="313.99" r="1.96" fill="#2ee6ff" opacity="0.25"/><circle cx="109.48" cy="170.10" r="4.63" fill="#d8fbff" opacity="0.56"/><circle cx="197.86" cy="896.97" r="4.38" fill="#2ee6ff" opacity="0.25"/>
  </g>

  <rect x="16" y="16" width="736" height="992" rx="24" stroke="url(#edge-riftforged-sentinel-c50)" stroke-width="2.5" opacity="0.85"/>
  <rect x="22" y="22" width="724" height="980" rx="20" stroke="#f0a0ff" stroke-width="2" opacity="0.74"/>

  <rect x="34" y="34" width="700" height="72" rx="14" fill="#070b14" fill-opacity="0.72" stroke="#f0a0ff" stroke-opacity="0.55"/>
  <text x="54" y="80" fill="#EAF4FF" font-family="Exo 2, Segoe UI, sans-serif" font-size="32" font-weight="700">Riftforged Sentinel</text>

  <rect x="34" y="872" width="700" height="92" rx="14" fill="#070b14" fill-opacity="0.74" stroke="#f0a0ff" stroke-opacity="0.6"/>
  <text x="54" y="924" fill="#D9E7FF" font-family="Exo 2, Segoe UI, sans-serif" font-size="30" font-weight="600">Finisher Setup</text>

  <rect x="598" y="36" width="118" height="42" rx="10" fill="#f0a0ff" fill-opacity="0.2" stroke="#f0a0ff" stroke-opacity="0.8"/>
  <text x="612" y="65" fill="#f0a0ff" font-family="Exo 2, Segoe UI, sans-serif" font-size="20" font-weight="700">EPIC</text>

  <circle cx="708" cy="954" r="26" fill="#080d18" stroke="#f0a0ff" stroke-opacity="0.8"/>
  <text x="696" y="962" fill="#E7F2FF" font-family="Exo 2, Segoe UI, sans-serif" font-size="24" font-weight="700">50</text>
</svg>