<?xml version="1.0" encoding="UTF-8"?>
<svg width="768" height="1024" viewBox="0 0 768 1024" fill="none" xmlns="http://www.w3.org/2000/svg">
  <defs>
    <linearGradient id="bg-riftforged-sentinel-c30" x1="60" y1="40" x2="728" y2="1004" gradientUnits="userSpaceOnUse">
      <stop offset="0" stop-color="#0a1e3f"/>
      <stop offset="0.55" stop-color="#204f8a"/>
      <stop offset="1" stop-color="#0a1e3f"/>
    </linearGradient>
    <radialGradient id="glow-riftforged-sentinel-c30" cx="0" cy="0" r="1" gradientUnits="userSpaceOnUse" gradientTransform="translate(345.08 550.31) rotate(90) scale(288.55 288.55)">
      <stop stop-color="#2ee6ff" stop-opacity="0.45"/>
      <stop offset="1" stop-color="#2ee6ff" stop-opacity="0"/>
    </radialGradient>
    <linearGradient id="edge-riftforged-sentinel-c30" x1="0" y1="0" x2="768" y2="1024" gradientUnits="userSpaceOnUse">
      <stop stop-color="#2ee6ff" stop-opacity="0.85"/>
      <stop offset="1" stop-color="#d8fbff" stop-opacity="0.85"/>
    </linearGradient>
  </defs>

  <rect x="0" y="0" width="768" height="1024" rx="32" fill="#060910"/>
  <rect x="16" y="16" width="736" height="992" rx="24" fill="url(#bg-riftforged-sentinel-c30)"/>
  <rect x="16" y="16" width="736" height="992" rx="24" fill="url(#glow-riftforged-sentinel-c30)"/>

  <g opacity="0.88">
    <polygon points="384.00,327.68 543.63,419.84 543.63,604.16 384.00,696.32 224.37,604.16 224.37,419.84" fill="none" stroke="#2ee6ff" stroke-width="10" opacity="0.7"/>
<polygon points="384.00,327.68 543.63,419.84 543.63,604.16 384.00,696.32 224.37,604.16 224.37,419.84" fill="none" stroke="#d8fbff" stroke-width="3" opacity="0.95" transform="scale(0.78) translate(107.52000000000001,143.36)"/>
  </g>

  <g opacity="0.8">
    <circle cx="41.87" cy="626.27" r="4.50" fill="#d8fbff" opacity="0.69"/><circle cx="629.52" cy="399.07" r="1.67" fill="#2ee6ff" opacity="0.57"/><circle cx="605.49" cy="235.57" r="3.89" fill="#d8fbff" opacity="0.40"/><circle cx="99.31" cy="757.74" r="4.82" fill="#2ee6ff" opacity="0.73"/><circle cx="710.73" cy="399.95" r="2.93" fill="#d8fbff" opacity="0.36"/><circle cx="156.56" cy="462.57" r="1.29" fill="#2ee6ff" opacity="0.49"/><circle cx="420.16" cy="89.24" r="1.77" fill="#d8fbff" opacity="0.59"/><circle cx="552.99" cy="620.39" r="2.77" fill="#2ee6ff" opacity="0.31"/><circle cx="540.50" cy="866.29" r="4.51" fill="#d8fbff" opacity="0.47"/><circle cx="100.75" cy="618.60" r="4.39" fill="#2ee6ff" opacity="0.56"/><circle cx="624.07" cy="201.08" r="2.43" fill="#d8fbff" opacity="0.33"/><circle cx="695.47" cy="573.82" r="4.31" fill="#2ee6ff" opacity="0.47"/><circle cx="549.70" cy="433.26" r="4.98" fill="#d8fbff" opacity="0.70"/><circle cx="535.44" cy="849.54" r="1.29" fill="#2ee6ff" opacity="0.52"/><circle cx="148.78" cy="279.86" r="4.72" fill="#d8fbff" opacity="0.52"/><circle cx="683.93" cy="111.05" r="3.56" fill="#2ee6ff" opacity="0.45"/><circle cx="130.07" cy="627.71" r="2.62" fill="#d8fbff" opacity="0.47"/><circle cx="695.64" cy="111.38" r="3.61" fill="#2ee6ff" opacity="0.34"/><circle cx="156.18" cy="662.41" r="2.53" fill="#d8fbff" opacity="0.24"/><circle cx="636.18" cy="364.03" r="1.46" fill="#2ee6ff" opacity="0.40"/><circle cx="356.60" cy="707.33" r="3.11" fill="#d8fbff" opacity="0.39"/><circle cx="51.28" cy="396.60" r="2.91" fill="#2ee6ff" opacity="0.55"/><circle cx="312.17" cy="230.35" r="3.68" fill="#d8fbff" opacity="0.37"/><circle cx="667.90" cy="542.68" r="2.44" fill="#2ee6ff" opacity="0.67"/><circle cx="635.24" cy="300.69" r="2.77" fill="#d8fbff" opacity="0.49"/><circle cx="741.69" cy="818.34" r="4.50" fill="#2ee6ff" opacity="0.55"/><circle cx="535.27" cy="668.94" r="4.70" fill="#d8fbff" opacity="0.44"/><circle cx="278.82" cy="854.21" r="3.59" fill="#2ee6ff" opacity="0.36"/>
  </g>

  <rect x="16" y="16" width="736" height="992" rx="24" stroke="url(#edge-riftforged-sentinel-c30)" stroke-width="2.5" opacity="0.85"/>
  <rect x="22" y="22" width="724" height="980" rx="20" stroke="#78d8ff" stroke-width="2" opacity="0.74"/>

  <rect x="34" y="34" width="700" height="72" rx="14" fill="#070b14" fill-opacity="0.72" stroke="#78d8ff" stroke-opacity="0.55"/>
  <text x="54" y="80" fill="#EAF4FF" font-family="Exo 2, Segoe UI, sans-serif" font-size="32" font-weight="700">Riftforged Sentinel</text>

  <rect x="34" y="872" width="700" height="92" rx="14" fill="#070b14" fill-opacity="0.74" stroke="#78d8ff" stroke-opacity="0.6"/>
  <text x="54" y="924" fill="#D9E7FF" font-family="Exo 2, Segoe UI, sans-serif" font-size="30" font-weight="600">Signature Adept</text>

  <rect x="598" y="36" width="118" height="42" rx="10" fill="#78d8ff" fill-opacity="0.2" stroke="#78d8ff" stroke-opacity="0.8"/>
  <text x="612" y="65" fill="#78d8ff" font-family="Exo 2, Segoe UI, sans-serif" font-size="20" font-weight="700">RARE</text>

  <circle cx="708" cy="954" r="26" fill="#080d18" stroke="#78d8ff" stroke-opacity="0.8"/>
  <text x="696" y="962" fill="#E7F2FF" font-family="Exo 2, Segoe UI, sans-serif" font-size="24" font-weight="700">30</text>
</svg>