<?xml version="1.0" encoding="UTF-8"?>
<svg width="768" height="1024" viewBox="0 0 768 1024" fill="none" xmlns="http://www.w3.org/2000/svg">
  <defs>
    <linearGradient id="bg-riftforged-sentinel-c16" x1="60" y1="40" x2="728" y2="1004" gradientUnits="userSpaceOnUse">
      <stop offset="0" stop-color="#0a1e3f"/>
      <stop offset="0.55" stop-color="#204f8a"/>
      <stop offset="1" stop-color="#0a1e3f"/>
    </linearGradient>
    <radialGradient id="glow-riftforged-sentinel-c16" cx="0" cy="0" r="1" gradientUnits="userSpaceOnUse" gradientTransform="translate(524.24 133.68) rotate(90) scale(250.98 250.98)">
      <stop stop-color="#2ee6ff" stop-opacity="0.45"/>
      <stop offset="1" stop-color="#2ee6ff" stop-opacity="0"/>
    </radialGradient>
    <linearGradient id="edge-riftforged-sentinel-c16" x1="0" y1="0" x2="768" y2="1024" gradientUnits="userSpaceOnUse">
      <stop stop-color="#2ee6ff" stop-opacity="0.85"/>
      <stop offset="1" stop-color="#d8fbff" stop-opacity="0.85"/>
    </linearGradient>
  </defs>

  <rect x="0" y="0" width="768" height="1024" rx="32" fill="#060910"/>
  <rect x="16" y="16" width="736" height="992" rx="24" fill="url(#bg-riftforged-sentinel-c16)"/>
  <rect x="16" y="16" width="736" height="992" rx="24" fill="url(#glow-riftforged-sentinel-c16)"/>

  <g opacity="0.88">
    <polygon points="384.00,327.68 543.63,419.84 543.63,604.16 384.00,696.32 224.37,604.16 224.37,419.84" fill="none" stroke="#2ee6ff" stroke-width="10" opacity="0.7"/>
<polygon points="384.00,327.68 543.63,419.84 543.63,604.16 384.00,696.32 224.37,604.16 224.37,419.84" fill="none" stroke="#d8fbff" stroke-width="3" opacity="0.95" transform="scale(0.78) translate(107.52000000000001,143.36)"/>
  </g>

  <g opacity="0.8">
    <circle cx="531.00" cy="720.54" r="2.49" fill="#d8fbff" opacity="0.55"/><circle cx="665.09" cy="751.32" r="3.60" fill="#2ee6ff" opacity="0.68"/><circle cx="759.60" cy="608.56" r="4.04" fill="#d8fbff" opacity="0.28"/><circle cx="162.86" cy="792.35" r="1.55" fill="#2ee6ff" opacity="0.45"/><circle cx="592.55" cy="993.65" r="2.44" fill="#d8fbff" opacity="0.46"/><circle cx="18.14" cy="370.14" r="3.57" fill="#2ee6ff" opacity="0.30"/><circle cx="536.06" cy="165.73" r="3.52" fill="#d8fbff" opacity="0.47"/><circle cx="563.91" cy="480.95" r="4.61" fill="#2ee6ff" opacity="0.72"/><circle cx="146.23" cy="937.73" r="3.39" fill="#d8fbff" opacity="0.35"/><circle cx="518.26" cy="875.44" r="4.19" fill="#2ee6ff" opacity="0.31"/><circle cx="573.77" cy="57.10" r="4.86" fill="#d8fbff" opacity="0.41"/><circle cx="381.42" cy="130.01" r="4.84" fill="#2ee6ff" opacity="0.25"/><circle cx="215.60" cy="112.74" r="5.00" fill="#d8fbff" opacity="0.49"/><circle cx="465.57" cy="429.22" r="1.23" fill="#2ee6ff" opacity="0.52"/><circle cx="747.24" cy="746.37" r="3.50" fill="#d8fbff" opacity="0.40"/><circle cx="314.60" cy="903.16" r="4.02" fill="#2ee6ff" opacity="0.29"/><circle cx="546.26" cy="754.83" r="1.50" fill="#d8fbff" opacity="0.54"/><circle cx="265.02" cy="1015.52" r="3.69" fill="#2ee6ff" opacity="0.47"/><circle cx="707.27" cy="778.96" r="3.16" fill="#d8fbff" opacity="0.70"/><circle cx="733.77" cy="948.88" r="2.39" fill="#2ee6ff" opacity="0.44"/><circle cx="499.61" cy="991.17" r="3.60" fill="#d8fbff" opacity="0.72"/><circle cx="433.58" cy="578.73" r="3.42" fill="#2ee6ff" opacity="0.40"/><circle cx="433.51" cy="578.81" r="3.13" fill="#d8fbff" opacity="0.34"/><circle cx="9.48" cy="18.49" r="2.27" fill="#2ee6ff" opacity="0.30"/><circle cx="655.56" cy="398.96" r="1.88" fill="#d8fbff" opacity="0.60"/><circle cx="24.32" cy="64.26" r="4.27" fill="#2ee6ff" opacity="0.28"/><circle cx="468.25" cy="924.27" r="2.05" fill="#d8fbff" opacity="0.30"/><circle cx="210.77" cy="685.50" r="2.88" fill="#2ee6ff" opacity="0.70"/>
  </g>

  <rect x="16" y="16" width="736" height="992" rx="24" stroke="url(#edge-riftforged-sentinel-c16)" stroke-width="2.5" opacity="0.85"/>
  <rect x="22" y="22" width="724" height="980" rx="20" stroke="#8aa0c4" stroke-width="2" opacity="0.74"/>

  <rect x="34" y="34" width="700" height="72" rx="14" fill="#070b14" fill-opacity="0.72" stroke="#8aa0c4" stroke-opacity="0.55"/>
  <text x="54" y="80" fill="#EAF4FF" font-family="Exo 2, Segoe UI, sans-serif" font-size="32" font-weight="700">Riftforged Sentinel</text>

  <rect x="34" y="872" width="700" height="92" rx="14" fill="#070b14" fill-opacity="0.74" stroke="#8aa0c4" stroke-opacity="0.6"/>
  <text x="54" y="924" fill="#D9E7FF" font-family="Exo 2, Segoe UI, sans-serif" font-size="30" font-weight="600">Companion Keeper</text>

  <rect x="598" y="36" width="118" height="42" rx="10" fill="#8aa0c4" fill-opacity="0.2" stroke="#8aa0c4" stroke-opacity="0.8"/>
  <text x="612" y="65" fill="#8aa0c4" font-family="Exo 2, Segoe UI, sans-serif" font-size="20" font-weight="700">COMMON</text>

  <circle cx="708" cy="954" r="26" fill="#080d18" stroke="#8aa0c4" stroke-opacity="0.8"/>
  <text x="696" y="962" fill="#E7F2FF" font-family="Exo 2, Segoe UI, sans-serif" font-size="24" font-weight="700">16</text>
</svg>