<?xml version="1.0" encoding="UTF-8"?>
<svg width="768" height="1024" viewBox="0 0 768 1024" fill="none" xmlns="http://www.w3.org/2000/svg">
  <defs>
    <linearGradient id="bg-riftforged-sentinel-c27" x1="60" y1="40" x2="728" y2="1004" gradientUnits="userSpaceOnUse">
      <stop offset="0" stop-color="#0a1e3f"/>
      <stop offset="0.55" stop-color="#204f8a"/>
      <stop offset="1" stop-color="#0a1e3f"/>
    </linearGradient>
    <radialGradient id="glow-riftforged-sentinel-c27" cx="0" cy="0" r="1" gradientUnits="userSpaceOnUse" gradientTransform="translate(339.00 531.66) rotate(90) scale(265.23 265.23)">
      <stop stop-color="#2ee6ff" stop-opacity="0.45"/>
      <stop offset="1" stop-color="#2ee6ff" stop-opacity="0"/>
    </radialGradient>
    <linearGradient id="edge-riftforged-sentinel-c27" x1="0" y1="0" x2="768" y2="1024" gradientUnits="userSpaceOnUse">
      <stop stop-color="#2ee6ff" stop-opacity="0.85"/>
      <stop offset="1" stop-color="#d8fbff" stop-opacity="0.85"/>
    </linearGradient>
  </defs>

  <rect x="0" y="0" width="768" height="1024" rx="32" fill="#060910"/>
  <rect x="16" y="16" width="736" height="992" rx="24" fill="url(#bg-riftforged-sentinel-c27)"/>
  <rect x="16" y="16" width="736" height="992" rx="24" fill="url(#glow-riftforged-sentinel-c27)"/>

  <g opacity="0.88">
    <polygon points="384.00,327.68 543.63,419.84 543.63,604.16 384.00,696.32 224.37,604.16 224.37,419.84" fill="none" stroke="#2ee6ff" stroke-width="10" opacity="0.7"/>
<polygon points="384.00,327.68 543.63,419.84 543.63,604.16 384.00,696.32 224.37,604.16 224.37,419.84" fill="none" stroke="#d8fbff" stroke-width="3" opacity="0.95" transform="scale(0.78) translate(107.52000000000001,143.36)"/>
  </g>

  <g opacity="0.8">
    <circle cx="632.48" cy="855.72" r="2.68" fill="#d8fbff" opacity="0.51"/><circle cx="435.54" cy="854.10" r="4.78" fill="#2ee6ff" opacity="0.30"/><circle cx="546.38" cy="812.71" r="3.57" fill="#d8fbff" opacity="0.52"/><circle cx="381.04" cy="856.91" r="3.43" fill="#2ee6ff" opacity="0.53"/><circle cx="484.67" cy="253.36" r="1.66" fill="#d8fbff" opacity="0.71"/><circle cx="547.23" cy="877.27" r="1.73" fill="#2ee6ff" opacity="0.58"/><circle cx="328.48" cy="543.59" r="2.32" fill="#d8fbff" opacity="0.32"/><circle cx="715.97" cy="358.24" r="2.19" fill="#2ee6ff" opacity="0.42"/><circle cx="717.13" cy="714.09" r="4.25" fill="#d8fbff" opacity="0.39"/><circle cx="39.50" cy="596.91" r="4.85" fill="#2ee6ff" opacity="0.34"/><circle cx="509.31" cy="400.73" r="4.40" fill="#d8fbff" opacity="0.65"/><circle cx="247.64" cy="349.14" r="3.89" fill="#2ee6ff" opacity="0.66"/><circle cx="546.94" cy="156.04" r="3.63" fill="#d8fbff" opacity="0.49"/><circle cx="88.63" cy="564.00" r="2.78" fill="#2ee6ff" opacity="0.45"/><circle cx="8.98" cy="933.89" r="3.46" fill="#d8fbff" opacity="0.27"/><circle cx="93.74" cy="695.23" r="1.97" fill="#2ee6ff" opacity="0.50"/><circle cx="350.32" cy="856.43" r="2.76" fill="#d8fbff" opacity="0.58"/><circle cx="64.06" cy="554.99" r="2.68" fill="#2ee6ff" opacity="0.56"/><circle cx="593.59" cy="160.04" r="4.30" fill="#d8fbff" opacity="0.73"/><circle cx="527.17" cy="656.56" r="2.13" fill="#2ee6ff" opacity="0.52"/><circle cx="331.62" cy="504.10" r="4.83" fill="#d8fbff" opacity="0.29"/><circle cx="631.16" cy="113.01" r="2.62" fill="#2ee6ff" opacity="0.51"/><circle cx="309.48" cy="536.95" r="4.75" fill="#d8fbff" opacity="0.31"/><circle cx="313.08" cy="616.35" r="3.43" fill="#2ee6ff" opacity="0.69"/><circle cx="546.64" cy="915.94" r="1.56" fill="#d8fbff" opacity="0.53"/><circle cx="611.91" cy="801.30" r="3.66" fill="#2ee6ff" opacity="0.71"/><circle cx="187.78" cy="883.49" r="4.71" fill="#d8fbff" opacity="0.28"/><circle cx="193.13" cy="483.95" r="4.47" fill="#2ee6ff" opacity="0.42"/>
  </g>

  <rect x="16" y="16" width="736" height="992" rx="24" stroke="url(#edge-riftforged-sentinel-c27)" stroke-width="2.5" opacity="0.85"/>
  <rect x="22" y="22" width="724" height="980" rx="20" stroke="#8aa0c4" stroke-width="2" opacity="0.74"/>

  <rect x="34" y="34" width="700" height="72" rx="14" fill="#070b14" fill-opacity="0.72" stroke="#8aa0c4" stroke-opacity="0.55"/>
  <text x="54" y="80" fill="#EAF4FF" font-family="Exo 2, Segoe UI, sans-serif" font-size="32" font-weight="700">Riftforged Sentinel</text>

  <rect x="34" y="872" width="700" height="92" rx="14" fill="#070b14" fill-opacity="0.74" stroke="#8aa0c4" stroke-opacity="0.6"/>
  <text x="54" y="924" fill="#D9E7FF" font-family="Exo 2, Segoe UI, sans-serif" font-size="30" font-weight="600">Ritual Guard</text>

  <rect x="598" y="36" width="118" height="42" rx="10" fill="#8aa0c4" fill-opacity="0.2" stroke="#8aa0c4" stroke-opacity="0.8"/>
  <text x="612" y="65" fill="#8aa0c4" font-family="Exo 2, Segoe UI, sans-serif" font-size="20" font-weight="700">COMMON</text>

  <circle cx="708" cy="954" r="26" fill="#080d18" stroke="#8aa0c4" stroke-opacity="0.8"/>
  <text x="696" y="962" fill="#E7F2FF" font-family="Exo 2, Segoe UI, sans-serif" font-size="24" font-weight="700">27</text>
</svg>