<?xml version="1.0" encoding="UTF-8"?>
<svg width="768" height="1024" viewBox="0 0 768 1024" fill="none" xmlns="http://www.w3.org/2000/svg">
  <defs>
    <linearGradient id="bg-riftforged-sentinel-c01" x1="60" y1="40" x2="728" y2="1004" gradientUnits="userSpaceOnUse">
      <stop offset="0" stop-color="#0a1e3f"/>
      <stop offset="0.55" stop-color="#204f8a"/>
      <stop offset="1" stop-color="#0a1e3f"/>
    </linearGradient>
    <radialGradient id="glow-riftforged-sentinel-c01" cx="0" cy="0" r="1" gradientUnits="userSpaceOnUse" gradientTransform="translate(207.65 351.53) rotate(90) scale(236.60 236.60)">
      <stop stop-color="#2ee6ff" stop-opacity="0.45"/>
      <stop offset="1" stop-color="#2ee6ff" stop-opacity="0"/>
    </radialGradient>
    <linearGradient id="edge-riftforged-sentinel-c01" x1="0" y1="0" x2="768" y2="1024" gradientUnits="userSpaceOnUse">
      <stop stop-color="#2ee6ff" stop-opacity="0.85"/>
      <stop offset="1" stop-color="#d8fbff" stop-opacity="0.85"/>
    </linearGradient>
  </defs>

  <rect x="0" y="0" width="768" height="1024" rx="32" fill="#060910"/>
  <rect x="16" y="16" width="736" height="992" rx="24" fill="url(#bg-riftforged-sentinel-c01)"/>
  <rect x="16" y="16" width="736" height="992" rx="24" fill="url(#glow-riftforged-sentinel-c01)"/>

  <g opacity="0.88">
    <polygon points="384.00,327.68 543.63,419.84 543.63,604.16 384.00,696.32 224.37,604.16 224.37,419.84" fill="none" stroke="#2ee6ff" stroke-width="10" opacity="0.7"/>
<polygon points="384.00,327.68 543.63,419.84 543.63,604.16 384.00,696.32 224.37,604.16 224.37,419.84" fill="none" stroke="#d8fbff" stroke-width="3" opacity="0.95" transform="scale(0.78) translate(107.52000000000001,143.36)"/>
  </g>

  <g opacity="0.8">
    <circle cx="127.45" cy="149.38" r="1.84" fill="#d8fbff" opacity="0.33"/><circle cx="24.49" cy="481.56" r="4.76" fill="#2ee6ff" opacity="0.62"/><circle cx="441.25" cy="744.24" r="1.27" fill="#d8fbff" opacity="0.27"/><circle cx="498.06" cy="57.20" r="3.86" fill="#2ee6ff" opacity="0.48"/><circle cx="29.14" cy="238.83" r="3.47" fill="#d8fbff" opacity="0.69"/><circle cx="711.68" cy="406.53" r="4.44" fill="#2ee6ff" opacity="0.64"/><circle cx="577.06" cy="314.49" r="2.37" fill="#d8fbff" opacity="0.65"/><circle cx="585.18" cy="17.61" r="2.82" fill="#2ee6ff" opacity="0.47"/><circle cx="600.61" cy="272.41" r="3.36" fill="#d8fbff" opacity="0.40"/><circle cx="478.97" cy="3.85" r="3.32" fill="#2ee6ff" opacity="0.66"/><circle cx="438.85" cy="688.10" r="2.48" fill="#d8fbff" opacity="0.25"/><circle cx="550.09" cy="405.75" r="2.35" fill="#2ee6ff" opacity="0.53"/><circle cx="653.55" cy="692.45" r="1.95" fill="#d8fbff" opacity="0.55"/><circle cx="427.11" cy="629.37" r="2.50" fill="#2ee6ff" opacity="0.43"/><circle cx="134.52" cy="482.92" r="3.51" fill="#d8fbff" opacity="0.62"/><circle cx="396.25" cy="85.67" r="3.51" fill="#2ee6ff" opacity="0.31"/><circle cx="40.91" cy="63.14" r="3.79" fill="#d8fbff" opacity="0.47"/><circle cx="208.22" cy="50.62" r="1.53" fill="#2ee6ff" opacity="0.51"/><circle cx="403.01" cy="885.14" r="4.79" fill="#d8fbff" opacity="0.30"/><circle cx="287.27" cy="897.18" r="1.34" fill="#2ee6ff" opacity="0.50"/><circle cx="12.52" cy="298.79" r="2.33" fill="#d8fbff" opacity="0.61"/><circle cx="496.49" cy="629.53" r="4.32" fill="#2ee6ff" opacity="0.26"/><circle cx="559.18" cy="812.47" r="3.15" fill="#d8fbff" opacity="0.68"/><circle cx="525.40" cy="4.99" r="3.39" fill="#2ee6ff" opacity="0.57"/><circle cx="678.87" cy="546.84" r="4.54" fill="#d8fbff" opacity="0.35"/><circle cx="685.07" cy="751.72" r="4.93" fill="#2ee6ff" opacity="0.73"/><circle cx="335.42" cy="605.66" r="4.96" fill="#d8fbff" opacity="0.36"/><circle cx="468.50" cy="627.85" r="4.28" fill="#2ee6ff" opacity="0.35"/>
  </g>

  <rect x="16" y="16" width="736" height="992" rx="24" stroke="url(#edge-riftforged-sentinel-c01)" stroke-width="2.5" opacity="0.85"/>
  <rect x="22" y="22" width="724" height="980" rx="20" stroke="#8aa0c4" stroke-width="2" opacity="0.74"/>

  <rect x="34" y="34" width="700" height="72" rx="14" fill="#070b14" fill-opacity="0.72" stroke="#8aa0c4" stroke-opacity="0.55"/>
  <text x="54" y="80" fill="#EAF4FF" font-family="Exo 2, Segoe UI, sans-serif" font-size="32" font-weight="700">Riftforged Sentinel</text>

  <rect x="34" y="872" width="700" height="92" rx="14" fill="#070b14" fill-opacity="0.74" stroke="#8aa0c4" stroke-opacity="0.6"/>
  <text x="54" y="924" fill="#D9E7FF" font-family="Exo 2, Segoe UI, sans-serif" font-size="30" font-weight="600">Vanguard</text>

  <rect x="598" y="36" width="118" height="42" rx="10" fill="#8aa0c4" fill-opacity="0.2" stroke="#8aa0c4" stroke-opacity="0.8"/>
  <text x="612" y="65" fill="#8aa0c4" font-family="Exo 2, Segoe UI, sans-serif" font-size="20" font-weight="700">COMMON</text>

  <circle cx="708" cy="954" r="26" fill="#080d18" stroke="#8aa0c4" stroke-opacity="0.8"/>
  <text x="696" y="962" fill="#E7F2FF" font-family="Exo 2, Segoe UI, sans-serif" font-size="24" font-weight="700">01</text>
</svg>