<?xml version="1.0" encoding="UTF-8"?>
<svg width="768" height="1024" viewBox="0 0 768 1024" fill="none" xmlns="http://www.w3.org/2000/svg">
  <defs>
    <linearGradient id="bg-riftforged-sentinel-c43" x1="60" y1="40" x2="728" y2="1004" gradientUnits="userSpaceOnUse">
      <stop offset="0" stop-color="#0a1e3f"/>
      <stop offset="0.55" stop-color="#204f8a"/>
      <stop offset="1" stop-color="#0a1e3f"/>
    </linearGradient>
    <radialGradient id="glow-riftforged-sentinel-c43" cx="0" cy="0" r="1" gradientUnits="userSpaceOnUse" gradientTransform="translate(231.94 533.66) rotate(90) scale(230.52 230.52)">
      <stop stop-color="#2ee6ff" stop-opacity="0.45"/>
      <stop offset="1" stop-color="#2ee6ff" stop-opacity="0"/>
    </radialGradient>
    <linearGradient id="edge-riftforged-sentinel-c43" x1="0" y1="0" x2="768" y2="1024" gradientUnits="userSpaceOnUse">
      <stop stop-color="#2ee6ff" stop-opacity="0.85"/>
      <stop offset="1" stop-color="#d8fbff" stop-opacity="0.85"/>
    </linearGradient>
  </defs>

  <rect x="0" y="0" width="768" height="1024" rx="32" fill="#060910"/>
  <rect x="16" y="16" width="736" height="992" rx="24" fill="url(#bg-riftforged-sentinel-c43)"/>
  <rect x="16" y="16" width="736" height="992" rx="24" fill="url(#glow-riftforged-sentinel-c43)"/>

  <g opacity="0.88">
    <polygon points="384.00,327.68 543.63,419.84 543.63,604.16 384.00,696.32 224.37,604.16 224.37,419.84" fill="none" stroke="#2ee6ff" stroke-width="10" opacity="0.7"/>
<polygon points="384.00,327.68 543.63,419.84 543.63,604.16 384.00,696.32 224.37,604.16 224.37,419.84" fill="none" stroke="#d8fbff" stroke-width="3" opacity="0.95" transform="scale(0.78) translate(107.52000000000001,143.36)"/>
  </g>

  <g opacity="0.8">
    <circle cx="697.98" cy="268.42" r="1.85" fill="#d8fbff" opacity="0.49"/><circle cx="405.05" cy="673.41" r="3.64" fill="#2ee6ff" opacity="0.61"/><circle cx="621.14" cy="15.53" r="5.00" fill="#d8fbff" opacity="0.59"/><circle cx="473.12" cy="196.22" r="2.03" fill="#2ee6ff" opacity="0.62"/><circle cx="2.11" cy="264.90" r="2.04" fill="#d8fbff" opacity="0.65"/><circle cx="195.09" cy="354.07" r="2.03" fill="#2ee6ff" opacity="0.69"/><circle cx="518.35" cy="463.45" r="3.68" fill="#d8fbff" opacity="0.37"/><circle cx="610.54" cy="480.34" r="4.34" fill="#2ee6ff" opacity="0.62"/><circle cx="72.27" cy="799.91" r="3.50" fill="#d8fbff" opacity="0.49"/><circle cx="213.37" cy="258.52" r="2.96" fill="#2ee6ff" opacity="0.64"/><circle cx="60.21" cy="354.50" r="2.90" fill="#d8fbff" opacity="0.29"/><circle cx="327.72" cy="249.74" r="1.49" fill="#2ee6ff" opacity="0.34"/><circle cx="590.33" cy="329.98" r="3.26" fill="#d8fbff" opacity="0.61"/><circle cx="679.62" cy="631.75" r="2.98" fill="#2ee6ff" opacity="0.32"/><circle cx="310.79" cy="840.63" r="3.29" fill="#d8fbff" opacity="0.47"/><circle cx="712.44" cy="26.90" r="3.49" fill="#2ee6ff" opacity="0.49"/><circle cx="722.16" cy="311.01" r="2.00" fill="#d8fbff" opacity="0.43"/><circle cx="104.66" cy="523.31" r="3.57" fill="#2ee6ff" opacity="0.67"/><circle cx="703.68" cy="10.54" r="2.53" fill="#d8fbff" opacity="0.69"/><circle cx="61.45" cy="974.28" r="4.22" fill="#2ee6ff" opacity="0.42"/><circle cx="524.93" cy="140.91" r="3.85" fill="#d8fbff" opacity="0.47"/><circle cx="602.33" cy="157.83" r="3.11" fill="#2ee6ff" opacity="0.39"/><circle cx="280.96" cy="21.03" r="1.79" fill="#d8fbff" opacity="0.42"/><circle cx="531.79" cy="228.54" r="4.68" fill="#2ee6ff" opacity="0.47"/><circle cx="243.37" cy="308.92" r="2.71" fill="#d8fbff" opacity="0.57"/><circle cx="688.53" cy="955.88" r="4.67" fill="#2ee6ff" opacity="0.25"/><circle cx="645.05" cy="1019.79" r="4.98" fill="#d8fbff" opacity="0.41"/><circle cx="244.62" cy="198.01" r="1.82" fill="#2ee6ff" opacity="0.50"/>
  </g>

  <rect x="16" y="16" width="736" height="992" rx="24" stroke="url(#edge-riftforged-sentinel-c43)" stroke-width="2.5" opacity="0.85"/>
  <rect x="22" y="22" width="724" height="980" rx="20" stroke="#78d8ff" stroke-width="2" opacity="0.74"/>

  <rect x="34" y="34" width="700" height="72" rx="14" fill="#070b14" fill-opacity="0.72" stroke="#78d8ff" stroke-opacity="0.55"/>
  <text x="54" y="80" fill="#EAF4FF" font-family="Exo 2, Segoe UI, sans-serif" font-size="32" font-weight="700">Riftforged Sentinel</text>

  <rect x="34" y="872" width="700" height="92" rx="14" fill="#070b14" fill-opacity="0.74" stroke="#78d8ff" stroke-opacity="0.6"/>
  <text x="54" y="924" fill="#D9E7FF" font-family="Exo 2, Segoe UI, sans-serif" font-size="30" font-weight="600">Faction Amplifier</text>

  <rect x="598" y="36" width="118" height="42" rx="10" fill="#78d8ff" fill-opacity="0.2" stroke="#78d8ff" stroke-opacity="0.8"/>
  <text x="612" y="65" fill="#78d8ff" font-family="Exo 2, Segoe UI, sans-serif" font-size="20" font-weight="700">RARE</text>

  <circle cx="708" cy="954" r="26" fill="#080d18" stroke="#78d8ff" stroke-opacity="0.8"/>
  <text x="696" y="962" fill="#E7F2FF" font-family="Exo 2, Segoe UI, sans-serif" font-size="24" font-weight="700">43</text>
</svg>