<?xml version="1.0" encoding="UTF-8"?>
<svg width="768" height="1024" viewBox="0 0 768 1024" fill="none" xmlns="http://www.w3.org/2000/svg">
  <defs>
    <linearGradient id="bg-riftforged-sentinel-c34" x1="60" y1="40" x2="728" y2="1004" gradientUnits="userSpaceOnUse">
      <stop offset="0" stop-color="#0a1e3f"/>
      <stop offset="0.55" stop-color="#204f8a"/>
      <stop offset="1" stop-color="#0a1e3f"/>
    </linearGradient>
    <radialGradient id="glow-riftforged-sentinel-c34" cx="0" cy="0" r="1" gradientUnits="userSpaceOnUse" gradientTransform="translate(301.33 230.37) rotate(90) scale(261.86 261.86)">
      <stop stop-color="#2ee6ff" stop-opacity="0.45"/>
      <stop offset="1" stop-color="#2ee6ff" stop-opacity="0"/>
    </radialGradient>
    <linearGradient id="edge-riftforged-sentinel-c34" x1="0" y1="0" x2="768" y2="1024" gradientUnits="userSpaceOnUse">
      <stop stop-color="#2ee6ff" stop-opacity="0.85"/>
      <stop offset="1" stop-color="#d8fbff" stop-opacity="0.85"/>
    </linearGradient>
  </defs>

  <rect x="0" y="0" width="768" height="1024" rx="32" fill="#060910"/>
  <rect x="16" y="16" width="736" height="992" rx="24" fill="url(#bg-riftforged-sentinel-c34)"/>
  <rect x="16" y="16" width="736" height="992" rx="24" fill="url(#glow-riftforged-sentinel-c34)"/>

  <g opacity="0.88">
    <polygon points="384.00,327.68 543.63,419.84 543.63,604.16 384.00,696.32 224.37,604.16 224.37,419.84" fill="none" stroke="#2ee6ff" stroke-width="10" opacity="0.7"/>
<polygon points="384.00,327.68 543.63,419.84 543.63,604.16 384.00,696.32 224.37,604.16 224.37,419.84" fill="none" stroke="#d8fbff" stroke-width="3" opacity="0.95" transform="scale(0.78) translate(107.52000000000001,143.36)"/>
  </g>

  <g opacity="0.8">
    <circle cx="57.98" cy="247.35" r="2.61" fill="#d8fbff" opacity="0.32"/><circle cx="338.46" cy="591.06" r="2.69" fill="#2ee6ff" opacity="0.30"/><circle cx="426.38" cy="307.63" r="3.48" fill="#d8fbff" opacity="0.65"/><circle cx="32.47" cy="597.07" r="3.37" fill="#2ee6ff" opacity="0.65"/><circle cx="485.94" cy="956.54" r="3.80" fill="#d8fbff" opacity="0.69"/><circle cx="244.25" cy="276.00" r="3.94" fill="#2ee6ff" opacity="0.56"/><circle cx="685.99" cy="1000.06" r="4.99" fill="#d8fbff" opacity="0.67"/><circle cx="135.22" cy="109.28" r="1.93" fill="#2ee6ff" opacity="0.65"/><circle cx="586.80" cy="848.37" r="4.41" fill="#d8fbff" opacity="0.26"/><circle cx="580.15" cy="762.93" r="2.35" fill="#2ee6ff" opacity="0.49"/><circle cx="334.84" cy="633.94" r="3.83" fill="#d8fbff" opacity="0.42"/><circle cx="702.48" cy="349.81" r="1.57" fill="#2ee6ff" opacity="0.71"/><circle cx="496.01" cy="888.80" r="4.03" fill="#d8fbff" opacity="0.45"/><circle cx="666.42" cy="936.14" r="4.76" fill="#2ee6ff" opacity="0.48"/><circle cx="470.02" cy="566.51" r="2.69" fill="#d8fbff" opacity="0.27"/><circle cx="267.00" cy="476.72" r="4.94" fill="#2ee6ff" opacity="0.61"/><circle cx="441.89" cy="384.12" r="4.74" fill="#d8fbff" opacity="0.50"/><circle cx="580.26" cy="348.53" r="3.42" fill="#2ee6ff" opacity="0.28"/><circle cx="21.83" cy="218.86" r="4.01" fill="#d8fbff" opacity="0.33"/><circle cx="461.47" cy="464.92" r="4.90" fill="#2ee6ff" opacity="0.68"/><circle cx="760.88" cy="692.57" r="1.81" fill="#d8fbff" opacity="0.54"/><circle cx="258.32" cy="722.04" r="4.65" fill="#2ee6ff" opacity="0.53"/><circle cx="568.67" cy="922.14" r="2.76" fill="#d8fbff" opacity="0.25"/><circle cx="111.49" cy="893.54" r="2.10" fill="#2ee6ff" opacity="0.27"/><circle cx="697.12" cy="972.73" r="3.19" fill="#d8fbff" opacity="0.60"/><circle cx="351.58" cy="642.17" r="4.94" fill="#2ee6ff" opacity="0.53"/><circle cx="365.65" cy="896.62" r="3.62" fill="#d8fbff" opacity="0.70"/><circle cx="367.14" cy="1013.57" r="4.02" fill="#2ee6ff" opacity="0.45"/>
  </g>

  <rect x="16" y="16" width="736" height="992" rx="24" stroke="url(#edge-riftforged-sentinel-c34)" stroke-width="2.5" opacity="0.85"/>
  <rect x="22" y="22" width="724" height="980" rx="20" stroke="#78d8ff" stroke-width="2" opacity="0.74"/>

  <rect x="34" y="34" width="700" height="72" rx="14" fill="#070b14" fill-opacity="0.72" stroke="#78d8ff" stroke-opacity="0.55"/>
  <text x="54" y="80" fill="#EAF4FF" font-family="Exo 2, Segoe UI, sans-serif" font-size="32" font-weight="700">Riftforged Sentinel</text>

  <rect x="34" y="872" width="700" height="92" rx="14" fill="#070b14" fill-opacity="0.74" stroke="#78d8ff" stroke-opacity="0.6"/>
  <text x="54" y="924" fill="#D9E7FF" font-family="Exo 2, Segoe UI, sans-serif" font-size="30" font-weight="600">Arc Ping</text>

  <rect x="598" y="36" width="118" height="42" rx="10" fill="#78d8ff" fill-opacity="0.2" stroke="#78d8ff" stroke-opacity="0.8"/>
  <text x="612" y="65" fill="#78d8ff" font-family="Exo 2, Segoe UI, sans-serif" font-size="20" font-weight="700">RARE</text>

  <circle cx="708" cy="954" r="26" fill="#080d18" stroke="#78d8ff" stroke-opacity="0.8"/>
  <text x="696" y="962" fill="#E7F2FF" font-family="Exo 2, Segoe UI, sans-serif" font-size="24" font-weight="700">34</text>
</svg>