<?xml version="1.0" encoding="UTF-8"?>
<svg width="768" height="1024" viewBox="0 0 768 1024" fill="none" xmlns="http://www.w3.org/2000/svg">
  <defs>
    <linearGradient id="bg-riftforged-sentinel-c52" x1="60" y1="40" x2="728" y2="1004" gradientUnits="userSpaceOnUse">
      <stop offset="0" stop-color="#0a1e3f"/>
      <stop offset="0.55" stop-color="#204f8a"/>
      <stop offset="1" stop-color="#0a1e3f"/>
    </linearGradient>
    <radialGradient id="glow-riftforged-sentinel-c52" cx="0" cy="0" r="1" gradientUnits="userSpaceOnUse" gradientTransform="translate(493.96 273.06) rotate(90) scale(242.75 242.75)">
      <stop stop-color="#2ee6ff" stop-opacity="0.45"/>
      <stop offset="1" stop-color="#2ee6ff" stop-opacity="0"/>
    </radialGradient>
    <linearGradient id="edge-riftforged-sentinel-c52" x1="0" y1="0" x2="768" y2="1024" gradientUnits="userSpaceOnUse">
      <stop stop-color="#2ee6ff" stop-opacity="0.85"/>
      <stop offset="1" stop-color="#d8fbff" stop-opacity="0.85"/>
    </linearGradient>
  </defs>

  <rect x="0" y="0" width="768" height="1024" rx="32" fill="#060910"/>
  <rect x="16" y="16" width="736" height="992" rx="24" fill="url(#bg-riftforged-sentinel-c52)"/>
  <rect x="16" y="16" width="736" height="992" rx="24" fill="url(#glow-riftforged-sentinel-c52)"/>

  <g opacity="0.88">
    <polygon points="384.00,327.68 543.63,419.84 543.63,604.16 384.00,696.32 224.37,604.16 224.37,419.84" fill="none" stroke="#2ee6ff" stroke-width="10" opacity="0.7"/>
<polygon points="384.00,327.68 543.63,419.84 543.63,604.16 384.00,696.32 224.37,604.16 224.37,419.84" fill="none" stroke="#d8fbff" stroke-width="3" opacity="0.95" transform="scale(0.78) translate(107.52000000000001,143.36)"/>
  </g>

  <g opacity="0.8">
    <circle cx="571.54" cy="612.73" r="4.26" fill="#d8fbff" opacity="0.55"/><circle cx="127.25" cy="210.75" r="2.55" fill="#2ee6ff" opacity="0.65"/><circle cx="185.73" cy="702.20" r="4.86" fill="#d8fbff" opacity="0.45"/><circle cx="560.34" cy="480.95" r="4.33" fill="#2ee6ff" opacity="0.63"/><circle cx="425.77" cy="333.10" r="1.73" fill="#d8fbff" opacity="0.59"/><circle cx="95.81" cy="615.97" r="3.58" fill="#2ee6ff" opacity="0.65"/><circle cx="67.19" cy="200.63" r="1.70" fill="#d8fbff" opacity="0.51"/><circle cx="8.41" cy="69.39" r="2.89" fill="#2ee6ff" opacity="0.31"/><circle cx="94.23" cy="127.03" r="2.38" fill="#d8fbff" opacity="0.51"/><circle cx="15.11" cy="701.04" r="1.31" fill="#2ee6ff" opacity="0.73"/><circle cx="219.43" cy="600.37" r="4.89" fill="#d8fbff" opacity="0.61"/><circle cx="635.85" cy="397.27" r="4.19" fill="#2ee6ff" opacity="0.48"/><circle cx="383.39" cy="329.23" r="2.49" fill="#d8fbff" opacity="0.39"/><circle cx="292.53" cy="767.54" r="3.67" fill="#2ee6ff" opacity="0.27"/><circle cx="326.82" cy="337.52" r="4.76" fill="#d8fbff" opacity="0.62"/><circle cx="267.84" cy="45.27" r="1.82" fill="#2ee6ff" opacity="0.68"/><circle cx="650.77" cy="667.96" r="3.00" fill="#d8fbff" opacity="0.51"/><circle cx="751.43" cy="54.05" r="1.86" fill="#2ee6ff" opacity="0.52"/><circle cx="729.67" cy="543.88" r="4.75" fill="#d8fbff" opacity="0.36"/><circle cx="556.69" cy="635.11" r="2.46" fill="#2ee6ff" opacity="0.53"/><circle cx="735.51" cy="912.13" r="3.07" fill="#d8fbff" opacity="0.39"/><circle cx="184.80" cy="727.69" r="3.14" fill="#2ee6ff" opacity="0.71"/><circle cx="110.61" cy="91.96" r="3.87" fill="#d8fbff" opacity="0.49"/><circle cx="249.63" cy="967.90" r="4.17" fill="#2ee6ff" opacity="0.63"/><circle cx="320.52" cy="525.19" r="4.09" fill="#d8fbff" opacity="0.55"/><circle cx="507.62" cy="385.72" r="3.25" fill="#2ee6ff" opacity="0.33"/><circle cx="141.78" cy="468.47" r="3.13" fill="#d8fbff" opacity="0.46"/><circle cx="688.84" cy="269.27" r="4.27" fill="#2ee6ff" opacity="0.40"/>
  </g>

  <rect x="16" y="16" width="736" height="992" rx="24" stroke="url(#edge-riftforged-sentinel-c52)" stroke-width="2.5" opacity="0.85"/>
  <rect x="22" y="22" width="724" height="980" rx="20" stroke="#ffd978" stroke-width="2" opacity="0.74"/>

  <rect x="34" y="34" width="700" height="72" rx="14" fill="#070b14" fill-opacity="0.72" stroke="#ffd978" stroke-opacity="0.55"/>
  <text x="54" y="80" fill="#EAF4FF" font-family="Exo 2, Segoe UI, sans-serif" font-size="32" font-weight="700">Riftforged Sentinel</text>

  <rect x="34" y="872" width="700" height="92" rx="14" fill="#070b14" fill-opacity="0.74" stroke="#ffd978" stroke-opacity="0.6"/>
  <text x="54" y="924" fill="#D9E7FF" font-family="Exo 2, Segoe UI, sans-serif" font-size="30" font-weight="600">Legendary Ultimate</text>

  <rect x="598" y="36" width="118" height="42" rx="10" fill="#ffd978" fill-opacity="0.2" stroke="#ffd978" stroke-opacity="0.8"/>
  <text x="612" y="65" fill="#ffd978" font-family="Exo 2, Segoe UI, sans-serif" font-size="20" font-weight="700">LEGENDARY</text>

  <circle cx="708" cy="954" r="26" fill="#080d18" stroke="#ffd978" stroke-opacity="0.8"/>
  <text x="696" y="962" fill="#E7F2FF" font-family="Exo 2, Segoe UI, sans-serif" font-size="24" font-weight="700">52</text>
</svg>