<?xml version="1.0" encoding="UTF-8"?>
<svg width="768" height="1024" viewBox="0 0 768 1024" fill="none" xmlns="http://www.w3.org/2000/svg">
  <defs>
    <linearGradient id="bg-riftforged-sentinel-c03" x1="60" y1="40" x2="728" y2="1004" gradientUnits="userSpaceOnUse">
      <stop offset="0" stop-color="#0a1e3f"/>
      <stop offset="0.55" stop-color="#204f8a"/>
      <stop offset="1" stop-color="#0a1e3f"/>
    </linearGradient>
    <radialGradient id="glow-riftforged-sentinel-c03" cx="0" cy="0" r="1" gradientUnits="userSpaceOnUse" gradientTransform="translate(466.37 700.10) rotate(90) scale(283.04 283.04)">
      <stop stop-color="#2ee6ff" stop-opacity="0.45"/>
      <stop offset="1" stop-color="#2ee6ff" stop-opacity="0"/>
    </radialGradient>
    <linearGradient id="edge-riftforged-sentinel-c03" x1="0" y1="0" x2="768" y2="1024" gradientUnits="userSpaceOnUse">
      <stop stop-color="#2ee6ff" stop-opacity="0.85"/>
      <stop offset="1" stop-color="#d8fbff" stop-opacity="0.85"/>
    </linearGradient>
  </defs>

  <rect x="0" y="0" width="768" height="1024" rx="32" fill="#060910"/>
  <rect x="16" y="16" width="736" height="992" rx="24" fill="url(#bg-riftforged-sentinel-c03)"/>
  <rect x="16" y="16" width="736" height="992" rx="24" fill="url(#glow-riftforged-sentinel-c03)"/>

  <g opacity="0.88">
    <polygon points="384.00,327.68 543.63,419.84 543.63,604.16 384.00,696.32 224.37,604.16 224.37,419.84" fill="none" stroke="#2ee6ff" stroke-width="10" opacity="0.7"/>
<polygon points="384.00,327.68 543.63,419.84 543.63,604.16 384.00,696.32 224.37,604.16 224.37,419.84" fill="none" stroke="#d8fbff" stroke-width="3" opacity="0.95" transform="scale(0.78) translate(107.52000000000001,143.36)"/>
  </g>

  <g opacity="0.8">
    <circle cx="26.99" cy="709.83" r="3.04" fill="#d8fbff" opacity="0.63"/><circle cx="503.42" cy="98.09" r="1.40" fill="#2ee6ff" opacity="0.53"/><circle cx="422.65" cy="824.94" r="2.64" fill="#d8fbff" opacity="0.36"/><circle cx="615.85" cy="280.41" r="1.77" fill="#2ee6ff" opacity="0.39"/><circle cx="295.17" cy="920.22" r="4.91" fill="#d8fbff" opacity="0.26"/><circle cx="111.76" cy="583.75" r="3.88" fill="#2ee6ff" opacity="0.59"/><circle cx="225.86" cy="754.05" r="4.79" fill="#d8fbff" opacity="0.24"/><circle cx="458.64" cy="533.14" r="3.39" fill="#2ee6ff" opacity="0.70"/><circle cx="242.03" cy="439.62" r="2.43" fill="#d8fbff" opacity="0.50"/><circle cx="304.22" cy="807.44" r="4.62" fill="#2ee6ff" opacity="0.34"/><circle cx="650.63" cy="879.43" r="4.62" fill="#d8fbff" opacity="0.48"/><circle cx="254.55" cy="178.50" r="1.59" fill="#2ee6ff" opacity="0.25"/><circle cx="416.74" cy="939.83" r="2.62" fill="#d8fbff" opacity="0.59"/><circle cx="70.86" cy="140.88" r="4.67" fill="#2ee6ff" opacity="0.42"/><circle cx="439.18" cy="891.36" r="3.09" fill="#d8fbff" opacity="0.71"/><circle cx="273.26" cy="931.86" r="3.04" fill="#2ee6ff" opacity="0.26"/><circle cx="590.20" cy="246.38" r="4.65" fill="#d8fbff" opacity="0.56"/><circle cx="272.87" cy="865.48" r="4.34" fill="#2ee6ff" opacity="0.65"/><circle cx="462.66" cy="234.31" r="2.26" fill="#d8fbff" opacity="0.58"/><circle cx="638.37" cy="821.63" r="4.24" fill="#2ee6ff" opacity="0.25"/><circle cx="601.40" cy="887.85" r="3.48" fill="#d8fbff" opacity="0.74"/><circle cx="147.26" cy="221.92" r="1.83" fill="#2ee6ff" opacity="0.60"/><circle cx="691.95" cy="292.26" r="3.31" fill="#d8fbff" opacity="0.47"/><circle cx="694.38" cy="1021.22" r="2.54" fill="#2ee6ff" opacity="0.29"/><circle cx="590.05" cy="109.83" r="1.80" fill="#d8fbff" opacity="0.50"/><circle cx="581.91" cy="114.21" r="1.49" fill="#2ee6ff" opacity="0.66"/><circle cx="330.21" cy="726.65" r="4.43" fill="#d8fbff" opacity="0.39"/><circle cx="216.73" cy="147.35" r="4.07" fill="#2ee6ff" opacity="0.49"/>
  </g>

  <rect x="16" y="16" width="736" height="992" rx="24" stroke="url(#edge-riftforged-sentinel-c03)" stroke-width="2.5" opacity="0.85"/>
  <rect x="22" y="22" width="724" height="980" rx="20" stroke="#8aa0c4" stroke-width="2" opacity="0.74"/>

  <rect x="34" y="34" width="700" height="72" rx="14" fill="#070b14" fill-opacity="0.72" stroke="#8aa0c4" stroke-opacity="0.55"/>
  <text x="54" y="80" fill="#EAF4FF" font-family="Exo 2, Segoe UI, sans-serif" font-size="32" font-weight="700">Riftforged Sentinel</text>

  <rect x="34" y="872" width="700" height="92" rx="14" fill="#070b14" fill-opacity="0.74" stroke="#8aa0c4" stroke-opacity="0.6"/>
  <text x="54" y="924" fill="#D9E7FF" font-family="Exo 2, Segoe UI, sans-serif" font-size="30" font-weight="600">Bulwark</text>

  <rect x="598" y="36" width="118" height="42" rx="10" fill="#8aa0c4" fill-opacity="0.2" stroke="#8aa0c4" stroke-opacity="0.8"/>
  <text x="612" y="65" fill="#8aa0c4" font-family="Exo 2, Segoe UI, sans-serif" font-size="20" font-weight="700">COMMON</text>

  <circle cx="708" cy="954" r="26" fill="#080d18" stroke="#8aa0c4" stroke-opacity="0.8"/>
  <text x="696" y="962" fill="#E7F2FF" font-family="Exo 2, Segoe UI, sans-serif" font-size="24" font-weight="700">03</text>
</svg>