<?xml version="1.0" encoding="UTF-8"?>
<svg width="768" height="1024" viewBox="0 0 768 1024" fill="none" xmlns="http://www.w3.org/2000/svg">
  <defs>
    <linearGradient id="bg-riftforged-sentinel-c08" x1="60" y1="40" x2="728" y2="1004" gradientUnits="userSpaceOnUse">
      <stop offset="0" stop-color="#0a1e3f"/>
      <stop offset="0.55" stop-color="#204f8a"/>
      <stop offset="1" stop-color="#0a1e3f"/>
    </linearGradient>
    <radialGradient id="glow-riftforged-sentinel-c08" cx="0" cy="0" r="1" gradientUnits="userSpaceOnUse" gradientTransform="translate(508.51 473.45) rotate(90) scale(226.38 226.38)">
      <stop stop-color="#2ee6ff" stop-opacity="0.45"/>
      <stop offset="1" stop-color="#2ee6ff" stop-opacity="0"/>
    </radialGradient>
    <linearGradient id="edge-riftforged-sentinel-c08" x1="0" y1="0" x2="768" y2="1024" gradientUnits="userSpaceOnUse">
      <stop stop-color="#2ee6ff" stop-opacity="0.85"/>
      <stop offset="1" stop-color="#d8fbff" stop-opacity="0.85"/>
    </linearGradient>
  </defs>

  <rect x="0" y="0" width="768" height="1024" rx="32" fill="#060910"/>
  <rect x="16" y="16" width="736" height="992" rx="24" fill="url(#bg-riftforged-sentinel-c08)"/>
  <rect x="16" y="16" width="736" height="992" rx="24" fill="url(#glow-riftforged-sentinel-c08)"/>

  <g opacity="0.88">
    <polygon points="384.00,327.68 543.63,419.84 543.63,604.16 384.00,696.32 224.37,604.16 224.37,419.84" fill="none" stroke="#2ee6ff" stroke-width="10" opacity="0.7"/>
<polygon points="384.00,327.68 543.63,419.84 543.63,604.16 384.00,696.32 224.37,604.16 224.37,419.84" fill="none" stroke="#d8fbff" stroke-width="3" opacity="0.95" transform="scale(0.78) translate(107.52000000000001,143.36)"/>
  </g>

  <g opacity="0.8">
    <circle cx="715.90" cy="98.53" r="1.94" fill="#d8fbff" opacity="0.30"/><circle cx="710.01" cy="320.72" r="2.91" fill="#2ee6ff" opacity="0.34"/><circle cx="32.39" cy="643.75" r="3.38" fill="#d8fbff" opacity="0.61"/><circle cx="77.55" cy="832.30" r="4.21" fill="#2ee6ff" opacity="0.31"/><circle cx="739.72" cy="577.88" r="1.56" fill="#d8fbff" opacity="0.28"/><circle cx="670.92" cy="28.59" r="4.99" fill="#2ee6ff" opacity="0.59"/><circle cx="224.72" cy="840.04" r="1.83" fill="#d8fbff" opacity="0.27"/><circle cx="426.78" cy="817.36" r="3.30" fill="#2ee6ff" opacity="0.43"/><circle cx="11.80" cy="5.63" r="1.52" fill="#d8fbff" opacity="0.73"/><circle cx="704.12" cy="776.72" r="1.64" fill="#2ee6ff" opacity="0.34"/><circle cx="521.20" cy="232.68" r="1.37" fill="#d8fbff" opacity="0.32"/><circle cx="303.37" cy="410.09" r="3.13" fill="#2ee6ff" opacity="0.25"/><circle cx="597.54" cy="378.58" r="1.29" fill="#d8fbff" opacity="0.45"/><circle cx="479.75" cy="111.30" r="4.13" fill="#2ee6ff" opacity="0.36"/><circle cx="196.11" cy="227.32" r="2.74" fill="#d8fbff" opacity="0.32"/><circle cx="543.03" cy="489.91" r="1.44" fill="#2ee6ff" opacity="0.33"/><circle cx="471.65" cy="924.65" r="4.48" fill="#d8fbff" opacity="0.57"/><circle cx="656.99" cy="818.55" r="4.09" fill="#2ee6ff" opacity="0.72"/><circle cx="201.90" cy="793.43" r="1.75" fill="#d8fbff" opacity="0.60"/><circle cx="274.15" cy="589.20" r="2.09" fill="#2ee6ff" opacity="0.41"/><circle cx="692.92" cy="727.00" r="1.36" fill="#d8fbff" opacity="0.55"/><circle cx="205.26" cy="41.38" r="1.22" fill="#2ee6ff" opacity="0.46"/><circle cx="91.86" cy="111.31" r="2.36" fill="#d8fbff" opacity="0.36"/><circle cx="762.23" cy="778.32" r="2.59" fill="#2ee6ff" opacity="0.73"/><circle cx="685.17" cy="933.17" r="4.07" fill="#d8fbff" opacity="0.55"/><circle cx="438.09" cy="40.89" r="4.72" fill="#2ee6ff" opacity="0.47"/><circle cx="670.96" cy="588.50" r="2.91" fill="#d8fbff" opacity="0.28"/><circle cx="315.74" cy="616.35" r="3.66" fill="#2ee6ff" opacity="0.72"/>
  </g>

  <rect x="16" y="16" width="736" height="992" rx="24" stroke="url(#edge-riftforged-sentinel-c08)" stroke-width="2.5" opacity="0.85"/>
  <rect x="22" y="22" width="724" height="980" rx="20" stroke="#8aa0c4" stroke-width="2" opacity="0.74"/>

  <rect x="34" y="34" width="700" height="72" rx="14" fill="#070b14" fill-opacity="0.72" stroke="#8aa0c4" stroke-opacity="0.55"/>
  <text x="54" y="80" fill="#EAF4FF" font-family="Exo 2, Segoe UI, sans-serif" font-size="32" font-weight="700">Riftforged Sentinel</text>

  <rect x="34" y="872" width="700" height="92" rx="14" fill="#070b14" fill-opacity="0.74" stroke="#8aa0c4" stroke-opacity="0.6"/>
  <text x="54" y="924" fill="#D9E7FF" font-family="Exo 2, Segoe UI, sans-serif" font-size="30" font-weight="600">Guardian</text>

  <rect x="598" y="36" width="118" height="42" rx="10" fill="#8aa0c4" fill-opacity="0.2" stroke="#8aa0c4" stroke-opacity="0.8"/>
  <text x="612" y="65" fill="#8aa0c4" font-family="Exo 2, Segoe UI, sans-serif" font-size="20" font-weight="700">COMMON</text>

  <circle cx="708" cy="954" r="26" fill="#080d18" stroke="#8aa0c4" stroke-opacity="0.8"/>
  <text x="696" y="962" fill="#E7F2FF" font-family="Exo 2, Segoe UI, sans-serif" font-size="24" font-weight="700">08</text>
</svg>