<?xml version="1.0" encoding="UTF-8"?>
<svg width="768" height="1024" viewBox="0 0 768 1024" fill="none" xmlns="http://www.w3.org/2000/svg">
  <defs>
    <linearGradient id="bg-riftforged-sentinel-c37" x1="60" y1="40" x2="728" y2="1004" gradientUnits="userSpaceOnUse">
      <stop offset="0" stop-color="#0a1e3f"/>
      <stop offset="0.55" stop-color="#204f8a"/>
      <stop offset="1" stop-color="#0a1e3f"/>
    </linearGradient>
    <radialGradient id="glow-riftforged-sentinel-c37" cx="0" cy="0" r="1" gradientUnits="userSpaceOnUse" gradientTransform="translate(584.54 541.69) rotate(90) scale(241.28 241.28)">
      <stop stop-color="#2ee6ff" stop-opacity="0.45"/>
      <stop offset="1" stop-color="#2ee6ff" stop-opacity="0"/>
    </radialGradient>
    <linearGradient id="edge-riftforged-sentinel-c37" x1="0" y1="0" x2="768" y2="1024" gradientUnits="userSpaceOnUse">
      <stop stop-color="#2ee6ff" stop-opacity="0.85"/>
      <stop offset="1" stop-color="#d8fbff" stop-opacity="0.85"/>
    </linearGradient>
  </defs>

  <rect x="0" y="0" width="768" height="1024" rx="32" fill="#060910"/>
  <rect x="16" y="16" width="736" height="992" rx="24" fill="url(#bg-riftforged-sentinel-c37)"/>
  <rect x="16" y="16" width="736" height="992" rx="24" fill="url(#glow-riftforged-sentinel-c37)"/>

  <g opacity="0.88">
    <polygon points="384.00,327.68 543.63,419.84 543.63,604.16 384.00,696.32 224.37,604.16 224.37,419.84" fill="none" stroke="#2ee6ff" stroke-width="10" opacity="0.7"/>
<polygon points="384.00,327.68 543.63,419.84 543.63,604.16 384.00,696.32 224.37,604.16 224.37,419.84" fill="none" stroke="#d8fbff" stroke-width="3" opacity="0.95" transform="scale(0.78) translate(107.52000000000001,143.36)"/>
  </g>

  <g opacity="0.8">
    <circle cx="661.98" cy="422.86" r="4.60" fill="#d8fbff" opacity="0.44"/><circle cx="192.88" cy="267.93" r="2.04" fill="#2ee6ff" opacity="0.25"/><circle cx="292.97" cy="349.85" r="2.81" fill="#d8fbff" opacity="0.47"/><circle cx="649.41" cy="443.48" r="3.17" fill="#2ee6ff" opacity="0.70"/><circle cx="150.80" cy="593.47" r="1.35" fill="#d8fbff" opacity="0.66"/><circle cx="529.21" cy="785.41" r="3.14" fill="#2ee6ff" opacity="0.44"/><circle cx="610.84" cy="375.34" r="1.35" fill="#d8fbff" opacity="0.53"/><circle cx="198.28" cy="78.82" r="4.97" fill="#2ee6ff" opacity="0.73"/><circle cx="343.66" cy="376.16" r="2.64" fill="#d8fbff" opacity="0.64"/><circle cx="271.89" cy="468.08" r="2.54" fill="#2ee6ff" opacity="0.41"/><circle cx="450.06" cy="350.38" r="3.51" fill="#d8fbff" opacity="0.37"/><circle cx="14.98" cy="188.99" r="2.38" fill="#2ee6ff" opacity="0.32"/><circle cx="356.16" cy="846.33" r="2.36" fill="#d8fbff" opacity="0.73"/><circle cx="339.27" cy="651.02" r="1.51" fill="#2ee6ff" opacity="0.40"/><circle cx="43.61" cy="704.41" r="2.67" fill="#d8fbff" opacity="0.41"/><circle cx="740.86" cy="50.42" r="3.26" fill="#2ee6ff" opacity="0.36"/><circle cx="393.65" cy="868.79" r="4.61" fill="#d8fbff" opacity="0.43"/><circle cx="227.37" cy="768.32" r="3.96" fill="#2ee6ff" opacity="0.26"/><circle cx="526.20" cy="217.56" r="2.72" fill="#d8fbff" opacity="0.44"/><circle cx="508.87" cy="131.30" r="4.65" fill="#2ee6ff" opacity="0.58"/><circle cx="168.37" cy="260.73" r="4.20" fill="#d8fbff" opacity="0.49"/><circle cx="383.36" cy="148.54" r="3.74" fill="#2ee6ff" opacity="0.36"/><circle cx="173.80" cy="901.14" r="4.25" fill="#d8fbff" opacity="0.70"/><circle cx="559.59" cy="126.32" r="2.37" fill="#2ee6ff" opacity="0.68"/><circle cx="454.80" cy="346.15" r="4.03" fill="#d8fbff" opacity="0.59"/><circle cx="217.05" cy="134.94" r="3.14" fill="#2ee6ff" opacity="0.35"/><circle cx="429.70" cy="197.25" r="3.35" fill="#d8fbff" opacity="0.62"/><circle cx="406.72" cy="991.05" r="3.66" fill="#2ee6ff" opacity="0.51"/>
  </g>

  <rect x="16" y="16" width="736" height="992" rx="24" stroke="url(#edge-riftforged-sentinel-c37)" stroke-width="2.5" opacity="0.85"/>
  <rect x="22" y="22" width="724" height="980" rx="20" stroke="#78d8ff" stroke-width="2" opacity="0.74"/>

  <rect x="34" y="34" width="700" height="72" rx="14" fill="#070b14" fill-opacity="0.72" stroke="#78d8ff" stroke-opacity="0.55"/>
  <text x="54" y="80" fill="#EAF4FF" font-family="Exo 2, Segoe UI, sans-serif" font-size="32" font-weight="700">Riftforged Sentinel</text>

  <rect x="34" y="872" width="700" height="92" rx="14" fill="#070b14" fill-opacity="0.74" stroke="#78d8ff" stroke-opacity="0.6"/>
  <text x="54" y="924" fill="#D9E7FF" font-family="Exo 2, Segoe UI, sans-serif" font-size="30" font-weight="600">Debilitate</text>

  <rect x="598" y="36" width="118" height="42" rx="10" fill="#78d8ff" fill-opacity="0.2" stroke="#78d8ff" stroke-opacity="0.8"/>
  <text x="612" y="65" fill="#78d8ff" font-family="Exo 2, Segoe UI, sans-serif" font-size="20" font-weight="700">RARE</text>

  <circle cx="708" cy="954" r="26" fill="#080d18" stroke="#78d8ff" stroke-opacity="0.8"/>
  <text x="696" y="962" fill="#E7F2FF" font-family="Exo 2, Segoe UI, sans-serif" font-size="24" font-weight="700">37</text>
</svg>