<?xml version="1.0" encoding="UTF-8"?>
<svg width="768" height="1024" viewBox="0 0 768 1024" fill="none" xmlns="http://www.w3.org/2000/svg">
  <defs>
    <linearGradient id="bg-riftforged-sentinel-c47" x1="60" y1="40" x2="728" y2="1004" gradientUnits="userSpaceOnUse">
      <stop offset="0" stop-color="#0a1e3f"/>
      <stop offset="0.55" stop-color="#204f8a"/>
      <stop offset="1" stop-color="#0a1e3f"/>
    </linearGradient>
    <radialGradient id="glow-riftforged-sentinel-c47" cx="0" cy="0" r="1" gradientUnits="userSpaceOnUse" gradientTransform="translate(631.55 369.69) rotate(90) scale(240.62 240.62)">
      <stop stop-color="#2ee6ff" stop-opacity="0.45"/>
      <stop offset="1" stop-color="#2ee6ff" stop-opacity="0"/>
    </radialGradient>
    <linearGradient id="edge-riftforged-sentinel-c47" x1="0" y1="0" x2="768" y2="1024" gradientUnits="userSpaceOnUse">
      <stop stop-color="#2ee6ff" stop-opacity="0.85"/>
      <stop offset="1" stop-color="#d8fbff" stop-opacity="0.85"/>
    </linearGradient>
  </defs>

  <rect x="0" y="0" width="768" height="1024" rx="32" fill="#060910"/>
  <rect x="16" y="16" width="736" height="992" rx="24" fill="url(#bg-riftforged-sentinel-c47)"/>
  <rect x="16" y="16" width="736" height="992" rx="24" fill="url(#glow-riftforged-sentinel-c47)"/>

  <g opacity="0.88">
    <polygon points="384.00,327.68 543.63,419.84 543.63,604.16 384.00,696.32 224.37,604.16 224.37,419.84" fill="none" stroke="#2ee6ff" stroke-width="10" opacity="0.7"/>
<polygon points="384.00,327.68 543.63,419.84 543.63,604.16 384.00,696.32 224.37,604.16 224.37,419.84" fill="none" stroke="#d8fbff" stroke-width="3" opacity="0.95" transform="scale(0.78) translate(107.52000000000001,143.36)"/>
  </g>

  <g opacity="0.8">
    <circle cx="11.33" cy="858.56" r="2.95" fill="#d8fbff" opacity="0.48"/><circle cx="607.79" cy="749.56" r="1.67" fill="#2ee6ff" opacity="0.45"/><circle cx="755.50" cy="909.86" r="3.70" fill="#d8fbff" opacity="0.71"/><circle cx="493.30" cy="74.99" r="1.68" fill="#2ee6ff" opacity="0.39"/><circle cx="80.47" cy="78.12" r="2.93" fill="#d8fbff" opacity="0.66"/><circle cx="747.67" cy="763.30" r="2.72" fill="#2ee6ff" opacity="0.61"/><circle cx="434.48" cy="889.42" r="2.89" fill="#d8fbff" opacity="0.50"/><circle cx="305.65" cy="377.35" r="1.81" fill="#2ee6ff" opacity="0.27"/><circle cx="136.12" cy="149.36" r="1.69" fill="#d8fbff" opacity="0.37"/><circle cx="40.15" cy="435.74" r="1.26" fill="#2ee6ff" opacity="0.29"/><circle cx="547.19" cy="568.85" r="4.08" fill="#d8fbff" opacity="0.44"/><circle cx="250.80" cy="151.84" r="4.14" fill="#2ee6ff" opacity="0.50"/><circle cx="668.78" cy="16.80" r="2.36" fill="#d8fbff" opacity="0.72"/><circle cx="93.92" cy="801.80" r="1.99" fill="#2ee6ff" opacity="0.73"/><circle cx="53.57" cy="683.15" r="4.84" fill="#d8fbff" opacity="0.26"/><circle cx="711.33" cy="536.07" r="3.82" fill="#2ee6ff" opacity="0.57"/><circle cx="765.42" cy="170.47" r="4.15" fill="#d8fbff" opacity="0.58"/><circle cx="523.28" cy="547.18" r="2.12" fill="#2ee6ff" opacity="0.35"/><circle cx="200.46" cy="146.75" r="4.17" fill="#d8fbff" opacity="0.65"/><circle cx="19.18" cy="468.00" r="4.74" fill="#2ee6ff" opacity="0.45"/><circle cx="391.42" cy="614.76" r="3.17" fill="#d8fbff" opacity="0.36"/><circle cx="747.88" cy="461.55" r="2.38" fill="#2ee6ff" opacity="0.32"/><circle cx="553.58" cy="255.83" r="2.94" fill="#d8fbff" opacity="0.49"/><circle cx="52.07" cy="998.65" r="1.63" fill="#2ee6ff" opacity="0.29"/><circle cx="597.55" cy="813.79" r="3.10" fill="#d8fbff" opacity="0.38"/><circle cx="399.08" cy="1002.32" r="3.19" fill="#2ee6ff" opacity="0.72"/><circle cx="114.67" cy="48.78" r="4.05" fill="#d8fbff" opacity="0.72"/><circle cx="555.09" cy="197.86" r="4.91" fill="#2ee6ff" opacity="0.26"/>
  </g>

  <rect x="16" y="16" width="736" height="992" rx="24" stroke="url(#edge-riftforged-sentinel-c47)" stroke-width="2.5" opacity="0.85"/>
  <rect x="22" y="22" width="724" height="980" rx="20" stroke="#f0a0ff" stroke-width="2" opacity="0.74"/>

  <rect x="34" y="34" width="700" height="72" rx="14" fill="#070b14" fill-opacity="0.72" stroke="#f0a0ff" stroke-opacity="0.55"/>
  <text x="54" y="80" fill="#EAF4FF" font-family="Exo 2, Segoe UI, sans-serif" font-size="32" font-weight="700">Riftforged Sentinel</text>

  <rect x="34" y="872" width="700" height="92" rx="14" fill="#070b14" fill-opacity="0.74" stroke="#f0a0ff" stroke-opacity="0.6"/>
  <text x="54" y="924" fill="#D9E7FF" font-family="Exo 2, Segoe UI, sans-serif" font-size="30" font-weight="600">Epic Volley</text>

  <rect x="598" y="36" width="118" height="42" rx="10" fill="#f0a0ff" fill-opacity="0.2" stroke="#f0a0ff" stroke-opacity="0.8"/>
  <text x="612" y="65" fill="#f0a0ff" font-family="Exo 2, Segoe UI, sans-serif" font-size="20" font-weight="700">EPIC</text>

  <circle cx="708" cy="954" r="26" fill="#080d18" stroke="#f0a0ff" stroke-opacity="0.8"/>
  <text x="696" y="962" fill="#E7F2FF" font-family="Exo 2, Segoe UI, sans-serif" font-size="24" font-weight="700">47</text>
</svg>