<?xml version="1.0" encoding="UTF-8"?>
<svg width="768" height="1024" viewBox="0 0 768 1024" fill="none" xmlns="http://www.w3.org/2000/svg">
  <defs>
    <linearGradient id="bg-riftforged-sentinel-c04" x1="60" y1="40" x2="728" y2="1004" gradientUnits="userSpaceOnUse">
      <stop offset="0" stop-color="#0a1e3f"/>
      <stop offset="0.55" stop-color="#204f8a"/>
      <stop offset="1" stop-color="#0a1e3f"/>
    </linearGradient>
    <radialGradient id="glow-riftforged-sentinel-c04" cx="0" cy="0" r="1" gradientUnits="userSpaceOnUse" gradientTransform="translate(559.97 346.08) rotate(90) scale(221.83 221.83)">
      <stop stop-color="#2ee6ff" stop-opacity="0.45"/>
      <stop offset="1" stop-color="#2ee6ff" stop-opacity="0"/>
    </radialGradient>
    <linearGradient id="edge-riftforged-sentinel-c04" x1="0" y1="0" x2="768" y2="1024" gradientUnits="userSpaceOnUse">
      <stop stop-color="#2ee6ff" stop-opacity="0.85"/>
      <stop offset="1" stop-color="#d8fbff" stop-opacity="0.85"/>
    </linearGradient>
  </defs>

  <rect x="0" y="0" width="768" height="1024" rx="32" fill="#060910"/>
  <rect x="16" y="16" width="736" height="992" rx="24" fill="url(#bg-riftforged-sentinel-c04)"/>
  <rect x="16" y="16" width="736" height="992" rx="24" fill="url(#glow-riftforged-sentinel-c04)"/>

  <g opacity="0.88">
    <polygon points="384.00,327.68 543.63,419.84 543.63,604.16 384.00,696.32 224.37,604.16 224.37,419.84" fill="none" stroke="#2ee6ff" stroke-width="10" opacity="0.7"/>
<polygon points="384.00,327.68 543.63,419.84 543.63,604.16 384.00,696.32 224.37,604.16 224.37,419.84" fill="none" stroke="#d8fbff" stroke-width="3" opacity="0.95" transform="scale(0.78) translate(107.52000000000001,143.36)"/>
  </g>

  <g opacity="0.8">
    <circle cx="134.67" cy="990.29" r="2.44" fill="#d8fbff" opacity="0.39"/><circle cx="421.50" cy="742.96" r="1.88" fill="#2ee6ff" opacity="0.42"/><circle cx="15.11" cy="456.09" r="1.73" fill="#d8fbff" opacity="0.29"/><circle cx="255.47" cy="72.02" r="2.20" fill="#2ee6ff" opacity="0.67"/><circle cx="84.84" cy="254.04" r="2.55" fill="#d8fbff" opacity="0.57"/><circle cx="268.86" cy="704.77" r="4.48" fill="#2ee6ff" opacity="0.70"/><circle cx="345.40" cy="824.00" r="4.36" fill="#d8fbff" opacity="0.71"/><circle cx="490.94" cy="532.24" r="3.93" fill="#2ee6ff" opacity="0.28"/><circle cx="594.02" cy="381.77" r="3.58" fill="#d8fbff" opacity="0.66"/><circle cx="288.78" cy="87.99" r="4.17" fill="#2ee6ff" opacity="0.54"/><circle cx="263.70" cy="386.43" r="1.56" fill="#d8fbff" opacity="0.70"/><circle cx="667.76" cy="653.51" r="1.80" fill="#2ee6ff" opacity="0.37"/><circle cx="307.46" cy="725.64" r="2.25" fill="#d8fbff" opacity="0.68"/><circle cx="332.86" cy="590.74" r="1.44" fill="#2ee6ff" opacity="0.43"/><circle cx="461.53" cy="568.94" r="2.97" fill="#d8fbff" opacity="0.68"/><circle cx="299.74" cy="372.30" r="2.87" fill="#2ee6ff" opacity="0.57"/><circle cx="583.11" cy="1019.01" r="2.90" fill="#d8fbff" opacity="0.63"/><circle cx="372.57" cy="937.94" r="1.93" fill="#2ee6ff" opacity="0.34"/><circle cx="302.35" cy="421.19" r="2.52" fill="#d8fbff" opacity="0.36"/><circle cx="687.36" cy="617.66" r="2.51" fill="#2ee6ff" opacity="0.55"/><circle cx="533.10" cy="266.36" r="2.30" fill="#d8fbff" opacity="0.30"/><circle cx="729.80" cy="572.67" r="3.67" fill="#2ee6ff" opacity="0.56"/><circle cx="617.84" cy="558.61" r="4.02" fill="#d8fbff" opacity="0.48"/><circle cx="646.20" cy="152.98" r="4.81" fill="#2ee6ff" opacity="0.37"/><circle cx="119.03" cy="316.86" r="2.58" fill="#d8fbff" opacity="0.35"/><circle cx="745.99" cy="16.92" r="2.78" fill="#2ee6ff" opacity="0.74"/><circle cx="288.00" cy="650.80" r="3.73" fill="#d8fbff" opacity="0.72"/><circle cx="199.73" cy="834.20" r="5.00" fill="#2ee6ff" opacity="0.51"/>
  </g>

  <rect x="16" y="16" width="736" height="992" rx="24" stroke="url(#edge-riftforged-sentinel-c04)" stroke-width="2.5" opacity="0.85"/>
  <rect x="22" y="22" width="724" height="980" rx="20" stroke="#8aa0c4" stroke-width="2" opacity="0.74"/>

  <rect x="34" y="34" width="700" height="72" rx="14" fill="#070b14" fill-opacity="0.72" stroke="#8aa0c4" stroke-opacity="0.55"/>
  <text x="54" y="80" fill="#EAF4FF" font-family="Exo 2, Segoe UI, sans-serif" font-size="32" font-weight="700">Riftforged Sentinel</text>

  <rect x="34" y="872" width="700" height="92" rx="14" fill="#070b14" fill-opacity="0.74" stroke="#8aa0c4" stroke-opacity="0.6"/>
  <text x="54" y="924" fill="#D9E7FF" font-family="Exo 2, Segoe UI, sans-serif" font-size="30" font-weight="600">Duelist</text>

  <rect x="598" y="36" width="118" height="42" rx="10" fill="#8aa0c4" fill-opacity="0.2" stroke="#8aa0c4" stroke-opacity="0.8"/>
  <text x="612" y="65" fill="#8aa0c4" font-family="Exo 2, Segoe UI, sans-serif" font-size="20" font-weight="700">COMMON</text>

  <circle cx="708" cy="954" r="26" fill="#080d18" stroke="#8aa0c4" stroke-opacity="0.8"/>
  <text x="696" y="962" fill="#E7F2FF" font-family="Exo 2, Segoe UI, sans-serif" font-size="24" font-weight="700">04</text>
</svg>