<?xml version="1.0" encoding="UTF-8"?>
<svg width="768" height="1024" viewBox="0 0 768 1024" fill="none" xmlns="http://www.w3.org/2000/svg">
  <defs>
    <linearGradient id="bg-riftforged-sentinel-c39" x1="60" y1="40" x2="728" y2="1004" gradientUnits="userSpaceOnUse">
      <stop offset="0" stop-color="#0a1e3f"/>
      <stop offset="0.55" stop-color="#204f8a"/>
      <stop offset="1" stop-color="#0a1e3f"/>
    </linearGradient>
    <radialGradient id="glow-riftforged-sentinel-c39" cx="0" cy="0" r="1" gradientUnits="userSpaceOnUse" gradientTransform="translate(386.37 540.64) rotate(90) scale(185.22 185.22)">
      <stop stop-color="#2ee6ff" stop-opacity="0.45"/>
      <stop offset="1" stop-color="#2ee6ff" stop-opacity="0"/>
    </radialGradient>
    <linearGradient id="edge-riftforged-sentinel-c39" x1="0" y1="0" x2="768" y2="1024" gradientUnits="userSpaceOnUse">
      <stop stop-color="#2ee6ff" stop-opacity="0.85"/>
      <stop offset="1" stop-color="#d8fbff" stop-opacity="0.85"/>
    </linearGradient>
  </defs>

  <rect x="0" y="0" width="768" height="1024" rx="32" fill="#060910"/>
  <rect x="16" y="16" width="736" height="992" rx="24" fill="url(#bg-riftforged-sentinel-c39)"/>
  <rect x="16" y="16" width="736" height="992" rx="24" fill="url(#glow-riftforged-sentinel-c39)"/>

  <g opacity="0.88">
    <polygon points="384.00,327.68 543.63,419.84 543.63,604.16 384.00,696.32 224.37,604.16 224.37,419.84" fill="none" stroke="#2ee6ff" stroke-width="10" opacity="0.7"/>
<polygon points="384.00,327.68 543.63,419.84 543.63,604.16 384.00,696.32 224.37,604.16 224.37,419.84" fill="none" stroke="#d8fbff" stroke-width="3" opacity="0.95" transform="scale(0.78) translate(107.52000000000001,143.36)"/>
  </g>

  <g opacity="0.8">
    <circle cx="350.88" cy="680.91" r="4.73" fill="#d8fbff" opacity="0.53"/><circle cx="360.54" cy="933.22" r="3.37" fill="#2ee6ff" opacity="0.55"/><circle cx="387.67" cy="189.23" r="2.46" fill="#d8fbff" opacity="0.42"/><circle cx="350.57" cy="890.34" r="4.84" fill="#2ee6ff" opacity="0.62"/><circle cx="730.97" cy="508.92" r="3.45" fill="#d8fbff" opacity="0.41"/><circle cx="451.74" cy="657.77" r="2.82" fill="#2ee6ff" opacity="0.72"/><circle cx="644.73" cy="519.48" r="2.53" fill="#d8fbff" opacity="0.48"/><circle cx="433.12" cy="213.36" r="2.09" fill="#2ee6ff" opacity="0.27"/><circle cx="653.06" cy="240.55" r="1.47" fill="#d8fbff" opacity="0.65"/><circle cx="681.61" cy="181.67" r="2.07" fill="#2ee6ff" opacity="0.40"/><circle cx="509.42" cy="175.42" r="3.22" fill="#d8fbff" opacity="0.71"/><circle cx="356.26" cy="578.21" r="3.94" fill="#2ee6ff" opacity="0.68"/><circle cx="612.25" cy="396.79" r="4.66" fill="#d8fbff" opacity="0.54"/><circle cx="332.16" cy="214.58" r="2.75" fill="#2ee6ff" opacity="0.67"/><circle cx="343.24" cy="1014.55" r="1.93" fill="#d8fbff" opacity="0.72"/><circle cx="127.92" cy="84.39" r="3.64" fill="#2ee6ff" opacity="0.49"/><circle cx="462.03" cy="513.98" r="4.05" fill="#d8fbff" opacity="0.24"/><circle cx="193.78" cy="662.60" r="3.54" fill="#2ee6ff" opacity="0.35"/><circle cx="6.71" cy="866.75" r="4.68" fill="#d8fbff" opacity="0.51"/><circle cx="488.18" cy="564.31" r="4.70" fill="#2ee6ff" opacity="0.63"/><circle cx="368.83" cy="626.87" r="4.30" fill="#d8fbff" opacity="0.70"/><circle cx="320.62" cy="759.45" r="1.68" fill="#2ee6ff" opacity="0.35"/><circle cx="289.19" cy="603.90" r="4.95" fill="#d8fbff" opacity="0.72"/><circle cx="592.52" cy="134.45" r="4.02" fill="#2ee6ff" opacity="0.57"/><circle cx="545.73" cy="749.12" r="4.15" fill="#d8fbff" opacity="0.40"/><circle cx="627.10" cy="150.47" r="2.28" fill="#2ee6ff" opacity="0.70"/><circle cx="4.19" cy="514.31" r="3.23" fill="#d8fbff" opacity="0.49"/><circle cx="624.40" cy="1006.22" r="2.68" fill="#2ee6ff" opacity="0.61"/>
  </g>

  <rect x="16" y="16" width="736" height="992" rx="24" stroke="url(#edge-riftforged-sentinel-c39)" stroke-width="2.5" opacity="0.85"/>
  <rect x="22" y="22" width="724" height="980" rx="20" stroke="#78d8ff" stroke-width="2" opacity="0.74"/>

  <rect x="34" y="34" width="700" height="72" rx="14" fill="#070b14" fill-opacity="0.72" stroke="#78d8ff" stroke-opacity="0.55"/>
  <text x="54" y="80" fill="#EAF4FF" font-family="Exo 2, Segoe UI, sans-serif" font-size="32" font-weight="700">Riftforged Sentinel</text>

  <rect x="34" y="872" width="700" height="92" rx="14" fill="#070b14" fill-opacity="0.74" stroke="#78d8ff" stroke-opacity="0.6"/>
  <text x="54" y="924" fill="#D9E7FF" font-family="Exo 2, Segoe UI, sans-serif" font-size="30" font-weight="600">Ward</text>

  <rect x="598" y="36" width="118" height="42" rx="10" fill="#78d8ff" fill-opacity="0.2" stroke="#78d8ff" stroke-opacity="0.8"/>
  <text x="612" y="65" fill="#78d8ff" font-family="Exo 2, Segoe UI, sans-serif" font-size="20" font-weight="700">RARE</text>

  <circle cx="708" cy="954" r="26" fill="#080d18" stroke="#78d8ff" stroke-opacity="0.8"/>
  <text x="696" y="962" fill="#E7F2FF" font-family="Exo 2, Segoe UI, sans-serif" font-size="24" font-weight="700">39</text>
</svg>