<?xml version="1.0" encoding="UTF-8"?>
<svg width="768" height="1024" viewBox="0 0 768 1024" fill="none" xmlns="http://www.w3.org/2000/svg">
  <defs>
    <linearGradient id="bg-riftforged-sentinel-c23" x1="60" y1="40" x2="728" y2="1004" gradientUnits="userSpaceOnUse">
      <stop offset="0" stop-color="#0a1e3f"/>
      <stop offset="0.55" stop-color="#204f8a"/>
      <stop offset="1" stop-color="#0a1e3f"/>
    </linearGradient>
    <radialGradient id="glow-riftforged-sentinel-c23" cx="0" cy="0" r="1" gradientUnits="userSpaceOnUse" gradientTransform="translate(170.24 516.67) rotate(90) scale(237.38 237.38)">
      <stop stop-color="#2ee6ff" stop-opacity="0.45"/>
      <stop offset="1" stop-color="#2ee6ff" stop-opacity="0"/>
    </radialGradient>
    <linearGradient id="edge-riftforged-sentinel-c23" x1="0" y1="0" x2="768" y2="1024" gradientUnits="userSpaceOnUse">
      <stop stop-color="#2ee6ff" stop-opacity="0.85"/>
      <stop offset="1" stop-color="#d8fbff" stop-opacity="0.85"/>
    </linearGradient>
  </defs>

  <rect x="0" y="0" width="768" height="1024" rx="32" fill="#060910"/>
  <rect x="16" y="16" width="736" height="992" rx="24" fill="url(#bg-riftforged-sentinel-c23)"/>
  <rect x="16" y="16" width="736" height="992" rx="24" fill="url(#glow-riftforged-sentinel-c23)"/>

  <g opacity="0.88">
    <polygon points="384.00,327.68 543.63,419.84 543.63,604.16 384.00,696.32 224.37,604.16 224.37,419.84" fill="none" stroke="#2ee6ff" stroke-width="10" opacity="0.7"/>
<polygon points="384.00,327.68 543.63,419.84 543.63,604.16 384.00,696.32 224.37,604.16 224.37,419.84" fill="none" stroke="#d8fbff" stroke-width="3" opacity="0.95" transform="scale(0.78) translate(107.52000000000001,143.36)"/>
  </g>

  <g opacity="0.8">
    <circle cx="752.93" cy="781.76" r="4.48" fill="#d8fbff" opacity="0.34"/><circle cx="683.15" cy="768.99" r="2.71" fill="#2ee6ff" opacity="0.34"/><circle cx="122.80" cy="844.08" r="3.83" fill="#d8fbff" opacity="0.49"/><circle cx="307.37" cy="544.08" r="3.39" fill="#2ee6ff" opacity="0.36"/><circle cx="191.89" cy="620.79" r="3.18" fill="#d8fbff" opacity="0.37"/><circle cx="642.99" cy="609.24" r="4.78" fill="#2ee6ff" opacity="0.32"/><circle cx="592.89" cy="663.64" r="4.38" fill="#d8fbff" opacity="0.38"/><circle cx="501.04" cy="871.20" r="3.05" fill="#2ee6ff" opacity="0.55"/><circle cx="538.46" cy="205.02" r="4.26" fill="#d8fbff" opacity="0.30"/><circle cx="418.85" cy="234.20" r="2.62" fill="#2ee6ff" opacity="0.49"/><circle cx="653.63" cy="876.87" r="3.00" fill="#d8fbff" opacity="0.38"/><circle cx="291.85" cy="683.51" r="2.56" fill="#2ee6ff" opacity="0.45"/><circle cx="141.04" cy="809.40" r="2.55" fill="#d8fbff" opacity="0.37"/><circle cx="15.28" cy="86.01" r="4.30" fill="#2ee6ff" opacity="0.49"/><circle cx="286.55" cy="849.78" r="2.51" fill="#d8fbff" opacity="0.53"/><circle cx="471.26" cy="504.95" r="1.70" fill="#2ee6ff" opacity="0.37"/><circle cx="191.89" cy="957.72" r="3.74" fill="#d8fbff" opacity="0.60"/><circle cx="281.74" cy="536.52" r="2.88" fill="#2ee6ff" opacity="0.31"/><circle cx="467.16" cy="512.40" r="4.29" fill="#d8fbff" opacity="0.38"/><circle cx="216.39" cy="47.83" r="4.09" fill="#2ee6ff" opacity="0.49"/><circle cx="718.67" cy="1005.31" r="4.47" fill="#d8fbff" opacity="0.37"/><circle cx="273.79" cy="851.21" r="2.80" fill="#2ee6ff" opacity="0.51"/><circle cx="54.46" cy="328.92" r="4.34" fill="#d8fbff" opacity="0.30"/><circle cx="241.94" cy="922.14" r="2.83" fill="#2ee6ff" opacity="0.35"/><circle cx="709.66" cy="534.55" r="2.96" fill="#d8fbff" opacity="0.54"/><circle cx="185.61" cy="317.93" r="2.41" fill="#2ee6ff" opacity="0.49"/><circle cx="737.74" cy="589.17" r="2.10" fill="#d8fbff" opacity="0.40"/><circle cx="697.63" cy="616.93" r="4.34" fill="#2ee6ff" opacity="0.67"/>
  </g>

  <rect x="16" y="16" width="736" height="992" rx="24" stroke="url(#edge-riftforged-sentinel-c23)" stroke-width="2.5" opacity="0.85"/>
  <rect x="22" y="22" width="724" height="980" rx="20" stroke="#8aa0c4" stroke-width="2" opacity="0.74"/>

  <rect x="34" y="34" width="700" height="72" rx="14" fill="#070b14" fill-opacity="0.72" stroke="#8aa0c4" stroke-opacity="0.55"/>
  <text x="54" y="80" fill="#EAF4FF" font-family="Exo 2, Segoe UI, sans-serif" font-size="32" font-weight="700">Riftforged Sentinel</text>

  <rect x="34" y="872" width="700" height="92" rx="14" fill="#070b14" fill-opacity="0.74" stroke="#8aa0c4" stroke-opacity="0.6"/>
  <text x="54" y="924" fill="#D9E7FF" font-family="Exo 2, Segoe UI, sans-serif" font-size="30" font-weight="600">Recon Sniper</text>

  <rect x="598" y="36" width="118" height="42" rx="10" fill="#8aa0c4" fill-opacity="0.2" stroke="#8aa0c4" stroke-opacity="0.8"/>
  <text x="612" y="65" fill="#8aa0c4" font-family="Exo 2, Segoe UI, sans-serif" font-size="20" font-weight="700">COMMON</text>

  <circle cx="708" cy="954" r="26" fill="#080d18" stroke="#8aa0c4" stroke-opacity="0.8"/>
  <text x="696" y="962" fill="#E7F2FF" font-family="Exo 2, Segoe UI, sans-serif" font-size="24" font-weight="700">23</text>
</svg>