<?xml version="1.0" encoding="UTF-8"?>
<svg width="768" height="1024" viewBox="0 0 768 1024" fill="none" xmlns="http://www.w3.org/2000/svg">
  <defs>
    <linearGradient id="bg-riftforged-sentinel-c28" x1="60" y1="40" x2="728" y2="1004" gradientUnits="userSpaceOnUse">
      <stop offset="0" stop-color="#0a1e3f"/>
      <stop offset="0.55" stop-color="#204f8a"/>
      <stop offset="1" stop-color="#0a1e3f"/>
    </linearGradient>
    <radialGradient id="glow-riftforged-sentinel-c28" cx="0" cy="0" r="1" gradientUnits="userSpaceOnUse" gradientTransform="translate(289.75 171.41) rotate(90) scale(218.62 218.62)">
      <stop stop-color="#2ee6ff" stop-opacity="0.45"/>
      <stop offset="1" stop-color="#2ee6ff" stop-opacity="0"/>
    </radialGradient>
    <linearGradient id="edge-riftforged-sentinel-c28" x1="0" y1="0" x2="768" y2="1024" gradientUnits="userSpaceOnUse">
      <stop stop-color="#2ee6ff" stop-opacity="0.85"/>
      <stop offset="1" stop-color="#d8fbff" stop-opacity="0.85"/>
    </linearGradient>
  </defs>

  <rect x="0" y="0" width="768" height="1024" rx="32" fill="#060910"/>
  <rect x="16" y="16" width="736" height="992" rx="24" fill="url(#bg-riftforged-sentinel-c28)"/>
  <rect x="16" y="16" width="736" height="992" rx="24" fill="url(#glow-riftforged-sentinel-c28)"/>

  <g opacity="0.88">
    <polygon points="384.00,327.68 543.63,419.84 543.63,604.16 384.00,696.32 224.37,604.16 224.37,419.84" fill="none" stroke="#2ee6ff" stroke-width="10" opacity="0.7"/>
<polygon points="384.00,327.68 543.63,419.84 543.63,604.16 384.00,696.32 224.37,604.16 224.37,419.84" fill="none" stroke="#d8fbff" stroke-width="3" opacity="0.95" transform="scale(0.78) translate(107.52000000000001,143.36)"/>
  </g>

  <g opacity="0.8">
    <circle cx="604.94" cy="380.16" r="3.45" fill="#d8fbff" opacity="0.35"/><circle cx="370.86" cy="938.45" r="4.99" fill="#2ee6ff" opacity="0.41"/><circle cx="342.49" cy="922.36" r="2.67" fill="#d8fbff" opacity="0.47"/><circle cx="299.35" cy="537.99" r="2.44" fill="#2ee6ff" opacity="0.64"/><circle cx="521.76" cy="646.29" r="1.82" fill="#d8fbff" opacity="0.39"/><circle cx="489.04" cy="265.39" r="1.61" fill="#2ee6ff" opacity="0.53"/><circle cx="236.41" cy="671.45" r="4.17" fill="#d8fbff" opacity="0.71"/><circle cx="656.61" cy="1005.28" r="1.68" fill="#2ee6ff" opacity="0.65"/><circle cx="678.85" cy="791.62" r="1.20" fill="#d8fbff" opacity="0.73"/><circle cx="426.63" cy="306.13" r="1.85" fill="#2ee6ff" opacity="0.59"/><circle cx="238.63" cy="464.87" r="3.33" fill="#d8fbff" opacity="0.41"/><circle cx="366.16" cy="699.64" r="1.51" fill="#2ee6ff" opacity="0.29"/><circle cx="275.98" cy="463.87" r="1.88" fill="#d8fbff" opacity="0.29"/><circle cx="724.17" cy="988.08" r="4.59" fill="#2ee6ff" opacity="0.37"/><circle cx="554.05" cy="752.79" r="2.52" fill="#d8fbff" opacity="0.53"/><circle cx="149.32" cy="303.45" r="4.07" fill="#2ee6ff" opacity="0.67"/><circle cx="722.83" cy="287.68" r="1.87" fill="#d8fbff" opacity="0.74"/><circle cx="594.25" cy="330.06" r="1.83" fill="#2ee6ff" opacity="0.42"/><circle cx="401.46" cy="423.91" r="1.95" fill="#d8fbff" opacity="0.46"/><circle cx="284.00" cy="504.24" r="4.27" fill="#2ee6ff" opacity="0.46"/><circle cx="286.13" cy="617.85" r="1.41" fill="#d8fbff" opacity="0.37"/><circle cx="343.24" cy="52.93" r="3.15" fill="#2ee6ff" opacity="0.48"/><circle cx="718.12" cy="931.27" r="3.45" fill="#d8fbff" opacity="0.35"/><circle cx="425.26" cy="308.72" r="4.53" fill="#2ee6ff" opacity="0.63"/><circle cx="737.60" cy="555.13" r="4.01" fill="#d8fbff" opacity="0.33"/><circle cx="613.80" cy="479.86" r="1.29" fill="#2ee6ff" opacity="0.53"/><circle cx="19.23" cy="409.48" r="1.21" fill="#d8fbff" opacity="0.56"/><circle cx="493.64" cy="295.20" r="2.78" fill="#2ee6ff" opacity="0.36"/>
  </g>

  <rect x="16" y="16" width="736" height="992" rx="24" stroke="url(#edge-riftforged-sentinel-c28)" stroke-width="2.5" opacity="0.85"/>
  <rect x="22" y="22" width="724" height="980" rx="20" stroke="#8aa0c4" stroke-width="2" opacity="0.74"/>

  <rect x="34" y="34" width="700" height="72" rx="14" fill="#070b14" fill-opacity="0.72" stroke="#8aa0c4" stroke-opacity="0.55"/>
  <text x="54" y="80" fill="#EAF4FF" font-family="Exo 2, Segoe UI, sans-serif" font-size="32" font-weight="700">Riftforged Sentinel</text>

  <rect x="34" y="872" width="700" height="92" rx="14" fill="#070b14" fill-opacity="0.74" stroke="#8aa0c4" stroke-opacity="0.6"/>
  <text x="54" y="924" fill="#D9E7FF" font-family="Exo 2, Segoe UI, sans-serif" font-size="30" font-weight="600">Momentum Blade</text>

  <rect x="598" y="36" width="118" height="42" rx="10" fill="#8aa0c4" fill-opacity="0.2" stroke="#8aa0c4" stroke-opacity="0.8"/>
  <text x="612" y="65" fill="#8aa0c4" font-family="Exo 2, Segoe UI, sans-serif" font-size="20" font-weight="700">COMMON</text>

  <circle cx="708" cy="954" r="26" fill="#080d18" stroke="#8aa0c4" stroke-opacity="0.8"/>
  <text x="696" y="962" fill="#E7F2FF" font-family="Exo 2, Segoe UI, sans-serif" font-size="24" font-weight="700">28</text>
</svg>