<?xml version="1.0" encoding="UTF-8"?>
<svg width="768" height="1024" viewBox="0 0 768 1024" fill="none" xmlns="http://www.w3.org/2000/svg">
  <defs>
    <linearGradient id="bg-riftforged-sentinel-c25" x1="60" y1="40" x2="728" y2="1004" gradientUnits="userSpaceOnUse">
      <stop offset="0" stop-color="#0a1e3f"/>
      <stop offset="0.55" stop-color="#204f8a"/>
      <stop offset="1" stop-color="#0a1e3f"/>
    </linearGradient>
    <radialGradient id="glow-riftforged-sentinel-c25" cx="0" cy="0" r="1" gradientUnits="userSpaceOnUse" gradientTransform="translate(598.30 341.98) rotate(90) scale(259.35 259.35)">
      <stop stop-color="#2ee6ff" stop-opacity="0.45"/>
      <stop offset="1" stop-color="#2ee6ff" stop-opacity="0"/>
    </radialGradient>
    <linearGradient id="edge-riftforged-sentinel-c25" x1="0" y1="0" x2="768" y2="1024" gradientUnits="userSpaceOnUse">
      <stop stop-color="#2ee6ff" stop-opacity="0.85"/>
      <stop offset="1" stop-color="#d8fbff" stop-opacity="0.85"/>
    </linearGradient>
  </defs>

  <rect x="0" y="0" width="768" height="1024" rx="32" fill="#060910"/>
  <rect x="16" y="16" width="736" height="992" rx="24" fill="url(#bg-riftforged-sentinel-c25)"/>
  <rect x="16" y="16" width="736" height="992" rx="24" fill="url(#glow-riftforged-sentinel-c25)"/>

  <g opacity="0.88">
    <polygon points="384.00,327.68 543.63,419.84 543.63,604.16 384.00,696.32 224.37,604.16 224.37,419.84" fill="none" stroke="#2ee6ff" stroke-width="10" opacity="0.7"/>
<polygon points="384.00,327.68 543.63,419.84 543.63,604.16 384.00,696.32 224.37,604.16 224.37,419.84" fill="none" stroke="#d8fbff" stroke-width="3" opacity="0.95" transform="scale(0.78) translate(107.52000000000001,143.36)"/>
  </g>

  <g opacity="0.8">
    <circle cx="252.95" cy="201.95" r="2.96" fill="#d8fbff" opacity="0.53"/><circle cx="692.09" cy="180.28" r="4.23" fill="#2ee6ff" opacity="0.72"/><circle cx="356.70" cy="287.35" r="2.88" fill="#d8fbff" opacity="0.55"/><circle cx="281.76" cy="502.27" r="2.08" fill="#2ee6ff" opacity="0.38"/><circle cx="207.96" cy="170.95" r="4.71" fill="#d8fbff" opacity="0.65"/><circle cx="242.36" cy="296.82" r="4.58" fill="#2ee6ff" opacity="0.67"/><circle cx="176.96" cy="782.80" r="1.30" fill="#d8fbff" opacity="0.65"/><circle cx="358.11" cy="561.84" r="3.67" fill="#2ee6ff" opacity="0.41"/><circle cx="453.84" cy="763.14" r="3.54" fill="#d8fbff" opacity="0.67"/><circle cx="362.45" cy="290.04" r="4.97" fill="#2ee6ff" opacity="0.60"/><circle cx="88.13" cy="170.35" r="3.33" fill="#d8fbff" opacity="0.49"/><circle cx="91.81" cy="547.44" r="4.99" fill="#2ee6ff" opacity="0.52"/><circle cx="530.61" cy="482.03" r="1.59" fill="#d8fbff" opacity="0.71"/><circle cx="185.29" cy="281.45" r="2.94" fill="#2ee6ff" opacity="0.40"/><circle cx="241.01" cy="128.44" r="4.46" fill="#d8fbff" opacity="0.44"/><circle cx="415.10" cy="885.53" r="3.50" fill="#2ee6ff" opacity="0.67"/><circle cx="208.70" cy="934.06" r="1.70" fill="#d8fbff" opacity="0.51"/><circle cx="106.93" cy="267.64" r="1.22" fill="#2ee6ff" opacity="0.32"/><circle cx="648.75" cy="802.36" r="2.25" fill="#d8fbff" opacity="0.31"/><circle cx="45.36" cy="335.11" r="1.53" fill="#2ee6ff" opacity="0.52"/><circle cx="99.57" cy="590.52" r="2.88" fill="#d8fbff" opacity="0.56"/><circle cx="174.27" cy="612.55" r="1.69" fill="#2ee6ff" opacity="0.62"/><circle cx="399.57" cy="899.59" r="4.21" fill="#d8fbff" opacity="0.36"/><circle cx="54.34" cy="638.47" r="4.97" fill="#2ee6ff" opacity="0.46"/><circle cx="611.01" cy="408.34" r="3.69" fill="#d8fbff" opacity="0.53"/><circle cx="704.37" cy="36.11" r="3.30" fill="#2ee6ff" opacity="0.70"/><circle cx="706.92" cy="158.03" r="1.67" fill="#d8fbff" opacity="0.55"/><circle cx="97.53" cy="566.61" r="2.57" fill="#2ee6ff" opacity="0.51"/>
  </g>

  <rect x="16" y="16" width="736" height="992" rx="24" stroke="url(#edge-riftforged-sentinel-c25)" stroke-width="2.5" opacity="0.85"/>
  <rect x="22" y="22" width="724" height="980" rx="20" stroke="#8aa0c4" stroke-width="2" opacity="0.74"/>

  <rect x="34" y="34" width="700" height="72" rx="14" fill="#070b14" fill-opacity="0.72" stroke="#8aa0c4" stroke-opacity="0.55"/>
  <text x="54" y="80" fill="#EAF4FF" font-family="Exo 2, Segoe UI, sans-serif" font-size="32" font-weight="700">Riftforged Sentinel</text>

  <rect x="34" y="872" width="700" height="92" rx="14" fill="#070b14" fill-opacity="0.74" stroke="#8aa0c4" stroke-opacity="0.6"/>
  <text x="54" y="924" fill="#D9E7FF" font-family="Exo 2, Segoe UI, sans-serif" font-size="30" font-weight="600">Executioner</text>

  <rect x="598" y="36" width="118" height="42" rx="10" fill="#8aa0c4" fill-opacity="0.2" stroke="#8aa0c4" stroke-opacity="0.8"/>
  <text x="612" y="65" fill="#8aa0c4" font-family="Exo 2, Segoe UI, sans-serif" font-size="20" font-weight="700">COMMON</text>

  <circle cx="708" cy="954" r="26" fill="#080d18" stroke="#8aa0c4" stroke-opacity="0.8"/>
  <text x="696" y="962" fill="#E7F2FF" font-family="Exo 2, Segoe UI, sans-serif" font-size="24" font-weight="700">25</text>
</svg>