<?xml version="1.0" encoding="UTF-8"?>
<svg width="768" height="1024" viewBox="0 0 768 1024" fill="none" xmlns="http://www.w3.org/2000/svg">
  <defs>
    <linearGradient id="bg-riftforged-sentinel-c33" x1="60" y1="40" x2="728" y2="1004" gradientUnits="userSpaceOnUse">
      <stop offset="0" stop-color="#0a1e3f"/>
      <stop offset="0.55" stop-color="#204f8a"/>
      <stop offset="1" stop-color="#0a1e3f"/>
    </linearGradient>
    <radialGradient id="glow-riftforged-sentinel-c33" cx="0" cy="0" r="1" gradientUnits="userSpaceOnUse" gradientTransform="translate(434.50 269.42) rotate(90) scale(202.81 202.81)">
      <stop stop-color="#2ee6ff" stop-opacity="0.45"/>
      <stop offset="1" stop-color="#2ee6ff" stop-opacity="0"/>
    </radialGradient>
    <linearGradient id="edge-riftforged-sentinel-c33" x1="0" y1="0" x2="768" y2="1024" gradientUnits="userSpaceOnUse">
      <stop stop-color="#2ee6ff" stop-opacity="0.85"/>
      <stop offset="1" stop-color="#d8fbff" stop-opacity="0.85"/>
    </linearGradient>
  </defs>

  <rect x="0" y="0" width="768" height="1024" rx="32" fill="#060910"/>
  <rect x="16" y="16" width="736" height="992" rx="24" fill="url(#bg-riftforged-sentinel-c33)"/>
  <rect x="16" y="16" width="736" height="992" rx="24" fill="url(#glow-riftforged-sentinel-c33)"/>

  <g opacity="0.88">
    <polygon points="384.00,327.68 543.63,419.84 543.63,604.16 384.00,696.32 224.37,604.16 224.37,419.84" fill="none" stroke="#2ee6ff" stroke-width="10" opacity="0.7"/>
<polygon points="384.00,327.68 543.63,419.84 543.63,604.16 384.00,696.32 224.37,604.16 224.37,419.84" fill="none" stroke="#d8fbff" stroke-width="3" opacity="0.95" transform="scale(0.78) translate(107.52000000000001,143.36)"/>
  </g>

  <g opacity="0.8">
    <circle cx="460.57" cy="169.73" r="1.26" fill="#d8fbff" opacity="0.49"/><circle cx="30.77" cy="451.50" r="2.07" fill="#2ee6ff" opacity="0.31"/><circle cx="650.43" cy="285.02" r="2.65" fill="#d8fbff" opacity="0.73"/><circle cx="326.89" cy="595.05" r="4.12" fill="#2ee6ff" opacity="0.69"/><circle cx="75.43" cy="686.52" r="4.82" fill="#d8fbff" opacity="0.30"/><circle cx="672.00" cy="177.64" r="4.80" fill="#2ee6ff" opacity="0.35"/><circle cx="654.66" cy="709.78" r="3.93" fill="#d8fbff" opacity="0.37"/><circle cx="253.20" cy="126.91" r="4.10" fill="#2ee6ff" opacity="0.28"/><circle cx="582.95" cy="303.32" r="3.97" fill="#d8fbff" opacity="0.47"/><circle cx="58.93" cy="773.32" r="3.24" fill="#2ee6ff" opacity="0.60"/><circle cx="12.18" cy="814.77" r="1.85" fill="#d8fbff" opacity="0.62"/><circle cx="362.55" cy="175.76" r="4.33" fill="#2ee6ff" opacity="0.32"/><circle cx="318.93" cy="74.73" r="4.14" fill="#d8fbff" opacity="0.29"/><circle cx="467.49" cy="1003.61" r="4.76" fill="#2ee6ff" opacity="0.24"/><circle cx="97.34" cy="175.10" r="2.39" fill="#d8fbff" opacity="0.25"/><circle cx="508.21" cy="600.83" r="4.75" fill="#2ee6ff" opacity="0.70"/><circle cx="577.42" cy="873.55" r="3.70" fill="#d8fbff" opacity="0.46"/><circle cx="713.06" cy="492.65" r="1.49" fill="#2ee6ff" opacity="0.73"/><circle cx="335.42" cy="261.31" r="4.81" fill="#d8fbff" opacity="0.70"/><circle cx="198.57" cy="925.28" r="3.56" fill="#2ee6ff" opacity="0.66"/><circle cx="11.86" cy="217.58" r="4.95" fill="#d8fbff" opacity="0.47"/><circle cx="487.12" cy="293.74" r="3.03" fill="#2ee6ff" opacity="0.64"/><circle cx="278.70" cy="897.96" r="1.70" fill="#d8fbff" opacity="0.41"/><circle cx="426.55" cy="14.89" r="1.91" fill="#2ee6ff" opacity="0.45"/><circle cx="671.81" cy="979.45" r="3.35" fill="#d8fbff" opacity="0.33"/><circle cx="92.61" cy="816.96" r="2.26" fill="#2ee6ff" opacity="0.45"/><circle cx="222.78" cy="113.14" r="1.58" fill="#d8fbff" opacity="0.48"/><circle cx="350.88" cy="361.83" r="4.62" fill="#2ee6ff" opacity="0.55"/>
  </g>

  <rect x="16" y="16" width="736" height="992" rx="24" stroke="url(#edge-riftforged-sentinel-c33)" stroke-width="2.5" opacity="0.85"/>
  <rect x="22" y="22" width="724" height="980" rx="20" stroke="#78d8ff" stroke-width="2" opacity="0.74"/>

  <rect x="34" y="34" width="700" height="72" rx="14" fill="#070b14" fill-opacity="0.72" stroke="#78d8ff" stroke-opacity="0.55"/>
  <text x="54" y="80" fill="#EAF4FF" font-family="Exo 2, Segoe UI, sans-serif" font-size="32" font-weight="700">Riftforged Sentinel</text>

  <rect x="34" y="872" width="700" height="92" rx="14" fill="#070b14" fill-opacity="0.74" stroke="#78d8ff" stroke-opacity="0.6"/>
  <text x="54" y="924" fill="#D9E7FF" font-family="Exo 2, Segoe UI, sans-serif" font-size="30" font-weight="600">Simple Buff</text>

  <rect x="598" y="36" width="118" height="42" rx="10" fill="#78d8ff" fill-opacity="0.2" stroke="#78d8ff" stroke-opacity="0.8"/>
  <text x="612" y="65" fill="#78d8ff" font-family="Exo 2, Segoe UI, sans-serif" font-size="20" font-weight="700">RARE</text>

  <circle cx="708" cy="954" r="26" fill="#080d18" stroke="#78d8ff" stroke-opacity="0.8"/>
  <text x="696" y="962" fill="#E7F2FF" font-family="Exo 2, Segoe UI, sans-serif" font-size="24" font-weight="700">33</text>
</svg>