<?xml version="1.0" encoding="UTF-8"?>
<svg width="768" height="1024" viewBox="0 0 768 1024" fill="none" xmlns="http://www.w3.org/2000/svg">
  <defs>
    <linearGradient id="bg-riftforged-sentinel-c17" x1="60" y1="40" x2="728" y2="1004" gradientUnits="userSpaceOnUse">
      <stop offset="0" stop-color="#0a1e3f"/>
      <stop offset="0.55" stop-color="#204f8a"/>
      <stop offset="1" stop-color="#0a1e3f"/>
    </linearGradient>
    <radialGradient id="glow-riftforged-sentinel-c17" cx="0" cy="0" r="1" gradientUnits="userSpaceOnUse" gradientTransform="translate(372.46 584.57) rotate(90) scale(233.38 233.38)">
      <stop stop-color="#2ee6ff" stop-opacity="0.45"/>
      <stop offset="1" stop-color="#2ee6ff" stop-opacity="0"/>
    </radialGradient>
    <linearGradient id="edge-riftforged-sentinel-c17" x1="0" y1="0" x2="768" y2="1024" gradientUnits="userSpaceOnUse">
      <stop stop-color="#2ee6ff" stop-opacity="0.85"/>
      <stop offset="1" stop-color="#d8fbff" stop-opacity="0.85"/>
    </linearGradient>
  </defs>

  <rect x="0" y="0" width="768" height="1024" rx="32" fill="#060910"/>
  <rect x="16" y="16" width="736" height="992" rx="24" fill="url(#bg-riftforged-sentinel-c17)"/>
  <rect x="16" y="16" width="736" height="992" rx="24" fill="url(#glow-riftforged-sentinel-c17)"/>

  <g opacity="0.88">
    <polygon points="384.00,327.68 543.63,419.84 543.63,604.16 384.00,696.32 224.37,604.16 224.37,419.84" fill="none" stroke="#2ee6ff" stroke-width="10" opacity="0.7"/>
<polygon points="384.00,327.68 543.63,419.84 543.63,604.16 384.00,696.32 224.37,604.16 224.37,419.84" fill="none" stroke="#d8fbff" stroke-width="3" opacity="0.95" transform="scale(0.78) translate(107.52000000000001,143.36)"/>
  </g>

  <g opacity="0.8">
    <circle cx="297.06" cy="510.17" r="1.62" fill="#d8fbff" opacity="0.43"/><circle cx="380.95" cy="962.50" r="3.01" fill="#2ee6ff" opacity="0.53"/><circle cx="719.56" cy="529.68" r="2.66" fill="#d8fbff" opacity="0.58"/><circle cx="383.82" cy="769.73" r="2.99" fill="#2ee6ff" opacity="0.38"/><circle cx="238.45" cy="324.65" r="2.78" fill="#d8fbff" opacity="0.50"/><circle cx="184.53" cy="100.94" r="3.20" fill="#2ee6ff" opacity="0.59"/><circle cx="201.23" cy="382.16" r="3.94" fill="#d8fbff" opacity="0.42"/><circle cx="732.04" cy="1004.91" r="2.08" fill="#2ee6ff" opacity="0.27"/><circle cx="424.31" cy="588.24" r="2.91" fill="#d8fbff" opacity="0.39"/><circle cx="574.14" cy="197.05" r="2.77" fill="#2ee6ff" opacity="0.51"/><circle cx="350.07" cy="482.73" r="4.32" fill="#d8fbff" opacity="0.64"/><circle cx="44.40" cy="524.33" r="1.35" fill="#2ee6ff" opacity="0.24"/><circle cx="57.78" cy="400.68" r="4.58" fill="#d8fbff" opacity="0.36"/><circle cx="245.22" cy="174.07" r="4.44" fill="#2ee6ff" opacity="0.62"/><circle cx="708.16" cy="82.80" r="1.67" fill="#d8fbff" opacity="0.55"/><circle cx="136.36" cy="400.75" r="2.11" fill="#2ee6ff" opacity="0.71"/><circle cx="628.81" cy="655.06" r="3.06" fill="#d8fbff" opacity="0.44"/><circle cx="113.79" cy="126.35" r="2.11" fill="#2ee6ff" opacity="0.42"/><circle cx="608.54" cy="374.57" r="4.88" fill="#d8fbff" opacity="0.43"/><circle cx="210.13" cy="400.19" r="4.73" fill="#2ee6ff" opacity="0.71"/><circle cx="420.48" cy="307.19" r="1.61" fill="#d8fbff" opacity="0.51"/><circle cx="486.14" cy="341.28" r="4.85" fill="#2ee6ff" opacity="0.57"/><circle cx="202.91" cy="705.67" r="2.68" fill="#d8fbff" opacity="0.71"/><circle cx="665.08" cy="558.54" r="3.32" fill="#2ee6ff" opacity="0.35"/><circle cx="535.90" cy="710.17" r="4.61" fill="#d8fbff" opacity="0.67"/><circle cx="157.07" cy="558.13" r="2.11" fill="#2ee6ff" opacity="0.27"/><circle cx="213.96" cy="712.83" r="4.06" fill="#d8fbff" opacity="0.64"/><circle cx="617.39" cy="625.93" r="3.19" fill="#2ee6ff" opacity="0.29"/>
  </g>

  <rect x="16" y="16" width="736" height="992" rx="24" stroke="url(#edge-riftforged-sentinel-c17)" stroke-width="2.5" opacity="0.85"/>
  <rect x="22" y="22" width="724" height="980" rx="20" stroke="#8aa0c4" stroke-width="2" opacity="0.74"/>

  <rect x="34" y="34" width="700" height="72" rx="14" fill="#070b14" fill-opacity="0.72" stroke="#8aa0c4" stroke-opacity="0.55"/>
  <text x="54" y="80" fill="#EAF4FF" font-family="Exo 2, Segoe UI, sans-serif" font-size="32" font-weight="700">Riftforged Sentinel</text>

  <rect x="34" y="872" width="700" height="92" rx="14" fill="#070b14" fill-opacity="0.74" stroke="#8aa0c4" stroke-opacity="0.6"/>
  <text x="54" y="924" fill="#D9E7FF" font-family="Exo 2, Segoe UI, sans-serif" font-size="30" font-weight="600">Enforcer</text>

  <rect x="598" y="36" width="118" height="42" rx="10" fill="#8aa0c4" fill-opacity="0.2" stroke="#8aa0c4" stroke-opacity="0.8"/>
  <text x="612" y="65" fill="#8aa0c4" font-family="Exo 2, Segoe UI, sans-serif" font-size="20" font-weight="700">COMMON</text>

  <circle cx="708" cy="954" r="26" fill="#080d18" stroke="#8aa0c4" stroke-opacity="0.8"/>
  <text x="696" y="962" fill="#E7F2FF" font-family="Exo 2, Segoe UI, sans-serif" font-size="24" font-weight="700">17</text>
</svg>