<?xml version="1.0" encoding="UTF-8"?>
<svg width="768" height="1024" viewBox="0 0 768 1024" fill="none" xmlns="http://www.w3.org/2000/svg">
  <defs>
    <linearGradient id="bg-riftforged-sentinel-c12" x1="60" y1="40" x2="728" y2="1004" gradientUnits="userSpaceOnUse">
      <stop offset="0" stop-color="#0a1e3f"/>
      <stop offset="0.55" stop-color="#204f8a"/>
      <stop offset="1" stop-color="#0a1e3f"/>
    </linearGradient>
    <radialGradient id="glow-riftforged-sentinel-c12" cx="0" cy="0" r="1" gradientUnits="userSpaceOnUse" gradientTransform="translate(136.71 439.31) rotate(90) scale(207.11 207.11)">
      <stop stop-color="#2ee6ff" stop-opacity="0.45"/>
      <stop offset="1" stop-color="#2ee6ff" stop-opacity="0"/>
    </radialGradient>
    <linearGradient id="edge-riftforged-sentinel-c12" x1="0" y1="0" x2="768" y2="1024" gradientUnits="userSpaceOnUse">
      <stop stop-color="#2ee6ff" stop-opacity="0.85"/>
      <stop offset="1" stop-color="#d8fbff" stop-opacity="0.85"/>
    </linearGradient>
  </defs>

  <rect x="0" y="0" width="768" height="1024" rx="32" fill="#060910"/>
  <rect x="16" y="16" width="736" height="992" rx="24" fill="url(#bg-riftforged-sentinel-c12)"/>
  <rect x="16" y="16" width="736" height="992" rx="24" fill="url(#glow-riftforged-sentinel-c12)"/>

  <g opacity="0.88">
    <polygon points="384.00,327.68 543.63,419.84 543.63,604.16 384.00,696.32 224.37,604.16 224.37,419.84" fill="none" stroke="#2ee6ff" stroke-width="10" opacity="0.7"/>
<polygon points="384.00,327.68 543.63,419.84 543.63,604.16 384.00,696.32 224.37,604.16 224.37,419.84" fill="none" stroke="#d8fbff" stroke-width="3" opacity="0.95" transform="scale(0.78) translate(107.52000000000001,143.36)"/>
  </g>

  <g opacity="0.8">
    <circle cx="244.40" cy="123.60" r="4.97" fill="#d8fbff" opacity="0.34"/><circle cx="20.63" cy="702.27" r="3.77" fill="#2ee6ff" opacity="0.55"/><circle cx="216.47" cy="243.32" r="3.34" fill="#d8fbff" opacity="0.60"/><circle cx="610.05" cy="603.05" r="1.50" fill="#2ee6ff" opacity="0.47"/><circle cx="711.47" cy="676.81" r="3.62" fill="#d8fbff" opacity="0.39"/><circle cx="363.28" cy="336.58" r="4.79" fill="#2ee6ff" opacity="0.61"/><circle cx="520.03" cy="954.67" r="3.61" fill="#d8fbff" opacity="0.61"/><circle cx="332.54" cy="791.68" r="2.72" fill="#2ee6ff" opacity="0.67"/><circle cx="739.43" cy="275.06" r="2.48" fill="#d8fbff" opacity="0.36"/><circle cx="586.67" cy="597.04" r="2.18" fill="#2ee6ff" opacity="0.41"/><circle cx="343.71" cy="762.74" r="4.99" fill="#d8fbff" opacity="0.64"/><circle cx="474.41" cy="1010.68" r="2.34" fill="#2ee6ff" opacity="0.48"/><circle cx="136.50" cy="803.88" r="4.63" fill="#d8fbff" opacity="0.30"/><circle cx="678.28" cy="235.49" r="3.31" fill="#2ee6ff" opacity="0.55"/><circle cx="583.91" cy="987.98" r="1.96" fill="#d8fbff" opacity="0.35"/><circle cx="504.33" cy="112.42" r="1.97" fill="#2ee6ff" opacity="0.71"/><circle cx="125.90" cy="461.17" r="4.02" fill="#d8fbff" opacity="0.64"/><circle cx="312.26" cy="557.03" r="3.57" fill="#2ee6ff" opacity="0.30"/><circle cx="708.08" cy="575.11" r="3.79" fill="#d8fbff" opacity="0.38"/><circle cx="697.90" cy="640.52" r="4.36" fill="#2ee6ff" opacity="0.69"/><circle cx="382.49" cy="282.68" r="4.35" fill="#d8fbff" opacity="0.27"/><circle cx="65.22" cy="572.05" r="1.93" fill="#2ee6ff" opacity="0.25"/><circle cx="762.70" cy="920.35" r="1.59" fill="#d8fbff" opacity="0.27"/><circle cx="358.44" cy="259.17" r="2.94" fill="#2ee6ff" opacity="0.31"/><circle cx="222.36" cy="140.71" r="3.31" fill="#d8fbff" opacity="0.36"/><circle cx="169.56" cy="990.59" r="3.27" fill="#2ee6ff" opacity="0.45"/><circle cx="372.35" cy="667.34" r="3.78" fill="#d8fbff" opacity="0.54"/><circle cx="437.60" cy="985.82" r="4.75" fill="#2ee6ff" opacity="0.56"/>
  </g>

  <rect x="16" y="16" width="736" height="992" rx="24" stroke="url(#edge-riftforged-sentinel-c12)" stroke-width="2.5" opacity="0.85"/>
  <rect x="22" y="22" width="724" height="980" rx="20" stroke="#8aa0c4" stroke-width="2" opacity="0.74"/>

  <rect x="34" y="34" width="700" height="72" rx="14" fill="#070b14" fill-opacity="0.72" stroke="#8aa0c4" stroke-opacity="0.55"/>
  <text x="54" y="80" fill="#EAF4FF" font-family="Exo 2, Segoe UI, sans-serif" font-size="32" font-weight="700">Riftforged Sentinel</text>

  <rect x="34" y="872" width="700" height="92" rx="14" fill="#070b14" fill-opacity="0.74" stroke="#8aa0c4" stroke-opacity="0.6"/>
  <text x="54" y="924" fill="#D9E7FF" font-family="Exo 2, Segoe UI, sans-serif" font-size="30" font-weight="600">Hazard Binder</text>

  <rect x="598" y="36" width="118" height="42" rx="10" fill="#8aa0c4" fill-opacity="0.2" stroke="#8aa0c4" stroke-opacity="0.8"/>
  <text x="612" y="65" fill="#8aa0c4" font-family="Exo 2, Segoe UI, sans-serif" font-size="20" font-weight="700">COMMON</text>

  <circle cx="708" cy="954" r="26" fill="#080d18" stroke="#8aa0c4" stroke-opacity="0.8"/>
  <text x="696" y="962" fill="#E7F2FF" font-family="Exo 2, Segoe UI, sans-serif" font-size="24" font-weight="700">12</text>
</svg>