<?xml version="1.0" encoding="UTF-8"?>
<svg width="768" height="1024" viewBox="0 0 768 1024" fill="none" xmlns="http://www.w3.org/2000/svg">
  <defs>
    <linearGradient id="bg-riftforged-sentinel-c09" x1="60" y1="40" x2="728" y2="1004" gradientUnits="userSpaceOnUse">
      <stop offset="0" stop-color="#0a1e3f"/>
      <stop offset="0.55" stop-color="#204f8a"/>
      <stop offset="1" stop-color="#0a1e3f"/>
    </linearGradient>
    <radialGradient id="glow-riftforged-sentinel-c09" cx="0" cy="0" r="1" gradientUnits="userSpaceOnUse" gradientTransform="translate(639.97 546.80) rotate(90) scale(294.97 294.97)">
      <stop stop-color="#2ee6ff" stop-opacity="0.45"/>
      <stop offset="1" stop-color="#2ee6ff" stop-opacity="0"/>
    </radialGradient>
    <linearGradient id="edge-riftforged-sentinel-c09" x1="0" y1="0" x2="768" y2="1024" gradientUnits="userSpaceOnUse">
      <stop stop-color="#2ee6ff" stop-opacity="0.85"/>
      <stop offset="1" stop-color="#d8fbff" stop-opacity="0.85"/>
    </linearGradient>
  </defs>

  <rect x="0" y="0" width="768" height="1024" rx="32" fill="#060910"/>
  <rect x="16" y="16" width="736" height="992" rx="24" fill="url(#bg-riftforged-sentinel-c09)"/>
  <rect x="16" y="16" width="736" height="992" rx="24" fill="url(#glow-riftforged-sentinel-c09)"/>

  <g opacity="0.88">
    <polygon points="384.00,327.68 543.63,419.84 543.63,604.16 384.00,696.32 224.37,604.16 224.37,419.84" fill="none" stroke="#2ee6ff" stroke-width="10" opacity="0.7"/>
<polygon points="384.00,327.68 543.63,419.84 543.63,604.16 384.00,696.32 224.37,604.16 224.37,419.84" fill="none" stroke="#d8fbff" stroke-width="3" opacity="0.95" transform="scale(0.78) translate(107.52000000000001,143.36)"/>
  </g>

  <g opacity="0.8">
    <circle cx="149.49" cy="533.29" r="1.62" fill="#d8fbff" opacity="0.48"/><circle cx="571.56" cy="235.38" r="2.09" fill="#2ee6ff" opacity="0.39"/><circle cx="614.88" cy="405.07" r="3.26" fill="#d8fbff" opacity="0.56"/><circle cx="82.51" cy="817.11" r="3.89" fill="#2ee6ff" opacity="0.35"/><circle cx="2.86" cy="484.36" r="4.14" fill="#d8fbff" opacity="0.35"/><circle cx="256.72" cy="1001.76" r="3.83" fill="#2ee6ff" opacity="0.29"/><circle cx="50.50" cy="236.09" r="4.49" fill="#d8fbff" opacity="0.43"/><circle cx="568.22" cy="431.31" r="2.05" fill="#2ee6ff" opacity="0.49"/><circle cx="757.72" cy="87.61" r="4.61" fill="#d8fbff" opacity="0.48"/><circle cx="383.37" cy="41.64" r="2.49" fill="#2ee6ff" opacity="0.37"/><circle cx="589.12" cy="9.65" r="2.14" fill="#d8fbff" opacity="0.37"/><circle cx="583.12" cy="64.79" r="3.12" fill="#2ee6ff" opacity="0.33"/><circle cx="380.83" cy="332.00" r="3.78" fill="#d8fbff" opacity="0.46"/><circle cx="517.43" cy="817.15" r="3.16" fill="#2ee6ff" opacity="0.41"/><circle cx="169.57" cy="976.79" r="3.54" fill="#d8fbff" opacity="0.53"/><circle cx="767.11" cy="619.56" r="1.98" fill="#2ee6ff" opacity="0.41"/><circle cx="760.89" cy="211.44" r="4.83" fill="#d8fbff" opacity="0.34"/><circle cx="418.28" cy="762.28" r="4.00" fill="#2ee6ff" opacity="0.69"/><circle cx="427.53" cy="162.67" r="4.00" fill="#d8fbff" opacity="0.66"/><circle cx="569.96" cy="303.39" r="2.76" fill="#2ee6ff" opacity="0.51"/><circle cx="583.87" cy="60.13" r="3.24" fill="#d8fbff" opacity="0.45"/><circle cx="711.52" cy="591.07" r="1.39" fill="#2ee6ff" opacity="0.58"/><circle cx="653.42" cy="989.17" r="4.13" fill="#d8fbff" opacity="0.40"/><circle cx="501.75" cy="278.09" r="3.84" fill="#2ee6ff" opacity="0.32"/><circle cx="301.17" cy="675.64" r="4.48" fill="#d8fbff" opacity="0.63"/><circle cx="356.44" cy="677.32" r="3.26" fill="#2ee6ff" opacity="0.40"/><circle cx="653.88" cy="423.65" r="1.27" fill="#d8fbff" opacity="0.63"/><circle cx="574.14" cy="10.10" r="4.54" fill="#2ee6ff" opacity="0.55"/>
  </g>

  <rect x="16" y="16" width="736" height="992" rx="24" stroke="url(#edge-riftforged-sentinel-c09)" stroke-width="2.5" opacity="0.85"/>
  <rect x="22" y="22" width="724" height="980" rx="20" stroke="#8aa0c4" stroke-width="2" opacity="0.74"/>

  <rect x="34" y="34" width="700" height="72" rx="14" fill="#070b14" fill-opacity="0.72" stroke="#8aa0c4" stroke-opacity="0.55"/>
  <text x="54" y="80" fill="#EAF4FF" font-family="Exo 2, Segoe UI, sans-serif" font-size="32" font-weight="700">Riftforged Sentinel</text>

  <rect x="34" y="872" width="700" height="92" rx="14" fill="#070b14" fill-opacity="0.74" stroke="#8aa0c4" stroke-opacity="0.6"/>
  <text x="54" y="924" fill="#D9E7FF" font-family="Exo 2, Segoe UI, sans-serif" font-size="30" font-weight="600">Bruiser</text>

  <rect x="598" y="36" width="118" height="42" rx="10" fill="#8aa0c4" fill-opacity="0.2" stroke="#8aa0c4" stroke-opacity="0.8"/>
  <text x="612" y="65" fill="#8aa0c4" font-family="Exo 2, Segoe UI, sans-serif" font-size="20" font-weight="700">COMMON</text>

  <circle cx="708" cy="954" r="26" fill="#080d18" stroke="#8aa0c4" stroke-opacity="0.8"/>
  <text x="696" y="962" fill="#E7F2FF" font-family="Exo 2, Segoe UI, sans-serif" font-size="24" font-weight="700">09</text>
</svg>