<?xml version="1.0" encoding="UTF-8"?>
<svg width="768" height="1024" viewBox="0 0 768 1024" fill="none" xmlns="http://www.w3.org/2000/svg">
  <defs>
    <linearGradient id="bg-riftforged-sentinel-c06" x1="60" y1="40" x2="728" y2="1004" gradientUnits="userSpaceOnUse">
      <stop offset="0" stop-color="#0a1e3f"/>
      <stop offset="0.55" stop-color="#204f8a"/>
      <stop offset="1" stop-color="#0a1e3f"/>
    </linearGradient>
    <radialGradient id="glow-riftforged-sentinel-c06" cx="0" cy="0" r="1" gradientUnits="userSpaceOnUse" gradientTransform="translate(395.71 490.40) rotate(90) scale(188.54 188.54)">
      <stop stop-color="#2ee6ff" stop-opacity="0.45"/>
      <stop offset="1" stop-color="#2ee6ff" stop-opacity="0"/>
    </radialGradient>
    <linearGradient id="edge-riftforged-sentinel-c06" x1="0" y1="0" x2="768" y2="1024" gradientUnits="userSpaceOnUse">
      <stop stop-color="#2ee6ff" stop-opacity="0.85"/>
      <stop offset="1" stop-color="#d8fbff" stop-opacity="0.85"/>
    </linearGradient>
  </defs>

  <rect x="0" y="0" width="768" height="1024" rx="32" fill="#060910"/>
  <rect x="16" y="16" width="736" height="992" rx="24" fill="url(#bg-riftforged-sentinel-c06)"/>
  <rect x="16" y="16" width="736" height="992" rx="24" fill="url(#glow-riftforged-sentinel-c06)"/>

  <g opacity="0.88">
    <polygon points="384.00,327.68 543.63,419.84 543.63,604.16 384.00,696.32 224.37,604.16 224.37,419.84" fill="none" stroke="#2ee6ff" stroke-width="10" opacity="0.7"/>
<polygon points="384.00,327.68 543.63,419.84 543.63,604.16 384.00,696.32 224.37,604.16 224.37,419.84" fill="none" stroke="#d8fbff" stroke-width="3" opacity="0.95" transform="scale(0.78) translate(107.52000000000001,143.36)"/>
  </g>

  <g opacity="0.8">
    <circle cx="1.39" cy="487.77" r="4.91" fill="#d8fbff" opacity="0.63"/><circle cx="192.90" cy="325.64" r="2.05" fill="#2ee6ff" opacity="0.31"/><circle cx="451.18" cy="21.07" r="4.91" fill="#d8fbff" opacity="0.64"/><circle cx="511.34" cy="352.01" r="2.06" fill="#2ee6ff" opacity="0.68"/><circle cx="233.75" cy="124.32" r="2.22" fill="#d8fbff" opacity="0.32"/><circle cx="488.79" cy="151.80" r="4.28" fill="#2ee6ff" opacity="0.48"/><circle cx="609.97" cy="248.71" r="3.99" fill="#d8fbff" opacity="0.55"/><circle cx="471.94" cy="870.57" r="3.98" fill="#2ee6ff" opacity="0.35"/><circle cx="650.69" cy="790.90" r="2.36" fill="#d8fbff" opacity="0.47"/><circle cx="314.47" cy="238.73" r="2.91" fill="#2ee6ff" opacity="0.48"/><circle cx="521.73" cy="143.32" r="2.19" fill="#d8fbff" opacity="0.51"/><circle cx="198.72" cy="559.72" r="1.42" fill="#2ee6ff" opacity="0.47"/><circle cx="277.18" cy="736.16" r="2.65" fill="#d8fbff" opacity="0.70"/><circle cx="440.79" cy="914.05" r="3.41" fill="#2ee6ff" opacity="0.60"/><circle cx="232.78" cy="242.65" r="1.88" fill="#d8fbff" opacity="0.67"/><circle cx="282.24" cy="446.17" r="4.07" fill="#2ee6ff" opacity="0.61"/><circle cx="181.64" cy="1012.70" r="3.56" fill="#d8fbff" opacity="0.73"/><circle cx="35.06" cy="899.84" r="4.49" fill="#2ee6ff" opacity="0.67"/><circle cx="30.55" cy="209.06" r="2.72" fill="#d8fbff" opacity="0.55"/><circle cx="536.75" cy="574.48" r="2.26" fill="#2ee6ff" opacity="0.58"/><circle cx="31.10" cy="79.25" r="2.23" fill="#d8fbff" opacity="0.47"/><circle cx="675.51" cy="179.35" r="3.65" fill="#2ee6ff" opacity="0.73"/><circle cx="317.76" cy="248.23" r="3.24" fill="#d8fbff" opacity="0.42"/><circle cx="532.41" cy="407.33" r="4.46" fill="#2ee6ff" opacity="0.66"/><circle cx="335.19" cy="448.53" r="1.91" fill="#d8fbff" opacity="0.73"/><circle cx="268.65" cy="894.63" r="2.85" fill="#2ee6ff" opacity="0.25"/><circle cx="110.79" cy="193.49" r="4.63" fill="#d8fbff" opacity="0.27"/><circle cx="718.26" cy="557.21" r="4.16" fill="#2ee6ff" opacity="0.60"/>
  </g>

  <rect x="16" y="16" width="736" height="992" rx="24" stroke="url(#edge-riftforged-sentinel-c06)" stroke-width="2.5" opacity="0.85"/>
  <rect x="22" y="22" width="724" height="980" rx="20" stroke="#8aa0c4" stroke-width="2" opacity="0.74"/>

  <rect x="34" y="34" width="700" height="72" rx="14" fill="#070b14" fill-opacity="0.72" stroke="#8aa0c4" stroke-opacity="0.55"/>
  <text x="54" y="80" fill="#EAF4FF" font-family="Exo 2, Segoe UI, sans-serif" font-size="32" font-weight="700">Riftforged Sentinel</text>

  <rect x="34" y="872" width="700" height="92" rx="14" fill="#070b14" fill-opacity="0.74" stroke="#8aa0c4" stroke-opacity="0.6"/>
  <text x="54" y="924" fill="#D9E7FF" font-family="Exo 2, Segoe UI, sans-serif" font-size="30" font-weight="600">Skirmisher</text>

  <rect x="598" y="36" width="118" height="42" rx="10" fill="#8aa0c4" fill-opacity="0.2" stroke="#8aa0c4" stroke-opacity="0.8"/>
  <text x="612" y="65" fill="#8aa0c4" font-family="Exo 2, Segoe UI, sans-serif" font-size="20" font-weight="700">COMMON</text>

  <circle cx="708" cy="954" r="26" fill="#080d18" stroke="#8aa0c4" stroke-opacity="0.8"/>
  <text x="696" y="962" fill="#E7F2FF" font-family="Exo 2, Segoe UI, sans-serif" font-size="24" font-weight="700">06</text>
</svg>