<?xml version="1.0" encoding="UTF-8"?>
<svg width="768" height="1024" viewBox="0 0 768 1024" fill="none" xmlns="http://www.w3.org/2000/svg">
  <defs>
    <linearGradient id="bg-riftforged-sentinel-c05" x1="60" y1="40" x2="728" y2="1004" gradientUnits="userSpaceOnUse">
      <stop offset="0" stop-color="#0a1e3f"/>
      <stop offset="0.55" stop-color="#204f8a"/>
      <stop offset="1" stop-color="#0a1e3f"/>
    </linearGradient>
    <radialGradient id="glow-riftforged-sentinel-c05" cx="0" cy="0" r="1" gradientUnits="userSpaceOnUse" gradientTransform="translate(471.28 329.26) rotate(90) scale(266.13 266.13)">
      <stop stop-color="#2ee6ff" stop-opacity="0.45"/>
      <stop offset="1" stop-color="#2ee6ff" stop-opacity="0"/>
    </radialGradient>
    <linearGradient id="edge-riftforged-sentinel-c05" x1="0" y1="0" x2="768" y2="1024" gradientUnits="userSpaceOnUse">
      <stop stop-color="#2ee6ff" stop-opacity="0.85"/>
      <stop offset="1" stop-color="#d8fbff" stop-opacity="0.85"/>
    </linearGradient>
  </defs>

  <rect x="0" y="0" width="768" height="1024" rx="32" fill="#060910"/>
  <rect x="16" y="16" width="736" height="992" rx="24" fill="url(#bg-riftforged-sentinel-c05)"/>
  <rect x="16" y="16" width="736" height="992" rx="24" fill="url(#glow-riftforged-sentinel-c05)"/>

  <g opacity="0.88">
    <polygon points="384.00,327.68 543.63,419.84 543.63,604.16 384.00,696.32 224.37,604.16 224.37,419.84" fill="none" stroke="#2ee6ff" stroke-width="10" opacity="0.7"/>
<polygon points="384.00,327.68 543.63,419.84 543.63,604.16 384.00,696.32 224.37,604.16 224.37,419.84" fill="none" stroke="#d8fbff" stroke-width="3" opacity="0.95" transform="scale(0.78) translate(107.52000000000001,143.36)"/>
  </g>

  <g opacity="0.8">
    <circle cx="35.64" cy="951.84" r="3.16" fill="#d8fbff" opacity="0.72"/><circle cx="735.30" cy="608.78" r="2.04" fill="#2ee6ff" opacity="0.47"/><circle cx="758.51" cy="312.56" r="1.52" fill="#d8fbff" opacity="0.35"/><circle cx="41.28" cy="283.78" r="2.82" fill="#2ee6ff" opacity="0.27"/><circle cx="421.45" cy="576.97" r="3.11" fill="#d8fbff" opacity="0.71"/><circle cx="674.00" cy="1017.42" r="1.71" fill="#2ee6ff" opacity="0.43"/><circle cx="484.79" cy="607.43" r="2.13" fill="#d8fbff" opacity="0.57"/><circle cx="455.79" cy="827.13" r="2.17" fill="#2ee6ff" opacity="0.56"/><circle cx="246.61" cy="662.38" r="3.94" fill="#d8fbff" opacity="0.59"/><circle cx="461.93" cy="537.61" r="4.65" fill="#2ee6ff" opacity="0.74"/><circle cx="17.44" cy="633.47" r="1.75" fill="#d8fbff" opacity="0.37"/><circle cx="621.58" cy="544.16" r="3.10" fill="#2ee6ff" opacity="0.50"/><circle cx="496.28" cy="126.11" r="3.42" fill="#d8fbff" opacity="0.33"/><circle cx="213.16" cy="302.06" r="3.76" fill="#2ee6ff" opacity="0.26"/><circle cx="49.50" cy="390.81" r="1.52" fill="#d8fbff" opacity="0.56"/><circle cx="285.46" cy="548.60" r="3.62" fill="#2ee6ff" opacity="0.28"/><circle cx="546.81" cy="816.52" r="2.36" fill="#d8fbff" opacity="0.41"/><circle cx="524.48" cy="512.01" r="2.76" fill="#2ee6ff" opacity="0.54"/><circle cx="273.58" cy="763.29" r="2.80" fill="#d8fbff" opacity="0.67"/><circle cx="265.34" cy="370.99" r="2.60" fill="#2ee6ff" opacity="0.65"/><circle cx="368.77" cy="284.06" r="1.35" fill="#d8fbff" opacity="0.66"/><circle cx="263.01" cy="913.40" r="4.54" fill="#2ee6ff" opacity="0.59"/><circle cx="460.71" cy="207.96" r="1.42" fill="#d8fbff" opacity="0.27"/><circle cx="666.64" cy="966.36" r="1.26" fill="#2ee6ff" opacity="0.50"/><circle cx="316.78" cy="20.53" r="2.71" fill="#d8fbff" opacity="0.56"/><circle cx="430.80" cy="131.65" r="3.37" fill="#2ee6ff" opacity="0.32"/><circle cx="599.43" cy="774.95" r="4.33" fill="#d8fbff" opacity="0.29"/><circle cx="512.15" cy="535.02" r="3.25" fill="#2ee6ff" opacity="0.67"/>
  </g>

  <rect x="16" y="16" width="736" height="992" rx="24" stroke="url(#edge-riftforged-sentinel-c05)" stroke-width="2.5" opacity="0.85"/>
  <rect x="22" y="22" width="724" height="980" rx="20" stroke="#8aa0c4" stroke-width="2" opacity="0.74"/>

  <rect x="34" y="34" width="700" height="72" rx="14" fill="#070b14" fill-opacity="0.72" stroke="#8aa0c4" stroke-opacity="0.55"/>
  <text x="54" y="80" fill="#EAF4FF" font-family="Exo 2, Segoe UI, sans-serif" font-size="32" font-weight="700">Riftforged Sentinel</text>

  <rect x="34" y="872" width="700" height="92" rx="14" fill="#070b14" fill-opacity="0.74" stroke="#8aa0c4" stroke-opacity="0.6"/>
  <text x="54" y="924" fill="#D9E7FF" font-family="Exo 2, Segoe UI, sans-serif" font-size="30" font-weight="600">Engineer</text>

  <rect x="598" y="36" width="118" height="42" rx="10" fill="#8aa0c4" fill-opacity="0.2" stroke="#8aa0c4" stroke-opacity="0.8"/>
  <text x="612" y="65" fill="#8aa0c4" font-family="Exo 2, Segoe UI, sans-serif" font-size="20" font-weight="700">COMMON</text>

  <circle cx="708" cy="954" r="26" fill="#080d18" stroke="#8aa0c4" stroke-opacity="0.8"/>
  <text x="696" y="962" fill="#E7F2FF" font-family="Exo 2, Segoe UI, sans-serif" font-size="24" font-weight="700">05</text>
</svg>