<?xml version="1.0" encoding="UTF-8"?>
<svg width="768" height="1024" viewBox="0 0 768 1024" fill="none" xmlns="http://www.w3.org/2000/svg">
  <defs>
    <linearGradient id="bg-void-ranger-c48" x1="60" y1="40" x2="728" y2="1004" gradientUnits="userSpaceOnUse">
      <stop offset="0" stop-color="#0f1028"/>
      <stop offset="0.55" stop-color="#352b7f"/>
      <stop offset="1" stop-color="#0f1028"/>
    </linearGradient>
    <radialGradient id="glow-void-ranger-c48" cx="0" cy="0" r="1" gradientUnits="userSpaceOnUse" gradientTransform="translate(242.23 194.84) rotate(90) scale(289.71 289.71)">
      <stop stop-color="#29d3ff" stop-opacity="0.45"/>
      <stop offset="1" stop-color="#29d3ff" stop-opacity="0"/>
    </radialGradient>
    <linearGradient id="edge-void-ranger-c48" x1="0" y1="0" x2="768" y2="1024" gradientUnits="userSpaceOnUse">
      <stop stop-color="#29d3ff" stop-opacity="0.85"/>
      <stop offset="1" stop-color="#9f8dff" stop-opacity="0.85"/>
    </linearGradient>
  </defs>

  <rect x="0" y="0" width="768" height="1024" rx="32" fill="#060910"/>
  <rect x="16" y="16" width="736" height="992" rx="24" fill="url(#bg-void-ranger-c48)"/>
  <rect x="16" y="16" width="736" height="992" rx="24" fill="url(#glow-void-ranger-c48)"/>

  <g opacity="0.88">
    <line x1="148.52" y1="755.56" x2="424.89" y2="222.43" stroke="#9f8dff" stroke-width="3" opacity="0.72"/><line x1="198.74" y1="740.18" x2="456.33" y2="274.98" stroke="#29d3ff" stroke-width="4" opacity="0.72"/><line x1="120.69" y1="586.77" x2="526.43" y2="415.09" stroke="#9f8dff" stroke-width="4" opacity="0.72"/><line x1="168.73" y1="205.62" x2="484.43" y2="166.14" stroke="#29d3ff" stroke-width="3" opacity="0.72"/><line x1="280.63" y1="801.60" x2="472.49" y2="160.04" stroke="#9f8dff" stroke-width="3" opacity="0.72"/><line x1="135.23" y1="566.71" x2="484.32" y2="323.36" stroke="#29d3ff" stroke-width="2" opacity="0.72"/><line x1="356.73" y1="536.35" x2="652.55" y2="486.81" stroke="#9f8dff" stroke-width="4" opacity="0.72"/>
  </g>

  <g opacity="0.8">
    <circle cx="210.48" cy="705.81" r="2.79" fill="#9f8dff" opacity="0.44"/><circle cx="376.49" cy="545.49" r="2.03" fill="#29d3ff" opacity="0.42"/><circle cx="665.79" cy="482.00" r="3.70" fill="#9f8dff" opacity="0.61"/><circle cx="43.86" cy="961.94" r="2.49" fill="#29d3ff" opacity="0.70"/><circle cx="678.06" cy="931.24" r="4.29" fill="#9f8dff" opacity="0.26"/><circle cx="476.84" cy="516.39" r="2.49" fill="#29d3ff" opacity="0.34"/><circle cx="268.71" cy="856.37" r="4.35" fill="#9f8dff" opacity="0.51"/><circle cx="6.83" cy="751.47" r="4.16" fill="#29d3ff" opacity="0.48"/><circle cx="8.52" cy="883.17" r="2.07" fill="#9f8dff" opacity="0.57"/><circle cx="280.27" cy="665.60" r="4.38" fill="#29d3ff" opacity="0.67"/><circle cx="543.50" cy="949.81" r="4.03" fill="#9f8dff" opacity="0.66"/><circle cx="229.34" cy="410.24" r="2.80" fill="#29d3ff" opacity="0.39"/><circle cx="170.86" cy="247.57" r="4.67" fill="#9f8dff" opacity="0.40"/><circle cx="752.40" cy="924.88" r="4.42" fill="#29d3ff" opacity="0.52"/><circle cx="581.77" cy="546.78" r="1.25" fill="#9f8dff" opacity="0.54"/><circle cx="497.20" cy="426.40" r="3.08" fill="#29d3ff" opacity="0.51"/><circle cx="43.61" cy="991.67" r="4.89" fill="#9f8dff" opacity="0.38"/><circle cx="450.30" cy="585.80" r="2.25" fill="#29d3ff" opacity="0.51"/><circle cx="569.78" cy="313.67" r="1.23" fill="#9f8dff" opacity="0.62"/><circle cx="241.16" cy="64.61" r="4.55" fill="#29d3ff" opacity="0.52"/><circle cx="34.56" cy="219.50" r="1.43" fill="#9f8dff" opacity="0.26"/><circle cx="692.34" cy="80.81" r="1.86" fill="#29d3ff" opacity="0.24"/><circle cx="154.63" cy="382.47" r="4.28" fill="#9f8dff" opacity="0.63"/><circle cx="532.40" cy="355.87" r="2.17" fill="#29d3ff" opacity="0.71"/><circle cx="755.55" cy="927.68" r="2.71" fill="#9f8dff" opacity="0.73"/><circle cx="196.02" cy="431.82" r="1.38" fill="#29d3ff" opacity="0.72"/><circle cx="144.02" cy="863.55" r="4.53" fill="#9f8dff" opacity="0.34"/><circle cx="603.62" cy="815.21" r="2.32" fill="#29d3ff" opacity="0.25"/>
  </g>

  <rect x="16" y="16" width="736" height="992" rx="24" stroke="url(#edge-void-ranger-c48)" stroke-width="2.5" opacity="0.85"/>
  <rect x="22" y="22" width="724" height="980" rx="20" stroke="#f0a0ff" stroke-width="2" opacity="0.74"/>

  <rect x="34" y="34" width="700" height="72" rx="14" fill="#070b14" fill-opacity="0.72" stroke="#f0a0ff" stroke-opacity="0.55"/>
  <text x="54" y="80" fill="#EAF4FF" font-family="Exo 2, Segoe UI, sans-serif" font-size="32" font-weight="700">Void Ranger</text>

  <rect x="34" y="872" width="700" height="92" rx="14" fill="#070b14" fill-opacity="0.74" stroke="#f0a0ff" stroke-opacity="0.6"/>
  <text x="54" y="924" fill="#D9E7FF" font-family="Exo 2, Segoe UI, sans-serif" font-size="30" font-weight="600">Epic Reset</text>

  <rect x="598" y="36" width="118" height="42" rx="10" fill="#f0a0ff" fill-opacity="0.2" stroke="#f0a0ff" stroke-opacity="0.8"/>
  <text x="612" y="65" fill="#f0a0ff" font-family="Exo 2, Segoe UI, sans-serif" font-size="20" font-weight="700">EPIC</text>

  <circle cx="708" cy="954" r="26" fill="#080d18" stroke="#f0a0ff" stroke-opacity="0.8"/>
  <text x="696" y="962" fill="#E7F2FF" font-family="Exo 2, Segoe UI, sans-serif" font-size="24" font-weight="700">48</text>
</svg>