<?xml version="1.0" encoding="UTF-8"?>
<svg width="768" height="1024" viewBox="0 0 768 1024" fill="none" xmlns="http://www.w3.org/2000/svg">
  <defs>
    <linearGradient id="bg-void-ranger-c10" x1="60" y1="40" x2="728" y2="1004" gradientUnits="userSpaceOnUse">
      <stop offset="0" stop-color="#0f1028"/>
      <stop offset="0.55" stop-color="#352b7f"/>
      <stop offset="1" stop-color="#0f1028"/>
    </linearGradient>
    <radialGradient id="glow-void-ranger-c10" cx="0" cy="0" r="1" gradientUnits="userSpaceOnUse" gradientTransform="translate(166.86 180.52) rotate(90) scale(272.27 272.27)">
      <stop stop-color="#29d3ff" stop-opacity="0.45"/>
      <stop offset="1" stop-color="#29d3ff" stop-opacity="0"/>
    </radialGradient>
    <linearGradient id="edge-void-ranger-c10" x1="0" y1="0" x2="768" y2="1024" gradientUnits="userSpaceOnUse">
      <stop stop-color="#29d3ff" stop-opacity="0.85"/>
      <stop offset="1" stop-color="#9f8dff" stop-opacity="0.85"/>
    </linearGradient>
  </defs>

  <rect x="0" y="0" width="768" height="1024" rx="32" fill="#060910"/>
  <rect x="16" y="16" width="736" height="992" rx="24" fill="url(#bg-void-ranger-c10)"/>
  <rect x="16" y="16" width="736" height="992" rx="24" fill="url(#glow-void-ranger-c10)"/>

  <g opacity="0.88">
    <line x1="371.97" y1="426.07" x2="536.37" y2="460.55" stroke="#9f8dff" stroke-width="4" opacity="0.72"/><line x1="308.01" y1="751.83" x2="424.77" y2="668.99" stroke="#29d3ff" stroke-width="2" opacity="0.72"/><line x1="153.51" y1="614.38" x2="621.27" y2="361.42" stroke="#9f8dff" stroke-width="5" opacity="0.72"/><line x1="191.86" y1="646.80" x2="442.55" y2="306.11" stroke="#29d3ff" stroke-width="4" opacity="0.72"/><line x1="369.92" y1="408.45" x2="573.30" y2="421.57" stroke="#9f8dff" stroke-width="3" opacity="0.72"/><line x1="136.19" y1="206.80" x2="688.07" y2="338.96" stroke="#29d3ff" stroke-width="5" opacity="0.72"/><line x1="195.56" y1="358.67" x2="646.01" y2="157.68" stroke="#9f8dff" stroke-width="2" opacity="0.72"/>
  </g>

  <g opacity="0.8">
    <circle cx="676.90" cy="87.72" r="4.38" fill="#9f8dff" opacity="0.56"/><circle cx="203.34" cy="191.90" r="3.76" fill="#29d3ff" opacity="0.60"/><circle cx="512.36" cy="528.05" r="1.84" fill="#9f8dff" opacity="0.40"/><circle cx="427.08" cy="368.79" r="3.74" fill="#29d3ff" opacity="0.29"/><circle cx="694.79" cy="762.78" r="4.22" fill="#9f8dff" opacity="0.28"/><circle cx="449.66" cy="1016.98" r="1.33" fill="#29d3ff" opacity="0.40"/><circle cx="697.60" cy="153.86" r="2.25" fill="#9f8dff" opacity="0.51"/><circle cx="723.38" cy="298.15" r="3.41" fill="#29d3ff" opacity="0.31"/><circle cx="42.41" cy="953.88" r="2.08" fill="#9f8dff" opacity="0.54"/><circle cx="669.04" cy="61.98" r="4.93" fill="#29d3ff" opacity="0.40"/><circle cx="757.87" cy="210.15" r="3.17" fill="#9f8dff" opacity="0.40"/><circle cx="397.26" cy="711.52" r="3.41" fill="#29d3ff" opacity="0.43"/><circle cx="16.22" cy="844.00" r="4.68" fill="#9f8dff" opacity="0.34"/><circle cx="220.34" cy="215.66" r="3.54" fill="#29d3ff" opacity="0.61"/><circle cx="148.80" cy="126.20" r="2.71" fill="#9f8dff" opacity="0.73"/><circle cx="500.47" cy="93.21" r="1.32" fill="#29d3ff" opacity="0.57"/><circle cx="213.24" cy="958.51" r="2.01" fill="#9f8dff" opacity="0.56"/><circle cx="89.45" cy="20.44" r="2.10" fill="#29d3ff" opacity="0.30"/><circle cx="507.05" cy="285.79" r="1.53" fill="#9f8dff" opacity="0.73"/><circle cx="445.25" cy="792.31" r="4.10" fill="#29d3ff" opacity="0.73"/><circle cx="619.32" cy="675.62" r="2.60" fill="#9f8dff" opacity="0.59"/><circle cx="552.55" cy="224.43" r="1.63" fill="#29d3ff" opacity="0.34"/><circle cx="609.63" cy="744.52" r="1.94" fill="#9f8dff" opacity="0.26"/><circle cx="709.87" cy="19.05" r="2.80" fill="#29d3ff" opacity="0.36"/><circle cx="218.25" cy="551.01" r="3.37" fill="#9f8dff" opacity="0.53"/><circle cx="379.08" cy="790.97" r="1.57" fill="#29d3ff" opacity="0.71"/><circle cx="362.32" cy="10.54" r="1.81" fill="#9f8dff" opacity="0.30"/><circle cx="611.54" cy="242.01" r="3.99" fill="#29d3ff" opacity="0.62"/>
  </g>

  <rect x="16" y="16" width="736" height="992" rx="24" stroke="url(#edge-void-ranger-c10)" stroke-width="2.5" opacity="0.85"/>
  <rect x="22" y="22" width="724" height="980" rx="20" stroke="#8aa0c4" stroke-width="2" opacity="0.74"/>

  <rect x="34" y="34" width="700" height="72" rx="14" fill="#070b14" fill-opacity="0.72" stroke="#8aa0c4" stroke-opacity="0.55"/>
  <text x="54" y="80" fill="#EAF4FF" font-family="Exo 2, Segoe UI, sans-serif" font-size="32" font-weight="700">Void Ranger</text>

  <rect x="34" y="872" width="700" height="92" rx="14" fill="#070b14" fill-opacity="0.74" stroke="#8aa0c4" stroke-opacity="0.6"/>
  <text x="54" y="924" fill="#D9E7FF" font-family="Exo 2, Segoe UI, sans-serif" font-size="30" font-weight="600">Disruptor</text>

  <rect x="598" y="36" width="118" height="42" rx="10" fill="#8aa0c4" fill-opacity="0.2" stroke="#8aa0c4" stroke-opacity="0.8"/>
  <text x="612" y="65" fill="#8aa0c4" font-family="Exo 2, Segoe UI, sans-serif" font-size="20" font-weight="700">COMMON</text>

  <circle cx="708" cy="954" r="26" fill="#080d18" stroke="#8aa0c4" stroke-opacity="0.8"/>
  <text x="696" y="962" fill="#E7F2FF" font-family="Exo 2, Segoe UI, sans-serif" font-size="24" font-weight="700">10</text>
</svg>