<?xml version="1.0" encoding="UTF-8"?>
<svg width="768" height="1024" viewBox="0 0 768 1024" fill="none" xmlns="http://www.w3.org/2000/svg">
  <defs>
    <linearGradient id="bg-void-ranger-c27" x1="60" y1="40" x2="728" y2="1004" gradientUnits="userSpaceOnUse">
      <stop offset="0" stop-color="#0f1028"/>
      <stop offset="0.55" stop-color="#352b7f"/>
      <stop offset="1" stop-color="#0f1028"/>
    </linearGradient>
    <radialGradient id="glow-void-ranger-c27" cx="0" cy="0" r="1" gradientUnits="userSpaceOnUse" gradientTransform="translate(269.05 309.37) rotate(90) scale(243.82 243.82)">
      <stop stop-color="#29d3ff" stop-opacity="0.45"/>
      <stop offset="1" stop-color="#29d3ff" stop-opacity="0"/>
    </radialGradient>
    <linearGradient id="edge-void-ranger-c27" x1="0" y1="0" x2="768" y2="1024" gradientUnits="userSpaceOnUse">
      <stop stop-color="#29d3ff" stop-opacity="0.85"/>
      <stop offset="1" stop-color="#9f8dff" stop-opacity="0.85"/>
    </linearGradient>
  </defs>

  <rect x="0" y="0" width="768" height="1024" rx="32" fill="#060910"/>
  <rect x="16" y="16" width="736" height="992" rx="24" fill="url(#bg-void-ranger-c27)"/>
  <rect x="16" y="16" width="736" height="992" rx="24" fill="url(#glow-void-ranger-c27)"/>

  <g opacity="0.88">
    <line x1="243.34" y1="259.67" x2="432.26" y2="164.98" stroke="#9f8dff" stroke-width="4" opacity="0.72"/><line x1="77.28" y1="816.02" x2="669.17" y2="447.52" stroke="#29d3ff" stroke-width="5" opacity="0.72"/><line x1="242.26" y1="637.92" x2="426.56" y2="502.70" stroke="#9f8dff" stroke-width="3" opacity="0.72"/><line x1="121.22" y1="729.04" x2="581.50" y2="345.61" stroke="#29d3ff" stroke-width="4" opacity="0.72"/><line x1="179.25" y1="748.47" x2="547.43" y2="524.47" stroke="#9f8dff" stroke-width="2" opacity="0.72"/><line x1="220.93" y1="813.32" x2="450.39" y2="318.18" stroke="#29d3ff" stroke-width="5" opacity="0.72"/><line x1="338.55" y1="479.18" x2="612.55" y2="322.46" stroke="#9f8dff" stroke-width="2" opacity="0.72"/>
  </g>

  <g opacity="0.8">
    <circle cx="608.24" cy="731.91" r="2.38" fill="#9f8dff" opacity="0.28"/><circle cx="85.03" cy="7.08" r="1.29" fill="#29d3ff" opacity="0.71"/><circle cx="311.94" cy="191.05" r="1.89" fill="#9f8dff" opacity="0.69"/><circle cx="169.98" cy="505.07" r="4.59" fill="#29d3ff" opacity="0.71"/><circle cx="161.31" cy="756.39" r="2.89" fill="#9f8dff" opacity="0.59"/><circle cx="710.20" cy="742.02" r="2.46" fill="#29d3ff" opacity="0.61"/><circle cx="566.08" cy="332.57" r="1.59" fill="#9f8dff" opacity="0.28"/><circle cx="370.95" cy="523.58" r="4.58" fill="#29d3ff" opacity="0.25"/><circle cx="154.28" cy="676.24" r="5.00" fill="#9f8dff" opacity="0.26"/><circle cx="125.13" cy="365.60" r="1.21" fill="#29d3ff" opacity="0.60"/><circle cx="534.10" cy="894.22" r="1.83" fill="#9f8dff" opacity="0.37"/><circle cx="596.90" cy="185.40" r="2.30" fill="#29d3ff" opacity="0.45"/><circle cx="437.50" cy="538.29" r="2.36" fill="#9f8dff" opacity="0.70"/><circle cx="458.94" cy="757.22" r="2.91" fill="#29d3ff" opacity="0.43"/><circle cx="625.28" cy="996.71" r="4.31" fill="#9f8dff" opacity="0.46"/><circle cx="346.25" cy="347.27" r="1.74" fill="#29d3ff" opacity="0.46"/><circle cx="656.97" cy="196.07" r="1.34" fill="#9f8dff" opacity="0.59"/><circle cx="365.92" cy="679.20" r="4.73" fill="#29d3ff" opacity="0.42"/><circle cx="748.74" cy="741.84" r="3.36" fill="#9f8dff" opacity="0.50"/><circle cx="122.12" cy="277.60" r="3.99" fill="#29d3ff" opacity="0.62"/><circle cx="454.50" cy="10.39" r="1.64" fill="#9f8dff" opacity="0.59"/><circle cx="326.86" cy="239.63" r="4.34" fill="#29d3ff" opacity="0.59"/><circle cx="35.54" cy="245.32" r="1.77" fill="#9f8dff" opacity="0.74"/><circle cx="128.42" cy="260.49" r="1.82" fill="#29d3ff" opacity="0.44"/><circle cx="362.84" cy="724.29" r="4.90" fill="#9f8dff" opacity="0.66"/><circle cx="677.47" cy="597.83" r="4.97" fill="#29d3ff" opacity="0.27"/><circle cx="107.03" cy="513.73" r="4.96" fill="#9f8dff" opacity="0.57"/><circle cx="284.69" cy="205.04" r="3.77" fill="#29d3ff" opacity="0.65"/>
  </g>

  <rect x="16" y="16" width="736" height="992" rx="24" stroke="url(#edge-void-ranger-c27)" stroke-width="2.5" opacity="0.85"/>
  <rect x="22" y="22" width="724" height="980" rx="20" stroke="#8aa0c4" stroke-width="2" opacity="0.74"/>

  <rect x="34" y="34" width="700" height="72" rx="14" fill="#070b14" fill-opacity="0.72" stroke="#8aa0c4" stroke-opacity="0.55"/>
  <text x="54" y="80" fill="#EAF4FF" font-family="Exo 2, Segoe UI, sans-serif" font-size="32" font-weight="700">Void Ranger</text>

  <rect x="34" y="872" width="700" height="92" rx="14" fill="#070b14" fill-opacity="0.74" stroke="#8aa0c4" stroke-opacity="0.6"/>
  <text x="54" y="924" fill="#D9E7FF" font-family="Exo 2, Segoe UI, sans-serif" font-size="30" font-weight="600">Ritual Guard</text>

  <rect x="598" y="36" width="118" height="42" rx="10" fill="#8aa0c4" fill-opacity="0.2" stroke="#8aa0c4" stroke-opacity="0.8"/>
  <text x="612" y="65" fill="#8aa0c4" font-family="Exo 2, Segoe UI, sans-serif" font-size="20" font-weight="700">COMMON</text>

  <circle cx="708" cy="954" r="26" fill="#080d18" stroke="#8aa0c4" stroke-opacity="0.8"/>
  <text x="696" y="962" fill="#E7F2FF" font-family="Exo 2, Segoe UI, sans-serif" font-size="24" font-weight="700">27</text>
</svg>