<?xml version="1.0" encoding="UTF-8"?>
<svg width="768" height="1024" viewBox="0 0 768 1024" fill="none" xmlns="http://www.w3.org/2000/svg">
  <defs>
    <linearGradient id="bg-void-ranger-c52" x1="60" y1="40" x2="728" y2="1004" gradientUnits="userSpaceOnUse">
      <stop offset="0" stop-color="#0f1028"/>
      <stop offset="0.55" stop-color="#352b7f"/>
      <stop offset="1" stop-color="#0f1028"/>
    </linearGradient>
    <radialGradient id="glow-void-ranger-c52" cx="0" cy="0" r="1" gradientUnits="userSpaceOnUse" gradientTransform="translate(148.55 604.77) rotate(90) scale(239.58 239.58)">
      <stop stop-color="#29d3ff" stop-opacity="0.45"/>
      <stop offset="1" stop-color="#29d3ff" stop-opacity="0"/>
    </radialGradient>
    <linearGradient id="edge-void-ranger-c52" x1="0" y1="0" x2="768" y2="1024" gradientUnits="userSpaceOnUse">
      <stop stop-color="#29d3ff" stop-opacity="0.85"/>
      <stop offset="1" stop-color="#9f8dff" stop-opacity="0.85"/>
    </linearGradient>
  </defs>

  <rect x="0" y="0" width="768" height="1024" rx="32" fill="#060910"/>
  <rect x="16" y="16" width="736" height="992" rx="24" fill="url(#bg-void-ranger-c52)"/>
  <rect x="16" y="16" width="736" height="992" rx="24" fill="url(#glow-void-ranger-c52)"/>

  <g opacity="0.88">
    <line x1="126.45" y1="439.98" x2="667.53" y2="158.36" stroke="#9f8dff" stroke-width="3" opacity="0.72"/><line x1="192.00" y1="250.84" x2="567.36" y2="808.52" stroke="#29d3ff" stroke-width="5" opacity="0.72"/><line x1="191.97" y1="679.95" x2="640.74" y2="306.61" stroke="#9f8dff" stroke-width="2" opacity="0.72"/><line x1="332.96" y1="357.68" x2="561.99" y2="334.42" stroke="#29d3ff" stroke-width="2" opacity="0.72"/><line x1="216.62" y1="261.54" x2="647.10" y2="526.31" stroke="#9f8dff" stroke-width="3" opacity="0.72"/><line x1="86.38" y1="404.10" x2="585.46" y2="319.35" stroke="#29d3ff" stroke-width="2" opacity="0.72"/><line x1="152.10" y1="277.74" x2="481.77" y2="475.98" stroke="#9f8dff" stroke-width="5" opacity="0.72"/>
  </g>

  <g opacity="0.8">
    <circle cx="457.76" cy="255.79" r="2.56" fill="#9f8dff" opacity="0.59"/><circle cx="16.48" cy="256.40" r="1.62" fill="#29d3ff" opacity="0.39"/><circle cx="520.40" cy="940.77" r="4.80" fill="#9f8dff" opacity="0.67"/><circle cx="752.41" cy="56.34" r="4.37" fill="#29d3ff" opacity="0.66"/><circle cx="266.04" cy="177.49" r="2.14" fill="#9f8dff" opacity="0.31"/><circle cx="36.69" cy="541.75" r="2.20" fill="#29d3ff" opacity="0.67"/><circle cx="58.06" cy="526.60" r="3.79" fill="#9f8dff" opacity="0.56"/><circle cx="337.05" cy="309.66" r="3.84" fill="#29d3ff" opacity="0.69"/><circle cx="400.95" cy="45.89" r="3.17" fill="#9f8dff" opacity="0.69"/><circle cx="94.74" cy="224.58" r="1.64" fill="#29d3ff" opacity="0.53"/><circle cx="506.36" cy="466.41" r="3.41" fill="#9f8dff" opacity="0.49"/><circle cx="145.66" cy="62.94" r="4.65" fill="#29d3ff" opacity="0.31"/><circle cx="118.09" cy="115.63" r="2.89" fill="#9f8dff" opacity="0.62"/><circle cx="110.32" cy="847.88" r="2.83" fill="#29d3ff" opacity="0.39"/><circle cx="190.95" cy="795.34" r="4.24" fill="#9f8dff" opacity="0.35"/><circle cx="222.78" cy="337.43" r="4.87" fill="#29d3ff" opacity="0.25"/><circle cx="479.86" cy="227.58" r="2.42" fill="#9f8dff" opacity="0.28"/><circle cx="202.48" cy="209.89" r="4.72" fill="#29d3ff" opacity="0.27"/><circle cx="438.57" cy="184.22" r="4.25" fill="#9f8dff" opacity="0.70"/><circle cx="724.61" cy="956.64" r="4.86" fill="#29d3ff" opacity="0.39"/><circle cx="759.34" cy="173.36" r="2.73" fill="#9f8dff" opacity="0.54"/><circle cx="58.29" cy="599.93" r="3.75" fill="#29d3ff" opacity="0.64"/><circle cx="495.45" cy="403.50" r="2.28" fill="#9f8dff" opacity="0.66"/><circle cx="26.64" cy="600.16" r="1.55" fill="#29d3ff" opacity="0.53"/><circle cx="289.71" cy="17.98" r="3.16" fill="#9f8dff" opacity="0.55"/><circle cx="743.12" cy="965.79" r="4.31" fill="#29d3ff" opacity="0.69"/><circle cx="100.46" cy="98.93" r="4.11" fill="#9f8dff" opacity="0.69"/><circle cx="200.62" cy="538.71" r="3.87" fill="#29d3ff" opacity="0.59"/>
  </g>

  <rect x="16" y="16" width="736" height="992" rx="24" stroke="url(#edge-void-ranger-c52)" stroke-width="2.5" opacity="0.85"/>
  <rect x="22" y="22" width="724" height="980" rx="20" stroke="#ffd978" stroke-width="2" opacity="0.74"/>

  <rect x="34" y="34" width="700" height="72" rx="14" fill="#070b14" fill-opacity="0.72" stroke="#ffd978" stroke-opacity="0.55"/>
  <text x="54" y="80" fill="#EAF4FF" font-family="Exo 2, Segoe UI, sans-serif" font-size="32" font-weight="700">Void Ranger</text>

  <rect x="34" y="872" width="700" height="92" rx="14" fill="#070b14" fill-opacity="0.74" stroke="#ffd978" stroke-opacity="0.6"/>
  <text x="54" y="924" fill="#D9E7FF" font-family="Exo 2, Segoe UI, sans-serif" font-size="30" font-weight="600">Legendary Ultimate</text>

  <rect x="598" y="36" width="118" height="42" rx="10" fill="#ffd978" fill-opacity="0.2" stroke="#ffd978" stroke-opacity="0.8"/>
  <text x="612" y="65" fill="#ffd978" font-family="Exo 2, Segoe UI, sans-serif" font-size="20" font-weight="700">LEGENDARY</text>

  <circle cx="708" cy="954" r="26" fill="#080d18" stroke="#ffd978" stroke-opacity="0.8"/>
  <text x="696" y="962" fill="#E7F2FF" font-family="Exo 2, Segoe UI, sans-serif" font-size="24" font-weight="700">52</text>
</svg>