<?xml version="1.0" encoding="UTF-8"?>
<svg width="768" height="1024" viewBox="0 0 768 1024" fill="none" xmlns="http://www.w3.org/2000/svg">
  <defs>
    <linearGradient id="bg-void-ranger-c18" x1="60" y1="40" x2="728" y2="1004" gradientUnits="userSpaceOnUse">
      <stop offset="0" stop-color="#0f1028"/>
      <stop offset="0.55" stop-color="#352b7f"/>
      <stop offset="1" stop-color="#0f1028"/>
    </linearGradient>
    <radialGradient id="glow-void-ranger-c18" cx="0" cy="0" r="1" gradientUnits="userSpaceOnUse" gradientTransform="translate(629.39 439.77) rotate(90) scale(213.79 213.79)">
      <stop stop-color="#29d3ff" stop-opacity="0.45"/>
      <stop offset="1" stop-color="#29d3ff" stop-opacity="0"/>
    </radialGradient>
    <linearGradient id="edge-void-ranger-c18" x1="0" y1="0" x2="768" y2="1024" gradientUnits="userSpaceOnUse">
      <stop stop-color="#29d3ff" stop-opacity="0.85"/>
      <stop offset="1" stop-color="#9f8dff" stop-opacity="0.85"/>
    </linearGradient>
  </defs>

  <rect x="0" y="0" width="768" height="1024" rx="32" fill="#060910"/>
  <rect x="16" y="16" width="736" height="992" rx="24" fill="url(#bg-void-ranger-c18)"/>
  <rect x="16" y="16" width="736" height="992" rx="24" fill="url(#glow-void-ranger-c18)"/>

  <g opacity="0.88">
    <line x1="274.82" y1="474.00" x2="520.64" y2="170.91" stroke="#9f8dff" stroke-width="4" opacity="0.72"/><line x1="353.16" y1="233.01" x2="460.61" y2="453.48" stroke="#29d3ff" stroke-width="5" opacity="0.72"/><line x1="323.01" y1="406.09" x2="655.14" y2="746.19" stroke="#9f8dff" stroke-width="2" opacity="0.72"/><line x1="250.63" y1="386.43" x2="685.90" y2="557.21" stroke="#29d3ff" stroke-width="5" opacity="0.72"/><line x1="240.39" y1="535.48" x2="637.34" y2="691.16" stroke="#9f8dff" stroke-width="4" opacity="0.72"/><line x1="215.28" y1="357.86" x2="538.16" y2="836.63" stroke="#29d3ff" stroke-width="3" opacity="0.72"/><line x1="105.58" y1="553.33" x2="569.86" y2="656.51" stroke="#9f8dff" stroke-width="4" opacity="0.72"/>
  </g>

  <g opacity="0.8">
    <circle cx="18.79" cy="368.19" r="3.37" fill="#9f8dff" opacity="0.25"/><circle cx="27.46" cy="645.10" r="4.11" fill="#29d3ff" opacity="0.26"/><circle cx="164.13" cy="704.24" r="4.59" fill="#9f8dff" opacity="0.52"/><circle cx="606.94" cy="628.70" r="4.05" fill="#29d3ff" opacity="0.60"/><circle cx="15.15" cy="157.22" r="1.30" fill="#9f8dff" opacity="0.72"/><circle cx="383.14" cy="729.04" r="2.43" fill="#29d3ff" opacity="0.30"/><circle cx="188.52" cy="454.79" r="3.65" fill="#9f8dff" opacity="0.72"/><circle cx="727.60" cy="706.88" r="1.66" fill="#29d3ff" opacity="0.29"/><circle cx="490.35" cy="223.84" r="4.61" fill="#9f8dff" opacity="0.66"/><circle cx="527.32" cy="149.84" r="3.74" fill="#29d3ff" opacity="0.30"/><circle cx="38.03" cy="790.97" r="4.53" fill="#9f8dff" opacity="0.36"/><circle cx="264.65" cy="324.87" r="2.03" fill="#29d3ff" opacity="0.37"/><circle cx="469.78" cy="475.93" r="1.90" fill="#9f8dff" opacity="0.54"/><circle cx="674.74" cy="638.07" r="2.38" fill="#29d3ff" opacity="0.60"/><circle cx="595.35" cy="916.14" r="4.52" fill="#9f8dff" opacity="0.39"/><circle cx="213.36" cy="9.55" r="3.44" fill="#29d3ff" opacity="0.58"/><circle cx="602.31" cy="877.79" r="4.82" fill="#9f8dff" opacity="0.73"/><circle cx="708.27" cy="712.81" r="2.90" fill="#29d3ff" opacity="0.64"/><circle cx="19.77" cy="911.63" r="3.40" fill="#9f8dff" opacity="0.50"/><circle cx="209.64" cy="863.16" r="3.87" fill="#29d3ff" opacity="0.29"/><circle cx="106.99" cy="732.02" r="3.24" fill="#9f8dff" opacity="0.47"/><circle cx="735.55" cy="96.86" r="3.35" fill="#29d3ff" opacity="0.42"/><circle cx="704.21" cy="148.66" r="4.68" fill="#9f8dff" opacity="0.42"/><circle cx="498.37" cy="33.47" r="4.20" fill="#29d3ff" opacity="0.44"/><circle cx="341.72" cy="725.47" r="1.85" fill="#9f8dff" opacity="0.73"/><circle cx="534.71" cy="281.15" r="1.65" fill="#29d3ff" opacity="0.44"/><circle cx="532.32" cy="996.23" r="2.48" fill="#9f8dff" opacity="0.69"/><circle cx="590.07" cy="101.81" r="2.25" fill="#29d3ff" opacity="0.49"/>
  </g>

  <rect x="16" y="16" width="736" height="992" rx="24" stroke="url(#edge-void-ranger-c18)" stroke-width="2.5" opacity="0.85"/>
  <rect x="22" y="22" width="724" height="980" rx="20" stroke="#8aa0c4" stroke-width="2" opacity="0.74"/>

  <rect x="34" y="34" width="700" height="72" rx="14" fill="#070b14" fill-opacity="0.72" stroke="#8aa0c4" stroke-opacity="0.55"/>
  <text x="54" y="80" fill="#EAF4FF" font-family="Exo 2, Segoe UI, sans-serif" font-size="32" font-weight="700">Void Ranger</text>

  <rect x="34" y="872" width="700" height="92" rx="14" fill="#070b14" fill-opacity="0.74" stroke="#8aa0c4" stroke-opacity="0.6"/>
  <text x="54" y="924" fill="#D9E7FF" font-family="Exo 2, Segoe UI, sans-serif" font-size="30" font-weight="600">Phase Infantry</text>

  <rect x="598" y="36" width="118" height="42" rx="10" fill="#8aa0c4" fill-opacity="0.2" stroke="#8aa0c4" stroke-opacity="0.8"/>
  <text x="612" y="65" fill="#8aa0c4" font-family="Exo 2, Segoe UI, sans-serif" font-size="20" font-weight="700">COMMON</text>

  <circle cx="708" cy="954" r="26" fill="#080d18" stroke="#8aa0c4" stroke-opacity="0.8"/>
  <text x="696" y="962" fill="#E7F2FF" font-family="Exo 2, Segoe UI, sans-serif" font-size="24" font-weight="700">18</text>
</svg>