<?xml version="1.0" encoding="UTF-8"?>
<svg width="768" height="1024" viewBox="0 0 768 1024" fill="none" xmlns="http://www.w3.org/2000/svg">
  <defs>
    <linearGradient id="bg-void-ranger-c17" x1="60" y1="40" x2="728" y2="1004" gradientUnits="userSpaceOnUse">
      <stop offset="0" stop-color="#0f1028"/>
      <stop offset="0.55" stop-color="#352b7f"/>
      <stop offset="1" stop-color="#0f1028"/>
    </linearGradient>
    <radialGradient id="glow-void-ranger-c17" cx="0" cy="0" r="1" gradientUnits="userSpaceOnUse" gradientTransform="translate(515.94 604.90) rotate(90) scale(298.53 298.53)">
      <stop stop-color="#29d3ff" stop-opacity="0.45"/>
      <stop offset="1" stop-color="#29d3ff" stop-opacity="0"/>
    </radialGradient>
    <linearGradient id="edge-void-ranger-c17" x1="0" y1="0" x2="768" y2="1024" gradientUnits="userSpaceOnUse">
      <stop stop-color="#29d3ff" stop-opacity="0.85"/>
      <stop offset="1" stop-color="#9f8dff" stop-opacity="0.85"/>
    </linearGradient>
  </defs>

  <rect x="0" y="0" width="768" height="1024" rx="32" fill="#060910"/>
  <rect x="16" y="16" width="736" height="992" rx="24" fill="url(#bg-void-ranger-c17)"/>
  <rect x="16" y="16" width="736" height="992" rx="24" fill="url(#glow-void-ranger-c17)"/>

  <g opacity="0.88">
    <line x1="325.21" y1="476.18" x2="629.70" y2="459.03" stroke="#9f8dff" stroke-width="2" opacity="0.72"/><line x1="154.01" y1="432.02" x2="578.90" y2="844.43" stroke="#29d3ff" stroke-width="5" opacity="0.72"/><line x1="263.14" y1="496.32" x2="635.69" y2="607.71" stroke="#9f8dff" stroke-width="4" opacity="0.72"/><line x1="120.37" y1="798.88" x2="621.76" y2="505.66" stroke="#29d3ff" stroke-width="2" opacity="0.72"/><line x1="288.52" y1="617.93" x2="523.44" y2="748.89" stroke="#9f8dff" stroke-width="2" opacity="0.72"/><line x1="311.97" y1="611.78" x2="687.05" y2="704.23" stroke="#29d3ff" stroke-width="2" opacity="0.72"/><line x1="196.61" y1="769.12" x2="462.33" y2="812.75" stroke="#9f8dff" stroke-width="5" opacity="0.72"/>
  </g>

  <g opacity="0.8">
    <circle cx="103.99" cy="209.22" r="3.51" fill="#9f8dff" opacity="0.60"/><circle cx="715.37" cy="546.02" r="4.92" fill="#29d3ff" opacity="0.41"/><circle cx="695.30" cy="153.42" r="3.43" fill="#9f8dff" opacity="0.63"/><circle cx="718.78" cy="68.27" r="1.86" fill="#29d3ff" opacity="0.62"/><circle cx="533.87" cy="8.96" r="3.04" fill="#9f8dff" opacity="0.69"/><circle cx="517.15" cy="301.94" r="3.47" fill="#29d3ff" opacity="0.74"/><circle cx="510.87" cy="183.32" r="4.89" fill="#9f8dff" opacity="0.55"/><circle cx="573.78" cy="458.46" r="4.19" fill="#29d3ff" opacity="0.58"/><circle cx="655.42" cy="109.67" r="4.67" fill="#9f8dff" opacity="0.61"/><circle cx="272.99" cy="27.02" r="3.83" fill="#29d3ff" opacity="0.41"/><circle cx="464.12" cy="115.00" r="1.83" fill="#9f8dff" opacity="0.27"/><circle cx="440.05" cy="999.29" r="1.44" fill="#29d3ff" opacity="0.65"/><circle cx="380.10" cy="940.63" r="3.08" fill="#9f8dff" opacity="0.39"/><circle cx="472.79" cy="243.74" r="1.40" fill="#29d3ff" opacity="0.64"/><circle cx="258.24" cy="46.00" r="2.09" fill="#9f8dff" opacity="0.26"/><circle cx="487.90" cy="720.47" r="2.30" fill="#29d3ff" opacity="0.40"/><circle cx="88.81" cy="705.34" r="1.96" fill="#9f8dff" opacity="0.42"/><circle cx="638.22" cy="736.22" r="2.58" fill="#29d3ff" opacity="0.73"/><circle cx="173.91" cy="75.62" r="4.15" fill="#9f8dff" opacity="0.31"/><circle cx="749.24" cy="688.10" r="1.85" fill="#29d3ff" opacity="0.64"/><circle cx="720.84" cy="974.94" r="2.26" fill="#9f8dff" opacity="0.53"/><circle cx="18.96" cy="920.03" r="4.00" fill="#29d3ff" opacity="0.65"/><circle cx="26.23" cy="176.92" r="4.24" fill="#9f8dff" opacity="0.37"/><circle cx="586.94" cy="899.76" r="3.54" fill="#29d3ff" opacity="0.73"/><circle cx="317.71" cy="93.66" r="3.98" fill="#9f8dff" opacity="0.61"/><circle cx="102.35" cy="351.28" r="1.58" fill="#29d3ff" opacity="0.42"/><circle cx="556.78" cy="212.32" r="4.45" fill="#9f8dff" opacity="0.40"/><circle cx="686.13" cy="1015.46" r="1.71" fill="#29d3ff" opacity="0.39"/>
  </g>

  <rect x="16" y="16" width="736" height="992" rx="24" stroke="url(#edge-void-ranger-c17)" stroke-width="2.5" opacity="0.85"/>
  <rect x="22" y="22" width="724" height="980" rx="20" stroke="#8aa0c4" stroke-width="2" opacity="0.74"/>

  <rect x="34" y="34" width="700" height="72" rx="14" fill="#070b14" fill-opacity="0.72" stroke="#8aa0c4" stroke-opacity="0.55"/>
  <text x="54" y="80" fill="#EAF4FF" font-family="Exo 2, Segoe UI, sans-serif" font-size="32" font-weight="700">Void Ranger</text>

  <rect x="34" y="872" width="700" height="92" rx="14" fill="#070b14" fill-opacity="0.74" stroke="#8aa0c4" stroke-opacity="0.6"/>
  <text x="54" y="924" fill="#D9E7FF" font-family="Exo 2, Segoe UI, sans-serif" font-size="30" font-weight="600">Enforcer</text>

  <rect x="598" y="36" width="118" height="42" rx="10" fill="#8aa0c4" fill-opacity="0.2" stroke="#8aa0c4" stroke-opacity="0.8"/>
  <text x="612" y="65" fill="#8aa0c4" font-family="Exo 2, Segoe UI, sans-serif" font-size="20" font-weight="700">COMMON</text>

  <circle cx="708" cy="954" r="26" fill="#080d18" stroke="#8aa0c4" stroke-opacity="0.8"/>
  <text x="696" y="962" fill="#E7F2FF" font-family="Exo 2, Segoe UI, sans-serif" font-size="24" font-weight="700">17</text>
</svg>