<?xml version="1.0" encoding="UTF-8"?>
<svg width="768" height="1024" viewBox="0 0 768 1024" fill="none" xmlns="http://www.w3.org/2000/svg">
  <defs>
    <linearGradient id="bg-void-ranger-c08" x1="60" y1="40" x2="728" y2="1004" gradientUnits="userSpaceOnUse">
      <stop offset="0" stop-color="#0f1028"/>
      <stop offset="0.55" stop-color="#352b7f"/>
      <stop offset="1" stop-color="#0f1028"/>
    </linearGradient>
    <radialGradient id="glow-void-ranger-c08" cx="0" cy="0" r="1" gradientUnits="userSpaceOnUse" gradientTransform="translate(479.71 646.65) rotate(90) scale(293.44 293.44)">
      <stop stop-color="#29d3ff" stop-opacity="0.45"/>
      <stop offset="1" stop-color="#29d3ff" stop-opacity="0"/>
    </radialGradient>
    <linearGradient id="edge-void-ranger-c08" x1="0" y1="0" x2="768" y2="1024" gradientUnits="userSpaceOnUse">
      <stop stop-color="#29d3ff" stop-opacity="0.85"/>
      <stop offset="1" stop-color="#9f8dff" stop-opacity="0.85"/>
    </linearGradient>
  </defs>

  <rect x="0" y="0" width="768" height="1024" rx="32" fill="#060910"/>
  <rect x="16" y="16" width="736" height="992" rx="24" fill="url(#bg-void-ranger-c08)"/>
  <rect x="16" y="16" width="736" height="992" rx="24" fill="url(#glow-void-ranger-c08)"/>

  <g opacity="0.88">
    <line x1="298.25" y1="276.46" x2="631.64" y2="378.30" stroke="#9f8dff" stroke-width="2" opacity="0.72"/><line x1="360.71" y1="633.86" x2="614.94" y2="645.62" stroke="#29d3ff" stroke-width="2" opacity="0.72"/><line x1="233.92" y1="388.63" x2="655.45" y2="243.26" stroke="#9f8dff" stroke-width="4" opacity="0.72"/><line x1="222.81" y1="456.63" x2="602.73" y2="438.70" stroke="#29d3ff" stroke-width="3" opacity="0.72"/><line x1="222.08" y1="606.01" x2="526.96" y2="307.59" stroke="#9f8dff" stroke-width="3" opacity="0.72"/><line x1="108.42" y1="621.88" x2="659.24" y2="667.94" stroke="#29d3ff" stroke-width="5" opacity="0.72"/><line x1="231.35" y1="811.77" x2="677.17" y2="673.95" stroke="#9f8dff" stroke-width="2" opacity="0.72"/>
  </g>

  <g opacity="0.8">
    <circle cx="573.75" cy="447.17" r="4.47" fill="#9f8dff" opacity="0.66"/><circle cx="603.36" cy="85.55" r="1.30" fill="#29d3ff" opacity="0.50"/><circle cx="563.26" cy="666.48" r="2.69" fill="#9f8dff" opacity="0.64"/><circle cx="361.09" cy="861.22" r="3.25" fill="#29d3ff" opacity="0.66"/><circle cx="643.70" cy="420.62" r="3.19" fill="#9f8dff" opacity="0.62"/><circle cx="603.34" cy="690.02" r="4.70" fill="#29d3ff" opacity="0.56"/><circle cx="263.48" cy="966.23" r="2.69" fill="#9f8dff" opacity="0.51"/><circle cx="222.46" cy="548.26" r="1.76" fill="#29d3ff" opacity="0.58"/><circle cx="308.26" cy="393.38" r="4.61" fill="#9f8dff" opacity="0.66"/><circle cx="530.21" cy="28.09" r="3.83" fill="#29d3ff" opacity="0.41"/><circle cx="435.30" cy="0.12" r="4.88" fill="#9f8dff" opacity="0.54"/><circle cx="465.70" cy="706.48" r="1.81" fill="#29d3ff" opacity="0.30"/><circle cx="221.99" cy="1017.69" r="2.44" fill="#9f8dff" opacity="0.61"/><circle cx="381.83" cy="910.37" r="1.39" fill="#29d3ff" opacity="0.34"/><circle cx="279.91" cy="796.46" r="3.39" fill="#9f8dff" opacity="0.42"/><circle cx="536.42" cy="1003.41" r="4.53" fill="#29d3ff" opacity="0.47"/><circle cx="173.45" cy="279.98" r="3.68" fill="#9f8dff" opacity="0.26"/><circle cx="195.90" cy="39.96" r="1.25" fill="#29d3ff" opacity="0.38"/><circle cx="198.03" cy="368.25" r="4.07" fill="#9f8dff" opacity="0.55"/><circle cx="132.74" cy="547.31" r="2.83" fill="#29d3ff" opacity="0.27"/><circle cx="386.69" cy="359.55" r="4.01" fill="#9f8dff" opacity="0.46"/><circle cx="322.72" cy="509.18" r="4.04" fill="#29d3ff" opacity="0.61"/><circle cx="497.99" cy="984.31" r="4.96" fill="#9f8dff" opacity="0.35"/><circle cx="671.36" cy="1001.95" r="4.53" fill="#29d3ff" opacity="0.29"/><circle cx="279.12" cy="49.30" r="3.34" fill="#9f8dff" opacity="0.56"/><circle cx="281.97" cy="556.05" r="4.69" fill="#29d3ff" opacity="0.40"/><circle cx="428.64" cy="362.34" r="3.50" fill="#9f8dff" opacity="0.25"/><circle cx="218.47" cy="286.61" r="1.64" fill="#29d3ff" opacity="0.56"/>
  </g>

  <rect x="16" y="16" width="736" height="992" rx="24" stroke="url(#edge-void-ranger-c08)" stroke-width="2.5" opacity="0.85"/>
  <rect x="22" y="22" width="724" height="980" rx="20" stroke="#8aa0c4" stroke-width="2" opacity="0.74"/>

  <rect x="34" y="34" width="700" height="72" rx="14" fill="#070b14" fill-opacity="0.72" stroke="#8aa0c4" stroke-opacity="0.55"/>
  <text x="54" y="80" fill="#EAF4FF" font-family="Exo 2, Segoe UI, sans-serif" font-size="32" font-weight="700">Void Ranger</text>

  <rect x="34" y="872" width="700" height="92" rx="14" fill="#070b14" fill-opacity="0.74" stroke="#8aa0c4" stroke-opacity="0.6"/>
  <text x="54" y="924" fill="#D9E7FF" font-family="Exo 2, Segoe UI, sans-serif" font-size="30" font-weight="600">Guardian</text>

  <rect x="598" y="36" width="118" height="42" rx="10" fill="#8aa0c4" fill-opacity="0.2" stroke="#8aa0c4" stroke-opacity="0.8"/>
  <text x="612" y="65" fill="#8aa0c4" font-family="Exo 2, Segoe UI, sans-serif" font-size="20" font-weight="700">COMMON</text>

  <circle cx="708" cy="954" r="26" fill="#080d18" stroke="#8aa0c4" stroke-opacity="0.8"/>
  <text x="696" y="962" fill="#E7F2FF" font-family="Exo 2, Segoe UI, sans-serif" font-size="24" font-weight="700">08</text>
</svg>