<?xml version="1.0" encoding="UTF-8"?>
<svg width="768" height="1024" viewBox="0 0 768 1024" fill="none" xmlns="http://www.w3.org/2000/svg">
  <defs>
    <linearGradient id="bg-void-ranger-c38" x1="60" y1="40" x2="728" y2="1004" gradientUnits="userSpaceOnUse">
      <stop offset="0" stop-color="#0f1028"/>
      <stop offset="0.55" stop-color="#352b7f"/>
      <stop offset="1" stop-color="#0f1028"/>
    </linearGradient>
    <radialGradient id="glow-void-ranger-c38" cx="0" cy="0" r="1" gradientUnits="userSpaceOnUse" gradientTransform="translate(119.66 679.49) rotate(90) scale(265.86 265.86)">
      <stop stop-color="#29d3ff" stop-opacity="0.45"/>
      <stop offset="1" stop-color="#29d3ff" stop-opacity="0"/>
    </radialGradient>
    <linearGradient id="edge-void-ranger-c38" x1="0" y1="0" x2="768" y2="1024" gradientUnits="userSpaceOnUse">
      <stop stop-color="#29d3ff" stop-opacity="0.85"/>
      <stop offset="1" stop-color="#9f8dff" stop-opacity="0.85"/>
    </linearGradient>
  </defs>

  <rect x="0" y="0" width="768" height="1024" rx="32" fill="#060910"/>
  <rect x="16" y="16" width="736" height="992" rx="24" fill="url(#bg-void-ranger-c38)"/>
  <rect x="16" y="16" width="736" height="992" rx="24" fill="url(#glow-void-ranger-c38)"/>

  <g opacity="0.88">
    <line x1="379.84" y1="349.30" x2="664.89" y2="177.00" stroke="#9f8dff" stroke-width="5" opacity="0.72"/><line x1="159.59" y1="389.79" x2="423.45" y2="157.59" stroke="#29d3ff" stroke-width="5" opacity="0.72"/><line x1="297.74" y1="487.36" x2="598.95" y2="789.35" stroke="#9f8dff" stroke-width="5" opacity="0.72"/><line x1="142.18" y1="405.79" x2="620.26" y2="246.75" stroke="#29d3ff" stroke-width="3" opacity="0.72"/><line x1="237.40" y1="277.18" x2="659.31" y2="684.32" stroke="#9f8dff" stroke-width="2" opacity="0.72"/><line x1="144.82" y1="726.97" x2="567.16" y2="380.98" stroke="#29d3ff" stroke-width="5" opacity="0.72"/><line x1="109.60" y1="486.61" x2="526.80" y2="379.66" stroke="#9f8dff" stroke-width="5" opacity="0.72"/>
  </g>

  <g opacity="0.8">
    <circle cx="393.70" cy="150.94" r="2.59" fill="#9f8dff" opacity="0.45"/><circle cx="694.29" cy="38.83" r="1.99" fill="#29d3ff" opacity="0.58"/><circle cx="172.80" cy="197.34" r="1.37" fill="#9f8dff" opacity="0.70"/><circle cx="0.14" cy="445.73" r="4.19" fill="#29d3ff" opacity="0.51"/><circle cx="451.46" cy="557.21" r="4.64" fill="#9f8dff" opacity="0.25"/><circle cx="437.35" cy="945.29" r="2.22" fill="#29d3ff" opacity="0.60"/><circle cx="290.37" cy="573.24" r="1.70" fill="#9f8dff" opacity="0.52"/><circle cx="146.52" cy="142.99" r="4.55" fill="#29d3ff" opacity="0.59"/><circle cx="164.64" cy="302.98" r="3.45" fill="#9f8dff" opacity="0.52"/><circle cx="702.67" cy="26.36" r="3.03" fill="#29d3ff" opacity="0.56"/><circle cx="651.62" cy="995.81" r="3.46" fill="#9f8dff" opacity="0.67"/><circle cx="542.31" cy="398.77" r="2.11" fill="#29d3ff" opacity="0.65"/><circle cx="271.06" cy="1003.82" r="1.71" fill="#9f8dff" opacity="0.26"/><circle cx="551.57" cy="928.71" r="3.81" fill="#29d3ff" opacity="0.49"/><circle cx="569.11" cy="347.85" r="4.47" fill="#9f8dff" opacity="0.41"/><circle cx="221.80" cy="424.53" r="4.35" fill="#29d3ff" opacity="0.69"/><circle cx="94.84" cy="830.32" r="1.48" fill="#9f8dff" opacity="0.41"/><circle cx="505.29" cy="35.37" r="4.32" fill="#29d3ff" opacity="0.44"/><circle cx="494.94" cy="401.39" r="1.89" fill="#9f8dff" opacity="0.27"/><circle cx="262.37" cy="690.12" r="3.58" fill="#29d3ff" opacity="0.51"/><circle cx="556.78" cy="654.16" r="4.44" fill="#9f8dff" opacity="0.36"/><circle cx="43.48" cy="600.54" r="2.65" fill="#29d3ff" opacity="0.28"/><circle cx="461.99" cy="157.20" r="2.06" fill="#9f8dff" opacity="0.72"/><circle cx="576.65" cy="908.19" r="4.75" fill="#29d3ff" opacity="0.57"/><circle cx="701.96" cy="739.44" r="1.70" fill="#9f8dff" opacity="0.65"/><circle cx="359.70" cy="813.11" r="2.07" fill="#29d3ff" opacity="0.58"/><circle cx="484.51" cy="1.89" r="2.35" fill="#9f8dff" opacity="0.49"/><circle cx="762.80" cy="506.61" r="4.37" fill="#29d3ff" opacity="0.39"/>
  </g>

  <rect x="16" y="16" width="736" height="992" rx="24" stroke="url(#edge-void-ranger-c38)" stroke-width="2.5" opacity="0.85"/>
  <rect x="22" y="22" width="724" height="980" rx="20" stroke="#78d8ff" stroke-width="2" opacity="0.74"/>

  <rect x="34" y="34" width="700" height="72" rx="14" fill="#070b14" fill-opacity="0.72" stroke="#78d8ff" stroke-opacity="0.55"/>
  <text x="54" y="80" fill="#EAF4FF" font-family="Exo 2, Segoe UI, sans-serif" font-size="32" font-weight="700">Void Ranger</text>

  <rect x="34" y="872" width="700" height="92" rx="14" fill="#070b14" fill-opacity="0.74" stroke="#78d8ff" stroke-opacity="0.6"/>
  <text x="54" y="924" fill="#D9E7FF" font-family="Exo 2, Segoe UI, sans-serif" font-size="30" font-weight="600">Reposition</text>

  <rect x="598" y="36" width="118" height="42" rx="10" fill="#78d8ff" fill-opacity="0.2" stroke="#78d8ff" stroke-opacity="0.8"/>
  <text x="612" y="65" fill="#78d8ff" font-family="Exo 2, Segoe UI, sans-serif" font-size="20" font-weight="700">RARE</text>

  <circle cx="708" cy="954" r="26" fill="#080d18" stroke="#78d8ff" stroke-opacity="0.8"/>
  <text x="696" y="962" fill="#E7F2FF" font-family="Exo 2, Segoe UI, sans-serif" font-size="24" font-weight="700">38</text>
</svg>