<?xml version="1.0" encoding="UTF-8"?>
<svg width="768" height="1024" viewBox="0 0 768 1024" fill="none" xmlns="http://www.w3.org/2000/svg">
  <defs>
    <linearGradient id="bg-void-ranger-c05" x1="60" y1="40" x2="728" y2="1004" gradientUnits="userSpaceOnUse">
      <stop offset="0" stop-color="#0f1028"/>
      <stop offset="0.55" stop-color="#352b7f"/>
      <stop offset="1" stop-color="#0f1028"/>
    </linearGradient>
    <radialGradient id="glow-void-ranger-c05" cx="0" cy="0" r="1" gradientUnits="userSpaceOnUse" gradientTransform="translate(634.85 731.82) rotate(90) scale(204.70 204.70)">
      <stop stop-color="#29d3ff" stop-opacity="0.45"/>
      <stop offset="1" stop-color="#29d3ff" stop-opacity="0"/>
    </radialGradient>
    <linearGradient id="edge-void-ranger-c05" x1="0" y1="0" x2="768" y2="1024" gradientUnits="userSpaceOnUse">
      <stop stop-color="#29d3ff" stop-opacity="0.85"/>
      <stop offset="1" stop-color="#9f8dff" stop-opacity="0.85"/>
    </linearGradient>
  </defs>

  <rect x="0" y="0" width="768" height="1024" rx="32" fill="#060910"/>
  <rect x="16" y="16" width="736" height="992" rx="24" fill="url(#bg-void-ranger-c05)"/>
  <rect x="16" y="16" width="736" height="992" rx="24" fill="url(#glow-void-ranger-c05)"/>

  <g opacity="0.88">
    <line x1="379.20" y1="591.89" x2="502.92" y2="639.94" stroke="#9f8dff" stroke-width="3" opacity="0.72"/><line x1="82.43" y1="629.70" x2="612.45" y2="836.10" stroke="#29d3ff" stroke-width="4" opacity="0.72"/><line x1="101.28" y1="782.68" x2="659.27" y2="393.59" stroke="#9f8dff" stroke-width="4" opacity="0.72"/><line x1="220.98" y1="280.56" x2="665.79" y2="222.88" stroke="#29d3ff" stroke-width="3" opacity="0.72"/><line x1="210.12" y1="567.63" x2="644.75" y2="618.97" stroke="#9f8dff" stroke-width="4" opacity="0.72"/><line x1="358.23" y1="703.14" x2="425.50" y2="177.10" stroke="#29d3ff" stroke-width="2" opacity="0.72"/><line x1="81.23" y1="467.74" x2="610.27" y2="193.12" stroke="#9f8dff" stroke-width="3" opacity="0.72"/>
  </g>

  <g opacity="0.8">
    <circle cx="160.48" cy="615.15" r="2.46" fill="#9f8dff" opacity="0.34"/><circle cx="99.22" cy="361.13" r="4.74" fill="#29d3ff" opacity="0.70"/><circle cx="493.63" cy="159.00" r="1.74" fill="#9f8dff" opacity="0.59"/><circle cx="389.76" cy="338.69" r="3.15" fill="#29d3ff" opacity="0.30"/><circle cx="99.62" cy="316.19" r="4.29" fill="#9f8dff" opacity="0.43"/><circle cx="624.49" cy="222.77" r="3.53" fill="#29d3ff" opacity="0.43"/><circle cx="501.39" cy="946.09" r="3.25" fill="#9f8dff" opacity="0.63"/><circle cx="580.18" cy="67.87" r="1.37" fill="#29d3ff" opacity="0.58"/><circle cx="400.86" cy="447.82" r="2.21" fill="#9f8dff" opacity="0.28"/><circle cx="305.76" cy="781.56" r="3.52" fill="#29d3ff" opacity="0.62"/><circle cx="687.35" cy="152.90" r="4.70" fill="#9f8dff" opacity="0.53"/><circle cx="146.67" cy="872.22" r="2.13" fill="#29d3ff" opacity="0.55"/><circle cx="363.20" cy="676.49" r="1.79" fill="#9f8dff" opacity="0.51"/><circle cx="36.52" cy="451.61" r="1.27" fill="#29d3ff" opacity="0.41"/><circle cx="95.26" cy="786.05" r="3.12" fill="#9f8dff" opacity="0.27"/><circle cx="500.18" cy="641.81" r="3.80" fill="#29d3ff" opacity="0.48"/><circle cx="626.37" cy="880.91" r="2.31" fill="#9f8dff" opacity="0.73"/><circle cx="435.69" cy="966.64" r="4.50" fill="#29d3ff" opacity="0.69"/><circle cx="216.56" cy="976.27" r="3.05" fill="#9f8dff" opacity="0.54"/><circle cx="125.72" cy="584.58" r="4.17" fill="#29d3ff" opacity="0.52"/><circle cx="219.48" cy="431.20" r="4.86" fill="#9f8dff" opacity="0.35"/><circle cx="307.19" cy="758.22" r="4.23" fill="#29d3ff" opacity="0.47"/><circle cx="737.48" cy="27.47" r="2.47" fill="#9f8dff" opacity="0.51"/><circle cx="183.44" cy="1014.22" r="3.14" fill="#29d3ff" opacity="0.27"/><circle cx="331.24" cy="775.05" r="2.47" fill="#9f8dff" opacity="0.50"/><circle cx="392.40" cy="422.38" r="3.59" fill="#29d3ff" opacity="0.33"/><circle cx="295.80" cy="379.83" r="4.43" fill="#9f8dff" opacity="0.37"/><circle cx="503.36" cy="383.62" r="1.89" fill="#29d3ff" opacity="0.45"/>
  </g>

  <rect x="16" y="16" width="736" height="992" rx="24" stroke="url(#edge-void-ranger-c05)" stroke-width="2.5" opacity="0.85"/>
  <rect x="22" y="22" width="724" height="980" rx="20" stroke="#8aa0c4" stroke-width="2" opacity="0.74"/>

  <rect x="34" y="34" width="700" height="72" rx="14" fill="#070b14" fill-opacity="0.72" stroke="#8aa0c4" stroke-opacity="0.55"/>
  <text x="54" y="80" fill="#EAF4FF" font-family="Exo 2, Segoe UI, sans-serif" font-size="32" font-weight="700">Void Ranger</text>

  <rect x="34" y="872" width="700" height="92" rx="14" fill="#070b14" fill-opacity="0.74" stroke="#8aa0c4" stroke-opacity="0.6"/>
  <text x="54" y="924" fill="#D9E7FF" font-family="Exo 2, Segoe UI, sans-serif" font-size="30" font-weight="600">Engineer</text>

  <rect x="598" y="36" width="118" height="42" rx="10" fill="#8aa0c4" fill-opacity="0.2" stroke="#8aa0c4" stroke-opacity="0.8"/>
  <text x="612" y="65" fill="#8aa0c4" font-family="Exo 2, Segoe UI, sans-serif" font-size="20" font-weight="700">COMMON</text>

  <circle cx="708" cy="954" r="26" fill="#080d18" stroke="#8aa0c4" stroke-opacity="0.8"/>
  <text x="696" y="962" fill="#E7F2FF" font-family="Exo 2, Segoe UI, sans-serif" font-size="24" font-weight="700">05</text>
</svg>