<?xml version="1.0" encoding="UTF-8"?>
<svg width="768" height="1024" viewBox="0 0 768 1024" fill="none" xmlns="http://www.w3.org/2000/svg">
  <defs>
    <linearGradient id="bg-void-ranger-c22" x1="60" y1="40" x2="728" y2="1004" gradientUnits="userSpaceOnUse">
      <stop offset="0" stop-color="#0f1028"/>
      <stop offset="0.55" stop-color="#352b7f"/>
      <stop offset="1" stop-color="#0f1028"/>
    </linearGradient>
    <radialGradient id="glow-void-ranger-c22" cx="0" cy="0" r="1" gradientUnits="userSpaceOnUse" gradientTransform="translate(447.52 707.85) rotate(90) scale(283.77 283.77)">
      <stop stop-color="#29d3ff" stop-opacity="0.45"/>
      <stop offset="1" stop-color="#29d3ff" stop-opacity="0"/>
    </radialGradient>
    <linearGradient id="edge-void-ranger-c22" x1="0" y1="0" x2="768" y2="1024" gradientUnits="userSpaceOnUse">
      <stop stop-color="#29d3ff" stop-opacity="0.85"/>
      <stop offset="1" stop-color="#9f8dff" stop-opacity="0.85"/>
    </linearGradient>
  </defs>

  <rect x="0" y="0" width="768" height="1024" rx="32" fill="#060910"/>
  <rect x="16" y="16" width="736" height="992" rx="24" fill="url(#bg-void-ranger-c22)"/>
  <rect x="16" y="16" width="736" height="992" rx="24" fill="url(#glow-void-ranger-c22)"/>

  <g opacity="0.88">
    <line x1="383.57" y1="233.61" x2="650.97" y2="589.89" stroke="#9f8dff" stroke-width="3" opacity="0.72"/><line x1="244.15" y1="479.47" x2="682.78" y2="364.98" stroke="#29d3ff" stroke-width="5" opacity="0.72"/><line x1="144.59" y1="555.36" x2="478.28" y2="269.81" stroke="#9f8dff" stroke-width="5" opacity="0.72"/><line x1="151.05" y1="286.85" x2="460.03" y2="451.57" stroke="#29d3ff" stroke-width="4" opacity="0.72"/><line x1="377.62" y1="405.79" x2="625.86" y2="160.92" stroke="#9f8dff" stroke-width="5" opacity="0.72"/><line x1="165.38" y1="316.57" x2="507.75" y2="814.30" stroke="#29d3ff" stroke-width="4" opacity="0.72"/><line x1="146.88" y1="300.30" x2="640.88" y2="809.27" stroke="#9f8dff" stroke-width="3" opacity="0.72"/>
  </g>

  <g opacity="0.8">
    <circle cx="8.09" cy="610.79" r="1.93" fill="#9f8dff" opacity="0.64"/><circle cx="258.09" cy="268.54" r="2.62" fill="#29d3ff" opacity="0.71"/><circle cx="737.15" cy="503.98" r="1.92" fill="#9f8dff" opacity="0.62"/><circle cx="143.87" cy="3.91" r="2.93" fill="#29d3ff" opacity="0.69"/><circle cx="362.68" cy="276.22" r="2.68" fill="#9f8dff" opacity="0.36"/><circle cx="695.17" cy="698.78" r="4.77" fill="#29d3ff" opacity="0.60"/><circle cx="577.59" cy="458.90" r="4.16" fill="#9f8dff" opacity="0.52"/><circle cx="470.62" cy="85.99" r="2.34" fill="#29d3ff" opacity="0.49"/><circle cx="65.73" cy="623.15" r="4.63" fill="#9f8dff" opacity="0.66"/><circle cx="432.94" cy="661.51" r="2.27" fill="#29d3ff" opacity="0.40"/><circle cx="0.81" cy="596.57" r="4.97" fill="#9f8dff" opacity="0.52"/><circle cx="529.12" cy="493.55" r="2.87" fill="#29d3ff" opacity="0.65"/><circle cx="40.48" cy="731.01" r="2.03" fill="#9f8dff" opacity="0.45"/><circle cx="689.32" cy="966.14" r="4.31" fill="#29d3ff" opacity="0.60"/><circle cx="66.10" cy="425.25" r="1.57" fill="#9f8dff" opacity="0.47"/><circle cx="314.57" cy="158.70" r="3.40" fill="#29d3ff" opacity="0.36"/><circle cx="556.09" cy="432.07" r="3.17" fill="#9f8dff" opacity="0.38"/><circle cx="578.91" cy="419.82" r="3.47" fill="#29d3ff" opacity="0.39"/><circle cx="117.79" cy="213.20" r="1.41" fill="#9f8dff" opacity="0.63"/><circle cx="752.49" cy="366.86" r="4.53" fill="#29d3ff" opacity="0.58"/><circle cx="55.55" cy="1008.57" r="1.41" fill="#9f8dff" opacity="0.59"/><circle cx="535.35" cy="674.98" r="1.51" fill="#29d3ff" opacity="0.45"/><circle cx="118.07" cy="731.15" r="4.60" fill="#9f8dff" opacity="0.56"/><circle cx="469.72" cy="461.84" r="1.87" fill="#29d3ff" opacity="0.74"/><circle cx="587.69" cy="559.47" r="2.87" fill="#9f8dff" opacity="0.45"/><circle cx="724.41" cy="884.96" r="3.46" fill="#29d3ff" opacity="0.74"/><circle cx="558.56" cy="405.89" r="2.19" fill="#9f8dff" opacity="0.32"/><circle cx="643.01" cy="880.08" r="2.09" fill="#29d3ff" opacity="0.48"/>
  </g>

  <rect x="16" y="16" width="736" height="992" rx="24" stroke="url(#edge-void-ranger-c22)" stroke-width="2.5" opacity="0.85"/>
  <rect x="22" y="22" width="724" height="980" rx="20" stroke="#8aa0c4" stroke-width="2" opacity="0.74"/>

  <rect x="34" y="34" width="700" height="72" rx="14" fill="#070b14" fill-opacity="0.72" stroke="#8aa0c4" stroke-opacity="0.55"/>
  <text x="54" y="80" fill="#EAF4FF" font-family="Exo 2, Segoe UI, sans-serif" font-size="32" font-weight="700">Void Ranger</text>

  <rect x="34" y="872" width="700" height="92" rx="14" fill="#070b14" fill-opacity="0.74" stroke="#8aa0c4" stroke-opacity="0.6"/>
  <text x="54" y="924" fill="#D9E7FF" font-family="Exo 2, Segoe UI, sans-serif" font-size="30" font-weight="600">Trapwright</text>

  <rect x="598" y="36" width="118" height="42" rx="10" fill="#8aa0c4" fill-opacity="0.2" stroke="#8aa0c4" stroke-opacity="0.8"/>
  <text x="612" y="65" fill="#8aa0c4" font-family="Exo 2, Segoe UI, sans-serif" font-size="20" font-weight="700">COMMON</text>

  <circle cx="708" cy="954" r="26" fill="#080d18" stroke="#8aa0c4" stroke-opacity="0.8"/>
  <text x="696" y="962" fill="#E7F2FF" font-family="Exo 2, Segoe UI, sans-serif" font-size="24" font-weight="700">22</text>
</svg>