<?xml version="1.0" encoding="UTF-8"?>
<svg width="768" height="1024" viewBox="0 0 768 1024" fill="none" xmlns="http://www.w3.org/2000/svg">
  <defs>
    <linearGradient id="bg-void-ranger-c42" x1="60" y1="40" x2="728" y2="1004" gradientUnits="userSpaceOnUse">
      <stop offset="0" stop-color="#0f1028"/>
      <stop offset="0.55" stop-color="#352b7f"/>
      <stop offset="1" stop-color="#0f1028"/>
    </linearGradient>
    <radialGradient id="glow-void-ranger-c42" cx="0" cy="0" r="1" gradientUnits="userSpaceOnUse" gradientTransform="translate(525.36 511.31) rotate(90) scale(286.86 286.86)">
      <stop stop-color="#29d3ff" stop-opacity="0.45"/>
      <stop offset="1" stop-color="#29d3ff" stop-opacity="0"/>
    </radialGradient>
    <linearGradient id="edge-void-ranger-c42" x1="0" y1="0" x2="768" y2="1024" gradientUnits="userSpaceOnUse">
      <stop stop-color="#29d3ff" stop-opacity="0.85"/>
      <stop offset="1" stop-color="#9f8dff" stop-opacity="0.85"/>
    </linearGradient>
  </defs>

  <rect x="0" y="0" width="768" height="1024" rx="32" fill="#060910"/>
  <rect x="16" y="16" width="736" height="992" rx="24" fill="url(#bg-void-ranger-c42)"/>
  <rect x="16" y="16" width="736" height="992" rx="24" fill="url(#glow-void-ranger-c42)"/>

  <g opacity="0.88">
    <line x1="375.48" y1="812.64" x2="512.57" y2="182.21" stroke="#9f8dff" stroke-width="2" opacity="0.72"/><line x1="361.75" y1="565.67" x2="651.40" y2="849.75" stroke="#29d3ff" stroke-width="4" opacity="0.72"/><line x1="313.92" y1="614.65" x2="613.78" y2="524.00" stroke="#9f8dff" stroke-width="5" opacity="0.72"/><line x1="340.35" y1="405.56" x2="450.54" y2="662.68" stroke="#29d3ff" stroke-width="4" opacity="0.72"/><line x1="251.95" y1="393.30" x2="600.29" y2="769.75" stroke="#9f8dff" stroke-width="3" opacity="0.72"/><line x1="182.62" y1="427.93" x2="565.37" y2="172.44" stroke="#29d3ff" stroke-width="2" opacity="0.72"/><line x1="209.77" y1="280.74" x2="586.94" y2="564.44" stroke="#9f8dff" stroke-width="4" opacity="0.72"/>
  </g>

  <g opacity="0.8">
    <circle cx="104.26" cy="30.94" r="1.85" fill="#9f8dff" opacity="0.27"/><circle cx="33.54" cy="3.34" r="4.21" fill="#29d3ff" opacity="0.32"/><circle cx="59.43" cy="136.38" r="2.65" fill="#9f8dff" opacity="0.24"/><circle cx="67.73" cy="954.55" r="1.95" fill="#29d3ff" opacity="0.53"/><circle cx="78.67" cy="148.09" r="3.50" fill="#9f8dff" opacity="0.38"/><circle cx="184.25" cy="275.66" r="3.72" fill="#29d3ff" opacity="0.36"/><circle cx="41.06" cy="809.62" r="2.71" fill="#9f8dff" opacity="0.44"/><circle cx="482.00" cy="962.62" r="1.50" fill="#29d3ff" opacity="0.32"/><circle cx="603.50" cy="18.79" r="4.26" fill="#9f8dff" opacity="0.38"/><circle cx="277.00" cy="126.64" r="4.89" fill="#29d3ff" opacity="0.33"/><circle cx="155.05" cy="410.28" r="1.87" fill="#9f8dff" opacity="0.31"/><circle cx="450.10" cy="209.70" r="1.98" fill="#29d3ff" opacity="0.51"/><circle cx="490.38" cy="229.04" r="4.38" fill="#9f8dff" opacity="0.66"/><circle cx="680.74" cy="245.78" r="1.50" fill="#29d3ff" opacity="0.54"/><circle cx="204.12" cy="1003.76" r="4.33" fill="#9f8dff" opacity="0.41"/><circle cx="197.75" cy="737.99" r="4.03" fill="#29d3ff" opacity="0.42"/><circle cx="499.36" cy="845.24" r="4.39" fill="#9f8dff" opacity="0.26"/><circle cx="21.18" cy="691.88" r="2.50" fill="#29d3ff" opacity="0.52"/><circle cx="236.77" cy="1010.06" r="1.62" fill="#9f8dff" opacity="0.27"/><circle cx="201.00" cy="130.79" r="4.42" fill="#29d3ff" opacity="0.43"/><circle cx="372.02" cy="100.73" r="4.93" fill="#9f8dff" opacity="0.71"/><circle cx="187.42" cy="480.62" r="4.04" fill="#29d3ff" opacity="0.64"/><circle cx="120.74" cy="604.15" r="2.48" fill="#9f8dff" opacity="0.56"/><circle cx="233.16" cy="902.68" r="4.98" fill="#29d3ff" opacity="0.71"/><circle cx="364.82" cy="869.20" r="1.34" fill="#9f8dff" opacity="0.35"/><circle cx="496.59" cy="97.26" r="3.63" fill="#29d3ff" opacity="0.61"/><circle cx="187.17" cy="498.63" r="2.97" fill="#9f8dff" opacity="0.48"/><circle cx="209.15" cy="151.65" r="4.48" fill="#29d3ff" opacity="0.68"/>
  </g>

  <rect x="16" y="16" width="736" height="992" rx="24" stroke="url(#edge-void-ranger-c42)" stroke-width="2.5" opacity="0.85"/>
  <rect x="22" y="22" width="724" height="980" rx="20" stroke="#78d8ff" stroke-width="2" opacity="0.74"/>

  <rect x="34" y="34" width="700" height="72" rx="14" fill="#070b14" fill-opacity="0.72" stroke="#78d8ff" stroke-opacity="0.55"/>
  <text x="54" y="80" fill="#EAF4FF" font-family="Exo 2, Segoe UI, sans-serif" font-size="32" font-weight="700">Void Ranger</text>

  <rect x="34" y="872" width="700" height="92" rx="14" fill="#070b14" fill-opacity="0.74" stroke="#78d8ff" stroke-opacity="0.6"/>
  <text x="54" y="924" fill="#D9E7FF" font-family="Exo 2, Segoe UI, sans-serif" font-size="30" font-weight="600">Tempo Swing</text>

  <rect x="598" y="36" width="118" height="42" rx="10" fill="#78d8ff" fill-opacity="0.2" stroke="#78d8ff" stroke-opacity="0.8"/>
  <text x="612" y="65" fill="#78d8ff" font-family="Exo 2, Segoe UI, sans-serif" font-size="20" font-weight="700">RARE</text>

  <circle cx="708" cy="954" r="26" fill="#080d18" stroke="#78d8ff" stroke-opacity="0.8"/>
  <text x="696" y="962" fill="#E7F2FF" font-family="Exo 2, Segoe UI, sans-serif" font-size="24" font-weight="700">42</text>
</svg>