<?xml version="1.0" encoding="UTF-8"?>
<svg width="768" height="1024" viewBox="0 0 768 1024" fill="none" xmlns="http://www.w3.org/2000/svg">
  <defs>
    <linearGradient id="bg-void-ranger-c31" x1="60" y1="40" x2="728" y2="1004" gradientUnits="userSpaceOnUse">
      <stop offset="0" stop-color="#0f1028"/>
      <stop offset="0.55" stop-color="#352b7f"/>
      <stop offset="1" stop-color="#0f1028"/>
    </linearGradient>
    <radialGradient id="glow-void-ranger-c31" cx="0" cy="0" r="1" gradientUnits="userSpaceOnUse" gradientTransform="translate(425.82 542.67) rotate(90) scale(191.77 191.77)">
      <stop stop-color="#29d3ff" stop-opacity="0.45"/>
      <stop offset="1" stop-color="#29d3ff" stop-opacity="0"/>
    </radialGradient>
    <linearGradient id="edge-void-ranger-c31" x1="0" y1="0" x2="768" y2="1024" gradientUnits="userSpaceOnUse">
      <stop stop-color="#29d3ff" stop-opacity="0.85"/>
      <stop offset="1" stop-color="#9f8dff" stop-opacity="0.85"/>
    </linearGradient>
  </defs>

  <rect x="0" y="0" width="768" height="1024" rx="32" fill="#060910"/>
  <rect x="16" y="16" width="736" height="992" rx="24" fill="url(#bg-void-ranger-c31)"/>
  <rect x="16" y="16" width="736" height="992" rx="24" fill="url(#glow-void-ranger-c31)"/>

  <g opacity="0.88">
    <line x1="362.69" y1="373.78" x2="682.28" y2="569.78" stroke="#9f8dff" stroke-width="4" opacity="0.72"/><line x1="92.95" y1="554.87" x2="631.30" y2="229.55" stroke="#29d3ff" stroke-width="4" opacity="0.72"/><line x1="152.82" y1="793.29" x2="613.31" y2="364.68" stroke="#9f8dff" stroke-width="5" opacity="0.72"/><line x1="79.55" y1="479.46" x2="663.77" y2="698.55" stroke="#29d3ff" stroke-width="3" opacity="0.72"/><line x1="85.53" y1="370.28" x2="571.84" y2="261.41" stroke="#9f8dff" stroke-width="4" opacity="0.72"/><line x1="317.23" y1="292.96" x2="636.11" y2="502.98" stroke="#29d3ff" stroke-width="3" opacity="0.72"/><line x1="126.89" y1="799.34" x2="601.71" y2="516.75" stroke="#9f8dff" stroke-width="2" opacity="0.72"/>
  </g>

  <g opacity="0.8">
    <circle cx="740.37" cy="246.97" r="2.71" fill="#9f8dff" opacity="0.27"/><circle cx="581.62" cy="1002.20" r="2.24" fill="#29d3ff" opacity="0.72"/><circle cx="351.12" cy="716.21" r="3.88" fill="#9f8dff" opacity="0.51"/><circle cx="436.10" cy="51.11" r="2.61" fill="#29d3ff" opacity="0.37"/><circle cx="598.21" cy="176.88" r="1.66" fill="#9f8dff" opacity="0.47"/><circle cx="194.76" cy="267.89" r="4.55" fill="#29d3ff" opacity="0.41"/><circle cx="468.70" cy="404.04" r="2.98" fill="#9f8dff" opacity="0.51"/><circle cx="632.18" cy="631.48" r="4.91" fill="#29d3ff" opacity="0.65"/><circle cx="46.88" cy="16.33" r="4.52" fill="#9f8dff" opacity="0.50"/><circle cx="184.24" cy="612.56" r="4.40" fill="#29d3ff" opacity="0.61"/><circle cx="718.65" cy="374.26" r="2.47" fill="#9f8dff" opacity="0.32"/><circle cx="164.92" cy="565.70" r="2.09" fill="#29d3ff" opacity="0.29"/><circle cx="688.90" cy="727.69" r="2.08" fill="#9f8dff" opacity="0.62"/><circle cx="379.66" cy="287.85" r="3.05" fill="#29d3ff" opacity="0.66"/><circle cx="565.64" cy="253.45" r="1.76" fill="#9f8dff" opacity="0.69"/><circle cx="498.35" cy="933.60" r="1.63" fill="#29d3ff" opacity="0.34"/><circle cx="70.21" cy="446.87" r="3.10" fill="#9f8dff" opacity="0.55"/><circle cx="724.90" cy="467.85" r="1.32" fill="#29d3ff" opacity="0.62"/><circle cx="724.74" cy="37.81" r="4.92" fill="#9f8dff" opacity="0.43"/><circle cx="72.00" cy="974.03" r="4.59" fill="#29d3ff" opacity="0.28"/><circle cx="418.30" cy="50.98" r="4.91" fill="#9f8dff" opacity="0.49"/><circle cx="691.02" cy="247.16" r="4.99" fill="#29d3ff" opacity="0.29"/><circle cx="493.00" cy="979.90" r="3.79" fill="#9f8dff" opacity="0.41"/><circle cx="497.48" cy="542.95" r="1.40" fill="#29d3ff" opacity="0.29"/><circle cx="192.17" cy="271.61" r="2.41" fill="#9f8dff" opacity="0.66"/><circle cx="49.73" cy="671.84" r="2.13" fill="#29d3ff" opacity="0.46"/><circle cx="486.50" cy="709.60" r="3.80" fill="#9f8dff" opacity="0.61"/><circle cx="289.70" cy="959.14" r="4.61" fill="#29d3ff" opacity="0.61"/>
  </g>

  <rect x="16" y="16" width="736" height="992" rx="24" stroke="url(#edge-void-ranger-c31)" stroke-width="2.5" opacity="0.85"/>
  <rect x="22" y="22" width="724" height="980" rx="20" stroke="#78d8ff" stroke-width="2" opacity="0.74"/>

  <rect x="34" y="34" width="700" height="72" rx="14" fill="#070b14" fill-opacity="0.72" stroke="#78d8ff" stroke-opacity="0.55"/>
  <text x="54" y="80" fill="#EAF4FF" font-family="Exo 2, Segoe UI, sans-serif" font-size="32" font-weight="700">Void Ranger</text>

  <rect x="34" y="872" width="700" height="92" rx="14" fill="#070b14" fill-opacity="0.74" stroke="#78d8ff" stroke-opacity="0.6"/>
  <text x="54" y="924" fill="#D9E7FF" font-family="Exo 2, Segoe UI, sans-serif" font-size="30" font-weight="600">Twin Vanguard</text>

  <rect x="598" y="36" width="118" height="42" rx="10" fill="#78d8ff" fill-opacity="0.2" stroke="#78d8ff" stroke-opacity="0.8"/>
  <text x="612" y="65" fill="#78d8ff" font-family="Exo 2, Segoe UI, sans-serif" font-size="20" font-weight="700">RARE</text>

  <circle cx="708" cy="954" r="26" fill="#080d18" stroke="#78d8ff" stroke-opacity="0.8"/>
  <text x="696" y="962" fill="#E7F2FF" font-family="Exo 2, Segoe UI, sans-serif" font-size="24" font-weight="700">31</text>
</svg>