<?xml version="1.0" encoding="UTF-8"?>
<svg width="768" height="1024" viewBox="0 0 768 1024" fill="none" xmlns="http://www.w3.org/2000/svg">
  <defs>
    <linearGradient id="bg-void-ranger-c29" x1="60" y1="40" x2="728" y2="1004" gradientUnits="userSpaceOnUse">
      <stop offset="0" stop-color="#0f1028"/>
      <stop offset="0.55" stop-color="#352b7f"/>
      <stop offset="1" stop-color="#0f1028"/>
    </linearGradient>
    <radialGradient id="glow-void-ranger-c29" cx="0" cy="0" r="1" gradientUnits="userSpaceOnUse" gradientTransform="translate(513.79 453.51) rotate(90) scale(199.67 199.67)">
      <stop stop-color="#29d3ff" stop-opacity="0.45"/>
      <stop offset="1" stop-color="#29d3ff" stop-opacity="0"/>
    </radialGradient>
    <linearGradient id="edge-void-ranger-c29" x1="0" y1="0" x2="768" y2="1024" gradientUnits="userSpaceOnUse">
      <stop stop-color="#29d3ff" stop-opacity="0.85"/>
      <stop offset="1" stop-color="#9f8dff" stop-opacity="0.85"/>
    </linearGradient>
  </defs>

  <rect x="0" y="0" width="768" height="1024" rx="32" fill="#060910"/>
  <rect x="16" y="16" width="736" height="992" rx="24" fill="url(#bg-void-ranger-c29)"/>
  <rect x="16" y="16" width="736" height="992" rx="24" fill="url(#glow-void-ranger-c29)"/>

  <g opacity="0.88">
    <line x1="306.89" y1="425.78" x2="649.33" y2="583.44" stroke="#9f8dff" stroke-width="2" opacity="0.72"/><line x1="206.07" y1="517.99" x2="619.33" y2="301.55" stroke="#29d3ff" stroke-width="5" opacity="0.72"/><line x1="375.09" y1="791.41" x2="677.53" y2="289.50" stroke="#9f8dff" stroke-width="4" opacity="0.72"/><line x1="136.24" y1="450.66" x2="665.72" y2="236.70" stroke="#29d3ff" stroke-width="2" opacity="0.72"/><line x1="261.69" y1="468.70" x2="541.25" y2="705.66" stroke="#9f8dff" stroke-width="4" opacity="0.72"/><line x1="115.12" y1="262.05" x2="639.34" y2="198.58" stroke="#29d3ff" stroke-width="5" opacity="0.72"/><line x1="356.55" y1="423.06" x2="589.90" y2="545.62" stroke="#9f8dff" stroke-width="5" opacity="0.72"/>
  </g>

  <g opacity="0.8">
    <circle cx="444.29" cy="991.52" r="2.23" fill="#9f8dff" opacity="0.54"/><circle cx="652.23" cy="466.01" r="4.78" fill="#29d3ff" opacity="0.30"/><circle cx="627.54" cy="947.81" r="4.11" fill="#9f8dff" opacity="0.29"/><circle cx="223.73" cy="735.86" r="3.88" fill="#29d3ff" opacity="0.59"/><circle cx="134.92" cy="475.56" r="2.15" fill="#9f8dff" opacity="0.37"/><circle cx="541.03" cy="82.96" r="4.97" fill="#29d3ff" opacity="0.36"/><circle cx="117.94" cy="789.58" r="1.90" fill="#9f8dff" opacity="0.28"/><circle cx="481.79" cy="338.35" r="3.16" fill="#29d3ff" opacity="0.24"/><circle cx="468.79" cy="146.08" r="1.48" fill="#9f8dff" opacity="0.64"/><circle cx="325.41" cy="274.57" r="4.75" fill="#29d3ff" opacity="0.72"/><circle cx="503.94" cy="701.14" r="4.90" fill="#9f8dff" opacity="0.61"/><circle cx="761.43" cy="925.92" r="4.52" fill="#29d3ff" opacity="0.52"/><circle cx="571.54" cy="128.89" r="2.23" fill="#9f8dff" opacity="0.45"/><circle cx="473.31" cy="586.08" r="4.40" fill="#29d3ff" opacity="0.40"/><circle cx="191.59" cy="105.39" r="3.32" fill="#9f8dff" opacity="0.27"/><circle cx="675.54" cy="411.12" r="3.98" fill="#29d3ff" opacity="0.63"/><circle cx="375.74" cy="835.88" r="2.04" fill="#9f8dff" opacity="0.65"/><circle cx="529.68" cy="509.95" r="3.34" fill="#29d3ff" opacity="0.33"/><circle cx="573.02" cy="453.09" r="4.83" fill="#9f8dff" opacity="0.53"/><circle cx="343.36" cy="727.23" r="3.53" fill="#29d3ff" opacity="0.53"/><circle cx="325.70" cy="733.58" r="3.71" fill="#9f8dff" opacity="0.66"/><circle cx="361.58" cy="632.77" r="2.58" fill="#29d3ff" opacity="0.62"/><circle cx="121.35" cy="968.52" r="1.79" fill="#9f8dff" opacity="0.50"/><circle cx="760.51" cy="944.85" r="2.80" fill="#29d3ff" opacity="0.68"/><circle cx="367.56" cy="599.12" r="4.06" fill="#9f8dff" opacity="0.37"/><circle cx="694.01" cy="865.21" r="1.24" fill="#29d3ff" opacity="0.47"/><circle cx="29.14" cy="767.16" r="3.77" fill="#9f8dff" opacity="0.33"/><circle cx="666.92" cy="665.68" r="2.08" fill="#29d3ff" opacity="0.47"/>
  </g>

  <rect x="16" y="16" width="736" height="992" rx="24" stroke="url(#edge-void-ranger-c29)" stroke-width="2.5" opacity="0.85"/>
  <rect x="22" y="22" width="724" height="980" rx="20" stroke="#8aa0c4" stroke-width="2" opacity="0.74"/>

  <rect x="34" y="34" width="700" height="72" rx="14" fill="#070b14" fill-opacity="0.72" stroke="#8aa0c4" stroke-opacity="0.55"/>
  <text x="54" y="80" fill="#EAF4FF" font-family="Exo 2, Segoe UI, sans-serif" font-size="32" font-weight="700">Void Ranger</text>

  <rect x="34" y="872" width="700" height="92" rx="14" fill="#070b14" fill-opacity="0.74" stroke="#8aa0c4" stroke-opacity="0.6"/>
  <text x="54" y="924" fill="#D9E7FF" font-family="Exo 2, Segoe UI, sans-serif" font-size="30" font-weight="600">Frontline Prime</text>

  <rect x="598" y="36" width="118" height="42" rx="10" fill="#8aa0c4" fill-opacity="0.2" stroke="#8aa0c4" stroke-opacity="0.8"/>
  <text x="612" y="65" fill="#8aa0c4" font-family="Exo 2, Segoe UI, sans-serif" font-size="20" font-weight="700">COMMON</text>

  <circle cx="708" cy="954" r="26" fill="#080d18" stroke="#8aa0c4" stroke-opacity="0.8"/>
  <text x="696" y="962" fill="#E7F2FF" font-family="Exo 2, Segoe UI, sans-serif" font-size="24" font-weight="700">29</text>
</svg>