<?xml version="1.0" encoding="UTF-8"?>
<svg width="768" height="1024" viewBox="0 0 768 1024" fill="none" xmlns="http://www.w3.org/2000/svg">
  <defs>
    <linearGradient id="bg-void-ranger-c40" x1="60" y1="40" x2="728" y2="1004" gradientUnits="userSpaceOnUse">
      <stop offset="0" stop-color="#0f1028"/>
      <stop offset="0.55" stop-color="#352b7f"/>
      <stop offset="1" stop-color="#0f1028"/>
    </linearGradient>
    <radialGradient id="glow-void-ranger-c40" cx="0" cy="0" r="1" gradientUnits="userSpaceOnUse" gradientTransform="translate(121.23 512.87) rotate(90) scale(205.12 205.12)">
      <stop stop-color="#29d3ff" stop-opacity="0.45"/>
      <stop offset="1" stop-color="#29d3ff" stop-opacity="0"/>
    </radialGradient>
    <linearGradient id="edge-void-ranger-c40" x1="0" y1="0" x2="768" y2="1024" gradientUnits="userSpaceOnUse">
      <stop stop-color="#29d3ff" stop-opacity="0.85"/>
      <stop offset="1" stop-color="#9f8dff" stop-opacity="0.85"/>
    </linearGradient>
  </defs>

  <rect x="0" y="0" width="768" height="1024" rx="32" fill="#060910"/>
  <rect x="16" y="16" width="736" height="992" rx="24" fill="url(#bg-void-ranger-c40)"/>
  <rect x="16" y="16" width="736" height="992" rx="24" fill="url(#glow-void-ranger-c40)"/>

  <g opacity="0.88">
    <line x1="263.20" y1="283.52" x2="596.61" y2="719.39" stroke="#9f8dff" stroke-width="4" opacity="0.72"/><line x1="285.17" y1="252.64" x2="541.28" y2="700.66" stroke="#29d3ff" stroke-width="2" opacity="0.72"/><line x1="195.24" y1="220.07" x2="472.67" y2="634.69" stroke="#9f8dff" stroke-width="5" opacity="0.72"/><line x1="383.69" y1="441.96" x2="675.25" y2="198.30" stroke="#29d3ff" stroke-width="2" opacity="0.72"/><line x1="357.08" y1="645.28" x2="479.97" y2="777.55" stroke="#9f8dff" stroke-width="2" opacity="0.72"/><line x1="173.24" y1="369.51" x2="433.96" y2="467.23" stroke="#29d3ff" stroke-width="3" opacity="0.72"/><line x1="115.55" y1="211.53" x2="651.87" y2="438.15" stroke="#9f8dff" stroke-width="3" opacity="0.72"/>
  </g>

  <g opacity="0.8">
    <circle cx="551.81" cy="963.32" r="3.18" fill="#9f8dff" opacity="0.67"/><circle cx="756.64" cy="608.46" r="4.33" fill="#29d3ff" opacity="0.51"/><circle cx="70.12" cy="437.06" r="2.40" fill="#9f8dff" opacity="0.37"/><circle cx="22.47" cy="389.40" r="3.02" fill="#29d3ff" opacity="0.63"/><circle cx="763.81" cy="837.73" r="1.27" fill="#9f8dff" opacity="0.55"/><circle cx="408.70" cy="792.04" r="3.25" fill="#29d3ff" opacity="0.66"/><circle cx="566.23" cy="846.99" r="2.18" fill="#9f8dff" opacity="0.63"/><circle cx="59.60" cy="1002.57" r="4.67" fill="#29d3ff" opacity="0.58"/><circle cx="439.61" cy="718.59" r="2.24" fill="#9f8dff" opacity="0.36"/><circle cx="501.23" cy="772.99" r="4.89" fill="#29d3ff" opacity="0.72"/><circle cx="559.21" cy="303.08" r="1.37" fill="#9f8dff" opacity="0.34"/><circle cx="572.92" cy="644.47" r="4.60" fill="#29d3ff" opacity="0.57"/><circle cx="756.17" cy="948.75" r="2.99" fill="#9f8dff" opacity="0.29"/><circle cx="88.13" cy="888.71" r="3.89" fill="#29d3ff" opacity="0.27"/><circle cx="98.50" cy="93.97" r="3.43" fill="#9f8dff" opacity="0.56"/><circle cx="621.08" cy="314.93" r="1.56" fill="#29d3ff" opacity="0.56"/><circle cx="87.19" cy="132.03" r="2.71" fill="#9f8dff" opacity="0.41"/><circle cx="370.47" cy="897.81" r="2.05" fill="#29d3ff" opacity="0.37"/><circle cx="241.25" cy="688.82" r="4.35" fill="#9f8dff" opacity="0.51"/><circle cx="282.52" cy="135.18" r="4.36" fill="#29d3ff" opacity="0.38"/><circle cx="344.28" cy="140.88" r="2.61" fill="#9f8dff" opacity="0.24"/><circle cx="73.78" cy="593.80" r="4.36" fill="#29d3ff" opacity="0.26"/><circle cx="545.38" cy="248.39" r="4.18" fill="#9f8dff" opacity="0.54"/><circle cx="333.38" cy="749.62" r="4.88" fill="#29d3ff" opacity="0.37"/><circle cx="593.05" cy="837.61" r="3.02" fill="#9f8dff" opacity="0.29"/><circle cx="140.77" cy="356.69" r="3.51" fill="#29d3ff" opacity="0.41"/><circle cx="304.79" cy="648.95" r="2.17" fill="#9f8dff" opacity="0.59"/><circle cx="480.46" cy="43.66" r="3.47" fill="#29d3ff" opacity="0.59"/>
  </g>

  <rect x="16" y="16" width="736" height="992" rx="24" stroke="url(#edge-void-ranger-c40)" stroke-width="2.5" opacity="0.85"/>
  <rect x="22" y="22" width="724" height="980" rx="20" stroke="#78d8ff" stroke-width="2" opacity="0.74"/>

  <rect x="34" y="34" width="700" height="72" rx="14" fill="#070b14" fill-opacity="0.72" stroke="#78d8ff" stroke-opacity="0.55"/>
  <text x="54" y="80" fill="#EAF4FF" font-family="Exo 2, Segoe UI, sans-serif" font-size="32" font-weight="700">Void Ranger</text>

  <rect x="34" y="872" width="700" height="92" rx="14" fill="#070b14" fill-opacity="0.74" stroke="#78d8ff" stroke-opacity="0.6"/>
  <text x="54" y="924" fill="#D9E7FF" font-family="Exo 2, Segoe UI, sans-serif" font-size="30" font-weight="600">Pulse AOE</text>

  <rect x="598" y="36" width="118" height="42" rx="10" fill="#78d8ff" fill-opacity="0.2" stroke="#78d8ff" stroke-opacity="0.8"/>
  <text x="612" y="65" fill="#78d8ff" font-family="Exo 2, Segoe UI, sans-serif" font-size="20" font-weight="700">RARE</text>

  <circle cx="708" cy="954" r="26" fill="#080d18" stroke="#78d8ff" stroke-opacity="0.8"/>
  <text x="696" y="962" fill="#E7F2FF" font-family="Exo 2, Segoe UI, sans-serif" font-size="24" font-weight="700">40</text>
</svg>