<?xml version="1.0" encoding="UTF-8"?>
<svg width="768" height="1024" viewBox="0 0 768 1024" fill="none" xmlns="http://www.w3.org/2000/svg">
  <defs>
    <linearGradient id="bg-void-ranger-c04" x1="60" y1="40" x2="728" y2="1004" gradientUnits="userSpaceOnUse">
      <stop offset="0" stop-color="#0f1028"/>
      <stop offset="0.55" stop-color="#352b7f"/>
      <stop offset="1" stop-color="#0f1028"/>
    </linearGradient>
    <radialGradient id="glow-void-ranger-c04" cx="0" cy="0" r="1" gradientUnits="userSpaceOnUse" gradientTransform="translate(359.06 437.64) rotate(90) scale(187.40 187.40)">
      <stop stop-color="#29d3ff" stop-opacity="0.45"/>
      <stop offset="1" stop-color="#29d3ff" stop-opacity="0"/>
    </radialGradient>
    <linearGradient id="edge-void-ranger-c04" x1="0" y1="0" x2="768" y2="1024" gradientUnits="userSpaceOnUse">
      <stop stop-color="#29d3ff" stop-opacity="0.85"/>
      <stop offset="1" stop-color="#9f8dff" stop-opacity="0.85"/>
    </linearGradient>
  </defs>

  <rect x="0" y="0" width="768" height="1024" rx="32" fill="#060910"/>
  <rect x="16" y="16" width="736" height="992" rx="24" fill="url(#bg-void-ranger-c04)"/>
  <rect x="16" y="16" width="736" height="992" rx="24" fill="url(#glow-void-ranger-c04)"/>

  <g opacity="0.88">
    <line x1="105.85" y1="622.97" x2="612.16" y2="702.26" stroke="#9f8dff" stroke-width="2" opacity="0.72"/><line x1="267.56" y1="335.07" x2="517.79" y2="624.72" stroke="#29d3ff" stroke-width="5" opacity="0.72"/><line x1="349.37" y1="638.47" x2="620.40" y2="544.90" stroke="#9f8dff" stroke-width="5" opacity="0.72"/><line x1="118.78" y1="272.35" x2="687.82" y2="640.64" stroke="#29d3ff" stroke-width="4" opacity="0.72"/><line x1="83.42" y1="665.75" x2="434.50" y2="851.73" stroke="#9f8dff" stroke-width="2" opacity="0.72"/><line x1="230.43" y1="239.54" x2="606.73" y2="769.43" stroke="#29d3ff" stroke-width="5" opacity="0.72"/><line x1="95.70" y1="255.21" x2="597.38" y2="689.58" stroke="#9f8dff" stroke-width="4" opacity="0.72"/>
  </g>

  <g opacity="0.8">
    <circle cx="132.63" cy="368.09" r="1.28" fill="#9f8dff" opacity="0.30"/><circle cx="195.66" cy="337.25" r="3.83" fill="#29d3ff" opacity="0.73"/><circle cx="619.03" cy="988.07" r="1.94" fill="#9f8dff" opacity="0.38"/><circle cx="641.86" cy="332.28" r="4.48" fill="#29d3ff" opacity="0.71"/><circle cx="250.84" cy="924.06" r="2.39" fill="#9f8dff" opacity="0.56"/><circle cx="196.05" cy="714.55" r="3.96" fill="#29d3ff" opacity="0.60"/><circle cx="74.31" cy="949.61" r="2.38" fill="#9f8dff" opacity="0.70"/><circle cx="204.20" cy="124.42" r="1.86" fill="#29d3ff" opacity="0.67"/><circle cx="639.01" cy="519.10" r="4.21" fill="#9f8dff" opacity="0.25"/><circle cx="652.26" cy="380.53" r="4.17" fill="#29d3ff" opacity="0.33"/><circle cx="247.17" cy="945.02" r="2.80" fill="#9f8dff" opacity="0.32"/><circle cx="319.23" cy="520.22" r="3.66" fill="#29d3ff" opacity="0.30"/><circle cx="513.44" cy="314.92" r="2.97" fill="#9f8dff" opacity="0.25"/><circle cx="244.00" cy="310.89" r="2.91" fill="#29d3ff" opacity="0.44"/><circle cx="401.27" cy="143.75" r="2.12" fill="#9f8dff" opacity="0.47"/><circle cx="181.11" cy="176.78" r="3.45" fill="#29d3ff" opacity="0.69"/><circle cx="156.47" cy="72.43" r="3.32" fill="#9f8dff" opacity="0.46"/><circle cx="45.86" cy="981.81" r="4.99" fill="#29d3ff" opacity="0.33"/><circle cx="193.93" cy="808.67" r="3.84" fill="#9f8dff" opacity="0.28"/><circle cx="628.53" cy="1016.68" r="4.77" fill="#29d3ff" opacity="0.30"/><circle cx="241.80" cy="609.05" r="2.22" fill="#9f8dff" opacity="0.48"/><circle cx="460.43" cy="997.87" r="2.43" fill="#29d3ff" opacity="0.46"/><circle cx="716.35" cy="875.61" r="4.14" fill="#9f8dff" opacity="0.26"/><circle cx="436.37" cy="567.40" r="1.50" fill="#29d3ff" opacity="0.74"/><circle cx="268.25" cy="714.51" r="3.14" fill="#9f8dff" opacity="0.57"/><circle cx="675.32" cy="601.20" r="3.92" fill="#29d3ff" opacity="0.30"/><circle cx="187.55" cy="197.49" r="2.90" fill="#9f8dff" opacity="0.34"/><circle cx="370.17" cy="528.43" r="4.36" fill="#29d3ff" opacity="0.56"/>
  </g>

  <rect x="16" y="16" width="736" height="992" rx="24" stroke="url(#edge-void-ranger-c04)" stroke-width="2.5" opacity="0.85"/>
  <rect x="22" y="22" width="724" height="980" rx="20" stroke="#8aa0c4" stroke-width="2" opacity="0.74"/>

  <rect x="34" y="34" width="700" height="72" rx="14" fill="#070b14" fill-opacity="0.72" stroke="#8aa0c4" stroke-opacity="0.55"/>
  <text x="54" y="80" fill="#EAF4FF" font-family="Exo 2, Segoe UI, sans-serif" font-size="32" font-weight="700">Void Ranger</text>

  <rect x="34" y="872" width="700" height="92" rx="14" fill="#070b14" fill-opacity="0.74" stroke="#8aa0c4" stroke-opacity="0.6"/>
  <text x="54" y="924" fill="#D9E7FF" font-family="Exo 2, Segoe UI, sans-serif" font-size="30" font-weight="600">Duelist</text>

  <rect x="598" y="36" width="118" height="42" rx="10" fill="#8aa0c4" fill-opacity="0.2" stroke="#8aa0c4" stroke-opacity="0.8"/>
  <text x="612" y="65" fill="#8aa0c4" font-family="Exo 2, Segoe UI, sans-serif" font-size="20" font-weight="700">COMMON</text>

  <circle cx="708" cy="954" r="26" fill="#080d18" stroke="#8aa0c4" stroke-opacity="0.8"/>
  <text x="696" y="962" fill="#E7F2FF" font-family="Exo 2, Segoe UI, sans-serif" font-size="24" font-weight="700">04</text>
</svg>