<?xml version="1.0" encoding="UTF-8"?>
<svg width="768" height="1024" viewBox="0 0 768 1024" fill="none" xmlns="http://www.w3.org/2000/svg">
  <defs>
    <linearGradient id="bg-void-ranger-c32" x1="60" y1="40" x2="728" y2="1004" gradientUnits="userSpaceOnUse">
      <stop offset="0" stop-color="#0f1028"/>
      <stop offset="0.55" stop-color="#352b7f"/>
      <stop offset="1" stop-color="#0f1028"/>
    </linearGradient>
    <radialGradient id="glow-void-ranger-c32" cx="0" cy="0" r="1" gradientUnits="userSpaceOnUse" gradientTransform="translate(318.36 294.12) rotate(90) scale(252.31 252.31)">
      <stop stop-color="#29d3ff" stop-opacity="0.45"/>
      <stop offset="1" stop-color="#29d3ff" stop-opacity="0"/>
    </radialGradient>
    <linearGradient id="edge-void-ranger-c32" x1="0" y1="0" x2="768" y2="1024" gradientUnits="userSpaceOnUse">
      <stop stop-color="#29d3ff" stop-opacity="0.85"/>
      <stop offset="1" stop-color="#9f8dff" stop-opacity="0.85"/>
    </linearGradient>
  </defs>

  <rect x="0" y="0" width="768" height="1024" rx="32" fill="#060910"/>
  <rect x="16" y="16" width="736" height="992" rx="24" fill="url(#bg-void-ranger-c32)"/>
  <rect x="16" y="16" width="736" height="992" rx="24" fill="url(#glow-void-ranger-c32)"/>

  <g opacity="0.88">
    <line x1="374.75" y1="464.10" x2="488.27" y2="451.39" stroke="#9f8dff" stroke-width="5" opacity="0.72"/><line x1="268.03" y1="438.78" x2="506.77" y2="319.75" stroke="#29d3ff" stroke-width="2" opacity="0.72"/><line x1="153.56" y1="617.57" x2="468.43" y2="368.58" stroke="#9f8dff" stroke-width="3" opacity="0.72"/><line x1="174.67" y1="679.90" x2="595.41" y2="471.38" stroke="#29d3ff" stroke-width="3" opacity="0.72"/><line x1="210.82" y1="776.41" x2="635.18" y2="545.32" stroke="#9f8dff" stroke-width="5" opacity="0.72"/><line x1="351.41" y1="671.15" x2="542.12" y2="785.49" stroke="#29d3ff" stroke-width="5" opacity="0.72"/><line x1="255.88" y1="388.93" x2="637.11" y2="636.81" stroke="#9f8dff" stroke-width="2" opacity="0.72"/>
  </g>

  <g opacity="0.8">
    <circle cx="136.71" cy="994.87" r="2.66" fill="#9f8dff" opacity="0.52"/><circle cx="419.11" cy="410.78" r="3.08" fill="#29d3ff" opacity="0.62"/><circle cx="402.86" cy="200.17" r="1.30" fill="#9f8dff" opacity="0.44"/><circle cx="381.60" cy="607.81" r="3.12" fill="#29d3ff" opacity="0.73"/><circle cx="178.71" cy="780.84" r="1.25" fill="#9f8dff" opacity="0.53"/><circle cx="170.67" cy="733.37" r="3.22" fill="#29d3ff" opacity="0.53"/><circle cx="732.93" cy="357.98" r="4.77" fill="#9f8dff" opacity="0.49"/><circle cx="371.95" cy="809.28" r="4.41" fill="#29d3ff" opacity="0.59"/><circle cx="740.41" cy="796.58" r="3.07" fill="#9f8dff" opacity="0.44"/><circle cx="767.65" cy="213.82" r="4.67" fill="#29d3ff" opacity="0.56"/><circle cx="251.83" cy="405.42" r="4.96" fill="#9f8dff" opacity="0.73"/><circle cx="710.15" cy="813.38" r="2.17" fill="#29d3ff" opacity="0.28"/><circle cx="417.06" cy="52.37" r="4.97" fill="#9f8dff" opacity="0.27"/><circle cx="685.93" cy="413.04" r="4.64" fill="#29d3ff" opacity="0.57"/><circle cx="24.95" cy="339.40" r="4.15" fill="#9f8dff" opacity="0.67"/><circle cx="368.50" cy="302.11" r="2.70" fill="#29d3ff" opacity="0.69"/><circle cx="739.72" cy="274.78" r="2.01" fill="#9f8dff" opacity="0.43"/><circle cx="408.62" cy="994.23" r="2.06" fill="#29d3ff" opacity="0.36"/><circle cx="277.73" cy="900.33" r="2.36" fill="#9f8dff" opacity="0.64"/><circle cx="642.94" cy="945.59" r="4.25" fill="#29d3ff" opacity="0.27"/><circle cx="38.21" cy="348.07" r="3.85" fill="#9f8dff" opacity="0.33"/><circle cx="84.28" cy="434.82" r="3.37" fill="#29d3ff" opacity="0.52"/><circle cx="512.38" cy="818.05" r="1.43" fill="#9f8dff" opacity="0.74"/><circle cx="101.86" cy="104.07" r="1.64" fill="#29d3ff" opacity="0.36"/><circle cx="731.05" cy="590.80" r="2.68" fill="#9f8dff" opacity="0.38"/><circle cx="362.67" cy="408.57" r="2.22" fill="#29d3ff" opacity="0.60"/><circle cx="732.93" cy="806.21" r="1.89" fill="#9f8dff" opacity="0.51"/><circle cx="345.33" cy="822.40" r="3.39" fill="#29d3ff" opacity="0.55"/>
  </g>

  <rect x="16" y="16" width="736" height="992" rx="24" stroke="url(#edge-void-ranger-c32)" stroke-width="2.5" opacity="0.85"/>
  <rect x="22" y="22" width="724" height="980" rx="20" stroke="#78d8ff" stroke-width="2" opacity="0.74"/>

  <rect x="34" y="34" width="700" height="72" rx="14" fill="#070b14" fill-opacity="0.72" stroke="#78d8ff" stroke-opacity="0.55"/>
  <text x="54" y="80" fill="#EAF4FF" font-family="Exo 2, Segoe UI, sans-serif" font-size="32" font-weight="700">Void Ranger</text>

  <rect x="34" y="872" width="700" height="92" rx="14" fill="#070b14" fill-opacity="0.74" stroke="#78d8ff" stroke-opacity="0.6"/>
  <text x="54" y="924" fill="#D9E7FF" font-family="Exo 2, Segoe UI, sans-serif" font-size="30" font-weight="600">Lieutenant Prime</text>

  <rect x="598" y="36" width="118" height="42" rx="10" fill="#78d8ff" fill-opacity="0.2" stroke="#78d8ff" stroke-opacity="0.8"/>
  <text x="612" y="65" fill="#78d8ff" font-family="Exo 2, Segoe UI, sans-serif" font-size="20" font-weight="700">RARE</text>

  <circle cx="708" cy="954" r="26" fill="#080d18" stroke="#78d8ff" stroke-opacity="0.8"/>
  <text x="696" y="962" fill="#E7F2FF" font-family="Exo 2, Segoe UI, sans-serif" font-size="24" font-weight="700">32</text>
</svg>