<?xml version="1.0" encoding="UTF-8"?>
<svg width="768" height="1024" viewBox="0 0 768 1024" fill="none" xmlns="http://www.w3.org/2000/svg">
  <defs>
    <linearGradient id="bg-void-ranger-c34" x1="60" y1="40" x2="728" y2="1004" gradientUnits="userSpaceOnUse">
      <stop offset="0" stop-color="#0f1028"/>
      <stop offset="0.55" stop-color="#352b7f"/>
      <stop offset="1" stop-color="#0f1028"/>
    </linearGradient>
    <radialGradient id="glow-void-ranger-c34" cx="0" cy="0" r="1" gradientUnits="userSpaceOnUse" gradientTransform="translate(201.40 725.60) rotate(90) scale(267.23 267.23)">
      <stop stop-color="#29d3ff" stop-opacity="0.45"/>
      <stop offset="1" stop-color="#29d3ff" stop-opacity="0"/>
    </radialGradient>
    <linearGradient id="edge-void-ranger-c34" x1="0" y1="0" x2="768" y2="1024" gradientUnits="userSpaceOnUse">
      <stop stop-color="#29d3ff" stop-opacity="0.85"/>
      <stop offset="1" stop-color="#9f8dff" stop-opacity="0.85"/>
    </linearGradient>
  </defs>

  <rect x="0" y="0" width="768" height="1024" rx="32" fill="#060910"/>
  <rect x="16" y="16" width="736" height="992" rx="24" fill="url(#bg-void-ranger-c34)"/>
  <rect x="16" y="16" width="736" height="992" rx="24" fill="url(#glow-void-ranger-c34)"/>

  <g opacity="0.88">
    <line x1="348.69" y1="508.01" x2="585.89" y2="359.19" stroke="#9f8dff" stroke-width="5" opacity="0.72"/><line x1="321.26" y1="405.68" x2="431.72" y2="503.40" stroke="#29d3ff" stroke-width="5" opacity="0.72"/><line x1="89.43" y1="425.55" x2="555.87" y2="715.69" stroke="#9f8dff" stroke-width="2" opacity="0.72"/><line x1="365.80" y1="390.17" x2="577.35" y2="563.71" stroke="#29d3ff" stroke-width="2" opacity="0.72"/><line x1="210.54" y1="794.12" x2="437.19" y2="215.55" stroke="#9f8dff" stroke-width="2" opacity="0.72"/><line x1="277.19" y1="789.85" x2="549.89" y2="602.61" stroke="#29d3ff" stroke-width="3" opacity="0.72"/><line x1="119.54" y1="503.09" x2="622.17" y2="637.40" stroke="#9f8dff" stroke-width="3" opacity="0.72"/>
  </g>

  <g opacity="0.8">
    <circle cx="417.33" cy="721.39" r="4.92" fill="#9f8dff" opacity="0.24"/><circle cx="57.90" cy="980.28" r="1.78" fill="#29d3ff" opacity="0.35"/><circle cx="592.30" cy="858.21" r="3.54" fill="#9f8dff" opacity="0.72"/><circle cx="454.02" cy="234.90" r="1.71" fill="#29d3ff" opacity="0.40"/><circle cx="661.58" cy="615.26" r="3.96" fill="#9f8dff" opacity="0.60"/><circle cx="579.03" cy="416.82" r="2.15" fill="#29d3ff" opacity="0.54"/><circle cx="356.70" cy="132.60" r="2.36" fill="#9f8dff" opacity="0.66"/><circle cx="442.76" cy="379.40" r="2.67" fill="#29d3ff" opacity="0.71"/><circle cx="432.85" cy="58.04" r="2.15" fill="#9f8dff" opacity="0.50"/><circle cx="561.81" cy="140.25" r="2.25" fill="#29d3ff" opacity="0.60"/><circle cx="29.66" cy="951.55" r="2.10" fill="#9f8dff" opacity="0.27"/><circle cx="717.78" cy="10.82" r="2.11" fill="#29d3ff" opacity="0.32"/><circle cx="264.82" cy="625.35" r="4.52" fill="#9f8dff" opacity="0.33"/><circle cx="537.27" cy="986.56" r="3.55" fill="#29d3ff" opacity="0.63"/><circle cx="539.46" cy="119.34" r="2.94" fill="#9f8dff" opacity="0.69"/><circle cx="22.64" cy="802.62" r="1.21" fill="#29d3ff" opacity="0.32"/><circle cx="467.67" cy="923.71" r="2.75" fill="#9f8dff" opacity="0.72"/><circle cx="220.93" cy="991.62" r="3.07" fill="#29d3ff" opacity="0.52"/><circle cx="230.69" cy="506.67" r="3.82" fill="#9f8dff" opacity="0.57"/><circle cx="449.37" cy="733.03" r="4.03" fill="#29d3ff" opacity="0.55"/><circle cx="104.87" cy="580.40" r="1.87" fill="#9f8dff" opacity="0.65"/><circle cx="12.93" cy="978.30" r="3.39" fill="#29d3ff" opacity="0.47"/><circle cx="339.56" cy="286.08" r="1.40" fill="#9f8dff" opacity="0.26"/><circle cx="538.24" cy="30.06" r="3.70" fill="#29d3ff" opacity="0.35"/><circle cx="141.33" cy="285.44" r="3.22" fill="#9f8dff" opacity="0.58"/><circle cx="34.68" cy="331.85" r="3.99" fill="#29d3ff" opacity="0.30"/><circle cx="746.14" cy="74.20" r="2.77" fill="#9f8dff" opacity="0.47"/><circle cx="629.52" cy="897.75" r="1.74" fill="#29d3ff" opacity="0.63"/>
  </g>

  <rect x="16" y="16" width="736" height="992" rx="24" stroke="url(#edge-void-ranger-c34)" stroke-width="2.5" opacity="0.85"/>
  <rect x="22" y="22" width="724" height="980" rx="20" stroke="#78d8ff" stroke-width="2" opacity="0.74"/>

  <rect x="34" y="34" width="700" height="72" rx="14" fill="#070b14" fill-opacity="0.72" stroke="#78d8ff" stroke-opacity="0.55"/>
  <text x="54" y="80" fill="#EAF4FF" font-family="Exo 2, Segoe UI, sans-serif" font-size="32" font-weight="700">Void Ranger</text>

  <rect x="34" y="872" width="700" height="92" rx="14" fill="#070b14" fill-opacity="0.74" stroke="#78d8ff" stroke-opacity="0.6"/>
  <text x="54" y="924" fill="#D9E7FF" font-family="Exo 2, Segoe UI, sans-serif" font-size="30" font-weight="600">Arc Ping</text>

  <rect x="598" y="36" width="118" height="42" rx="10" fill="#78d8ff" fill-opacity="0.2" stroke="#78d8ff" stroke-opacity="0.8"/>
  <text x="612" y="65" fill="#78d8ff" font-family="Exo 2, Segoe UI, sans-serif" font-size="20" font-weight="700">RARE</text>

  <circle cx="708" cy="954" r="26" fill="#080d18" stroke="#78d8ff" stroke-opacity="0.8"/>
  <text x="696" y="962" fill="#E7F2FF" font-family="Exo 2, Segoe UI, sans-serif" font-size="24" font-weight="700">34</text>
</svg>