<?xml version="1.0" encoding="UTF-8"?>
<svg width="768" height="1024" viewBox="0 0 768 1024" fill="none" xmlns="http://www.w3.org/2000/svg">
  <defs>
    <linearGradient id="bg-void-ranger-c11" x1="60" y1="40" x2="728" y2="1004" gradientUnits="userSpaceOnUse">
      <stop offset="0" stop-color="#0f1028"/>
      <stop offset="0.55" stop-color="#352b7f"/>
      <stop offset="1" stop-color="#0f1028"/>
    </linearGradient>
    <radialGradient id="glow-void-ranger-c11" cx="0" cy="0" r="1" gradientUnits="userSpaceOnUse" gradientTransform="translate(215.89 393.84) rotate(90) scale(288.43 288.43)">
      <stop stop-color="#29d3ff" stop-opacity="0.45"/>
      <stop offset="1" stop-color="#29d3ff" stop-opacity="0"/>
    </radialGradient>
    <linearGradient id="edge-void-ranger-c11" x1="0" y1="0" x2="768" y2="1024" gradientUnits="userSpaceOnUse">
      <stop stop-color="#29d3ff" stop-opacity="0.85"/>
      <stop offset="1" stop-color="#9f8dff" stop-opacity="0.85"/>
    </linearGradient>
  </defs>

  <rect x="0" y="0" width="768" height="1024" rx="32" fill="#060910"/>
  <rect x="16" y="16" width="736" height="992" rx="24" fill="url(#bg-void-ranger-c11)"/>
  <rect x="16" y="16" width="736" height="992" rx="24" fill="url(#glow-void-ranger-c11)"/>

  <g opacity="0.88">
    <line x1="227.61" y1="418.93" x2="489.33" y2="280.79" stroke="#9f8dff" stroke-width="2" opacity="0.72"/><line x1="142.53" y1="607.61" x2="504.65" y2="196.84" stroke="#29d3ff" stroke-width="3" opacity="0.72"/><line x1="233.04" y1="743.67" x2="658.98" y2="705.47" stroke="#9f8dff" stroke-width="5" opacity="0.72"/><line x1="347.85" y1="493.56" x2="628.23" y2="525.97" stroke="#29d3ff" stroke-width="2" opacity="0.72"/><line x1="346.48" y1="263.84" x2="488.27" y2="735.42" stroke="#9f8dff" stroke-width="3" opacity="0.72"/><line x1="283.61" y1="311.54" x2="672.32" y2="382.77" stroke="#29d3ff" stroke-width="2" opacity="0.72"/><line x1="109.43" y1="804.59" x2="438.12" y2="327.37" stroke="#9f8dff" stroke-width="5" opacity="0.72"/>
  </g>

  <g opacity="0.8">
    <circle cx="654.69" cy="238.76" r="3.07" fill="#9f8dff" opacity="0.70"/><circle cx="511.74" cy="86.19" r="2.92" fill="#29d3ff" opacity="0.28"/><circle cx="295.38" cy="1018.25" r="1.37" fill="#9f8dff" opacity="0.39"/><circle cx="278.38" cy="423.29" r="1.76" fill="#29d3ff" opacity="0.48"/><circle cx="626.53" cy="540.55" r="2.18" fill="#9f8dff" opacity="0.71"/><circle cx="620.56" cy="572.64" r="2.76" fill="#29d3ff" opacity="0.68"/><circle cx="366.30" cy="394.16" r="3.99" fill="#9f8dff" opacity="0.40"/><circle cx="383.90" cy="696.15" r="1.75" fill="#29d3ff" opacity="0.26"/><circle cx="275.31" cy="479.56" r="3.20" fill="#9f8dff" opacity="0.39"/><circle cx="606.54" cy="555.89" r="2.44" fill="#29d3ff" opacity="0.56"/><circle cx="540.83" cy="911.34" r="2.37" fill="#9f8dff" opacity="0.25"/><circle cx="498.01" cy="972.09" r="4.17" fill="#29d3ff" opacity="0.36"/><circle cx="65.29" cy="785.46" r="3.51" fill="#9f8dff" opacity="0.61"/><circle cx="28.18" cy="1015.36" r="3.41" fill="#29d3ff" opacity="0.35"/><circle cx="40.05" cy="291.94" r="2.44" fill="#9f8dff" opacity="0.28"/><circle cx="179.10" cy="854.87" r="2.76" fill="#29d3ff" opacity="0.64"/><circle cx="214.36" cy="324.40" r="3.34" fill="#9f8dff" opacity="0.70"/><circle cx="495.51" cy="831.63" r="3.18" fill="#29d3ff" opacity="0.37"/><circle cx="24.33" cy="306.18" r="2.11" fill="#9f8dff" opacity="0.43"/><circle cx="400.81" cy="52.86" r="2.49" fill="#29d3ff" opacity="0.37"/><circle cx="82.01" cy="915.46" r="3.43" fill="#9f8dff" opacity="0.49"/><circle cx="214.38" cy="177.62" r="2.31" fill="#29d3ff" opacity="0.72"/><circle cx="183.22" cy="124.03" r="3.29" fill="#9f8dff" opacity="0.26"/><circle cx="154.69" cy="185.33" r="4.88" fill="#29d3ff" opacity="0.24"/><circle cx="444.68" cy="347.33" r="3.77" fill="#9f8dff" opacity="0.51"/><circle cx="516.37" cy="955.96" r="1.26" fill="#29d3ff" opacity="0.67"/><circle cx="670.79" cy="258.76" r="2.25" fill="#9f8dff" opacity="0.30"/><circle cx="343.15" cy="99.10" r="4.03" fill="#29d3ff" opacity="0.69"/>
  </g>

  <rect x="16" y="16" width="736" height="992" rx="24" stroke="url(#edge-void-ranger-c11)" stroke-width="2.5" opacity="0.85"/>
  <rect x="22" y="22" width="724" height="980" rx="20" stroke="#8aa0c4" stroke-width="2" opacity="0.74"/>

  <rect x="34" y="34" width="700" height="72" rx="14" fill="#070b14" fill-opacity="0.72" stroke="#8aa0c4" stroke-opacity="0.55"/>
  <text x="54" y="80" fill="#EAF4FF" font-family="Exo 2, Segoe UI, sans-serif" font-size="32" font-weight="700">Void Ranger</text>

  <rect x="34" y="872" width="700" height="92" rx="14" fill="#070b14" fill-opacity="0.74" stroke="#8aa0c4" stroke-opacity="0.6"/>
  <text x="54" y="924" fill="#D9E7FF" font-family="Exo 2, Segoe UI, sans-serif" font-size="30" font-weight="600">Captain</text>

  <rect x="598" y="36" width="118" height="42" rx="10" fill="#8aa0c4" fill-opacity="0.2" stroke="#8aa0c4" stroke-opacity="0.8"/>
  <text x="612" y="65" fill="#8aa0c4" font-family="Exo 2, Segoe UI, sans-serif" font-size="20" font-weight="700">COMMON</text>

  <circle cx="708" cy="954" r="26" fill="#080d18" stroke="#8aa0c4" stroke-opacity="0.8"/>
  <text x="696" y="962" fill="#E7F2FF" font-family="Exo 2, Segoe UI, sans-serif" font-size="24" font-weight="700">11</text>
</svg>