<?xml version="1.0" encoding="UTF-8"?>
<svg width="768" height="1024" viewBox="0 0 768 1024" fill="none" xmlns="http://www.w3.org/2000/svg">
  <defs>
    <linearGradient id="bg-void-ranger-c24" x1="60" y1="40" x2="728" y2="1004" gradientUnits="userSpaceOnUse">
      <stop offset="0" stop-color="#0f1028"/>
      <stop offset="0.55" stop-color="#352b7f"/>
      <stop offset="1" stop-color="#0f1028"/>
    </linearGradient>
    <radialGradient id="glow-void-ranger-c24" cx="0" cy="0" r="1" gradientUnits="userSpaceOnUse" gradientTransform="translate(479.91 412.49) rotate(90) scale(266.53 266.53)">
      <stop stop-color="#29d3ff" stop-opacity="0.45"/>
      <stop offset="1" stop-color="#29d3ff" stop-opacity="0"/>
    </radialGradient>
    <linearGradient id="edge-void-ranger-c24" x1="0" y1="0" x2="768" y2="1024" gradientUnits="userSpaceOnUse">
      <stop stop-color="#29d3ff" stop-opacity="0.85"/>
      <stop offset="1" stop-color="#9f8dff" stop-opacity="0.85"/>
    </linearGradient>
  </defs>

  <rect x="0" y="0" width="768" height="1024" rx="32" fill="#060910"/>
  <rect x="16" y="16" width="736" height="992" rx="24" fill="url(#bg-void-ranger-c24)"/>
  <rect x="16" y="16" width="736" height="992" rx="24" fill="url(#glow-void-ranger-c24)"/>

  <g opacity="0.88">
    <line x1="150.56" y1="782.75" x2="686.41" y2="547.47" stroke="#9f8dff" stroke-width="2" opacity="0.72"/><line x1="220.27" y1="412.23" x2="532.91" y2="789.24" stroke="#29d3ff" stroke-width="4" opacity="0.72"/><line x1="141.87" y1="363.17" x2="468.58" y2="293.12" stroke="#9f8dff" stroke-width="2" opacity="0.72"/><line x1="170.24" y1="607.14" x2="617.36" y2="722.54" stroke="#29d3ff" stroke-width="2" opacity="0.72"/><line x1="312.97" y1="525.51" x2="636.26" y2="564.51" stroke="#9f8dff" stroke-width="4" opacity="0.72"/><line x1="237.19" y1="260.71" x2="685.07" y2="563.85" stroke="#29d3ff" stroke-width="3" opacity="0.72"/><line x1="133.94" y1="749.74" x2="524.77" y2="323.80" stroke="#9f8dff" stroke-width="4" opacity="0.72"/>
  </g>

  <g opacity="0.8">
    <circle cx="236.60" cy="830.81" r="1.31" fill="#9f8dff" opacity="0.54"/><circle cx="370.47" cy="955.14" r="2.29" fill="#29d3ff" opacity="0.65"/><circle cx="600.93" cy="593.29" r="3.66" fill="#9f8dff" opacity="0.56"/><circle cx="553.96" cy="508.21" r="1.20" fill="#29d3ff" opacity="0.40"/><circle cx="186.93" cy="193.46" r="3.01" fill="#9f8dff" opacity="0.54"/><circle cx="678.95" cy="223.68" r="4.90" fill="#29d3ff" opacity="0.55"/><circle cx="112.52" cy="341.60" r="3.28" fill="#9f8dff" opacity="0.36"/><circle cx="489.75" cy="135.56" r="4.29" fill="#29d3ff" opacity="0.49"/><circle cx="414.47" cy="990.55" r="4.60" fill="#9f8dff" opacity="0.32"/><circle cx="271.75" cy="385.08" r="3.83" fill="#29d3ff" opacity="0.56"/><circle cx="160.48" cy="829.05" r="4.41" fill="#9f8dff" opacity="0.63"/><circle cx="80.48" cy="190.77" r="1.57" fill="#29d3ff" opacity="0.59"/><circle cx="310.82" cy="854.10" r="2.28" fill="#9f8dff" opacity="0.25"/><circle cx="654.35" cy="86.16" r="3.07" fill="#29d3ff" opacity="0.64"/><circle cx="86.77" cy="916.14" r="1.65" fill="#9f8dff" opacity="0.43"/><circle cx="716.37" cy="802.54" r="2.96" fill="#29d3ff" opacity="0.60"/><circle cx="93.96" cy="906.00" r="1.43" fill="#9f8dff" opacity="0.60"/><circle cx="218.06" cy="931.87" r="4.77" fill="#29d3ff" opacity="0.34"/><circle cx="125.22" cy="136.44" r="2.37" fill="#9f8dff" opacity="0.45"/><circle cx="761.29" cy="162.69" r="1.46" fill="#29d3ff" opacity="0.61"/><circle cx="620.32" cy="368.45" r="3.44" fill="#9f8dff" opacity="0.39"/><circle cx="286.07" cy="162.13" r="3.64" fill="#29d3ff" opacity="0.51"/><circle cx="758.88" cy="880.13" r="4.17" fill="#9f8dff" opacity="0.64"/><circle cx="635.89" cy="298.26" r="3.61" fill="#29d3ff" opacity="0.29"/><circle cx="686.76" cy="270.81" r="3.53" fill="#9f8dff" opacity="0.68"/><circle cx="637.53" cy="425.96" r="4.58" fill="#29d3ff" opacity="0.48"/><circle cx="326.03" cy="955.57" r="3.75" fill="#9f8dff" opacity="0.54"/><circle cx="207.43" cy="747.32" r="1.77" fill="#29d3ff" opacity="0.30"/>
  </g>

  <rect x="16" y="16" width="736" height="992" rx="24" stroke="url(#edge-void-ranger-c24)" stroke-width="2.5" opacity="0.85"/>
  <rect x="22" y="22" width="724" height="980" rx="20" stroke="#8aa0c4" stroke-width="2" opacity="0.74"/>

  <rect x="34" y="34" width="700" height="72" rx="14" fill="#070b14" fill-opacity="0.72" stroke="#8aa0c4" stroke-opacity="0.55"/>
  <text x="54" y="80" fill="#EAF4FF" font-family="Exo 2, Segoe UI, sans-serif" font-size="32" font-weight="700">Void Ranger</text>

  <rect x="34" y="872" width="700" height="92" rx="14" fill="#070b14" fill-opacity="0.74" stroke="#8aa0c4" stroke-opacity="0.6"/>
  <text x="54" y="924" fill="#D9E7FF" font-family="Exo 2, Segoe UI, sans-serif" font-size="30" font-weight="600">Construct Warden</text>

  <rect x="598" y="36" width="118" height="42" rx="10" fill="#8aa0c4" fill-opacity="0.2" stroke="#8aa0c4" stroke-opacity="0.8"/>
  <text x="612" y="65" fill="#8aa0c4" font-family="Exo 2, Segoe UI, sans-serif" font-size="20" font-weight="700">COMMON</text>

  <circle cx="708" cy="954" r="26" fill="#080d18" stroke="#8aa0c4" stroke-opacity="0.8"/>
  <text x="696" y="962" fill="#E7F2FF" font-family="Exo 2, Segoe UI, sans-serif" font-size="24" font-weight="700">24</text>
</svg>