<?xml version="1.0" encoding="UTF-8"?>
<svg width="768" height="1024" viewBox="0 0 768 1024" fill="none" xmlns="http://www.w3.org/2000/svg">
  <defs>
    <linearGradient id="bg-void-ranger-c15" x1="60" y1="40" x2="728" y2="1004" gradientUnits="userSpaceOnUse">
      <stop offset="0" stop-color="#0f1028"/>
      <stop offset="0.55" stop-color="#352b7f"/>
      <stop offset="1" stop-color="#0f1028"/>
    </linearGradient>
    <radialGradient id="glow-void-ranger-c15" cx="0" cy="0" r="1" gradientUnits="userSpaceOnUse" gradientTransform="translate(317.26 138.46) rotate(90) scale(186.41 186.41)">
      <stop stop-color="#29d3ff" stop-opacity="0.45"/>
      <stop offset="1" stop-color="#29d3ff" stop-opacity="0"/>
    </radialGradient>
    <linearGradient id="edge-void-ranger-c15" x1="0" y1="0" x2="768" y2="1024" gradientUnits="userSpaceOnUse">
      <stop stop-color="#29d3ff" stop-opacity="0.85"/>
      <stop offset="1" stop-color="#9f8dff" stop-opacity="0.85"/>
    </linearGradient>
  </defs>

  <rect x="0" y="0" width="768" height="1024" rx="32" fill="#060910"/>
  <rect x="16" y="16" width="736" height="992" rx="24" fill="url(#bg-void-ranger-c15)"/>
  <rect x="16" y="16" width="736" height="992" rx="24" fill="url(#glow-void-ranger-c15)"/>

  <g opacity="0.88">
    <line x1="261.18" y1="308.46" x2="588.19" y2="370.09" stroke="#9f8dff" stroke-width="5" opacity="0.72"/><line x1="271.55" y1="492.24" x2="493.73" y2="370.73" stroke="#29d3ff" stroke-width="2" opacity="0.72"/><line x1="253.90" y1="814.75" x2="583.65" y2="732.19" stroke="#9f8dff" stroke-width="2" opacity="0.72"/><line x1="245.77" y1="216.57" x2="664.39" y2="296.67" stroke="#29d3ff" stroke-width="5" opacity="0.72"/><line x1="234.69" y1="395.15" x2="507.13" y2="817.97" stroke="#9f8dff" stroke-width="4" opacity="0.72"/><line x1="185.69" y1="544.66" x2="638.97" y2="291.87" stroke="#29d3ff" stroke-width="5" opacity="0.72"/><line x1="299.96" y1="788.05" x2="449.29" y2="303.24" stroke="#9f8dff" stroke-width="2" opacity="0.72"/>
  </g>

  <g opacity="0.8">
    <circle cx="444.87" cy="386.68" r="4.22" fill="#9f8dff" opacity="0.35"/><circle cx="49.50" cy="248.42" r="4.74" fill="#29d3ff" opacity="0.60"/><circle cx="279.67" cy="817.36" r="2.66" fill="#9f8dff" opacity="0.30"/><circle cx="59.66" cy="272.99" r="3.07" fill="#29d3ff" opacity="0.53"/><circle cx="224.00" cy="660.19" r="1.58" fill="#9f8dff" opacity="0.29"/><circle cx="676.41" cy="715.25" r="1.60" fill="#29d3ff" opacity="0.43"/><circle cx="13.53" cy="163.24" r="2.11" fill="#9f8dff" opacity="0.46"/><circle cx="620.67" cy="356.97" r="1.40" fill="#29d3ff" opacity="0.53"/><circle cx="744.49" cy="651.94" r="2.09" fill="#9f8dff" opacity="0.71"/><circle cx="685.19" cy="554.49" r="3.79" fill="#29d3ff" opacity="0.28"/><circle cx="159.43" cy="618.84" r="2.07" fill="#9f8dff" opacity="0.39"/><circle cx="719.47" cy="353.41" r="3.64" fill="#29d3ff" opacity="0.70"/><circle cx="467.37" cy="86.84" r="1.21" fill="#9f8dff" opacity="0.44"/><circle cx="161.00" cy="467.00" r="1.26" fill="#29d3ff" opacity="0.69"/><circle cx="350.68" cy="269.18" r="2.97" fill="#9f8dff" opacity="0.35"/><circle cx="379.55" cy="187.34" r="4.84" fill="#29d3ff" opacity="0.25"/><circle cx="679.85" cy="370.95" r="2.68" fill="#9f8dff" opacity="0.61"/><circle cx="59.11" cy="322.89" r="2.29" fill="#29d3ff" opacity="0.30"/><circle cx="432.83" cy="438.15" r="4.36" fill="#9f8dff" opacity="0.41"/><circle cx="580.88" cy="316.84" r="1.75" fill="#29d3ff" opacity="0.44"/><circle cx="110.62" cy="922.71" r="2.17" fill="#9f8dff" opacity="0.31"/><circle cx="303.91" cy="960.64" r="2.00" fill="#29d3ff" opacity="0.66"/><circle cx="241.70" cy="546.27" r="2.62" fill="#9f8dff" opacity="0.36"/><circle cx="251.35" cy="952.97" r="2.80" fill="#29d3ff" opacity="0.40"/><circle cx="58.57" cy="956.70" r="4.28" fill="#9f8dff" opacity="0.60"/><circle cx="653.75" cy="791.17" r="2.71" fill="#29d3ff" opacity="0.63"/><circle cx="157.61" cy="894.22" r="1.51" fill="#9f8dff" opacity="0.49"/><circle cx="518.80" cy="164.21" r="2.10" fill="#29d3ff" opacity="0.36"/>
  </g>

  <rect x="16" y="16" width="736" height="992" rx="24" stroke="url(#edge-void-ranger-c15)" stroke-width="2.5" opacity="0.85"/>
  <rect x="22" y="22" width="724" height="980" rx="20" stroke="#8aa0c4" stroke-width="2" opacity="0.74"/>

  <rect x="34" y="34" width="700" height="72" rx="14" fill="#070b14" fill-opacity="0.72" stroke="#8aa0c4" stroke-opacity="0.55"/>
  <text x="54" y="80" fill="#EAF4FF" font-family="Exo 2, Segoe UI, sans-serif" font-size="32" font-weight="700">Void Ranger</text>

  <rect x="34" y="872" width="700" height="92" rx="14" fill="#070b14" fill-opacity="0.74" stroke="#8aa0c4" stroke-opacity="0.6"/>
  <text x="54" y="924" fill="#D9E7FF" font-family="Exo 2, Segoe UI, sans-serif" font-size="30" font-weight="600">Standard Bearer</text>

  <rect x="598" y="36" width="118" height="42" rx="10" fill="#8aa0c4" fill-opacity="0.2" stroke="#8aa0c4" stroke-opacity="0.8"/>
  <text x="612" y="65" fill="#8aa0c4" font-family="Exo 2, Segoe UI, sans-serif" font-size="20" font-weight="700">COMMON</text>

  <circle cx="708" cy="954" r="26" fill="#080d18" stroke="#8aa0c4" stroke-opacity="0.8"/>
  <text x="696" y="962" fill="#E7F2FF" font-family="Exo 2, Segoe UI, sans-serif" font-size="24" font-weight="700">15</text>
</svg>