<?xml version="1.0" encoding="UTF-8"?>
<svg width="768" height="1024" viewBox="0 0 768 1024" fill="none" xmlns="http://www.w3.org/2000/svg">
  <defs>
    <linearGradient id="bg-void-ranger-c06" x1="60" y1="40" x2="728" y2="1004" gradientUnits="userSpaceOnUse">
      <stop offset="0" stop-color="#0f1028"/>
      <stop offset="0.55" stop-color="#352b7f"/>
      <stop offset="1" stop-color="#0f1028"/>
    </linearGradient>
    <radialGradient id="glow-void-ranger-c06" cx="0" cy="0" r="1" gradientUnits="userSpaceOnUse" gradientTransform="translate(124.28 589.92) rotate(90) scale(203.69 203.69)">
      <stop stop-color="#29d3ff" stop-opacity="0.45"/>
      <stop offset="1" stop-color="#29d3ff" stop-opacity="0"/>
    </radialGradient>
    <linearGradient id="edge-void-ranger-c06" x1="0" y1="0" x2="768" y2="1024" gradientUnits="userSpaceOnUse">
      <stop stop-color="#29d3ff" stop-opacity="0.85"/>
      <stop offset="1" stop-color="#9f8dff" stop-opacity="0.85"/>
    </linearGradient>
  </defs>

  <rect x="0" y="0" width="768" height="1024" rx="32" fill="#060910"/>
  <rect x="16" y="16" width="736" height="992" rx="24" fill="url(#bg-void-ranger-c06)"/>
  <rect x="16" y="16" width="736" height="992" rx="24" fill="url(#glow-void-ranger-c06)"/>

  <g opacity="0.88">
    <line x1="231.28" y1="809.52" x2="659.28" y2="606.09" stroke="#9f8dff" stroke-width="4" opacity="0.72"/><line x1="294.35" y1="659.29" x2="524.49" y2="601.95" stroke="#29d3ff" stroke-width="2" opacity="0.72"/><line x1="169.62" y1="682.17" x2="624.40" y2="350.00" stroke="#9f8dff" stroke-width="3" opacity="0.72"/><line x1="346.78" y1="411.58" x2="576.38" y2="782.50" stroke="#29d3ff" stroke-width="4" opacity="0.72"/><line x1="269.75" y1="361.66" x2="618.13" y2="169.89" stroke="#9f8dff" stroke-width="2" opacity="0.72"/><line x1="106.95" y1="715.54" x2="670.93" y2="546.32" stroke="#29d3ff" stroke-width="5" opacity="0.72"/><line x1="319.33" y1="778.30" x2="608.49" y2="270.52" stroke="#9f8dff" stroke-width="5" opacity="0.72"/>
  </g>

  <g opacity="0.8">
    <circle cx="582.14" cy="574.21" r="4.83" fill="#9f8dff" opacity="0.63"/><circle cx="392.33" cy="963.97" r="4.33" fill="#29d3ff" opacity="0.66"/><circle cx="589.18" cy="728.70" r="2.33" fill="#9f8dff" opacity="0.58"/><circle cx="310.16" cy="448.52" r="3.80" fill="#29d3ff" opacity="0.63"/><circle cx="383.73" cy="695.01" r="3.94" fill="#9f8dff" opacity="0.63"/><circle cx="509.29" cy="66.57" r="3.64" fill="#29d3ff" opacity="0.30"/><circle cx="67.80" cy="221.83" r="4.70" fill="#9f8dff" opacity="0.41"/><circle cx="710.05" cy="160.96" r="4.12" fill="#29d3ff" opacity="0.44"/><circle cx="687.88" cy="1005.20" r="2.05" fill="#9f8dff" opacity="0.72"/><circle cx="238.09" cy="651.74" r="3.28" fill="#29d3ff" opacity="0.26"/><circle cx="20.94" cy="418.99" r="3.09" fill="#9f8dff" opacity="0.34"/><circle cx="306.03" cy="175.31" r="2.44" fill="#29d3ff" opacity="0.34"/><circle cx="158.65" cy="583.50" r="1.99" fill="#9f8dff" opacity="0.27"/><circle cx="239.70" cy="85.00" r="4.61" fill="#29d3ff" opacity="0.63"/><circle cx="102.66" cy="578.18" r="3.54" fill="#9f8dff" opacity="0.50"/><circle cx="650.81" cy="178.47" r="2.02" fill="#29d3ff" opacity="0.52"/><circle cx="672.19" cy="347.04" r="4.18" fill="#9f8dff" opacity="0.24"/><circle cx="251.75" cy="821.54" r="3.01" fill="#29d3ff" opacity="0.54"/><circle cx="438.15" cy="736.77" r="1.32" fill="#9f8dff" opacity="0.30"/><circle cx="513.31" cy="527.34" r="2.74" fill="#29d3ff" opacity="0.45"/><circle cx="131.18" cy="874.97" r="3.46" fill="#9f8dff" opacity="0.55"/><circle cx="443.00" cy="1009.69" r="4.75" fill="#29d3ff" opacity="0.47"/><circle cx="689.41" cy="494.03" r="3.53" fill="#9f8dff" opacity="0.28"/><circle cx="347.73" cy="80.12" r="1.55" fill="#29d3ff" opacity="0.30"/><circle cx="470.80" cy="20.22" r="2.38" fill="#9f8dff" opacity="0.58"/><circle cx="647.53" cy="652.06" r="2.08" fill="#29d3ff" opacity="0.35"/><circle cx="565.59" cy="776.45" r="1.97" fill="#9f8dff" opacity="0.67"/><circle cx="615.74" cy="37.77" r="2.43" fill="#29d3ff" opacity="0.73"/>
  </g>

  <rect x="16" y="16" width="736" height="992" rx="24" stroke="url(#edge-void-ranger-c06)" stroke-width="2.5" opacity="0.85"/>
  <rect x="22" y="22" width="724" height="980" rx="20" stroke="#8aa0c4" stroke-width="2" opacity="0.74"/>

  <rect x="34" y="34" width="700" height="72" rx="14" fill="#070b14" fill-opacity="0.72" stroke="#8aa0c4" stroke-opacity="0.55"/>
  <text x="54" y="80" fill="#EAF4FF" font-family="Exo 2, Segoe UI, sans-serif" font-size="32" font-weight="700">Void Ranger</text>

  <rect x="34" y="872" width="700" height="92" rx="14" fill="#070b14" fill-opacity="0.74" stroke="#8aa0c4" stroke-opacity="0.6"/>
  <text x="54" y="924" fill="#D9E7FF" font-family="Exo 2, Segoe UI, sans-serif" font-size="30" font-weight="600">Skirmisher</text>

  <rect x="598" y="36" width="118" height="42" rx="10" fill="#8aa0c4" fill-opacity="0.2" stroke="#8aa0c4" stroke-opacity="0.8"/>
  <text x="612" y="65" fill="#8aa0c4" font-family="Exo 2, Segoe UI, sans-serif" font-size="20" font-weight="700">COMMON</text>

  <circle cx="708" cy="954" r="26" fill="#080d18" stroke="#8aa0c4" stroke-opacity="0.8"/>
  <text x="696" y="962" fill="#E7F2FF" font-family="Exo 2, Segoe UI, sans-serif" font-size="24" font-weight="700">06</text>
</svg>