<?xml version="1.0" encoding="UTF-8"?>
<svg width="768" height="1024" viewBox="0 0 768 1024" fill="none" xmlns="http://www.w3.org/2000/svg">
  <defs>
    <linearGradient id="bg-void-ranger-c25" x1="60" y1="40" x2="728" y2="1004" gradientUnits="userSpaceOnUse">
      <stop offset="0" stop-color="#0f1028"/>
      <stop offset="0.55" stop-color="#352b7f"/>
      <stop offset="1" stop-color="#0f1028"/>
    </linearGradient>
    <radialGradient id="glow-void-ranger-c25" cx="0" cy="0" r="1" gradientUnits="userSpaceOnUse" gradientTransform="translate(365.82 659.85) rotate(90) scale(195.78 195.78)">
      <stop stop-color="#29d3ff" stop-opacity="0.45"/>
      <stop offset="1" stop-color="#29d3ff" stop-opacity="0"/>
    </radialGradient>
    <linearGradient id="edge-void-ranger-c25" x1="0" y1="0" x2="768" y2="1024" gradientUnits="userSpaceOnUse">
      <stop stop-color="#29d3ff" stop-opacity="0.85"/>
      <stop offset="1" stop-color="#9f8dff" stop-opacity="0.85"/>
    </linearGradient>
  </defs>

  <rect x="0" y="0" width="768" height="1024" rx="32" fill="#060910"/>
  <rect x="16" y="16" width="736" height="992" rx="24" fill="url(#bg-void-ranger-c25)"/>
  <rect x="16" y="16" width="736" height="992" rx="24" fill="url(#glow-void-ranger-c25)"/>

  <g opacity="0.88">
    <line x1="332.41" y1="412.33" x2="429.57" y2="467.89" stroke="#9f8dff" stroke-width="5" opacity="0.72"/><line x1="232.09" y1="249.33" x2="500.24" y2="232.69" stroke="#29d3ff" stroke-width="2" opacity="0.72"/><line x1="179.92" y1="698.24" x2="649.57" y2="799.81" stroke="#9f8dff" stroke-width="3" opacity="0.72"/><line x1="365.81" y1="818.16" x2="561.75" y2="825.71" stroke="#29d3ff" stroke-width="3" opacity="0.72"/><line x1="383.52" y1="567.73" x2="431.67" y2="793.14" stroke="#9f8dff" stroke-width="2" opacity="0.72"/><line x1="310.72" y1="373.60" x2="625.88" y2="425.13" stroke="#29d3ff" stroke-width="4" opacity="0.72"/><line x1="301.58" y1="617.22" x2="596.86" y2="180.02" stroke="#9f8dff" stroke-width="5" opacity="0.72"/>
  </g>

  <g opacity="0.8">
    <circle cx="549.82" cy="707.52" r="4.04" fill="#9f8dff" opacity="0.31"/><circle cx="235.00" cy="297.54" r="2.70" fill="#29d3ff" opacity="0.36"/><circle cx="558.25" cy="939.87" r="2.79" fill="#9f8dff" opacity="0.67"/><circle cx="535.89" cy="240.94" r="4.64" fill="#29d3ff" opacity="0.73"/><circle cx="522.33" cy="828.82" r="4.50" fill="#9f8dff" opacity="0.47"/><circle cx="72.42" cy="749.01" r="4.71" fill="#29d3ff" opacity="0.32"/><circle cx="709.70" cy="941.46" r="2.49" fill="#9f8dff" opacity="0.27"/><circle cx="698.13" cy="633.03" r="1.93" fill="#29d3ff" opacity="0.35"/><circle cx="443.37" cy="97.08" r="2.80" fill="#9f8dff" opacity="0.50"/><circle cx="509.96" cy="326.69" r="4.31" fill="#29d3ff" opacity="0.45"/><circle cx="43.06" cy="495.20" r="3.19" fill="#9f8dff" opacity="0.34"/><circle cx="130.70" cy="778.59" r="3.19" fill="#29d3ff" opacity="0.39"/><circle cx="487.22" cy="169.33" r="4.99" fill="#9f8dff" opacity="0.36"/><circle cx="538.95" cy="166.37" r="3.31" fill="#29d3ff" opacity="0.36"/><circle cx="697.32" cy="878.66" r="1.48" fill="#9f8dff" opacity="0.51"/><circle cx="763.14" cy="270.79" r="1.88" fill="#29d3ff" opacity="0.36"/><circle cx="371.52" cy="231.28" r="4.49" fill="#9f8dff" opacity="0.29"/><circle cx="371.26" cy="156.66" r="2.90" fill="#29d3ff" opacity="0.62"/><circle cx="644.89" cy="595.18" r="3.45" fill="#9f8dff" opacity="0.53"/><circle cx="549.41" cy="585.12" r="1.25" fill="#29d3ff" opacity="0.34"/><circle cx="302.31" cy="980.95" r="2.77" fill="#9f8dff" opacity="0.27"/><circle cx="115.66" cy="445.55" r="4.11" fill="#29d3ff" opacity="0.53"/><circle cx="451.26" cy="656.27" r="1.94" fill="#9f8dff" opacity="0.73"/><circle cx="9.27" cy="530.47" r="4.80" fill="#29d3ff" opacity="0.32"/><circle cx="737.20" cy="255.82" r="4.97" fill="#9f8dff" opacity="0.51"/><circle cx="53.80" cy="511.14" r="1.41" fill="#29d3ff" opacity="0.70"/><circle cx="89.65" cy="61.73" r="2.22" fill="#9f8dff" opacity="0.27"/><circle cx="377.12" cy="921.33" r="4.03" fill="#29d3ff" opacity="0.26"/>
  </g>

  <rect x="16" y="16" width="736" height="992" rx="24" stroke="url(#edge-void-ranger-c25)" stroke-width="2.5" opacity="0.85"/>
  <rect x="22" y="22" width="724" height="980" rx="20" stroke="#8aa0c4" stroke-width="2" opacity="0.74"/>

  <rect x="34" y="34" width="700" height="72" rx="14" fill="#070b14" fill-opacity="0.72" stroke="#8aa0c4" stroke-opacity="0.55"/>
  <text x="54" y="80" fill="#EAF4FF" font-family="Exo 2, Segoe UI, sans-serif" font-size="32" font-weight="700">Void Ranger</text>

  <rect x="34" y="872" width="700" height="92" rx="14" fill="#070b14" fill-opacity="0.74" stroke="#8aa0c4" stroke-opacity="0.6"/>
  <text x="54" y="924" fill="#D9E7FF" font-family="Exo 2, Segoe UI, sans-serif" font-size="30" font-weight="600">Executioner</text>

  <rect x="598" y="36" width="118" height="42" rx="10" fill="#8aa0c4" fill-opacity="0.2" stroke="#8aa0c4" stroke-opacity="0.8"/>
  <text x="612" y="65" fill="#8aa0c4" font-family="Exo 2, Segoe UI, sans-serif" font-size="20" font-weight="700">COMMON</text>

  <circle cx="708" cy="954" r="26" fill="#080d18" stroke="#8aa0c4" stroke-opacity="0.8"/>
  <text x="696" y="962" fill="#E7F2FF" font-family="Exo 2, Segoe UI, sans-serif" font-size="24" font-weight="700">25</text>
</svg>