<?xml version="1.0" encoding="UTF-8"?>
<svg width="768" height="1024" viewBox="0 0 768 1024" fill="none" xmlns="http://www.w3.org/2000/svg">
  <defs>
    <linearGradient id="bg-void-ranger-c44" x1="60" y1="40" x2="728" y2="1004" gradientUnits="userSpaceOnUse">
      <stop offset="0" stop-color="#0f1028"/>
      <stop offset="0.55" stop-color="#352b7f"/>
      <stop offset="1" stop-color="#0f1028"/>
    </linearGradient>
    <radialGradient id="glow-void-ranger-c44" cx="0" cy="0" r="1" gradientUnits="userSpaceOnUse" gradientTransform="translate(427.57 451.51) rotate(90) scale(282.02 282.02)">
      <stop stop-color="#29d3ff" stop-opacity="0.45"/>
      <stop offset="1" stop-color="#29d3ff" stop-opacity="0"/>
    </radialGradient>
    <linearGradient id="edge-void-ranger-c44" x1="0" y1="0" x2="768" y2="1024" gradientUnits="userSpaceOnUse">
      <stop stop-color="#29d3ff" stop-opacity="0.85"/>
      <stop offset="1" stop-color="#9f8dff" stop-opacity="0.85"/>
    </linearGradient>
  </defs>

  <rect x="0" y="0" width="768" height="1024" rx="32" fill="#060910"/>
  <rect x="16" y="16" width="736" height="992" rx="24" fill="url(#bg-void-ranger-c44)"/>
  <rect x="16" y="16" width="736" height="992" rx="24" fill="url(#glow-void-ranger-c44)"/>

  <g opacity="0.88">
    <line x1="184.93" y1="649.52" x2="539.37" y2="328.95" stroke="#9f8dff" stroke-width="5" opacity="0.72"/><line x1="331.70" y1="644.30" x2="465.41" y2="204.21" stroke="#29d3ff" stroke-width="5" opacity="0.72"/><line x1="145.10" y1="290.69" x2="607.93" y2="270.17" stroke="#9f8dff" stroke-width="2" opacity="0.72"/><line x1="138.16" y1="215.41" x2="528.70" y2="243.50" stroke="#29d3ff" stroke-width="5" opacity="0.72"/><line x1="99.79" y1="743.09" x2="620.84" y2="732.55" stroke="#9f8dff" stroke-width="3" opacity="0.72"/><line x1="369.82" y1="337.35" x2="620.39" y2="541.40" stroke="#29d3ff" stroke-width="4" opacity="0.72"/><line x1="172.07" y1="654.72" x2="612.81" y2="451.55" stroke="#9f8dff" stroke-width="5" opacity="0.72"/>
  </g>

  <g opacity="0.8">
    <circle cx="52.26" cy="595.53" r="1.21" fill="#9f8dff" opacity="0.64"/><circle cx="444.74" cy="496.39" r="2.06" fill="#29d3ff" opacity="0.30"/><circle cx="127.64" cy="725.27" r="2.81" fill="#9f8dff" opacity="0.43"/><circle cx="486.86" cy="893.11" r="1.81" fill="#29d3ff" opacity="0.30"/><circle cx="96.35" cy="926.20" r="3.02" fill="#9f8dff" opacity="0.24"/><circle cx="598.98" cy="411.42" r="4.56" fill="#29d3ff" opacity="0.73"/><circle cx="765.50" cy="348.33" r="1.34" fill="#9f8dff" opacity="0.29"/><circle cx="401.34" cy="139.03" r="3.47" fill="#29d3ff" opacity="0.32"/><circle cx="718.92" cy="131.91" r="2.21" fill="#9f8dff" opacity="0.73"/><circle cx="498.91" cy="62.57" r="3.64" fill="#29d3ff" opacity="0.66"/><circle cx="546.94" cy="137.97" r="4.09" fill="#9f8dff" opacity="0.61"/><circle cx="7.01" cy="25.87" r="3.44" fill="#29d3ff" opacity="0.41"/><circle cx="108.85" cy="161.67" r="2.92" fill="#9f8dff" opacity="0.25"/><circle cx="272.64" cy="253.30" r="1.69" fill="#29d3ff" opacity="0.55"/><circle cx="667.35" cy="874.09" r="4.64" fill="#9f8dff" opacity="0.62"/><circle cx="85.17" cy="903.24" r="1.95" fill="#29d3ff" opacity="0.33"/><circle cx="498.94" cy="500.97" r="3.36" fill="#9f8dff" opacity="0.43"/><circle cx="518.35" cy="521.81" r="1.89" fill="#29d3ff" opacity="0.64"/><circle cx="501.31" cy="846.11" r="2.21" fill="#9f8dff" opacity="0.57"/><circle cx="608.75" cy="984.97" r="2.64" fill="#29d3ff" opacity="0.47"/><circle cx="361.66" cy="680.87" r="2.71" fill="#9f8dff" opacity="0.56"/><circle cx="181.40" cy="624.70" r="3.66" fill="#29d3ff" opacity="0.68"/><circle cx="18.94" cy="596.57" r="4.12" fill="#9f8dff" opacity="0.58"/><circle cx="226.45" cy="80.80" r="3.63" fill="#29d3ff" opacity="0.65"/><circle cx="28.55" cy="415.50" r="4.42" fill="#9f8dff" opacity="0.64"/><circle cx="122.72" cy="1.26" r="4.80" fill="#29d3ff" opacity="0.32"/><circle cx="116.93" cy="807.61" r="3.94" fill="#9f8dff" opacity="0.72"/><circle cx="530.67" cy="41.36" r="4.32" fill="#29d3ff" opacity="0.66"/>
  </g>

  <rect x="16" y="16" width="736" height="992" rx="24" stroke="url(#edge-void-ranger-c44)" stroke-width="2.5" opacity="0.85"/>
  <rect x="22" y="22" width="724" height="980" rx="20" stroke="#f0a0ff" stroke-width="2" opacity="0.74"/>

  <rect x="34" y="34" width="700" height="72" rx="14" fill="#070b14" fill-opacity="0.72" stroke="#f0a0ff" stroke-opacity="0.55"/>
  <text x="54" y="80" fill="#EAF4FF" font-family="Exo 2, Segoe UI, sans-serif" font-size="32" font-weight="700">Void Ranger</text>

  <rect x="34" y="872" width="700" height="92" rx="14" fill="#070b14" fill-opacity="0.74" stroke="#f0a0ff" stroke-opacity="0.6"/>
  <text x="54" y="924" fill="#D9E7FF" font-family="Exo 2, Segoe UI, sans-serif" font-size="30" font-weight="600">Battlefield Event</text>

  <rect x="598" y="36" width="118" height="42" rx="10" fill="#f0a0ff" fill-opacity="0.2" stroke="#f0a0ff" stroke-opacity="0.8"/>
  <text x="612" y="65" fill="#f0a0ff" font-family="Exo 2, Segoe UI, sans-serif" font-size="20" font-weight="700">EPIC</text>

  <circle cx="708" cy="954" r="26" fill="#080d18" stroke="#f0a0ff" stroke-opacity="0.8"/>
  <text x="696" y="962" fill="#E7F2FF" font-family="Exo 2, Segoe UI, sans-serif" font-size="24" font-weight="700">44</text>
</svg>