<?xml version="1.0" encoding="UTF-8"?>
<svg width="768" height="1024" viewBox="0 0 768 1024" fill="none" xmlns="http://www.w3.org/2000/svg">
  <defs>
    <linearGradient id="bg-void-ranger-c07" x1="60" y1="40" x2="728" y2="1004" gradientUnits="userSpaceOnUse">
      <stop offset="0" stop-color="#0f1028"/>
      <stop offset="0.55" stop-color="#352b7f"/>
      <stop offset="1" stop-color="#0f1028"/>
    </linearGradient>
    <radialGradient id="glow-void-ranger-c07" cx="0" cy="0" r="1" gradientUnits="userSpaceOnUse" gradientTransform="translate(637.12 294.37) rotate(90) scale(264.26 264.26)">
      <stop stop-color="#29d3ff" stop-opacity="0.45"/>
      <stop offset="1" stop-color="#29d3ff" stop-opacity="0"/>
    </radialGradient>
    <linearGradient id="edge-void-ranger-c07" x1="0" y1="0" x2="768" y2="1024" gradientUnits="userSpaceOnUse">
      <stop stop-color="#29d3ff" stop-opacity="0.85"/>
      <stop offset="1" stop-color="#9f8dff" stop-opacity="0.85"/>
    </linearGradient>
  </defs>

  <rect x="0" y="0" width="768" height="1024" rx="32" fill="#060910"/>
  <rect x="16" y="16" width="736" height="992" rx="24" fill="url(#bg-void-ranger-c07)"/>
  <rect x="16" y="16" width="736" height="992" rx="24" fill="url(#glow-void-ranger-c07)"/>

  <g opacity="0.88">
    <line x1="363.22" y1="531.58" x2="670.66" y2="314.05" stroke="#9f8dff" stroke-width="2" opacity="0.72"/><line x1="314.09" y1="661.49" x2="600.94" y2="435.40" stroke="#29d3ff" stroke-width="5" opacity="0.72"/><line x1="86.24" y1="259.93" x2="555.52" y2="351.51" stroke="#9f8dff" stroke-width="5" opacity="0.72"/><line x1="340.64" y1="318.24" x2="454.33" y2="859.78" stroke="#29d3ff" stroke-width="3" opacity="0.72"/><line x1="378.58" y1="739.78" x2="578.16" y2="316.32" stroke="#9f8dff" stroke-width="3" opacity="0.72"/><line x1="167.16" y1="720.24" x2="597.88" y2="730.29" stroke="#29d3ff" stroke-width="3" opacity="0.72"/><line x1="344.85" y1="389.11" x2="526.08" y2="588.99" stroke="#9f8dff" stroke-width="4" opacity="0.72"/>
  </g>

  <g opacity="0.8">
    <circle cx="290.75" cy="409.00" r="4.51" fill="#9f8dff" opacity="0.32"/><circle cx="431.93" cy="870.39" r="4.92" fill="#29d3ff" opacity="0.28"/><circle cx="614.82" cy="272.61" r="1.87" fill="#9f8dff" opacity="0.31"/><circle cx="557.60" cy="262.04" r="1.25" fill="#29d3ff" opacity="0.62"/><circle cx="397.97" cy="564.04" r="4.30" fill="#9f8dff" opacity="0.34"/><circle cx="322.09" cy="934.73" r="3.95" fill="#29d3ff" opacity="0.56"/><circle cx="690.62" cy="861.87" r="4.58" fill="#9f8dff" opacity="0.64"/><circle cx="143.52" cy="518.50" r="3.66" fill="#29d3ff" opacity="0.41"/><circle cx="609.78" cy="562.14" r="1.76" fill="#9f8dff" opacity="0.30"/><circle cx="574.60" cy="658.48" r="1.43" fill="#29d3ff" opacity="0.64"/><circle cx="629.27" cy="414.70" r="2.33" fill="#9f8dff" opacity="0.31"/><circle cx="90.22" cy="594.95" r="1.28" fill="#29d3ff" opacity="0.45"/><circle cx="461.81" cy="617.46" r="1.44" fill="#9f8dff" opacity="0.27"/><circle cx="36.88" cy="34.62" r="1.28" fill="#29d3ff" opacity="0.24"/><circle cx="188.13" cy="637.87" r="4.74" fill="#9f8dff" opacity="0.41"/><circle cx="642.40" cy="409.37" r="1.78" fill="#29d3ff" opacity="0.56"/><circle cx="247.44" cy="704.12" r="3.74" fill="#9f8dff" opacity="0.67"/><circle cx="532.21" cy="843.41" r="2.03" fill="#29d3ff" opacity="0.45"/><circle cx="527.56" cy="14.84" r="3.68" fill="#9f8dff" opacity="0.46"/><circle cx="154.15" cy="569.35" r="2.53" fill="#29d3ff" opacity="0.32"/><circle cx="520.72" cy="114.15" r="3.38" fill="#9f8dff" opacity="0.52"/><circle cx="45.42" cy="469.54" r="1.62" fill="#29d3ff" opacity="0.40"/><circle cx="677.44" cy="829.38" r="1.56" fill="#9f8dff" opacity="0.54"/><circle cx="556.79" cy="914.74" r="2.85" fill="#29d3ff" opacity="0.56"/><circle cx="585.02" cy="773.28" r="1.42" fill="#9f8dff" opacity="0.49"/><circle cx="638.32" cy="567.91" r="1.53" fill="#29d3ff" opacity="0.69"/><circle cx="10.41" cy="72.28" r="2.15" fill="#9f8dff" opacity="0.27"/><circle cx="226.00" cy="131.88" r="2.39" fill="#29d3ff" opacity="0.40"/>
  </g>

  <rect x="16" y="16" width="736" height="992" rx="24" stroke="url(#edge-void-ranger-c07)" stroke-width="2.5" opacity="0.85"/>
  <rect x="22" y="22" width="724" height="980" rx="20" stroke="#8aa0c4" stroke-width="2" opacity="0.74"/>

  <rect x="34" y="34" width="700" height="72" rx="14" fill="#070b14" fill-opacity="0.72" stroke="#8aa0c4" stroke-opacity="0.55"/>
  <text x="54" y="80" fill="#EAF4FF" font-family="Exo 2, Segoe UI, sans-serif" font-size="32" font-weight="700">Void Ranger</text>

  <rect x="34" y="872" width="700" height="92" rx="14" fill="#070b14" fill-opacity="0.74" stroke="#8aa0c4" stroke-opacity="0.6"/>
  <text x="54" y="924" fill="#D9E7FF" font-family="Exo 2, Segoe UI, sans-serif" font-size="30" font-weight="600">Medic</text>

  <rect x="598" y="36" width="118" height="42" rx="10" fill="#8aa0c4" fill-opacity="0.2" stroke="#8aa0c4" stroke-opacity="0.8"/>
  <text x="612" y="65" fill="#8aa0c4" font-family="Exo 2, Segoe UI, sans-serif" font-size="20" font-weight="700">COMMON</text>

  <circle cx="708" cy="954" r="26" fill="#080d18" stroke="#8aa0c4" stroke-opacity="0.8"/>
  <text x="696" y="962" fill="#E7F2FF" font-family="Exo 2, Segoe UI, sans-serif" font-size="24" font-weight="700">07</text>
</svg>