<?xml version="1.0" encoding="UTF-8"?>
<svg width="768" height="1024" viewBox="0 0 768 1024" fill="none" xmlns="http://www.w3.org/2000/svg">
  <defs>
    <linearGradient id="bg-void-ranger-c13" x1="60" y1="40" x2="728" y2="1004" gradientUnits="userSpaceOnUse">
      <stop offset="0" stop-color="#0f1028"/>
      <stop offset="0.55" stop-color="#352b7f"/>
      <stop offset="1" stop-color="#0f1028"/>
    </linearGradient>
    <radialGradient id="glow-void-ranger-c13" cx="0" cy="0" r="1" gradientUnits="userSpaceOnUse" gradientTransform="translate(195.03 532.15) rotate(90) scale(246.48 246.48)">
      <stop stop-color="#29d3ff" stop-opacity="0.45"/>
      <stop offset="1" stop-color="#29d3ff" stop-opacity="0"/>
    </radialGradient>
    <linearGradient id="edge-void-ranger-c13" x1="0" y1="0" x2="768" y2="1024" gradientUnits="userSpaceOnUse">
      <stop stop-color="#29d3ff" stop-opacity="0.85"/>
      <stop offset="1" stop-color="#9f8dff" stop-opacity="0.85"/>
    </linearGradient>
  </defs>

  <rect x="0" y="0" width="768" height="1024" rx="32" fill="#060910"/>
  <rect x="16" y="16" width="736" height="992" rx="24" fill="url(#bg-void-ranger-c13)"/>
  <rect x="16" y="16" width="736" height="992" rx="24" fill="url(#glow-void-ranger-c13)"/>

  <g opacity="0.88">
    <line x1="203.80" y1="260.69" x2="649.36" y2="247.98" stroke="#9f8dff" stroke-width="5" opacity="0.72"/><line x1="194.51" y1="529.49" x2="648.12" y2="609.93" stroke="#29d3ff" stroke-width="4" opacity="0.72"/><line x1="376.24" y1="766.29" x2="604.39" y2="583.03" stroke="#9f8dff" stroke-width="5" opacity="0.72"/><line x1="100.40" y1="235.37" x2="533.00" y2="632.54" stroke="#29d3ff" stroke-width="5" opacity="0.72"/><line x1="102.73" y1="595.67" x2="480.98" y2="592.03" stroke="#9f8dff" stroke-width="5" opacity="0.72"/><line x1="88.98" y1="735.11" x2="663.36" y2="434.24" stroke="#29d3ff" stroke-width="3" opacity="0.72"/><line x1="163.68" y1="282.28" x2="443.35" y2="626.78" stroke="#9f8dff" stroke-width="4" opacity="0.72"/>
  </g>

  <g opacity="0.8">
    <circle cx="661.35" cy="11.43" r="4.44" fill="#9f8dff" opacity="0.67"/><circle cx="66.53" cy="316.11" r="2.23" fill="#29d3ff" opacity="0.51"/><circle cx="749.09" cy="340.27" r="1.70" fill="#9f8dff" opacity="0.33"/><circle cx="659.52" cy="196.52" r="4.06" fill="#29d3ff" opacity="0.67"/><circle cx="457.94" cy="615.88" r="1.46" fill="#9f8dff" opacity="0.31"/><circle cx="670.82" cy="95.35" r="2.50" fill="#29d3ff" opacity="0.61"/><circle cx="111.84" cy="558.44" r="3.08" fill="#9f8dff" opacity="0.25"/><circle cx="41.19" cy="898.67" r="3.05" fill="#29d3ff" opacity="0.69"/><circle cx="193.25" cy="919.19" r="3.88" fill="#9f8dff" opacity="0.31"/><circle cx="714.59" cy="43.81" r="4.41" fill="#29d3ff" opacity="0.48"/><circle cx="233.99" cy="984.21" r="4.07" fill="#9f8dff" opacity="0.24"/><circle cx="330.73" cy="949.43" r="2.51" fill="#29d3ff" opacity="0.49"/><circle cx="66.54" cy="130.18" r="4.79" fill="#9f8dff" opacity="0.55"/><circle cx="527.28" cy="468.28" r="1.66" fill="#29d3ff" opacity="0.38"/><circle cx="534.07" cy="177.12" r="4.20" fill="#9f8dff" opacity="0.31"/><circle cx="330.06" cy="65.09" r="2.89" fill="#29d3ff" opacity="0.68"/><circle cx="4.62" cy="91.24" r="1.92" fill="#9f8dff" opacity="0.33"/><circle cx="106.01" cy="222.95" r="3.27" fill="#29d3ff" opacity="0.35"/><circle cx="602.82" cy="208.71" r="3.08" fill="#9f8dff" opacity="0.56"/><circle cx="125.89" cy="380.19" r="1.79" fill="#29d3ff" opacity="0.46"/><circle cx="512.90" cy="690.00" r="3.91" fill="#9f8dff" opacity="0.72"/><circle cx="33.42" cy="317.07" r="2.02" fill="#29d3ff" opacity="0.35"/><circle cx="2.79" cy="539.16" r="4.91" fill="#9f8dff" opacity="0.24"/><circle cx="115.01" cy="1019.61" r="1.64" fill="#29d3ff" opacity="0.49"/><circle cx="25.74" cy="949.63" r="1.75" fill="#9f8dff" opacity="0.51"/><circle cx="667.40" cy="346.17" r="4.50" fill="#29d3ff" opacity="0.64"/><circle cx="239.72" cy="106.79" r="3.28" fill="#9f8dff" opacity="0.67"/><circle cx="607.36" cy="542.49" r="4.22" fill="#29d3ff" opacity="0.56"/>
  </g>

  <rect x="16" y="16" width="736" height="992" rx="24" stroke="url(#edge-void-ranger-c13)" stroke-width="2.5" opacity="0.85"/>
  <rect x="22" y="22" width="724" height="980" rx="20" stroke="#8aa0c4" stroke-width="2" opacity="0.74"/>

  <rect x="34" y="34" width="700" height="72" rx="14" fill="#070b14" fill-opacity="0.72" stroke="#8aa0c4" stroke-opacity="0.55"/>
  <text x="54" y="80" fill="#EAF4FF" font-family="Exo 2, Segoe UI, sans-serif" font-size="32" font-weight="700">Void Ranger</text>

  <rect x="34" y="872" width="700" height="92" rx="14" fill="#070b14" fill-opacity="0.74" stroke="#8aa0c4" stroke-opacity="0.6"/>
  <text x="54" y="924" fill="#D9E7FF" font-family="Exo 2, Segoe UI, sans-serif" font-size="30" font-weight="600">Ambusher</text>

  <rect x="598" y="36" width="118" height="42" rx="10" fill="#8aa0c4" fill-opacity="0.2" stroke="#8aa0c4" stroke-opacity="0.8"/>
  <text x="612" y="65" fill="#8aa0c4" font-family="Exo 2, Segoe UI, sans-serif" font-size="20" font-weight="700">COMMON</text>

  <circle cx="708" cy="954" r="26" fill="#080d18" stroke="#8aa0c4" stroke-opacity="0.8"/>
  <text x="696" y="962" fill="#E7F2FF" font-family="Exo 2, Segoe UI, sans-serif" font-size="24" font-weight="700">13</text>
</svg>