<?xml version="1.0" encoding="UTF-8"?>
<svg width="768" height="1024" viewBox="0 0 768 1024" fill="none" xmlns="http://www.w3.org/2000/svg">
  <defs>
    <linearGradient id="bg-void-ranger-c46" x1="60" y1="40" x2="728" y2="1004" gradientUnits="userSpaceOnUse">
      <stop offset="0" stop-color="#0f1028"/>
      <stop offset="0.55" stop-color="#352b7f"/>
      <stop offset="1" stop-color="#0f1028"/>
    </linearGradient>
    <radialGradient id="glow-void-ranger-c46" cx="0" cy="0" r="1" gradientUnits="userSpaceOnUse" gradientTransform="translate(401.21 170.04) rotate(90) scale(237.60 237.60)">
      <stop stop-color="#29d3ff" stop-opacity="0.45"/>
      <stop offset="1" stop-color="#29d3ff" stop-opacity="0"/>
    </radialGradient>
    <linearGradient id="edge-void-ranger-c46" x1="0" y1="0" x2="768" y2="1024" gradientUnits="userSpaceOnUse">
      <stop stop-color="#29d3ff" stop-opacity="0.85"/>
      <stop offset="1" stop-color="#9f8dff" stop-opacity="0.85"/>
    </linearGradient>
  </defs>

  <rect x="0" y="0" width="768" height="1024" rx="32" fill="#060910"/>
  <rect x="16" y="16" width="736" height="992" rx="24" fill="url(#bg-void-ranger-c46)"/>
  <rect x="16" y="16" width="736" height="992" rx="24" fill="url(#glow-void-ranger-c46)"/>

  <g opacity="0.88">
    <line x1="306.29" y1="219.07" x2="689.33" y2="779.96" stroke="#9f8dff" stroke-width="5" opacity="0.72"/><line x1="381.64" y1="715.21" x2="672.47" y2="864.70" stroke="#29d3ff" stroke-width="5" opacity="0.72"/><line x1="77.36" y1="779.38" x2="573.94" y2="505.35" stroke="#9f8dff" stroke-width="3" opacity="0.72"/><line x1="218.79" y1="505.52" x2="621.73" y2="624.50" stroke="#29d3ff" stroke-width="3" opacity="0.72"/><line x1="106.56" y1="594.66" x2="498.07" y2="344.50" stroke="#9f8dff" stroke-width="4" opacity="0.72"/><line x1="363.53" y1="275.51" x2="678.44" y2="500.30" stroke="#29d3ff" stroke-width="2" opacity="0.72"/><line x1="338.70" y1="796.37" x2="575.13" y2="839.00" stroke="#9f8dff" stroke-width="3" opacity="0.72"/>
  </g>

  <g opacity="0.8">
    <circle cx="133.83" cy="961.62" r="3.57" fill="#9f8dff" opacity="0.24"/><circle cx="163.64" cy="39.65" r="4.99" fill="#29d3ff" opacity="0.30"/><circle cx="463.52" cy="516.59" r="4.97" fill="#9f8dff" opacity="0.47"/><circle cx="503.75" cy="324.78" r="4.91" fill="#29d3ff" opacity="0.48"/><circle cx="268.52" cy="557.46" r="3.37" fill="#9f8dff" opacity="0.62"/><circle cx="591.30" cy="55.80" r="4.49" fill="#29d3ff" opacity="0.63"/><circle cx="511.64" cy="691.80" r="3.27" fill="#9f8dff" opacity="0.71"/><circle cx="269.22" cy="931.23" r="1.39" fill="#29d3ff" opacity="0.72"/><circle cx="122.41" cy="293.91" r="1.51" fill="#9f8dff" opacity="0.64"/><circle cx="718.48" cy="709.81" r="1.35" fill="#29d3ff" opacity="0.59"/><circle cx="490.57" cy="671.18" r="1.36" fill="#9f8dff" opacity="0.29"/><circle cx="71.87" cy="577.83" r="4.74" fill="#29d3ff" opacity="0.69"/><circle cx="448.13" cy="265.07" r="2.32" fill="#9f8dff" opacity="0.73"/><circle cx="366.83" cy="335.20" r="3.96" fill="#29d3ff" opacity="0.48"/><circle cx="153.95" cy="783.89" r="3.28" fill="#9f8dff" opacity="0.71"/><circle cx="435.66" cy="628.50" r="2.64" fill="#29d3ff" opacity="0.50"/><circle cx="187.99" cy="917.69" r="1.59" fill="#9f8dff" opacity="0.47"/><circle cx="571.27" cy="341.06" r="2.45" fill="#29d3ff" opacity="0.58"/><circle cx="412.48" cy="789.20" r="2.44" fill="#9f8dff" opacity="0.60"/><circle cx="118.08" cy="692.92" r="4.18" fill="#29d3ff" opacity="0.60"/><circle cx="482.00" cy="670.33" r="4.21" fill="#9f8dff" opacity="0.61"/><circle cx="62.36" cy="515.85" r="3.72" fill="#29d3ff" opacity="0.54"/><circle cx="554.04" cy="113.71" r="2.89" fill="#9f8dff" opacity="0.44"/><circle cx="635.33" cy="396.93" r="3.46" fill="#29d3ff" opacity="0.44"/><circle cx="192.72" cy="910.62" r="2.57" fill="#9f8dff" opacity="0.70"/><circle cx="606.98" cy="547.87" r="2.67" fill="#29d3ff" opacity="0.69"/><circle cx="113.48" cy="176.07" r="3.87" fill="#9f8dff" opacity="0.45"/><circle cx="751.11" cy="680.92" r="1.75" fill="#29d3ff" opacity="0.26"/>
  </g>

  <rect x="16" y="16" width="736" height="992" rx="24" stroke="url(#edge-void-ranger-c46)" stroke-width="2.5" opacity="0.85"/>
  <rect x="22" y="22" width="724" height="980" rx="20" stroke="#f0a0ff" stroke-width="2" opacity="0.74"/>

  <rect x="34" y="34" width="700" height="72" rx="14" fill="#070b14" fill-opacity="0.72" stroke="#f0a0ff" stroke-opacity="0.55"/>
  <text x="54" y="80" fill="#EAF4FF" font-family="Exo 2, Segoe UI, sans-serif" font-size="32" font-weight="700">Void Ranger</text>

  <rect x="34" y="872" width="700" height="92" rx="14" fill="#070b14" fill-opacity="0.74" stroke="#f0a0ff" stroke-opacity="0.6"/>
  <text x="54" y="924" fill="#D9E7FF" font-family="Exo 2, Segoe UI, sans-serif" font-size="30" font-weight="600">Epic Denial</text>

  <rect x="598" y="36" width="118" height="42" rx="10" fill="#f0a0ff" fill-opacity="0.2" stroke="#f0a0ff" stroke-opacity="0.8"/>
  <text x="612" y="65" fill="#f0a0ff" font-family="Exo 2, Segoe UI, sans-serif" font-size="20" font-weight="700">EPIC</text>

  <circle cx="708" cy="954" r="26" fill="#080d18" stroke="#f0a0ff" stroke-opacity="0.8"/>
  <text x="696" y="962" fill="#E7F2FF" font-family="Exo 2, Segoe UI, sans-serif" font-size="24" font-weight="700">46</text>
</svg>