<?xml version="1.0" encoding="UTF-8"?>
<svg width="768" height="1024" viewBox="0 0 768 1024" fill="none" xmlns="http://www.w3.org/2000/svg">
  <defs>
    <linearGradient id="bg-void-ranger-c41" x1="60" y1="40" x2="728" y2="1004" gradientUnits="userSpaceOnUse">
      <stop offset="0" stop-color="#0f1028"/>
      <stop offset="0.55" stop-color="#352b7f"/>
      <stop offset="1" stop-color="#0f1028"/>
    </linearGradient>
    <radialGradient id="glow-void-ranger-c41" cx="0" cy="0" r="1" gradientUnits="userSpaceOnUse" gradientTransform="translate(224.16 565.78) rotate(90) scale(201.78 201.78)">
      <stop stop-color="#29d3ff" stop-opacity="0.45"/>
      <stop offset="1" stop-color="#29d3ff" stop-opacity="0"/>
    </radialGradient>
    <linearGradient id="edge-void-ranger-c41" x1="0" y1="0" x2="768" y2="1024" gradientUnits="userSpaceOnUse">
      <stop stop-color="#29d3ff" stop-opacity="0.85"/>
      <stop offset="1" stop-color="#9f8dff" stop-opacity="0.85"/>
    </linearGradient>
  </defs>

  <rect x="0" y="0" width="768" height="1024" rx="32" fill="#060910"/>
  <rect x="16" y="16" width="736" height="992" rx="24" fill="url(#bg-void-ranger-c41)"/>
  <rect x="16" y="16" width="736" height="992" rx="24" fill="url(#glow-void-ranger-c41)"/>

  <g opacity="0.88">
    <line x1="84.79" y1="592.97" x2="562.46" y2="278.18" stroke="#9f8dff" stroke-width="2" opacity="0.72"/><line x1="172.36" y1="773.40" x2="446.35" y2="209.41" stroke="#29d3ff" stroke-width="4" opacity="0.72"/><line x1="111.72" y1="532.96" x2="464.18" y2="834.73" stroke="#9f8dff" stroke-width="3" opacity="0.72"/><line x1="372.81" y1="249.44" x2="680.54" y2="666.87" stroke="#29d3ff" stroke-width="5" opacity="0.72"/><line x1="157.14" y1="807.05" x2="492.40" y2="481.96" stroke="#9f8dff" stroke-width="3" opacity="0.72"/><line x1="359.49" y1="462.17" x2="499.10" y2="166.27" stroke="#29d3ff" stroke-width="5" opacity="0.72"/><line x1="305.05" y1="460.87" x2="526.08" y2="612.58" stroke="#9f8dff" stroke-width="4" opacity="0.72"/>
  </g>

  <g opacity="0.8">
    <circle cx="711.40" cy="112.78" r="1.23" fill="#9f8dff" opacity="0.47"/><circle cx="382.53" cy="821.43" r="3.79" fill="#29d3ff" opacity="0.54"/><circle cx="126.31" cy="70.87" r="3.54" fill="#9f8dff" opacity="0.68"/><circle cx="306.76" cy="786.89" r="2.92" fill="#29d3ff" opacity="0.40"/><circle cx="41.34" cy="220.28" r="3.47" fill="#9f8dff" opacity="0.32"/><circle cx="393.21" cy="1018.38" r="4.25" fill="#29d3ff" opacity="0.51"/><circle cx="258.84" cy="283.84" r="3.87" fill="#9f8dff" opacity="0.31"/><circle cx="390.42" cy="11.09" r="1.50" fill="#29d3ff" opacity="0.74"/><circle cx="212.46" cy="342.19" r="3.59" fill="#9f8dff" opacity="0.73"/><circle cx="245.33" cy="213.86" r="3.34" fill="#29d3ff" opacity="0.60"/><circle cx="44.71" cy="302.76" r="2.19" fill="#9f8dff" opacity="0.36"/><circle cx="743.63" cy="674.79" r="2.02" fill="#29d3ff" opacity="0.66"/><circle cx="95.09" cy="73.34" r="2.68" fill="#9f8dff" opacity="0.29"/><circle cx="674.00" cy="429.09" r="4.11" fill="#29d3ff" opacity="0.31"/><circle cx="538.82" cy="65.32" r="3.40" fill="#9f8dff" opacity="0.51"/><circle cx="580.94" cy="969.44" r="1.52" fill="#29d3ff" opacity="0.70"/><circle cx="729.96" cy="421.80" r="4.38" fill="#9f8dff" opacity="0.59"/><circle cx="336.04" cy="102.60" r="4.48" fill="#29d3ff" opacity="0.35"/><circle cx="497.14" cy="912.39" r="2.63" fill="#9f8dff" opacity="0.27"/><circle cx="412.87" cy="673.90" r="3.21" fill="#29d3ff" opacity="0.27"/><circle cx="686.18" cy="507.93" r="4.50" fill="#9f8dff" opacity="0.38"/><circle cx="221.14" cy="224.25" r="2.10" fill="#29d3ff" opacity="0.48"/><circle cx="517.45" cy="767.84" r="3.37" fill="#9f8dff" opacity="0.47"/><circle cx="690.15" cy="223.07" r="2.00" fill="#29d3ff" opacity="0.61"/><circle cx="471.59" cy="11.03" r="2.12" fill="#9f8dff" opacity="0.67"/><circle cx="725.84" cy="202.14" r="2.69" fill="#29d3ff" opacity="0.66"/><circle cx="582.90" cy="170.94" r="3.74" fill="#9f8dff" opacity="0.28"/><circle cx="513.04" cy="713.67" r="1.95" fill="#29d3ff" opacity="0.33"/>
  </g>

  <rect x="16" y="16" width="736" height="992" rx="24" stroke="url(#edge-void-ranger-c41)" stroke-width="2.5" opacity="0.85"/>
  <rect x="22" y="22" width="724" height="980" rx="20" stroke="#78d8ff" stroke-width="2" opacity="0.74"/>

  <rect x="34" y="34" width="700" height="72" rx="14" fill="#070b14" fill-opacity="0.72" stroke="#78d8ff" stroke-opacity="0.55"/>
  <text x="54" y="80" fill="#EAF4FF" font-family="Exo 2, Segoe UI, sans-serif" font-size="32" font-weight="700">Void Ranger</text>

  <rect x="34" y="872" width="700" height="92" rx="14" fill="#070b14" fill-opacity="0.74" stroke="#78d8ff" stroke-opacity="0.6"/>
  <text x="54" y="924" fill="#D9E7FF" font-family="Exo 2, Segoe UI, sans-serif" font-size="30" font-weight="600">Grave Utility</text>

  <rect x="598" y="36" width="118" height="42" rx="10" fill="#78d8ff" fill-opacity="0.2" stroke="#78d8ff" stroke-opacity="0.8"/>
  <text x="612" y="65" fill="#78d8ff" font-family="Exo 2, Segoe UI, sans-serif" font-size="20" font-weight="700">RARE</text>

  <circle cx="708" cy="954" r="26" fill="#080d18" stroke="#78d8ff" stroke-opacity="0.8"/>
  <text x="696" y="962" fill="#E7F2FF" font-family="Exo 2, Segoe UI, sans-serif" font-size="24" font-weight="700">41</text>
</svg>