<?xml version="1.0" encoding="UTF-8"?>
<svg width="768" height="1024" viewBox="0 0 768 1024" fill="none" xmlns="http://www.w3.org/2000/svg">
  <defs>
    <linearGradient id="bg-void-ranger-c36" x1="60" y1="40" x2="728" y2="1004" gradientUnits="userSpaceOnUse">
      <stop offset="0" stop-color="#0f1028"/>
      <stop offset="0.55" stop-color="#352b7f"/>
      <stop offset="1" stop-color="#0f1028"/>
    </linearGradient>
    <radialGradient id="glow-void-ranger-c36" cx="0" cy="0" r="1" gradientUnits="userSpaceOnUse" gradientTransform="translate(357.46 175.74) rotate(90) scale(190.75 190.75)">
      <stop stop-color="#29d3ff" stop-opacity="0.45"/>
      <stop offset="1" stop-color="#29d3ff" stop-opacity="0"/>
    </radialGradient>
    <linearGradient id="edge-void-ranger-c36" x1="0" y1="0" x2="768" y2="1024" gradientUnits="userSpaceOnUse">
      <stop stop-color="#29d3ff" stop-opacity="0.85"/>
      <stop offset="1" stop-color="#9f8dff" stop-opacity="0.85"/>
    </linearGradient>
  </defs>

  <rect x="0" y="0" width="768" height="1024" rx="32" fill="#060910"/>
  <rect x="16" y="16" width="736" height="992" rx="24" fill="url(#bg-void-ranger-c36)"/>
  <rect x="16" y="16" width="736" height="992" rx="24" fill="url(#glow-void-ranger-c36)"/>

  <g opacity="0.88">
    <line x1="322.12" y1="596.54" x2="545.19" y2="662.32" stroke="#9f8dff" stroke-width="4" opacity="0.72"/><line x1="300.41" y1="519.32" x2="616.94" y2="519.62" stroke="#29d3ff" stroke-width="2" opacity="0.72"/><line x1="174.87" y1="309.71" x2="485.82" y2="437.04" stroke="#9f8dff" stroke-width="2" opacity="0.72"/><line x1="365.02" y1="514.42" x2="568.17" y2="255.42" stroke="#29d3ff" stroke-width="4" opacity="0.72"/><line x1="307.02" y1="781.12" x2="573.25" y2="811.42" stroke="#9f8dff" stroke-width="5" opacity="0.72"/><line x1="369.97" y1="274.32" x2="480.26" y2="861.34" stroke="#29d3ff" stroke-width="3" opacity="0.72"/><line x1="346.48" y1="313.52" x2="633.38" y2="169.79" stroke="#9f8dff" stroke-width="2" opacity="0.72"/>
  </g>

  <g opacity="0.8">
    <circle cx="51.36" cy="625.46" r="4.18" fill="#9f8dff" opacity="0.34"/><circle cx="527.18" cy="814.81" r="4.15" fill="#29d3ff" opacity="0.53"/><circle cx="56.05" cy="169.61" r="2.42" fill="#9f8dff" opacity="0.60"/><circle cx="138.91" cy="117.50" r="4.17" fill="#29d3ff" opacity="0.69"/><circle cx="405.31" cy="985.04" r="4.35" fill="#9f8dff" opacity="0.51"/><circle cx="415.95" cy="681.53" r="2.15" fill="#29d3ff" opacity="0.43"/><circle cx="611.89" cy="38.14" r="4.32" fill="#9f8dff" opacity="0.57"/><circle cx="219.94" cy="187.94" r="1.72" fill="#29d3ff" opacity="0.30"/><circle cx="116.21" cy="555.98" r="1.33" fill="#9f8dff" opacity="0.39"/><circle cx="197.20" cy="971.67" r="2.16" fill="#29d3ff" opacity="0.51"/><circle cx="420.06" cy="251.39" r="4.15" fill="#9f8dff" opacity="0.39"/><circle cx="83.70" cy="99.36" r="1.90" fill="#29d3ff" opacity="0.58"/><circle cx="385.52" cy="637.82" r="2.47" fill="#9f8dff" opacity="0.46"/><circle cx="42.68" cy="818.54" r="3.61" fill="#29d3ff" opacity="0.56"/><circle cx="481.15" cy="835.73" r="3.25" fill="#9f8dff" opacity="0.53"/><circle cx="210.96" cy="852.10" r="1.96" fill="#29d3ff" opacity="0.28"/><circle cx="259.46" cy="812.76" r="2.09" fill="#9f8dff" opacity="0.34"/><circle cx="761.80" cy="871.05" r="2.56" fill="#29d3ff" opacity="0.64"/><circle cx="754.37" cy="311.50" r="1.72" fill="#9f8dff" opacity="0.25"/><circle cx="38.47" cy="112.14" r="2.45" fill="#29d3ff" opacity="0.66"/><circle cx="85.44" cy="63.51" r="1.53" fill="#9f8dff" opacity="0.46"/><circle cx="222.62" cy="996.14" r="4.73" fill="#29d3ff" opacity="0.48"/><circle cx="98.05" cy="358.25" r="3.93" fill="#9f8dff" opacity="0.29"/><circle cx="257.04" cy="514.58" r="4.77" fill="#29d3ff" opacity="0.30"/><circle cx="366.35" cy="337.29" r="3.98" fill="#9f8dff" opacity="0.54"/><circle cx="483.74" cy="272.54" r="2.67" fill="#29d3ff" opacity="0.55"/><circle cx="430.03" cy="963.98" r="4.63" fill="#9f8dff" opacity="0.67"/><circle cx="196.74" cy="518.57" r="1.29" fill="#29d3ff" opacity="0.38"/>
  </g>

  <rect x="16" y="16" width="736" height="992" rx="24" stroke="url(#edge-void-ranger-c36)" stroke-width="2.5" opacity="0.85"/>
  <rect x="22" y="22" width="724" height="980" rx="20" stroke="#78d8ff" stroke-width="2" opacity="0.74"/>

  <rect x="34" y="34" width="700" height="72" rx="14" fill="#070b14" fill-opacity="0.72" stroke="#78d8ff" stroke-opacity="0.55"/>
  <text x="54" y="80" fill="#EAF4FF" font-family="Exo 2, Segoe UI, sans-serif" font-size="32" font-weight="700">Void Ranger</text>

  <rect x="34" y="872" width="700" height="92" rx="14" fill="#070b14" fill-opacity="0.74" stroke="#78d8ff" stroke-opacity="0.6"/>
  <text x="54" y="924" fill="#D9E7FF" font-family="Exo 2, Segoe UI, sans-serif" font-size="30" font-weight="600">Resource Surge</text>

  <rect x="598" y="36" width="118" height="42" rx="10" fill="#78d8ff" fill-opacity="0.2" stroke="#78d8ff" stroke-opacity="0.8"/>
  <text x="612" y="65" fill="#78d8ff" font-family="Exo 2, Segoe UI, sans-serif" font-size="20" font-weight="700">RARE</text>

  <circle cx="708" cy="954" r="26" fill="#080d18" stroke="#78d8ff" stroke-opacity="0.8"/>
  <text x="696" y="962" fill="#E7F2FF" font-family="Exo 2, Segoe UI, sans-serif" font-size="24" font-weight="700">36</text>
</svg>